<svg xmlns="http://www.w3.org/2000/svg" viewBox="0 0 653.88 38.47"><defs><style>.cls-1{fill:#c3af3f;}</style></defs><title>st_title</title><g id="レイヤー_2" data-name="レイヤー 2"><g id="text_object" data-name="text/object"><path class="cls-1" d="M0,.92H3.66V23a45.61,45.61,0,0,0,.15,4.91,8.15,8.15,0,0,0,1.27,3.62A7.32,7.32,0,0,0,8.14,34a9.57,9.57,0,0,0,4.16,1,8.29,8.29,0,0,0,3.49-.77,7.81,7.81,0,0,0,2.79-2.15,8.79,8.79,0,0,0,1.64-3.31A27.45,27.45,0,0,0,20.59,23V.92h3.66V23A27,27,0,0,1,23.3,31a10.78,10.78,0,0,1-3.84,5.26,11,11,0,0,1-7,2.24,13.32,13.32,0,0,1-7.59-2.11A10.22,10.22,0,0,1,.67,30.75,29.59,29.59,0,0,1,0,23Z"/><path class="cls-1" d="M38.14,37.55V.92h.8L63.32,29V.92h3.61V37.55h-.82L41.93,9.81V37.55Z"/><path class="cls-1" d="M80.55.92h3.66V37.55H80.55Z"/><path class="cls-1" d="M94.25.92h4l12.14,28.3L122.72.92h4L110.76,37.55H110Z"/><path class="cls-1" d="M137,.92h21V4.51H140.68V16h17.18v3.58H140.68V34h17.18v3.58H137Z"/><path class="cls-1" d="M169.57.92h7.3a44.45,44.45,0,0,1,8.27.5,9.48,9.48,0,0,1,5.3,3.2,9.17,9.17,0,0,1,2,6.05,9.82,9.82,0,0,1-1.4,5.26,8.78,8.78,0,0,1-4,3.43,18.41,18.41,0,0,1-7.22,1.18l13.18,17h-4.53l-13.18-17h-2.07v17h-3.66Zm3.66,3.59V17l6.31.05a15.55,15.55,0,0,0,5.43-.7,5.6,5.6,0,0,0,2.74-2.23,6.16,6.16,0,0,0,1-3.42,5.89,5.89,0,0,0-1-3.35,5.57,5.57,0,0,0-2.62-2.16,16,16,0,0,0-5.39-.64Z"/><path class="cls-1" d="M200.63,30.73l3.12-1.87q3.28,6.06,7.59,6a7.19,7.19,0,0,0,3.46-.86,6.11,6.11,0,0,0,2.47-2.3,6,6,0,0,0,.84-3.06,6.2,6.2,0,0,0-1.24-3.61,29.84,29.84,0,0,0-6.28-5.88,32.36,32.36,0,0,1-5.7-5A9.15,9.15,0,0,1,203,8.59a8.55,8.55,0,0,1,1.14-4.36,8.24,8.24,0,0,1,3.23-3.1A9.33,9.33,0,0,1,211.84,0a9.68,9.68,0,0,1,4.84,1.28A16.77,16.77,0,0,1,221.45,6l-3,2.27a14.3,14.3,0,0,0-3.52-3.61,6.08,6.08,0,0,0-3.18-.87,5,5,0,0,0-3.62,1.34,4.4,4.4,0,0,0-1.41,3.31,5.7,5.7,0,0,0,.5,2.32,8.61,8.61,0,0,0,1.82,2.44q.72.69,4.73,3.66a26.37,26.37,0,0,1,6.52,6.25,10.07,10.07,0,0,1,1.77,5.5,9.37,9.37,0,0,1-3,6.93,10.2,10.2,0,0,1-7.36,2.93,10.76,10.76,0,0,1-6.05-1.78A16.23,16.23,0,0,1,200.63,30.73Z"/><path class="cls-1" d="M248.35.92l17.09,36.63h-4l-5.76-12H239.94l-5.71,12h-4.08L247.46.92Zm-.46,7.78L241.62,22h12.52Z"/><path class="cls-1" d="M275.51.92h3.66V34h14.1v3.53H275.51Z"/><path class="cls-1" d="M319.75,4.51V.92h20.07V4.51h-8.16v33h-3.74v-33Z"/><path class="cls-1" d="M348.76.92h3.76L360,27.32,370.51.92h.76l10.38,26.4L389.26.92H393L382.46,37.55h-.68L370.91,9.84,359.83,37.55h-.68Z"/><path class="cls-1" d="M403.36.92H407V37.55h-3.66Z"/><path class="cls-1" d="M420.65,37.55V.92h.8L445.83,29V.92h3.61V37.55h-.82L424.44,9.81V37.55Z"/><path class="cls-1" d="M482.87.92h7.3a44.45,44.45,0,0,1,8.27.5,9.48,9.48,0,0,1,5.3,3.2,9.17,9.17,0,0,1,2,6.05,9.82,9.82,0,0,1-1.4,5.26,8.78,8.78,0,0,1-4,3.43,18.41,18.41,0,0,1-7.22,1.18l13.17,17h-4.52l-13.18-17h-2.07v17h-3.66Zm3.66,3.59V17l6.31.05a15.55,15.55,0,0,0,5.43-.7A5.64,5.64,0,0,0,501,14.08a6.16,6.16,0,0,0,1-3.42,6,6,0,0,0-1-3.35,5.62,5.62,0,0,0-2.62-2.16A16,16,0,0,0,493,4.51Z"/><path class="cls-1" d="M534.7,0a19,19,0,0,1,13.93,5.55,18.5,18.5,0,0,1,5.61,13.67,18.58,18.58,0,0,1-5.6,13.65A18.52,18.52,0,0,1,535,38.47a18.72,18.72,0,0,1-13.75-5.57,18.34,18.34,0,0,1-5.61-13.5,19.57,19.57,0,0,1,2.55-9.79A18.87,18.87,0,0,1,534.7,0Zm.16,3.56a15.07,15.07,0,0,0-7.7,2.12,15.14,15.14,0,0,0-5.69,5.71,15.9,15.9,0,0,0-2.05,8,14.92,14.92,0,0,0,4.53,11,14.93,14.93,0,0,0,10.91,4.5,15.67,15.67,0,0,0,7.9-2.07,14.77,14.77,0,0,0,5.66-5.65,16,16,0,0,0,2-8,15.58,15.58,0,0,0-2-7.89,15.19,15.19,0,0,0-5.72-5.64A15.57,15.57,0,0,0,534.86,3.56Z"/><path class="cls-1" d="M583.41,0a19,19,0,0,1,13.93,5.55A18.5,18.5,0,0,1,603,19.22a18.57,18.57,0,0,1-5.59,13.65,18.54,18.54,0,0,1-13.65,5.6A18.73,18.73,0,0,1,570,32.9a18.34,18.34,0,0,1-5.61-13.5,19.47,19.47,0,0,1,2.56-9.79A18.84,18.84,0,0,1,583.41,0Zm.17,3.56a15.65,15.65,0,0,0-13.4,7.83,15.9,15.9,0,0,0-2,8,14.91,14.91,0,0,0,4.52,11,14.93,14.93,0,0,0,10.92,4.5,15.66,15.66,0,0,0,7.89-2.07,14.7,14.7,0,0,0,5.66-5.65,15.87,15.87,0,0,0,2-8,15.48,15.48,0,0,0-2-7.89,15.12,15.12,0,0,0-5.72-5.64A15.51,15.51,0,0,0,583.58,3.56Z"/><path class="cls-1" d="M612.54,37.55,617.78.92h.6L633.27,31,648,.92h.59l5.27,36.63h-3.59l-3.62-26.19L633.72,37.55h-.94L619.67,11.16l-3.59,26.39Z"/></g></g></svg>