<svg xmlns="http://www.w3.org/2000/svg" viewBox="0 0 398.05 29.42"><defs><style>.cls-1{fill:#fff;}</style></defs><title>st_deluxetwinroom</title><g id="レイヤー_2" data-name="レイヤー 2"><g id="レイヤー_3" data-name="レイヤー 3"><path class="cls-1" d="M0,28.72V.7H5.81q6.28,0,9.12,1a12.23,12.23,0,0,1,6.37,5,15,15,0,0,1,2.29,8.39,14.74,14.74,0,0,1-1.81,7.41,11.67,11.67,0,0,1-4.73,4.72,17.7,17.7,0,0,1-8.14,1.53Zm2.69-2.65H5.92A30.36,30.36,0,0,0,14,25.35a9.33,9.33,0,0,0,5-3.7,11.48,11.48,0,0,0,1.81-6.54,12.07,12.07,0,0,0-2-6.93,9.89,9.89,0,0,0-5.47-3.93,32.7,32.7,0,0,0-8.66-.8h-2Z"/><path class="cls-1" d="M31,.7H47V3.45H33.75v8.78H46.89V15H33.75V26H46.89v2.75H31Z"/><path class="cls-1" d="M54,.7h2.79V26H67.55v2.71H54Z"/><path class="cls-1" d="M72.77.7h2.8V17.61a33.52,33.52,0,0,0,.12,3.76,6.25,6.25,0,0,0,1,2.77A5.76,5.76,0,0,0,79,26a7.4,7.4,0,0,0,3.18.75,6.33,6.33,0,0,0,2.67-.58A6,6,0,0,0,87,24.53,6.81,6.81,0,0,0,88.24,22a21.12,21.12,0,0,0,.28-4.38V.7h2.8V17.61a20.55,20.55,0,0,1-.73,6.07,8.52,8.52,0,0,1-8.26,5.74,10.16,10.16,0,0,1-5.8-1.62,7.8,7.8,0,0,1-3.24-4.28,22.77,22.77,0,0,1-.52-5.91Z"/><path class="cls-1" d="M97.76.7H101l6.71,10.9L114.49.7h3.23l-8.36,13.54,8.91,14.48H115L107.72,16.9l-7.3,11.82H97.15l8.95-14.46Z"/><path class="cls-1" d="M124.38.7h16.06V3.45H127.18v8.78h13.14V15H127.18V26h13.14v2.75H124.38Z"/><path class="cls-1" d="M157.19,3.45V.7h15.35V3.45h-6.25V28.72h-2.85V3.45Z"/><path class="cls-1" d="M177.57.7h2.87l5.72,20.19,8-20.19h.59l7.93,20.19L208.53.7h2.86l-8,28h-.52l-8.31-21.2L186,28.72h-.52Z"/><path class="cls-1" d="M217.53.7h2.8v28h-2.8Z"/><path class="cls-1" d="M229,28.72V.7h.61L248.2,22.18V.7H251v28h-.63L231.85,7.5V28.72Z"/><path class="cls-1" d="M272.63.7h5.58a33,33,0,0,1,6.32.39,7.15,7.15,0,0,1,4.06,2.45,7,7,0,0,1,1.56,4.62,7.5,7.5,0,0,1-1.07,4A6.72,6.72,0,0,1,286,14.8a13.88,13.88,0,0,1-5.52.91l10.07,13h-3.46L277,15.71h-1.58v13h-2.8Zm2.8,2.75V13l4.83,0a11.88,11.88,0,0,0,4.15-.54,4.28,4.28,0,0,0,2.09-1.7,4.67,4.67,0,0,0,.76-2.62,4.53,4.53,0,0,0-.77-2.56,4.18,4.18,0,0,0-2-1.65,12.22,12.22,0,0,0-4.12-.49Z"/><path class="cls-1" d="M310.49,0a14.54,14.54,0,0,1,10.65,4.25,14.12,14.12,0,0,1,4.29,10.45,14.24,14.24,0,0,1-4.28,10.44,14.2,14.2,0,0,1-10.43,4.28,14.35,14.35,0,0,1-10.52-4.26,14,14,0,0,1-4.29-10.33,14.94,14.94,0,0,1,1.95-7.48A14.43,14.43,0,0,1,310.49,0Zm.12,2.72a11.52,11.52,0,0,0-5.89,1.62,11.62,11.62,0,0,0-4.35,4.37,12.17,12.17,0,0,0-1.56,6.12,11.44,11.44,0,0,0,3.46,8.43,11.42,11.42,0,0,0,8.34,3.44,12,12,0,0,0,6-1.58A11.4,11.4,0,0,0,321,20.79a12.21,12.21,0,0,0,1.55-6.1,11.93,11.93,0,0,0-1.55-6,11.65,11.65,0,0,0-4.38-4.32A11.85,11.85,0,0,0,310.61,2.72Z"/><path class="cls-1" d="M346,0A14.54,14.54,0,0,1,356.6,4.25a14.12,14.12,0,0,1,4.29,10.45,14.24,14.24,0,0,1-4.28,10.44,14.2,14.2,0,0,1-10.43,4.28,14.35,14.35,0,0,1-10.52-4.26,14,14,0,0,1-4.29-10.33,14.94,14.94,0,0,1,1.95-7.48A14.43,14.43,0,0,1,346,0Zm.12,2.72a11.54,11.54,0,0,0-5.89,1.62,11.62,11.62,0,0,0-4.35,4.37,12.17,12.17,0,0,0-1.56,6.12,11.44,11.44,0,0,0,3.46,8.43,11.42,11.42,0,0,0,8.34,3.44,12,12,0,0,0,6-1.58,11.4,11.4,0,0,0,4.33-4.33,12.11,12.11,0,0,0,1.55-6.1,11.83,11.83,0,0,0-1.55-6,11.65,11.65,0,0,0-4.38-4.32A11.85,11.85,0,0,0,346.07,2.72Z"/><path class="cls-1" d="M366.44,28.72l4-28h.45l11.39,23L393.57.7H394l4,28h-2.74l-2.77-20-9.91,20h-.71l-10-20.19-2.76,20.19Z"/></g></g></svg>