<svg xmlns="http://www.w3.org/2000/svg" viewBox="0 0 298.46 29.42"><defs><style>.cls-1{fill:#fff;}</style></defs><title>st_double</title><g id="レイヤー_2" data-name="レイヤー 2"><g id="レイヤー_3" data-name="レイヤー 3"><path class="cls-1" d="M0,28.72V.7H5.81q6.28,0,9.12,1a12.23,12.23,0,0,1,6.37,5,15,15,0,0,1,2.29,8.39,14.74,14.74,0,0,1-1.81,7.41,11.67,11.67,0,0,1-4.73,4.72,17.7,17.7,0,0,1-8.14,1.53Zm2.69-2.65H5.92A30.36,30.36,0,0,0,14,25.35a9.33,9.33,0,0,0,5-3.7,11.48,11.48,0,0,0,1.81-6.54,12.07,12.07,0,0,0-2-6.93,9.89,9.89,0,0,0-5.47-3.93,32.7,32.7,0,0,0-8.66-.8h-2Z"/><path class="cls-1" d="M44,0A14.54,14.54,0,0,1,54.68,4.25,14.12,14.12,0,0,1,59,14.7a14.24,14.24,0,0,1-4.28,10.44,14.21,14.21,0,0,1-10.44,4.28,14.32,14.32,0,0,1-10.51-4.26,14,14,0,0,1-4.29-10.33A14.94,14.94,0,0,1,31.4,7.35,14.18,14.18,0,0,1,36.73,2,14.34,14.34,0,0,1,44,0Zm.12,2.72a11.52,11.52,0,0,0-5.89,1.62,11.62,11.62,0,0,0-4.35,4.37,12.17,12.17,0,0,0-1.57,6.12,11.45,11.45,0,0,0,3.47,8.43,11.39,11.39,0,0,0,8.34,3.44,12.05,12.05,0,0,0,6-1.58,11.4,11.4,0,0,0,4.33-4.33,12.21,12.21,0,0,0,1.55-6.1,11.93,11.93,0,0,0-1.55-6,11.65,11.65,0,0,0-4.38-4.32A11.85,11.85,0,0,0,44.15,2.72Z"/><path class="cls-1" d="M66.28.7h2.8V17.61a34.6,34.6,0,0,0,.11,3.76,6.25,6.25,0,0,0,1,2.77A5.76,5.76,0,0,0,72.5,26a7.4,7.4,0,0,0,3.18.75,6.33,6.33,0,0,0,2.67-.58,6,6,0,0,0,2.13-1.64A6.81,6.81,0,0,0,81.74,22,20.88,20.88,0,0,0,82,17.61V.7h2.8V17.61a20.51,20.51,0,0,1-.74,6.07,8.28,8.28,0,0,1-2.93,4,8.41,8.41,0,0,1-5.32,1.71A10.19,10.19,0,0,1,70,27.8a7.81,7.81,0,0,1-3.24-4.28,22.9,22.9,0,0,1-.51-5.91Z"/><path class="cls-1" d="M93.66.7h5.53a13,13,0,0,1,5.12.8,6.29,6.29,0,0,1,2.83,2.42,6.68,6.68,0,0,1,1,3.64,6.51,6.51,0,0,1-.91,3.4,6.63,6.63,0,0,1-2.67,2.48A10.27,10.27,0,0,1,108,15.19a6.73,6.73,0,0,1,1.83,2.42,7.17,7.17,0,0,1,.66,3.07,7.51,7.51,0,0,1-2.47,5.7,9.21,9.21,0,0,1-6.61,2.34h-7.7Zm2.75,2.75v9H98a12.26,12.26,0,0,0,4.29-.55,4.63,4.63,0,0,0,2.18-1.71,4.54,4.54,0,0,0,.8-2.6,3.68,3.68,0,0,0-1.35-3,6.74,6.74,0,0,0-4.28-1.09Zm0,11.78V26h3.47a12.76,12.76,0,0,0,4.5-.59,5.22,5.22,0,0,0,2.3-1.88,4.9,4.9,0,0,0-.35-6,6.28,6.28,0,0,0-3.36-1.9,24.2,24.2,0,0,0-5-.35Z"/><path class="cls-1" d="M117.74.7h2.8V26h10.78v2.71H117.74Z"/><path class="cls-1" d="M137.3.7h16.06V3.45H140.1v8.78h13.14V15H140.1V26h13.14v2.75H137.3Z"/><path class="cls-1" d="M173,.7h5.58a33,33,0,0,1,6.32.39A7.15,7.15,0,0,1,189,3.54a7,7,0,0,1,1.56,4.62,7.5,7.5,0,0,1-1.07,4,6.72,6.72,0,0,1-3.08,2.62,13.88,13.88,0,0,1-5.52.91l10.07,13H187.5l-10.08-13h-1.58v13H173Zm2.8,2.75V13l4.83,0a11.88,11.88,0,0,0,4.15-.54,4.28,4.28,0,0,0,2.09-1.7,4.67,4.67,0,0,0,.76-2.62,4.6,4.6,0,0,0-.76-2.56,4.25,4.25,0,0,0-2-1.65,12.18,12.18,0,0,0-4.12-.49Z"/><path class="cls-1" d="M210.9,0a14.54,14.54,0,0,1,10.65,4.25,14.12,14.12,0,0,1,4.29,10.45,14.24,14.24,0,0,1-4.28,10.44,14.2,14.2,0,0,1-10.43,4.28,14.35,14.35,0,0,1-10.52-4.26,14,14,0,0,1-4.29-10.33,14.94,14.94,0,0,1,2-7.48A14.43,14.43,0,0,1,210.9,0ZM211,2.72a11.52,11.52,0,0,0-5.89,1.62,11.62,11.62,0,0,0-4.35,4.37,12.17,12.17,0,0,0-1.56,6.12,11.44,11.44,0,0,0,3.46,8.43A11.42,11.42,0,0,0,211,26.7a12,12,0,0,0,6-1.58,11.4,11.4,0,0,0,4.33-4.33,12.21,12.21,0,0,0,1.55-6.1,11.93,11.93,0,0,0-1.55-6A11.65,11.65,0,0,0,217,4.34,11.85,11.85,0,0,0,211,2.72Z"/><path class="cls-1" d="M246.36,0A14.54,14.54,0,0,1,257,4.25,14.12,14.12,0,0,1,261.3,14.7,14.24,14.24,0,0,1,257,25.14a14.2,14.2,0,0,1-10.43,4.28,14.35,14.35,0,0,1-10.52-4.26,14,14,0,0,1-4.29-10.33,14.94,14.94,0,0,1,1.95-7.48A14.43,14.43,0,0,1,246.36,0Zm.12,2.72a11.54,11.54,0,0,0-5.89,1.62,11.62,11.62,0,0,0-4.35,4.37,12.17,12.17,0,0,0-1.56,6.12,11.44,11.44,0,0,0,3.46,8.43,11.42,11.42,0,0,0,8.34,3.44,12,12,0,0,0,6-1.58,11.4,11.4,0,0,0,4.33-4.33,12.11,12.11,0,0,0,1.55-6.1,11.83,11.83,0,0,0-1.55-6,11.65,11.65,0,0,0-4.38-4.32A11.85,11.85,0,0,0,246.48,2.72Z"/><path class="cls-1" d="M266.85,28.72l4-28h.45l11.39,23L294,.7h.45l4,28h-2.74L293,8.68l-9.91,20h-.71l-10-20.19-2.76,20.19Z"/></g></g></svg>