<svg xmlns="http://www.w3.org/2000/svg" viewBox="0 0 282.05 29.42"><defs><style>.cls-1{fill:#fff;}</style></defs><title>st_single</title><g id="レイヤー_2" data-name="レイヤー 2"><g id="レイヤー_3" data-name="レイヤー 3"><path class="cls-1" d="M0,23.5l2.38-1.43C4.06,25.16,6,26.7,8.19,26.7A5.57,5.57,0,0,0,10.84,26a4.64,4.64,0,0,0,1.88-1.76,4.59,4.59,0,0,0,.65-2.34,4.77,4.77,0,0,0-.95-2.76,22.81,22.81,0,0,0-4.8-4.5,24,24,0,0,1-4.36-3.83A7,7,0,0,1,1.77,6.57a6.43,6.43,0,0,1,.88-3.33A6.11,6.11,0,0,1,5.11.87,7.11,7.11,0,0,1,8.57,0a7.39,7.39,0,0,1,3.7,1,12.65,12.65,0,0,1,3.65,3.61L13.63,6.32a11,11,0,0,0-2.69-2.76,4.68,4.68,0,0,0-2.43-.67,3.87,3.87,0,0,0-2.77,1A3.36,3.36,0,0,0,4.67,6.46a4.24,4.24,0,0,0,.38,1.77,6.29,6.29,0,0,0,1.39,1.86c.36.36,1.57,1.29,3.61,2.8a20.37,20.37,0,0,1,5,4.78,7.66,7.66,0,0,1,1.36,4.21,7.14,7.14,0,0,1-2.32,5.29,7.77,7.77,0,0,1-5.63,2.25,8.21,8.21,0,0,1-4.62-1.36A12.46,12.46,0,0,1,0,23.5Z"/><path class="cls-1" d="M23.67.7h2.79v28H23.67Z"/><path class="cls-1" d="M35.09,28.72V.7h.61L54.34,22.18V.7H57.1v28h-.63L38,7.5V28.72Z"/><path class="cls-1" d="M92.65,5.41,90.48,7.46A16.58,16.58,0,0,0,85.35,4a13.86,13.86,0,0,0-5.44-1.19A13,13,0,0,0,73.64,4.4,11.71,11.71,0,0,0,69,8.79a11.35,11.35,0,0,0-1.64,5.85,11.57,11.57,0,0,0,1.7,6,12.08,12.08,0,0,0,4.68,4.48,13.56,13.56,0,0,0,6.55,1.62,11.24,11.24,0,0,0,7.32-2.43A9.64,9.64,0,0,0,91.17,18H82.24V15.29H94.31q0,6.5-3.86,10.31T80.24,29.42q-7.77,0-12.3-5.29a14.05,14.05,0,0,1-3.49-9.43,14.51,14.51,0,0,1,2-7.41,14.21,14.21,0,0,1,5.49-5.36A15.94,15.94,0,0,1,79.82,0a17.46,17.46,0,0,1,6.7,1.29A19.79,19.79,0,0,1,92.65,5.41Z"/><path class="cls-1" d="M101.34.7h2.8V26h10.77v2.71H101.34Z"/><path class="cls-1" d="M120.89.7H137V3.45H123.69v8.78h13.14V15H123.69V26h13.14v2.75H120.89Z"/><path class="cls-1" d="M156.63.7h5.58a33.21,33.21,0,0,1,6.33.39,7.16,7.16,0,0,1,4.05,2.45,7,7,0,0,1,1.56,4.62,7.5,7.5,0,0,1-1.07,4A6.67,6.67,0,0,1,170,14.8a13.88,13.88,0,0,1-5.52.91l10.07,13h-3.46L161,15.71h-1.59v13h-2.8Zm2.8,2.75V13l4.83,0a11.88,11.88,0,0,0,4.15-.54,4.35,4.35,0,0,0,2.1-1.7,4.74,4.74,0,0,0,.75-2.62,4.6,4.6,0,0,0-.76-2.56,4.25,4.25,0,0,0-2-1.65,12.18,12.18,0,0,0-4.12-.49Z"/><path class="cls-1" d="M194.49,0a14.54,14.54,0,0,1,10.65,4.25,14.12,14.12,0,0,1,4.29,10.45,14.24,14.24,0,0,1-4.28,10.44,14.2,14.2,0,0,1-10.43,4.28,14.35,14.35,0,0,1-10.52-4.26,14,14,0,0,1-4.29-10.33,14.85,14.85,0,0,1,2-7.48A14.15,14.15,0,0,1,187.19,2,14.34,14.34,0,0,1,194.49,0Zm.12,2.72a11.54,11.54,0,0,0-5.89,1.62,11.62,11.62,0,0,0-4.35,4.37,12.17,12.17,0,0,0-1.56,6.12,11.44,11.44,0,0,0,3.46,8.43,11.42,11.42,0,0,0,8.34,3.44,12,12,0,0,0,6-1.58A11.4,11.4,0,0,0,205,20.79a12.12,12.12,0,0,0,1.56-6.1,11.83,11.83,0,0,0-1.56-6,11.65,11.65,0,0,0-4.38-4.32A11.82,11.82,0,0,0,194.61,2.72Z"/><path class="cls-1" d="M230,0A14.54,14.54,0,0,1,240.6,4.25a14.12,14.12,0,0,1,4.29,10.45,14.24,14.24,0,0,1-4.28,10.44,14.2,14.2,0,0,1-10.43,4.28,14.36,14.36,0,0,1-10.52-4.26,14,14,0,0,1-4.29-10.33,14.85,14.85,0,0,1,2-7.48A14.15,14.15,0,0,1,222.65,2,14.34,14.34,0,0,1,230,0Zm.12,2.72a11.54,11.54,0,0,0-5.89,1.62,11.62,11.62,0,0,0-4.35,4.37,12.17,12.17,0,0,0-1.56,6.12,11.44,11.44,0,0,0,3.46,8.43,11.42,11.42,0,0,0,8.34,3.44,12,12,0,0,0,6-1.58,11.4,11.4,0,0,0,4.33-4.33,12.12,12.12,0,0,0,1.56-6.1,11.83,11.83,0,0,0-1.56-6,11.58,11.58,0,0,0-4.38-4.32A11.82,11.82,0,0,0,230.07,2.72Z"/><path class="cls-1" d="M250.44,28.72l4-28h.46l11.38,23L277.57.7H278l4,28h-2.74l-2.77-20-9.91,20h-.71l-10-20.19-2.75,20.19Z"/></g></g></svg>