<svg xmlns="http://www.w3.org/2000/svg" viewBox="0 0 240.86 29.42"><defs><style>.cls-1{fill:#fff;}</style></defs><title>st_twin</title><g id="レイヤー_2" data-name="レイヤー 2"><g id="レイヤー_3" data-name="レイヤー 3"><path class="cls-1" d="M0,3.45V.7H15.35V3.45H9.1V28.72H6.25V3.45Z"/><path class="cls-1" d="M20.38.7h2.87L29,20.89,37,.7h.58l7.94,20.19L51.34.7H54.2l-8.05,28h-.52L37.31,7.52l-8.47,21.2h-.52Z"/><path class="cls-1" d="M60.34.7h2.8v28h-2.8Z"/><path class="cls-1" d="M71.76,28.72V.7h.61L91,22.18V.7h2.76v28h-.62L74.65,7.5V28.72Z"/><path class="cls-1" d="M115.44.7H121a33,33,0,0,1,6.32.39,7.15,7.15,0,0,1,4.06,2.45A7,7,0,0,1,133,8.16a7.42,7.42,0,0,1-1.08,4,6.65,6.65,0,0,1-3.07,2.62,13.92,13.92,0,0,1-5.52.91l10.07,13H129.9l-10.08-13h-1.58v13h-2.8Zm2.8,2.75V13l4.83,0a11.81,11.81,0,0,0,4.14-.54,4.26,4.26,0,0,0,2.1-1.7,4.75,4.75,0,0,0,.76-2.62,4.53,4.53,0,0,0-.77-2.56,4.23,4.23,0,0,0-2-1.65,12.22,12.22,0,0,0-4.12-.49Z"/><path class="cls-1" d="M153.3,0A14.54,14.54,0,0,1,164,4.25a14.12,14.12,0,0,1,4.29,10.45A14.24,14.24,0,0,1,164,25.14a15,15,0,0,1-21,0,14,14,0,0,1-4.29-10.33,14.94,14.94,0,0,1,1.95-7.48A14.18,14.18,0,0,1,146,2,14.34,14.34,0,0,1,153.3,0Zm.12,2.72a11.52,11.52,0,0,0-5.89,1.62,11.62,11.62,0,0,0-4.35,4.37,12.17,12.17,0,0,0-1.57,6.12,11.45,11.45,0,0,0,3.47,8.43,11.41,11.41,0,0,0,8.34,3.44,12.05,12.05,0,0,0,6-1.58,11.4,11.4,0,0,0,4.33-4.33,12.21,12.21,0,0,0,1.55-6.1,11.93,11.93,0,0,0-1.55-6,11.65,11.65,0,0,0-4.38-4.32A11.85,11.85,0,0,0,153.42,2.72Z"/><path class="cls-1" d="M188.76,0a14.54,14.54,0,0,1,10.65,4.25A14.12,14.12,0,0,1,203.7,14.7a14.24,14.24,0,0,1-4.28,10.44A14.2,14.2,0,0,1,189,29.42a14.35,14.35,0,0,1-10.52-4.26,14,14,0,0,1-4.29-10.33,14.94,14.94,0,0,1,1.95-7.48A14.43,14.43,0,0,1,188.76,0Zm.12,2.72A11.52,11.52,0,0,0,183,4.34a11.62,11.62,0,0,0-4.35,4.37,12.17,12.17,0,0,0-1.57,6.12,11.45,11.45,0,0,0,3.47,8.43,11.41,11.41,0,0,0,8.34,3.44,12,12,0,0,0,6-1.58,11.4,11.4,0,0,0,4.33-4.33,12.21,12.21,0,0,0,1.55-6.1,11.93,11.93,0,0,0-1.55-6,11.65,11.65,0,0,0-4.38-4.32A11.85,11.85,0,0,0,188.88,2.72Z"/><path class="cls-1" d="M209.25,28.72l4-28h.45l11.39,23L236.38.7h.45l4,28h-2.75l-2.76-20-9.91,20h-.71l-10-20.19L212,28.72Z"/></g></g></svg>