<svg xmlns="http://www.w3.org/2000/svg" viewBox="0 0 446.09 29.42"><defs><style>.cls-1{fill:#fff;}</style></defs><title>st_universaltwinroom</title><g id="レイヤー_2" data-name="レイヤー 2"><g id="レイヤー_3" data-name="レイヤー 3"><path class="cls-1" d="M0,.7H2.8V17.61c0,2,0,3.26.11,3.76a6.37,6.37,0,0,0,1,2.77A5.73,5.73,0,0,0,6.23,26a7.33,7.33,0,0,0,3.18.75,6.31,6.31,0,0,0,2.66-.58,6.1,6.1,0,0,0,2.14-1.64A6.65,6.65,0,0,0,15.46,22a20.88,20.88,0,0,0,.29-4.38V.7h2.8V17.61a20.51,20.51,0,0,1-.74,6.07,8.21,8.21,0,0,1-2.93,4,8.39,8.39,0,0,1-5.32,1.71A10.19,10.19,0,0,1,3.75,27.8,7.81,7.81,0,0,1,.51,23.52,22.9,22.9,0,0,1,0,17.61Z"/><path class="cls-1" d="M26.2,28.72V.7h.61L45.45,22.18V.7h2.76v28h-.63L29.09,7.5V28.72Z"/><path class="cls-1" d="M55.65.7h2.8v28h-2.8Z"/><path class="cls-1" d="M63.17.7h3L75.5,22.35,84.94.7h3l-12.18,28h-.61Z"/><path class="cls-1" d="M92.92.7h16V3.45H95.72v8.78h13.14V15H95.72V26h13.14v2.75H92.92Z"/><path class="cls-1" d="M114.84.7h5.58a33,33,0,0,1,6.32.39,7.15,7.15,0,0,1,4.06,2.45,7,7,0,0,1,1.56,4.62,7.5,7.5,0,0,1-1.07,4,6.72,6.72,0,0,1-3.08,2.62,13.88,13.88,0,0,1-5.52.91l10.07,13H129.3l-10.08-13h-1.58v13h-2.8Zm2.8,2.75V13l4.83,0a11.78,11.78,0,0,0,4.14-.54,4.26,4.26,0,0,0,2.1-1.7,4.67,4.67,0,0,0,.76-2.62,4.53,4.53,0,0,0-.77-2.56,4.23,4.23,0,0,0-2-1.65,12.22,12.22,0,0,0-4.12-.49Z"/><path class="cls-1" d="M135.64,23.5,138,22.07c1.68,3.09,3.61,4.63,5.81,4.63a5.57,5.57,0,0,0,2.65-.66,4.64,4.64,0,0,0,1.88-1.76,4.59,4.59,0,0,0,.65-2.34,4.77,4.77,0,0,0-.95-2.76,22.81,22.81,0,0,0-4.8-4.5,24,24,0,0,1-4.36-3.83,7,7,0,0,1-1.49-4.28,6.43,6.43,0,0,1,.88-3.33A6.11,6.11,0,0,1,140.75.87,7.11,7.11,0,0,1,144.21,0a7.39,7.39,0,0,1,3.7,1,12.65,12.65,0,0,1,3.65,3.61l-2.28,1.73a11.14,11.14,0,0,0-2.7-2.76,4.68,4.68,0,0,0-2.43-.67,3.87,3.87,0,0,0-2.77,1,3.36,3.36,0,0,0-1.07,2.54,4.24,4.24,0,0,0,.38,1.77,6.29,6.29,0,0,0,1.39,1.86c.37.36,1.57,1.29,3.62,2.8a20.48,20.48,0,0,1,5,4.78A7.66,7.66,0,0,1,152,21.88a7.1,7.1,0,0,1-2.32,5.29,7.77,7.77,0,0,1-5.62,2.25,8.21,8.21,0,0,1-4.63-1.36A12.46,12.46,0,0,1,135.64,23.5Z"/><path class="cls-1" d="M169.19.7l13.06,28h-3l-4.41-9.22H162.76l-4.37,9.22h-3.12L168.5.7Zm-.35,6L164,16.8h9.57Z"/><path class="cls-1" d="M187,.7h2.8V26h10.77v2.71H187Z"/><path class="cls-1" d="M214.59,3.45V.7h15.35V3.45h-6.25V28.72h-2.86V3.45Z"/><path class="cls-1" d="M233.79.7h2.88l5.72,20.19,8-20.19H251l7.94,20.19L264.76.7h2.85l-8.05,28H259l-8.31-21.2-8.47,21.2h-.53Z"/><path class="cls-1" d="M272.58.7h2.8v28h-2.8Z"/><path class="cls-1" d="M282.84,28.72V.7h.61l18.64,21.48V.7h2.76v28h-.63L285.73,7.5V28.72Z"/><path class="cls-1" d="M324.18.7h5.58a33,33,0,0,1,6.32.39,7.18,7.18,0,0,1,4.06,2.45,7,7,0,0,1,1.56,4.62,7.42,7.42,0,0,1-1.08,4,6.7,6.7,0,0,1-3.07,2.62,14,14,0,0,1-5.53.91l10.08,13h-3.47l-10.07-13H327v13h-2.8ZM327,3.45V13l4.82,0a11.84,11.84,0,0,0,4.15-.54,4.26,4.26,0,0,0,2.1-1.7,4.74,4.74,0,0,0,.75-2.62A4.52,4.52,0,0,0,338,5.59a4.28,4.28,0,0,0-2-1.65,12.22,12.22,0,0,0-4.12-.49Z"/><path class="cls-1" d="M360.86,0a14.55,14.55,0,0,1,10.66,4.25A14.15,14.15,0,0,1,375.8,14.7a14.23,14.23,0,0,1-4.27,10.44,15,15,0,0,1-21,0,14.07,14.07,0,0,1-4.28-10.33,14.94,14.94,0,0,1,1.95-7.48A14.43,14.43,0,0,1,360.86,0ZM361,2.72a11.58,11.58,0,0,0-5.9,1.62,11.67,11.67,0,0,0-4.34,4.37,12.07,12.07,0,0,0-1.57,6.12,11.48,11.48,0,0,0,3.46,8.43A11.43,11.43,0,0,0,361,26.7a12,12,0,0,0,6-1.58,11.26,11.26,0,0,0,4.33-4.33,12.12,12.12,0,0,0,1.56-6.1,11.83,11.83,0,0,0-1.56-6A11.55,11.55,0,0,0,367,4.34,11.85,11.85,0,0,0,361,2.72Z"/><path class="cls-1" d="M395.15,0a14.55,14.55,0,0,1,10.66,4.25,14.11,14.11,0,0,1,4.28,10.45,14.23,14.23,0,0,1-4.27,10.44,15,15,0,0,1-21,0,14.07,14.07,0,0,1-4.28-10.33,14.94,14.94,0,0,1,1.95-7.48A14.18,14.18,0,0,1,387.86,2,14.33,14.33,0,0,1,395.15,0Zm.13,2.72a11.52,11.52,0,0,0-5.89,1.62A11.62,11.62,0,0,0,385,8.71a12.07,12.07,0,0,0-1.57,6.12,11.48,11.48,0,0,0,3.46,8.43,11.43,11.43,0,0,0,8.35,3.44,12.05,12.05,0,0,0,6-1.58,11.4,11.4,0,0,0,4.33-4.33,12.21,12.21,0,0,0,1.55-6.1,11.93,11.93,0,0,0-1.55-6,11.65,11.65,0,0,0-4.38-4.32A11.85,11.85,0,0,0,395.28,2.72Z"/><path class="cls-1" d="M414.47,28.72l4-28h.45l11.39,23L441.61.7h.44l4,28h-2.75l-2.77-20-9.9,20H430l-10-20.19-2.75,20.19Z"/></g></g></svg>