<svg width="29" height="18" viewBox="0 0 29 18" fill="none" xmlns="http://www.w3.org/2000/svg">
<path d="M17.3326 0.000741677C17.4265 -0.000457708 17.5211 -0.000203081 17.6166 0.00151033H29V15.8184H7.14338C5.10441 15.888 3.48107 15.5228 2.27981 14.8447C1.07421 14.1636 0.301964 13.1451 0.073225 12.0272C-0.384512 9.79119 1.32942 7.43633 4.49398 6.57997C7.92701 5.65087 9.56558 4.16136 11.1589 2.76926C12.6057 1.50515 14.1025 0.287825 16.559 0.046492V0.01064L17.3326 0.000741677ZM27.0206 3.11264H24.2032V6.62816H27.0207L27.0206 3.11264ZM22.9492 3.11264H20.1435V6.62816H22.9492V3.11264ZM17.3778 3.11264H11.944C10.6193 4.26032 9.19912 5.60975 6.74478 6.62803H17.3778V3.11264ZM27.0206 12.414H1.00836C1.32143 13.1202 1.85616 13.7103 2.53488 14.0984H27.0207L27.0206 12.414ZM28.9852 17.0065V18H3.12813V17.0065H28.9852Z" fill="white"/>
</svg>
