<svg width="481" height="123" viewBox="0 0 481 123" fill="none" xmlns="http://www.w3.org/2000/svg">
<g filter="url(#filter0_d_236_56)">
<path d="M11.012 56.316L14.392 55.64C20.0773 54.2533 24.844 52.572 28.692 50.596C30.4947 49.6947 32.124 48.7587 33.58 47.788L34.048 47.424C31.4827 45.24 28.9173 43.3853 26.352 41.86C22.608 44.0093 18.0147 45.968 12.572 47.736L12.156 46.592L16.784 44.668C18.76 43.6973 20.5107 42.7787 22.036 41.912C23.5613 41.0453 25 40.0747 26.352 39C28.6747 37.1627 30.408 35.4293 31.552 33.8C32.2453 32.9333 32.644 32.1533 32.748 31.46L32.8 30.628L33.164 30.316L33.996 31.2L35.608 32.812L35.92 33.228C36.0587 33.3667 36.128 33.5053 36.128 33.644C36.128 33.7827 36.024 33.9387 35.816 34.112L33.788 35.828L33.84 35.984L34.36 35.88L34.984 35.828L42.784 34.736C43.2347 34.7013 43.72 34.476 44.24 34.06L45.644 32.76L49.336 35.516C49.752 35.7933 50.012 36.1227 50.116 36.504C49.908 36.712 49.7693 36.8333 49.7 36.868C48.868 37.3187 48.0013 38.0293 47.1 39L43.876 42.484C40.3053 46.1933 36.4227 49.1573 32.228 51.376C29.2813 52.9013 26.0227 54.184 22.452 55.224C18.8467 56.2293 15.6053 56.9573 12.728 57.408L11.376 57.668L11.012 56.316ZM35.244 46.644C39.2307 43.524 42.2813 40.196 44.396 36.66L43.616 36.712L35.14 37.96H34.932C34.724 37.96 34.516 37.908 34.308 37.804L32.748 36.972C30.8067 38.7053 28.952 40.144 27.184 41.288L29.94 42.068L33.944 43.316C34.36 43.4547 34.6547 43.7667 34.828 44.252L34.984 44.876L35.244 46.644ZM10.128 37.7C14.1493 36.4867 17.824 35.1347 21.152 33.644C24.48 32.1533 27.5653 30.368 30.408 28.288C28.7787 26.9707 26.3693 25.3413 23.18 23.4C20.58 25.064 17.668 26.5373 14.444 27.82L13.924 26.728L14.652 26.312C17.8413 24.6133 20.58 22.7587 22.868 20.748C24.844 19.0147 26.3867 17.264 27.496 15.496L28.432 13.572C28.6053 13.1213 28.692 12.6707 28.692 12.22C28.692 11.8387 28.64 11.4747 28.536 11.128L28.484 10.868L29.004 10.556C29.94 11.5613 31.0147 12.8613 32.228 14.456L32.436 15.028L29.732 17.732H30.564C31.3613 17.6973 32.2453 17.6107 33.216 17.472C34.1867 17.3333 35.1227 17.1947 36.024 17.056C36.544 16.952 37.324 16.8307 38.364 16.692C38.78 16.588 39.1787 16.3973 39.56 16.12L41.172 14.768L41.328 14.82L45.02 17.576L45.436 18.044C45.4013 18.356 45.2453 18.5813 44.968 18.72C43.9973 19.24 43.0613 20.0027 42.16 21.008C40.184 23.1227 37.9307 25.3067 35.4 27.56C33.2507 29.432 30.6333 31.1827 27.548 32.812C24.7053 34.3027 21.412 35.6547 17.668 36.868L13.768 38.064L11.064 38.844L10.544 38.948L10.128 37.7ZM31.708 27.456C33.4413 25.9653 34.9493 24.5267 36.232 23.14C37.5147 21.7533 38.6413 20.28 39.612 18.72L39.56 18.564L30.928 19.916L28.952 18.72L24.012 22.88L24.168 22.932L30.2 24.544C30.7893 24.7173 31.1533 25.064 31.292 25.584L31.708 27.456ZM62.388 53.612L62.648 53.092C63.6533 53.1613 65.1613 53.196 67.172 53.196C69.3213 53.196 72.476 53.092 76.636 52.884L82.096 52.676V48.516C77.2773 48.7587 73.3773 49.1053 70.396 49.556L67.64 47.476L67.796 46.956L69.98 47.06L74.192 46.956L82.2 46.592V42.848C80.6053 42.9173 79.028 43.0213 77.468 43.16L74.608 43.368V44.98L74.088 45.344L73.672 45.136L71.8 43.628C71.5573 43.42 71.4533 43.16 71.488 42.848C71.696 42.016 71.8 41.184 71.8 40.352C71.8 39.9013 71.7653 39.1907 71.696 38.22L71.644 37.128C71.6093 36.296 71.488 35.048 71.28 33.384C71.1413 31.9627 70.6907 30.6107 69.928 29.328L69.72 29.016L70.084 28.704L72.164 29.848C72.6147 30.056 72.892 30.212 72.996 30.316C73.308 30.5587 73.776 30.68 74.4 30.68L82.2 30.108V25.792H81.576L76.428 26.156L72.008 26.52L67.068 27.04L64.78 27.404C64.5027 27.404 64.312 27.3693 64.208 27.3L60.984 25.116L61.14 24.596H67.38L82.148 23.764C82.148 22.932 82.1307 22.0827 82.096 21.216C82.096 20.3147 82.0267 19.5 81.888 18.772C75.8907 19.708 70.968 20.384 67.12 20.8L66.756 19.292L68.732 18.98C69.252 18.876 70.032 18.7547 71.072 18.616L76.012 17.732C79.2013 17.108 81.8533 16.484 83.968 15.86C85.2507 15.444 86.308 15.08 87.14 14.768C87.972 14.4213 88.7693 14.0227 89.532 13.572C89.8093 13.3987 90.0867 13.208 90.364 13C90.6413 12.792 90.9187 12.584 91.196 12.376C91.6813 11.96 91.9067 11.4573 91.872 10.868L92.496 10.66L93.38 11.544L95.98 14.248C96.188 14.456 96.3267 14.6467 96.396 14.82C96.5 14.9933 96.5 15.2013 96.396 15.444L96.084 15.548C95.564 15.5133 94.992 15.5653 94.368 15.704C93.7787 15.8427 93.2067 15.9987 92.652 16.172C89.5667 17.0733 86.6893 17.784 84.02 18.304L83.5 18.408L83.76 18.668L85.112 19.552C85.424 19.7947 85.58 20.02 85.58 20.228L85.476 20.748C85.372 21.1293 85.3027 21.5627 85.268 22.048C85.268 22.5333 85.268 23.0013 85.268 23.452L87.504 23.296L90.624 23.036C91.976 22.932 93.3453 22.7933 94.732 22.62C96.1533 22.4467 97.436 22.2213 98.58 21.944C99.724 21.7013 100.851 21.2853 101.96 20.696L104.768 22.88L105.548 23.556L105.912 24.076C105.981 24.2147 106.016 24.3187 106.016 24.388C106.016 24.5267 105.964 24.648 105.86 24.752C105.756 24.856 105.617 24.9253 105.444 24.96C105.271 25.0293 104.976 25.064 104.56 25.064C103.173 24.9947 102.116 24.96 101.388 24.96C100.66 24.96 99.464 24.9947 97.8 25.064L95.98 25.116C93.9693 25.1507 90.988 25.272 87.036 25.48L85.112 25.532L85.008 29.9L87.192 29.744L91.144 29.276C92.2533 29.1373 93.3453 28.6173 94.42 27.716L95.564 28.496L97.644 30.004L98.06 30.316C98.2333 30.4893 98.32 30.628 98.32 30.732C98.32 30.836 98.2507 30.992 98.112 31.2L97.956 31.408C97.54 31.7893 97.228 32.2227 97.02 32.708C96.812 33.1933 96.656 33.7653 96.552 34.424L95.044 42.12C94.94 42.6053 94.7667 43.1253 94.524 43.68C94.316 44.2 93.9 44.5293 93.276 44.668L92.808 44.148L91.976 42.848L91.612 42.328L84.852 42.64V46.384H85.32L89.948 46.02C91.196 45.9507 92.3227 45.7773 93.328 45.5L95.46 44.772C96.2227 45.3613 96.7947 45.812 97.176 46.124C97.5573 46.436 97.8867 46.8347 98.164 47.32C98.0947 47.632 98.008 47.84 97.904 47.944C97.8347 48.0133 97.6613 48.048 97.384 48.048L91.664 48.152L85.528 48.36L84.852 48.412V52.468H86.36L92.756 52.104C94.108 52 95.2347 51.896 96.136 51.792C97.072 51.6533 97.9907 51.4453 98.892 51.168L100.348 50.648L101.284 51.324L103.468 53.248C103.919 53.6987 104.127 54.132 104.092 54.548C103.884 54.8253 103.572 54.964 103.156 54.964L94.784 54.6L90.936 54.548L85.684 54.704C83.9853 54.7387 81.3507 54.8253 77.78 54.964C75.7693 55.068 72.8747 55.2933 69.096 55.64L65.924 56.056H65.508L62.388 53.612ZM82.2 40.976V37.492L77 37.96L74.816 36.348L75.076 35.932C76.22 35.9667 77.8667 35.9147 80.016 35.776L82.2 35.672V32.032L74.14 32.656C74.2093 35.9147 74.3307 38.844 74.504 41.444L82.2 40.976ZM92.444 41.392C93.1373 38.6187 93.6053 35.2733 93.848 31.356C91.872 31.4253 88.908 31.5987 84.956 31.876V35.412L87.712 35.048C88.6827 34.8747 89.584 34.5973 90.416 34.216L91.82 35.516L92.184 35.88C92.2533 35.984 92.288 36.1053 92.288 36.244C92.288 36.5213 92.132 36.6947 91.82 36.764L91.196 36.868L85.268 37.18L84.904 37.232V40.768C85.4587 40.6987 85.8747 40.664 86.152 40.664C86.9147 40.5947 87.6773 40.508 88.44 40.404C89.2373 40.2653 89.948 40.0747 90.572 39.832C91.3693 40.2827 91.9933 40.8027 92.444 41.392ZM137.216 50.128C137.043 50.0933 136.887 50.0067 136.748 49.868C136.644 49.7293 136.557 49.5733 136.488 49.4L134.044 44.408L133.576 43.628L130.872 44.928L130.3 43.888C132.969 42.3627 135.292 40.8547 137.268 39.364C139.279 37.8387 141.047 36.1053 142.572 34.164C140.215 30.5933 138.533 26.2947 137.528 21.268L122.916 22.464L123.644 23.244L124.372 24.076C124.649 24.388 124.736 24.752 124.632 25.168C124.563 25.376 124.511 25.584 124.476 25.792C124.441 25.9653 124.407 26.156 124.372 26.364L124.424 26.572L127.284 26.364L130.612 26C131.652 25.8613 132.501 25.7227 133.16 25.584C133.853 25.4453 134.529 25.2373 135.188 24.96L135.916 24.648C136.748 25.2373 137.389 25.792 137.84 26.312C137.944 26.4507 137.996 26.5893 137.996 26.728C137.996 26.9707 137.84 27.144 137.528 27.248L137.164 27.3C134.529 27.404 131.721 27.6467 128.74 28.028L126.452 28.392L126.088 28.444C125.845 28.444 125.585 28.3573 125.308 28.184L124.164 27.404L123.748 29.276C123.055 32.5347 122.084 35.3427 120.836 37.7C119.172 40.9587 116.815 43.784 113.764 46.176L112.256 47.32L111.528 46.436L112.308 45.708C114.596 43.42 116.399 41.0973 117.716 38.74C119.276 35.932 120.351 32.8293 120.94 29.432C121.287 27.456 121.477 25.5493 121.512 23.712V22.724C121.027 22.724 120.472 22.7933 119.848 22.932C119.259 23.036 118.687 23.14 118.132 23.244L115.168 21.112L115.428 20.54C116.191 20.6093 116.797 20.6267 117.248 20.592L122.916 20.436L136.02 19.5L137.112 19.396L136.8 17.68L136.176 14.508C136.003 13.4333 135.5 12.3413 134.668 11.232L134.252 10.608L134.616 10.14C135.205 10.348 136.176 10.9027 137.528 11.804C138.88 12.6707 139.677 13.2773 139.92 13.624C139.643 14.4213 139.504 15.3227 139.504 16.328C139.504 16.8133 139.521 17.2813 139.556 17.732C139.591 18.1827 139.625 18.6507 139.66 19.136L141.376 18.98C142 18.9107 142.503 18.8413 142.884 18.772C143.577 18.7027 144.617 18.564 146.004 18.356C148.153 18.044 149.8 17.5933 150.944 17.004L151.62 16.64L154.324 18.772L154.844 19.344C154.913 19.448 154.948 19.5867 154.948 19.76C154.948 20.0373 154.775 20.228 154.428 20.332L154.012 20.384C151.724 20.384 148.292 20.5227 143.716 20.8L140.388 21.008L139.868 21.112C140.7 25.3413 142.069 29.068 143.976 32.292L144.86 30.576C145.623 29.016 146.16 27.5427 146.472 26.156C146.645 25.6013 146.732 24.9253 146.732 24.128C146.732 23.5387 146.697 23.088 146.628 22.776L146.576 22.36L146.784 22.204L146.992 22.1C147.304 22.308 147.928 22.9493 148.864 24.024C149.835 25.0987 150.372 25.7747 150.476 26.052L150.216 26.468L148.708 28.964C147.668 30.8013 146.576 32.5 145.432 34.06L145.328 34.216C147.547 36.9547 150.407 39.364 153.908 41.444C154.532 38.4973 155.035 35.2387 155.416 31.668H156.3L156.352 31.928L156.456 34.372C156.456 35.5853 156.508 36.7987 156.612 38.012C156.751 40.5427 157.028 42.5187 157.444 43.94L157.496 44.2L157.548 44.564C157.548 45.188 157.236 45.5 156.612 45.5C156.231 45.5 155.728 45.3787 155.104 45.136C153.752 44.512 152.296 43.628 150.736 42.484C148.205 40.6813 146.039 38.6707 144.236 36.452L143.872 35.984C142.277 37.6133 140.856 38.9133 139.608 39.884C138.083 40.9933 136.453 42.0507 134.72 43.056C135.587 43.6453 136.107 44.0267 136.28 44.2L138.412 45.916C138.724 46.228 138.88 46.592 138.88 47.008C138.88 47.84 138.603 48.672 138.048 49.504C137.84 49.92 137.563 50.128 137.216 50.128ZM117.82 54.912C117.577 55.0507 117.369 55.12 117.196 55.12C116.884 55.12 116.624 54.9293 116.416 54.548C116.069 53.8547 115.775 53.0227 115.532 52.052C118.964 49.452 120.784 46.2453 120.992 42.432L121.616 42.328L121.98 43.524L122.448 45.292C122.517 45.6387 122.552 45.8987 122.552 46.072C122.552 46.384 122.483 46.7827 122.344 47.268C121.443 49.7987 120.437 51.8267 119.328 53.352L118.392 54.496L117.82 54.912ZM149.228 57.044C147.98 57.1133 147.079 57.148 146.524 57.148C145.241 57.148 143.976 57.096 142.728 56.992C140.232 56.7493 138.083 56.368 136.28 55.848C133.195 54.912 130.664 53.4213 128.688 51.376C126.989 49.608 125.949 47.7187 125.568 45.708L125.516 45.5L126.608 45.24L127.128 46.28C128.341 48.776 130.265 50.6653 132.9 51.948C134.876 52.884 136.939 53.508 139.088 53.82C140.925 54.0973 142.641 54.236 144.236 54.236H144.86C144.652 53.3693 144.271 52.104 143.716 50.44C143.404 49.296 143.075 48.1693 142.728 47.06L143.352 46.852L145.224 49.556C146.333 51.1853 147.789 52.9187 149.592 54.756L150.32 55.328L150.528 55.536C150.632 55.64 150.719 55.744 150.788 55.848C150.892 55.952 150.944 56.0733 150.944 56.212C150.944 56.5933 150.701 56.8187 150.216 56.888C149.904 56.992 149.575 57.044 149.228 57.044ZM125.828 40.924C125.655 40.7507 125.603 40.508 125.672 40.196C125.845 39.052 125.932 38.012 125.932 37.076C125.932 36.2093 125.828 34.84 125.62 32.968C125.516 32.2053 125.273 31.512 124.892 30.888L125.256 30.472L127.856 32.084L129.936 31.772L132.484 31.356C133.281 31.252 134.009 30.8707 134.668 30.212L134.98 29.952C136.54 30.9573 137.597 31.6853 138.152 32.136L137.892 32.656C137.337 33.1067 136.973 33.8347 136.8 34.84L136.384 37.076L136.332 37.492C136.575 37.6653 136.817 37.856 137.06 38.064C137.303 38.2373 137.476 38.4453 137.58 38.688C137.545 38.9653 137.355 39.104 137.008 39.104L134.408 39.156L129.676 39.572L128.272 39.676L128.376 42.016L127.856 42.484L125.828 40.924ZM134.044 37.284L134.304 32.968L128.272 33.696V37.96L134.044 37.284ZM155.676 52.936C155.399 52.936 155.156 52.7973 154.948 52.52L152.452 49.608C150.753 47.5627 148.933 45.76 146.992 44.2L146.836 44.096L147.304 43.42L148.448 43.888C150.563 44.8587 152.781 46.0027 155.104 47.32C155.971 47.84 156.421 48.5507 156.456 49.452L156.612 51.688L156.56 52.052C156.491 52.468 156.265 52.7453 155.884 52.884L155.676 52.936ZM146.992 17.732C146.888 17.8013 146.767 17.836 146.628 17.836C146.489 17.836 146.351 17.7667 146.212 17.628L146.056 17.42C144.808 15.444 143.231 13.6067 141.324 11.908L141.272 11.804L141.48 11.284L141.74 11.336L145.952 12.792L147.2 13.416C147.616 13.6587 147.824 14.0227 147.824 14.508C147.824 15.0627 147.755 15.8253 147.616 16.796C147.616 17.1773 147.408 17.4893 146.992 17.732ZM180.272 57.824C179.197 57.0267 178.14 56.0907 177.1 55.016C177.135 54.912 177.152 54.7907 177.152 54.652C177.187 54.548 177.221 54.444 177.256 54.34C177.603 53.508 177.811 52.364 177.88 50.908C178.053 46.5747 178.14 42.7093 178.14 39.312L178.088 34.112C178.088 31.8587 177.932 29.9 177.62 28.236C177.377 27.1267 177.083 26.208 176.736 25.48L176.476 24.856L176.996 24.44L181 27.508L182.664 27.404L186.876 27.04L187.968 26.832L191.452 26.416C192.111 26.2773 192.787 25.896 193.48 25.272L194.104 24.7L196.444 26.208L197.796 27.144C198.039 27.352 198.16 27.5253 198.16 27.664C198.16 27.8373 198.056 28.028 197.848 28.236L197.64 28.496C196.981 29.0507 196.565 29.7613 196.392 30.628L195.716 34.164C195.855 34.3373 196.167 34.632 196.652 35.048C196.86 35.2213 197.068 35.412 197.276 35.62C197.484 35.7933 197.64 35.984 197.744 36.192C197.709 36.4693 197.553 36.6427 197.276 36.712L196.6 36.764L188.176 37.128L182.82 37.492L180.948 37.648V42.9H182.248L184.744 42.744L189.84 42.276L193.584 41.86C193.931 41.7907 194.225 41.6693 194.468 41.496L196.184 40.248L196.912 40.664L199.772 42.588L200.396 43.16L199.928 43.784C199.027 44.616 198.455 45.7947 198.212 47.32L197.744 50.18L197.692 50.7C197.935 50.9427 198.212 51.168 198.524 51.376C198.801 51.584 199.061 51.792 199.304 52C199.547 52.2427 199.72 52.5027 199.824 52.78C199.685 53.092 199.46 53.248 199.148 53.248L197.12 53.3L181.208 53.872L180.844 53.924V57.408L180.272 57.824ZM180.844 51.636C182.473 51.5667 185.801 51.376 190.828 51.064L194.52 50.804L194.78 48.724C194.849 47.996 194.919 47.2333 194.988 46.436C195.092 45.6387 195.161 44.8933 195.196 44.2C189.927 44.5467 185.143 44.8933 180.844 45.24V51.636ZM184.016 35.308C187.24 35.0653 190.117 34.8053 192.648 34.528C192.891 32.7947 193.064 30.8533 193.168 28.704L181.156 29.692C181.052 30.3507 181 31.772 181 33.956C181 34.9267 181.017 35.4467 181.052 35.516L184.016 35.308ZM167.324 31.304C167.081 31.304 166.873 31.1653 166.7 30.888L165.14 28.132C166.943 26.78 168.277 25.012 169.144 22.828C169.872 21.0253 170.271 18.876 170.34 16.38L170.964 16.276C171.449 17.004 171.813 17.6627 172.056 18.252C172.333 18.8067 172.507 19.4133 172.576 20.072L173.2 20.02L183.704 19.448L194.832 18.564L200.136 17.992C201.072 17.9227 202.025 17.4893 202.996 16.692L203.568 16.224L205.648 17.94L209.6 21.632C209.808 21.84 209.964 22.0653 210.068 22.308L210.172 22.672C210.172 22.9147 210.016 23.0707 209.704 23.14L208.248 23.348C205.752 23.66 203.655 24.18 201.956 24.908L200.604 25.532L200.032 25.064C200.344 24.5093 200.673 24.024 201.02 23.608C201.921 22.2907 202.528 21.268 202.84 20.54H202.32L188.436 21.372L176.788 22.204L173.98 22.672L173.616 22.724L172.472 21.788L172.316 22.464C171.415 25.5147 170.34 27.976 169.092 29.848C168.815 30.264 168.589 30.5413 168.416 30.68C168.312 30.8187 168.087 30.992 167.74 31.2L167.324 31.304ZM188.956 18.2C188.748 18.304 188.557 18.356 188.384 18.356C188.072 18.356 187.812 18.1653 187.604 17.784C186.911 16.432 185.871 14.976 184.484 13.416L182.196 11.18L181.78 10.816L182.04 10.4L182.196 10.14L184.9 11.024L188.852 12.428C189.753 12.74 190.187 13.3813 190.152 14.352L189.892 16.952C189.788 17.5067 189.476 17.9227 188.956 18.2ZM250.212 57.408C249.519 56.576 248.427 55.5013 246.936 54.184C245.445 52.9013 243.903 51.7227 242.308 50.648L242.672 50.024C244.891 50.8907 247.352 51.7573 250.056 52.624L250.524 52.728C250.663 52.728 250.819 52.6067 250.992 52.364C251.72 51.2547 252.639 47.8227 253.748 42.068C254.857 36.3133 255.689 31.2347 256.244 26.832C255.308 26.8667 253.661 27.0227 251.304 27.3C248.947 27.5427 247.023 27.7507 245.532 27.924C245.081 27.716 244.44 27.3173 243.608 26.728C241.909 29.3627 240.072 31.5813 238.096 33.384L237.16 32.604C240.8 27.9587 243.209 22.6893 244.388 16.796C244.561 15.86 244.648 15.0453 244.648 14.352C244.648 13.1387 244.475 12.1333 244.128 11.336L244.752 10.92C245.549 11.6827 246.381 12.532 247.248 13.468C248.115 14.3693 248.756 15.08 249.172 15.6C249.276 15.704 249.328 15.8253 249.328 15.964C249.328 16.068 249.259 16.1893 249.12 16.328C248.843 16.64 248.496 17.264 248.08 18.2C246.936 20.7653 245.653 23.2613 244.232 25.688L246.884 25.48C249.103 25.272 251.131 25.012 252.968 24.7C253.592 24.596 254.147 24.4227 254.632 24.18C255.152 23.9373 255.793 23.4693 256.556 22.776L258.324 24.284C259.191 24.9773 259.849 25.5493 260.3 26C260.543 26.208 260.664 26.3987 260.664 26.572C260.664 26.7107 260.56 26.9187 260.352 27.196C259.659 28.028 259.243 28.7907 259.104 29.484C258.48 32.3267 257.821 35.62 257.128 39.364C256.435 43.0733 255.88 45.9507 255.464 47.996C255.048 50.0067 254.58 51.74 254.06 53.196C253.401 54.9987 252.5 56.4027 251.356 57.408C251.183 57.5813 250.992 57.668 250.784 57.668C250.576 57.668 250.385 57.5813 250.212 57.408ZM223.328 51.792C222.461 51.1333 221.595 50.3533 220.728 49.452C220.52 49.244 220.451 49.0187 220.52 48.776C220.832 47.84 221.005 46.852 221.04 45.812C221.075 45.2573 221.092 44.1133 221.092 42.38C221.092 37.596 220.953 32.9333 220.676 28.392C220.572 26.416 220.156 24.5613 219.428 22.828L219.844 22.568C220.884 23.296 221.993 24.128 223.172 25.064C225.772 21.736 227.627 18.7373 228.736 16.068C229.117 15.236 229.308 14.2653 229.308 13.156C229.308 12.9133 229.273 12.5147 229.204 11.96L229.88 11.648C231.128 13.208 232.168 14.56 233 15.704C233.277 16.1547 233.312 16.484 233.104 16.692C232.653 17.0387 232.081 17.6453 231.388 18.512C229.031 21.3893 226.968 23.6427 225.2 25.272C227.627 25.0293 229.499 24.752 230.816 24.44C231.371 24.3013 231.821 24.128 232.168 23.92C232.549 23.6773 232.965 23.348 233.416 22.932C235.219 23.972 236.397 24.7347 236.952 25.22C237.125 25.3587 237.212 25.4973 237.212 25.636C237.212 25.74 237.16 25.8787 237.056 26.052C236.779 26.468 236.588 26.884 236.484 27.3C236.38 27.6813 236.276 28.2707 236.172 29.068C235.964 30.8707 235.791 34.9613 235.652 41.34L235.496 47.944C235.461 48.568 235.357 49.14 235.184 49.66C235.011 50.18 234.803 50.5787 234.56 50.856C234.317 51.0987 234.109 51.22 233.936 51.22C233.693 51.22 233.468 51.0467 233.26 50.7C233.052 50.3187 232.827 49.8853 232.584 49.4C232.376 48.9147 232.168 48.4293 231.96 47.944L223.744 48.516L223.796 51.428L223.328 51.792ZM246.832 41.704C245.861 40.5253 244.665 39.2773 243.244 37.96C241.857 36.6427 240.609 35.5853 239.5 34.788L239.968 34.164C243.019 35.1693 245.584 36.2093 247.664 37.284C248.045 37.4573 248.305 37.6307 248.444 37.804C248.583 37.9427 248.669 38.116 248.704 38.324C248.773 38.8093 248.808 39.2947 248.808 39.78C248.808 40.2653 248.773 40.7853 248.704 41.34C248.635 41.6173 248.513 41.8427 248.34 42.016C248.201 42.1547 248.011 42.224 247.768 42.224C247.456 42.224 247.144 42.0507 246.832 41.704ZM223.692 35.568C225.945 35.3253 227.297 35.152 227.748 35.048C228.892 34.8053 229.689 34.6147 230.14 34.476C230.695 34.892 231.215 35.3773 231.7 35.932C231.839 36.0707 231.908 36.2093 231.908 36.348C231.908 36.4867 231.839 36.608 231.7 36.712C231.561 36.7813 231.405 36.8333 231.232 36.868C229.291 37.0067 226.795 37.232 223.744 37.544V46.384C226.171 46.2107 227.8 46.072 228.632 45.968C229.568 45.864 230.296 45.6733 230.816 45.396C231.613 45.9507 232.168 46.4013 232.48 46.748C232.653 46.6093 232.775 46.3493 232.844 45.968C233.156 37.6827 233.312 31.1827 233.312 26.468C230.088 26.8147 226.881 27.1267 223.692 27.404V35.568ZM300.028 55.848C297.012 55.64 294.689 55.2933 293.06 54.808H292.956C291.431 54.4267 290.529 53.3867 290.252 51.688C290.079 50.5093 289.992 49.0707 289.992 47.372L290.044 35.412C290.044 34.3027 289.975 32.604 289.836 30.316C289.836 29.9 289.732 29.172 289.524 28.132L287.652 29.64L286.924 28.808L288.64 26.884C291.483 23.5213 293.667 20.1587 295.192 16.796C295.816 15.5133 296.197 14.2653 296.336 13.052V11.284L296.232 10.452L296.752 10.14L297.688 11.232C298.173 11.8213 298.676 12.4453 299.196 13.104C299.751 13.7627 300.201 14.3693 300.548 14.924L298.572 17.524L296.7 20.176L301.276 19.396C302.108 19.2573 302.853 18.8587 303.512 18.2L304.344 17.316L306.424 18.928C307.048 19.448 307.412 19.7773 307.516 19.916C307.655 20.0547 307.724 20.1933 307.724 20.332C307.724 20.4707 307.637 20.6093 307.464 20.748C306.84 21.1293 306.303 21.5453 305.852 21.996C305.401 22.4467 304.795 23.1053 304.032 23.972L302.68 25.48L299.872 28.6H300.184L303.46 28.236C303.737 28.2013 304.015 28.1667 304.292 28.132C304.569 28.0973 304.847 28.0453 305.124 27.976C305.505 27.872 305.835 27.6987 306.112 27.456L307.412 26.26C309.457 27.6467 310.74 28.548 311.26 28.964L310.948 29.432C310.151 30.0907 309.665 30.992 309.492 32.136L308.66 36.868L308.348 39.156L309.596 40.3C309.839 40.5427 309.96 40.716 309.96 40.82C309.96 41.0627 309.908 41.2187 309.804 41.288C309.7 41.3227 309.509 41.3573 309.232 41.392L302.316 41.704L293.112 42.328L292.644 42.38L292.592 42.692C292.523 43.8707 292.488 44.72 292.488 45.24C292.488 45.8987 292.523 46.8867 292.592 48.204L292.644 49.66C292.644 49.9027 292.661 50.128 292.696 50.336C292.731 50.544 292.765 50.7693 292.8 51.012C292.904 51.6013 293.268 51.9827 293.892 52.156L295.452 52.572C297.151 52.9187 298.971 53.092 300.912 53.092C303.859 53.0227 306.233 52.728 308.036 52.208L309.128 51.792C309.925 51.4453 310.515 50.856 310.896 50.024C311.277 49.1227 311.624 48.0307 311.936 46.748L312.768 41.964H313.548L313.652 43.42L314.016 50.388L314.276 52.676C314.311 53.196 314.241 53.5773 314.068 53.82C313.895 54.0627 313.565 54.2533 313.08 54.392C311 55.016 309.059 55.3973 307.256 55.536C304.517 55.848 302.108 55.952 300.028 55.848ZM273.196 54.392C272.468 53.872 271.792 53.3 271.168 52.676L269.816 51.532L269.92 51.168C272.312 50.7867 274.669 50.2147 276.992 49.452C279.315 48.6893 282.088 47.7013 285.312 46.488L287.86 45.552L288.432 46.8C287.981 47.0427 285.867 48.0827 282.088 49.92C278.344 51.688 275.38 53.1787 273.196 54.392ZM273.82 43.628C273.577 43.4547 273.179 43.0213 272.624 42.328C272.069 41.6347 271.723 41.1147 271.584 40.768L272.052 40.508C273.057 40.1613 274.063 39.4333 275.068 38.324C277.217 35.828 279.107 33.332 280.736 30.836L280.892 30.576L280.008 30.628L274.028 31.72L273.144 31.98C273.005 32.0493 272.901 32.084 272.832 32.084C272.693 32.084 272.537 31.9973 272.364 31.824C271.601 31.0267 271.047 30.2813 270.7 29.588C270.873 29.4147 270.977 29.328 271.012 29.328C271.636 29.0853 272.173 28.7213 272.624 28.236C273.109 27.7507 273.612 27.1267 274.132 26.364C276.351 23.4173 278.136 20.228 279.488 16.796C280.147 15.0973 280.459 13.5893 280.424 12.272L280.32 10.868L280.788 10.712L281.048 10.868L284.48 14.924C284.653 15.1667 284.74 15.3227 284.74 15.392C284.74 15.4267 284.653 15.5653 284.48 15.808C283.717 16.64 282.781 17.9573 281.672 19.76C279.869 22.568 277.807 25.4453 275.484 28.392L275.068 28.964L275.016 29.12L282.296 28.548C283.197 26.8493 283.787 25.7053 284.064 25.116C284.376 24.492 284.601 23.7293 284.74 22.828C284.775 22.724 284.827 22.1173 284.896 21.008L285.364 20.8C286.508 22.0827 287.548 23.4347 288.484 24.856L288.328 25.168C287.877 25.584 287.409 26.104 286.924 26.728C286.439 27.3173 285.971 27.9067 285.52 28.496L278.968 36.868L276.472 39.832V39.936L287.132 37.752L287.6 39C286.005 39.5547 284.22 40.1267 282.244 40.716C280.823 41.1667 279.349 41.652 277.824 42.172C276.333 42.6573 274.999 43.1427 273.82 43.628ZM297.844 39.988C297.913 37.6307 297.948 35.8627 297.948 34.684C297.948 33.4013 297.896 32.084 297.792 30.732L292.904 31.148L292.644 40.352L297.844 39.988ZM305.696 39.364C305.869 37.804 306.095 35.6893 306.372 33.02C306.407 32.292 306.493 31.2867 306.632 30.004L299.456 30.628C299.699 30.8013 299.941 30.9573 300.184 31.096C300.461 31.2347 300.669 31.3907 300.808 31.564C300.565 33.02 300.409 34.8573 300.34 37.076L300.184 39.832L305.696 39.364ZM297.844 28.808C299.404 26.4853 300.929 24.024 302.42 21.424H301.9L299.456 21.788L295.608 22.308C295.192 22.3427 294.863 22.516 294.62 22.828C293.164 24.4573 292.28 25.428 291.968 25.74L290.096 27.612L292.488 29.276L297.844 28.808ZM324.364 34.164C324.052 34.164 323.827 34.112 323.688 34.008L320.152 31.876L320.204 31.408H321.4L326.496 31.304L343.968 30.368C343.483 29.224 342.685 27.9067 341.576 26.416L336.324 26.884L336.428 28.652L335.856 29.068C335.44 28.7907 334.989 28.444 334.504 28.028C334.053 27.5773 333.62 27.144 333.204 26.728V26.26C333.516 25.3587 333.637 24.128 333.568 22.568L333.152 17.056C332.979 15.2187 332.476 13.5893 331.644 12.168L331.54 11.96L331.956 11.44L336.116 14.092L337.572 13.988L347.348 12.948L349.636 12.636C350.537 12.4627 351.231 12.1507 351.716 11.7C351.785 11.596 352.045 11.3707 352.496 11.024C353.051 11.2667 353.813 11.7347 354.784 12.428C355.755 13.1213 356.309 13.5893 356.448 13.832L356.084 14.404C355.356 15.132 354.94 16.0853 354.836 17.264L354.108 23.088L353.692 25.948L353.224 27.196L352.704 27.924C352.496 28.132 352.305 28.236 352.132 28.236C351.889 28.236 351.664 28.0973 351.456 27.82L350.884 26.884L350.52 26.312L350.156 25.896L343.604 26.312V26.416L345.06 27.248L345.58 27.56C346.031 27.8027 346.204 28.2013 346.1 28.756L345.892 30.212L347.608 30.108L352.548 29.588C354.212 29.4147 355.668 29.2413 356.916 29.068C358.164 28.86 359.377 28.5653 360.556 28.184L361.752 27.716C363.347 28.756 364.577 29.64 365.444 30.368L365.704 30.68C365.739 30.784 365.773 30.9053 365.808 31.044C365.808 31.3213 365.652 31.4947 365.34 31.564L364.82 31.668C361.319 31.668 358.701 31.7027 356.968 31.772L349.48 32.032L333.36 33.072L327.276 33.696C326.271 33.8 325.3 33.956 324.364 34.164ZM329.668 55.848C329.287 55.848 329.009 55.6227 328.836 55.172L328.16 52.832L329.564 51.896C330.569 51.3413 331.488 50.4053 332.32 49.088C333.048 47.84 333.481 46.7133 333.62 45.708L333.88 45.656H334.14C334.833 46.7653 335.319 47.7533 335.596 48.62C335.284 49.244 334.955 49.8853 334.608 50.544C334.261 51.168 333.897 51.7227 333.516 52.208L332.06 54.028L331.28 54.912C330.795 55.3973 330.396 55.6747 330.084 55.744L329.668 55.848ZM343.552 57.564C343.413 57.668 343.275 57.72 343.136 57.72C342.963 57.72 342.807 57.6507 342.668 57.512C341.108 55.6747 338.907 53.8547 336.064 52.052L336.22 51.532L342.46 52.988L342.616 52.52C342.685 51.064 342.72 50.0067 342.72 49.348C342.72 47.7187 342.616 46.072 342.408 44.408L337.208 44.824C337.173 44.928 337.156 45.084 337.156 45.292V45.812C337.156 46.1587 337.087 46.4187 336.948 46.592C336.671 46.592 336.48 46.5573 336.376 46.488C335.44 45.968 334.66 45.396 334.036 44.772C334.279 44.044 334.4 43.0907 334.4 41.912C334.4 41.4267 334.365 40.664 334.296 39.624C334.123 37.648 333.707 36.0013 333.048 34.684L333.464 34.268L335.18 35.256L337 36.4L344.696 35.724L348.648 35.204C349.272 35.1 349.861 34.8053 350.416 34.32L350.936 33.852C352.565 34.788 353.796 35.672 354.628 36.504L354.212 37.232C353.588 37.856 353.155 38.7227 352.912 39.832L352.548 41.912L353.796 42.9C354.177 43.1427 354.299 43.4547 354.16 43.836L353.536 43.94L347.14 44.148L344.072 44.356C344.176 44.4253 344.401 44.564 344.748 44.772C345.129 44.9453 345.407 45.1187 345.58 45.292L345.476 46.592L345.372 49.192L345.424 53.196C345.424 54.6867 344.939 56.0213 343.968 57.2L343.552 57.564ZM349.636 41.912C349.913 40.3173 350.052 38.792 350.052 37.336C348.111 37.4747 344.956 37.7173 340.588 38.064L336.948 38.376L337.104 42.9L349.636 41.912ZM357.592 54.756C355.027 52.0173 352.392 49.6427 349.688 47.632L349.064 47.112L349.48 46.28L351.3 47.008C353.519 47.8747 355.581 48.7587 357.488 49.66L358.632 50.232C359.013 50.4053 359.256 50.7347 359.36 51.22C359.499 52.26 359.568 53.04 359.568 53.56C359.568 54.0107 359.551 54.34 359.516 54.548C359.412 55.1373 359.135 55.432 358.684 55.432C358.476 55.432 358.251 55.3453 358.008 55.172L357.592 54.756ZM336.584 24.96L343.032 24.44C345.597 24.2667 347.695 23.8853 349.324 23.296L351.04 24.7C351.179 24.3533 351.265 23.9547 351.3 23.504C351.369 23.0533 351.421 22.62 351.456 22.204L351.612 19.812L351.768 17.316L351.872 14.768L336.168 16.12V19.76H337L342.564 19.188C343.881 19.0147 344.973 18.8413 345.84 18.668C346.707 18.4947 347.556 18.2173 348.388 17.836C348.7 18.0787 349.012 18.3387 349.324 18.616C349.636 18.8933 349.896 19.1707 350.104 19.448C350.173 19.656 350.208 19.7947 350.208 19.864C350.208 20.2107 350.017 20.4187 349.636 20.488L348.804 20.54L343.24 21.008L338.352 21.476L336.168 21.736L336.324 24.96H336.584ZM409.904 55.9C409.696 56.004 409.505 56.056 409.332 56.056C409.193 56.056 409.003 56.004 408.76 55.9C408.517 55.8307 408.257 55.7267 407.98 55.588L397.424 50.648C394.547 49.296 391.756 47.996 389.052 46.748C386.348 45.5 384.493 44.668 383.488 44.252C382.933 44.0093 382.448 43.888 382.032 43.888C381.72 43.888 381.339 43.9747 380.888 44.148C379.64 44.6333 377.699 45.7427 375.064 47.476C374.925 47.5453 374.839 47.58 374.804 47.58C374.665 47.58 374.561 47.476 374.492 47.268C374.284 46.644 374.145 45.8293 374.076 44.824C374.076 44.6507 374.093 44.5293 374.128 44.46C374.197 44.3907 374.319 44.3213 374.492 44.252L377.508 43.108C378.548 42.7267 379.571 42.3453 380.576 41.964C381.027 41.8253 381.425 41.756 381.772 41.756C382.049 41.756 382.344 41.808 382.656 41.912C392.259 36.9547 400.076 31.512 406.108 25.584C396.679 27.2133 389.485 28.548 384.528 29.588C383.973 29.692 383.003 29.9347 381.616 30.316C379.64 29.2067 378.236 28.392 377.404 27.872L377.612 27.352C379.588 27.3173 381.651 27.144 383.8 26.832C394.443 25.4107 401.497 24.2147 404.964 23.244C406.004 22.9667 407.079 22.3253 408.188 21.32C410.407 22.9147 411.897 24.0933 412.66 24.856C412.833 25.0293 412.92 25.1853 412.92 25.324C412.92 25.532 412.66 25.74 412.14 25.948C411.759 26.0867 411.273 26.3293 410.684 26.676C410.129 26.988 409.679 27.2653 409.332 27.508C404.825 30.8013 400.683 33.644 396.904 36.036C393.125 38.3933 389.069 40.6293 384.736 42.744C393.368 46.2453 400.631 48.7067 406.524 50.128C409.159 50.752 411.949 51.064 414.896 51.064C415.659 51.064 416.803 51.0293 418.328 50.96L418.588 52C415.988 52.9707 413.093 54.2707 409.904 55.9ZM396.644 20.8C395.153 18.0613 392.657 15.652 389.156 13.572L389.52 12.688C391.461 13.104 393.073 13.4853 394.356 13.832C395.673 14.1787 396.939 14.5947 398.152 15.08C398.811 15.3227 399.14 15.7387 399.14 16.328C399.14 17.368 398.984 18.5467 398.672 19.864C398.568 20.2107 398.36 20.5053 398.048 20.748C397.771 20.9907 397.493 21.112 397.216 21.112C396.939 21.112 396.748 21.008 396.644 20.8ZM423.996 55.484L425.972 53.352C429.612 49.4 432.177 44.9107 433.668 39.884C434.361 37.7 434.864 35.3253 435.176 32.76C435.28 31.9627 435.367 31.1307 435.436 30.264C435.54 29.3973 435.575 28.6173 435.54 27.924L435.436 26.624L433.772 26.832C431.068 27.1787 429.023 27.5253 427.636 27.872L424.412 25.792L424.62 25.22H425.504C426.995 25.22 429.265 25.0813 432.316 24.804L436.996 24.336C439.388 24.0933 441.416 23.66 443.08 23.036L445.056 22.1L445.42 22.36L447.396 24.232L447.812 24.752C447.847 24.8213 447.864 24.9253 447.864 25.064C447.864 25.272 447.76 25.428 447.552 25.532L447.136 25.584L442.248 25.948L436.892 26.416L437.828 27.3C438.383 27.716 438.781 28.1147 439.024 28.496C438.92 28.808 438.816 29.12 438.712 29.432C438.608 29.744 438.521 30.056 438.452 30.368L437.568 34.84L437.464 35.36L438.452 35.204L440.688 34.736C441.035 34.6667 441.381 34.5107 441.728 34.268C442.109 34.0253 442.456 33.7653 442.768 33.488L443.236 33.124L443.86 33.592L445.888 35.152L446.252 35.464C446.391 35.6027 446.46 35.7587 446.46 35.932C446.46 36.0707 446.391 36.2093 446.252 36.348C445.905 36.6947 445.628 37.0933 445.42 37.544C445.247 37.9947 445.073 38.532 444.9 39.156L442.664 47.216L440.948 52.208C440.428 53.6987 439.683 54.9293 438.712 55.9L438.452 56.16C438.313 56.2987 438.175 56.368 438.036 56.368C437.828 56.368 437.637 56.2813 437.464 56.108L437.256 55.848C437.083 55.6747 436.563 54.964 435.696 53.716C435.315 53.1613 434.899 52.5893 434.448 52C434.032 51.4453 433.599 50.96 433.148 50.544L432.524 49.972L432.94 49.348L437.412 51.48C437.62 51.584 437.776 51.636 437.88 51.636C438.053 51.636 438.192 51.5667 438.296 51.428C438.435 51.2547 438.556 51.064 438.66 50.856C439.18 49.7813 439.769 48.1867 440.428 46.072C440.844 44.7547 441.225 43.3853 441.572 41.964C441.953 40.5427 442.231 39.2427 442.404 38.064L442.612 36.608L440.48 36.972L438.192 37.388H438.088C437.949 37.388 437.776 37.3533 437.568 37.284L437.1 37.024L436.788 38.22C436.095 40.82 435.124 43.3333 433.876 45.76C432.004 49.3307 429.664 52.2947 426.856 54.652L424.724 56.42L423.996 55.484ZM447.708 55.64L446.044 53.976C445.905 53.8373 445.801 53.716 445.732 53.612C445.697 53.508 445.715 53.3693 445.784 53.196L446.148 52.936L447.136 52.416C447.829 52.0693 448.211 51.4453 448.28 50.544L448.54 46.748C448.713 43.9747 448.8 41.4787 448.8 39.26C448.8 38.012 448.783 37.0933 448.748 36.504L448.436 33.54C448.401 33.2627 448.315 32.968 448.176 32.656C448.072 32.3093 447.968 31.98 447.864 31.668L447.708 31.2L448.176 30.784L451.504 33.644L453.168 32.552C455.213 31.2 456.739 29.9867 457.744 28.912L458.264 28.34C458.957 27.5773 459.269 26.8493 459.2 26.156L459.772 25.896L460.708 27.04C461.055 27.456 461.384 27.8893 461.696 28.34C462.043 28.756 462.303 29.172 462.476 29.588C462.441 29.7613 462.355 29.8827 462.216 29.952C462.077 30.0213 461.956 30.0733 461.852 30.108L460.448 30.784C458.091 32.2053 455.161 33.696 451.66 35.256L451.4 40.196C451.261 42.588 451.088 46.072 450.88 50.648C452.925 49.4347 455.248 47.8573 457.848 45.916L457.796 45.708L453.792 39.832C453.653 39.624 453.168 39.0693 452.336 38.168C452.856 37.7867 453.428 37.4747 454.052 37.232L454.312 37.18C454.555 37.18 454.745 37.284 454.884 37.492L455.092 37.752L457.796 42.016L458.056 41.86C460.101 39.7453 461.679 37.6827 462.788 35.672C463.204 34.944 463.412 34.06 463.412 33.02V32.656L463.932 32.448L464.868 33.54L466.532 35.724L466.844 36.244C466.879 36.348 466.879 36.452 466.844 36.556C466.844 36.66 466.809 36.7467 466.74 36.816L466.584 36.92L462.528 40.3C461.488 41.1667 460.24 42.12 458.784 43.16L459.876 44.616C461.297 46.488 462.701 48.1347 464.088 49.556C466.064 51.7053 468.196 53.2307 470.484 54.132L471.004 54.34L470.9 55.172L464.816 55.64H464.556C464.105 55.64 463.759 55.432 463.516 55.016L460.344 49.608L458.628 46.852L448.28 56.16L447.708 55.64ZM440.688 20.696C440.515 20.8347 440.341 20.904 440.168 20.904C439.995 20.904 439.821 20.8 439.648 20.592L439.388 20.176C438.036 18.0267 436.233 15.9293 433.98 13.884L433.46 13.416L433.772 12.636L435.28 13.156C436.077 13.4333 436.909 13.728 437.776 14.04C438.643 14.352 439.371 14.6987 439.96 15.08L440.792 15.6C441.416 16.016 441.728 16.588 441.728 17.316C441.659 18.4253 441.52 19.24 441.312 19.76C441.173 20.2107 440.965 20.5227 440.688 20.696ZM445.056 30.264L445.472 29.64L446.408 28.236C447.24 27.0573 447.968 25.948 448.592 24.908C450.256 22.0653 451.383 18.9453 451.972 15.548C452.076 14.9587 452.128 14.404 452.128 13.884C452.128 13.0867 451.989 12.2373 451.712 11.336L451.556 10.868L452.18 10.452L454.104 12.48L456.184 15.028C456.392 15.2707 456.496 15.4787 456.496 15.652C456.496 15.756 456.392 15.9467 456.184 16.224C455.837 16.6053 455.421 17.2813 454.936 18.252L452.388 22.984L451.92 23.816L452.96 23.66L454.884 23.4C456.028 23.2613 457.207 23.088 458.42 22.88C459.633 22.672 460.725 22.4293 461.696 22.152C462.875 21.8053 464.053 21.2333 465.232 20.436L465.856 20.852L468.092 22.828L468.56 23.348C468.699 23.4867 468.768 23.6427 468.768 23.816C468.768 23.9547 468.716 24.076 468.612 24.18C468.508 24.2493 468.387 24.3013 468.248 24.336L467.52 24.44C464.747 24.5093 462.441 24.6653 460.604 24.908L454.52 25.688L452.492 26.104L451.036 25.116C449.407 27.508 447.691 29.4667 445.888 30.992L445.056 30.264ZM78.34 93.96C76.22 91.92 74.46 90.64 71.54 90.64C68.42 90.64 65.66 92.8 63.98 95.96L61.14 94.44C63.7 89.84 67.38 87.44 71.58 87.44C75.22 87.44 77.82 88.92 80.62 91.68C82.74 93.76 84.5 95 87.42 95C90.54 95 93.3 92.84 94.98 89.68L97.82 91.2C95.26 95.8 91.58 98.2 87.38 98.2C83.74 98.2 81.14 96.72 78.34 93.96ZM122.42 111.96C121.78 111.267 120.927 110.493 119.86 109.64C118.767 108.76 117.58 107.92 116.3 107.12L116.46 106.64L118.46 107.24C119.98 107.773 121.313 108.133 122.46 108.32L122.54 107.72L122.66 98.24V98.16L112.94 98.72L108.9 99C106.713 99.16 105.06 99.3333 103.94 99.52L103.78 99.6L101.3 97.84L101.34 97.6L101.42 97.4H101.7C102.1 97.4267 102.7 97.44 103.5 97.44C104.433 97.44 105.86 97.3867 107.78 97.28L111.26 97.12L116.46 96.8L119.86 96.64L122.66 96.48C122.687 94.9867 122.54 93.4933 122.22 92C122.353 91.7867 122.527 91.7467 122.74 91.88L124.82 93.16C124.98 93.2667 125.073 93.3733 125.1 93.48C125.127 93.56 125.127 93.6933 125.1 93.88L124.9 96.08V96.32L125.46 96.28L126.86 96.16C127.313 96.1333 127.767 96.1067 128.22 96.08C128.673 96.0267 129.127 95.9733 129.58 95.92C130.513 95.8133 131.273 95.7067 131.86 95.6C132.473 95.4667 133.073 95.28 133.66 95.04L134.34 95.56C134.553 95.6933 135.073 96.12 135.9 96.84L136.14 97.12C136.22 97.2267 136.26 97.3467 136.26 97.48C136.26 97.6933 136.14 97.84 135.9 97.92L135.3 97.96L131.14 97.92C129.833 97.92 127.82 97.9733 125.1 98.08H124.86L124.82 98.52L124.86 108.56C124.86 109.36 124.647 110.093 124.22 110.76L123.46 111.84L123.3 111.96C123.113 112.147 122.967 112.24 122.86 112.24C122.753 112.24 122.607 112.147 122.42 111.96ZM113.58 104.28C112.327 102.733 111.193 101.533 110.18 100.68L110.14 100.6L110.38 100.16L111.38 100.56L115.06 102.08C115.78 102.373 116.113 102.88 116.06 103.6L115.9 105.4L115.82 105.64C115.687 105.933 115.5 106.08 115.26 106.08C115.047 106.08 114.86 105.987 114.7 105.8L113.58 104.28ZM109.54 92.64C108.473 91.7067 107.847 91.1733 107.66 91.04L107.86 90.68H108.34C109.567 90.7067 111.407 90.64 113.86 90.48L118.22 90.24L122.9 89.88L125.18 89.68L125.86 89.6C126.26 87.1467 126.607 83.9067 126.9 79.88L119.18 80.44L112.9 81L110.38 81.32H110.26C110.127 81.32 109.98 81.2667 109.82 81.16L107.98 79.64L108.06 79.28H108.66C109.807 79.3067 111.527 79.24 113.82 79.08C114.407 79.0267 115.287 78.9733 116.46 78.92L117.82 78.84L124.9 78.16C125.807 78.08 126.593 77.7067 127.26 77.04L127.54 76.8H127.62C128.767 77.5733 129.78 78.3333 130.66 79.08C130.607 79.16 130.553 79.24 130.5 79.32C130.447 79.4 130.393 79.4667 130.34 79.52C129.727 80.0533 129.353 80.84 129.22 81.88L128.62 85.76L128.22 88.92V89.36L129.22 90.28C129.327 90.3867 129.42 90.5067 129.5 90.64C129.58 90.7467 129.607 90.8667 129.58 91C129.447 91.16 129.26 91.24 129.02 91.24L117.54 91.88L112.14 92.28L109.54 92.64ZM109.42 85.32L109.58 85.04L109.7 85L110.94 85.04C112.167 85.04 113.647 84.9467 115.38 84.76L120.3 84.28C121.367 84.1733 122.487 83.9067 123.66 83.48C123.98 83.7467 124.3 84.0267 124.62 84.32C124.94 84.6133 125.167 84.92 125.3 85.24C125.22 85.5067 124.993 85.6667 124.62 85.72L122.98 85.76L117.38 86.16L112.82 86.56L111.06 86.8L109.42 85.32ZM165.02 111.24C164.113 110.173 162.753 108.827 160.94 107.2L159.3 105.76L159.66 105.24L165.3 108C165.567 107.973 165.78 107.8 165.94 107.48L167.02 104.8C167.793 102.667 168.553 100.093 169.3 97.08L169.74 95.04L168.94 95.12C167.207 95.3333 165.753 95.56 164.58 95.8H164.42C164.287 95.8 164.153 95.76 164.02 95.68L163.02 95L162.9 95.44C162.153 97.92 161.18 100.187 159.98 102.24C158.513 104.72 156.527 106.96 154.02 108.96C153.593 109.333 152.9 109.867 151.94 110.56L151.1 111.2L150.38 110.44L151.18 109.76C153.447 107.867 155.327 105.88 156.82 103.8C158.34 101.64 159.553 99.12 160.46 96.24C161.1 94.1867 161.54 92.1333 161.78 90.08C161.86 89.2267 161.887 88.44 161.86 87.72L160.7 87.84C158.407 88 156.58 88.2267 155.22 88.52L152.86 86.84L152.9 86.48L153.22 86.44H155.62L159.14 86.28L162.02 86.08L168.34 85.52C169.513 85.36 170.407 85.2267 171.02 85.12C171.633 85.0133 172.26 84.8267 172.9 84.56L174.14 83.96C175.1 84.6 175.9 85.24 176.54 85.88C176.7 86.04 176.793 86.16 176.82 86.24C176.873 86.32 176.9 86.4267 176.9 86.56C176.9 86.7733 176.78 86.9067 176.54 86.96L176.14 87L173.26 87.08L166.98 87.36L163.34 87.64H163.02L163.54 88.24L164.3 89.08C164.513 89.3467 164.553 89.5733 164.42 89.76C164.26 90.0533 164.127 90.4 164.02 90.8C163.94 91.2 163.86 91.5867 163.78 91.96L163.26 94.08L168.3 93.48C168.593 93.4533 168.913 93.2933 169.26 93L170.18 92.2L171.78 93.48L172.7 94.28L173.14 94.76L172.78 95.2C172.273 95.4933 171.94 95.9467 171.78 96.56L170.62 100.28C169.553 103.693 168.713 106.227 168.1 107.88C167.647 109.133 167.007 110.227 166.18 111.16C165.913 111.427 165.66 111.573 165.42 111.6L165.02 111.24ZM146.62 106.6C146.46 106.44 146.38 106.293 146.38 106.16C146.38 106.027 146.5 105.88 146.74 105.72L147.78 104.96C148.047 104.747 148.18 104.493 148.18 104.2L148.3 102.6L148.58 96.88L148.78 91.84V91.56C146.567 92.0667 144.7 92.56 143.18 93.04L140.9 91.52L141.06 91.08H141.42C142.46 91.0533 143.433 90.96 144.34 90.8C145.273 90.6133 146.3 90.36 147.42 90.04C147.82 89.88 148.22 89.6533 148.62 89.36C149.02 88.96 149.273 88.72 149.38 88.64L151.78 90.08L152.14 90.48L151.86 90.8C151.247 91.4133 150.913 92.2267 150.86 93.24L150.5 99.12L150.34 102.96V103.44L150.78 103.08L155.14 99.08L156.42 97.88L157.14 98.52L156.54 99.24L148.94 107.88C148.78 108.067 148.633 108.16 148.5 108.16C148.367 108.16 148.233 108.093 148.1 107.96L146.62 106.6ZM151.94 84.96C151.807 85.0667 151.647 85.12 151.46 85.12C151.273 85.12 151.113 85.0533 150.98 84.92L150.74 84.6C149.593 82.7867 148.18 81.16 146.5 79.72L146.38 79.6L146.58 79.08L146.9 79.16C147.647 79.3733 148.407 79.6133 149.18 79.88C149.953 80.12 150.647 80.3867 151.26 80.68L151.98 81.04C152.327 81.2533 152.5 81.5467 152.5 81.92L152.42 84.12C152.393 84.44 152.233 84.72 151.94 84.96ZM166.18 83.76C166.047 83.8933 165.887 83.96 165.7 83.96C165.487 83.96 165.313 83.8533 165.18 83.64L164.74 82.92C163.647 81.32 162.34 79.7867 160.82 78.32L160.02 77.56L160.3 77L160.66 77.12C163.007 78.08 164.727 78.8667 165.82 79.48L166.34 79.8C166.633 79.96 166.807 80.2267 166.86 80.6C166.913 81.6133 166.833 82.4267 166.62 83.04C166.54 83.3067 166.393 83.5467 166.18 83.76ZM191.66 111C190.807 110.173 190.087 109.36 189.5 108.56L189.9 107.04C189.98 106.72 190.02 106.36 190.02 105.96C190.153 103.613 190.22 100.787 190.22 97.48L190.18 92.32L190.1 87.52C190.047 85.4933 189.953 84.0133 189.82 83.08C189.633 81.88 189.353 80.8667 188.98 80.04L188.74 79.68L189.22 79.32L192.46 82.28L195.14 82.12L197.98 81.92L201.06 81.64L203.62 81.32C204.767 81.1867 205.66 80.7067 206.3 79.88L206.46 79.72H206.5C206.82 79.8533 207.433 80.2533 208.34 80.92C209.273 81.56 209.793 81.96 209.9 82.12C209.793 82.3333 209.687 82.4933 209.58 82.6C209.1 83.16 208.833 83.92 208.78 84.88L208.54 93.6V96.32C208.54 99.2533 208.553 101.44 208.58 102.88L208.66 107.28C208.687 108.267 208.367 109.227 207.7 110.16C207.593 110.347 207.433 110.52 207.22 110.68C207.113 110.733 207.033 110.76 206.98 110.76C206.847 110.76 206.74 110.693 206.66 110.56L205.1 107.64L204.98 107.44C200.98 107.467 196.753 107.653 192.3 108V110.56L191.66 111ZM206.14 106.84C206.193 106.627 206.233 104.907 206.26 101.68C206.313 98.4533 206.34 95.1467 206.34 91.76C206.34 86.3733 206.3 83.48 206.22 83.08C200.22 83.4533 195.62 83.76 192.42 84L192.3 93.84L192.5 93.88L195.78 93.68L198.5 93.4L201.22 92.96C201.38 92.9067 202.073 92.6933 203.3 92.32L204.66 93.76C204.82 93.9733 204.9 94.1467 204.9 94.28C204.9 94.52 204.833 94.6667 204.7 94.72C204.567 94.7733 204.38 94.8 204.14 94.8L203.06 94.84L199.3 95.04L193.66 95.44L192.3 95.56V106.2H192.54L196.7 106.04L201.26 105.64C202.273 105.56 203.153 105.36 203.9 105.04L204.22 104.92C204.513 105.187 204.807 105.48 205.1 105.8C205.393 106.12 205.633 106.44 205.82 106.76L206.14 106.84ZM239.66 111.88L238.26 110.52C238.047 110.36 237.94 110.16 237.94 109.92C237.94 109.84 237.967 109.72 238.02 109.56C238.233 108.813 238.34 107.973 238.34 107.04L238.5 104C236.607 104.133 235.02 104.267 233.74 104.4C232.487 104.507 231.233 104.68 229.98 104.92L227.9 103.24L228.18 102.8C228.98 102.853 229.607 102.88 230.06 102.88C230.513 102.88 231.22 102.853 232.18 102.8L233.34 102.76L238.5 102.44C238.553 101 238.58 98.84 238.58 95.96V91.64C233.913 97.48 228.287 101.893 221.7 104.88L221.18 103.92C224.513 102.133 227.647 99.88 230.58 97.16C233.54 94.5467 236.047 91.6133 238.1 88.36L236.22 88.48C233.847 88.6667 232.007 88.8267 230.7 88.96C229.42 89.0667 228.1 89.2667 226.74 89.56L224.1 87.8L224.34 87.28H224.7C225.42 87.36 226.127 87.4 226.82 87.4C227.3 87.4 227.993 87.3733 228.9 87.32L238.42 86.72L238.54 86.68L238.58 86.48L238.5 80.84C238.447 78.76 237.993 76.9867 237.14 75.52L237.34 75.32L237.5 75.12L237.7 75.24C239.167 76.2267 240.34 77.1467 241.22 78C241.407 78.2133 241.5 78.3867 241.5 78.52L241.42 78.92C241.153 79.5333 241.02 80.1867 241.02 80.88L240.82 86.32V86.52L242.58 86.4L245.82 86C246.807 85.8667 247.647 85.7333 248.34 85.6C249.06 85.44 249.74 85.2133 250.38 84.92L251.26 84.52L252.06 85.08L253.9 86.64C254.22 86.9067 254.34 87.1733 254.26 87.44C254.153 87.68 253.9 87.8 253.5 87.8H252.1C250.233 87.7733 247.46 87.84 243.78 88L241.38 88.08L240.7 88.16V89.76L241.82 90.92C244.833 93.6667 247.527 95.9333 249.9 97.72C252.167 99.4267 254.74 100.72 257.62 101.6L258.14 101.72V102.4L253.06 103.16L252.38 103.28H252.26C251.94 103.28 251.62 103.147 251.3 102.88L244.62 95.88L240.9 91.92L240.66 91.68L240.58 102.28L243.98 101.88C245.18 101.72 246.287 101.4 247.3 100.92L249.26 102.72C249.5 102.96 249.593 103.213 249.54 103.48C249.407 103.667 249.167 103.76 248.82 103.76H243.86C243.087 103.76 241.98 103.813 240.54 103.92V105.92C240.54 107.893 240.58 109.88 240.66 111.88L240.18 112.24L239.66 111.88ZM287.74 112.16C287.207 111.52 286.367 110.693 285.22 109.68C284.073 108.693 282.887 107.787 281.66 106.96L281.94 106.48C283.647 107.147 285.54 107.813 287.62 108.48L287.98 108.56C288.087 108.56 288.207 108.467 288.34 108.28C288.9 107.427 289.607 104.787 290.46 100.36C291.313 95.9333 291.953 92.0267 292.38 88.64C291.66 88.6667 290.393 88.7867 288.58 89C286.767 89.1867 285.287 89.3467 284.14 89.48C283.793 89.32 283.3 89.0133 282.66 88.56C281.353 90.5867 279.94 92.2933 278.42 93.68L277.7 93.08C280.5 89.5067 282.353 85.4533 283.26 80.92C283.393 80.2 283.46 79.5733 283.46 79.04C283.46 78.1067 283.327 77.3333 283.06 76.72L283.54 76.4C284.153 76.9867 284.793 77.64 285.46 78.36C286.127 79.0533 286.62 79.6 286.94 80C287.02 80.08 287.06 80.1733 287.06 80.28C287.06 80.36 287.007 80.4533 286.9 80.56C286.687 80.8 286.42 81.28 286.1 82C285.22 83.9733 284.233 85.8933 283.14 87.76L285.18 87.6C286.887 87.44 288.447 87.24 289.86 87C290.34 86.92 290.767 86.7867 291.14 86.6C291.54 86.4133 292.033 86.0533 292.62 85.52L293.98 86.68C294.647 87.2133 295.153 87.6533 295.5 88C295.687 88.16 295.78 88.3067 295.78 88.44C295.78 88.5467 295.7 88.7067 295.54 88.92C295.007 89.56 294.687 90.1467 294.58 90.68C294.1 92.8667 293.593 95.4 293.06 98.28C292.527 101.133 292.1 103.347 291.78 104.92C291.46 106.467 291.1 107.8 290.7 108.92C290.193 110.307 289.5 111.387 288.62 112.16C288.487 112.293 288.34 112.36 288.18 112.36C288.02 112.36 287.873 112.293 287.74 112.16ZM267.06 107.84C266.393 107.333 265.727 106.733 265.06 106.04C264.9 105.88 264.847 105.707 264.9 105.52C265.14 104.8 265.273 104.04 265.3 103.24C265.327 102.813 265.34 101.933 265.34 100.6C265.34 96.92 265.233 93.3333 265.02 89.84C264.94 88.32 264.62 86.8933 264.06 85.56L264.38 85.36C265.18 85.92 266.033 86.56 266.94 87.28C268.94 84.72 270.367 82.4133 271.22 80.36C271.513 79.72 271.66 78.9733 271.66 78.12C271.66 77.9333 271.633 77.6267 271.58 77.2L272.1 76.96C273.06 78.16 273.86 79.2 274.5 80.08C274.713 80.4267 274.74 80.68 274.58 80.84C274.233 81.1067 273.793 81.5733 273.26 82.24C271.447 84.4533 269.86 86.1867 268.5 87.44C270.367 87.2533 271.807 87.04 272.82 86.8C273.247 86.6933 273.593 86.56 273.86 86.4C274.153 86.2133 274.473 85.96 274.82 85.64C276.207 86.44 277.113 87.0267 277.54 87.4C277.673 87.5067 277.74 87.6133 277.74 87.72C277.74 87.8 277.7 87.9067 277.62 88.04C277.407 88.36 277.26 88.68 277.18 89C277.1 89.2933 277.02 89.7467 276.94 90.36C276.78 91.7467 276.647 94.8933 276.54 99.8L276.42 104.88C276.393 105.36 276.313 105.8 276.18 106.2C276.047 106.6 275.887 106.907 275.7 107.12C275.513 107.307 275.353 107.4 275.22 107.4C275.033 107.4 274.86 107.267 274.7 107C274.54 106.707 274.367 106.373 274.18 106C274.02 105.627 273.86 105.253 273.7 104.88L267.38 105.32L267.42 107.56L267.06 107.84ZM285.14 100.08C284.393 99.1733 283.473 98.2133 282.38 97.2C281.313 96.1867 280.353 95.3733 279.5 94.76L279.86 94.28C282.207 95.0533 284.18 95.8533 285.78 96.68C286.073 96.8133 286.273 96.9467 286.38 97.08C286.487 97.1867 286.553 97.32 286.58 97.48C286.633 97.8533 286.66 98.2267 286.66 98.6C286.66 98.9733 286.633 99.3733 286.58 99.8C286.527 100.013 286.433 100.187 286.3 100.32C286.193 100.427 286.047 100.48 285.86 100.48C285.62 100.48 285.38 100.347 285.14 100.08ZM267.34 95.36C269.073 95.1733 270.113 95.04 270.46 94.96C271.34 94.7733 271.953 94.6267 272.3 94.52C272.727 94.84 273.127 95.2133 273.5 95.64C273.607 95.7467 273.66 95.8533 273.66 95.96C273.66 96.0667 273.607 96.16 273.5 96.24C273.393 96.2933 273.273 96.3333 273.14 96.36C271.647 96.4667 269.727 96.64 267.38 96.88V103.68C269.247 103.547 270.5 103.44 271.14 103.36C271.86 103.28 272.42 103.133 272.82 102.92C273.433 103.347 273.86 103.693 274.1 103.96C274.233 103.853 274.327 103.653 274.38 103.36C274.62 96.9867 274.74 91.9867 274.74 88.36C272.26 88.6267 269.793 88.8667 267.34 89.08V95.36ZM321.42 110.88C319.047 110.773 317.153 110.573 315.74 110.28L314.18 109.84C313.513 109.653 313.073 109.187 312.86 108.44C312.673 107.853 312.58 107.08 312.58 106.12L312.62 100.24L312.54 97.08C312.54 96.8667 312.513 96.6533 312.46 96.44C312.433 96.2267 312.393 96 312.34 95.76L312.54 95.52C313.633 96.16 314.447 96.72 314.98 97.2L314.9 97.52C314.66 98.16 314.54 98.8133 314.54 99.48L314.38 104.08L314.42 104.2C314.553 104.28 314.673 104.227 314.78 104.04L315.5 102.68C316.247 101.107 316.753 99.6667 317.02 98.36C317.153 97.5867 317.193 96.9467 317.14 96.44L317.54 96.08L318.58 97.24L319.3 98.08C319.38 98.1867 319.42 98.2933 319.42 98.4C319.42 98.5067 319.353 98.6267 319.22 98.76C319.113 98.8933 319.007 99.0267 318.9 99.16C318.793 99.2933 318.7 99.44 318.62 99.6C317.74 101.307 316.9 102.747 316.1 103.92L315.98 104.12C316.593 104.04 317.233 103.96 317.9 103.88C318.567 103.773 319.167 103.667 319.7 103.56L318.98 102.16L318.7 102.2L318.14 101.52C321.527 98.2667 324.007 94.8267 325.58 91.2C324.3 91.28 322.633 91.4933 320.58 91.84L318.94 90.52L318.98 90.32L319.06 90.16L325.74 89.72V85.88L321.5 86.48L320.7 85.88L319.82 85.12L319.9 84.8L325.7 84.4V83.96C325.673 83.1867 325.647 82.3733 325.62 81.52C325.593 80.6667 325.527 79.9067 325.42 79.24C325.287 78.0667 325.007 77.0533 324.58 76.2L324.94 75.88C326.54 77.1067 327.7 78.0533 328.42 78.72C328.207 79.3067 328.06 79.8667 327.98 80.4C327.927 80.9333 327.873 81.7067 327.82 82.72C327.82 83.0667 327.793 83.56 327.74 84.2C328.727 84.04 329.54 83.88 330.18 83.72C330.847 83.56 331.473 83.3067 332.06 82.96C332.833 83.4667 333.447 83.96 333.9 84.44L334.06 84.72L334.1 84.92C334.1 85.1067 333.993 85.2267 333.78 85.28L333.3 85.36L328.1 85.68L327.7 85.76L327.58 89.52L330.74 89.12C331.993 88.88 333.007 88.5733 333.78 88.2L334.86 89L335.58 89.64C335.74 89.7467 335.833 89.8667 335.86 90C335.913 90.1067 335.94 90.1867 335.94 90.24C335.94 90.4533 335.82 90.6 335.58 90.68L335.06 90.72L331.18 90.84L327.58 91.04V91.76C329.66 94.24 331.473 96.16 333.02 97.52C334.433 98.7733 335.82 99.6533 337.18 100.16L338.26 100.56V101.2L336.74 101.36L333.58 101.64H333.46C333.06 101.64 332.713 101.44 332.42 101.04C331.38 99.3867 330.3 97.7467 329.18 96.12L327.98 94.28L327.58 93.64L327.54 94.04L327.5 95.64L327.58 106.08V107.36L327.02 107.72L326.58 107.36L325.18 105.84C324.94 105.6 324.887 105.333 325.02 105.04L325.18 104.6L325.46 103.12L325.78 95.12L325.74 94.76C324.033 97.3733 321.993 99.6533 319.62 101.6L319.98 101.92L321.9 103.68C322.113 103.867 322.193 104.107 322.14 104.4C322.113 104.587 322.073 104.773 322.02 104.96C321.993 105.12 321.953 105.28 321.9 105.44C321.847 105.707 321.74 105.92 321.58 106.08C321.473 106.187 321.353 106.24 321.22 106.24C321.007 106.24 320.86 106.12 320.78 105.88L320.54 105.28L320.3 104.72L320.14 104.44L315.3 106.12L314.46 105.4L314.42 105.64L314.58 107.32C314.633 107.72 314.86 107.987 315.26 108.12C315.527 108.173 315.793 108.227 316.06 108.28C316.353 108.36 316.633 108.427 316.9 108.48C317.94 108.64 319.18 108.747 320.62 108.8L324.18 108.88C326.793 108.827 328.74 108.72 330.02 108.56C330.847 108.427 331.633 108.267 332.38 108.08C333.367 107.893 334.047 107.293 334.42 106.28C334.74 105.507 335.007 104.427 335.22 103.04L335.34 102.08H336.06L336.14 103.16L336.54 107.48L336.7 108.64V108.88C336.7 109.333 336.473 109.613 336.02 109.72C335.14 110.013 334.38 110.227 333.74 110.36C333.1 110.493 332.38 110.587 331.58 110.64C330.807 110.72 330.047 110.787 329.3 110.84C327.993 110.92 326.687 110.96 325.38 110.96C324.5 110.96 323.18 110.933 321.42 110.88ZM301.06 111.12L301.66 110.6C304.7 108.067 306.887 105.213 308.22 102.04C308.887 100.493 309.42 98.68 309.82 96.6L310.06 95.24C309.447 95.24 308.527 95.32 307.3 95.48V97.08L306.78 97.48L306.66 97.4L305.14 95.96C304.953 95.7733 304.9 95.5733 304.98 95.36C305.247 94.6933 305.353 93.7333 305.3 92.48L305.02 86.36C304.94 84.8133 304.607 83.3333 304.02 81.92L304.1 81.84L304.38 81.68L306.82 83.48L307.78 83.4C309.22 81.5333 310.193 79.8267 310.7 78.28C310.86 77.8 310.94 77.36 310.94 76.96L310.86 76L311.14 75.84C311.487 76.0267 312.02 76.56 312.74 77.44C313.487 78.32 313.887 78.88 313.94 79.12C313.54 79.44 312.793 80.1467 311.7 81.24C311.007 81.9867 310.353 82.6267 309.74 83.16L309.78 83.24L310.82 83.16L314.3 82.76C315.047 82.68 315.727 82.3333 316.34 81.72L316.66 81.4L317.58 82.08C318.487 82.72 319.153 83.2267 319.58 83.6L319.26 84.04C318.807 84.4133 318.527 85.04 318.42 85.92L317.94 91.56L317.62 94.76C317.593 95.2133 317.407 95.6533 317.06 96.08C316.873 96.3467 316.607 96.48 316.26 96.48L315.1 94.84L311.9 95.08L311.22 98.56C310.58 101.387 309.513 103.853 308.02 105.96C306.98 107.453 305.607 108.907 303.9 110.32L301.82 111.88L301.06 111.12ZM310.18 93.84C310.34 92.7733 310.447 91.48 310.5 89.96L308.42 90.24L307.18 89.2C307.26 89.04 307.327 88.9467 307.38 88.92C307.433 88.8667 307.527 88.8267 307.66 88.8L309.3 88.72L310.58 88.6L310.62 86.32C310.62 85.9733 310.593 85.4267 310.54 84.68L307.1 84.96L307.06 87.08C307.06 88.6267 307.113 90.9467 307.22 94.04L310.18 93.84ZM315.98 93.6L316.02 93.16C316.18 90.8133 316.287 88.0133 316.34 84.76V84.2L311.66 84.6C311.847 84.8133 312.073 85.0133 312.34 85.2C312.633 85.4133 312.753 85.7067 312.7 86.08L312.54 88.04V88.4L314.46 87.88C314.7 88.0933 314.94 88.32 315.18 88.56C315.447 88.7733 315.633 89 315.74 89.24C315.66 89.4267 315.593 89.5467 315.54 89.6C315.487 89.6267 315.353 89.6533 315.14 89.68L312.98 89.76L312.38 89.84L312.02 93.6C312.98 93.5467 313.807 93.36 314.5 93.04L315.82 94.16L315.98 93.6ZM364.18 111.44C363.993 111.6 363.82 111.68 363.66 111.68C363.473 111.68 363.3 111.573 363.14 111.36L362.1 110.16C360.473 108.4 358.82 106.907 357.14 105.68L356.7 105.32L357.06 104.84L357.42 104.96L363.02 107.64C363.34 107.773 363.553 107.84 363.66 107.84C363.767 107.84 363.86 107.8 363.94 107.72C364.02 107.613 364.113 107.48 364.22 107.32C364.753 106.36 365.247 105.227 365.7 103.92C366.5 101.787 367.247 99.4133 367.94 96.8L369.42 90.64L369.86 88.6L369.9 88.16L361.18 88.76L360.02 92.36C358.873 95.6667 357.367 98.5067 355.5 100.88C353.447 103.547 350.873 105.88 347.78 107.88C346.527 108.68 345.5 109.28 344.7 109.68C343.9 110.107 342.753 110.653 341.26 111.32L340.66 110.48L341.46 110.08C345.887 107.627 349.54 104.76 352.42 101.48C354.02 99.64 355.38 97.56 356.5 95.24C357.433 93.2667 358.153 91.2533 358.66 89.2L358.7 89H358.3L354.34 89.36L351.62 89.64L348.82 90.08H348.58C348.447 90.08 348.34 90.0533 348.26 90L345.78 88.28L345.94 87.92H346.78C347.047 87.9467 347.433 87.96 347.94 87.96C348.313 87.96 348.9 87.9333 349.7 87.88L350.58 87.84L352.26 87.76L356.38 87.48L359.06 87.24C359.113 86.9733 359.153 86.7067 359.18 86.44C359.233 86.1733 359.273 85.9067 359.3 85.64C359.46 84.52 359.58 83.3733 359.66 82.2C359.713 81.4 359.74 80.8133 359.74 80.44C359.74 79.5067 359.647 78.6533 359.46 77.88C359.433 77.6933 359.26 77.1467 358.94 76.24L359.38 75.88C360.927 77.1067 362.273 78.36 363.42 79.64L363.22 80.04C362.9 80.5733 362.647 81.3067 362.46 82.24L361.54 87.04C361.753 87.0133 361.98 87 362.22 87C362.46 86.9733 362.687 86.9467 362.9 86.92L365.62 86.64L367.94 86.32C368.207 86.2933 368.447 86.2133 368.66 86.08C368.9 85.9467 369.18 85.76 369.5 85.52L370.14 84.92L371.3 85.88L373.3 87.64C373.407 87.72 373.473 87.8 373.5 87.88C373.553 87.96 373.553 88.0667 373.5 88.2L373.38 88.28C372.793 88.7067 372.353 89.4133 372.06 90.4L370.34 96.28L369.58 98.76C369.207 100.013 368.62 101.893 367.82 104.4C367.633 105.04 367.167 106.307 366.42 108.2C365.94 109.293 365.273 110.293 364.42 111.2L364.18 111.44ZM398.34 93.96C396.22 91.92 394.46 90.64 391.54 90.64C388.42 90.64 385.66 92.8 383.98 95.96L381.14 94.44C383.7 89.84 387.38 87.44 391.58 87.44C395.22 87.44 397.82 88.92 400.62 91.68C402.74 93.76 404.5 95 407.42 95C410.54 95 413.3 92.84 414.98 89.68L417.82 91.2C415.26 95.8 411.58 98.2 407.38 98.2C403.74 98.2 401.14 96.72 398.34 93.96Z" fill="white"/>
</g>
<defs>
<filter id="filter0_d_236_56" x="0.12793" y="0.140137" width="480.876" height="122.22" filterUnits="userSpaceOnUse" color-interpolation-filters="sRGB">
<feFlood flood-opacity="0" result="BackgroundImageFix"/>
<feColorMatrix in="SourceAlpha" type="matrix" values="0 0 0 0 0 0 0 0 0 0 0 0 0 0 0 0 0 0 127 0" result="hardAlpha"/>
<feOffset/>
<feGaussianBlur stdDeviation="5"/>
<feComposite in2="hardAlpha" operator="out"/>
<feColorMatrix type="matrix" values="0 0 0 0 0.101961 0 0 0 0 0.101961 0 0 0 0 0.101961 0 0 0 0.25 0"/>
<feBlend mode="normal" in2="BackgroundImageFix" result="effect1_dropShadow_236_56"/>
<feBlend mode="normal" in="SourceGraphic" in2="effect1_dropShadow_236_56" result="shape"/>
</filter>
</defs>
</svg>
