<svg width="138" height="38" viewBox="0 0 138 38" fill="none" xmlns="http://www.w3.org/2000/svg">
<g clip-path="url(#clip0_252_73)">
<path d="M17.6698 33.2486C8.40927 33.2486 0.83252 25.9485 0.83252 17.0259C0.83252 8.10377 8.40927 0.803223 17.6698 0.803223H120.329C129.589 0.803223 137.166 8.10377 137.166 17.0259C137.166 25.9485 129.589 33.2486 120.329 33.2486H17.6698Z" fill="white"/>
<path d="M138 17.0259C137.997 26.3954 130.054 34.0485 120.329 34.0513H35.4579C34.9978 34.0513 34.6248 33.6916 34.6248 33.2485C34.6248 32.8048 34.9978 32.4456 35.4579 32.4456L120.329 32.4453C124.73 32.4449 128.727 30.7122 131.631 27.9151C134.535 25.1165 136.333 21.2653 136.333 17.0259C136.333 12.786 134.534 8.93494 131.631 6.13659C128.727 3.33912 124.73 1.60658 120.329 1.60658H17.6706C13.2702 1.60658 9.27324 3.33912 6.36888 6.13677C3.46562 8.93529 1.66743 12.7863 1.66708 17.0259C1.66743 21.2657 3.46562 25.1167 6.36888 27.9151C9.27324 30.7124 13.2704 32.4449 17.6706 32.4453H26.6829C27.1434 32.4453 27.5163 32.8044 27.5163 33.2483C27.5163 33.6918 27.1432 34.0513 26.6829 34.0513L17.6706 34.051C7.94627 34.0482 0.00308228 26.3951 0 17.0256C0.00289917 7.65587 7.94608 0.00314912 17.6704 0H120.329C130.054 0.00332408 137.997 7.65605 138 17.0259Z" fill="black"/>
<path d="M33.2694 31.4645C33.595 31.7784 33.595 32.287 33.2694 32.6005L28.2378 37.4484C27.9123 37.7617 27.3846 37.7617 27.0592 37.4484C26.7335 37.1345 26.7335 36.6259 27.0592 36.3122L32.0906 31.4643C32.416 31.1512 32.9438 31.1512 33.2694 31.4645Z" fill="black"/>
<path d="M36.012 10.338L36.74 11.122C34.738 11.612 31.63 11.92 29.026 12.046C28.998 11.808 28.872 11.444 28.76 11.22C31.322 11.066 34.346 10.758 36.012 10.338ZM32.26 11.5H33.31V16.96H32.26V11.5ZM28.312 13.6H37.272V14.51H28.312V13.6ZM27.514 16.764V20.852H26.478V17.73H24.644V16.764H27.514ZM27.514 20.292C28.186 21.314 29.418 21.804 31.07 21.874C32.61 21.916 35.816 21.888 37.496 21.776C37.356 22.014 37.202 22.504 37.146 22.826C35.592 22.882 32.638 22.91 31.07 22.868C29.236 22.784 27.962 22.294 27.052 21.188C26.408 21.79 25.722 22.392 25.008 23.008L24.462 21.958C25.092 21.51 25.89 20.894 26.576 20.292H27.514ZM25.246 11.066L25.946 10.422C26.786 10.856 27.794 11.556 28.27 12.102L27.542 12.816C27.08 12.27 26.1 11.542 25.246 11.066ZM24.7 13.922L25.4 13.236C26.268 13.642 27.332 14.314 27.85 14.86L27.122 15.602C26.632 15.07 25.596 14.356 24.7 13.922ZM30.286 17.31V19.718H35.452V17.31H30.286ZM29.292 16.386H36.502V20.642H29.292V16.386ZM41.472 14.818H48.542V15.756H41.472V14.818ZM41.22 21.622H48.724V22.56H41.22V21.622ZM40.744 17.52H49.312V23.134H48.248V18.472H41.766V23.134H40.744V17.52ZM44.958 11.318C43.81 13.026 41.514 15.014 39.12 16.316C38.98 16.078 38.7 15.7 38.462 15.476C40.926 14.23 43.264 12.088 44.37 10.282H45.434C46.946 12.368 49.396 14.314 51.636 15.308C51.37 15.56 51.118 15.924 50.936 16.232C48.738 15.084 46.274 13.11 44.958 11.318ZM55.08 20.46C55.528 20.46 55.864 20.81 56.62 21.216C57.502 21.706 58.734 21.776 60.246 21.776C61.842 21.776 64.04 21.678 65.468 21.51C65.328 21.818 65.16 22.364 65.132 22.7C64.026 22.77 61.632 22.84 60.218 22.84C58.566 22.84 57.362 22.7 56.396 22.196C55.822 21.874 55.374 21.482 55.066 21.482C54.59 21.482 53.918 22.21 53.232 23.008L52.49 21.986C53.4 21.118 54.366 20.46 55.08 20.46ZM52.84 11.402L53.666 10.856C54.408 11.472 55.304 12.382 55.71 13.012L54.828 13.628C54.45 12.998 53.582 12.074 52.84 11.402ZM55.514 15.518V20.992H54.492V16.498H52.686V15.518H55.514ZM56.13 12.438H65.23V13.432H56.13V12.438ZM62.57 12.634L63.62 12.844C62.514 16.904 60.302 19.326 56.69 20.754C56.578 20.53 56.256 20.054 56.046 19.83C59.546 18.626 61.632 16.372 62.57 12.634ZM59.322 10.478L60.316 10.17C60.722 10.786 61.184 11.64 61.38 12.172L60.33 12.55C60.162 12.004 59.714 11.122 59.322 10.478ZM56.55 14.846L57.292 14.202C59.77 15.91 63.06 18.374 64.712 19.942L63.886 20.712C62.346 19.144 59.098 16.596 56.55 14.846ZM71.572 12.928H78.978V13.894H71.572V12.928ZM72.006 15.84H78.53V16.792H72.006V15.84ZM71.054 18.78H79.258V19.76H71.054V18.78ZM74.722 13.292H75.786V23.12H74.722V13.292ZM72.16 10.66L73.084 10.31C73.574 10.996 74.106 11.906 74.316 12.508L73.35 12.914C73.154 12.312 72.636 11.36 72.16 10.66ZM77.494 10.212L78.558 10.562C78.068 11.598 77.438 12.774 76.92 13.516L76.038 13.18C76.542 12.396 77.158 11.122 77.494 10.212ZM66.77 12.956H71.04V13.922H66.77V12.956ZM68.548 10.24H69.556V23.106H68.548V10.24ZM68.618 13.586L69.248 13.796C68.842 16.064 67.946 18.85 66.994 20.264C66.882 19.97 66.616 19.508 66.434 19.256C67.344 17.996 68.24 15.56 68.618 13.586ZM69.5 14.426C69.808 14.832 70.97 16.61 71.208 17.044L70.564 17.814C70.256 17.1 69.346 15.42 68.982 14.846L69.5 14.426ZM81.834 12.494H86.09V21.65H81.834V20.698H85.11V13.432H81.834V12.494ZM81.204 12.494H82.184V22.77H81.204V12.494ZM81.764 16.386H85.628V17.324H81.764V16.386ZM83.346 10.212L84.48 10.422C84.2 11.29 83.85 12.256 83.57 12.886L82.73 12.676C82.968 12.004 83.234 10.94 83.346 10.212ZM88.078 12.452H92.376V13.432H88.078V12.452ZM92.012 12.452H92.992C92.992 12.452 92.992 12.844 92.992 12.998C92.768 19.424 92.572 21.594 92.012 22.28C91.704 22.686 91.382 22.812 90.892 22.854C90.416 22.91 89.59 22.882 88.806 22.84C88.778 22.532 88.652 22.098 88.456 21.818C89.366 21.888 90.206 21.902 90.528 21.902C90.808 21.902 90.976 21.86 91.13 21.678C91.592 21.174 91.816 18.85 92.012 12.676V12.452ZM88.372 10.184L89.38 10.422C88.862 12.508 88.036 14.566 87.07 15.896C86.888 15.728 86.454 15.434 86.202 15.294C87.154 14.062 87.924 12.13 88.372 10.184ZM87.728 16.092L88.54 15.616C89.338 16.61 90.304 17.968 90.752 18.794L89.856 19.354C89.436 18.5 88.498 17.114 87.728 16.092ZM100.272 10.674H101.434C101.322 12.872 101.112 19.858 95.316 23.008C95.134 22.742 94.784 22.42 94.462 22.182C100.174 19.27 100.174 12.536 100.272 10.674ZM101.392 10.954C101.434 12.046 101.84 19.48 107.608 22.126C107.3 22.364 106.978 22.714 106.81 23.008C100.874 20.166 100.482 12.34 100.384 11.052L101.392 10.954ZM114.538 18.626L114.258 13.194L114.216 11.528H115.77L115.728 13.194L115.448 18.626H114.538ZM115 22.07C114.496 22.07 114.09 21.72 114.09 21.16C114.09 20.6 114.496 20.222 115 20.222C115.49 20.222 115.896 20.6 115.896 21.16C115.896 21.72 115.49 22.07 115 22.07Z" fill="#EF7014"/>
</g>
<defs>
<clipPath id="clip0_252_73">
<rect width="138" height="38" fill="white"/>
</clipPath>
</defs>
</svg>
