<svg width="21" height="25" viewBox="0 0 21 25" fill="none" xmlns="http://www.w3.org/2000/svg">
<path d="M0.00434034 11.9519C-0.028261 11.7129 0.129506 11.6919 0.252926 11.6528C1.01964 11.4092 1.78868 11.1719 2.55656 10.9306C4.88756 10.1984 7.21856 9.46565 9.54956 8.7329C9.76205 8.66586 9.97629 8.60232 10.1876 8.53178C10.3227 8.48631 10.4513 8.49506 10.5858 8.53761C12.8516 9.25171 15.118 9.96405 17.3844 10.6758C18.402 10.9953 19.4185 11.3176 20.439 11.626C20.6963 11.7035 20.7854 11.8015 20.7283 12.0988C20.2737 14.4742 19.5652 16.7692 18.5708 18.9733C18.2157 19.7609 17.8024 20.5204 17.3419 21.2532C17.24 21.4152 17.1422 21.4578 16.9629 21.375C15.1518 20.5414 13.2719 20.4849 11.3584 20.9075C10.6918 21.055 10.0741 21.3459 9.47155 21.6612C8.01729 22.422 6.55664 22.4365 5.09074 21.7067C4.54292 21.4339 3.99685 21.1611 3.40711 20.9897C3.254 20.9454 3.16493 20.8463 3.08866 20.7145C2.18107 19.154 1.50633 17.4927 0.962006 15.7765C0.574282 14.5547 0.247686 13.3159 0.024134 12.0521C0.0154015 12.0043 0.0049225 11.9571 0.00375817 11.9519H0.00434034Z" fill="white"/>
<path d="M10.3703 0C11.399 0 12.4271 0 13.4558 0C13.8622 0 13.8674 0.00466348 13.8686 0.401059C13.8703 1.10058 13.868 1.8001 13.8697 2.49963C13.8709 2.85813 13.8843 2.87095 14.2522 2.87154C14.8926 2.87329 15.533 2.8797 16.1734 2.86862C16.426 2.86396 16.5104 2.95606 16.5093 3.20906C16.5011 4.9771 16.5052 6.74514 16.5046 8.51377C16.5046 8.88335 16.4802 8.90317 16.1215 8.79066C14.428 8.26077 12.7246 7.76061 11.0491 7.17884C10.4408 6.96782 9.93369 7.11764 9.38994 7.29019C7.80936 7.79093 6.22819 8.28992 4.64702 8.78716C4.27211 8.90492 4.25057 8.88743 4.24999 8.49919C4.24999 6.75039 4.25581 5.00158 4.24417 3.25278C4.24242 2.9584 4.33382 2.8593 4.62607 2.86746C5.25655 2.88436 5.88762 2.86221 6.51753 2.87737C6.79057 2.88378 6.89768 2.79925 6.8907 2.5142C6.87498 1.8345 6.88546 1.15421 6.88604 0.473926C6.88643 0.157975 7.04847 0 7.37215 0C8.37173 0 9.37073 0 10.3703 0Z" fill="white"/>
<path d="M19.8269 24.155C19.8269 24.32 19.8153 24.4861 19.8298 24.6499C19.852 24.9006 19.7588 24.9945 19.4998 24.9892C18.6061 24.97 17.7503 24.7928 16.9307 24.4343C16.3537 24.1819 15.8216 23.8228 15.2069 23.6648C13.7753 23.2975 12.3676 23.3214 11.0129 23.9912C10.4139 24.2874 9.82413 24.6068 9.16454 24.7595C7.30568 25.1897 5.50794 25.0732 3.79928 24.1603C2.9924 23.7295 2.15116 23.4287 1.22203 23.4497C0.996726 23.4549 0.915223 23.3547 0.924538 23.1314C0.937928 22.802 0.926866 22.4709 0.928031 22.141C0.929195 21.7866 0.957721 21.7481 1.30469 21.7656C2.23267 21.814 3.13037 21.9958 3.97393 22.4016C4.67195 22.7373 5.34668 23.1355 6.1297 23.2515C7.41454 23.4427 8.66504 23.364 9.83287 22.7274C11.0414 22.0681 12.3234 21.7248 13.7072 21.7598C14.9565 21.7912 16.1098 22.1392 17.2037 22.7263C17.9145 23.1075 18.6737 23.3308 19.4864 23.3261C19.7501 23.3244 19.8578 23.424 19.8298 23.6893C19.8135 23.8432 19.8269 24 19.8269 24.155Z" fill="white"/>
</svg>
