<svg width="20" height="25" viewBox="0 0 20 25" fill="none" xmlns="http://www.w3.org/2000/svg">
<path d="M8.21902 15.7202C8.24877 16.3065 8.27521 16.9509 8.319 17.5936C8.33387 17.8154 8.29008 17.9226 8.03477 17.9726C6.59298 18.2541 5.15532 18.5565 3.71683 18.8549C3.56398 18.8863 3.44004 18.925 3.33346 18.7484C2.09905 16.7009 0.854734 14.6549 0.251577 12.3226C-0.0409122 11.1928 -0.111969 10.0404 0.21357 8.89682C0.628343 7.43956 1.62066 6.60892 3.13764 6.35166C4.6728 6.09117 5.82871 6.65166 6.64917 7.91053C7.51837 9.2444 7.84722 10.75 8.07113 12.2863C8.23472 13.4065 8.25042 14.5339 8.21902 15.7202Z" fill="white"/>
<path d="M12.1014 6.91295C12.0964 5.70166 12.2187 4.36859 12.6203 3.07182C12.731 2.71375 12.8698 2.35972 13.0367 2.02343C13.7671 0.55085 14.8825 -0.105601 16.416 0.0137534C18.1082 0.145205 19.2261 0.98956 19.7053 2.54924C20.2018 4.16375 20.0192 5.77101 19.5276 7.34843C18.9997 9.0444 18.2957 10.6767 17.4976 12.2694C17.4034 12.4581 17.3141 12.5533 17.0654 12.5234C15.66 12.3525 14.2529 12.1984 12.845 12.0525C12.5137 12.0186 12.3526 11.9347 12.3592 11.5525C12.384 10.0476 12.0832 8.55811 12.1014 6.91375V6.91295Z" fill="white"/>
<path d="M9.55094 22.0855C9.54763 24.117 8.01743 25.3646 6.3005 24.9041C5.69652 24.742 5.26192 24.3646 4.92811 23.871C4.21259 22.8113 3.95976 21.6081 3.8193 20.3718C3.80195 20.217 3.86226 20.1605 4.01099 20.1283C5.47261 19.8121 6.93258 19.4936 8.39172 19.167C8.61811 19.1162 8.7156 19.217 8.80401 19.3912C9.26175 20.2928 9.52532 21.242 9.55094 22.0863V22.0855Z" fill="white"/>
<path d="M17.0935 14.5992C17.0274 15.6638 16.8679 16.7081 16.3251 17.6565C15.7872 18.596 14.9461 19.025 13.9422 18.8976C12.7392 18.7444 11.9964 18.1339 11.7056 17.0605C11.5188 16.3726 11.5403 15.6783 11.651 14.9847C11.7337 14.4678 11.8733 13.9638 12.0749 13.4767C12.1476 13.3025 12.2352 13.2307 12.4426 13.2573C13.8992 13.4444 15.3575 13.6226 16.8159 13.7944C17.0596 13.8234 17.1521 13.9218 17.1183 14.1581C17.0968 14.3033 17.1009 14.4525 17.0935 14.6V14.5992Z" fill="white"/>
</svg>
