<svg width="40" height="40" viewBox="0 0 40 40" fill="none" xmlns="http://www.w3.org/2000/svg">
<g clip-path="url(#clip0_69_179)">
<path d="M40 20C40 8.95432 31.0457 0 20 0C8.95432 0 0 8.95432 0 20C0 29.3796 6.4572 37.2498 15.1685 39.411V26.1117H11.0443V20H15.1685V17.3665C15.1685 10.5591 18.2492 7.40392 24.9323 7.40392C26.1994 7.40392 28.3857 7.6524 29.2801 7.9008V13.4411C28.808 13.3914 27.9882 13.3666 26.9695 13.3666C23.6901 13.3666 22.423 14.6088 22.423 17.8386V20H28.9558L27.8334 26.1117H22.423V39.8535C32.3259 38.6574 40.0001 30.2254 40.0001 20H40Z" fill="#0866FF"/>
<path d="M27.8334 26.1116L28.9557 19.9999H22.423V17.8384C22.423 14.6087 23.6901 13.3664 26.9695 13.3664C27.9881 13.3664 28.808 13.3913 29.2801 13.441V7.90069C28.3857 7.65221 26.1994 7.40381 24.9323 7.40381C18.2492 7.40381 15.1685 10.559 15.1685 17.3664V19.9999H11.0443V26.1116H15.1685V39.4109C16.7159 39.7948 18.3339 39.9999 20 39.9999C20.8202 39.9999 21.6286 39.9493 22.4229 39.8534V26.1116H27.8334H27.8334Z" fill="white"/>
</g>
<defs>
<clipPath id="clip0_69_179">
<rect width="40" height="40" fill="white"/>
</clipPath>
</defs>
</svg>
