<svg width="24" height="24" viewBox="0 0 24 24" fill="none" xmlns="http://www.w3.org/2000/svg">
<circle cx="12" cy="12" r="11.5" fill="white" stroke="#CCCCCC"/>
<path fill-rule="evenodd" clip-rule="evenodd" d="M12.6243 7.00049H16.9997C16.9992 7.18945 16.9993 7.22849 16.9995 7.28848C16.9996 7.32769 16.9997 7.37585 16.9997 7.48068L16.999 11.3752L16.0393 11.9154V8.64016L11.4351 13.2443L10.756 12.5652L15.3604 7.96087H12.0847L12.6243 7.00049ZM7.00054 9.17551C7.00054 9.03022 7.00038 8.95422 7.00023 8.88549L7 8.69532H11.225V9.6557H7.96092V16.0394H14.3447V12.7754H15.305V16.5196V16.9998H7.48073L7.28838 17H7.28833C7.22826 17.0001 7.18912 17.0002 7.00054 16.9998V9.17551Z" fill="#222222"/>
</svg>
