<svg width="411" height="198" viewBox="0 0 411 198" fill="none" xmlns="http://www.w3.org/2000/svg">
  <symbol id="logo">
    <path id="logo-悠" d="M90.2794 195.328C82.1046 194.485 74.3714 192.615 67.0798 189.714C59.7849 186.811 52.8908 182.993 46.4009 178.258C43.116 174.44 39.7561 170.696 36.3181 167.029C34.485 164.279 32.6128 161.76 30.7047 159.467L31.3923 158.208C29.0232 156.987 26.9994 155.115 25.3195 152.594H23.8302V147.897C26.1212 144.156 27.2666 139.953 27.2666 135.295C27.2666 130.636 27.4557 126.13 27.8402 121.776L27.6105 119.599C24.4771 122.654 21.6533 125.691 19.1326 128.707C16.6119 131.727 13.9771 134.721 11.2267 137.702L9.96714 138.617L8.47785 137.702L5.26953 135.181C3.43644 133.503 2.09869 131.515 1.25954 129.224L0 126.359L2.1769 123.953L2.52071 122.005L5.95715 120.746L7.44643 121.777C9.58423 119.869 11.6862 117.881 13.7474 115.82C16.4978 112.309 18.7106 108.564 20.3921 104.592L21.6517 103.676L21.8814 102.073L23.141 101.729L22.9112 99.5521C24.3614 97.108 25.8702 94.6264 27.4361 92.1057C29.0003 89.585 29.8998 86.7612 30.1279 83.6278L27.8369 82.3683L27.2634 80.879C28.1025 79.8101 29.134 79.5038 30.356 79.9632C34.1737 81.1853 37.8399 82.8278 41.3546 84.889C43.6455 88.8615 45.0208 93.1371 45.4786 97.7206L45.1348 98.9802L45.4786 100.24L43.5315 99.8959C42.5375 100.966 41.3921 101.499 40.095 101.499L38.8355 104.592L37.0024 104.936L34.8255 110.549C36.5038 112.84 37.5352 115.323 37.9181 117.995C38.6058 129.607 38.4917 141.138 37.5743 152.594C36.5804 154.885 36.085 157.406 36.085 160.157C43.569 165.351 51.1311 170.43 58.7698 175.395C66.4069 180.358 74.8098 183.49 83.9752 184.79C84.6628 183.948 84.8909 182.995 84.6628 181.926L84.319 180.436L85.0066 179.177L84.319 177.573V170.355C83.7064 167.453 82.3719 164.781 80.309 162.335L78.3619 166.689C78.5916 169.974 79.0088 173.296 79.6214 176.656L77.7883 176.312L76.5288 176.656C72.5563 175.206 68.8901 172.801 65.5302 169.438C64.6878 165.314 63.3142 161.38 61.4062 157.638L60.1466 157.294L57.6259 157.981C54.341 155.231 51.6281 152.215 49.4919 148.93L50.7514 146.409C47.6181 143.049 46.3585 138.888 46.9712 133.921C47.3525 127.964 47.4665 122.046 47.315 116.164L46.9712 113.643L47.315 110.207L46.0554 108.374L44.5662 107.114L46.3993 105.511C50.3701 107.192 54.6474 108.452 59.2309 109.291C62.8205 105.092 65.4553 100.603 67.1368 95.8289C68.8151 91.0563 70.0388 86.0736 70.803 80.8774L66.1054 75.8359H69.3137C74.1254 76.6783 78.5167 78.4707 82.4892 81.2212L83.0627 87.0642C81.3812 90.1976 80.0434 93.52 79.0527 97.0314H80.8858C84.552 96.0407 87.3758 93.9779 89.3637 90.8445L93.4877 90.5007C96.16 91.3431 98.8159 92.0877 101.451 92.7346C104.085 93.3848 106.738 94.0153 109.414 94.6247L110.673 100.468L100.934 101.727L99.1011 101.498C96.1975 101.881 93.258 102.606 90.2794 103.675C91.5764 104.287 92.7235 105.012 93.7159 105.851L94.0597 107.685L91.1952 116.736L89.7059 118.339C88.8635 121.854 88.14 125.367 87.529 128.88C90.8122 131.019 94.0776 133.061 97.325 135.01C100.571 136.957 103.874 139.077 107.235 141.368L111.933 144.804L113.192 146.981L114.108 153.512C112.886 155.193 110.823 155.728 107.921 155.115L106.318 156.031L105.974 154.771L101.276 152.938L100.361 151.679C97.2273 150 94.1917 147.975 91.2522 145.606C88.3111 143.24 85.3895 140.908 82.4876 138.617C79.9669 141.521 77.35 144.156 74.6403 146.523C71.9273 148.892 69.084 151.449 66.1054 154.199L62.669 155.115C66.2586 156.186 69.6184 157.522 72.7518 159.125L74.5849 161.072L77.1056 158.208H78.3651L77.1056 155.687H78.3651C80.5029 157.597 82.7189 159.086 85.0099 160.155L89.3637 165.081C89.3637 166.151 89.8965 166.99 90.967 167.601L93.7175 170.352L95.3208 174.476L97.8416 176.653C100.133 181.235 101.812 186.007 102.883 190.974L101.28 194.754L98.7589 195.098L97.1556 194.754C95.0927 195.365 92.8018 195.556 90.2811 195.328H90.2794ZM17.1855 190.4L11.9159 187.536L11.2283 186.276C10.3859 186.121 10.0828 185.512 10.3126 184.443L8.70923 182.61C10.3875 179.248 11.4597 175.584 11.9176 171.611L11.5737 165.081L11.9176 163.821L11.0018 158.895C14.5132 159.738 17.6466 160.768 20.397 161.988C22.2301 164.892 23.5646 168.061 24.407 171.497C25.2462 174.934 25.7823 178.411 26.0104 181.922L25.3228 183.87L25.6666 185.015L22.2301 189.713L20.9706 190.056L19.711 189.713C19.0984 190.4 18.2592 190.628 17.1903 190.4H17.1855ZM60.8359 144.459C63.3566 142.855 65.7046 140.947 67.8815 138.73C70.0584 136.515 72.2157 134.187 74.3551 131.741C70.7639 128.381 67.5181 125.059 64.6161 121.774C63.5456 119.483 62.2844 117.269 60.8359 115.129L58.659 118.91C59.1168 127.464 59.1918 135.906 58.8887 144.229L60.8359 144.459ZM79.0527 124.181C80.2732 121.279 81.4594 118.377 82.6049 115.473C83.7504 112.571 84.627 109.441 85.2396 106.078L83.4065 105.162C81.3437 106.233 79.1668 107.072 76.8759 107.683L74.9287 106.423C73.2471 109.938 71.2625 113.26 68.9715 116.39L66.4509 119.599C70.8796 120.211 75.0802 121.738 79.0527 124.181ZM104.143 171.955C102.003 170.886 99.9028 169.855 97.8416 168.863C94.9379 163.899 91.0827 159.852 86.2694 156.719L84.6661 152.594C89.7075 153.207 94.3644 154.046 98.6432 155.115C102.92 156.186 106.929 158.056 110.673 160.729L112.62 164.739C112.391 166.878 111.856 168.978 111.017 171.039L106.893 171.955L105.633 171.611L104.143 171.955Z" style="fill: var(--logo-fill)"/>
    <path id="logo-泉" d="M203.056 195.67C199.313 194.828 195.875 193.11 192.745 190.514C189.611 187.917 186.403 185.589 183.121 183.526L178.08 177.913H176.247C174.565 180.204 172.581 182.19 170.29 183.87L168.8 184.785L167.769 186.045C165.323 187.265 162.9 188.546 160.494 189.882C158.087 191.217 155.547 192.23 152.875 192.918L151.615 191.886L148.75 188.794C146.917 186.273 146 183.484 146 180.43L147.489 179.17C147.489 177.72 148.136 176.575 149.436 175.734L153.446 170.693C155.354 167.409 156.5 163.896 156.883 160.152L158.142 159.808C159.593 161.641 160.127 163.932 159.746 166.683L159.058 171.608L159.746 172.868C163.029 171.035 165.664 168.915 167.652 166.51C169.636 164.103 171.469 161.566 173.151 158.891L174.411 153.849L173.151 153.506C168.949 154.806 164.976 156.598 161.237 158.891L159.404 157.975L155.05 158.205L153.79 157.631C151.27 154.12 149.588 150.375 148.749 146.403L149.436 144.456L149.093 143.31C152.223 144.914 155.545 145.945 159.06 146.403L176.589 141.361L179.682 137.695C177.619 135.404 176.662 132.579 176.817 129.217L177.505 125.437C176.892 121.541 176.053 117.667 174.984 113.808C173.914 109.953 172.652 106.151 171.204 102.409L169.371 100.462C167.919 98.3987 166.581 96.2218 165.361 93.9308L168.111 93.7011L178.422 94.8466C180.485 92.5556 182.24 90.1115 183.692 87.5142C185.142 84.9185 186.212 82.1697 186.9 79.2661L184.953 76.7454L191.827 76.5156C195.798 77.5096 199.655 78.8473 203.399 80.5256L203.743 82.129C202.901 84.8045 201.412 87.2844 199.275 89.5754H200.535C204.125 89.3456 207.524 88.8699 210.732 88.1431C213.94 87.418 217.108 86.6359 220.241 85.7951C223.752 87.3235 227.132 89.1175 230.381 91.1804C233.627 93.2432 236.814 95.4201 239.947 97.7111L240.521 99.3144L238.344 100.804L237.656 102.981L233.302 106.073L232.043 108.364L229.866 110.541C229.253 111.763 228.758 113.101 228.377 114.551C227.306 117.072 226.524 119.632 226.029 122.227C225.53 124.825 224.328 127.153 222.42 129.216L218.983 129.789C217.531 130.632 216.194 130.976 214.973 130.821C213.673 129.524 212.223 128.988 210.619 129.217C208.938 129.447 207.678 130.06 206.839 131.051C207.83 131.738 208.136 132.695 207.755 133.915L206.839 140.446L214.973 145.143C216.194 144.304 217.531 143.579 218.983 142.966V141.019C221.274 140.257 223.374 139.149 225.284 137.697L227.117 135.176C230.401 132.656 232.159 129.716 232.387 126.355L231.813 125.209C233.263 124.14 235.022 123.72 237.083 123.95C240.213 124.562 243.134 125.594 245.847 127.042C248.557 128.494 251.249 130.062 253.924 131.74L254.268 132.999C253.198 133.842 252.779 134.987 253.009 136.436L248.885 137.352C245.981 138.194 243.385 139.758 241.094 142.049L238.917 143.309C236.626 144.912 234.238 146.401 231.756 147.777C229.273 149.152 226.695 150.336 224.023 151.329L223.679 152.588C226.351 154.879 229.159 157.076 232.1 159.176C235.039 161.278 237.845 163.473 240.521 165.764C244.262 169.66 248.272 172.866 252.551 175.387C256.828 177.908 261.143 180.388 265.496 182.833C266.108 183.902 266.298 185.162 266.07 186.614C262.785 189.364 259.042 190.927 254.842 191.311C250.105 190.699 245.6 189.496 241.322 187.702C237.044 185.906 233.034 183.48 229.292 180.427L228.377 179.395C224.634 175.271 221.139 171.129 217.893 166.965C214.646 162.803 211.457 158.544 208.327 154.19L207.181 155.106C207.563 158.009 207.812 160.968 207.926 163.984C208.04 167.004 208.288 169.961 208.671 172.863L208.097 176.071L208.671 178.248C208.441 181.302 207.963 184.3 207.238 187.243C206.512 190.182 205.118 192.988 203.057 195.663L203.056 195.67ZM191.827 177.911H194.348C196.026 174.551 196.869 170.922 196.869 167.026C196.486 160.765 196.256 154.501 196.181 148.238H194.692L191.827 150.071C189.536 153.662 187.606 157.423 186.041 161.356C184.475 165.291 182.776 169.13 180.943 172.87C184.073 175.773 187.702 177.451 191.827 177.911ZM195.265 141.365L195.953 138.844L194.922 133.231C192.859 133.079 191.216 133.5 189.996 134.49L188.049 138.844L195.265 141.365ZM211.533 103.901C211.915 101.457 212.41 99.0896 213.023 96.7986C212.18 96.1876 211.265 95.9594 210.272 96.111C206.53 96.9534 202.883 97.887 199.331 98.9185C195.779 99.9499 192.36 101.307 189.077 102.985L188.733 104.245L189.649 108.943H190.908C194.268 107.874 197.648 106.88 201.048 105.964C204.446 105.048 207.941 104.361 211.533 103.901ZM210.274 122.002L210.618 118.336L210.274 113.639H208.671C205.537 114.251 202.37 114.976 199.161 115.816C195.953 116.658 192.974 117.992 190.226 119.826L189.996 125.439L192.173 125.783C195.075 124.944 198.034 124.218 201.051 123.606C204.068 122.995 207.141 122.46 210.274 122.002Z" style="fill: var(--logo-fill)"/>
    <path id="logo-庵" d="M301.486 197.618C298.811 196.624 296.217 195.173 293.696 193.264L292.436 190.514L290.489 188.911L289.916 187.651L289 186.735C289.611 183.144 290.335 179.708 291.177 176.424L292.093 175.393L291.519 173.56C292.13 171.652 292.321 169.664 292.093 167.603C294.155 169.894 295.72 172.3 296.79 174.821C301.372 166.498 304.504 157.693 306.185 148.413C307.864 139.134 309.545 129.911 311.227 120.746L309.967 117.881L304.354 114.445C309.317 113.834 313.787 114.464 317.759 116.335C321.73 118.207 325.817 119.755 330.017 120.975C334.599 119.142 339.183 117.386 343.766 115.706C345.599 112.346 346.517 108.68 346.517 104.707L345.027 103.792C340.597 105.014 336.206 106.218 331.852 107.401C327.498 108.587 323.219 109.979 319.02 111.582L318.333 112.841L316.843 113.185C312.641 111.507 308.784 108.986 305.271 105.623L302.751 100.697C306.722 101.919 310.578 102.645 314.323 102.874C318.677 102.035 322.952 100.927 327.154 99.5519C331.353 98.1767 335.632 97.1078 339.986 96.3436L340.33 94.0526C339.487 89.9285 337.998 85.9951 335.862 82.2524L331.852 79.044C334.524 78.0534 337.426 77.6313 340.56 77.7845L341.819 78.1283L344.684 77.7845C349.266 78.855 353.543 80.649 357.515 83.1697C358.506 85.4607 359.119 87.8673 359.348 90.388L362.557 90.6178C364.39 90.2365 366.031 89.4348 367.482 88.2111C367.94 86.6844 368.895 85.7312 370.347 85.3466L373.783 84.7731C376.914 86.3764 380.2 87.7142 383.636 88.7831C387.073 89.8536 390.47 91.1148 393.833 92.5633L394.749 93.8229C395.97 93.5931 396.812 94.0151 397.27 95.0824L395.323 98.5188L391.886 99.4346C391.274 100.505 390.242 100.81 388.794 100.35C384.212 99.5111 379.514 99.0908 374.702 99.0908C371.341 99.9332 367.944 100.505 364.506 100.81C361.069 101.116 357.898 101.918 354.996 103.216C356.065 104.438 356.371 105.892 355.912 107.57L354.996 112.268L356.6 111.008L357.859 110.665L359.692 111.352L361.869 110.321L362.557 109.175C363.777 107.878 365.229 107.228 366.911 107.228C370.652 108.07 374.394 108.91 378.139 109.749C381.88 110.591 385.432 111.851 388.794 113.529L389.137 114.789L388.45 116.278C386.768 115.897 385.43 116.433 384.44 117.881L378.483 119.141L371.838 118.797C367.942 119.41 364.085 120.363 360.266 121.661C367.368 127.237 374.53 132.43 381.748 137.242C388.966 142.054 396.737 145.72 405.063 148.24C406.132 149.922 407.47 151.26 409.073 152.25V153.854L408.5 155.457C405.979 156.679 403.268 157.29 400.366 157.29C397.462 156.909 394.598 156.145 391.774 154.999C388.947 153.854 386.16 152.633 383.41 151.333L381.233 153.51C380.011 157.253 378.558 160.919 376.879 164.509C374.816 165.96 372.755 167.298 370.692 168.519C367.331 169.589 363.779 170.428 360.038 171.039C358.737 172.721 358.205 174.591 358.434 176.653C358.664 180.012 359.273 183.143 360.267 186.048C364.085 188.339 368.476 189.178 373.443 188.569L375.276 188.225L376.535 188.569C381.805 188.339 386.732 187.612 391.314 186.392C392.764 184.101 393.643 181.655 393.949 179.059C394.254 176.464 394.293 173.674 394.063 170.695C393.45 166.954 392.116 163.632 390.053 160.728L389.137 159.469L390.627 158.895L394.063 161.072L396.24 162.905C398.761 165.809 400.537 169.092 401.568 172.758C402.6 176.424 403.763 180.014 405.063 183.527L410.333 186.392L410.677 187.651C410.064 188.49 409.761 189.445 409.761 190.516C407.01 192.349 404.126 193.838 401.11 194.984C398.091 196.129 394.827 196.817 391.314 197.046L389.137 196.703L385.013 197.39C379.589 197.16 374.282 196.626 369.089 195.787C363.894 194.944 359.081 193.266 354.654 190.745C352.973 188.454 351.676 186.066 350.758 183.584C349.842 181.101 349.383 178.372 349.383 175.393L347.78 175.163L341.249 176.423C338.728 175.584 336.512 174.094 334.604 171.955L337.125 170.695C337.812 171.766 338.766 172.11 339.989 171.727L341.593 171.039V169.78C338.614 166.039 336.933 161.874 336.551 157.292L334.031 157.979C331.74 161.264 329.219 164.473 326.468 167.603L323.718 168.862L322.458 170.122C320.396 167.601 318.294 165.196 316.157 162.904C315.545 167.106 314.57 171.192 313.236 175.162C311.898 179.133 310.389 182.989 308.711 186.734L307.108 187.307C304.587 190.437 302.715 193.876 301.494 197.618H301.486ZM321.88 157.634C323.713 155.113 325.564 152.65 327.436 150.245C329.307 147.838 330.661 145.187 331.503 142.282L330.244 139.189L333.108 140.105C334.941 137.354 336.506 134.416 337.806 131.283C332.994 130.063 328.601 127.694 324.63 124.181L323.371 123.149C322.377 127.961 321.461 132.87 320.62 137.871C319.778 142.875 319.361 148.011 319.361 153.28L320.277 157.978L321.88 157.634ZM338.378 129.45L338.722 128.19L337.462 129.45H338.378ZM349.376 154.198L350.636 153.282V148.24L349.376 147.897L345.94 148.812L345.596 151.333L346.856 154.198H349.376ZM350.636 139.417L350.866 133.574L349.72 132.315C348.42 134.99 347.351 137.7 346.512 140.449H347.771L350.636 139.417ZM361.52 135.981L363.124 135.407V134.148L354.646 123.149H352.813C351.131 125.289 350.178 127.579 349.948 130.024C353.308 130.711 356.554 131.668 359.687 132.888L360.031 136.325L361.52 135.981ZM361.291 165.424C363.124 162.522 364.269 159.392 364.727 156.029H363.124L360.031 157.632L359.687 159.122L358.772 164.851L361.292 165.424H361.291ZM360.031 150.76C361.864 150.149 363.735 149.5 365.644 148.812L366.218 144.802L365.644 143.543L364.041 143.199L360.261 144.459C359.267 146.14 358.847 148.125 359.001 150.416L360.033 150.76H360.031Z" style="fill: var(--logo-fill)"/>
    <path id="logo-yusenan" d="M101.212 18.476V19.196C100.684 19.412 100.144 19.844 99.592 20.492C99.04 21.116 98.428 22.076 97.756 23.372L90.952 36.836H89.26L80.836 21.248C80.404 20.432 80.008 19.892 79.648 19.628C79.312 19.364 79.012 19.232 78.748 19.232V18.476C79.396 18.548 80.056 18.596 80.728 18.62C81.424 18.644 82.18 18.656 82.996 18.656C84.052 18.656 85.192 18.644 86.416 18.62C87.64 18.572 88.756 18.524 89.764 18.476V19.232C89.164 19.232 88.624 19.28 88.144 19.376C87.664 19.472 87.328 19.652 87.136 19.916C86.944 20.156 86.992 20.552 87.28 21.104L92.968 32.048L91.852 33.488L95.56 26.036C96.448 24.308 96.916 22.952 96.964 21.968C97.036 20.984 96.796 20.288 96.244 19.88C95.716 19.448 94.96 19.22 93.976 19.196V18.476C94.792 18.5 95.56 18.524 96.28 18.548C97 18.572 97.732 18.584 98.476 18.584C99.004 18.584 99.496 18.572 99.952 18.548C100.432 18.524 100.852 18.5 101.212 18.476ZM93.508 31.148V40.184C93.508 41.048 93.568 41.696 93.688 42.128C93.832 42.56 94.096 42.848 94.48 42.992C94.864 43.136 95.44 43.232 96.208 43.28V44C95.56 43.952 94.72 43.928 93.688 43.928C92.68 43.904 91.672 43.892 90.664 43.892C89.536 43.892 88.468 43.904 87.46 43.928C86.452 43.928 85.66 43.952 85.084 44V43.28C85.852 43.232 86.428 43.136 86.812 42.992C87.196 42.848 87.448 42.56 87.568 42.128C87.712 41.696 87.784 41.048 87.784 40.184V32.804L90.916 35.036L93.508 31.148ZM139.986 18.512V19.232C139.218 19.328 138.63 19.532 138.222 19.844C137.838 20.132 137.586 20.6 137.466 21.248C137.346 21.896 137.286 22.808 137.286 23.984V33.524C137.286 35.084 137.178 36.512 136.962 37.808C136.746 39.104 136.362 40.22 135.81 41.156C135.186 42.188 134.274 43.004 133.074 43.604C131.874 44.204 130.35 44.504 128.502 44.504C127.398 44.504 126.27 44.372 125.118 44.108C123.966 43.868 122.934 43.4 122.022 42.704C121.254 42.056 120.666 41.324 120.258 40.508C119.85 39.692 119.574 38.732 119.43 37.628C119.286 36.5 119.214 35.168 119.214 33.632V22.328C119.214 21.44 119.142 20.792 118.998 20.384C118.878 19.952 118.626 19.664 118.242 19.52C117.858 19.352 117.282 19.256 116.514 19.232V18.512C117.114 18.536 117.918 18.56 118.926 18.584C119.958 18.608 121.026 18.62 122.13 18.62C123.234 18.62 124.29 18.608 125.298 18.584C126.33 18.56 127.182 18.536 127.854 18.512V19.232C127.038 19.256 126.414 19.352 125.982 19.52C125.574 19.664 125.298 19.952 125.154 20.384C125.01 20.792 124.938 21.44 124.938 22.328V35.9C124.938 37.1 125.01 38.168 125.154 39.104C125.322 40.016 125.586 40.784 125.946 41.408C126.33 42.008 126.846 42.464 127.494 42.776C128.142 43.088 128.946 43.244 129.906 43.244C131.586 43.244 132.894 42.848 133.83 42.056C134.79 41.264 135.462 40.172 135.846 38.78C136.254 37.364 136.458 35.744 136.458 33.92V24.416C136.458 23.096 136.374 22.088 136.206 21.392C136.038 20.672 135.702 20.156 135.198 19.844C134.718 19.532 133.974 19.328 132.966 19.232V18.512C133.422 18.536 134.022 18.56 134.766 18.584C135.51 18.608 136.206 18.62 136.854 18.62C137.43 18.62 137.994 18.608 138.546 18.584C139.122 18.56 139.602 18.536 139.986 18.512ZM165.274 18.044C166.69 18.044 167.782 18.2 168.55 18.512C169.318 18.8 169.978 19.112 170.53 19.448C170.818 19.616 171.046 19.748 171.214 19.844C171.406 19.916 171.586 19.952 171.754 19.952C171.994 19.952 172.162 19.82 172.258 19.556C172.378 19.292 172.474 18.896 172.546 18.368H173.374C173.35 18.824 173.314 19.376 173.266 20.024C173.242 20.648 173.218 21.476 173.194 22.508C173.194 23.54 173.194 24.896 173.194 26.576H172.366C172.27 25.328 171.982 24.116 171.502 22.94C171.022 21.764 170.338 20.804 169.45 20.06C168.586 19.292 167.518 18.908 166.246 18.908C165.094 18.908 164.146 19.232 163.402 19.88C162.658 20.528 162.286 21.428 162.286 22.58C162.286 23.54 162.526 24.368 163.006 25.064C163.486 25.736 164.182 26.396 165.094 27.044C166.03 27.692 167.158 28.472 168.478 29.384C169.63 30.128 170.662 30.872 171.574 31.616C172.486 32.36 173.218 33.2 173.77 34.136C174.322 35.072 174.598 36.188 174.598 37.484C174.598 39.068 174.178 40.376 173.338 41.408C172.522 42.44 171.442 43.22 170.098 43.748C168.754 44.252 167.278 44.504 165.67 44.504C164.182 44.504 162.994 44.36 162.106 44.072C161.218 43.784 160.474 43.484 159.874 43.172C159.346 42.836 158.938 42.668 158.65 42.668C158.41 42.668 158.23 42.8 158.11 43.064C158.014 43.328 157.93 43.724 157.858 44.252H157.03C157.078 43.676 157.102 43.004 157.102 42.236C157.126 41.468 157.138 40.472 157.138 39.248C157.162 38 157.174 36.428 157.174 34.532H158.002C158.098 36.116 158.362 37.604 158.794 38.996C159.25 40.364 159.934 41.468 160.846 42.308C161.782 43.148 163.018 43.568 164.554 43.568C165.394 43.568 166.138 43.424 166.786 43.136C167.458 42.824 167.998 42.368 168.406 41.768C168.814 41.168 169.018 40.424 169.018 39.536C169.018 38.528 168.778 37.652 168.298 36.908C167.842 36.164 167.206 35.468 166.39 34.82C165.598 34.172 164.674 33.512 163.618 32.84C162.49 32.096 161.434 31.352 160.45 30.608C159.466 29.864 158.674 29.012 158.074 28.052C157.498 27.092 157.21 25.952 157.21 24.632C157.21 23.12 157.582 21.884 158.326 20.924C159.094 19.94 160.09 19.22 161.314 18.764C162.562 18.284 163.882 18.044 165.274 18.044ZM210.957 18.512C210.861 19.568 210.789 20.588 210.741 21.572C210.717 22.556 210.705 23.312 210.705 23.84C210.705 24.32 210.717 24.776 210.741 25.208C210.765 25.64 210.789 26 210.813 26.288H209.985C209.745 24.536 209.373 23.156 208.869 22.148C208.365 21.116 207.705 20.396 206.889 19.988C206.097 19.556 205.161 19.34 204.081 19.34H202.605C201.909 19.34 201.381 19.4 201.021 19.52C200.661 19.64 200.421 19.88 200.301 20.24C200.181 20.6 200.121 21.152 200.121 21.896V40.616C200.121 41.36 200.181 41.912 200.301 42.272C200.421 42.632 200.661 42.872 201.021 42.992C201.381 43.112 201.909 43.172 202.605 43.172H204.369C205.449 43.172 206.397 42.944 207.213 42.488C208.053 42.008 208.761 41.204 209.337 40.076C209.937 38.948 210.393 37.424 210.705 35.504H211.533C211.461 36.272 211.425 37.28 211.425 38.528C211.425 39.08 211.437 39.86 211.461 40.868C211.485 41.876 211.557 42.92 211.677 44C210.453 43.952 209.073 43.928 207.537 43.928C206.001 43.904 204.633 43.892 203.433 43.892C202.833 43.892 202.065 43.892 201.129 43.892C200.193 43.892 199.185 43.904 198.105 43.928C197.025 43.928 195.933 43.94 194.829 43.964C193.725 43.964 192.681 43.976 191.697 44V43.28C192.465 43.232 193.041 43.136 193.425 42.992C193.809 42.848 194.061 42.56 194.181 42.128C194.325 41.696 194.397 41.048 194.397 40.184V22.328C194.397 21.44 194.325 20.792 194.181 20.384C194.061 19.952 193.797 19.664 193.389 19.52C193.005 19.352 192.441 19.256 191.697 19.232V18.512C192.681 18.536 193.725 18.56 194.829 18.584C195.933 18.584 197.025 18.596 198.105 18.62C199.185 18.62 200.193 18.62 201.129 18.62C202.065 18.62 202.833 18.62 203.433 18.62C204.537 18.62 205.785 18.62 207.177 18.62C208.593 18.596 209.853 18.56 210.957 18.512ZM205.341 30.824C205.341 30.824 205.341 30.944 205.341 31.184C205.341 31.424 205.341 31.544 205.341 31.544H199.041C199.041 31.544 199.041 31.424 199.041 31.184C199.041 30.944 199.041 30.824 199.041 30.824H205.341ZM206.385 26.072C206.289 27.44 206.241 28.484 206.241 29.204C206.265 29.924 206.277 30.584 206.277 31.184C206.277 31.784 206.289 32.444 206.313 33.164C206.337 33.884 206.397 34.928 206.493 36.296H205.665C205.545 35.456 205.317 34.676 204.981 33.956C204.669 33.236 204.213 32.66 203.613 32.228C203.013 31.772 202.233 31.544 201.273 31.544V30.824C201.993 30.824 202.605 30.68 203.109 30.392C203.613 30.08 204.021 29.684 204.333 29.204C204.669 28.7 204.933 28.172 205.125 27.62C205.317 27.068 205.461 26.552 205.557 26.072H206.385ZM252.638 18.512V19.232C251.87 19.328 251.294 19.532 250.91 19.844C250.526 20.132 250.262 20.6 250.118 21.248C249.998 21.896 249.938 22.808 249.938 23.984V44.072C249.65 44.048 249.35 44.036 249.038 44.036C248.75 44.036 248.438 44.048 248.102 44.072L232.478 24.272V38.096C232.478 39.416 232.55 40.436 232.694 41.156C232.838 41.852 233.15 42.356 233.63 42.668C234.134 42.956 234.914 43.16 235.97 43.28V44C235.514 43.952 234.914 43.928 234.17 43.928C233.426 43.904 232.73 43.892 232.082 43.892C231.53 43.892 230.966 43.904 230.39 43.928C229.814 43.928 229.334 43.952 228.95 44V43.28C229.718 43.16 230.294 42.956 230.678 42.668C231.062 42.38 231.314 41.912 231.434 41.264C231.578 40.592 231.65 39.68 231.65 38.528V22.328C231.65 21.44 231.578 20.792 231.434 20.384C231.314 19.952 231.05 19.664 230.642 19.52C230.258 19.352 229.694 19.256 228.95 19.232V18.512C229.334 18.536 229.814 18.56 230.39 18.584C230.966 18.608 231.53 18.62 232.082 18.62C232.658 18.62 233.21 18.608 233.738 18.584C234.266 18.56 234.746 18.536 235.178 18.512L249.11 35.684V24.416C249.11 23.096 249.038 22.088 248.894 21.392C248.75 20.672 248.426 20.156 247.922 19.844C247.442 19.532 246.674 19.328 245.618 19.232V18.512C246.074 18.536 246.674 18.56 247.418 18.584C248.162 18.608 248.858 18.62 249.506 18.62C250.082 18.62 250.646 18.608 251.198 18.584C251.774 18.56 252.254 18.536 252.638 18.512ZM280.861 18.44L289.609 40.976C289.945 41.84 290.317 42.44 290.725 42.776C291.157 43.088 291.541 43.256 291.877 43.28V44C291.157 43.952 290.305 43.928 289.321 43.928C288.361 43.904 287.389 43.892 286.405 43.892C285.301 43.892 284.257 43.904 283.273 43.928C282.289 43.928 281.509 43.952 280.933 44V43.28C282.157 43.232 282.925 43.028 283.237 42.668C283.573 42.284 283.501 41.48 283.021 40.256L276.901 23.516L277.549 22.58L272.077 36.836C271.549 38.156 271.225 39.236 271.105 40.076C271.009 40.916 271.069 41.564 271.285 42.02C271.525 42.476 271.897 42.8 272.401 42.992C272.929 43.16 273.553 43.256 274.273 43.28V44C273.481 43.952 272.725 43.928 272.005 43.928C271.285 43.904 270.553 43.892 269.809 43.892C269.281 43.892 268.777 43.904 268.297 43.928C267.841 43.928 267.433 43.952 267.073 44V43.28C267.577 43.184 268.093 42.86 268.621 42.308C269.149 41.756 269.665 40.82 270.169 39.5L278.377 18.44C278.761 18.464 279.169 18.476 279.601 18.476C280.057 18.476 280.477 18.464 280.861 18.44ZM283.381 33.632V34.352H272.653L273.013 33.632H283.381ZM330.27 18.512V19.232C329.502 19.328 328.926 19.532 328.542 19.844C328.158 20.132 327.894 20.6 327.75 21.248C327.63 21.896 327.57 22.808 327.57 23.984V44.072C327.282 44.048 326.982 44.036 326.67 44.036C326.382 44.036 326.07 44.048 325.734 44.072L310.11 24.272V38.096C310.11 39.416 310.182 40.436 310.326 41.156C310.47 41.852 310.782 42.356 311.262 42.668C311.766 42.956 312.546 43.16 313.602 43.28V44C313.146 43.952 312.546 43.928 311.802 43.928C311.058 43.904 310.362 43.892 309.714 43.892C309.162 43.892 308.598 43.904 308.022 43.928C307.446 43.928 306.966 43.952 306.582 44V43.28C307.35 43.16 307.926 42.956 308.31 42.668C308.694 42.38 308.946 41.912 309.066 41.264C309.21 40.592 309.282 39.68 309.282 38.528V22.328C309.282 21.44 309.21 20.792 309.066 20.384C308.946 19.952 308.682 19.664 308.274 19.52C307.89 19.352 307.326 19.256 306.582 19.232V18.512C306.966 18.536 307.446 18.56 308.022 18.584C308.598 18.608 309.162 18.62 309.714 18.62C310.29 18.62 310.842 18.608 311.37 18.584C311.898 18.56 312.378 18.536 312.81 18.512L326.742 35.684V24.416C326.742 23.096 326.67 22.088 326.526 21.392C326.382 20.672 326.058 20.156 325.554 19.844C325.074 19.532 324.306 19.328 323.25 19.232V18.512C323.706 18.536 324.306 18.56 325.05 18.584C325.794 18.608 326.49 18.62 327.138 18.62C327.714 18.62 328.278 18.608 328.83 18.584C329.406 18.56 329.886 18.536 330.27 18.512Z" style="fill: var(--logo-fill)"/>
  </symbol>
</svg>
