<svg width="28" height="15" viewBox="0 0 28 15" fill="none" xmlns="http://www.w3.org/2000/svg">
<path d="M14.4189 0.44043C18.2997 0.44043 22.1791 0.44043 26.0599 0.44043C27.315 0.44043 27.9983 1.11374 27.9996 2.3534C28.001 5.08366 28.001 7.81393 27.9996 10.5442C27.9996 11.8058 27.322 12.4695 26.0418 12.4709C25.598 12.4709 25.1527 12.4517 24.7102 12.4777C24.4096 12.4956 24.3053 12.4174 24.2705 12.102C24.116 10.7005 23.053 9.67753 21.6629 9.54862C20.0557 9.39915 18.6253 10.5716 18.5042 12.1623C18.4834 12.438 18.3846 12.4764 18.1425 12.475C15.6573 12.4681 13.1735 12.4681 10.6883 12.475C10.4587 12.475 10.3669 12.4338 10.3474 12.176C10.2375 10.6923 8.9977 9.55822 7.48517 9.52668C6.02829 9.49652 4.74396 10.5977 4.58812 12.0581C4.54916 12.4201 4.42393 12.4969 4.09136 12.4777C3.61687 12.4503 3.1396 12.4764 2.66371 12.4695C1.56862 12.4544 0.856191 11.7633 0.853408 10.6827C0.846451 7.85918 0.845059 5.0343 0.853408 2.21078C0.856191 1.13979 1.58671 0.443172 2.6818 0.441801C6.59462 0.44043 10.5061 0.44043 14.4189 0.44043ZM2.76251 5.70486C2.76251 6.52764 2.76947 7.35043 2.75833 8.17184C2.75555 8.40085 2.7959 8.51741 3.06585 8.49547C3.35945 8.47078 3.65722 8.48312 3.95222 8.49272C4.1025 8.49684 4.21103 8.44747 4.314 8.34325C4.87755 7.78102 5.44527 7.22152 6.01577 6.66615C6.12987 6.55507 6.1744 6.43714 6.17301 6.27944C6.16744 5.16594 6.16466 4.05107 6.1744 2.93757C6.17579 2.71405 6.09787 2.65508 5.88219 2.65783C5.05844 2.66743 4.23469 2.66057 3.40954 2.66194C2.92531 2.66194 2.76251 2.82101 2.76112 3.2996C2.75833 4.10181 2.76112 4.90265 2.76112 5.70486H2.76251ZM21.9996 4.53788C21.9996 5.07955 22.008 5.62121 21.9954 6.16151C21.9899 6.37543 22.0567 6.44948 22.2807 6.44674C23.2839 6.43577 24.2872 6.44537 25.2918 6.44125C25.8916 6.43851 26.2909 6.06414 26.3034 5.47448C26.316 4.86014 26.3174 4.2458 26.3034 3.63145C26.2909 3.05276 25.9055 2.67154 25.3225 2.66468C24.2983 2.65371 23.2728 2.66468 22.2487 2.65783C22.0497 2.65646 21.9954 2.72913 21.9982 2.91426C22.0066 3.45593 22.001 3.99622 22.001 4.53788H21.9996ZM10.9291 4.5612C10.9291 4.01953 10.9235 3.47924 10.9318 2.93757C10.9346 2.74833 10.8971 2.65508 10.6744 2.65783C9.77692 2.66743 8.87942 2.66605 7.98192 2.65783C7.79407 2.65646 7.72032 2.70856 7.72172 2.90329C7.72867 3.99622 7.72867 5.08915 7.72172 6.18208C7.72032 6.38777 7.7899 6.44811 7.99584 6.44537C8.8822 6.43577 9.76996 6.4344 10.6577 6.44537C10.8943 6.44811 10.9374 6.35623 10.9332 6.15054C10.9221 5.61984 10.9291 5.08915 10.9291 4.55845V4.5612ZM15.6865 4.52966C15.6865 3.99896 15.6809 3.46827 15.6893 2.93757C15.6921 2.74833 15.6531 2.65508 15.4319 2.65783C14.5344 2.66743 13.6369 2.66605 12.7394 2.65783C12.5515 2.65646 12.4778 2.70719 12.4792 2.90466C12.4875 3.99759 12.4875 5.09052 12.4792 6.18345C12.4778 6.38914 12.5473 6.44948 12.7533 6.44674C13.6396 6.43714 14.5274 6.43577 15.4152 6.44674C15.6517 6.44948 15.6949 6.3576 15.6907 6.15191C15.6795 5.61024 15.6865 5.06995 15.6865 4.52828V4.52966ZM17.2422 4.5516C17.2422 5.10286 17.2463 5.6555 17.2394 6.20676C17.238 6.37543 17.2867 6.44811 17.4732 6.44674C18.3818 6.43988 19.289 6.43851 20.1977 6.44674C20.3939 6.44811 20.4509 6.38092 20.4495 6.19305C20.4426 5.10012 20.4426 4.00719 20.4495 2.91426C20.4495 2.72913 20.3966 2.65646 20.1991 2.65783C19.3015 2.66605 18.4041 2.66605 17.5066 2.65783C17.295 2.65508 17.2338 2.72776 17.238 2.92797C17.2491 3.46827 17.2422 4.00993 17.2422 4.5516Z" fill="white"/>
<path d="M5.26995 12.4023C5.26577 11.1997 6.2398 10.2356 7.45734 10.237C8.6721 10.237 9.6503 11.2065 9.64752 12.405C9.64474 13.5844 8.6721 14.547 7.47126 14.5593C6.26624 14.5717 5.27273 13.6008 5.26855 12.4037L5.26995 12.4023Z" fill="white"/>
<path d="M23.5799 12.4105C23.5716 13.6077 22.5739 14.5772 21.3703 14.5594C20.1555 14.5402 19.1857 13.5597 19.2024 12.3653C19.2177 11.1832 20.2 10.2329 21.3995 10.237C22.6184 10.2411 23.5883 11.2079 23.5799 12.4105Z" fill="white"/>
</svg>
