<svg width="25" height="19" viewBox="0 0 25 19" fill="none" xmlns="http://www.w3.org/2000/svg">
<path d="M1.98633 16.5457V18.149C1.98633 18.6171 2.37 19.0001 2.83898 19.0001H5.07609C5.54508 19.0001 5.92833 18.6171 5.92833 18.149V16.5457H1.98633Z" fill="white"/>
<path d="M18.208 16.5457V18.149C18.208 18.6171 18.5917 19.0001 19.0607 19.0001H21.2978C21.7668 19.0001 22.1504 18.6171 22.1504 18.149V16.5457H18.2084H18.208Z" fill="white"/>
<path d="M22.1313 6.8172H22.0914C22.0855 6.79263 22.0799 6.76806 22.0731 6.74349L20.8869 2.41036C20.5168 1.05903 19.1268 0 17.7229 0H6.49318C5.0926 0 3.69626 1.05352 3.31428 2.39849L2.08092 6.74095C2.07371 6.76636 2.06777 6.79178 2.0614 6.81762H2.00368C0.901465 6.81762 0 7.71949 0 8.82131V14.7777C0 15.3081 0.43418 15.7419 0.964278 15.7419H23.1707C23.7012 15.7419 24.135 15.3081 24.135 14.7777V8.82131C24.135 7.71907 23.2331 6.81762 22.1313 6.81762V6.8172ZM4.90246 2.84752C5.08411 2.20829 5.82726 1.64743 6.49318 1.64743H17.7229C18.3854 1.64743 19.1196 2.20702 19.2945 2.84498L20.3823 6.81762H3.7752L4.90288 2.84795L4.90246 2.84752ZM3.95643 13.0142C2.99639 13.0142 2.21843 12.2373 2.21843 11.2791C2.21843 10.3209 2.99682 9.54441 3.95643 9.54441C4.91604 9.54441 5.69442 10.3213 5.69442 11.2791C5.69442 12.2369 4.91646 13.0142 3.95643 13.0142ZM15.5919 12.9346H8.67723C8.40603 12.9346 8.1866 12.7152 8.1866 12.4449C8.1866 12.1746 8.40645 11.9552 8.67723 11.9552H15.5919C15.8631 11.9552 16.0825 12.1746 16.0825 12.4449C16.0825 12.7152 15.8626 12.9346 15.5919 12.9346ZM15.5919 10.6043H8.67723C8.40603 10.6043 8.1866 10.3849 8.1866 10.1146C8.1866 9.84433 8.40645 9.6249 8.67723 9.6249H15.5919C15.8631 9.6249 16.0825 9.84391 16.0825 10.1146C16.0825 10.3853 15.8626 10.6043 15.5919 10.6043ZM20.1785 13.0142C19.2185 13.0142 18.4405 12.2373 18.4405 11.2791C18.4405 10.3209 19.2189 9.54441 20.1785 9.54441C21.1382 9.54441 21.9165 10.3213 21.9165 11.2791C21.9165 12.2369 21.1386 13.0142 20.1785 13.0142Z" fill="white"/>
</svg>
