<svg width="448" height="113" viewBox="0 0 448 113" fill="none" xmlns="http://www.w3.org/2000/svg">
<g filter="url(#filter0_d_236_55)">
<path d="M12.588 54.552L12.54 54.12L17.676 53.256L22.476 52.056L26.844 50.616L30.924 48.84L34.62 46.776L38.028 44.376L41.052 41.64L43.788 38.568L46.188 35.208L47.58 32.712H35.436L34.092 34.152L32.22 35.976L31.212 36.744L32.316 37.08L33.18 37.464L34.812 38.28L35.58 38.712L36.828 39.72L37.404 40.248L37.932 40.824L38.124 41.976L37.404 42.888L36.3 43.08L35.34 42.408L35.148 41.976L34.86 41.448L34.14 40.344L33.036 39.24L32.46 38.616L30.972 37.368L30.684 37.176L28.044 39.144L25.692 40.536L23.292 41.88L20.652 43.032L17.964 43.992L17.82 43.56L20.268 42.12L24.828 39.192L26.892 37.608L28.812 35.976L30.588 34.2L32.268 32.424L33.756 30.552L35.1 28.632L36.396 26.568L36.492 26.328L38.94 28.104L39.324 28.968H38.412L37.452 30.264L36.348 31.704H48.156L48.3 31.512L48.348 31.56L49.644 30.408L52.428 32.712L51.132 33.48L50.46 33.768L48.588 36.792L45.9 40.296L42.828 43.464L39.468 46.2L35.772 48.6L31.74 50.568L27.42 52.2L22.764 53.448L17.868 54.168L12.588 54.552ZM10.62 38.952L10.524 38.52L14.364 37.032L17.916 35.4L21.276 33.624L24.444 31.608L27.372 29.448L30.108 27.096L32.556 24.552L34.86 21.864L36.876 18.936L37.98 17.064H26.652L26.22 17.64L24.54 19.32L23.196 20.52L24.108 20.76L24.924 21.048L25.788 21.384L26.508 21.768L27.228 22.152L27.948 22.632L28.524 23.112L29.1 23.64L29.628 24.216L29.772 25.368L29.1 26.28L27.996 26.424L27.036 25.8L26.844 25.32L26.556 24.84L26.268 24.312L25.404 23.304L24.876 22.776L23.628 21.72L22.86 21.144L22.668 21L20.94 22.392L18.972 23.832L16.908 25.128L14.7 26.28L12.492 27.336L12.252 26.952L16.188 23.976L18.012 22.536L19.74 20.952L21.324 19.368L22.812 17.736L24.252 16.008L25.548 14.232L26.7 12.36L27.948 10.248L30.444 11.976L30.78 12.792H29.868L29.1 13.992L27.708 15.864L27.516 16.056H38.556L38.7 15.864H38.796L40.092 14.808L42.828 17.064L41.58 17.88L40.812 18.12L39.276 20.52L36.924 23.544L34.428 26.28L31.644 28.824L28.668 31.128L25.5 33.192L22.092 35.064L18.492 36.6L14.652 37.944L10.62 38.952ZM58.332 51.864V50.856H78.012V45.816H61.884V44.808H78.012V39.528H67.164V41.784H64.14V24.12L67.164 25.656H78.012V21.096H58.812V20.088H78.012V16.104L72.108 16.632L68.844 16.824L65.532 16.968L62.124 17.016V16.584L78.012 13.992L86.508 12.264L91.788 11.112L91.836 11.4L94.524 13.656L94.572 14.376L93.468 13.848L89.772 14.52L84.252 15.384L80.988 15.768V20.088H94.38L96.876 17.592L99.9 20.088V21.096H80.988V25.656H91.836L93.372 24.36L96.156 26.664L94.86 27.672V41.256H91.836V39.528H80.988V44.808H92.556L94.62 42.504L97.116 44.808V45.816H80.988V50.856H95.1L97.644 48.312L100.668 50.856V51.864H58.332ZM67.164 38.472H78.012V33.192H67.164V38.472ZM67.164 32.184H78.012V26.664H67.164V32.184ZM80.988 38.472H91.836V33.192H80.988V38.472ZM80.988 32.184H91.836V26.664H80.988V32.184ZM131.244 46.2L130.38 45.528L130.044 44.808L129.66 44.136L129.276 43.512L128.796 42.84L127.74 41.592L127.164 40.968L125.868 39.768L125.052 39.192L125.292 38.76L127.116 39.432L128.028 39.816L128.124 39.912L129.708 38.664L131.388 37.224L133.02 35.688L134.556 34.008L135.996 32.184L136.14 31.992L135.708 31.368L133.98 28.008L132.444 24.264L131.244 20.184L130.812 18.072H112.86V27.96L112.716 29.832L112.524 31.656L112.14 33.432L111.612 35.064L110.94 36.648L110.268 38.136L109.356 39.528L108.396 40.776L107.244 41.928L105.996 42.936L105.66 42.6L106.524 41.352L107.244 40.008L107.916 38.664L108.54 37.32L108.972 35.928L109.356 34.44L109.644 32.904L109.788 31.32L109.884 29.64V15.576L112.86 17.064H130.668L130.428 15.912L130.044 11.592L129.996 10.728L133.02 11.208L133.788 11.688L133.116 12.12L133.404 15.432L133.74 17.064H141.612L144.156 14.568L147.132 17.064V18.072H133.932L134.172 19.464L135.276 23.256L136.668 26.712L137.964 29.16L138.54 28.248L139.644 26.04L140.652 23.784L141.756 20.952L144.444 22.344L144.972 23.112L144.012 23.304L143.292 24.936L142.044 27.336L140.652 29.592L139.356 31.416L140.076 32.424L141.852 34.536L143.676 36.072L145.26 36.936L146.652 30.936H147.132L146.652 37.224L147.708 37.704L148.188 38.76L147.708 39.816L146.652 40.248L144.252 39.816L141.948 38.52L139.74 36.696L137.676 34.248L137.34 33.816L135.948 35.304L134.124 36.888L132.252 38.28L130.236 39.48L128.652 40.152L129.612 40.776L130.38 41.352L131.052 41.928L131.724 42.552L132.396 43.272L132.924 43.992L133.068 45.144L132.444 46.056L131.244 46.2ZM106.956 51.912L106.14 51.144V49.992L106.86 49.128L106.908 49.224L107.004 49.416L107.052 49.56L107.1 49.704L107.148 49.752L107.196 49.896L107.436 50.376L107.484 50.472V50.52C107.548 50.584 107.58 50.632 107.58 50.664L107.82 51.144V51.24L108.012 51.672L108.156 51.912H106.956ZM108.156 51.912L107.34 50.136V50.088L107.196 49.896V49.848L106.86 49.128L107.58 48.84L108.3 48.456L108.924 48.024L109.548 47.448L110.172 46.728L110.652 45.912L111.228 44.952L111.708 43.896L112.236 42.696L112.62 41.352L113.052 41.4L113.004 42.84L112.908 44.184L112.668 45.48L112.332 46.68L111.9 47.784L111.372 48.792L110.7 49.752L109.98 50.52L109.116 51.288L108.156 51.912ZM121.98 53.256L121.308 53.208L120.684 53.112L120.06 52.872L119.484 52.584L118.956 52.152L118.62 51.672L118.284 51.096L118.044 50.472L117.948 49.848V49.224V40.008L120.924 40.44L121.692 40.968L120.924 41.448V49.512L120.972 49.752L121.068 49.992L121.164 50.04L121.26 50.088L121.404 50.136L121.644 50.184H121.98H136.668L138.108 43.944H138.636L138.108 50.184L138.972 50.808L139.596 51.768L138.972 52.632L138.108 53.256H121.98ZM118.908 34.2H124.956V28.68H118.908V34.2ZM115.932 37.752V26.136L118.908 27.672H124.956L126.492 26.376L129.276 28.68L128.028 29.688V36.744H124.956V35.208H118.908V37.752H115.932ZM147.66 50.616L146.508 50.52L145.74 49.704L145.5 48.84L145.212 48.024L144.828 47.208L144.396 46.392L143.148 44.808L142.476 44.04L140.7 42.456L139.692 41.688L139.932 41.256L141.132 41.736L142.332 42.216L143.388 42.84L144.396 43.512L145.308 44.184L146.124 45L146.844 45.864L147.564 46.728L148.14 47.736L148.62 48.744L148.524 49.896L147.66 50.616ZM114.876 23.4V22.344H124.908L126.972 20.088L129.516 22.344V23.4H114.876ZM140.124 16.344L139.164 15.72L139.02 15.336L138.828 14.952L138.636 14.568L138.396 14.184L137.724 13.368L137.292 12.936L136.332 12.072L135.708 11.832L135.852 11.4L136.572 11.592L137.244 11.688L137.868 11.88L138.54 12.024L139.116 12.264L139.692 12.552L140.268 12.888L140.748 13.272L141.276 13.656L141.708 14.088L141.9 15.24L141.276 16.2L140.124 16.344ZM162.876 53.88V23.112L165.948 24.648H183.564L185.052 23.4L187.836 25.656L186.588 26.664V36.216H183.564V34.2H165.948V40.248H186.588L188.124 39L190.86 41.256L189.612 42.264V53.88H186.588V50.856H165.948V53.88H162.876ZM165.948 49.848H186.588V41.256H165.948V49.848ZM165.948 33.192H183.564V25.656H165.948V33.192ZM155.196 25.992L154.236 25.416L153.948 24.312L154.524 23.352L155.148 22.92L155.724 22.44L156.252 21.96L156.732 21.288L157.164 20.568L157.596 19.752L157.932 18.792L158.508 16.632L158.604 15.384H159.084L159.276 16.632L159.324 17.304H174.012V10.824L176.988 11.352L177.756 11.88L176.988 12.264V17.304H192.636L192.78 17.112L192.828 17.16L194.172 16.008L196.908 18.312L195.66 19.08L194.7 19.464L193.26 21.048L191.532 22.632L190.86 23.16L190.284 23.784L189.948 23.496L190.428 22.776L191.724 19.992L192.444 18.312H159.372V19.032L159.276 20.184L159.036 21.288L158.7 22.248L158.316 23.256L157.788 24.12L157.116 24.984L156.348 25.752L155.196 25.992ZM234.444 53.4V51.864L229.356 51.096V50.328H234.444L234.78 50.28L235.596 50.184L235.932 50.136L236.604 49.896L237.276 49.56L237.612 49.32L237.948 49.08L238.044 48.84L238.38 47.928L238.716 46.392L239.052 44.232L239.34 41.592L239.532 38.424L239.724 34.728L239.868 30.504L239.964 25.848V21.096H227.868L227.1 23.016L226.236 25.032L225.228 26.904L224.22 28.68L223.02 30.312L221.772 31.848L221.436 31.56L222.972 28.008L224.46 24.312L225.084 22.296L226.236 18.024L226.668 15.864L227.1 13.464L227.484 11.256H227.436L227.58 10.536L230.508 11.544L231.132 12.12L230.316 12.456L229.98 13.992L229.356 16.392L228.636 18.744L228.204 20.088H240.012L241.5 18.84L244.284 21.096L242.988 21.912L242.94 25.848L242.844 30.6L242.748 34.872L242.556 38.616L242.364 41.88L242.076 44.664L241.692 46.92L241.26 48.792L240.684 50.184L239.82 51.432L239.388 51.768L238.38 52.392L237.852 52.632L237.324 52.872L236.748 53.064L236.172 53.208L235.02 53.352L234.444 53.4ZM204.348 52.488V18.744L207.372 20.28H209.484L209.628 19.704L209.772 18.648L209.964 17.688L210.156 16.68L211.308 11.256L211.5 10.632L214.284 11.976L214.812 12.648L213.9 12.888L212.268 16.392L210.876 19.08L210.348 19.992L210.156 20.28H216.444L217.98 19.032L220.716 21.288L219.468 22.296V50.904H216.444V47.784H207.372V52.488H204.348ZM207.372 46.728H216.444V34.008H207.372V46.728ZM207.372 33H216.444V21.288H207.372V33ZM223.308 34.728V33.72H231.66L234.156 31.176L237.18 33.72V34.728H223.308ZM274.236 52.68L273.564 52.632L272.94 52.536L272.364 52.296L271.74 52.008L271.26 51.624L270.78 51.096L270.492 50.52L270.348 49.944L270.252 49.32L270.204 48.648V26.04L268.476 27L266.556 27.864L266.364 27.48L267.948 26.184L269.388 24.936L270.684 23.688L271.884 22.392L272.94 21.048L273.804 19.704L274.572 18.264L275.196 16.776L275.724 15.288L275.868 14.568H267.996V13.56H287.1L288.636 12.264L291.42 14.568L290.172 15.336H290.076L290.028 16.392L289.884 17.448L289.788 18.36L289.644 19.272L289.452 20.04L289.212 20.76L288.972 21.432L288.684 22.008L288.348 22.584L287.964 23.064L287.484 23.496L287.052 23.88L286.524 24.168L286.044 24.456L285.468 24.696L284.892 24.888L284.316 25.032L283.692 25.128H283.068V23.64L278.076 22.872V22.104H283.068L283.452 22.056L283.788 22.008L284.46 21.912L284.7 21.768L285.228 21.432L285.468 21.24L285.756 21L285.996 20.712L286.236 20.232L286.38 19.896L286.524 19.32L286.62 18.648L286.764 17.976L286.86 17.112L286.956 16.104L287.052 15.096V14.568H278.94L278.46 16.152L277.692 17.88L276.78 19.464L275.772 21L274.572 22.392L273.276 23.736L271.788 24.936L270.636 25.704L273.18 26.952H287.436L288.924 25.704L291.708 28.008L290.46 28.968V40.968H287.436V38.712H273.18V48.648L273.228 48.936L273.276 49.368L273.324 49.464L273.372 49.512H273.42L273.516 49.56L273.66 49.608L273.9 49.656L274.236 49.704H290.124L291.612 43.368H292.14L291.612 49.704L292.524 50.232L293.1 51.192L292.524 52.056L291.612 52.68H274.236ZM250.188 52.2L249.804 52.008L250.764 49.176L251.244 47.784L252.012 45.048L252.588 42.216L252.78 40.872L252.924 39.48L253.02 38.328L253.116 37.56L256.044 38.376L256.764 38.952L255.9 39.384L255.804 39.912L255.468 41.4L255.036 42.84L254.556 44.232L254.076 45.72L252.732 48.408L252.012 49.752L251.148 51L250.188 52.2ZM257.676 53.88V33.816L255.42 34.296L252.348 34.872L251.82 34.968L251.388 35.88L250.764 35.16L249.948 32.184L253.5 31.944L254.508 31.848L261.036 20.952L263.964 15.96L264.204 15.528L266.652 17.304L267.036 18.12H266.124L261.996 23.976L258.204 28.92L255.756 31.752L256.524 31.656L258.06 31.512L259.548 31.368L260.988 31.224L262.524 31.08L263.964 31.032H264.252L264.06 30.504L263.724 29.736L263.34 28.92L262.524 27.432L262.092 26.664L261.516 25.992L261.804 25.656L263.388 26.664L264.108 27.288L264.78 27.96L265.404 28.68L266.028 29.496L266.556 30.36L267.036 31.32L267.516 32.28L267.9 33.336L267.756 34.44L266.844 35.208L265.692 35.016L264.972 34.104L264.78 33.144L264.588 32.232L264.492 31.848L262.716 32.424L261.324 32.856L260.652 33V53.88H257.676ZM266.604 47.832L265.5 47.592L264.828 46.584L264.492 44.472L264.252 43.464L263.964 42.456L263.676 41.496L263.34 40.536L262.188 37.896L261.66 37.08L261.996 36.744L262.764 37.416L263.58 38.088L264.252 38.856L264.876 39.72L265.5 40.632L266.076 41.592L266.556 42.6L266.988 43.704L267.42 44.808L267.756 46.008L267.564 47.16L266.604 47.832ZM256.764 25.848L255.612 25.8L254.796 24.984L254.556 24.264L254.316 23.544L253.98 22.824L253.596 22.104L252.636 20.76L252.156 20.04L250.86 18.744L250.092 18.12L250.332 17.736L252.204 18.504L253.02 18.984L253.836 19.512L254.076 19.704L258.06 11.448L258.396 10.728L258.588 10.248L261.132 11.976L261.564 12.792H260.556L258.588 15.528L257.244 17.208L255.804 18.888L254.556 20.04L255.324 20.712L255.996 21.432L256.572 22.2L257.148 23.016L257.628 23.88L257.58 25.032L256.764 25.848ZM273.18 37.704H278.796V28.008H273.18V37.704ZM281.82 37.704H287.436V28.008H281.82V37.704ZM298.092 29.16V28.152H318.012V23.64H308.412V25.656H305.388V11.016L308.412 12.552H330.588L332.124 11.304L334.86 13.56L333.612 14.568V25.656H330.588V23.64H320.988V28.152H336.348L338.412 25.944L340.908 28.152V29.16H298.092ZM297.9 53.064L297.756 52.632L302.22 49.992L304.764 48.216L306.924 46.392L307.932 45.432L308.796 44.472L309.612 43.512L309.708 43.416L311.916 45.48L312.156 46.344L311.196 46.152L309.756 47.448L308.508 48.36L307.26 49.224L305.916 49.992L304.524 50.76L302.94 51.48L301.356 52.056L299.676 52.584L297.9 53.064ZM316.956 54.36V52.872L311.964 52.104V51.384H316.956L317.292 51.336L317.532 51.288L317.724 51.192L317.868 51.096L317.916 50.856L317.964 50.616L318.012 50.328V40.488H308.892V42.024H305.916V31.704L308.892 33.192H330.108L331.596 31.992L334.38 34.2L333.084 35.208V41.784H330.108V40.488H320.988V50.328L320.94 50.952L320.844 51.624L320.652 52.2L320.364 52.776L319.932 53.304L319.404 53.736L318.828 54.024L318.252 54.216L317.628 54.312L316.956 54.36ZM308.892 39.528H330.108V34.2H308.892V39.528ZM338.22 52.872L337.068 52.536L334.284 50.136L330.876 47.688L325.692 44.088L325.836 43.704L327.468 44.184L330.492 45.384L331.836 46.008L334.476 47.352L337.98 49.464L338.988 50.184L339.516 51.192L339.228 52.296L338.22 52.872ZM308.412 22.632H330.588V18.6H308.412V22.632ZM308.412 17.592H330.588V13.56H308.412V17.592ZM379.26 51.72L373.356 51.528L368.508 51.048L364.428 50.136L361.164 48.888L358.62 47.256L356.7 45.24L355.404 42.888L354.588 40.344L354.444 38.856L354.252 39.768L353.772 41.352L352.668 44.232L352.092 45.576L350.796 48.024L349.356 50.184L349.26 50.328L349.5 51.336L348.588 51.192L346.092 49.512L347.916 47.544L348.684 46.584L350.988 43.368L354.204 37.896L354.3 37.944L354.252 37.512L354.636 37.416L355.644 40.008L356.748 42.216L358.14 44.04L358.524 44.376L363.036 40.776L365.58 38.52L367.884 36.264L370.044 34.008L372.06 31.608L373.836 29.16L375.468 26.664L376.908 24.072L377.628 22.632H349.884V21.624H364.476V11.784L367.5 12.264L368.268 12.792L367.5 13.272V21.624H378.108L378.204 21.432L378.3 21.48L379.596 20.328L382.38 22.632L381.084 23.4L380.508 23.64L379.452 25.512L377.772 28.104L375.852 30.648L373.836 33.096L371.628 35.448L369.228 37.704L366.588 39.816L363.9 41.832L360.924 43.752L359.004 44.808L359.916 45.576L362.172 46.728L365.052 47.64L368.796 48.216L373.5 48.552L379.212 48.504L386.076 48.168L388.812 47.976L386.22 51.48L379.26 51.72ZM404.172 53.88V52.344L400.14 51.624V50.856H404.172L404.508 50.808L404.748 50.76L404.988 50.712L405.228 50.616L405.42 50.52L405.564 50.376L405.756 50.184L405.9 49.992L406.044 49.8L406.524 48.504L406.716 47.352L407.004 45.912L407.244 44.136L407.388 42.168L407.532 40.008L407.628 37.512L407.676 34.824L407.724 31.896V31.176H407.676V29.16H402.3L402.252 30.648L401.916 34.008L401.484 37.08L400.86 40.008L400.092 42.792L399.132 45.384L398.028 47.784L396.78 49.896L395.34 51.864L393.756 53.496L393.42 53.208L394.524 51.288L395.628 49.224L396.492 47.064L397.308 44.712L398.028 42.216L398.556 39.576L398.94 36.744L399.228 33.72L399.372 30.504V20.616H394.332V19.608H401.916V10.776L404.892 11.304L405.66 11.784L404.892 12.216V19.608H408.444L410.94 17.064L414.012 19.608V20.616H402.396V27.144L402.348 28.152H407.676L409.212 26.904L411.996 29.16L410.7 29.976V31.896V34.824L410.652 37.656L410.556 40.104L410.412 42.408L410.268 44.472L410.028 46.296L409.74 47.976L409.404 49.368L408.972 50.52L408.732 51.144L408.444 51.72L408.06 52.152L407.628 52.632L407.1 53.016L406.572 53.304L405.996 53.592L405.372 53.736L404.796 53.832L404.172 53.88ZM417.516 53.88V30.744L414.348 31.512L412.044 31.896L411.9 31.464L418.284 28.824L422.316 26.952L426.156 24.936L429.852 22.68L431.58 21.48L432.348 22.632L433.452 23.88L433.5 24.744L432.588 24.36L429.324 26.136L425.292 28.056L424.524 28.344L425.052 30.696L425.916 33.768L426.828 36.552L427.596 38.568L430.716 33.864L431.82 32.136L432.732 30.504L432.828 30.36L435.228 32.232L435.564 33.096L434.556 33.048L431.772 36.024L429.18 38.376L427.98 39.384L429.036 41.592L430.332 43.704L431.724 45.624L433.212 47.256L434.844 48.744L437.484 50.568L434.7 52.728L432.78 51.144L431.004 49.272L429.468 47.256L428.124 45.048L426.924 42.552L425.916 40.008L425.052 37.128L424.476 34.056L424.044 30.84L423.948 28.584L421.02 29.688L420.54 29.88V53.88H417.516ZM412.62 28.296L412.284 28.008L413.964 24.696L414.684 23.064L416.028 19.752L416.556 18.024L416.988 16.296L417.42 14.568L417.756 12.84L418.092 10.536L420.972 11.544L421.644 12.072L420.732 12.456L420.54 13.416L420.06 15.288L419.436 17.064L418.716 18.84L418.62 19.08H431.1L433.644 16.584L436.668 19.08V20.088H418.188L417.084 22.248L416.172 23.88L415.068 25.416L413.964 26.904L412.62 28.296ZM71.5 88.64C69.98 88.64 68.5267 88.4 67.14 87.92C65.8867 87.52 64.46 86.8267 62.86 85.84C61.2067 84.8267 59.82 84.1067 58.7 83.68C57.4467 83.2267 56.1267 83 54.74 83C51.5933 83 48.7267 84.36 46.14 87.08L45.5 86.48C46.78 84.6933 48.2867 83.32 50.02 82.36C51.7533 81.3733 53.58 80.88 55.5 80.88C57.02 80.88 58.4867 81.12 59.9 81.6C61.1267 82 62.54 82.6933 64.14 83.68C65.7933 84.6933 67.18 85.4 68.3 85.8C69.5533 86.28 70.8733 86.52 72.26 86.52C75.4333 86.52 78.3 85.1467 80.86 82.4L81.5 83C80.2467 84.7867 78.74 86.1733 76.98 87.16C75.2467 88.1467 73.42 88.64 71.5 88.64ZM108.1 102.52V101.24L103.94 100.64V100H108.1L108.38 99.96L108.58 99.92H108.7L108.74 99.88L108.86 99.8L108.9 99.6L108.94 99.4L108.98 99.16V92.88H85.86V92.08H108.98V88.84L111.46 89.24L112.1 89.68L111.46 90.04V92.08H116.5L118.62 89.96L121.14 92.08V92.88H111.46V99.16L111.42 99.68L111.34 100.2L111.18 100.72L110.94 101.2L110.58 101.6L110.14 102L109.66 102.24L109.18 102.4L108.66 102.48L108.1 102.52ZM98.62 100.4L97.86 99.8L97.62 99.16L96.94 97.96L96.54 97.4L95.58 96.24L93.82 94.52L93.06 94.04L93.26 93.68L94.94 94.28L95.78 94.68L96.46 95.12L97.22 95.64L97.86 96.12L99.1 97.28L100.1 98.6L100.18 99.56L99.58 100.32L98.62 100.4ZM88.34 90.76L87.86 90.16L87.18 87.72L87.62 87.64L89.18 87.56L92.26 87.32L93.42 87.2V82.24H87.54V81.4H98.46L100.58 79.28L103.06 81.4V82.24H95.94V86.96L96.86 86.84L98.38 86.68L101.46 86.36L103.02 86.24L103.1 86.6L101.62 87.16L98.66 88.04L95.62 88.76L94.1 89.12L89.42 89.92L88.74 90.04L88.34 90.76ZM104.34 88.96V79.92L106.86 81.16H115.26L116.5 80.12L118.82 82.04L117.78 82.84V88.76H115.26V87.28H106.86V88.96H104.34ZM106.86 86.44H115.26V82.04H106.86V86.44ZM111.9 79.28V78.04H90.9V77.2H111.9V73.84H86.7V73H111.9V69.64H91.3V68.8H111.9L113.14 67.72L115.46 69.64L114.42 70.48V73H116.46L118.18 71.08L120.3 73V73.84H114.42V79.28H111.9ZM138.74 102.72L138.5 102.44L140.1 100.84L141.5 99.16L142.74 97.36L143.86 95.4L144.7 93.32L145.46 91.12L146.02 88.76L146.38 86.24L146.54 83.6L146.62 80.8V75.52H141.38V74.68H148.46V66.68L150.98 67.12L151.62 67.52L150.98 67.92V74.68H156.86L158.98 72.56L161.5 74.68V75.52H149.14V80.8L149.06 82.24H156.3L157.58 81.16L159.86 83.08L158.82 83.72L158.78 85.56L158.7 88.2L158.54 90.64L158.34 92.76L158.1 94.64L157.74 96.28L157.38 97.68L156.86 98.92L156.22 99.88L155.38 100.64L154.54 101.08L153.66 101.48L153.18 101.64L152.3 101.84L151.78 101.92L151.34 101.96L150.86 102V100.72L147.5 100.08V99.44H150.86L151.5 99.4L151.86 99.36L152.82 99.12L153.14 99L153.74 98.72L154.06 98.52L154.3 98.28L154.58 97.72L154.98 96.88L155.3 95.72L155.62 94.2L155.86 92.48L156.02 90.44L156.18 88.08L156.26 85.52L156.3 83.08H149.02L148.98 83.72L148.62 86.56L148.06 89.2L147.3 91.72L146.38 94.04L145.22 96.16L143.9 98.12L142.38 99.88L140.66 101.44L138.74 102.72ZM127.14 102.4V88.52L129.62 89.8H135.94L137.22 88.76L139.5 90.64L138.46 91.48V101.56H135.94V99.88H129.62V102.4H127.14ZM129.62 99.04H135.94V90.64H129.62V99.04ZM127.14 85.6V84.76H135.06L136.78 82.84L138.9 84.76V85.6H127.14ZM127.14 80.56V79.72H135.06L136.78 77.8L138.9 79.72V80.56H127.14ZM125.86 75.52V74.68H137.18L138.9 72.76L140.98 74.68V75.52H125.86ZM127.14 70.48V69.64H134.26L136.34 67.52L138.9 69.64V70.48H127.14ZM171.74 101.12V69.2L174.26 70.48H192.74V70.28L194.02 69.2L196.3 71.08L195.26 71.96V101.12H192.74V97.36H174.26V101.12H171.74ZM174.26 96.52H192.74V83.92H174.26V96.52ZM174.26 83.08H192.74V71.32H174.26V83.08ZM222.26 102.4V93.56H214.26V92.72H222.26V79.72L221.1 81.64L219.5 84.04L217.82 86.28L216.02 88.48L214.18 90.48L212.18 92.36L210.06 94.12L207.82 95.68L205.54 97.08L205.3 96.76L207.38 95.04L209.34 93.24L211.18 91.36L212.98 89.4L214.66 87.32L216.26 85.16L217.74 82.88L219.18 80.52L220.5 78L221.22 76.36H206.26V75.52H222.26V66.48L224.74 66.92L225.38 67.32L224.74 67.68V75.52H236.1L238.18 73.4L240.74 75.52V76.36H224.74V76.56L227.34 80.12L228.86 82.04L230.38 83.88L231.98 85.64L233.62 87.28L235.3 88.8L237.02 90.24L238.82 91.56L241.38 93.36L239.1 95.12L237.22 93.68L235.42 92.12L233.7 90.48L232.06 88.76L230.5 86.92L229.02 84.96L227.62 82.92L226.3 80.84L225.1 78.56L224.74 77.76V92.72H228.1L230.22 90.64L232.74 92.72V93.56H224.74V102.4H222.26ZM272.62 102V100.72L268.38 100.08V99.44H272.62L272.9 99.4L273.58 99.32L273.86 99.28L274.42 99.08L274.98 98.8L275.26 98.6L275.54 98.4L275.62 98.2L275.9 97.44L276.18 96.16L276.46 94.36L276.7 92.16L276.86 89.52L277.02 86.44L277.14 82.92L277.22 79.04V75.08H267.14L266.5 76.68L265.78 78.36L264.94 79.92L264.1 81.4L263.1 82.76L262.06 84.04L261.78 83.8L263.06 80.84L264.3 77.76L264.82 76.08L265.78 72.52L266.14 70.72L266.5 68.72L266.82 66.88H266.78L266.9 66.28L269.34 67.12L269.86 67.6L269.18 67.88L268.9 69.16L268.38 71.16L267.78 73.12L267.42 74.24H277.26L278.5 73.2L280.82 75.08L279.74 75.76L279.7 79.04L279.62 83L279.54 86.56L279.38 89.68L279.22 92.4L278.98 94.72L278.66 96.6L278.3 98.16L277.82 99.32L277.1 100.36L276.74 100.64L275.9 101.16L275.46 101.36L275.02 101.56L274.54 101.72L274.06 101.84L273.1 101.96L272.62 102ZM247.54 101.24V73.12L250.06 74.4H251.82L251.94 73.92L252.06 73.04L252.22 72.24L252.38 71.4L253.34 66.88L253.5 66.36L255.82 67.48L256.26 68.04L255.5 68.24L254.14 71.16L252.98 73.4L252.54 74.16L252.38 74.4H257.62L258.9 73.36L261.18 75.24L260.14 76.08V99.92H257.62V97.32H250.06V101.24H247.54ZM250.06 96.44H257.62V85.84H250.06V96.44ZM250.06 85H257.62V75.24H250.06V85ZM263.34 86.44V85.6H270.3L272.38 83.48L274.9 85.6V86.44H263.34ZM285.46 102.16L285.26 101.8L286.18 100.92L287.02 99.92L287.74 98.76L288.38 97.4L288.98 95.8L289.42 93.96L289.82 91.88L290.14 89.56L290.34 87.04L290.42 84.76H288.66V86.84H286.14V70.88L288.66 72.16H291.46L291.58 71.84L291.74 71.12L292.18 69.24L292.46 68.08L292.54 67.52L292.66 67.04V66.72L292.78 66.16L295.1 67.24L295.58 67.8L294.7 68.04L293.98 69.32L293.66 69.88L292.54 71.52L292.06 72.08L292.02 72.16H299.26L300.54 71.08L302.82 73L301.78 73.84V86.44H299.26V84.76H296.66V94.36L297.66 94.24H297.7L297.98 92.92L298.14 92.16L298.26 91.4L298.54 90L298.78 88.64L298.82 88L298.94 87.64L301.26 88.6L301.78 89.16L300.98 89.4L300.78 89.88L299.82 91.96L299.14 93.36L298.66 94.16L299.34 94.04L300.02 93.96L301.38 93.76L301.78 93.68L301.66 93.16L301.46 92.36L301.18 91.6L300.98 91.32L301.18 91L301.54 91.24L301.94 91.44L302.34 91.72L302.7 92.08L303.02 92.48L303.38 92.92V92.96L305.06 90.84L306.54 88.6L307.26 87.44L307.86 86.2L308.46 84.96L308.98 83.68L309.42 82.36L309.58 81.8H303.06V80.96H310.22V74.68H304.34V73.84H310.22V66.48L312.74 66.92L313.38 67.32L312.74 67.68V73.84H315.26L317.38 71.72L319.86 73.84V74.68H312.74V80.96H316.5L318.62 78.88L321.14 80.96V81.8H312.78L315.9 86.16L317.46 88.12L319.02 89.84L320.98 91.64L318.7 93.32L317.14 91.48L315.74 89.4L315.02 88.28L313.78 85.84L313.18 84.52L312.74 83.32V97.36H310.22V86.12L309.58 87.2L307.86 89.52L305.9 91.56L304.78 92.48L303.62 93.28L303.54 93.2L303.98 94L304.26 94.56L304.46 95.2L304.3 96.12L303.5 96.72L302.58 96.52L302.02 95.76L301.98 95.16L301.86 94.16L301.54 94.24L300.38 95L297.82 96.36L297.54 97.32L296.94 96.84L296.66 96.16V98.44L296.7 98.64L296.74 98.76L296.78 98.84L296.82 98.88L296.86 98.92L297.02 99L297.22 99.04H297.5H317.66L318.94 93.8H319.34L318.94 99.04L319.66 99.52L320.18 100.32L319.66 101.04L318.94 101.56H297.5L296.94 101.52L296.42 101.44L295.94 101.24L295.46 100.96L295.02 100.68L294.66 100.24L294.42 99.76L294.26 99.24L294.18 98.72L294.14 98.2V84.76H292.9L292.7 87.28L292.38 89.88L291.9 92.32L291.34 94.44L290.66 96.4L289.86 98.08L288.9 99.52L287.82 100.72L286.7 101.56L285.46 102.16ZM288.66 83.92H292.7V78.88H288.66V83.92ZM288.66 78.04H292.7V73H288.66V78.04ZM295.22 83.92H299.26V78.88H295.22V83.92ZM295.22 78.04H299.26V73H295.22V78.04ZM325.94 102.16L325.78 101.8L328.7 100.32L331.26 98.64L333.54 96.76L335.46 94.64L337.06 92.36L338.38 89.8L339.34 87.04L340.06 84L340.46 80.72L340.54 77.6H327.54V76.76H340.58V66.92L343.06 67.32L343.7 67.72L343.06 68.12V76.76H355.7L356.94 75.76L359.26 77.6L358.18 78.24L358.14 80.6L358.06 83.76L357.9 86.64L357.7 89.24L357.42 91.6L357.1 93.76L356.7 95.6L356.18 97.2L355.66 98.56L354.98 99.72L354.62 100.12L354.34 100.52L353.94 100.84L353.5 101.12L353.06 101.4L352.66 101.6L352.14 101.76L351.66 101.88L351.14 101.92L350.66 102V100.72L346.42 100.08V99.44H350.66L350.94 99.4L351.18 99.36L351.46 99.32L351.7 99.24L351.94 99.16L352.14 99.04L352.58 98.72L352.74 98.52L352.9 98.24L353.38 97.48L353.82 96.36L354.26 94.96L354.58 93.28L354.94 91.28L355.18 89.04L355.42 86.48L355.58 83.64L355.66 80.56L355.7 77.6H343.06L342.82 80.92L342.3 84.44L341.38 87.64L340.14 90.64L338.58 93.32L336.66 95.72L334.42 97.76L331.9 99.56L329.06 101L325.94 102.16ZM391.5 88.64C389.98 88.64 388.527 88.4 387.14 87.92C385.887 87.52 384.46 86.8267 382.86 85.84C381.207 84.8267 379.82 84.1067 378.7 83.68C377.447 83.2267 376.127 83 374.74 83C371.593 83 368.727 84.36 366.14 87.08L365.5 86.48C366.78 84.6933 368.287 83.32 370.02 82.36C371.753 81.3733 373.58 80.88 375.5 80.88C377.02 80.88 378.487 81.12 379.9 81.6C381.127 82 382.54 82.6933 384.14 83.68C385.793 84.6933 387.18 85.4 388.3 85.8C389.553 86.28 390.873 86.52 392.26 86.52C395.433 86.52 398.3 85.1467 400.86 82.4L401.5 83C400.247 84.7867 398.74 86.1733 396.98 87.16C395.247 88.1467 393.42 88.64 391.5 88.64Z" fill="white"/>
</g>
<defs>
<filter id="filter0_d_236_55" x="0.523926" y="0.248047" width="446.96" height="112.472" filterUnits="userSpaceOnUse" color-interpolation-filters="sRGB">
<feFlood flood-opacity="0" result="BackgroundImageFix"/>
<feColorMatrix in="SourceAlpha" type="matrix" values="0 0 0 0 0 0 0 0 0 0 0 0 0 0 0 0 0 0 127 0" result="hardAlpha"/>
<feOffset/>
<feGaussianBlur stdDeviation="5"/>
<feComposite in2="hardAlpha" operator="out"/>
<feColorMatrix type="matrix" values="0 0 0 0 0.101961 0 0 0 0 0.101961 0 0 0 0 0.101961 0 0 0 0.25 0"/>
<feBlend mode="normal" in2="BackgroundImageFix" result="effect1_dropShadow_236_55"/>
<feBlend mode="normal" in="SourceGraphic" in2="effect1_dropShadow_236_55" result="shape"/>
</filter>
</defs>
</svg>
