<svg width="32" height="17" viewBox="0 0 32 17" fill="none" xmlns="http://www.w3.org/2000/svg">
<path d="M11.6188 4.0861L18.6116 0H23.0654L19.5311 4.0861H11.6188Z" fill="white"/>
<path d="M0.703386 9.26171C0.774965 9.05035 0.856455 8.85116 0.946205 8.66249L1.23032 8.66581H1.62181C2.14323 8.65917 2.2996 8.66083 2.81607 8.61103C3.07431 8.58503 4.74265 8.25139 4.74265 8.25139L4.77844 7.07729L4.32915 7.14037L4.15295 7.16471C4.03457 7.18021 3.91509 7.19404 3.79561 7.20676C3.55609 7.23166 3.31547 7.25103 3.07486 7.26597C2.68998 7.28865 2.30511 7.29861 1.92078 7.29585C3.44157 5.82076 5.7745 5.57177 7.61518 5.57177H24.6009L27.9222 1.66162H32C32 1.66162 28.9755 8.97566 28.6407 9.72814C28.306 10.4806 27.4332 12.1101 25.4786 12.1101H19.6823L25.3938 17.0001H19.4731L11.0642 12.1101H4.31318C2.51654 12.1101 0.125246 10.9714 0.703386 9.26226V9.26171Z" fill="white"/>
</svg>
