<svg width="138" height="38" viewBox="0 0 138 38" fill="none" xmlns="http://www.w3.org/2000/svg">
<g clip-path="url(#clip0_252_55)">
<path d="M17.6698 33.2486C8.40927 33.2486 0.83252 25.9485 0.83252 17.0259C0.83252 8.10377 8.40927 0.803223 17.6698 0.803223H120.329C129.589 0.803223 137.166 8.10377 137.166 17.0259C137.166 25.9485 129.589 33.2486 120.329 33.2486H17.6698Z" fill="white"/>
<path d="M138 17.0259C137.997 26.3954 130.054 34.0485 120.329 34.0513H35.4579C34.9978 34.0513 34.6248 33.6916 34.6248 33.2485C34.6248 32.8048 34.9978 32.4456 35.4579 32.4456L120.329 32.4453C124.73 32.4449 128.727 30.7122 131.631 27.9151C134.535 25.1165 136.333 21.2653 136.333 17.0259C136.333 12.786 134.534 8.93494 131.631 6.13659C128.727 3.33912 124.73 1.60658 120.329 1.60658H17.6706C13.2702 1.60658 9.27324 3.33912 6.36888 6.13677C3.46562 8.93529 1.66743 12.7863 1.66708 17.0259C1.66743 21.2657 3.46562 25.1167 6.36888 27.9151C9.27324 30.7124 13.2704 32.4449 17.6706 32.4453H26.6829C27.1434 32.4453 27.5163 32.8044 27.5163 33.2483C27.5163 33.6918 27.1432 34.0513 26.6829 34.0513L17.6706 34.051C7.94627 34.0482 0.00308228 26.3951 0 17.0256C0.00289917 7.65587 7.94608 0.00314912 17.6704 0H120.329C130.054 0.00332408 137.997 7.65605 138 17.0259Z" fill="black"/>
<path d="M33.2694 31.4645C33.595 31.7784 33.595 32.287 33.2694 32.6005L28.2378 37.4484C27.9123 37.7617 27.3846 37.7617 27.0592 37.4484C26.7335 37.1345 26.7335 36.6259 27.0592 36.3122L32.0906 31.4643C32.416 31.1512 32.9438 31.1512 33.2694 31.4645Z" fill="black"/>
<path d="M27.43 15.77V20.726H26.422V16.75H24.644V15.77H27.43ZM27.43 20.306C28.088 21.342 29.32 21.818 30.986 21.874C32.54 21.944 35.774 21.902 37.468 21.79C37.342 22.028 37.174 22.518 37.132 22.826C35.55 22.896 32.554 22.924 30.986 22.854C29.138 22.784 27.864 22.294 26.996 21.188C26.38 21.79 25.736 22.392 25.036 23.008L24.49 21.986C25.106 21.538 25.862 20.908 26.52 20.306H27.43ZM24.77 11.178L25.568 10.604C26.436 11.234 27.416 12.2 27.85 12.886L26.982 13.544C26.59 12.844 25.624 11.864 24.77 11.178ZM28.228 11.43H37.244V12.284H28.228V11.43ZM30.188 15.518H35.2V16.218H30.188V15.518ZM32.134 10.24H33.142V11.948H32.134V10.24ZM32.274 14.482H33.086V17.45H32.274V14.482ZM28.732 13.712H36.152V14.552H29.698V21.048H28.732V13.712ZM30.818 17.226H31.602V20.32H30.818V17.226ZM31.238 17.226H34.598V19.774H31.238V19.116H33.814V17.898H31.238V17.226ZM35.774 13.712H36.74V19.928C36.74 20.446 36.656 20.698 36.292 20.866C35.914 21.02 35.34 21.034 34.514 21.034C34.458 20.768 34.318 20.39 34.192 20.124C34.822 20.152 35.368 20.152 35.55 20.138C35.718 20.124 35.774 20.082 35.774 19.914V13.712ZM34.444 12.102L35.438 12.368C35.13 12.942 34.836 13.516 34.57 13.922L33.73 13.684C33.968 13.236 34.29 12.55 34.444 12.102ZM29.978 12.396L30.86 12.172C31.154 12.62 31.434 13.236 31.518 13.656L30.608 13.908C30.524 13.488 30.258 12.872 29.978 12.396ZM41.472 14.818H48.542V15.756H41.472V14.818ZM41.22 21.622H48.724V22.56H41.22V21.622ZM40.744 17.52H49.312V23.134H48.248V18.472H41.766V23.134H40.744V17.52ZM44.958 11.318C43.81 13.026 41.514 15.014 39.12 16.316C38.98 16.078 38.7 15.7 38.462 15.476C40.926 14.23 43.264 12.088 44.37 10.282H45.434C46.946 12.368 49.396 14.314 51.636 15.308C51.37 15.56 51.118 15.924 50.936 16.232C48.738 15.084 46.274 13.11 44.958 11.318ZM55.514 16.764V20.852H54.478V17.73H52.644V16.764H55.514ZM55.514 20.292C56.186 21.314 57.418 21.804 59.07 21.874C60.61 21.916 63.816 21.888 65.496 21.776C65.356 22.014 65.202 22.504 65.146 22.826C63.592 22.882 60.638 22.91 59.07 22.868C57.236 22.784 55.962 22.294 55.052 21.188C54.408 21.79 53.722 22.392 53.008 23.008L52.462 21.958C53.092 21.51 53.89 20.894 54.576 20.292H55.514ZM53.246 11.066L53.946 10.422C54.786 10.856 55.794 11.556 56.27 12.102L55.542 12.816C55.08 12.27 54.1 11.542 53.246 11.066ZM52.7 13.922L53.4 13.236C54.268 13.642 55.332 14.314 55.85 14.86L55.122 15.602C54.632 15.07 53.596 14.356 52.7 13.922ZM56.326 12.578H65.412V13.362H56.326V12.578ZM57.418 15.924H64.418V16.68H57.418V15.924ZM57.418 14.272H64.418V15.028H57.418V14.272ZM57.614 10.898H64.264V11.654H57.614V10.898ZM58.328 18.388V20.04H63.48V18.388H58.328ZM57.362 17.618H64.474V20.81H57.362V17.618ZM71.152 19.102H73.63V19.858H71.152V19.102ZM72.258 17.534H75.38V18.318H72.258V17.534ZM71.572 11.85H79.188V12.648H71.572V11.85ZM71.222 15.224H79.356V16.05H71.222V15.224ZM72.16 13.53H78.754V14.3H72.16V13.53ZM74.82 12.27H75.828V15.588H74.82V12.27ZM74.834 17.534H75.814V22.07C75.814 22.574 75.73 22.84 75.352 22.98C74.988 23.134 74.4 23.148 73.532 23.148C73.49 22.896 73.364 22.518 73.238 22.266C73.868 22.28 74.442 22.28 74.61 22.266C74.778 22.266 74.834 22.224 74.834 22.07V17.534ZM73.7 16.54L74.232 15.924C75.282 16.204 76.668 16.722 77.41 17.156L76.85 17.828C76.15 17.408 74.778 16.862 73.7 16.54ZM72.622 10.562L73.406 10.24C73.756 10.688 74.134 11.29 74.316 11.696L73.49 12.06C73.322 11.654 72.958 11.024 72.622 10.562ZM73.406 19.102H73.574L73.742 19.074L74.316 19.298C73.798 21.02 72.608 22.196 71.278 22.812C71.152 22.602 70.9 22.28 70.704 22.112C71.88 21.636 73.014 20.586 73.406 19.256V19.102ZM78.39 17.954L79.174 18.542C78.418 19.172 77.494 19.886 76.78 20.334L76.206 19.872C76.892 19.368 77.858 18.542 78.39 17.954ZM77.102 10.24L78.04 10.534C77.676 11.094 77.312 11.654 77.004 12.046L76.248 11.766C76.542 11.346 76.906 10.688 77.102 10.24ZM75.786 18.29C76.472 19.928 77.914 21.328 79.622 21.93C79.412 22.112 79.118 22.462 78.978 22.728C77.256 21.958 75.828 20.376 75.1 18.514L75.786 18.29ZM66.728 13.278H71.278V14.272H66.728V13.278ZM68.702 10.24H69.668V23.106H68.702V10.24ZM68.674 13.866L69.318 14.09C68.884 16.302 67.96 19.06 66.98 20.46C66.868 20.194 66.616 19.788 66.448 19.564C67.372 18.304 68.282 15.868 68.674 13.866ZM69.598 15.056C69.906 15.448 71.096 17.24 71.362 17.66L70.774 18.444C70.452 17.73 69.472 16.05 69.122 15.504L69.598 15.056ZM81.834 12.494H86.09V21.65H81.834V20.698H85.11V13.432H81.834V12.494ZM81.204 12.494H82.184V22.77H81.204V12.494ZM81.764 16.386H85.628V17.324H81.764V16.386ZM83.346 10.212L84.48 10.422C84.2 11.29 83.85 12.256 83.57 12.886L82.73 12.676C82.968 12.004 83.234 10.94 83.346 10.212ZM88.078 12.452H92.376V13.432H88.078V12.452ZM92.012 12.452H92.992C92.992 12.452 92.992 12.844 92.992 12.998C92.768 19.424 92.572 21.594 92.012 22.28C91.704 22.686 91.382 22.812 90.892 22.854C90.416 22.91 89.59 22.882 88.806 22.84C88.778 22.532 88.652 22.098 88.456 21.818C89.366 21.888 90.206 21.902 90.528 21.902C90.808 21.902 90.976 21.86 91.13 21.678C91.592 21.174 91.816 18.85 92.012 12.676V12.452ZM88.372 10.184L89.38 10.422C88.862 12.508 88.036 14.566 87.07 15.896C86.888 15.728 86.454 15.434 86.202 15.294C87.154 14.062 87.924 12.13 88.372 10.184ZM87.728 16.092L88.54 15.616C89.338 16.61 90.304 17.968 90.752 18.794L89.856 19.354C89.436 18.5 88.498 17.114 87.728 16.092ZM100.272 10.674H101.434C101.322 12.872 101.112 19.858 95.316 23.008C95.134 22.742 94.784 22.42 94.462 22.182C100.174 19.27 100.174 12.536 100.272 10.674ZM101.392 10.954C101.434 12.046 101.84 19.48 107.608 22.126C107.3 22.364 106.978 22.714 106.81 23.008C100.874 20.166 100.482 12.34 100.384 11.052L101.392 10.954ZM114.538 18.626L114.258 13.194L114.216 11.528H115.77L115.728 13.194L115.448 18.626H114.538ZM115 22.07C114.496 22.07 114.09 21.72 114.09 21.16C114.09 20.6 114.496 20.222 115 20.222C115.49 20.222 115.896 20.6 115.896 21.16C115.896 21.72 115.49 22.07 115 22.07Z" fill="#EF7014"/>
</g>
<defs>
<clipPath id="clip0_252_55">
<rect width="138" height="38" fill="white"/>
</clipPath>
</defs>
</svg>
