<svg width="19" height="23" viewBox="0 0 19 23" fill="none" xmlns="http://www.w3.org/2000/svg">
<path d="M2.79503 0C1.65285 0.00378559 0.72897 0.900971 0.725072 2.01015V16.9494C0.72897 18.0585 1.65285 18.9557 2.79503 18.9595H16.205C17.3471 18.9557 18.271 18.0585 18.2749 16.9494V2.01015C18.271 0.900971 17.3471 0.00378559 16.205 0H2.79503ZM5.39516 2.0417H13.6035C13.7465 2.0417 13.8621 2.154 13.8621 2.29155V2.91995C13.8621 3.05876 13.7465 3.17106 13.6048 3.17106H5.39516C5.25222 3.17106 5.13657 3.05876 5.13657 2.92122V2.29281C5.13657 2.154 5.25222 2.0417 5.39386 2.0417H5.39516ZM4.05416 5.24305H14.9458C15.259 5.24305 15.5111 5.54463 15.5111 5.91814V10.5933C15.5111 10.9669 15.259 11.2684 14.9458 11.2684H4.05416C3.74101 11.2684 3.48892 10.9669 3.48892 10.5933V5.91814C3.48892 5.54463 3.73971 5.24305 4.05416 5.24305ZM4.55574 13.7165C5.19765 13.7165 5.71871 14.2225 5.71871 14.8458C5.71871 15.4692 5.19765 15.9752 4.55574 15.9752C3.91383 15.9752 3.39276 15.4692 3.39276 14.8458C3.39276 14.2225 3.91383 13.7165 4.55574 13.7165ZM14.4443 13.7165C15.0862 13.7165 15.6072 14.2225 15.6072 14.8458C15.6072 15.4692 15.0862 15.9752 14.4443 15.9752C13.8024 15.9752 13.2813 15.4692 13.2813 14.8458C13.2813 14.2225 13.8024 13.7165 14.4443 13.7165ZM3.44604 19.5374L0 23H3.14328L4.50246 21.6347H14.4975L15.8567 23H19L15.554 19.5387H12.4107L13.5828 20.716H5.41985L6.59192 19.5387H3.44864L3.44604 19.5374Z" fill="white"/>
</svg>
