<svg xmlns="http://www.w3.org/2000/svg" width="48.466" height="48.465" viewBox="0 0 48.466 48.465"><g transform="translate(-571 -7000.247)"><path d="M24.233,5.068c6.47,0,7.237.025,9.792.142a13.388,13.388,0,0,1,4.5.834,7.5,7.5,0,0,1,2.786,1.813,7.513,7.513,0,0,1,1.813,2.786,13.414,13.414,0,0,1,.834,4.5c.117,2.555.141,3.321.141,9.792s-.024,7.237-.141,9.792a13.406,13.406,0,0,1-.834,4.5,8.027,8.027,0,0,1-4.6,4.6,13.44,13.44,0,0,1-4.5.834c-2.555.116-3.321.141-9.792.141S17,44.776,14.441,44.66a13.44,13.44,0,0,1-4.5-.834,7.513,7.513,0,0,1-2.786-1.813,7.509,7.509,0,0,1-1.813-2.787,13.406,13.406,0,0,1-.834-4.5c-.117-2.555-.141-3.322-.141-9.792s.024-7.237.141-9.792a13.414,13.414,0,0,1,.834-4.5A7.513,7.513,0,0,1,7.155,7.857,7.5,7.5,0,0,1,9.941,6.044a13.388,13.388,0,0,1,4.5-.834c2.555-.117,3.322-.142,9.792-.142m0-4.366c-6.581,0-7.406.028-9.991.146A17.769,17.769,0,0,0,8.36,1.974a11.871,11.871,0,0,0-4.292,2.8,11.882,11.882,0,0,0-2.8,4.292A17.8,17.8,0,0,0,.146,14.944C.028,17.528,0,18.353,0,24.935s.028,7.406.146,9.991a17.794,17.794,0,0,0,1.126,5.882,11.874,11.874,0,0,0,2.8,4.292A11.871,11.871,0,0,0,8.36,47.9a17.792,17.792,0,0,0,5.882,1.127c2.585.118,3.41.145,9.991.145s7.406-.027,9.991-.145A17.792,17.792,0,0,0,40.106,47.9a12.4,12.4,0,0,0,7.088-7.087,17.794,17.794,0,0,0,1.126-5.882c.118-2.585.146-3.41.146-9.991s-.028-7.407-.146-9.991a17.8,17.8,0,0,0-1.126-5.883,11.882,11.882,0,0,0-2.8-4.292,11.871,11.871,0,0,0-4.292-2.8A17.769,17.769,0,0,0,34.224.848C31.639.73,30.814.7,24.233.7" transform="translate(571 6999.545)" fill="#717071"/><path d="M24.233,12.491A12.443,12.443,0,1,0,36.677,24.934,12.443,12.443,0,0,0,24.233,12.491m0,20.521a8.078,8.078,0,1,1,8.078-8.078,8.078,8.078,0,0,1-8.078,8.078" transform="translate(571 6999.545)" fill="#717071"/><path d="M40.076,12a2.908,2.908,0,1,1-2.908-2.908A2.908,2.908,0,0,1,40.076,12" transform="translate(571 6999.545)" fill="#717071"/></g></svg>