<?xml version="1.0" encoding="UTF-8"?><svg id="_レイヤー_2" xmlns="http://www.w3.org/2000/svg" viewBox="0 0 631 284.33"><defs><style>.cls-1{fill:none;stroke:#000;stroke-miterlimit:10;stroke-width:1.5px;}</style></defs><g id="_レイヤー_1-2"><path d="M60.47,138.14c-.84,2.02-1.73,4.31-2.65,6.88-.93,2.57-1.77,4.94-2.52,7.13-.76,2.19-1.26,3.66-1.51,4.42H11.12c-.25-.17-.53-.44-.82-.82-.3-.38-.44-.69-.44-.95,3.45-3.87,6.98-7.91,10.6-12.12,3.62-4.21,7.07-8.37,10.35-12.49,3.28-4.12,6.1-7.91,8.46-11.36,2.52-3.7,4.14-6.94,4.86-9.72.71-2.78,1.07-5.68,1.07-8.71,0-4.21-1.28-7.74-3.85-10.6-2.57-2.86-5.83-4.29-9.78-4.29-3.28,0-6.14.72-8.58,2.15-2.44,1.43-4.42,2.99-5.93,4.67-1.51,1.68-2.52,2.95-3.03,3.79-.5,0-1.03-.27-1.58-.82-.55-.55-.82-.95-.82-1.2.25-.76.95-2.04,2.08-3.85,1.14-1.81,2.71-3.7,4.73-5.68,2.02-1.98,4.35-3.66,7-5.05,2.65-1.39,5.62-2.08,8.9-2.08,3.95,0,7.55.99,10.79,2.97,3.24,1.98,5.81,4.52,7.7,7.64,1.89,3.11,2.84,6.44,2.84,9.97s-.63,6.86-1.89,9.97c-1.26,3.11-2.99,6.02-5.17,8.71-2.86,3.53-6.04,7.3-9.53,11.3-3.49,4-6.8,7.74-9.91,11.23-3.11,3.49-5.6,6.29-7.45,8.39h24.49c2.44,0,4.44-.78,6-2.33,1.56-1.56,3.01-3.93,4.35-7.13.17-.5.63-.76,1.39-.76.25,0,.67.08,1.26.25.59.17,1.01.34,1.26.5Z"/><path d="M95.56,77.56c5.81,0,10.71,1.81,14.7,5.43,4,3.62,7.02,8.44,9.09,14.45,2.06,6.02,3.09,12.6,3.09,19.75s-1.05,13.74-3.16,19.75c-2.1,6.02-5.16,10.85-9.15,14.51-4,3.66-8.86,5.49-14.58,5.49s-10.35-1.83-14.39-5.49c-4.04-3.66-7.13-8.5-9.28-14.51-2.15-6.01-3.22-12.6-3.22-19.75s1.05-13.74,3.16-19.75c2.1-6.01,5.17-10.83,9.21-14.45,4.04-3.62,8.88-5.43,14.51-5.43ZM96.19,82.1c-3.45,0-6.42,1.58-8.9,4.73-2.48,3.16-4.4,7.38-5.74,12.68-1.35,5.3-2.02,11.19-2.02,17.67s.67,12.26,2.02,17.61c1.34,5.34,3.17,9.61,5.49,12.81,2.31,3.2,4.99,4.8,8.01,4.8,3.7,0,6.77-1.64,9.21-4.92,2.44-3.28,4.27-7.66,5.49-13.13,1.22-5.47,1.83-11.4,1.83-17.8s-.65-12.31-1.96-17.48c-1.31-5.17-3.11-9.3-5.43-12.37-2.32-3.07-4.99-4.61-8.01-4.61Z"/><path d="M152.1,103.31h15.9c.42,0,.63.46.63,1.39,0,1.26-.59,2.48-1.77,3.66h-14.77v32.31c0,6.73,2.73,10.1,8.2,10.1,1.85,0,3.53-.38,5.05-1.14,1.51-.76,2.48-1.3,2.9-1.64.25.08.38.34.38.76,0,.93-.17,1.56-.5,1.89-.59.67-1.5,1.56-2.71,2.65-1.22,1.09-2.67,2.06-4.35,2.9-1.68.84-3.53,1.26-5.55,1.26s-4.15-.38-6.12-1.14c-1.98-.76-3.6-2.1-4.86-4.04-1.26-1.93-1.89-4.67-1.89-8.2v-35.72h-7.19c-.17,0-.3-.15-.38-.44-.08-.29-.13-.52-.13-.69s.25-.57.76-1.2c.5-.63,1.3-1.53,2.4-2.71h4.54v-7.7c.84-.92,1.83-2,2.97-3.22,1.14-1.22,2.17-2.35,3.09-3.41.92-1.05,1.43-1.62,1.51-1.7.33-.34.74-.5,1.2-.5s.69.13.69.38v16.15Z"/><path d="M211.33,102.55c4.46,0,7.83.93,10.1,2.78,2.27,1.85,3.81,4.71,4.61,8.58.8,3.87,1.2,8.79,1.2,14.77v13.63c0,1.85.02,3.58.06,5.17.04,1.6.23,2.9.57,3.91.17.42.78.8,1.83,1.14,1.05.34,2.19.57,3.41.69,1.22.13,2.08.19,2.59.19.25.34.4.93.44,1.77.04.84-.11,1.43-.44,1.77-2.52-.17-4.75-.32-6.69-.44-1.94-.13-4.12-.19-6.56-.19s-4.48.06-6.37.19c-1.89.13-4.1.27-6.63.44-.34-.34-.48-.92-.44-1.77.04-.84.19-1.43.44-1.77.5,0,1.35-.06,2.52-.19,1.18-.13,2.31-.36,3.41-.69,1.09-.34,1.68-.71,1.77-1.14.33-1.01.52-2.31.57-3.91.04-1.6.06-3.32.06-5.17v-12.37c0-5.13-.34-9.15-1.01-12.05-.67-2.9-1.89-4.99-3.66-6.25-1.77-1.26-4.25-1.89-7.45-1.89-1.51,0-3.18.49-4.99,1.45-1.81.97-3.39,2-4.73,3.09-1.35,1.09-2.02,1.85-2.02,2.27v25.75c0,1.85.02,3.58.06,5.17.04,1.6.23,2.9.57,3.91.17.42.78.8,1.83,1.14,1.05.34,2.19.57,3.41.69,1.22.13,2.08.19,2.59.19.25.34.4.93.44,1.77.04.84-.11,1.43-.44,1.77-2.52-.17-4.75-.32-6.69-.44-1.94-.13-4.12-.19-6.56-.19s-4.48.06-6.37.19c-1.89.13-4.1.27-6.63.44-.34-.34-.49-.92-.44-1.77.04-.84.19-1.43.44-1.77.5,0,1.34-.06,2.52-.19,1.18-.13,2.31-.36,3.41-.69,1.09-.34,1.68-.71,1.77-1.14.33-1.01.52-2.31.57-3.91.04-1.6.06-3.32.06-5.17v-54.52c0-.84-.02-1.93-.06-3.28-.04-1.34-.23-2.4-.57-3.16-.34-.92-1.24-1.51-2.71-1.77-1.47-.25-3.05-.38-4.73-.38-.08,0-.15-.52-.19-1.58-.04-1.05.06-1.62.32-1.7,3.11-.34,6.14-.95,9.09-1.83,2.94-.88,5.72-1.91,8.33-3.09.33,0,.65.23.95.69.29.46.44.91.44,1.33-.93,3.7-1.39,7.28-1.39,10.73v27.89c0,.17.13.25.38.25.08,0,.21-.08.38-.25.84-.92,2.21-2.1,4.1-3.53,1.89-1.43,3.98-2.71,6.25-3.85s4.37-1.7,6.31-1.7Z"/><path d="M10.22,257.97c1.18-3.05,2.27-5.89,3.27-8.51,1-2.62,2.13-5.53,3.41-8.74,1.28-3.21,2.57-6.51,3.88-9.91,1.31-3.4,2.57-6.65,3.79-9.77,1.21-3.12,2.29-5.86,3.22-8.23.25-.5.79-1.06,1.64-1.68.84-.62,1.48-.93,1.92-.93.12,0,.2.02.23.05.03.03.11.08.23.14l18.6,48.79c1.37,3.61,2.15,5.61,2.34,5.98.31.69.92,1.28,1.82,1.78.9.5,1.81.86,2.71,1.07.9.22,1.48.33,1.73.33.25.31.34.79.28,1.45-.06.65-.13,1.04-.19,1.17-1.81-.13-3.43-.23-4.86-.33-1.43-.09-3.15-.14-5.14-.14-2.12,0-3.88.05-5.28.14-1.4.09-3.16.2-5.28.33-.25-.25-.36-.68-.33-1.31.03-.62.17-1.06.42-1.31.56,0,1.43-.11,2.62-.33,1.18-.22,1.99-.51,2.43-.89.25-.25.37-.68.37-1.31,0-.56-.2-1.51-.61-2.85-.41-1.34-.92-2.85-1.54-4.53-.62-1.68-1.25-3.32-1.87-4.91-.62-1.59-1.34-3.41-2.15-5.47-.25-.25-.44-.37-.56-.37-.94-.06-2.09-.09-3.46-.09h-5.61c-1.87,0-3.46.02-4.77.05-1.31.03-2.99.11-5.05.23-.06,0-.22.09-.47.28-.93,2.49-1.73,4.6-2.38,6.31-.65,1.71-1.23,3.32-1.73,4.81-.56,1.56-.92,2.87-1.08,3.93-.16,1.06-.23,1.9-.23,2.52,0,.69.48,1.23,1.45,1.64.97.41,1.96.67,2.99.79,1.03.13,1.67.19,1.92.19.12.13.22.51.28,1.17.06.65.03,1.14-.09,1.45-1.18-.06-2.2-.13-3.04-.19-.84-.06-1.68-.12-2.52-.19-.84-.06-1.95-.09-3.32-.09s-2.52.03-3.46.09c-.93.06-1.87.12-2.8.19-.93.06-2.12.12-3.55.19-.12-.13-.19-.51-.19-1.17s.06-1.14.19-1.45c.56,0,1.51-.14,2.85-.42,1.34-.28,2.23-.73,2.66-1.36.94-1.18,1.73-2.51,2.38-3.97.65-1.46,1.29-3.01,1.92-4.63ZM28.08,221.24l-8.32,22.25c.06.25.12.37.19.37,1.18.06,2.6.11,4.25.14,1.65.03,2.97.05,3.97.05,1.43,0,2.72-.03,3.88-.09,1.15-.06,2.41-.12,3.79-.19.12,0,.22-.15.28-.47l-8.04-22.06Z"/><path d="M75.34,210.39h4.02c1.31,0,2.27-.03,2.9-.09.93,1.43,2.43,3.46,4.49,6.08,2.06,2.62,4.46,5.59,7.2,8.93,2.74,3.33,5.58,6.78,8.51,10.33,2.93,3.55,5.76,7.06,8.51,10.52,2.74,3.46,5.11,6.59,7.1,9.39v-34.58c0-1.62-.03-2.9-.09-3.83-.06-.93-.34-1.78-.84-2.52-.19-.31-.75-.61-1.68-.89s-1.92-.5-2.94-.65c-1.03-.15-1.79-.23-2.29-.23-.25-.31-.36-.76-.33-1.36.03-.59.08-1.01.14-1.26,1.81.06,3.5.14,5.09.23,1.59.09,3.38.14,5.37.14,1.43,0,2.6-.01,3.5-.05.9-.03,1.84-.08,2.8-.14.96-.06,2.13-.12,3.5-.19.12.25.22.62.28,1.12.06.5-.03,1-.28,1.5-.37,0-1.11.06-2.2.19-1.09.13-2.14.33-3.13.61-1,.28-1.62.61-1.87.98-.44.69-.69,1.46-.75,2.34-.06.87-.09,2.18-.09,3.93v41.69c0,1.31.01,2.57.05,3.79.03,1.22.08,2.63.14,4.25-.06.25-.25.4-.56.47-.31.06-.53.09-.65.09-.25,0-.67-.16-1.26-.47-.59-.31-1.23-.87-1.92-1.68l-39.82-50.29v41.5c0,1.62.05,2.88.14,3.79.09.9.36,1.73.79,2.48.19.31.73.61,1.64.89.9.28,1.87.51,2.9.7,1.03.19,1.79.28,2.29.28.25.31.37.75.37,1.31s-.06,1-.19,1.31c-1.81-.13-3.49-.23-5.05-.33-1.56-.09-3.33-.14-5.33-.14-1.37,0-2.54.03-3.5.09-.97.06-1.9.12-2.8.19-.9.06-2.07.12-3.51.19-.12-.25-.22-.62-.28-1.12-.06-.5.03-1,.28-1.5.37,0,1.09-.08,2.15-.23,1.06-.15,2.1-.37,3.13-.65s1.64-.61,1.82-.98c.43-.68.7-1.45.79-2.29.09-.84.14-2.13.14-3.88v-39.63c0-1.74-.05-3.05-.14-3.93-.09-.87-.36-1.65-.79-2.34-.19-.37-.79-.7-1.82-.98-1.03-.28-2.07-.48-3.13-.61-1.06-.12-1.78-.19-2.15-.19-.25-.5-.34-1-.28-1.5.06-.5.16-.87.28-1.12,2.12.06,3.83.14,5.14.23,1.31.09,2.71.14,4.21.14Z"/><path d="M147.98,210.39h4.02c1.31,0,2.27-.03,2.9-.09.93,1.43,2.43,3.46,4.49,6.08,2.06,2.62,4.46,5.59,7.2,8.93,2.74,3.33,5.58,6.78,8.51,10.33,2.93,3.55,5.76,7.06,8.51,10.52,2.74,3.46,5.11,6.59,7.1,9.39v-34.58c0-1.62-.03-2.9-.09-3.83-.06-.93-.34-1.78-.84-2.52-.19-.31-.75-.61-1.68-.89s-1.92-.5-2.94-.65c-1.03-.15-1.79-.23-2.29-.23-.25-.31-.36-.76-.33-1.36.03-.59.08-1.01.14-1.26,1.81.06,3.5.14,5.09.23,1.59.09,3.38.14,5.37.14,1.43,0,2.6-.01,3.5-.05.9-.03,1.84-.08,2.8-.14.96-.06,2.13-.12,3.5-.19.12.25.22.62.28,1.12.06.5-.03,1-.28,1.5-.37,0-1.11.06-2.2.19-1.09.13-2.14.33-3.13.61-1,.28-1.62.61-1.87.98-.44.69-.69,1.46-.75,2.34-.06.87-.09,2.18-.09,3.93v41.69c0,1.31.01,2.57.05,3.79.03,1.22.08,2.63.14,4.25-.06.25-.25.4-.56.47-.31.06-.53.09-.65.09-.25,0-.67-.16-1.26-.47-.59-.31-1.23-.87-1.92-1.68l-39.82-50.29v41.5c0,1.62.05,2.88.14,3.79.09.9.36,1.73.79,2.48.19.31.73.61,1.64.89.9.28,1.87.51,2.9.7,1.03.19,1.79.28,2.29.28.25.31.37.75.37,1.31s-.06,1-.19,1.31c-1.81-.13-3.49-.23-5.05-.33-1.56-.09-3.33-.14-5.33-.14-1.37,0-2.54.03-3.5.09-.97.06-1.9.12-2.8.19-.9.06-2.07.12-3.51.19-.12-.25-.22-.62-.28-1.12-.06-.5.03-1,.28-1.5.37,0,1.09-.08,2.15-.23,1.06-.15,2.1-.37,3.13-.65s1.64-.61,1.82-.98c.43-.68.7-1.45.79-2.29.09-.84.14-2.13.14-3.88v-39.63c0-1.74-.05-3.05-.14-3.93-.09-.87-.36-1.65-.79-2.34-.19-.37-.79-.7-1.82-.98-1.03-.28-2.07-.48-3.13-.61-1.06-.12-1.78-.19-2.15-.19-.25-.5-.34-1-.28-1.5.06-.5.16-.87.28-1.12,2.12.06,3.83.14,5.14.23,1.31.09,2.71.14,4.21.14Z"/><path d="M222.27,210.67c1.81,0,3.57-.05,5.28-.14,1.71-.09,3.5-.17,5.37-.23.25.25.36.69.33,1.31-.03.62-.14,1.06-.33,1.31-.37,0-1.06.05-2.06.14-1,.09-1.93.23-2.8.42-.87.19-1.37.47-1.5.84-.19.62-.3,1.43-.33,2.43-.03,1-.05,2.09-.05,3.27v41.22c0,1.18.01,2.26.05,3.22.03.97.14,1.76.33,2.38.12.31.62.59,1.5.84.87.25,1.81.42,2.8.51,1,.09,1.68.14,2.06.14.19.25.29.69.33,1.31.03.62-.08,1.06-.33,1.31-1.87-.13-3.66-.23-5.37-.33-1.71-.09-3.47-.14-5.28-.14s-3.52.05-5.33.14c-1.81.09-3.64.2-5.51.33-.25-.25-.36-.68-.33-1.31.03-.62.14-1.06.33-1.31.37,0,1.06-.05,2.06-.14,1-.09,1.95-.26,2.85-.51.9-.25,1.39-.53,1.45-.84.25-.75.39-1.71.42-2.9.03-1.18.05-2.46.05-3.83v-38.98c0-1.37-.02-2.66-.05-3.88-.03-1.22-.17-2.2-.42-2.94-.06-.37-.55-.65-1.45-.84-.9-.19-1.85-.33-2.85-.42-1-.09-1.68-.14-2.06-.14-.19-.25-.3-.68-.33-1.31-.03-.62.08-1.06.33-1.31,1.87.06,3.71.14,5.51.23,1.81.09,3.58.14,5.33.14Z"/><path d="M250.28,210.67c1.99,0,3.93-.05,5.79-.14,1.87-.09,3.71-.17,5.51-.23.12.25.17.73.14,1.45-.03.72-.14,1.11-.33,1.17-.25,0-.83.08-1.73.23-.9.16-1.76.44-2.57.84-.81.41-1.21,1.04-1.21,1.92,0,1,.56,3.05,1.68,6.17.5,1.37,1.17,3.19,2.01,5.47.84,2.28,1.76,4.78,2.76,7.52,1,2.74,2.01,5.48,3.04,8.23,1.03,2.74,1.96,5.27,2.8,7.57.84,2.31,1.53,4.19,2.06,5.65.53,1.46.82,2.26.89,2.38.12-.25.53-1.2,1.21-2.85.68-1.65,1.54-3.75,2.57-6.31,1.03-2.55,2.16-5.37,3.41-8.46,1.25-3.08,2.51-6.22,3.79-9.39,1.28-3.18,2.48-6.17,3.6-8.97.43-1.06.81-2.18,1.12-3.36.31-1.18.47-2.18.47-2.99,0-1-.42-1.74-1.26-2.24-.84-.5-1.75-.84-2.71-1.03-.97-.19-1.64-.28-2.01-.28-.25-.12-.37-.54-.37-1.26s.12-1.2.37-1.45c1.68.06,3.27.14,4.77.23,1.5.09,3.08.14,4.77.14,1.43,0,2.57-.01,3.41-.05.84-.03,1.67-.08,2.48-.14.81-.06,1.81-.12,2.99-.19.12.25.15.75.09,1.5-.06.75-.16,1.12-.28,1.12-.37,0-1.23.16-2.57.47-1.34.31-2.42.93-3.22,1.87-.56.62-1.29,1.89-2.2,3.79-.9,1.9-1.7,3.72-2.38,5.47-1.68,4.18-3.22,8.01-4.63,11.5-1.4,3.49-2.77,6.86-4.11,10.09-1.34,3.24-2.73,6.61-4.16,10.09-1.43,3.49-3.05,7.35-4.86,11.59-.5,1.18-1.04,1.99-1.64,2.43-.59.44-1.2.65-1.82.65-.19,0-.34-.2-.47-.61-.13-.4-.25-.7-.37-.89-2.06-5.42-3.97-10.48-5.75-15.19-1.78-4.7-3.58-9.49-5.42-14.35-1.84-4.86-3.91-10.22-6.22-16.08-.69-1.81-1.36-3.43-2.01-4.86-.65-1.43-1.39-2.74-2.2-3.93-.31-.5-.87-.9-1.68-1.22-.81-.31-1.61-.53-2.38-.65-.78-.12-1.35-.19-1.73-.19-.06,0-.09-.42-.09-1.26s.03-1.29.09-1.36c2.12.06,3.88.14,5.28.23,1.4.09,3.16.14,5.28.14Z"/><path d="M317.19,210.67c4.3,0,9.03-.09,14.21-.28,5.17-.19,10.22-.28,15.14-.28.31,2.31.72,4.43,1.22,6.36.5,1.93.96,3.93,1.4,5.98-.31.31-.84.47-1.59.47-.81,0-1.25-.22-1.31-.65-1-3.68-2.4-6.01-4.21-7.01-1.81-1-3.93-1.5-6.36-1.5h-7.85c-.37,0-1.06.02-2.06.05-1,.03-1.93.11-2.8.23-.87.13-1.37.34-1.5.65-.19.62-.3,1.43-.33,2.43-.03,1-.05,2.03-.05,3.08v18.04c0,.25.4.41,1.21.47.81.06,1.71.09,2.71.09h4.77c2.18,0,3.88-.06,5.09-.19,1.21-.12,2.1-.4,2.66-.84.56-.44,1-1.09,1.31-1.96.31-.87.65-2.06,1.03-3.55.06-.44.5-.65,1.31-.65.75,0,1.28.16,1.59.47v17.2c-.25.25-.75.37-1.5.37s-1.21-.22-1.4-.65c-.44-1.74-.79-3.01-1.08-3.79-.28-.78-.53-1.31-.75-1.59-.22-.28-.48-.51-.79-.7-.31-.25-1.03-.42-2.15-.51-1.12-.09-2.35-.15-3.69-.19-1.34-.03-2.6-.05-3.79-.05-.81,0-1.73.02-2.76.05-1.03.03-1.92.09-2.66.19-.75.09-1.12.3-1.12.61v17.95c0,.87.01,1.99.05,3.36.03,1.37.17,2.15.42,2.34.62.44,1.39.7,2.29.79.9.09,2.32.14,4.25.14h4.39c2.18,0,4.33-.22,6.45-.65,2.12-.44,3.8-1.06,5.05-1.87,1.43-.87,2.55-2.13,3.37-3.79.81-1.65,1.59-3.44,2.34-5.37.12-.37.56-.56,1.31-.56,1.12,0,1.87.19,2.24.56-.87,2.49-1.82,5.14-2.85,7.94-1.03,2.8-1.7,5.2-2.01,7.2-4.92,0-9.81-.06-14.67-.19-4.86-.13-10.34-.19-16.45-.19-2.12,0-4.02.05-5.7.14-1.68.09-3.43.14-5.23.14-.25-.25-.36-.68-.33-1.31.03-.62.14-1.06.33-1.31.37,0,1.06-.05,2.06-.14,1-.09,1.95-.26,2.85-.51.9-.25,1.39-.53,1.45-.84.25-.75.39-1.71.42-2.9.03-1.18.05-2.46.05-3.83v-38.98c0-1.37-.02-2.66-.05-3.88-.03-1.22-.17-2.2-.42-2.94-.06-.37-.55-.65-1.45-.84-.9-.19-1.85-.33-2.85-.42-1-.09-1.68-.14-2.06-.14-.19-.25-.3-.68-.33-1.31-.03-.62.08-1.06.33-1.31,1.87.06,3.71.14,5.51.23,1.81.09,3.58.14,5.33.14Z"/><path d="M383.05,210.49c2.06,0,4.17.34,6.36,1.03,2.18.69,4.19,1.68,6.03,2.99,1.84,1.31,3.32,2.94,4.44,4.91,1.12,1.96,1.68,4.25,1.68,6.87,0,2.18-.61,4.3-1.82,6.36-1.22,2.06-2.77,3.86-4.67,5.42-1.9,1.56-3.88,2.68-5.94,3.36,1.62,2.68,3.18,5.14,4.67,7.38,1.5,2.24,3.05,4.47,4.67,6.68,1.62,2.21,3.43,4.66,5.42,7.34,1.31,1.75,2.72,3.05,4.25,3.93,1.53.87,3.54,1.4,6.03,1.59.25.25.31.72.19,1.4-.12.69-.22,1.09-.28,1.22-3.05,0-5.59-.11-7.62-.33-2.03-.22-3.5-.48-4.44-.79-.62-.25-1.5-.64-2.62-1.17-1.12-.53-2.21-1.48-3.27-2.85-.37-.5-1.06-1.46-2.06-2.9-1-1.43-2.18-3.18-3.55-5.23-1.37-2.06-2.84-4.25-4.39-6.59-1.56-2.34-3.05-4.63-4.49-6.87-.5-.75-1.43-1.12-2.8-1.12h-4.77v18.13c0,1.18.01,2.26.05,3.22.03.97.14,1.76.33,2.38.12.31.62.59,1.5.84.87.25,1.81.42,2.8.51,1,.09,1.68.14,2.06.14.19.25.29.69.33,1.31.03.62-.08,1.06-.33,1.31-1.87-.13-3.66-.23-5.37-.33-1.71-.09-3.47-.14-5.28-.14s-3.52.05-5.33.14c-1.81.09-3.64.2-5.51.33-.25-.25-.36-.68-.33-1.31.03-.62.14-1.06.33-1.31.37,0,1.06-.05,2.06-.14,1-.09,1.95-.26,2.85-.51.9-.25,1.39-.53,1.45-.84.25-.75.39-1.71.42-2.9.03-1.18.05-2.46.05-3.83l-.09-38.98c0-1.37-.02-2.66-.05-3.88-.03-1.22-.17-2.2-.42-2.94-.06-.37-.55-.65-1.45-.84-.9-.19-1.84-.33-2.8-.42-.97-.09-1.64-.14-2.01-.14-.19-.25-.3-.68-.33-1.31-.03-.62.08-1.06.33-1.31,1.87.06,3.69.14,5.47.23,1.78.09,3.54.14,5.28.14s3.75-.03,5.84-.09c2.09-.06,4.47-.09,7.15-.09ZM393.06,227.12c0-3.99-1.08-7.26-3.22-9.81-2.15-2.55-5.75-3.83-10.8-3.83-.56,0-1.42.03-2.57.09-1.15.06-1.82.31-2.01.75-.25.56-.39,1.51-.42,2.85-.03,1.34-.05,2.7-.05,4.07l.09,19.07h4.86c2.37,0,4.63-.54,6.78-1.64,2.15-1.09,3.91-2.62,5.28-4.58,1.37-1.96,2.06-4.28,2.06-6.96Z"/><path d="M438.89,209.93c1.93,0,3.54.11,4.81.33,1.28.22,2.58.51,3.92.89,1.34.37,3.01.81,5,1.31.37,2.37.67,4.81.89,7.34.22,2.52.36,4.41.42,5.65.06.31-.16.55-.65.7-.5.16-.9.23-1.21.23-.44,0-.78-.12-1.03-.37-.13-1.12-.5-2.43-1.12-3.93-.62-1.5-1.48-2.93-2.57-4.3-1.09-1.37-2.4-2.51-3.93-3.41-1.53-.9-3.26-1.36-5.19-1.36-2.49,0-4.46.53-5.89,1.59-1.43,1.06-2.46,2.37-3.08,3.93-.62,1.56-.93,3.08-.93,4.58,0,2.43.64,4.46,1.92,6.08,1.28,1.62,2.9,3.05,4.86,4.3,1.96,1.25,3.94,2.52,5.94,3.83,1.5.93,3.15,1.96,4.95,3.08,1.81,1.12,3.55,2.37,5.23,3.74,1.68,1.37,3.05,2.94,4.11,4.72,1.06,1.78,1.59,3.79,1.59,6.03,0,3.3-.92,6.22-2.76,8.74-1.84,2.52-4.21,4.49-7.1,5.89-2.9,1.4-5.97,2.1-9.21,2.1-3.05,0-6-.34-8.83-1.03-2.84-.68-5.38-1.25-7.62-1.68-.37-1.81-.7-3.74-.98-5.8-.28-2.06-.5-3.86-.65-5.42-.16-1.56-.23-2.52-.23-2.9.31-.31.67-.58,1.08-.79.4-.22.83-.33,1.26-.33.56,0,.9.28,1.03.84.19.87.58,2.07,1.17,3.6.59,1.53,1.46,3.1,2.62,4.72,1.15,1.62,2.65,2.98,4.49,4.07,1.84,1.09,4.13,1.64,6.87,1.64,2.93,0,5.48-.98,7.66-2.94,2.18-1.96,3.27-4.72,3.27-8.27,0-2.55-.58-4.55-1.73-5.98-1.15-1.43-2.65-2.68-4.49-3.74-1.84-1.06-3.82-2.18-5.93-3.36-2.31-1.37-4.69-2.88-7.15-4.53-2.46-1.65-4.53-3.6-6.22-5.84-1.68-2.24-2.52-4.89-2.52-7.94,0-3.24.86-6.06,2.57-8.46,1.71-2.4,3.94-4.25,6.68-5.56,2.74-1.31,5.64-1.96,8.69-1.96Z"/><path d="M470.03,257.97c1.18-3.05,2.27-5.89,3.27-8.51,1-2.62,2.13-5.53,3.41-8.74,1.28-3.21,2.57-6.51,3.88-9.91,1.31-3.4,2.57-6.65,3.79-9.77,1.21-3.12,2.29-5.86,3.22-8.23.25-.5.79-1.06,1.64-1.68.84-.62,1.48-.93,1.92-.93.12,0,.2.02.23.05.03.03.11.08.23.14l18.6,48.79c1.37,3.61,2.15,5.61,2.34,5.98.31.69.92,1.28,1.82,1.78.9.5,1.81.86,2.71,1.07.9.22,1.48.33,1.73.33.25.31.34.79.28,1.45-.06.65-.13,1.04-.19,1.17-1.81-.13-3.43-.23-4.86-.33-1.43-.09-3.15-.14-5.14-.14-2.12,0-3.88.05-5.28.14-1.4.09-3.16.2-5.28.33-.25-.25-.36-.68-.33-1.31.03-.62.17-1.06.42-1.31.56,0,1.43-.11,2.62-.33,1.18-.22,1.99-.51,2.43-.89.25-.25.37-.68.37-1.31,0-.56-.2-1.51-.61-2.85-.41-1.34-.92-2.85-1.54-4.53-.62-1.68-1.25-3.32-1.87-4.91-.62-1.59-1.34-3.41-2.15-5.47-.25-.25-.44-.37-.56-.37-.94-.06-2.09-.09-3.46-.09h-5.61c-1.87,0-3.46.02-4.77.05-1.31.03-2.99.11-5.05.23-.06,0-.22.09-.47.28-.93,2.49-1.73,4.6-2.38,6.31-.65,1.71-1.23,3.32-1.73,4.81-.56,1.56-.92,2.87-1.08,3.93-.16,1.06-.23,1.9-.23,2.52,0,.69.48,1.23,1.45,1.64.97.41,1.96.67,2.99.79,1.03.13,1.67.19,1.92.19.12.13.22.51.28,1.17.06.65.03,1.14-.09,1.45-1.18-.06-2.2-.13-3.04-.19-.84-.06-1.68-.12-2.52-.19-.84-.06-1.95-.09-3.32-.09s-2.52.03-3.46.09c-.93.06-1.87.12-2.8.19-.93.06-2.12.12-3.55.19-.12-.13-.19-.51-.19-1.17s.06-1.14.19-1.45c.56,0,1.51-.14,2.85-.42,1.34-.28,2.23-.73,2.66-1.36.94-1.18,1.73-2.51,2.38-3.97.65-1.46,1.29-3.01,1.92-4.63ZM487.89,221.24l-8.32,22.25c.06.25.12.37.19.37,1.18.06,2.6.11,4.25.14,1.65.03,2.97.05,3.97.05,1.43,0,2.72-.03,3.88-.09,1.15-.06,2.41-.12,3.79-.19.12,0,.22-.15.28-.47l-8.04-22.06Z"/><path d="M549.72,210.49c2.06,0,4.17.34,6.36,1.03,2.18.69,4.19,1.68,6.03,2.99,1.84,1.31,3.32,2.94,4.44,4.91,1.12,1.96,1.68,4.25,1.68,6.87,0,2.18-.61,4.3-1.82,6.36-1.22,2.06-2.77,3.86-4.67,5.42-1.9,1.56-3.88,2.68-5.94,3.36,1.62,2.68,3.18,5.14,4.67,7.38,1.5,2.24,3.05,4.47,4.67,6.68,1.62,2.21,3.43,4.66,5.42,7.34,1.31,1.75,2.72,3.05,4.25,3.93,1.53.87,3.54,1.4,6.03,1.59.25.25.31.72.19,1.4-.12.69-.22,1.09-.28,1.22-3.05,0-5.59-.11-7.62-.33-2.03-.22-3.5-.48-4.44-.79-.62-.25-1.5-.64-2.62-1.17-1.12-.53-2.21-1.48-3.27-2.85-.37-.5-1.06-1.46-2.06-2.9-1-1.43-2.18-3.18-3.55-5.23-1.37-2.06-2.84-4.25-4.39-6.59-1.56-2.34-3.05-4.63-4.49-6.87-.5-.75-1.43-1.12-2.8-1.12h-4.77v18.13c0,1.18.01,2.26.05,3.22.03.97.14,1.76.33,2.38.12.31.62.59,1.5.84.87.25,1.81.42,2.8.51,1,.09,1.68.14,2.06.14.19.25.29.69.33,1.31.03.62-.08,1.06-.33,1.31-1.87-.13-3.66-.23-5.37-.33-1.71-.09-3.47-.14-5.28-.14s-3.52.05-5.33.14c-1.81.09-3.64.2-5.51.33-.25-.25-.36-.68-.33-1.31.03-.62.14-1.06.33-1.31.37,0,1.06-.05,2.06-.14,1-.09,1.95-.26,2.85-.51.9-.25,1.39-.53,1.45-.84.25-.75.39-1.71.42-2.9.03-1.18.05-2.46.05-3.83l-.09-38.98c0-1.37-.02-2.66-.05-3.88-.03-1.22-.17-2.2-.42-2.94-.06-.37-.55-.65-1.45-.84-.9-.19-1.84-.33-2.8-.42-.97-.09-1.64-.14-2.01-.14-.19-.25-.3-.68-.33-1.31-.03-.62.08-1.06.33-1.31,1.87.06,3.69.14,5.47.23,1.78.09,3.54.14,5.28.14s3.75-.03,5.84-.09c2.09-.06,4.47-.09,7.15-.09ZM559.72,227.12c0-3.99-1.08-7.26-3.22-9.81-2.15-2.55-5.75-3.83-10.8-3.83-.56,0-1.42.03-2.57.09-1.15.06-1.82.31-2.01.75-.25.56-.39,1.51-.42,2.85-.03,1.34-.05,2.7-.05,4.07l.09,19.07h4.86c2.37,0,4.63-.54,6.78-1.64,2.15-1.09,3.91-2.62,5.28-4.58,1.37-1.96,2.06-4.28,2.06-6.96Z"/><path d="M599.65,260.12v-13.83c0-.81-.22-1.65-.65-2.52-1.31-2.43-2.48-4.55-3.5-6.36-1.03-1.81-2.01-3.52-2.94-5.14-.93-1.62-1.92-3.35-2.94-5.19-1.03-1.84-2.23-3.97-3.6-6.4-1-1.68-1.93-2.97-2.8-3.88-.87-.9-1.93-1.73-3.18-2.48-.81-.5-1.73-.86-2.76-1.07-1.03-.22-1.82-.33-2.38-.33-.25,0-.37-.37-.37-1.12s.13-1.25.37-1.5c2.24.06,4.14.14,5.7.23,1.56.09,3.46.14,5.7.14s4.3-.05,6.17-.14c1.87-.09,3.71-.17,5.51-.23.12.25.19.75.19,1.5s-.13,1.12-.37,1.12c-.44,0-1.09.08-1.96.23-.87.16-1.67.44-2.38.84-.72.41-1.08,1.01-1.08,1.82,0,.69.34,1.59,1.03,2.71l12.71,21.96c1.12-1.99,2.3-4.19,3.55-6.59,1.25-2.4,2.43-4.73,3.55-7.01,1.12-2.27,2.1-4.31,2.94-6.12.84-1.81,1.45-3.12,1.82-3.93.06-.12.12-.33.19-.61.06-.28.09-.54.09-.79,0-.5-.42-1.03-1.26-1.59s-2.54-.84-5.09-.84c-.13,0-.2-.42-.23-1.26-.03-.84-.02-1.32.05-1.45,1.68.06,3.19.16,4.53.28,1.34.13,2.85.19,4.53.19s2.94-.03,3.97-.09c1.03-.06,2.01-.12,2.94-.19.93-.06,1.99-.12,3.18-.19.12.25.16.76.09,1.54-.06.78-.16,1.17-.28,1.17-.25,0-.9.05-1.96.14-1.06.09-2.18.39-3.37.89-1.18.5-2.12,1.37-2.8,2.62-.87,1.5-1.93,3.38-3.18,5.65-1.25,2.28-2.56,4.67-3.93,7.2-1.37,2.52-2.7,4.99-3.97,7.38-1.28,2.4-2.42,4.5-3.41,6.31-.25.44-.37.84-.37,1.22v7.62c0,2.21-.03,4.91-.09,8.09v1.12c0,1.18.01,2.26.05,3.22.03.97.14,1.76.33,2.38.12.31.62.59,1.5.84.87.25,1.81.42,2.8.51,1,.09,1.68.14,2.06.14.19.25.29.69.33,1.31.03.62-.08,1.06-.33,1.31-1.87-.13-3.66-.23-5.37-.33-1.71-.09-3.47-.14-5.28-.14s-3.52.05-5.33.14c-1.81.09-3.64.2-5.51.33-.25-.25-.36-.68-.33-1.31.03-.62.14-1.06.33-1.31.37,0,1.06-.05,2.06-.14,1-.09,1.95-.26,2.85-.51.9-.25,1.39-.53,1.45-.84.25-.75.39-1.71.42-2.9.03-1.18.05-2.46.05-3.83Z"/><path d="M26.48,1.43c.36,0,.82-.07,1.38-.22.57-.15.98-.28,1.25-.4.24-.12.4-.18.49-.18s.19.03.31.09c.15,1.34.32,2.64.51,3.89.19,1.25.41,2.46.65,3.62-.06.06-.16.13-.31.22-.15.09-.33.12-.54.09-.33,0-.54-.07-.63-.22-.3-1.52-.79-2.78-1.47-3.8-.69-1.01-1.58-1.52-2.68-1.52h-5.54v22.25c0,.66,0,1.27.02,1.83.01.57.08,1.03.2,1.38.06.15.3.28.71.4.42.12.86.2,1.32.25s.78.07.96.07c.09.12.14.33.16.63.01.3-.04.51-.16.63-.89-.06-1.75-.11-2.57-.16-.82-.04-1.66-.07-2.52-.07s-1.68.02-2.55.07-1.74.1-2.64.16c-.12-.12-.17-.33-.16-.63.01-.3.07-.51.16-.63.18,0,.51-.02.98-.07s.93-.13,1.36-.25c.43-.12.66-.25.69-.4.12-.36.19-.82.2-1.38.01-.57.02-1.18.02-1.83V2.99h-5.63c-1.1,0-2,.51-2.68,1.52-.69,1.01-1.19,2.28-1.52,3.8-.09.15-.3.22-.63.22-.21.03-.38,0-.51-.09s-.23-.16-.29-.22c.24-1.16.45-2.37.62-3.62.18-1.25.34-2.55.49-3.89.15-.06.33-.07.54-.02.21.04.37.1.49.16.27.12.65.25,1.14.38.49.13.92.2,1.27.2h17.07Z"/><path d="M45.41,11.17c1.58,0,2.77.33,3.57.98.8.66,1.35,1.67,1.63,3.04.28,1.37.42,3.11.42,5.23v4.82c0,.66,0,1.27.02,1.83.01.57.08,1.03.2,1.38.06.15.27.28.65.4.37.12.78.2,1.21.25s.74.07.92.07c.09.12.14.33.16.63.01.3-.04.51-.16.63-.89-.06-1.68-.11-2.37-.16-.69-.04-1.46-.07-2.32-.07s-1.59.02-2.26.07-1.45.1-2.35.16c-.12-.12-.17-.33-.16-.63.02-.3.07-.51.16-.63.18,0,.48-.02.89-.07.42-.04.82-.13,1.21-.25.39-.12.6-.25.63-.4.12-.36.19-.82.2-1.38.01-.57.02-1.18.02-1.83v-4.38c0-1.82-.12-3.24-.36-4.27-.24-1.03-.67-1.76-1.3-2.21s-1.5-.67-2.64-.67c-.54,0-1.12.17-1.76.51-.64.34-1.2.71-1.67,1.09-.48.39-.71.66-.71.8v9.11c0,.66,0,1.27.02,1.83.02.57.08,1.03.2,1.38.06.15.28.28.65.4.37.12.77.2,1.21.25s.74.07.92.07c.09.12.14.33.16.63.02.3-.04.51-.16.63-.89-.06-1.68-.11-2.37-.16-.69-.04-1.46-.07-2.32-.07s-1.59.02-2.26.07c-.67.04-1.45.1-2.35.16-.12-.12-.17-.33-.16-.63.01-.3.07-.51.16-.63.18,0,.48-.02.89-.07.42-.04.82-.13,1.21-.25.39-.12.59-.25.62-.4.12-.36.19-.82.2-1.38.01-.57.02-1.18.02-1.83V5.94c0-.3,0-.68-.02-1.16-.02-.48-.08-.85-.2-1.12-.12-.33-.44-.54-.96-.63s-1.08-.13-1.68-.13c-.03,0-.05-.19-.07-.56-.02-.37.02-.57.11-.6,1.1-.12,2.17-.34,3.22-.65,1.04-.31,2.03-.68,2.95-1.09.12,0,.23.08.33.25.1.16.16.32.16.47-.33,1.31-.49,2.58-.49,3.8v9.87c0,.06.04.09.13.09.03,0,.07-.03.13-.09.3-.33.78-.74,1.45-1.25.67-.51,1.41-.96,2.21-1.36.8-.4,1.55-.6,2.23-.6Z"/><path d="M58.45,19.48c-.03,1.85.28,3.4.94,4.65.65,1.25,1.53,2.18,2.64,2.79,1.1.61,2.29.92,3.57.92.8,0,1.53-.14,2.19-.42.65-.28,1.21-.61,1.65-.98.45-.37.76-.66.94-.87.03,0,.1.05.2.16.1.1.16.25.16.42,0,.24-.09.51-.27.8-.27.42-.69.92-1.25,1.5-.57.58-1.28,1.09-2.14,1.54s-1.86.67-2.99.67c-1.7,0-3.2-.4-4.51-1.21-1.31-.8-2.34-1.89-3.08-3.26-.74-1.37-1.12-2.9-1.12-4.6,0-1.46.26-2.82.78-4.09.52-1.27,1.21-2.37,2.06-3.31.85-.94,1.78-1.68,2.79-2.21,1.01-.54,2-.8,2.95-.8,1.31,0,2.39.22,3.24.67.85.45,1.52,1,2.01,1.65.49.66.83,1.31,1.03,1.97.19.66.29,1.21.29,1.65,0,.63-.08,1.12-.22,1.47-.15.36-.43.55-.85.58-.27.03-.8.05-1.59.07-.79.02-1.69.04-2.7.07-1.01.03-2.01.06-2.99.09-.98.03-1.82.05-2.5.07-.69.02-1.09.02-1.21.02ZM58.67,17.87h7.1c.27,0,.5-.07.69-.22.19-.15.31-.42.34-.8.03-.36-.07-.86-.31-1.52-.24-.65-.62-1.25-1.14-1.79-.52-.54-1.23-.8-2.12-.8s-1.68.26-2.28.78c-.6.52-1.07,1.12-1.41,1.79-.34.67-.58,1.27-.71,1.79-.13.52-.19.78-.16.78Z"/><path d="M107.99,9.38c0,1.76-.4,3.3-1.21,4.62-.8,1.33-1.93,2.35-3.37,3.08-1.45.73-3.12,1.09-5.03,1.09-.24,0-.55-.03-.94-.09-.39-.06-.7-.15-.94-.27-.06-.06-.18-.17-.36-.34-.18-.16-.27-.38-.27-.65,0-.18.07-.25.22-.22.24.06.49.13.76.2.27.07.57.11.89.11,1.76,0,3.23-.59,4.42-1.76,1.19-1.18,1.79-2.85,1.79-5.03s-.6-3.92-1.79-5.23c-1.19-1.31-2.99-1.97-5.41-1.97-.27,0-.68.02-1.23.04-.55.03-.87.15-.96.36-.12.27-.19.72-.2,1.36-.02.64-.02,1.29-.02,1.94v18.58c0,.66,0,1.27.02,1.83.01.57.08,1.03.2,1.38.06.15.3.28.71.4.42.12.86.2,1.32.25s.78.07.96.07c.09.12.14.33.16.63.02.3-.04.51-.16.63-.89-.06-1.75-.11-2.57-.16-.82-.04-1.66-.07-2.52-.07s-1.67.02-2.52.07c-.85.04-1.72.1-2.61.16-.12-.12-.17-.33-.16-.63.02-.3.07-.51.16-.63.18,0,.5-.02.96-.07.46-.04.91-.13,1.34-.25.43-.12.66-.25.69-.4.12-.36.19-.82.2-1.38.01-.57.02-1.18.02-1.83V6.61c0-.65,0-1.27-.02-1.85-.02-.58-.08-1.05-.2-1.41-.03-.18-.26-.31-.69-.4s-.88-.16-1.34-.2c-.46-.04-.78-.07-.96-.07-.09-.12-.14-.33-.16-.63-.02-.3.04-.51.16-.63.89.03,1.77.07,2.61.11.85.04,1.69.07,2.52.07s1.79-.01,2.79-.04c1-.03,2.14-.04,3.42-.04,1.55,0,3.03.31,4.45.92,1.41.61,2.58,1.5,3.48,2.66.91,1.16,1.36,2.59,1.36,4.29Z"/><path d="M122.46,11.21c.57,0,1.1.13,1.61.38.51.25.86.56,1.07.92.06.12.1.28.13.49.03.21.04.43.04.67,0,.8-.19,1.39-.56,1.74-.37.36-.68.54-.92.54-.3,0-.58-.1-.85-.31-.27-.21-.52-.39-.76-.54-.21-.15-.43-.28-.65-.38-.22-.1-.54-.16-.96-.16-.62,0-1.2.26-1.72.78-.52.52-.95,1.09-1.27,1.72-.33.63-.49,1.1-.49,1.43v6.75c0,.66,0,1.27.02,1.83.01.57.08,1.03.2,1.38.06.15.36.28.89.4.54.12,1.1.2,1.7.25s.98.07,1.16.07c.09.12.14.33.16.63.01.3-.04.51-.16.63-.89-.06-1.8-.11-2.73-.16-.92-.04-1.82-.07-2.68-.07s-1.64.02-2.41.07c-.78.04-1.61.1-2.5.16-.12-.12-.17-.33-.16-.63.01-.3.07-.51.16-.63.18,0,.48-.02.92-.07s.84-.13,1.23-.25c.39-.12.6-.25.62-.4.12-.36.19-.82.2-1.38.02-.57.02-1.18.02-1.83v-8.13c0-.3,0-.68-.02-1.16-.02-.48-.08-.85-.2-1.12-.09-.27-.34-.45-.76-.56-.42-.1-.83-.16-1.25-.18-.42-.01-.69-.02-.8-.02-.03-.06-.06-.24-.09-.54-.03-.3,0-.51.09-.63,1.13-.15,2.23-.37,3.31-.67,1.07-.3,2.04-.68,2.9-1.16.12,0,.23.09.33.27s.16.33.16.45c0,.09-.03.43-.09,1.03-.06.6-.11,1.2-.16,1.81-.04.61-.07,1.01-.07,1.18,0,.09.02.13.07.13s.08-.01.11-.04c.3-.63.72-1.3,1.27-2.03.55-.73,1.17-1.35,1.85-1.88.68-.52,1.35-.78,2.01-.78Z"/><path d="M134.22,25.24c0,.66,0,1.27.02,1.83.01.57.08,1.03.2,1.38.06.15.27.28.65.4.37.12.77.2,1.18.25s.71.07.89.07c.09.12.14.33.16.63.01.3-.04.51-.16.63-.89-.06-1.68-.11-2.35-.16s-1.44-.07-2.3-.07-1.59.02-2.28.07-1.47.1-2.37.16c-.12-.12-.17-.33-.16-.63.02-.3.07-.51.16-.63.18,0,.48-.02.92-.07s.84-.13,1.23-.25c.39-.12.6-.25.63-.4.12-.36.19-.82.2-1.38.01-.57.02-1.18.02-1.83v-8.13c0-.3,0-.68-.02-1.16-.02-.48-.08-.85-.2-1.12-.09-.27-.34-.45-.76-.56-.42-.1-.83-.16-1.25-.18-.42-.01-.69-.02-.8-.02-.03-.06-.06-.24-.09-.54-.03-.3,0-.51.09-.63,1.13-.15,2.23-.37,3.31-.67,1.07-.3,2.04-.68,2.9-1.16.12,0,.23.09.33.27s.16.33.16.45c0,.09-.03.34-.09.76-.06.42-.11.83-.16,1.25-.04.42-.07.7-.07.85v10.59ZM130.02,4.42c0-.6.22-1.11.65-1.54.43-.43.95-.65,1.54-.65s1.11.22,1.54.65c.43.43.65.95.65,1.54s-.22,1.11-.65,1.54c-.43.43-.95.65-1.54.65s-1.11-.22-1.54-.65c-.43-.43-.65-.95-.65-1.54Z"/><path d="M152.46,11.17c1.58,0,2.77.33,3.57.98.8.66,1.35,1.67,1.63,3.04.28,1.37.42,3.11.42,5.23v4.82c0,.66,0,1.27.02,1.83.02.57.08,1.03.2,1.38.06.15.28.28.65.4.37.12.77.2,1.18.25s.71.07.89.07c.09.12.14.33.16.63.01.3-.04.51-.16.63-.89-.06-1.67-.11-2.34-.16-.67-.04-1.44-.07-2.3-.07s-1.59.02-2.28.07-1.47.1-2.37.16c-.12-.12-.17-.33-.16-.63.01-.3.07-.51.16-.63.18,0,.48-.02.92-.07.43-.04.84-.13,1.23-.25.39-.12.6-.25.62-.4.12-.36.19-.82.2-1.38.01-.57.02-1.18.02-1.83v-4.38c0-1.82-.12-3.24-.36-4.27-.24-1.03-.67-1.76-1.3-2.21s-1.5-.67-2.64-.67c-.54,0-1.12.17-1.76.51-.64.34-1.2.71-1.68,1.09-.48.39-.71.66-.71.8v9.11c0,.66,0,1.27.02,1.83.01.57.08,1.03.2,1.38.06.15.27.28.65.4.37.12.77.2,1.18.25s.71.07.89.07c.09.12.14.33.16.63.01.3-.04.51-.16.63-.89-.06-1.68-.11-2.35-.16s-1.44-.07-2.3-.07-1.59.02-2.28.07-1.47.1-2.37.16c-.12-.12-.17-.33-.16-.63.02-.3.07-.51.16-.63.18,0,.48-.02.92-.07s.84-.13,1.23-.25c.39-.12.6-.25.63-.4.12-.36.19-.82.2-1.38.01-.57.02-1.18.02-1.83v-7.95c0-.3,0-.71-.02-1.25-.02-.54-.08-.94-.2-1.21-.09-.27-.34-.45-.76-.56-.42-.1-.83-.16-1.25-.18-.42-.01-.69-.02-.8-.02-.03-.06-.06-.24-.09-.54-.03-.3,0-.51.09-.63,1.13-.15,2.23-.37,3.31-.67,1.07-.3,2.04-.68,2.9-1.16.12,0,.23.09.33.27s.16.33.16.45c0,.09-.02.32-.07.69-.04.37-.09.74-.13,1.09-.04.36-.07.6-.07.71s.03.18.09.18c.03,0,.07-.03.13-.09.3-.33.78-.74,1.45-1.25.67-.51,1.41-.96,2.21-1.36.8-.4,1.55-.6,2.23-.6Z"/><path d="M177.35,13.45c0,.77-.18,1.32-.54,1.63-.36.31-.73.47-1.12.47-.48,0-.92-.21-1.34-.63-.42-.42-.82-.74-1.21-.98-.48-.33-.86-.55-1.16-.67-.3-.12-.73-.18-1.29-.18-.78,0-1.54.29-2.3.87-.76.58-1.38,1.41-1.88,2.48-.49,1.07-.74,2.38-.74,3.93,0,2.53.68,4.39,2.05,5.58,1.37,1.19,3.04,1.79,5,1.79,1.22,0,2.23-.28,3.02-.85.79-.57,1.33-1.01,1.63-1.34.03,0,.1.05.2.16.1.1.16.25.16.42,0,.24-.09.51-.27.8-.27.42-.69.92-1.25,1.5-.57.58-1.28,1.09-2.14,1.54-.86.45-1.86.67-2.99.67-1.76,0-3.3-.42-4.62-1.25-1.33-.83-2.35-1.92-3.08-3.26-.73-1.34-1.09-2.77-1.09-4.29,0-1.61.33-3.06,1-4.36s1.53-2.42,2.59-3.37c1.06-.95,2.2-1.68,3.44-2.19,1.24-.51,2.42-.76,3.55-.76,1.61,0,2.92.36,3.93,1.07.09.09.19.25.29.49.1.24.16.48.16.71Z"/><path d="M183.48,19.48c-.03,1.85.28,3.4.94,4.65.66,1.25,1.53,2.18,2.64,2.79,1.1.61,2.29.92,3.57.92.8,0,1.53-.14,2.19-.42.65-.28,1.21-.61,1.65-.98.45-.37.76-.66.94-.87.03,0,.1.05.2.16.1.1.16.25.16.42,0,.24-.09.51-.27.8-.27.42-.69.92-1.25,1.5-.57.58-1.28,1.09-2.14,1.54-.86.45-1.86.67-2.99.67-1.7,0-3.2-.4-4.51-1.21-1.31-.8-2.34-1.89-3.08-3.26-.75-1.37-1.12-2.9-1.12-4.6,0-1.46.26-2.82.78-4.09.52-1.27,1.21-2.37,2.05-3.31.85-.94,1.78-1.68,2.79-2.21,1.01-.54,2-.8,2.95-.8,1.31,0,2.39.22,3.24.67.85.45,1.52,1,2.01,1.65.49.66.83,1.31,1.03,1.97.19.66.29,1.21.29,1.65,0,.63-.08,1.12-.22,1.47-.15.36-.43.55-.85.58-.27.03-.8.05-1.59.07-.79.02-1.69.04-2.7.07-1.01.03-2.01.06-2.99.09-.98.03-1.82.05-2.5.07-.69.02-1.09.02-1.21.02ZM183.7,17.87h7.1c.27,0,.5-.07.69-.22.19-.15.31-.42.33-.8.03-.36-.07-.86-.31-1.52-.24-.65-.62-1.25-1.14-1.79-.52-.54-1.23-.8-2.12-.8s-1.68.26-2.28.78c-.6.52-1.07,1.12-1.41,1.79-.34.67-.58,1.27-.71,1.79-.13.52-.19.78-.16.78Z"/><path d="M233.02,9.38c0,1.76-.4,3.3-1.21,4.62-.8,1.33-1.93,2.35-3.37,3.08-1.45.73-3.12,1.09-5.03,1.09-.24,0-.55-.03-.94-.09-.39-.06-.7-.15-.94-.27-.06-.06-.18-.17-.36-.34-.18-.16-.27-.38-.27-.65,0-.18.07-.25.22-.22.24.06.49.13.76.2.27.07.57.11.89.11,1.76,0,3.23-.59,4.42-1.76,1.19-1.18,1.79-2.85,1.79-5.03s-.6-3.92-1.79-5.23c-1.19-1.31-2.99-1.97-5.41-1.97-.27,0-.68.02-1.23.04-.55.03-.87.15-.96.36-.12.27-.19.72-.2,1.36-.02.64-.02,1.29-.02,1.94v18.58c0,.66,0,1.27.02,1.83.01.57.08,1.03.2,1.38.06.15.3.28.71.4.42.12.86.2,1.32.25.46.04.78.07.96.07.09.12.14.33.16.63.01.3-.04.51-.16.63-.89-.06-1.75-.11-2.57-.16-.82-.04-1.66-.07-2.52-.07s-1.68.02-2.52.07-1.72.1-2.61.16c-.12-.12-.17-.33-.16-.63.02-.3.07-.51.16-.63.18,0,.5-.02.96-.07s.91-.13,1.34-.25c.43-.12.66-.25.69-.4.12-.36.19-.82.2-1.38.01-.57.02-1.18.02-1.83V6.61c0-.65,0-1.27-.02-1.85-.02-.58-.08-1.05-.2-1.41-.03-.18-.26-.31-.69-.4-.43-.09-.88-.16-1.34-.2-.46-.04-.78-.07-.96-.07-.09-.12-.14-.33-.16-.63-.01-.3.04-.51.16-.63.89.03,1.76.07,2.61.11s1.69.07,2.52.07,1.79-.01,2.79-.04c1-.03,2.14-.04,3.42-.04,1.55,0,3.03.31,4.45.92,1.41.61,2.58,1.5,3.48,2.66.91,1.16,1.36,2.59,1.36,4.29Z"/><path d="M243.78,11.26c.83,0,1.62.27,2.34.8.73.54,1.32,1.25,1.77,2.14.45.89.67,1.91.67,3.04v8.98c0,.57.1,1.05.31,1.45.21.4.55.6,1.03.6.42,0,.74-.09.98-.27.24-.18.39-.28.45-.31.06,0,.1.04.13.13.03.09.04.16.04.22,0,.33-.08.61-.22.85-.18.15-.47.36-.87.63-.4.27-.82.51-1.25.71-.43.21-.81.31-1.14.31-.63,0-1.18-.31-1.67-.94-.49-.63-.81-1.27-.96-1.92-.12.12-.39.34-.83.67-.43.33-.93.66-1.5,1.01-.57.34-1.12.64-1.67.89-.55.25-1.02.38-1.41.38-1.43,0-2.63-.48-3.62-1.45-.98-.97-1.47-2.15-1.47-3.55,0-.89.25-1.66.74-2.3.49-.64.98-1.05,1.45-1.23.83-.3,1.76-.62,2.79-.96,1.03-.34,1.99-.68,2.88-1.01.89-.33,1.55-.58,1.97-.76.24-.09.39-.2.45-.34s.09-.39.09-.78v-1.16c0-.65-.16-1.3-.49-1.94-.33-.64-.78-1.18-1.34-1.61-.57-.43-1.21-.65-1.92-.65s-1.29.24-1.65.71c-.36.48-.61,1.15-.76,2.01-.27,1.4-.95,2.1-2.06,2.1-.48,0-.84-.19-1.09-.58-.25-.39-.38-.8-.38-1.25,0-.09.03-.26.09-.51.06-.25.13-.44.22-.56.45-.42,1.09-.91,1.92-1.47.83-.57,1.78-1.06,2.84-1.47,1.06-.42,2.11-.63,3.15-.63ZM241.45,28.28c.51,0,1.06-.12,1.65-.36.59-.24,1.1-.5,1.52-.78.42-.28.62-.5.62-.65v-5.94c-.57.18-1.28.4-2.14.67-.86.27-1.5.48-1.92.63-.78.3-1.42.73-1.92,1.3-.51.57-.76,1.27-.76,2.1s.28,1.51.85,2.12c.57.61,1.27.92,2.1.92Z"/><path d="M265.63,11.21c.57,0,1.1.13,1.61.38.51.25.86.56,1.07.92.06.12.1.28.13.49.03.21.04.43.04.67,0,.8-.19,1.39-.56,1.74-.37.36-.68.54-.92.54-.3,0-.58-.1-.85-.31-.27-.21-.52-.39-.76-.54-.21-.15-.43-.28-.65-.38-.22-.1-.54-.16-.96-.16-.62,0-1.2.26-1.72.78-.52.52-.95,1.09-1.27,1.72-.33.63-.49,1.1-.49,1.43v6.75c0,.66,0,1.27.02,1.83.01.57.08,1.03.2,1.38.06.15.36.28.89.4.54.12,1.1.2,1.7.25s.98.07,1.16.07c.09.12.14.33.16.63.01.3-.04.51-.16.63-.89-.06-1.8-.11-2.73-.16-.92-.04-1.82-.07-2.68-.07s-1.64.02-2.41.07c-.78.04-1.61.1-2.5.16-.12-.12-.17-.33-.16-.63.01-.3.07-.51.16-.63.18,0,.48-.02.92-.07s.84-.13,1.23-.25c.39-.12.6-.25.62-.4.12-.36.19-.82.2-1.38.02-.57.02-1.18.02-1.83v-8.13c0-.3,0-.68-.02-1.16-.02-.48-.08-.85-.2-1.12-.09-.27-.34-.45-.76-.56-.42-.1-.83-.16-1.25-.18-.42-.01-.69-.02-.8-.02-.03-.06-.06-.24-.09-.54-.03-.3,0-.51.09-.63,1.13-.15,2.23-.37,3.31-.67,1.07-.3,2.04-.68,2.9-1.16.12,0,.23.09.33.27s.16.33.16.45c0,.09-.03.43-.09,1.03-.06.6-.11,1.2-.16,1.81-.04.61-.07,1.01-.07,1.18,0,.09.02.13.07.13s.08-.01.11-.04c.3-.63.72-1.3,1.27-2.03.55-.73,1.17-1.35,1.85-1.88.68-.52,1.35-.78,2.01-.78Z"/><path d="M275.4,25.24c0,.66,0,1.27.02,1.83.01.57.08,1.03.2,1.38.06.15.28.28.65.4.37.12.78.2,1.21.25s.74.07.92.07c.09.12.14.33.16.63.01.3-.04.51-.16.63-.89-.06-1.68-.11-2.37-.16-.69-.04-1.46-.07-2.32-.07s-1.59.02-2.26.07-1.45.1-2.35.16c-.12-.12-.17-.33-.16-.63.01-.3.07-.51.16-.63.18,0,.48-.02.89-.07s.82-.13,1.21-.25c.39-.12.6-.25.62-.4.12-.36.19-.82.2-1.38.02-.57.02-1.18.02-1.83V5.94c0-.33,0-.72-.02-1.18-.01-.46-.08-.83-.2-1.09-.12-.33-.44-.54-.96-.63-.52-.09-1.08-.13-1.67-.13-.03,0-.05-.19-.07-.56-.01-.37.02-.57.11-.6,1.1-.12,2.17-.34,3.22-.65,1.04-.31,2.03-.68,2.95-1.09.12,0,.23.08.34.25.1.16.16.32.16.47-.33,1.31-.49,2.58-.49,3.8v15.55c.39-.15.9-.48,1.54-.98.64-.51,1.33-1.07,2.08-1.7,1.13-.95,2.08-1.74,2.84-2.37.76-.63,1.14-1.04,1.14-1.25,0-.24-.14-.4-.42-.49-.28-.09-.59-.16-.92-.2-.33-.04-.57-.07-.71-.07-.12-.15-.17-.39-.16-.71.01-.33.08-.51.2-.54.63.06,1.31.11,2.05.16.74.04,1.46.07,2.14.07,1.52,0,2.8-.07,3.84-.22.09.12.12.34.11.65-.02.31-.05.51-.11.6-.3,0-.81.09-1.54.27-.73.18-1.33.43-1.81.76-.12.09-.43.31-.94.67-.51.36-1.11.8-1.81,1.34-.7.54-1.43,1.1-2.19,1.7-.76.6-1.47,1.16-2.12,1.7,1.1,1.16,2.19,2.35,3.26,3.55s2.03,2.26,2.86,3.17c.83.91,1.41,1.51,1.74,1.81.56.48,1.23.8,1.99.98.76.18,1.42.25,1.99.22.06.06.1.22.11.47.01.25,0,.44-.07.56-.15.06-.51.12-1.07.18-.57.06-1.15.09-1.74.09-1.28,0-2.41-.23-3.4-.69-.98-.46-1.64-.87-1.96-1.23-.8-.86-1.54-1.65-2.19-2.35-.66-.7-1.34-1.44-2.05-2.21-.71-.77-1.39-1.5-2.01-2.19-.09-.12-.31-.25-.67-.4v3.84Z"/><path d="M325.93,1.43c.36,0,.82-.07,1.38-.22.57-.15.98-.28,1.25-.4.24-.12.4-.18.49-.18s.19.03.31.09c.15,1.34.32,2.64.51,3.89.19,1.25.41,2.46.65,3.62-.06.06-.16.13-.31.22-.15.09-.33.12-.54.09-.33,0-.54-.07-.63-.22-.3-1.52-.79-2.78-1.47-3.8-.69-1.01-1.58-1.52-2.68-1.52h-5.54v22.25c0,.66,0,1.27.02,1.83.01.57.08,1.03.2,1.38.06.15.3.28.71.4.42.12.86.2,1.32.25s.78.07.96.07c.09.12.14.33.16.63.01.3-.04.51-.16.63-.89-.06-1.75-.11-2.57-.16-.82-.04-1.66-.07-2.52-.07s-1.68.02-2.55.07-1.74.1-2.64.16c-.12-.12-.17-.33-.16-.63.01-.3.07-.51.16-.63.18,0,.51-.02.98-.07s.93-.13,1.36-.25c.43-.12.66-.25.69-.4.12-.36.19-.82.2-1.38.01-.57.02-1.18.02-1.83V2.99h-5.63c-1.1,0-2,.51-2.68,1.52-.69,1.01-1.19,2.28-1.52,3.8-.09.15-.3.22-.63.22-.21.03-.38,0-.51-.09s-.23-.16-.29-.22c.24-1.16.45-2.37.62-3.62.18-1.25.34-2.55.49-3.89.15-.06.33-.07.54-.02.21.04.37.1.49.16.27.12.65.25,1.14.38.49.13.92.2,1.27.2h17.07Z"/><path d="M337.55,11.12c1.94,0,3.6.42,4.98,1.25,1.38.83,2.46,1.97,3.22,3.4.76,1.43,1.14,3.05,1.14,4.87s-.4,3.57-1.21,5.07c-.8,1.5-1.91,2.7-3.31,3.57-1.4.88-2.98,1.32-4.74,1.32-1.91,0-3.57-.42-4.98-1.27-1.42-.85-2.5-2-3.26-3.44-.76-1.44-1.14-3.07-1.14-4.89s.41-3.56,1.23-5.05c.82-1.49,1.93-2.67,3.33-3.53,1.4-.86,2.98-1.3,4.74-1.3ZM337.05,12.6c-1.22,0-2.21.37-2.95,1.09-.74.73-1.28,1.67-1.61,2.81-.33,1.15-.49,2.35-.49,3.6,0,1.4.23,2.8.69,4.2.46,1.4,1.15,2.56,2.05,3.48.91.92,2.02,1.39,3.33,1.39s2.24-.36,2.97-1.09c.73-.73,1.26-1.68,1.59-2.84s.49-2.35.49-3.57c0-1.43-.24-2.84-.71-4.22-.48-1.38-1.16-2.54-2.06-3.46-.89-.92-2-1.38-3.31-1.38Z"/><path d="M352,11.75c.83,0,1.56-.03,2.17-.09.61-.06,1.35-.1,2.21-.13.06.12.08.34.07.67-.02.33-.07.52-.16.58-.12,0-.36.02-.71.07s-.69.13-1.01.27c-.31.13-.47.36-.47.69,0,.06.07.28.22.67.27.69.77,1.92,1.52,3.71.74,1.79,1.73,4.13,2.95,7.01,1.13-2.83,2-5.01,2.61-6.54.61-1.53.92-2.4.92-2.61,0-.15-.1-.48-.29-1.01-.19-.52-.44-.99-.74-1.41-.24-.36-.55-.59-.94-.69-.39-.1-.71-.16-.98-.16-.12-.06-.18-.25-.18-.58s.06-.55.18-.67c.6.03,1.08.06,1.45.09.37.03.74.06,1.09.09.36.03.83.04,1.43.04.83,0,1.58-.03,2.23-.09.65-.06,1.41-.1,2.28-.13.06.12.09.33.09.65s-.04.51-.13.6c-1.43,0-2.14.48-2.14,1.43,0,.15.03.3.09.45.18.57.59,1.67,1.23,3.31.64,1.64,1.56,4.01,2.75,7.1.86-2.11,1.65-4.04,2.35-5.79.7-1.74,1.2-3.07,1.5-4,.09-.24.15-.45.18-.63.03-.18.04-.31.04-.4,0-.42-.15-.72-.45-.92-.3-.19-.65-.33-1.05-.4-.4-.07-.77-.13-1.09-.16-.09-.06-.14-.25-.16-.58-.02-.33.04-.55.16-.67.6.03,1.06.06,1.38.09.33.03.66.06,1.01.09.34.03.81.04,1.41.04.83,0,1.49-.03,1.96-.09.48-.06,1.15-.1,2.01-.13.03.06.05.25.07.58.01.33-.05.55-.2.67-.12,0-.38.04-.78.13-.4.09-.82.25-1.25.47-.43.22-.74.56-.92,1.01-.8,2.03-1.53,3.84-2.17,5.43-.64,1.59-1.28,3.19-1.92,4.78-.64,1.59-1.39,3.4-2.26,5.43-.06.18-.19.35-.38.51-.19.16-.37.25-.51.25-.3,0-.48-.06-.54-.18l-4.83-12.6-4.74,11.93c-.03.06-.16.22-.38.47s-.45.38-.69.38c-.21,0-.34-.06-.4-.18-.69-1.7-1.3-3.22-1.85-4.58-.55-1.35-1.09-2.67-1.61-3.93-.52-1.27-1.07-2.56-1.65-3.89-.58-1.32-1.23-2.81-1.94-4.45-.21-.48-.59-.76-1.14-.85-.55-.09-.96-.13-1.23-.13-.06-.15-.09-.36-.09-.65s.03-.48.09-.6c.89.03,1.62.07,2.17.13.55.06,1.27.09,2.17.09Z"/><path d="M382.48,19.48c-.03,1.85.28,3.4.94,4.65.66,1.25,1.53,2.18,2.64,2.79,1.1.61,2.29.92,3.57.92.8,0,1.53-.14,2.19-.42.65-.28,1.21-.61,1.65-.98.45-.37.76-.66.94-.87.03,0,.1.05.2.16.1.1.16.25.16.42,0,.24-.09.51-.27.8-.27.42-.69.92-1.25,1.5-.57.58-1.28,1.09-2.14,1.54-.86.45-1.86.67-2.99.67-1.7,0-3.2-.4-4.51-1.21-1.31-.8-2.34-1.89-3.08-3.26-.75-1.37-1.12-2.9-1.12-4.6,0-1.46.26-2.82.78-4.09.52-1.27,1.21-2.37,2.05-3.31.85-.94,1.78-1.68,2.79-2.21,1.01-.54,2-.8,2.95-.8,1.31,0,2.39.22,3.24.67.85.45,1.52,1,2.01,1.65.49.66.83,1.31,1.03,1.97.19.66.29,1.21.29,1.65,0,.63-.07,1.12-.22,1.47-.15.36-.43.55-.85.58-.27.03-.8.05-1.59.07-.79.02-1.69.04-2.7.07-1.01.03-2.01.06-2.99.09-.98.03-1.82.05-2.5.07-.69.02-1.09.02-1.21.02ZM382.7,17.87h7.1c.27,0,.5-.07.69-.22.19-.15.31-.42.33-.8.03-.36-.07-.86-.31-1.52-.24-.65-.62-1.25-1.14-1.79-.52-.54-1.23-.8-2.12-.8s-1.68.26-2.28.78c-.6.52-1.06,1.12-1.41,1.79-.34.67-.58,1.27-.71,1.79-.13.52-.19.78-.16.78Z"/><path d="M409,11.21c.57,0,1.1.13,1.61.38.51.25.86.56,1.07.92.06.12.1.28.13.49.03.21.04.43.04.67,0,.8-.19,1.39-.56,1.74-.37.36-.68.54-.92.54-.3,0-.58-.1-.85-.31-.27-.21-.52-.39-.76-.54-.21-.15-.42-.28-.65-.38-.22-.1-.54-.16-.96-.16-.62,0-1.2.26-1.72.78-.52.52-.95,1.09-1.27,1.72-.33.63-.49,1.1-.49,1.43v6.75c0,.66,0,1.27.02,1.83.01.57.08,1.03.2,1.38.06.15.36.28.89.4.54.12,1.1.2,1.7.25s.98.07,1.16.07c.09.12.14.33.16.63.01.3-.04.51-.16.63-.89-.06-1.8-.11-2.73-.16-.92-.04-1.82-.07-2.68-.07s-1.64.02-2.41.07-1.61.1-2.5.16c-.12-.12-.17-.33-.16-.63.01-.3.07-.51.16-.63.18,0,.48-.02.92-.07.43-.04.84-.13,1.23-.25.39-.12.6-.25.62-.4.12-.36.19-.82.2-1.38.01-.57.02-1.18.02-1.83v-8.13c0-.3,0-.68-.02-1.16-.01-.48-.08-.85-.2-1.12-.09-.27-.34-.45-.76-.56-.42-.1-.83-.16-1.25-.18-.42-.01-.69-.02-.8-.02-.03-.06-.06-.24-.09-.54-.03-.3,0-.51.09-.63,1.13-.15,2.23-.37,3.31-.67,1.07-.3,2.04-.68,2.9-1.16.12,0,.23.09.33.27s.16.33.16.45c0,.09-.03.43-.09,1.03-.06.6-.11,1.2-.16,1.81-.04.61-.07,1.01-.07,1.18,0,.09.02.13.07.13s.08-.01.11-.04c.3-.63.72-1.3,1.27-2.03.55-.73,1.17-1.35,1.85-1.88.69-.52,1.36-.78,2.01-.78Z"/><path d="M447.69,1.43c.36,0,.82-.07,1.39-.22.57-.15.98-.28,1.25-.4.24-.12.4-.18.49-.18s.19.03.31.09c.15,1.34.32,2.64.51,3.89.19,1.25.41,2.46.65,3.62-.06.06-.16.13-.31.22-.15.09-.33.12-.54.09-.33,0-.54-.07-.62-.22-.3-1.52-.79-2.78-1.47-3.8-.69-1.01-1.58-1.52-2.68-1.52h-5.54v22.25c0,.66,0,1.27.02,1.83.01.57.08,1.03.2,1.38.06.15.3.28.71.4.42.12.86.2,1.32.25.46.04.78.07.96.07.09.12.14.33.16.63.01.3-.04.51-.16.63-.89-.06-1.75-.11-2.57-.16-.82-.04-1.66-.07-2.52-.07s-1.68.02-2.55.07c-.86.04-1.74.1-2.64.16-.12-.12-.17-.33-.16-.63.01-.3.07-.51.16-.63.18,0,.51-.02.98-.07s.93-.13,1.36-.25c.43-.12.66-.25.69-.4.12-.36.19-.82.2-1.38.01-.57.02-1.18.02-1.83V2.99h-5.63c-1.1,0-2,.51-2.68,1.52-.69,1.01-1.19,2.28-1.52,3.8-.09.15-.3.22-.63.22-.21.03-.38,0-.51-.09-.13-.09-.23-.16-.29-.22.24-1.16.45-2.37.62-3.62.18-1.25.34-2.55.49-3.89.15-.06.33-.07.54-.02.21.04.37.1.49.16.27.12.65.25,1.14.38.49.13.92.2,1.27.2h17.07Z"/><path d="M459.31,11.12c1.94,0,3.6.42,4.98,1.25,1.38.83,2.46,1.97,3.22,3.4.76,1.43,1.14,3.05,1.14,4.87s-.4,3.57-1.21,5.07c-.8,1.5-1.91,2.7-3.31,3.57-1.4.88-2.98,1.32-4.74,1.32-1.91,0-3.57-.42-4.98-1.27-1.42-.85-2.5-2-3.26-3.44-.76-1.44-1.14-3.07-1.14-4.89s.41-3.56,1.23-5.05c.82-1.49,1.93-2.67,3.33-3.53,1.4-.86,2.98-1.3,4.74-1.3ZM458.82,12.6c-1.22,0-2.2.37-2.95,1.09-.75.73-1.28,1.67-1.61,2.81-.33,1.15-.49,2.35-.49,3.6,0,1.4.23,2.8.69,4.2.46,1.4,1.15,2.56,2.05,3.48.91.92,2.02,1.39,3.33,1.39s2.24-.36,2.97-1.09c.73-.73,1.26-1.68,1.59-2.84s.49-2.35.49-3.57c0-1.43-.24-2.84-.71-4.22-.48-1.38-1.16-2.54-2.06-3.46-.89-.92-2-1.38-3.31-1.38Z"/><path d="M476.69,25.24c0,.66,0,1.27.02,1.83.01.57.08,1.03.2,1.38.06.15.27.28.65.4.37.12.77.2,1.21.25s.74.07.92.07c.09.12.14.33.16.63.01.3-.04.51-.16.63-.89-.06-1.68-.11-2.37-.16-.68-.04-1.46-.07-2.32-.07s-1.59.02-2.26.07c-.67.04-1.45.1-2.34.16-.12-.12-.17-.33-.16-.63.01-.3.07-.51.16-.63.18,0,.48-.02.89-.07.42-.04.82-.13,1.21-.25.39-.12.6-.25.62-.4.12-.36.19-.82.2-1.38.01-.57.02-1.18.02-1.83V5.94c0-.33,0-.72-.02-1.18-.02-.46-.08-.83-.2-1.09-.12-.33-.44-.54-.96-.63-.52-.09-1.08-.13-1.68-.13-.03,0-.05-.19-.07-.56-.02-.37.02-.57.11-.6,1.1-.12,2.17-.34,3.22-.65,1.04-.31,2.02-.68,2.95-1.09.12,0,.23.08.33.25.1.16.16.32.16.47-.33,1.31-.49,2.58-.49,3.8v15.55c.39-.15.9-.48,1.54-.98.64-.51,1.33-1.07,2.08-1.7,1.13-.95,2.08-1.74,2.84-2.37.76-.63,1.14-1.04,1.14-1.25,0-.24-.14-.4-.42-.49s-.59-.16-.92-.2c-.33-.04-.57-.07-.71-.07-.12-.15-.17-.39-.16-.71.01-.33.08-.51.2-.54.63.06,1.31.11,2.06.16.74.04,1.46.07,2.14.07,1.52,0,2.8-.07,3.84-.22.09.12.13.34.11.65-.02.31-.05.51-.11.6-.3,0-.81.09-1.54.27-.73.18-1.33.43-1.81.76-.12.09-.43.31-.94.67-.51.36-1.11.8-1.81,1.34s-1.43,1.1-2.19,1.7c-.76.6-1.47,1.16-2.12,1.7,1.1,1.16,2.19,2.35,3.26,3.55s2.03,2.26,2.86,3.17c.83.91,1.41,1.51,1.74,1.81.57.48,1.23.8,1.99.98s1.42.25,1.99.22c.06.06.1.22.11.47.01.25,0,.44-.07.56-.15.06-.51.12-1.07.18-.57.06-1.15.09-1.74.09-1.28,0-2.41-.23-3.39-.69-.98-.46-1.64-.87-1.97-1.23-.8-.86-1.53-1.65-2.19-2.35-.66-.7-1.34-1.44-2.05-2.21-.71-.77-1.38-1.5-2.01-2.19-.09-.12-.31-.25-.67-.4v3.84Z"/><path d="M497.04,11.75c.83,0,1.67-.03,2.52-.09.85-.06,1.47-.1,1.85-.13.06.12.07.36.04.71-.03.36-.1.54-.22.54-.09,0-.31.02-.67.04-.36.03-.69.1-1,.2-.31.1-.47.28-.47.51,0,.06.01.12.04.18l4.65,11.79c.48-1.28.91-2.42,1.29-3.42.39-1,.8-2.08,1.25-3.24.45-1.16.88-2.25,1.3-3.26.12-.27.19-.53.22-.78.03-.25.04-.45.04-.6,0-.45-.23-.8-.69-1.05-.46-.25-1.06-.38-1.81-.38-.12,0-.18-.18-.18-.54s.06-.6.18-.71c.33.03.84.07,1.54.13.7.06,1.5.09,2.39.09.83,0,1.54-.03,2.12-.09.58-.06,1.09-.1,1.54-.13.09.12.11.36.07.71s-.11.54-.2.54c-.12,0-.37.04-.74.13-.37.09-.76.24-1.16.45-.4.21-.69.52-.87.94-.66,1.55-1.24,2.95-1.76,4.2-.52,1.25-1.03,2.46-1.52,3.64-.49,1.18-1,2.4-1.52,3.66-.52,1.27-1.09,2.67-1.72,4.22-.54,1.34-1.06,2.68-1.56,4.02-.51,1.34-1.15,2.59-1.92,3.75-.48.74-1.05,1.34-1.72,1.79-.67.45-1.36.67-2.08.67-.42,0-.83-.12-1.25-.36-.42-.24-.62-.74-.62-1.52,0-.27.05-.52.16-.76.1-.24.22-.42.33-.54.68,0,1.29-.04,1.81-.11.52-.07,1.03-.29,1.52-.65.49-.36,1.04-.92,1.63-1.7.24-.33.51-.81.8-1.45.3-.64.57-1.26.83-1.85.25-.6.39-.97.42-1.12-.8-2.08-1.56-4.03-2.28-5.83-.71-1.8-1.44-3.57-2.17-5.32-.73-1.74-1.53-3.54-2.39-5.38-.21-.45-.58-.71-1.12-.78-.54-.07-.94-.11-1.21-.11h-.09s-.04-.2-.04-.6.01-.62.04-.65c.42.03,1.03.07,1.83.13.8.06,1.65.09,2.55.09Z"/><path d="M522.93,11.12c1.94,0,3.6.42,4.98,1.25,1.38.83,2.46,1.97,3.22,3.4.76,1.43,1.14,3.05,1.14,4.87s-.4,3.57-1.21,5.07c-.8,1.5-1.91,2.7-3.31,3.57-1.4.88-2.98,1.32-4.74,1.32-1.91,0-3.57-.42-4.98-1.27-1.42-.85-2.5-2-3.26-3.44-.76-1.44-1.14-3.07-1.14-4.89s.41-3.56,1.23-5.05c.82-1.49,1.93-2.67,3.33-3.53,1.4-.86,2.98-1.3,4.74-1.3ZM522.44,12.6c-1.22,0-2.2.37-2.95,1.09-.75.73-1.28,1.67-1.61,2.81-.33,1.15-.49,2.35-.49,3.6,0,1.4.23,2.8.69,4.2.46,1.4,1.15,2.56,2.05,3.48.91.92,2.02,1.39,3.33,1.39s2.24-.36,2.97-1.09c.73-.73,1.26-1.68,1.59-2.84s.49-2.35.49-3.57c0-1.43-.24-2.84-.71-4.22-.48-1.38-1.16-2.54-2.06-3.46-.89-.92-2-1.38-3.31-1.38Z"/><line class="cls-1" x1="7.48" y1="169.58" x2="244" y2="169.58"/><line class="cls-1" y1="283.58" x2="631" y2="283.58"/></g></svg>