<?xml version="1.0" encoding="UTF-8"?><svg id="_レイヤー_2" xmlns="http://www.w3.org/2000/svg" viewBox="0 0 48.47 48.47"><defs><style>.cls-1{fill:#4d4d4d;}</style></defs><g id="_レイヤー_1-2"><g id="_グループ_104"><path id="_パス_13" class="cls-1" d="M24.23,4.37c6.47,0,7.24.03,9.79.14,1.54.02,3.06.3,4.5.83,1.05.39,2,1.01,2.79,1.81.8.78,1.42,1.73,1.81,2.79.53,1.44.82,2.96.83,4.5.12,2.55.14,3.32.14,9.79s-.02,7.24-.14,9.79c-.02,1.54-.3,3.06-.83,4.5-.82,2.11-2.49,3.78-4.6,4.6-1.44.53-2.96.82-4.5.83-2.56.12-3.32.14-9.79.14s-7.23-.03-9.79-.14c-1.54-.02-3.06-.3-4.5-.83-1.05-.39-2-1.01-2.79-1.81-.8-.78-1.42-1.73-1.81-2.79-.53-1.44-.82-2.96-.83-4.5-.12-2.56-.14-3.32-.14-9.79s.02-7.24.14-9.79c.02-1.54.3-3.06.83-4.5.39-1.05,1.01-2,1.81-2.79.78-.81,1.73-1.42,2.79-1.81,1.44-.53,2.96-.82,4.5-.83,2.56-.12,3.32-.14,9.79-.14M24.23,0C17.65,0,16.83.03,14.24.15c-2.01.04-4,.42-5.88,1.13-1.62.61-3.08,1.57-4.29,2.8-1.23,1.21-2.19,2.67-2.8,4.29-.7,1.88-1.08,3.87-1.12,5.88-.12,2.58-.15,3.41-.15,9.99s.03,7.41.15,9.99c.04,2.01.42,4,1.13,5.88.61,1.62,1.57,3.08,2.8,4.29,1.21,1.23,2.67,2.19,4.29,2.8,1.88.71,3.87,1.09,5.88,1.13,2.59.12,3.41.15,9.99.15s7.41-.03,9.99-.15c2.01-.04,4-.42,5.88-1.13,3.25-1.26,5.83-3.83,7.09-7.09.7-1.88,1.09-3.87,1.13-5.88.12-2.58.15-3.41.15-9.99s-.03-7.41-.15-9.99c-.04-2.01-.42-4-1.13-5.88-.61-1.62-1.57-3.08-2.8-4.29-1.21-1.23-2.67-2.19-4.29-2.8-1.88-.7-3.87-1.09-5.88-1.13-2.58-.12-3.41-.15-9.99-.15"/><path id="_パス_14" class="cls-1" d="M24.23,11.79c-6.87,0-12.44,5.57-12.44,12.44,0,6.87,5.57,12.44,12.44,12.44,6.87,0,12.44-5.57,12.44-12.44s-5.57-12.44-12.44-12.44h0M24.23,32.31c-4.46,0-8.08-3.62-8.08-8.08s3.62-8.08,8.08-8.08,8.08,3.62,8.08,8.08-3.62,8.08-8.08,8.08"/><path id="_パス_15" class="cls-1" d="M40.08,11.3c0,1.61-1.3,2.91-2.91,2.91s-2.91-1.3-2.91-2.91,1.3-2.91,2.91-2.91,2.91,1.3,2.91,2.91h0"/></g></g></svg>