<?xml version="1.0" encoding="UTF-8"?><svg id="_レイヤー_2" xmlns="http://www.w3.org/2000/svg" viewBox="0 0 223.23 202.23"><defs><style>.cls-1{fill:#fff;}.cls-2{fill:#c9311c;}</style></defs><g id="_レイヤー_1-2"><polygon class="cls-2" points="189.98 0 33.24 0 0 69.79 72.29 202.23 111.61 202.23 150.94 202.23 223.23 69.79 189.98 0"/><path class="cls-1" d="M170.5,78.81h2.46v1.32h-2.46v6.41c0,.33.08.56.25.7.16.14.45.21.85.21h.83v1.38h-.95c-.91,0-1.54-.17-1.91-.51-.37-.34-.55-.94-.55-1.8v-6.39h-1.51v-1.32h1.51v-2.27h1.48v2.27ZM183.31,81.84c-.31-.57-.75-1.02-1.32-1.33-.57-.31-1.24-.47-2.01-.47-.54,0-1.07.11-1.59.33-.52.22-.91.51-1.19.88h-.04v-4.71h-1.49v12.29h1.49v-4.78c0-.52.11-.97.33-1.36.22-.39.53-.7.94-.93.4-.23.86-.34,1.38-.34.78,0,1.39.24,1.83.71s.66,1.11.66,1.92v4.78h1.48v-4.97c0-.77-.15-1.44-.46-2.01Z"/><path class="cls-1" d="M69.14,33.79v-11.86h-4.16v-1.49h9.89v1.49h-4.15v11.86h-1.58ZM76.93,33.79v-13.91h1.51v4.75h.04c.28-.37.68-.66,1.2-.89.52-.22,1.05-.33,1.6-.33.78,0,1.45.16,2.03.48.58.32,1.02.77,1.33,1.34.31.58.47,1.25.47,2.03v6.54h-1.49v-6.35c0-.81-.22-1.46-.67-1.94-.45-.48-1.06-.71-1.85-.71-.52,0-.98.11-1.39.34s-.72.54-.94.93c-.22.39-.33.85-.33,1.37v6.35h-1.51ZM91.97,34.08c-.93,0-1.74-.22-2.45-.67s-1.25-1.07-1.65-1.88-.59-1.74-.59-2.79.2-1.99.59-2.79c.39-.81.95-1.43,1.66-1.88.71-.44,1.53-.67,2.44-.67s1.69.21,2.37.63c.68.42,1.21,1.01,1.58,1.76s.56,1.63.56,2.62v.76h-7.68c.01.65.15,1.24.42,1.78.27.54.63.97,1.11,1.29.47.32,1,.48,1.6.48.71,0,1.3-.15,1.75-.45.46-.3.9-.82,1.33-1.57l1.24.74c-.43.86-1.01,1.52-1.73,1.96s-1.58.67-2.55.67ZM94.98,27.98c-.03-.61-.17-1.16-.42-1.64-.25-.48-.61-.87-1.06-1.15-.45-.29-.96-.43-1.53-.43s-1.09.15-1.56.45c-.47.3-.85.7-1.13,1.19-.29.5-.43,1.02-.43,1.58h6.14ZM104.72,33.79v-13.34h5.17c.93,0,1.73.17,2.4.5.67.33,1.19.81,1.53,1.43.35.62.52,1.35.52,2.19s-.17,1.58-.52,2.18-.86,1.07-1.53,1.4-1.47.5-2.4.5h-3.58v5.15h-1.58ZM109.79,27.16c1.02,0,1.77-.21,2.25-.64s.72-1.08.72-1.95-.24-1.55-.73-1.98c-.49-.43-1.24-.65-2.24-.65h-3.49v5.22h3.49ZM116.52,33.79v-10.1h1.43v.84h.04c.19-.32.47-.57.83-.74.36-.18.78-.27,1.27-.27.31,0,.64.05,1.01.15l-.32,1.54c-.17-.05-.33-.09-.5-.12s-.33-.05-.5-.05c-.6,0-1.04.21-1.33.64-.29.43-.43,1.11-.43,2.05v6.06h-1.51ZM123.06,21.9v-1.66h1.72v1.66h-1.72ZM123.17,33.79v-10.1h1.51v10.1h-1.51ZM127.31,33.79v-10.1h1.47v.93h.04c.3-.37.72-.66,1.24-.89.52-.22,1.05-.33,1.6-.33.77,0,1.45.16,2.03.48s1.02.77,1.33,1.34c.31.58.47,1.25.47,2.03v6.54h-1.49v-6.35c0-.81-.22-1.46-.67-1.94-.45-.48-1.06-.71-1.85-.71-.52,0-.98.11-1.39.34s-.72.54-.94.93c-.22.39-.33.85-.33,1.37v6.35h-1.51ZM142.35,34.08c-.91,0-1.73-.22-2.44-.67-.71-.44-1.26-1.07-1.66-1.89-.39-.81-.59-1.74-.59-2.78s.2-1.97.59-2.78c.39-.81.95-1.44,1.66-1.89.71-.44,1.53-.67,2.44-.67.76,0,1.46.15,2.09.45.63.3,1.14.72,1.54,1.28.39.55.65,1.2.78,1.95l-1.45.3c-.14-.81-.47-1.45-.99-1.91-.52-.46-1.18-.69-1.96-.69-.62,0-1.18.17-1.66.5s-.86.79-1.12,1.39c-.27.6-.4,1.28-.4,2.06s.13,1.46.4,2.06c.27.6.64,1.06,1.12,1.39s1.04.5,1.66.5c.79,0,1.44-.23,1.96-.69.52-.46.85-1.09.99-1.91l1.45.31c-.13.75-.39,1.4-.78,1.95-.39.55-.91.98-1.54,1.28-.63.3-1.32.45-2.09.45ZM153.54,34.08c-.93,0-1.74-.22-2.45-.67s-1.25-1.07-1.65-1.88-.59-1.74-.59-2.79.2-1.99.59-2.79c.39-.81.95-1.43,1.66-1.88.71-.44,1.53-.67,2.44-.67s1.69.21,2.37.63c.68.42,1.21,1.01,1.58,1.76s.56,1.63.56,2.62v.76h-7.68c.01.65.15,1.24.42,1.78.27.54.63.97,1.11,1.29.47.32,1,.48,1.6.48.71,0,1.3-.15,1.75-.45.46-.3.9-.82,1.33-1.57l1.24.74c-.43.86-1.01,1.52-1.73,1.96s-1.58.67-2.55.67ZM156.55,27.98c-.03-.61-.17-1.16-.42-1.64-.25-.48-.61-.87-1.06-1.15-.45-.29-.96-.43-1.53-.43s-1.09.15-1.56.45c-.47.3-.85.7-1.13,1.19-.29.5-.43,1.02-.43,1.58h6.14ZM36.19,56.6v-13.34h5.17c.93,0,1.73.17,2.4.5.67.33,1.18.81,1.53,1.43.35.62.52,1.35.52,2.19s-.18,1.58-.52,2.18-.86,1.07-1.53,1.4c-.67.33-1.47.5-2.4.5h-3.58v5.15h-1.58ZM41.26,49.96c1.02,0,1.77-.21,2.25-.64.48-.43.72-1.08.72-1.95s-.25-1.55-.73-1.98c-.49-.43-1.24-.65-2.24-.65h-3.49v5.22h3.49ZM50.64,56.88c-.67,0-1.26-.12-1.76-.35-.5-.23-.89-.57-1.15-.99-.27-.43-.4-.93-.4-1.52s.12-1.06.36-1.46c.24-.4.62-.74,1.13-1.02s1.2-.52,2.05-.72c.66-.17,1.17-.32,1.53-.48.36-.15.63-.33.79-.52s.25-.44.25-.71c0-.47-.19-.84-.56-1.12s-.88-.42-1.51-.42-1.21.19-1.66.58c-.45.39-.74.92-.88,1.59l-1.51-.29c.11-.66.35-1.23.72-1.72.37-.48.84-.86,1.41-1.12.57-.27,1.21-.4,1.91-.4.75,0,1.4.13,1.95.4.55.27.97.65,1.26,1.13s.43,1.07.43,1.74v7.11h-1.39v-1.07h-.04c-.32.42-.73.75-1.25.99-.52.24-1.08.36-1.69.36ZM50.75,55.49c.52,0,.99-.1,1.42-.31.43-.2.76-.48.99-.82.24-.34.35-.74.35-1.18v-2.27h-.04c-.1.24-.32.45-.67.64-.34.18-.86.37-1.54.56-.58.15-1.06.31-1.42.48-.36.17-.63.36-.79.57-.17.22-.25.47-.25.76,0,.51.17.9.5,1.16.33.27.81.4,1.45.4ZM57.56,56.6v-10.1h1.43v.84h.04c.19-.32.47-.57.83-.74s.78-.27,1.27-.27c.31,0,.64.05,1.01.15l-.32,1.54c-.17-.05-.33-.09-.5-.12s-.33-.05-.5-.05c-.6,0-1.04.21-1.32.64s-.43,1.11-.43,2.05v6.06h-1.51ZM64.21,56.6v-13.91h1.51v8.42h.04l4.4-4.61h1.91l-3.75,3.91,4,6.19h-1.75l-3.3-5.17h-.04l-1.51,1.62v3.55h-1.51ZM83.29,56.6v-11.86h-4.15v-1.49h9.89v1.49h-4.15v11.86h-1.58ZM93.49,56.88c-.94,0-1.77-.22-2.5-.67-.72-.44-1.28-1.07-1.68-1.88s-.59-1.74-.59-2.79.2-1.99.59-2.79c.39-.81.95-1.43,1.68-1.88.72-.44,1.56-.67,2.5-.67s1.77.22,2.5.67c.72.45,1.28,1.07,1.68,1.88.39.81.59,1.74.59,2.79s-.2,1.99-.59,2.79-.95,1.43-1.68,1.88-1.56.67-2.5.67ZM93.49,55.49c.67,0,1.25-.16,1.73-.49.48-.32.86-.78,1.13-1.38.27-.6.41-1.29.41-2.08s-.14-1.48-.41-2.08c-.27-.6-.65-1.06-1.13-1.38-.48-.32-1.06-.49-1.73-.49s-1.24.16-1.73.49c-.49.32-.87.78-1.13,1.38-.27.6-.4,1.29-.4,2.08s.13,1.48.4,2.08c.27.6.64,1.06,1.13,1.38.49.32,1.06.49,1.73.49ZM102.01,56.6l-2.42-10.1h1.47l1.83,7.85h.04l2.71-7.85h1.35l2.71,7.85h.04l1.83-7.85h1.47l-2.42,10.1h-1.41l-2.86-8.25h-.04l-2.88,8.25h-1.41ZM119.05,56.88c-.93,0-1.74-.22-2.45-.67s-1.25-1.07-1.65-1.88-.59-1.74-.59-2.79.2-1.99.59-2.79c.39-.81.95-1.43,1.66-1.88.71-.44,1.52-.67,2.44-.67s1.69.21,2.37.63c.68.42,1.21,1.01,1.58,1.76.37.76.56,1.63.56,2.62v.76h-7.68c.01.65.15,1.24.42,1.78.27.54.64.97,1.11,1.29.47.32,1,.48,1.6.48.71,0,1.3-.15,1.75-.45.46-.3.9-.82,1.33-1.57l1.24.74c-.43.86-1.01,1.52-1.73,1.96-.72.44-1.58.67-2.55.67ZM122.06,50.78c-.03-.61-.17-1.16-.42-1.64-.25-.48-.61-.87-1.06-1.15-.45-.29-.96-.43-1.53-.43s-1.09.15-1.56.45-.85.7-1.13,1.19c-.29.5-.43,1.02-.43,1.58h6.14ZM125.96,56.6v-10.1h1.43v.84h.04c.19-.32.47-.57.83-.74.36-.18.78-.27,1.27-.27.31,0,.64.05,1.01.15l-.32,1.54c-.17-.05-.33-.09-.5-.12s-.33-.05-.5-.05c-.6,0-1.04.21-1.33.64-.29.43-.43,1.11-.43,2.05v6.06h-1.51ZM141.5,56.6v-11.86h-4.15v-1.49h9.89v1.49h-4.15v11.86h-1.58ZM151.7,56.88c-.94,0-1.77-.22-2.5-.67-.72-.44-1.28-1.07-1.68-1.88s-.59-1.74-.59-2.79.2-1.99.59-2.79c.39-.81.95-1.43,1.68-1.88.72-.44,1.56-.67,2.5-.67s1.77.22,2.5.67c.72.45,1.28,1.07,1.68,1.88.39.81.59,1.74.59,2.79s-.2,1.99-.59,2.79-.95,1.43-1.68,1.88c-.72.44-1.56.67-2.5.67ZM151.7,55.49c.67,0,1.25-.16,1.73-.49.48-.32.86-.78,1.13-1.38.27-.6.41-1.29.41-2.08s-.14-1.48-.41-2.08c-.27-.6-.65-1.06-1.13-1.38-.48-.32-1.06-.49-1.73-.49s-1.24.16-1.73.49c-.49.32-.87.78-1.13,1.38-.27.6-.4,1.29-.4,2.08s.13,1.48.4,2.08c.27.6.64,1.06,1.13,1.38.49.32,1.06.49,1.73.49ZM158.71,56.6v-13.91h1.51v8.42h.04l4.4-4.61h1.91l-3.75,3.91,4,6.19h-1.75l-3.3-5.17h-.04l-1.51,1.62v3.55h-1.51ZM169.77,60.88l2.17-5.11-3.93-9.28h1.6l3.07,7.53h.04l3.07-7.53h1.58l-6.06,14.39h-1.54ZM183.03,56.88c-.94,0-1.77-.22-2.5-.67-.72-.44-1.28-1.07-1.68-1.88-.39-.81-.59-1.74-.59-2.79s.2-1.99.59-2.79c.39-.81.95-1.43,1.68-1.88.72-.44,1.56-.67,2.5-.67s1.77.22,2.5.67c.72.45,1.28,1.07,1.68,1.88.39.81.59,1.74.59,2.79s-.2,1.99-.59,2.79-.95,1.43-1.68,1.88-1.56.67-2.5.67ZM183.03,55.49c.67,0,1.25-.16,1.73-.49.48-.32.86-.78,1.13-1.38.27-.6.41-1.29.41-2.08s-.14-1.48-.41-2.08c-.27-.6-.65-1.06-1.13-1.38-.48-.32-1.06-.49-1.73-.49s-1.24.16-1.72.49c-.49.32-.87.78-1.13,1.38-.27.6-.4,1.29-.4,2.08s.13,1.48.4,2.08c.27.6.65,1.06,1.13,1.38.49.32,1.06.49,1.72.49Z"/><path class="cls-1" d="M130.58,76.64c-9.21,0-17.72,3.07-24.57,8.23-4.79-5.06-11.57-8.23-19.07-8.23-14.49,0-26.27,11.79-26.27,26.27h1.52c0-13.65,11.1-24.75,24.75-24.75,7.02,0,13.36,2.94,17.86,7.65-9.21,7.5-15.11,18.93-15.11,31.71,0,3.9.56,7.67,1.58,11.24-1.11.54-2.26,1.06-3.49,1.56-26.49,10.81-27.11,26.63-27.12,27.3l-.02.78h69.92c22.55,0,40.89-18.34,40.89-40.89s-18.34-40.89-40.89-40.89ZM130.58,78.16c21.7,0,39.36,17.66,39.36,39.36,0,9.77-3.59,18.72-9.51,25.61l-2.7-4.91c.73-.17,1.28-.31,1.44-.35l.68-.17-1.28-2.8-.92-1.85-.45.1s-.27.06-.68.15l-1.41-6.96-.07-.48c.63-.14,1.18-.27,1.39-.33l.7-.17-.94-2.03-.97-1.94-.45.1c-.1.02-.24.05-.4.09-.93-6.47-1.15-13.52-1.15-15.52v-.59h-1.92v.59c0,2-.22,9.05-1.15,15.52-.16-.03-.3-.07-.4-.09l-.45-.1-.61,1.18-1.3,2.79.7.17c.21.05.76.18,1.39.33l-.07.45-1.43,6.98c-.42-.09-.7-.15-.71-.16l-.45-.1-.96,1.86-.69,1.48-.52,1.23.66.17c.16.04.7.18,1.4.36l-4.8,8.82-.02-44.22-2.3-1.1-3.23-4.13h-5.81s-5.81,0-5.81,0l-3.23,4.18-2.3,1.05v45.99l.02,6.48c-12.37-3.73-22.19-13.38-26.14-25.65,20.39-10.49,20.11-26.5,20.11-26.65,0-6.44-2.33-12.33-6.18-16.91,6.57-4.92,14.73-7.84,23.55-7.84ZM146.28,136.82l.65-1.4.53-1.03c1.03.23,3.55.75,4.77.75.95,0,2.67-.31,3.94-.56.33-.07.61-.13.83-.17l1.2,2.49c-1.77.43-4.95,1.16-5.9,1.16s-4.23-.78-6.02-1.24ZM152.24,123.12h0s.02,0,.03,0h0c.61,0,1.69-.22,2.31-.35l.86,1.81c-1.23.29-2.78.62-3.2.62s-1.95-.33-3.18-.62l.86-1.81c.62.13,1.71.35,2.31.35ZM151.31,121.83c.48-3.33.78-6.82.95-9.72.17,2.89.47,6.38.95,9.72-.37.06-.72.11-.95.11-.23,0-.58-.05-.95-.11ZM150.64,126.12c.69.14,1.32.25,1.63.25s.93-.11,1.62-.25l.06.43,1.42,6.98c-1.44.28-2.54.43-3.13.43-.72,0-2.01-.22-3.09-.43l1.43-7.01.06-.4ZM91.21,117.53c0-12.33,5.71-23.36,14.61-30.58,3.65,4.32,5.86,9.9,5.86,15.99,0,.16.25,15.09-19.03,25.14-.94-3.36-1.45-6.89-1.45-10.55ZM62.28,156.89c.51-3.27,3.9-16.08,26.08-25.14,1.18-.48,2.29-.99,3.36-1.5,4.23,12.89,14.7,22.96,27.82,26.65h-57.26ZM129.17,156.85l-.11-46.68h-1.18s.11,46.62.11,46.62c-.99-.06-1.96-.16-2.93-.3l-.11-48.34h-1.18s.11,48.15.11,48.15c-1.17-.2-2.33-.45-3.46-.75l-.02-6.82v-45.23l1.88-.85,3.05-3.95h5.23s5.23,0,5.23,0l3.05,3.9,1.88.9.02,45.64-3.95,7.26c-2.03.32-4.1.5-6.22.5-.47,0-.94-.02-1.41-.04ZM143.32,154.76c.92-4.03,4.62-7.03,8.93-7.03,1.01,0,1.99.17,2.93.49-3.51,2.82-7.52,5.05-11.86,6.54ZM156.21,147.36c-1.26-.52-2.61-.81-3.96-.81-5.11,0-9.45,3.74-10.22,8.63-1.23.37-2.48.69-3.75.94l9.62-17.69c1.64.39,3.58.8,4.4.8s2.65-.38,4.24-.74l3.06,5.57c-1.06,1.16-2.2,2.25-3.39,3.28Z"/></g></svg>