<?xml version="1.0" encoding="UTF-8"?><svg id="_レイヤー_2" xmlns="http://www.w3.org/2000/svg" xmlns:xlink="http://www.w3.org/1999/xlink" viewBox="0 0 172.53 106.27"><defs><style>.cls-1{fill:url(#_新規グラデーションスウォッ_1);}.cls-2{fill:#803b2d;}.cls-3{fill:#231815;}</style><radialGradient id="_新規グラデーションスウォッ_1" cx="86.27" cy="21.52" fx="86.27" fy="21.52" r="21.47" gradientUnits="userSpaceOnUse"><stop offset="0" stop-color="#bc7958"/><stop offset=".5" stop-color="#934d34"/><stop offset="1" stop-color="#803b2d"/></radialGradient></defs><g id="_レイヤー_1-2"><path class="cls-3" d="M111.49,66.72c-.19.69-.91,1.26-1.62,1.26s-1.13-.56-.94-1.26c.19-.7.92-1.26,1.63-1.26s1.13.56.93,1.26Z"/><path class="cls-3" d="M75.64,73.33c-1.36.33-1.38,1.42-1.33,1.93.09.94.78,1.71,1.8,2.33.98.6,2.16.91,3.55.92,2.49-.04,4.65-.96,6.51-2.77.83-.81,1.52-1.64,2.08-2.49.61-.91,1.92-3.13,3.93-6.65,1.01-1.74,2.22-3.48,3.65-5.23,1.43-1.75,2.66-3,3.7-3.75-1.94-1.48-4.64-2.23-8.09-2.25-4.84.04-8.89,1.78-12.14,5.22-2.7,2.86-3.93,5.54-3.67,8.07.12,1.28.64,2.3,1.55,3.05.88.73,2.01,1.1,3.38,1.12,2.28-.05,4.54-1.15,6.77-3.3,2.28-2.2,3.32-4.34,3.11-6.42-.16-1.6-1.17-2.48-2.71-2.48s-3.43,1-5.19,2.85c-1.81,1.9-2.63,3.69-2.47,5.35.04.41.17.74.49,1.06.21.22.59.43,1.09.5l-.06.28s-1.16-.01-1.83-.74c-.45-.49-.65-1.02-.7-1.88-.1-1.78.69-3.52,2.52-5.22,1.83-1.69,4.19-2.54,6.19-2.54s3.11.91,3.28,2.73c.22,2.22-.84,4.47-3.17,6.73-2.33,2.27-4.73,3.4-7.22,3.4-2.18,0-3.25-.48-4.32-1.43-1.07-.96-1.68-2.24-1.84-3.84-.32-3.24,1.25-6.19,4.71-8.86,3.46-2.67,7.5-4.01,11.96-4.01s6.54.71,8.99,2.14c1.96-1.25,3.56-2.06,6.15-2.06,7.6,0,5.52,8.1,5.19,8.86l-.4-.09c.91-2.78.67-8.25-4.87-8.25-1.76,0-3.76.64-5.64,1.85,1.87,1.38,2.89,2.93,3.06,4.68.14,1.47-.35,2.96-1.44,4.04-1.09,1.09-2.18,1.65-3.99,1.66-.94,0-1.69-.14-2.5-.44-.63-.24-.85-.34-.96-.43l.22-.4c.49.31,1.4.66,2.35.67,1.11.02,2.42-.66,3.25-1.78.83-1.12,1.18-2.47,1.02-4.02-.13-1.29-.69-2.44-1.68-3.46-2.28,1.88-4.31,5.1-6.08,9.66-1.1,2.83-2.16,4.87-3.18,6.12-1.02,1.25-2.49,2.54-4.46,3.54-2.32,1.17-4.95,1.72-6.66,1.72-1.48,0-2.98-.42-4.09-1.12-1.11-.7-1.78-1.57-1.85-2.62-.04-.58.15-1.11.47-1.53.31-.42,1.07-.73,1.51-.73l.03.28Z"/><path class="cls-3" d="M69.9,73.96s-4.35,4.47-7.54,4.55c-1.04-.03-1.64-.48-1.72-1.44-.07-.8.25-1.79.96-2.98,2.56-.51,4.38-1.06,5.44-1.64,1.06-.59,1.56-1.3,1.49-2.13-.03-.35-.21-.66-.53-.91-.32-.25-.7-.36-1.28-.36-1.01,0-2.22.41-3.72,1.24-1.98,1.1-3.21,2.33-3.73,3.67l-.24.35c-1.89,2.74-3.06,4.13-4.23,4.09-.46-.03-.73-.15-.77-.6-.03-.41.47-1.42,1.52-3.03.94-1.44,1.29-2.54,1.31-3.31.02-.69-.13-1.36-.53-1.77-.4-.41-.76-.6-1.4-.6-1.31,0-2.77,1.4-4.4,3.65,1.1-1.93,1.67-2.96,1.73-3.05,2.16-3.7,3.79-6.47,4.88-8.33-.05.01-.86.16-1.45.16s-.99-.1-.99-.1l-2.38,4.29c-1.77,3.22-6.88,12.96-6.88,12.96.06,0,.57-.1,1.14-.1s.96.09,1.01.1c1.82-3.5,3.27-5.87,4.37-7.12,1.1-1.26,2.01-1.91,2.72-1.96.45.02.69.23.73.64.03.37-.59,1.52-1.86,3.46-.82,1.25-1.19,2.26-1.12,3.04.05.58.27,1.06.67,1.44.4.39.87.64,1.54.64,1.57,0,2.55-1.34,4.37-3.85-.03.27-.04.55-.01.83.08.88.42,1.61,1.04,2.19.61.58,1.2.87,2.32.87,2.25,0,5.14-2.03,7.78-4.68l-.24-.21ZM67.33,69.84c.06.69-.47,1.42-1.59,2.2-1.07.75-2.41,1.33-3.99,1.75.86-1.32,1.75-2.39,2.69-3.23.92-.81,1.69-1.23,2.3-1.25.36.03.56.2.59.54Z"/><path class="cls-3" d="M134.98,73.14c-.27.41-.62,1.28-.66,1.54-.08.49-.11.85-.09,1.1.08.88.42,1.61,1.04,2.19.61.58,1.2.87,2.32.87,2.25,0,5.14-2.03,7.78-4.68l-.24-.21s-4.35,4.47-7.54,4.55c-1.04-.03-1.64-.48-1.72-1.44-.07-.8.25-1.79.96-2.98,2.56-.51,4.38-1.06,5.44-1.64,1.06-.59,1.56-1.3,1.49-2.13-.03-.35-.21-.66-.53-.91-.32-.25-.7-.36-1.28-.36-1.01,0-2.22.41-3.72,1.24-1.46.81-2.59,1.89-3.25,2.85ZM142.57,69.84c.06.69-.47,1.42-1.59,2.2-1.07.75-2.41,1.33-3.99,1.75.86-1.32,1.75-2.39,2.69-3.23.92-.81,1.69-1.23,2.3-1.25.36.03.56.2.59.54Z"/><path class="cls-3" d="M29.06,72.79s-1.66.35-1.84,2.11c-.11,1.09.54,2.29,1.59,2.98,1.06.7,2.65,1.14,4.27,1.14h.15c3.03,0,5.42-.64,8.13-2.76,1.02-.82,2.27-2.46,2.84-3.33.57-.87,1.45-2.62,2.63-5.24,1.19-2.62,2.31-4.65,3.39-6.08,1.06-1.42,2.26-2.49,3.59-3.22,2.57.48,5.02.72,6.61.72s3.21-.21,4.4-.64c1.19-.43,1.77-.95,1.74-1.57-.05-.97-1.58-1.46-3.82-1.46s-4.89.57-7.4,1.7c-3.06-.63-4.33-.89-5.11-1.02-.76-.11-2.24-.24-3.07-.24-1.32,0-3.43.26-4.75.53-1.03-1.32-2.39-2.08-4.38-2.11-2-.03-4.47.68-6.46,3.02-.97,1.15-1.28,1.95-1.28,1.95l.32.16c.69-1.21,1.42-2.47,3.36-3.65,1.34-.81,2.73-1.05,4.08-1.06,1.58.02,2.84.63,3.76,1.83-1.81.47-3.45,1.29-4.93,2.47-1.48,1.18-2.67,2.56-3.56,4.14-.89,1.58-1.31,3.01-1.24,4.31.04.95.36,1.72.94,2.32.58.6,1.31.9,2.35.9,2.12,0,4.07-1.1,5.84-3.3,1.77-2.2,2.59-4.56,2.47-7.06-.06-1.29-.38-2.43-.95-3.44,0,0,.7-.09,1.33-.08,1.52.02,3.66.33,6.48.95,1.22.27,1.87.46,2.47.56-3.07,1.52-5.66,4.68-8.32,9.5-1.62,2.97-2.96,5.1-4.02,6.38-2.23,2.73-4.82,4.12-7.79,4.14-1.33-.01-2.61-.28-3.55-.91-.96-.64-1.38-1.46-1.37-2.39.02-1.54,1.05-1.87,1.23-2l-.12-.24ZM65.13,56.1c.65.23.97.5.99.83.02.36-.29.65-.93.91-.62.25-1.37.37-2.24.38-1.37,0-2.93-.18-4.7-.52-1.22-.22-1.97-.36-2.25-.4,2.17-1.01,4.44-1.52,6.8-1.53.93,0,1.71.11,2.33.33ZM33.34,69.52c-.52-.56-.81-1.25-.84-2.07-.1-2.15.87-4.33,2.92-6.54,2.01-2.17,4.23-3.48,6.65-3.92.44.77.68,1.6.72,2.5.12,2.49-.67,4.92-2.37,7.3-1.67,2.34-3.43,3.53-5.28,3.56-.7-.02-1.3-.29-1.81-.83Z"/><path class="cls-3" d="M95.55,73.13c1.68-2.72,2.77-3.72,3.34-3.69.26.01.37.18.38.39.03.55-.56,1.97-1.84,4.26l-2.62,4.66c.06,0,.71-.15,1.24-.16.53-.01,1.12.06,1.18.07.99-1.9,1.69-3.16,2.11-3.77.38-.57.88-1.13,1.49-1.71-.08.42-.11.77-.09,1.06.09,1.01.6,1.49,1.49,1.56.86.07,2.27-.64,3.06-1.39-.43.97-.7,1.86-.65,2.38.05.57.27,1.05.68,1.43.41.38.79.58,1.6.58,1.24,0,2.75-1.5,4.73-4.49l.68-1.02c1.55-2.31,2.82-3.88,3.43-3.82.25.02.43.15.44.38.04.61-.64,2.13-2,4.56l-2.44,4.33c.05,0,.57-.15,1.27-.16.6-.01,1.08.06,1.14.07,3.04-6.11,5.55-9.3,7.15-9.3.5,0,.72.25.76.7.03.37-.38,1.25-1.22,2.62-.81,1.31-1.31,2.18-1.49,2.62-.18.44-.25.92-.21,1.43.05.59.27,1.07.67,1.48.39.4.82.62,1.53.62.8,0,1.84-.83,3.1-2.47.32-.41.6-.81.9-1.24,0,.16-.07.43-.05.58.07.85.43,1.58,1.08,2.19.65.61,1.26.94,2.39.94,1.27,0,2.68-1.05,4.42-2.91.95-1.02,1.64-2.06,1.95-2.43l-.25-.18s-.39.51-.57.76c-2.14,2.81-3.99,4.31-5.57,4.43-.99-.03-1.52-.52-1.61-1.56-.11-1.28.47-2.86,1.76-4.74,1.26-1.84,2.58-2.82,3.34-2.82.49,0,.83.27.87.75.06.65-.33,1.17-1.14,1.56-1.07.51-1.58,1.06-1.53,1.66.04.51.33.76.87.76s1.22-.39,1.7-1.17c.49-.78.7-1.56.63-2.35-.09-1-.57-1.5-1.45-1.5-.97,0-1.79.32-2.89.96-1.3.74-2.32,1.63-3.04,2.65-.42.59-.68,1.17-.83,1.74-1.78,2.66-3.19,4.04-4.06,4.03-.42-.03-.62-.21-.68-.57-.07-.44.45-1.55,1.45-3.16.97-1.58,1.42-2.75,1.35-3.51-.05-.61-.27-1.11-.67-1.52-.4-.41-.81-.62-1.38-.62-.78,0-1.47.34-2.17,1.03-.57.56-1.31,1.5-2.23,2.82.39-.83.55-1.51.53-2.04-.02-.49-.17-1.04-.48-1.39-.32-.36-.74-.51-1.3-.45-.94.1-1.69,1.11-3.31,3.44,0,0-.83,1.21-1.01,1.49-2.1,3.24-3.6,4.5-4.47,4.5-.56,0-.79-.23-.83-.72-.04-.5.19-1.21.69-2.14l3.51-6.39c-.06,0-.73.12-1.4.12s-.96-.11-1.01-.12l-2.06,3.95c-.95,1.47-2.66,2.27-3.6,2.31-.7-.03-1.18-.49-1.21-1.36-.01-.35.04-.76.16-1.28,0,0,1.09-.76,1.34-.92,1.56-1.02,2.32-1.81,2.27-2.37-.03-.31-.18-.47-.59-.47-.56,0-1.25.34-1.85,1.03-.61.69-1.05,1.43-1.4,2.45-.46.38-.84.77-1.23,1.21.66-1.23.94-2.14.87-2.92-.1-1.18-.73-1.75-1.72-1.77-.77-.01-1.64.76-3.66,3.91l.27.16"/><path class="cls-1" d="M105.73,32.39c-2.08-.94-5.93-1.07-9.43.24-4.96,1.85-6.18,3.03-7.89,4.05-1.85-.44-3.23-.81-4.16-1.09,0,0,4.02-3.35,6.96-8.6.79.16,1.9.25,2.89.24,3.69-.14,9.53-1.69,11.38-7,2.38-6.85-1.55-11.58-5.26-14.47-.38-.3-.78-.58-1.19-.85,1.97-3.23,4.24-4.25,6.4-4.42l-.1-.48c-1.25-.07-4.8.42-8.18,3.85-2.74-1.32-6.02-2.03-9.8-1.97-11.63.2-21.37,8.11-21.15,18.92.11,5.27,3.96,7.83,8.37,7.85,7.09.07,12.73-7.01,11.64-14.26-.45-3.27-2.33-4.93-4.19-4.99-2.38-.14-3.97,1.55-4.51,2.61-.41.72-.67,1.43-.96,2.2l.49.18s1.39-4.28,4.88-4.11c1.54.08,2.85,1.73,3.07,3.94v.09c.5,5.05-4.02,13.71-10.5,13.45-3.34-.22-4.81-3.47-4.83-6.93.02-10.28,7.32-18.01,17.84-18.17,3.03-.04,6.26.41,9.07,1.89-2.89,3.4-5.51,7.56-8.49,16.43-2.18,6.53-2.38,10.59-5.14,14.18-4.31-1.36-8.8-2.35-11.96-2.48-4.05-.12-6.57,1.87-6.08,4.18.49,2.3,4.14,3.07,6.66,3.12,3.39.06,7.23-.84,10.01-2.21.82.26,2.36.75,3.82,1.2,0,0-1.57,1.1-2.9,1.87-.37.21-1.85,1.01-3.15,1.63l.3.55c.89-.41,2.04-.97,3.19-1.62,1.31-.82,2.24-1.35,3.43-2.15,3.16.94,6.86,2.08,10.29,2.14,2.61.04,5.73-.88,8.12-2.37.87-.55,1.65-1.21,2.26-1.99.66-.84,1.82-3.28-1.18-4.64ZM93.1,22.24c1.89-6.28,2.09-10.23,5.43-16.41,3.96,3.04,4.71,7.36,3.03,12.74-1.6,5.16-5.62,7.22-8.02,7.52-.55.07-1.3.14-1.9.08l.27-.65c.4-.81.85-2.17,1.18-3.27ZM71.31,39.19c-2.05,0-5.47-.66-5.72-2.35-.24-1.63,1.96-2.14,5.22-1.84,2.27.15,6.95,1.68,9.33,2.36-1.85.91-5.45,1.81-8.82,1.83ZM105.02,36.88c-1.89,1.21-4.73,1.57-8.42,1.32-2.17-.15-4.87-.76-7.27-1.3,2.37-1.46,5.46-3.16,8.68-3.79,3.22-.63,5.29-.41,6.81.18,1.93.75,1.6,2.69.2,3.59Z"/><path class="cls-2" d="M86.27,85.05c-32.05,0-61.74.3-86.27.82v.34c24.52.52,54.22.82,86.27.82s61.74-.3,86.26-.82v-.34c-24.52-.51-54.22-.82-86.26-.82Z"/><path class="cls-2" d="M25.67,96.08c0,1.71-1.57,2.8-3.24,2.8-.37,0-.74-.04-1.08-.21,1.27-.07,2.64-.87,2.64-2.3,0-1.31-.91-1.83-2.09-1.83-.35,0-.69.03-1.03.09v6.71c0,.83,0,1.43.77,1.87v.05h-2.93v-.05c.6-.22.66-.98.66-1.62v-6.45c0-.63-.06-1.38-.65-1.63v-.04h3.58c1.91,0,3.37.94,3.37,2.6Z"/><path class="cls-2" d="M31.85,101.91v-2.34c-.43.22-.93.34-1.41.46-.71.16-1.5.32-1.5,1.24s.82,1.21,1.61,1.21c.35,0,.7-.1,1.06-.21l-.87,1.12c-.25.04-.52.07-.77.07-1.49,0-2.52-.96-2.52-2.18,0-2.77,4.4-1.49,4.4-3.11,0-.72-.87-.96-1.41-.96-.75,0-1.34.28-2,.59l.99-1.49.96-.09c1.59,0,2.81.47,2.81,2.27v2.22c0,1.18.03,1.62,1.25,1.75l-.65.98c-.97-.06-1.94-.35-1.94-1.54Z"/><path class="cls-2" d="M39.13,96.23h.04v1.13c.32-.66,1-1.19,1.74-1.13l.53.04v1.37c-.16-.18-.43-.24-.68-.24-1.12,0-1.59.59-1.59,2.12v2.5c0,.49.04.9.56,1.19v.05h-2.46v-.05c.51-.29.56-.7.56-1.19v-4.4c0-.47-.04-.85-.54-1.16v-.05h.94c.34,0,.69-.01.9-.19Z"/><path class="cls-2" d="M45.8,93.24h.04v8.79c0,.49.04.9.57,1.19v.05h-2.46v-.05c.5-.29.54-.68.54-1.17v-7.35c0-.48-.05-.87-.54-1.18v-.04h.97c.33,0,.68-.02.87-.24ZM47.35,98.1c.24-.25.75-.82.75-1.19,0-.2-.13-.35-.28-.44v-.05h2.24l-2.46,2.87,1.8,2.31c.47.61.9,1.25,1.56,1.67h-1.15c-.85,0-1.21-.44-1.5-.84l-2.18-2.99,1.22-1.34Z"/><path class="cls-2" d="M64.56,95.14h-.04c-.19-.52-.79-.59-1.28-.59h-1.34v6.78c0,.85-.01,1.42.77,1.88v.04h-2.94v-.04c.74-.28.65-1.37.65-2.03v-6.64h-1.31c-.64,0-1.31.16-1.77.59h-.04l.52-1.77h.04c.18.07.34.1.56.1h5.91c.25,0,.49-.02.68-.1h.04l-.48,1.77Z"/><path class="cls-2" d="M70.3,103.45c-2.03,0-3.76-1.44-3.76-3.55,0-2.23,1.8-3.67,3.93-3.67,1.97,0,3.71,1.59,3.71,3.53,0,2.14-1.8,3.68-3.89,3.68ZM70.32,97.22c-1.38,0-2.27,1.08-2.27,2.42s.82,2.84,2.33,2.84c1.37,0,2.3-1.05,2.3-2.39,0-1.44-.77-2.86-2.36-2.86Z"/><path class="cls-2" d="M84.54,103.52c-1.01-.54-1.13-.79-1.51-1.77l-1.28-3.41-2.03,5.18c-1.05-.55-1.2-.73-1.6-1.77l-1.63-4.17c-.21-.5-.33-.82-.79-1.11v-.04h.39c.47,0,1.01.07,1.37-.19h.04c.01.22.09.52.19.77l1.74,4.51,1.35-3.49c.21-.53.58-1.25-.13-1.56v-.04h1.94v.22c0,.15.15.52.21.68l1.54,4.19,1.38-3.49c.19-.5.59-1.19-.21-1.56v-.04h1.99l-2.95,7.1Z"/><path class="cls-2" d="M95.55,103.08c-.64.27-1.35.37-2.05.37-2.52,0-4.26-1.59-4.26-3.65s1.5-3.56,3.71-3.56c2.02,0,3.41,1.46,3.35,3.37h-5.46c.03,1.81,1.29,2.86,2.97,2.86.89,0,1.75-.25,2.43-.79h.06l-.76,1.4ZM92.82,97.22c-.99,0-1.74.59-1.92,1.53h3.83c-.16-1.04-.85-1.53-1.92-1.53Z"/><path class="cls-2" d="M102.23,97.41c-1.13,0-1.6.59-1.6,2.12v2.08c0,.68-.09,1.23.56,1.6v.04h-2.48v-.04c.65-.37.56-.92.56-1.6v-3.55c0-.68.09-1.22-.55-1.59v-.04h.95c.34,0,.7-.02.91-.19h.04v1.13c.33-.67,1.01-1.13,1.75-1.13l.53.04v1.37c-.16-.18-.43-.24-.68-.24Z"/><path class="cls-2" d="M116.4,95.14h-.04c-.19-.52-.79-.59-1.28-.59h-1.34v6.78c0,.85-.02,1.42.77,1.88v.04h-2.94v-.04c.74-.28.65-1.37.65-2.03v-6.64h-1.31c-.64,0-1.31.16-1.77.59h-.05l.52-1.77h.05c.18.07.34.1.56.1h5.91c.25,0,.49-.02.68-.1h.05l-.48,1.77Z"/><path class="cls-2" d="M122,103.45c-2.03,0-3.76-1.44-3.76-3.55,0-2.23,1.8-3.67,3.93-3.67,1.97,0,3.71,1.59,3.71,3.53,0,2.14-1.8,3.68-3.89,3.68ZM122.01,97.22c-1.38,0-2.27,1.08-2.27,2.42s.82,2.84,2.33,2.84c1.37,0,2.3-1.05,2.3-2.39,0-1.44-.77-2.86-2.36-2.86Z"/><path class="cls-2" d="M128.07,103.26v-.04c.64-.37.55-.92.55-1.6v-6.49c0-.68.09-1.23-.55-1.6v-.04h.98c.33,0,.68-.02.88-.24h.05v8.37c0,.68-.09,1.23.58,1.6v.04h-2.48ZM133.96,103.26c-.86,0-1.23-.43-1.51-.83l-2.2-2.98,1.23-1.35c.22-.25.76-.82.76-1.19,0-.21-.13-.34-.28-.43v-.04h2.26l-2.48,2.87,1.81,2.3c.46.61.9,1.25,1.59,1.66h-1.17Z"/><path class="cls-2" d="M141.37,103.79c-.8,1.92-1.84,2.48-3.24,2.48-.64,0-1.19-.15-1.77-.37l1.34-.96c.25.16.52.36.83.36,1.04,0,1.48-1.11,1.8-1.93l.09-.24-.06-.07c-.49-.49-.49-.56-.77-1.19l-1.81-3.95c-.3-.65-.47-1.17-1.19-1.44v-.04h1.26c.55,0,.83.22.99.59l2.18,4.91,1.5-3.77c.22-.58.56-1.37-.15-1.69v-.04h2.08l-3.09,7.36Z"/><path class="cls-2" d="M149.94,103.45c-2.03,0-3.76-1.44-3.76-3.55,0-2.23,1.8-3.67,3.93-3.67,1.97,0,3.71,1.59,3.71,3.53,0,2.14-1.8,3.68-3.89,3.68ZM149.95,97.22c-1.38,0-2.27,1.08-2.27,2.42s.82,2.84,2.33,2.84c1.37,0,2.3-1.05,2.3-2.39,0-1.44-.77-2.86-2.36-2.86Z"/></g></svg>