<svg xmlns="http://www.w3.org/2000/svg" viewBox="0 0 392.66 38.47"><defs><style>.cls-1{fill:#c3af3f;}</style></defs><title>st_title</title><g id="レイヤー_2" data-name="レイヤー 2"><g id="text_object" data-name="text/object"><path class="cls-1" d="M0,30.73l3.11-1.87q3.28,6.06,7.6,6a7.19,7.19,0,0,0,3.46-.86,6,6,0,0,0,2.46-2.3,5.89,5.89,0,0,0,.85-3.06,6.2,6.2,0,0,0-1.24-3.61A29.84,29.84,0,0,0,10,19.2a32,32,0,0,1-5.7-5,9.09,9.09,0,0,1-1.94-5.6A8.55,8.55,0,0,1,3.46,4.23a8.17,8.17,0,0,1,3.23-3.1A9.33,9.33,0,0,1,11.21,0a9.68,9.68,0,0,1,4.84,1.28A16.77,16.77,0,0,1,20.82,6l-3,2.27a14.3,14.3,0,0,0-3.52-3.61,6.11,6.11,0,0,0-3.18-.87A5,5,0,0,0,7.51,5.13,4.4,4.4,0,0,0,6.1,8.44a5.7,5.7,0,0,0,.5,2.32A8.61,8.61,0,0,0,8.42,13.2c.48.46,2.05,1.68,4.73,3.66a26.55,26.55,0,0,1,6.52,6.25,10.07,10.07,0,0,1,1.77,5.5,9.34,9.34,0,0,1-3,6.93,10.16,10.16,0,0,1-7.35,2.93A10.79,10.79,0,0,1,5,36.69,16.32,16.32,0,0,1,0,30.73Z"/><path class="cls-1" d="M33.29.92H37V37.55H33.29Z"/><path class="cls-1" d="M50.59,37.55V.92h.79L75.76,29V.92h3.62V37.55h-.83L54.37,9.81V37.55Z"/><path class="cls-1" d="M128.21,7.07l-2.84,2.69a21.69,21.69,0,0,0-6.71-4.57,18,18,0,0,0-7.11-1.55,16.92,16.92,0,0,0-8.2,2.11,15.4,15.4,0,0,0-6,5.74,14.81,14.81,0,0,0-2.14,7.66A15.11,15.11,0,0,0,97.38,27a15.76,15.76,0,0,0,6.13,5.85A17.6,17.6,0,0,0,112.08,35a14.63,14.63,0,0,0,9.56-3.19,12.58,12.58,0,0,0,4.63-8.27H114.59V20h15.79q-.06,8.49-5,13.48t-13.36,5q-10.17,0-16.09-6.92a18.39,18.39,0,0,1-4.56-12.33A18.81,18.81,0,0,1,94,9.54a18.51,18.51,0,0,1,7.17-7A20.84,20.84,0,0,1,111.43,0a22.93,22.93,0,0,1,8.76,1.68A26.13,26.13,0,0,1,128.21,7.07Z"/><path class="cls-1" d="M141.91.92h3.66V34h14.09v3.53H141.91Z"/><path class="cls-1" d="M169.82.92h21V4.51H173.48V16h17.19v3.58H173.48V34h17.19v3.58H169.82Z"/><path class="cls-1" d="M221.66.92H229a44.32,44.32,0,0,1,8.26.5,9.47,9.47,0,0,1,5.31,3.2,9.17,9.17,0,0,1,2,6.05,9.74,9.74,0,0,1-1.41,5.26,8.8,8.8,0,0,1-4,3.43,18.41,18.41,0,0,1-7.22,1.18l13.17,17h-4.53l-13.17-17h-2.07v17h-3.66Zm3.66,3.59V17l6.31.05a15.59,15.59,0,0,0,5.43-.7,5.64,5.64,0,0,0,2.74-2.23,6.15,6.15,0,0,0,1-3.42,6,6,0,0,0-1-3.35,5.62,5.62,0,0,0-2.62-2.16,16,16,0,0,0-5.39-.64Z"/><path class="cls-1" d="M273.49,0a19,19,0,0,1,13.93,5.55A18.49,18.49,0,0,1,293,19.22a18.57,18.57,0,0,1-5.59,13.65,18.53,18.53,0,0,1-13.64,5.6A18.76,18.76,0,0,1,260,32.9a18.33,18.33,0,0,1-5.6-13.5A19.57,19.57,0,0,1,257,9.61a18.58,18.58,0,0,1,7-7.06A18.77,18.77,0,0,1,273.49,0Zm.16,3.56a15.62,15.62,0,0,0-13.39,7.83,15.8,15.8,0,0,0-2.05,8,14.92,14.92,0,0,0,4.53,11,14.91,14.91,0,0,0,10.91,4.5,15.63,15.63,0,0,0,7.89-2.07,14.8,14.8,0,0,0,5.67-5.65,16,16,0,0,0,2-8,15.58,15.58,0,0,0-2-7.89,15.22,15.22,0,0,0-5.73-5.64A15.51,15.51,0,0,0,273.65,3.56Z"/><path class="cls-1" d="M322.2,0a19,19,0,0,1,13.93,5.55,18.5,18.5,0,0,1,5.61,13.67,18.58,18.58,0,0,1-5.6,13.65,18.52,18.52,0,0,1-13.64,5.6,18.72,18.72,0,0,1-13.75-5.57,18.34,18.34,0,0,1-5.61-13.5,19.57,19.57,0,0,1,2.55-9.79A18.87,18.87,0,0,1,322.2,0Zm.16,3.56a15.07,15.07,0,0,0-7.7,2.12A15.14,15.14,0,0,0,309,11.39a15.9,15.9,0,0,0-2.05,8,14.92,14.92,0,0,0,4.53,11,14.93,14.93,0,0,0,10.91,4.5,15.67,15.67,0,0,0,7.9-2.07,14.77,14.77,0,0,0,5.66-5.65,16,16,0,0,0,2-8,15.58,15.58,0,0,0-2-7.89,15.19,15.19,0,0,0-5.72-5.64A15.57,15.57,0,0,0,322.36,3.56Z"/><path class="cls-1" d="M351.33,37.55,356.57.92h.6L372.06,31,386.81.92h.58l5.27,36.63h-3.59l-3.61-26.19-13,26.19h-.93L358.46,11.16l-3.6,26.39Z"/></g></g></svg>