<svg xmlns="http://www.w3.org/2000/svg" viewBox="0 0 178.54 30.18"><defs><style>.cls-1{fill:#c3af3f;}</style></defs><title>st_access</title><g id="レイヤー_2" data-name="レイヤー 2"><g id="テキスト"><path class="cls-1" d="M14.28.72l13.4,28.73H24.57L20.06,20H7.68L3.2,29.45H0L13.57.72Zm-.36,6.11L9,17.23h9.82Z"/><path class="cls-1" d="M62.75,6.05,60.48,7.79A12.47,12.47,0,0,0,56,4.09a13.15,13.15,0,0,0-5.77-1.26,12.79,12.79,0,0,0-6.37,1.65A11.89,11.89,0,0,0,39.3,8.92a12.29,12.29,0,0,0-1.61,6.26A11.77,11.77,0,0,0,41.29,24a12.53,12.53,0,0,0,9.1,3.51,12.74,12.74,0,0,0,10.09-4.73l2.27,1.72a14.34,14.34,0,0,1-5.36,4.23,16.78,16.78,0,0,1-7.18,1.5q-7.55,0-11.89-5a15.15,15.15,0,0,1-3.66-10.24A14.23,14.23,0,0,1,39.09,4.31,15.25,15.25,0,0,1,50.17,0a16.3,16.3,0,0,1,7.27,1.59A14.12,14.12,0,0,1,62.75,6.05Z"/><path class="cls-1" d="M99.78,6.05,97.51,7.79A12.47,12.47,0,0,0,93,4.09a13.18,13.18,0,0,0-5.77-1.26,12.79,12.79,0,0,0-6.37,1.65,11.89,11.89,0,0,0-4.54,4.44,12.29,12.29,0,0,0-1.61,6.26A11.77,11.77,0,0,0,78.32,24a12.53,12.53,0,0,0,9.1,3.51,12.75,12.75,0,0,0,10.09-4.73l2.27,1.72a14.34,14.34,0,0,1-5.36,4.23,16.81,16.81,0,0,1-7.18,1.5q-7.55,0-11.9-5a15.19,15.19,0,0,1-3.65-10.24A14.23,14.23,0,0,1,76.12,4.31,15.25,15.25,0,0,1,87.2,0a16.33,16.33,0,0,1,7.27,1.59A14.12,14.12,0,0,1,99.78,6.05Z"/><path class="cls-1" d="M110.83.72h16.46V3.54H113.7v9h13.47v2.81H113.7V26.64h13.47v2.81H110.83Z"/><path class="cls-1" d="M135.54,24.1,138,22.64c1.71,3.16,3.7,4.74,5.95,4.74a5.7,5.7,0,0,0,2.72-.67,4.76,4.76,0,0,0,1.93-1.81,4.67,4.67,0,0,0,.66-2.4,4.86,4.86,0,0,0-1-2.83,23.47,23.47,0,0,0-4.92-4.61,25.15,25.15,0,0,1-4.48-3.93,7.2,7.2,0,0,1-1.52-4.39,6.67,6.67,0,0,1,.9-3.42A6.37,6.37,0,0,1,140.79.89,7.32,7.32,0,0,1,144.33,0a7.46,7.46,0,0,1,3.8,1,12.89,12.89,0,0,1,3.74,3.7l-2.34,1.77a11.19,11.19,0,0,0-2.77-2.83A4.8,4.8,0,0,0,144.27,3a4,4,0,0,0-2.84,1,3.48,3.48,0,0,0-1.1,2.6,4.45,4.45,0,0,0,.39,1.82,6.79,6.79,0,0,0,1.43,1.91c.37.37,1.61,1.32,3.71,2.87A20.82,20.82,0,0,1,151,18.13a7.85,7.85,0,0,1,1.39,4.31A7.34,7.34,0,0,1,150,27.87a8,8,0,0,1-5.77,2.31,8.48,8.48,0,0,1-4.75-1.4A12.78,12.78,0,0,1,135.54,24.1Z"/><path class="cls-1" d="M161.73,24.1l2.44-1.46c1.72,3.16,3.7,4.74,6,4.74a5.69,5.69,0,0,0,2.71-.67,4.7,4.7,0,0,0,1.93-1.81,4.58,4.58,0,0,0,.67-2.4,4.87,4.87,0,0,0-1-2.83,23.47,23.47,0,0,0-4.92-4.61,24.59,24.59,0,0,1-4.47-3.93,7.15,7.15,0,0,1-1.53-4.39,6.67,6.67,0,0,1,.9-3.42A6.37,6.37,0,0,1,167,.89,7.33,7.33,0,0,1,170.52,0a7.42,7.42,0,0,1,3.79,1,12.89,12.89,0,0,1,3.74,3.7l-2.34,1.77A11.36,11.36,0,0,0,173,3.65,4.8,4.8,0,0,0,170.46,3a3.94,3.94,0,0,0-2.84,1,3.46,3.46,0,0,0-1.11,2.6,4.45,4.45,0,0,0,.39,1.82,6.79,6.79,0,0,0,1.43,1.91c.38.37,1.61,1.32,3.71,2.87a20.89,20.89,0,0,1,5.12,4.91,7.91,7.91,0,0,1,1.38,4.31,7.34,7.34,0,0,1-2.37,5.43,8,8,0,0,1-5.77,2.31,8.48,8.48,0,0,1-4.75-1.4A12.67,12.67,0,0,1,161.73,24.1Z"/></g></g></svg>