<svg xmlns="http://www.w3.org/2000/svg" viewBox="0 0 368.53 38.47"><defs><style>.cls-1{fill:#c3af3f;}</style></defs><title>st_guestroom</title><g id="レイヤー_2" data-name="レイヤー 2"><g id="テキスト"><path class="cls-1" d="M36.88,7.07,34,9.76a21.69,21.69,0,0,0-6.71-4.57,18,18,0,0,0-7.11-1.55A17,17,0,0,0,12,5.75a15.37,15.37,0,0,0-6,5.74,14.82,14.82,0,0,0-2.15,7.66A15.13,15.13,0,0,0,6.05,27a15.76,15.76,0,0,0,6.13,5.85A17.58,17.58,0,0,0,20.74,35a14.64,14.64,0,0,0,9.57-3.19,12.61,12.61,0,0,0,4.63-8.27H23.26V20H39.05Q39,28.49,34,33.48t-13.36,5q-10.16,0-16.08-6.92A18.39,18.39,0,0,1,0,19.22,18.9,18.9,0,0,1,2.61,9.54a18.6,18.6,0,0,1,7.18-7A20.84,20.84,0,0,1,20.1,0a22.93,22.93,0,0,1,8.76,1.68A26.25,26.25,0,0,1,36.88,7.07Z"/><path class="cls-1" d="M50.51.92h3.66V23a44.51,44.51,0,0,0,.16,4.91,8.15,8.15,0,0,0,1.26,3.62A7.42,7.42,0,0,0,58.66,34a9.54,9.54,0,0,0,4.16,1,8.25,8.25,0,0,0,3.48-.77,7.72,7.72,0,0,0,2.79-2.15,8.66,8.66,0,0,0,1.65-3.31A28.19,28.19,0,0,0,71.11,23V.92h3.66V23a26.93,26.93,0,0,1-1,7.94A10.82,10.82,0,0,1,70,36.23a11,11,0,0,1-7,2.24,13.35,13.35,0,0,1-7.6-2.11,10.16,10.16,0,0,1-4.23-5.61A29.47,29.47,0,0,1,50.51,23Z"/><path class="cls-1" d="M88.66.92h21V4.51H92.32V16H109.5v3.58H92.32V34H109.5v3.58H88.66Z"/><path class="cls-1" d="M117.44,30.73l3.12-1.87q3.28,6.06,7.59,6a7.19,7.19,0,0,0,3.46-.86,6.11,6.11,0,0,0,2.47-2.3,6,6,0,0,0,.85-3.06,6.21,6.21,0,0,0-1.25-3.61,29.74,29.74,0,0,0-6.27-5.88,32.16,32.16,0,0,1-5.71-5,9.15,9.15,0,0,1-1.94-5.6,8.46,8.46,0,0,1,1.15-4.36,8.21,8.21,0,0,1,3.22-3.1A9.35,9.35,0,0,1,128.65,0a9.65,9.65,0,0,1,4.84,1.28A16.52,16.52,0,0,1,138.26,6l-3,2.27a14.13,14.13,0,0,0-3.52-3.61,6.07,6.07,0,0,0-3.17-.87A5,5,0,0,0,125,5.13a4.39,4.39,0,0,0-1.4,3.31,5.69,5.69,0,0,0,.49,2.32,8.81,8.81,0,0,0,1.82,2.44q.72.69,4.73,3.66a26.63,26.63,0,0,1,6.53,6.25,10.07,10.07,0,0,1,1.77,5.5,9.34,9.34,0,0,1-3,6.93,10.2,10.2,0,0,1-7.36,2.93,10.78,10.78,0,0,1-6-1.78A16.23,16.23,0,0,1,117.44,30.73Z"/><path class="cls-1" d="M147.65,4.51V.92h20.07V4.51h-8.17v33h-3.73v-33Z"/><path class="cls-1" d="M197.52.92h7.3a44.32,44.32,0,0,1,8.26.5,9.47,9.47,0,0,1,5.31,3.2,9.17,9.17,0,0,1,2,6.05A9.74,9.74,0,0,1,219,15.93a8.75,8.75,0,0,1-4,3.43,18.41,18.41,0,0,1-7.22,1.18l13.17,17h-4.53l-13.17-17h-2.07v17h-3.66Zm3.66,3.59V17l6.31.05a15.59,15.59,0,0,0,5.43-.7,5.64,5.64,0,0,0,2.74-2.23,6.16,6.16,0,0,0,1-3.42,6,6,0,0,0-1-3.35A5.62,5.62,0,0,0,213,5.15a16,16,0,0,0-5.39-.64Z"/><path class="cls-1" d="M249.35,0a19,19,0,0,1,13.93,5.55,18.48,18.48,0,0,1,5.61,13.67,18.58,18.58,0,0,1-5.6,13.65,18.53,18.53,0,0,1-13.64,5.6,18.76,18.76,0,0,1-13.76-5.57,18.37,18.37,0,0,1-5.6-13.5,19.57,19.57,0,0,1,2.55-9.79A18.87,18.87,0,0,1,249.35,0Zm.16,3.56a15.07,15.07,0,0,0-7.7,2.12,15.14,15.14,0,0,0-5.69,5.71,15.8,15.8,0,0,0-2.05,8,14.92,14.92,0,0,0,4.53,11,14.91,14.91,0,0,0,10.91,4.5,15.67,15.67,0,0,0,7.9-2.07,14.77,14.77,0,0,0,5.66-5.65,16,16,0,0,0,2-8,15.56,15.56,0,0,0-2-7.89,15.22,15.22,0,0,0-5.73-5.64A15.51,15.51,0,0,0,249.51,3.56Z"/><path class="cls-1" d="M298.06,0A19,19,0,0,1,312,5.55a18.48,18.48,0,0,1,5.61,13.67A18.58,18.58,0,0,1,312,32.87a18.52,18.52,0,0,1-13.64,5.6,18.72,18.72,0,0,1-13.75-5.57A18.34,18.34,0,0,1,279,19.4a19.57,19.57,0,0,1,2.55-9.79A18.87,18.87,0,0,1,298.06,0Zm.16,3.56a15.07,15.07,0,0,0-7.7,2.12,15.14,15.14,0,0,0-5.69,5.71,15.9,15.9,0,0,0-2.05,8,14.92,14.92,0,0,0,4.53,11,14.93,14.93,0,0,0,10.91,4.5,15.67,15.67,0,0,0,7.9-2.07,14.77,14.77,0,0,0,5.66-5.65,15.87,15.87,0,0,0,2-8,15.46,15.46,0,0,0-2-7.89,15.19,15.19,0,0,0-5.72-5.64A15.57,15.57,0,0,0,298.22,3.56Z"/><path class="cls-1" d="M327.19,37.55,332.43.92h.6L347.92,31,362.67.92h.58l5.28,36.63h-3.59l-3.62-26.19-13,26.19h-.93L334.32,11.16l-3.6,26.39Z"/></g></g></svg>