<svg xmlns="http://www.w3.org/2000/svg" viewBox="0 0 377.08 30.18"><defs><style>.cls-1{fill:#c3af3f;}</style></defs><title>ic_gallery</title><g id="レイヤー_2" data-name="レイヤー 2"><g id="テキスト"><path class="cls-1" d="M0,.72H5.72a33.41,33.41,0,0,1,6.64.43,7.49,7.49,0,0,1,4,2.49A7.2,7.2,0,0,1,18,8.38a7.3,7.3,0,0,1-1.52,4.74,7.55,7.55,0,0,1-4.2,2.51,37.64,37.64,0,0,1-7.31.46h-2V29.45H0ZM2.87,3.54v9.74l4.86.06a12.64,12.64,0,0,0,4.32-.54,4.38,4.38,0,0,0,2.15-1.73A4.8,4.8,0,0,0,15,8.39a4.75,4.75,0,0,0-.78-2.64A4.34,4.34,0,0,0,12.14,4,12.37,12.37,0,0,0,8,3.54Z"/><path class="cls-1" d="M28.6.72h2.88v12H46.1V.72H49V29.45H46.1V15.59H31.48V29.45H28.6Z"/><path class="cls-1" d="M75.43,0A14.87,14.87,0,0,1,86.35,4.36a14.45,14.45,0,0,1,4.4,10.72,14.56,14.56,0,0,1-4.39,10.7,15.33,15.33,0,0,1-21.48,0,14.35,14.35,0,0,1-4.4-10.59,15.35,15.35,0,0,1,2-7.67A14.78,14.78,0,0,1,75.43,0Zm.13,2.79A12.25,12.25,0,0,0,65.05,8.93a12.46,12.46,0,0,0-1.6,6.28A11.69,11.69,0,0,0,67,23.85a11.66,11.66,0,0,0,8.56,3.53,12.31,12.31,0,0,0,6.19-1.62,11.62,11.62,0,0,0,4.44-4.44,12.47,12.47,0,0,0,1.59-6.25,12.22,12.22,0,0,0-1.59-6.19A11.94,11.94,0,0,0,81.7,4.45,12.23,12.23,0,0,0,75.56,2.79Z"/><path class="cls-1" d="M97.75,3.54V.72h15.74V3.54h-6.41V29.45h-2.93V3.54Z"/><path class="cls-1" d="M135.4,0a14.9,14.9,0,0,1,10.93,4.36,14.48,14.48,0,0,1,4.39,10.72,14.59,14.59,0,0,1-4.38,10.7,15.34,15.34,0,0,1-21.49,0,14.39,14.39,0,0,1-4.4-10.59,15.35,15.35,0,0,1,2-7.67A14.81,14.81,0,0,1,135.4,0Zm.13,2.79A12.25,12.25,0,0,0,125,8.93a12.46,12.46,0,0,0-1.6,6.28A11.69,11.69,0,0,0,127,23.85a11.68,11.68,0,0,0,8.56,3.53,12.31,12.31,0,0,0,6.19-1.62,11.55,11.55,0,0,0,4.44-4.44,12.48,12.48,0,0,0,1.6-6.25,12.23,12.23,0,0,0-1.6-6.19,11.94,11.94,0,0,0-4.49-4.43A12.23,12.23,0,0,0,135.53,2.79Z"/><path class="cls-1" d="M207.28,5.55l-2.23,2.11a17.11,17.11,0,0,0-5.26-3.59,14.25,14.25,0,0,0-5.58-1.22,13.4,13.4,0,0,0-6.44,1.66A12.14,12.14,0,0,0,183,9a11.65,11.65,0,0,0-1.68,6,11.83,11.83,0,0,0,1.74,6.16,12.26,12.26,0,0,0,4.8,4.59,13.83,13.83,0,0,0,6.72,1.67,11.49,11.49,0,0,0,7.5-2.5,9.9,9.9,0,0,0,3.63-6.48h-9.16V15.68H209q0,6.66-3.95,10.58t-10.48,3.92q-8,0-12.62-5.43a14.45,14.45,0,0,1-3.57-9.67,14.79,14.79,0,0,1,2.05-7.6A14.59,14.59,0,0,1,186,2a16.37,16.37,0,0,1,8.08-2A18,18,0,0,1,201,1.32,20.72,20.72,0,0,1,207.28,5.55Z"/><path class="cls-1" d="M230.37.72l13.4,28.73h-3.1L236.15,20H223.77l-4.48,9.45h-3.2L229.67.72ZM230,6.83l-4.93,10.4h9.83Z"/><path class="cls-1" d="M253.82.72h2.87v26h11.06v2.77H253.82Z"/><path class="cls-1" d="M277.85.72h2.87v26h11.06v2.77H277.85Z"/><path class="cls-1" d="M301.9.72h16.46V3.54H304.77v9h13.48v2.81H304.77V26.64h13.48v2.81H301.9Z"/><path class="cls-1" d="M329.57.72h5.72a34.82,34.82,0,0,1,6.49.39,7.4,7.4,0,0,1,4.16,2.52,7.14,7.14,0,0,1,1.6,4.74,7.75,7.75,0,0,1-1.1,4.13,6.89,6.89,0,0,1-3.16,2.68,14.32,14.32,0,0,1-5.66.93L348,29.45H344.4L334.07,16.11h-1.63V29.45h-2.87Zm2.87,2.82V13.3l4.95,0a12.18,12.18,0,0,0,4.26-.55A4.37,4.37,0,0,0,343.8,11a4.88,4.88,0,0,0,.77-2.68,4.69,4.69,0,0,0-.78-2.63A4.37,4.37,0,0,0,341.74,4a12.53,12.53,0,0,0-4.23-.5Z"/><path class="cls-1" d="M355.87.72h3.3l7.36,11.85L373.76.72h3.32l-9.1,15V29.45h-2.83V15.72Z"/></g></g></svg>