<svg xmlns="http://www.w3.org/2000/svg" viewBox="0 0 374.11 38.47"><defs><style>.cls-1{fill:#754c24;}</style></defs><title>st_restaurant</title><g id="レイヤー_2" data-name="レイヤー 2"><g id="テキスト"><path class="cls-1" d="M0,.92H7.3a44.32,44.32,0,0,1,8.26.5,9.47,9.47,0,0,1,5.31,3.2,9.17,9.17,0,0,1,2,6.05,9.74,9.74,0,0,1-1.41,5.26,8.75,8.75,0,0,1-4,3.43,18.41,18.41,0,0,1-7.22,1.18l13.17,17H18.9l-13.17-17H3.66v17H0ZM3.66,4.51V17L10,17a15.59,15.59,0,0,0,5.43-.7,5.64,5.64,0,0,0,2.74-2.23,6.16,6.16,0,0,0,1-3.42,6,6,0,0,0-1-3.35,5.62,5.62,0,0,0-2.62-2.16,16,16,0,0,0-5.39-.64Z"/><path class="cls-1" d="M39.15.92h21V4.51H42.81V16H60v3.58H42.81V34H60v3.58H39.15Z"/><path class="cls-1" d="M72.07,30.73l3.11-1.87q3.28,6.06,7.59,6a7.16,7.16,0,0,0,3.46-.86,6.05,6.05,0,0,0,2.47-2.3,6,6,0,0,0,.85-3.06,6.21,6.21,0,0,0-1.25-3.61A29.74,29.74,0,0,0,82,19.2a32.16,32.16,0,0,1-5.71-5,9.15,9.15,0,0,1-1.94-5.6,8.46,8.46,0,0,1,1.15-4.36,8.15,8.15,0,0,1,3.22-3.1A9.35,9.35,0,0,1,83.27,0a9.65,9.65,0,0,1,4.84,1.28A16.52,16.52,0,0,1,92.88,6l-3,2.27a14.3,14.3,0,0,0-3.53-3.61,6.07,6.07,0,0,0-3.17-.87,5,5,0,0,0-3.63,1.34,4.39,4.39,0,0,0-1.4,3.31,5.69,5.69,0,0,0,.49,2.32,8.81,8.81,0,0,0,1.82,2.44q.72.69,4.73,3.66a26.63,26.63,0,0,1,6.53,6.25,10.07,10.07,0,0,1,1.77,5.5,9.34,9.34,0,0,1-3,6.93,10.2,10.2,0,0,1-7.36,2.93,10.78,10.78,0,0,1-6.05-1.78A16.13,16.13,0,0,1,72.07,30.73Z"/><path class="cls-1" d="M106.4,4.51V.92h20.07V4.51h-8.16v33h-3.74v-33Z"/><path class="cls-1" d="M152.85.92l17.09,36.63h-4l-5.76-12H144.44l-5.7,12h-4.09L152,.92Zm-.46,7.78L146.12,22h12.52Z"/><path class="cls-1" d="M182.47.92h3.66V23a45.61,45.61,0,0,0,.15,4.91,8.15,8.15,0,0,0,1.27,3.62A7.45,7.45,0,0,0,190.61,34a9.57,9.57,0,0,0,4.16,1,8.26,8.26,0,0,0,3.49-.77,7.81,7.81,0,0,0,2.79-2.15,8.65,8.65,0,0,0,1.64-3.31,27.21,27.21,0,0,0,.38-5.73V.92h3.66V23a26.93,26.93,0,0,1-1,7.94,10.78,10.78,0,0,1-3.84,5.26,10.92,10.92,0,0,1-7,2.24,13.34,13.34,0,0,1-7.59-2.11,10.22,10.22,0,0,1-4.24-5.61,30,30,0,0,1-.67-7.72Z"/><path class="cls-1" d="M224.81.92h7.3a44.32,44.32,0,0,1,8.26.5,9.47,9.47,0,0,1,5.31,3.2,9.17,9.17,0,0,1,2,6.05,9.74,9.74,0,0,1-1.41,5.26,8.8,8.8,0,0,1-4,3.43,18.41,18.41,0,0,1-7.22,1.18l13.17,17h-4.53l-13.17-17h-2.07v17h-3.66Zm3.66,3.59V17l6.31.05a15.63,15.63,0,0,0,5.43-.7A5.64,5.64,0,0,0,243,14.08a6.15,6.15,0,0,0,1-3.42,6,6,0,0,0-1-3.35,5.62,5.62,0,0,0-2.62-2.16,16,16,0,0,0-5.39-.64Z"/><path class="cls-1" d="M279.92.92,297,37.55h-3.95l-5.76-12H271.51l-5.71,12h-4.08L279,.92Zm-.46,7.78L273.18,22H285.7Z"/><path class="cls-1" d="M311.23,37.55V.92h.8L336.41,29V.92H340V37.55h-.82L315,9.81V37.55Z"/><path class="cls-1" d="M354,4.51V.92h20.07V4.51h-8.17v33h-3.73v-33Z"/></g></g></svg>