<svg xmlns="http://www.w3.org/2000/svg" viewBox="0 0 151.46 30.18"><defs><style>.cls-1{fill:#dcaf00;}</style></defs><title>st_topics</title><g id="レイヤー_2" data-name="レイヤー 2"><g id="テキスト"><path class="cls-1" d="M0,3.54V.72H15.74V3.54H9.34V29.45H6.41V3.54Z"/><path class="cls-1" d="M35.66,0A14.87,14.87,0,0,1,46.58,4.36,14.49,14.49,0,0,1,51,15.08a14.56,14.56,0,0,1-4.39,10.7,14.54,14.54,0,0,1-10.7,4.4A14.7,14.7,0,0,1,25.1,25.8a14.38,14.38,0,0,1-4.39-10.59,15.25,15.25,0,0,1,2-7.67A14.53,14.53,0,0,1,28.17,2,14.74,14.74,0,0,1,35.66,0Zm.12,2.79a12.25,12.25,0,0,0-10.5,6.14,12.47,12.47,0,0,0-1.61,6.28,11.73,11.73,0,0,0,3.55,8.64,11.68,11.68,0,0,0,8.56,3.53A12.28,12.28,0,0,0,42,25.76a11.64,11.64,0,0,0,4.45-4.44A12.47,12.47,0,0,0,48,15.07a12.22,12.22,0,0,0-1.59-6.19,12,12,0,0,0-4.49-4.43A12.24,12.24,0,0,0,35.78,2.79Z"/><path class="cls-1" d="M60.59.72h5.72A33.41,33.41,0,0,1,73,1.15a7.49,7.49,0,0,1,4,2.49,7.2,7.2,0,0,1,1.56,4.74A7.25,7.25,0,0,1,77,13.12a7.49,7.49,0,0,1-4.19,2.51,37.64,37.64,0,0,1-7.31.46H63.46V29.45H60.59Zm2.87,2.82v9.74l4.86.06a12.64,12.64,0,0,0,4.32-.54,4.38,4.38,0,0,0,2.15-1.73,4.8,4.8,0,0,0,.78-2.68,4.75,4.75,0,0,0-.78-2.64A4.34,4.34,0,0,0,72.73,4a12.41,12.41,0,0,0-4.19-.5Z"/><path class="cls-1" d="M87,.72h2.87V29.45H87Z"/><path class="cls-1" d="M127.38,6.05l-2.27,1.74a12.47,12.47,0,0,0-4.5-3.7,13.18,13.18,0,0,0-5.77-1.26,12.76,12.76,0,0,0-6.37,1.65,11.82,11.82,0,0,0-4.54,4.44,12.29,12.29,0,0,0-1.61,6.26,11.77,11.77,0,0,0,3.6,8.77A12.49,12.49,0,0,0,115,27.46a12.76,12.76,0,0,0,10.1-4.73l2.27,1.72A14.42,14.42,0,0,1,122,28.68a16.81,16.81,0,0,1-7.18,1.5q-7.55,0-11.9-5a15.19,15.19,0,0,1-3.65-10.24,14.26,14.26,0,0,1,4.42-10.61A15.27,15.27,0,0,1,114.8,0a16.26,16.26,0,0,1,7.26,1.59A14.08,14.08,0,0,1,127.38,6.05Z"/><path class="cls-1" d="M134.65,24.1l2.44-1.46q2.58,4.74,5.95,4.74a5.7,5.7,0,0,0,2.72-.67,4.77,4.77,0,0,0,2.6-4.21,4.87,4.87,0,0,0-1-2.83,23.47,23.47,0,0,0-4.92-4.61A24.59,24.59,0,0,1,138,11.13a7.15,7.15,0,0,1-1.53-4.39,6.67,6.67,0,0,1,.9-3.42A6.37,6.37,0,0,1,139.89.89,7.33,7.33,0,0,1,143.44,0a7.55,7.55,0,0,1,3.79,1A12.89,12.89,0,0,1,151,4.71l-2.34,1.77a11.36,11.36,0,0,0-2.76-2.83A4.8,4.8,0,0,0,143.38,3a3.94,3.94,0,0,0-2.84,1,3.46,3.46,0,0,0-1.11,2.6,4.45,4.45,0,0,0,.39,1.82,6.79,6.79,0,0,0,1.43,1.91c.38.37,1.61,1.32,3.71,2.87a20.89,20.89,0,0,1,5.12,4.91,7.91,7.91,0,0,1,1.38,4.31,7.34,7.34,0,0,1-2.37,5.43,8,8,0,0,1-5.77,2.31,8.48,8.48,0,0,1-4.75-1.4A12.67,12.67,0,0,1,134.65,24.1Z"/></g></g></svg>