<svg xmlns="http://www.w3.org/2000/svg" viewBox="0 0 334.12 38.47"><defs><style>.cls-1{fill:#c3af3f;}</style></defs><title>st_title</title><g id="レイヤー_2" data-name="レイヤー 2"><g id="text_object" data-name="text/object"><path class="cls-1" d="M0,4.51V.92H20.07V4.51H11.9v33H8.17v-33Z"/><path class="cls-1" d="M29,.92h3.76l7.48,26.4L50.76.92h.76l10.37,26.4L69.5.92h3.74L62.71,37.55H62L51.16,9.84,40.08,37.55H39.4Z"/><path class="cls-1" d="M83.6.92h3.66V37.55H83.6Z"/><path class="cls-1" d="M100.9,37.55V.92h.79L126.07,29V.92h3.61V37.55h-.82L104.68,9.81V37.55Z"/><path class="cls-1" d="M163.12.92h7.3a44.32,44.32,0,0,1,8.26.5A9.47,9.47,0,0,1,184,4.62a9.17,9.17,0,0,1,2,6.05,9.74,9.74,0,0,1-1.41,5.26,8.8,8.8,0,0,1-4,3.43,18.41,18.41,0,0,1-7.22,1.18l13.17,17H182l-13.17-17h-2.07v17h-3.66Zm3.66,3.59V17l6.31.05a15.53,15.53,0,0,0,5.42-.7,5.62,5.62,0,0,0,2.75-2.23,6.15,6.15,0,0,0,1-3.42,6,6,0,0,0-1-3.35,5.62,5.62,0,0,0-2.62-2.16,16,16,0,0,0-5.39-.64Z"/><path class="cls-1" d="M215,0a19,19,0,0,1,13.93,5.55,18.49,18.49,0,0,1,5.6,13.67,18.57,18.57,0,0,1-5.59,13.65,18.53,18.53,0,0,1-13.64,5.6,18.76,18.76,0,0,1-13.76-5.57,18.33,18.33,0,0,1-5.6-13.5,19.57,19.57,0,0,1,2.55-9.79,18.58,18.58,0,0,1,7-7.06A18.77,18.77,0,0,1,215,0Zm.16,3.56a15.62,15.62,0,0,0-13.39,7.83,15.8,15.8,0,0,0-2.05,8,14.92,14.92,0,0,0,4.53,11,14.91,14.91,0,0,0,10.91,4.5A15.63,15.63,0,0,0,223,32.84a14.8,14.8,0,0,0,5.67-5.65,16,16,0,0,0,2-8,15.58,15.58,0,0,0-2-7.89,15.22,15.22,0,0,0-5.73-5.64A15.51,15.51,0,0,0,215.11,3.56Z"/><path class="cls-1" d="M263.66,0a19,19,0,0,1,13.93,5.55,18.5,18.5,0,0,1,5.61,13.67,18.58,18.58,0,0,1-5.6,13.65A18.52,18.52,0,0,1,264,38.47,18.76,18.76,0,0,1,250.2,32.9a18.37,18.37,0,0,1-5.6-13.5,19.57,19.57,0,0,1,2.55-9.79A18.87,18.87,0,0,1,263.66,0Zm.16,3.56a15.07,15.07,0,0,0-7.7,2.12,15.14,15.14,0,0,0-5.69,5.71,15.8,15.8,0,0,0-2.05,8,14.92,14.92,0,0,0,4.53,11,14.93,14.93,0,0,0,10.91,4.5,15.67,15.67,0,0,0,7.9-2.07,14.77,14.77,0,0,0,5.66-5.65,16,16,0,0,0,2-8,15.58,15.58,0,0,0-2-7.89,15.14,15.14,0,0,0-5.73-5.64A15.51,15.51,0,0,0,263.82,3.56Z"/><path class="cls-1" d="M292.79,37.55,298,.92h.6L313.52,31,328.27.92h.58l5.27,36.63h-3.59l-3.61-26.19L314,37.55H313L299.92,11.16l-3.6,26.39Z"/></g></g></svg>