<?xml version="1.0" encoding="UTF-8"?>
<svg id="_レイヤー_2" data-name="レイヤー 2" xmlns="http://www.w3.org/2000/svg" viewBox="0 0 306.23 78.06">
  <defs>
    <style>
      .cls-1 {
        fill: #fff;
      }
    </style>
  </defs>
  <g id="_レイヤー_1-2" data-name="レイヤー 1">
    <g>
      <g>
        <path class="cls-1" d="M70.47,66.35h-3.2v9.2h-1.22v-9.2h-3.18v-1.03h7.6v1.03Z"/>
        <path class="cls-1" d="M73.34,69.72c.68-.87,1.54-1.43,2.44-1.43,1.17,0,1.97.76,1.97,2.04v5.22h-1.15v-4.81c0-1.01-.43-1.44-1.19-1.44-.67,0-1.43.51-2.07,1.4v4.85h-1.12v-10.4h1.12v4.58Z"/>
        <path class="cls-1" d="M80.82,72.16c0,1.73.82,2.7,2.08,2.7.96,0,1.53-.44,1.8-1.44l1.04.35c-.46,1.28-1.37,1.94-2.86,1.94-1.91,0-3.16-1.39-3.16-3.69s1.3-3.73,3.07-3.73,3,1.35,3,3.62v.25h-4.97ZM84.69,71.36c-.11-1.43-.8-2.21-1.89-2.21s-1.86.86-1.96,2.21h3.84Z"/>
        <path class="cls-1" d="M95.39,65.32c2.39,0,3.54,1.03,3.54,2.84s-1.26,2.91-3.63,2.91h-2.11v4.47h-1.19v-10.22h3.4ZM93.19,70.14h2.05c1.68,0,2.44-.72,2.44-1.96s-.69-1.89-2.36-1.89h-2.14v3.84Z"/>
        <path class="cls-1" d="M104.1,69.4c-.87,0-1.73.69-2.18,2.08v4.06h-1.12v-7.09h1.08v1.8c.53-1.36,1.37-1.96,2.3-1.96l-.08,1.1Z"/>
        <path class="cls-1" d="M107.11,67.1h-1.39v-1.37h1.39v1.37ZM106.99,75.55h-1.14v-7.09h1.14v7.09Z"/>
        <path class="cls-1" d="M110.49,69.75c.69-.89,1.57-1.44,2.48-1.44,1.17,0,1.97.74,1.97,2.03v5.22h-1.15v-4.81c0-1.01-.43-1.44-1.19-1.44-.67,0-1.43.5-2.07,1.4v4.85h-1.12v-7.09h1.08v1.29Z"/>
        <path class="cls-1" d="M121.56,70.69c-.21-1.03-.79-1.51-1.58-1.51-1.18,0-1.91,1-1.91,2.82s.74,2.84,1.91,2.84c.93,0,1.46-.51,1.66-1.55l1.07.33c-.39,1.36-1.33,2.09-2.75,2.09-1.87,0-3.05-1.39-3.05-3.69s1.22-3.73,3.05-3.73c1.36,0,2.34.72,2.7,2.11l-1.11.29Z"/>
        <path class="cls-1" d="M125.19,72.16c0,1.73.82,2.7,2.08,2.7.96,0,1.53-.44,1.8-1.44l1.04.35c-.46,1.28-1.37,1.94-2.86,1.94-1.91,0-3.16-1.39-3.16-3.69s1.3-3.73,3.07-3.73,3,1.35,3,3.62v.25h-4.97ZM129.06,71.36c-.11-1.43-.8-2.21-1.89-2.21s-1.86.86-1.96,2.21h3.84Z"/>
        <path class="cls-1" d="M139.77,65.32c2.39,0,3.54,1.03,3.54,2.84s-1.26,2.91-3.63,2.91h-2.11v4.47h-1.19v-10.22h3.4ZM137.57,70.14h2.05c1.68,0,2.44-.72,2.44-1.96s-.69-1.89-2.36-1.89h-2.14v3.84Z"/>
        <path class="cls-1" d="M144.61,70.15c.39-1.23,1.4-1.86,2.82-1.86,1.71,0,2.57.75,2.57,2.36v2.59c0,1.01.07,1.78.14,2.3h-1.03c-.07-.32-.11-.64-.15-1.12-.6.87-1.46,1.29-2.43,1.29-1.37,0-2.18-.83-2.18-2.07s.69-2.04,2.33-2.33c.64-.11,1.42-.18,2.22-.22v-.37c0-1.14-.43-1.58-1.5-1.58-.85,0-1.48.46-1.72,1.35l-1.07-.33ZM148.9,71.87c-.76.01-1.43.11-1.97.22-1.04.22-1.48.71-1.48,1.5s.49,1.28,1.36,1.28c.76,0,1.53-.46,2.09-1.4v-1.6Z"/>
        <path class="cls-1" d="M155.7,69.4c-.87,0-1.73.69-2.18,2.08v4.06h-1.12v-7.09h1.08v1.8c.53-1.36,1.37-1.96,2.3-1.96l-.08,1.1Z"/>
        <path class="cls-1" d="M160.57,71.15l2.61,4.4h-1.28l-2.09-3.65-1.25,1.33v2.32h-1.11v-10.4h1.11v6.85l3.12-3.54h1.32l-2.43,2.69Z"/>
        <path class="cls-1" d="M175.56,66.35h-3.2v9.2h-1.22v-9.2h-3.18v-1.03h7.6v1.03Z"/>
        <path class="cls-1" d="M180.48,72c0,2.29-1.25,3.73-3.05,3.73s-3.04-1.41-3.04-3.69,1.25-3.73,3.05-3.73,3.04,1.4,3.04,3.69ZM175.55,72.01c0,1.83.71,2.84,1.89,2.84s1.9-1,1.9-2.84-.71-2.83-1.89-2.83-1.9,1.01-1.9,2.83Z"/>
        <path class="cls-1" d="M189.46,75.55h-1.41l-.93-3.98c-.17-.74-.31-1.39-.47-2.19h-.22c-.15.79-.26,1.46-.44,2.21l-.96,3.97h-1.41l-2.01-7.09h1.19l.94,3.98c.19.79.32,1.47.49,2.19h.22c.17-.72.29-1.43.47-2.18l.93-3.99h1.47l.92,3.95c.18.79.33,1.48.47,2.22h.22c.18-.76.31-1.44.5-2.22l.97-3.95h1.11l-2.04,7.09Z"/>
        <path class="cls-1" d="M193.69,72.16c0,1.73.82,2.7,2.08,2.7.96,0,1.53-.44,1.8-1.44l1.04.35c-.46,1.28-1.37,1.94-2.86,1.94-1.91,0-3.16-1.39-3.16-3.69s1.3-3.73,3.07-3.73,3,1.35,3,3.62v.25h-4.97ZM197.56,71.36c-.11-1.43-.8-2.21-1.89-2.21s-1.86.86-1.96,2.21h3.84Z"/>
        <path class="cls-1" d="M203.94,69.4c-.87,0-1.73.69-2.18,2.08v4.06h-1.12v-7.09h1.08v1.8c.53-1.36,1.37-1.96,2.3-1.96l-.08,1.1Z"/>
        <path class="cls-1" d="M216.27,66.35h-3.2v9.2h-1.22v-9.2h-3.18v-1.03h7.6v1.03Z"/>
        <path class="cls-1" d="M221.2,72c0,2.29-1.25,3.73-3.05,3.73s-3.04-1.41-3.04-3.69,1.25-3.73,3.05-3.73,3.04,1.4,3.04,3.69ZM216.26,72.01c0,1.83.71,2.84,1.89,2.84s1.9-1,1.9-2.84-.71-2.83-1.89-2.83-1.9,1.01-1.9,2.83Z"/>
        <path class="cls-1" d="M226.37,71.15l2.61,4.4h-1.28l-2.09-3.65-1.25,1.33v2.32h-1.11v-10.4h1.11v6.85l3.12-3.54h1.32l-2.43,2.69Z"/>
        <path class="cls-1" d="M233.47,75.88c-.55,1.59-1.36,2.18-2.62,2.18-.19,0-.43-.01-.68-.06l-.07-.93c.28.06.51.08.74.08.76,0,1.28-.4,1.61-1.41l.11-.33-2.46-6.95h1.21l1.25,4.02c.18.6.32,1.12.49,1.73h.14c.17-.6.32-1.17.5-1.76l1.22-3.99h1.15l-2.58,7.42Z"/>
        <path class="cls-1" d="M243.07,72c0,2.29-1.25,3.73-3.05,3.73s-3.04-1.41-3.04-3.69,1.25-3.73,3.05-3.73,3.04,1.4,3.04,3.69ZM238.13,72.01c0,1.83.71,2.84,1.89,2.84s1.9-1,1.9-2.84-.71-2.83-1.89-2.83-1.9,1.01-1.9,2.83Z"/>
      </g>
      <g>
        <path class="cls-1" d="M39.42,24.3c-.05.26-.02.59-.17.78-2.07,2.6-4.09,5.24-6.28,7.73-1.22,1.38-2.53,1.37-3.91.38-1.22-.87-1.42-1.56-.98-3.04.22-.76.37-1.53.52-2.31.04-.18-.02-.38-.05-.81-1.22,1.76-2.28,3.35-3.4,4.9-.69.95-1.46,1.85-2.85,1.35-1.21-.44-2.13-1.8-2.03-3.2.17-2.41,1.11-4.58,2.28-6.67.51-.91.9-1.89,1.14-3-.23.17-.49.3-.67.51-2.52,2.98-5.15,5.88-7.16,9.26-.22.36-.73.54-1.11.81-.28-.42-.84-.87-.81-1.26.16-2.04.35-4.09.76-6.09.83-4.15,2.01-8.21,4.05-11.96.12-.23.18-.5.29-.82-1.27,0-2.26-.07-2.88,1.45-2.52,6.21-5.19,12.37-7.85,18.52-.51,1.19-1.09,2.39-1.85,3.42-1.2,1.63-3.03,1.69-4.53.33-1.46-1.32-2.37-4.17-1.7-5.68.32.35.63.63.88.96.36.47.61,1.04,1.01,1.46.63.67,1.36,1.25,2.05,1.87.54-.76,1.27-1.44,1.59-2.28,1.82-4.67,3.53-9.39,5.31-14.07.63-1.65,1.35-3.27,2.11-5.09-1.86.3-3.55.64-5.26.83-.76.08-1.58-.03-2.31-.25-.34-.1-.54-.68-.8-1.04.35-.21.67-.56,1.04-.62,2.65-.43,5.31-.78,7.97-1.21.42-.07.91-.29,1.18-.61.81-.96,1.74-1.13,2.73-.38,1.3,1,2.05.65,2.9-.66,1.51-2.35,3.26-4.55,4.96-6.77.29-.38.82-.62,1.29-.81,1.41-.57,2.54-.02,2.47,1.47-.09,1.86-.37,3.78-1,5.52-1.24,3.38-2.92,6.56-5.6,9.11-1.34,1.28-2.61,2.65-3.75,4.11-.61.78-.93,1.81-1.27,2.76-.45,1.28-.78,2.6-1.01,3.94,1.59-2,3.17-4.01,4.79-5.99.57-.7,1.21-1.36,1.9-1.96.6-.52,1.31-.99,2.13-.38.8.59.83,1.43.51,2.25-.5,1.25-1.2,2.42-1.64,3.68-.55,1.59-.93,3.23-1.35,4.86-.08.32-.01.68-.01,1.35.62-.39,1.1-.57,1.41-.91,1.84-1.94,3.84-3.73,4.79-6.39.41-1.15,1.33-2.13,2.14-3.1.71-.86,1.7-1.23,2.86-1.14,1.95.15,2.83,1.54,1.94,3.3-.9,1.8-2.38,3.09-4.21,3.84-.95.39-1.37.87-1.46,1.84-.09.94-.39,1.86-.44,2.8-.07,1.23.64,1.71,1.61.98,1.28-.96,2.48-2.07,3.55-3.27,1.21-1.35,2.23-2.87,3.35-4.31.14-.18.35-.29.53-.43.11.04.22.09.33.13ZM24.23,7.16l1.3-3.01c-.1-.04-.2-.08-.29-.12-.81,1.56-1.62,3.12-2.43,4.68.11.07.22.13.32.2.2-.26.41-.51.61-.77-.26,1.74,1.38.29,1.77,1.16-.3.11-.61.29-.92.3-1.94.07-3.19,1.01-3.74,2.87-.01.04-.04.07-.05.11-.71,1.9-1.43,3.79-2.14,5.69.11.04.22.08.32.12.58-1.38,1.16-2.77,1.75-4.15.06.03.13.05.19.08-.44,1.21-.88,2.42-1.32,3.63.1.06.21.13.31.19.14-.19.25-.4.41-.57,3-3.37,5.3-7.18,7.05-11.32.43-1.01.73-2.09.97-3.16.09-.38-.19-.85-.3-1.28-.33.24-.78.4-.98.72-.97,1.53-1.88,3.09-2.82,4.65ZM31.21,25.35c.13.12.27.24.4.35.55-.41,1.14-.78,1.65-1.25.9-.83,1.82-1.69,1.75-3.06-.02-.36-.25-.7-.38-1.06-.32.17-.78.26-.94.53-.87,1.47-1.66,2.98-2.48,4.48ZM15.13,13.39c-.16-.08-.33-.15-.49-.23-.88,1.98-1.76,3.95-2.63,5.93.12.06.24.11.36.17.92-1.96,1.84-3.91,2.76-5.87Z"/>
        <path class="cls-1" d="M151,7.43c-.34,1.69-.68,3.37-1.03,5.05-1.65,7.88-3.32,15.76-4.93,23.64-.16.79-.43,1.04-1.22,1.02-2.13-.05-4.27-.02-6.67-.02-1.29-7.51-2.58-14.99-3.73-21.64-1.1,6.58-2.34,14.04-3.59,21.56h-7.96c-2.11-9.84-4.23-19.72-6.35-29.63,1.11-.38,1.67-.26,1.91.9,1.8,8.58,3.66,17.14,5.47,25.71.21.99.55,1.53,1.68,1.39.94-.11,1.9-.05,2.85-.01.69.03.94-.23,1.06-.92,1.14-6.45,2.33-12.89,3.51-19.34.1-.54.15-1.1.28-1.63.15-.6.07-1.32,1.12-1.31,1,0,.94.7,1.04,1.25,1.23,6.39,2.45,12.79,3.65,19.19.51,2.75.49,2.75,3.24,2.75.36,0,.72-.04,1.07,0,.85.1,1.13-.27,1.3-1.09,1.78-8.66,3.62-17.31,5.4-25.96.23-1.12.74-1.35,1.9-.93Z"/>
        <path class="cls-1" d="M120.61,7.43c1.51-.4,1.63-.36,1.88,1.04,1.05,5.83,2.09,11.65,3.08,17.49.2,1.19.18,2.42.45,3.66.08-.27.22-.55.22-.82.1-5.01,1.45-9.83,2.3-14.73.34-1.94.76-3.87,1.1-5.82.13-.75.45-1.08,1.25-1.05,1.7.05,3.4.03,5.11,0,.7-.01,1.04.2,1.19.96,1.11,5.65,2.3,11.29,3.39,16.94.27,1.42.29,2.89.68,4.36.15-1.51.23-3.03.45-4.53.65-4.29,1.36-8.57,2.05-12.86.19-1.21.46-2.41.6-3.62.12-1.07.58-1.5,1.82-1.05-.17,1.15-.33,2.34-.53,3.52-1.1,6.5-2.2,13-3.31,19.49-.1.6-.1,1.23-1.07,1.24-.95,0-.97-.62-1.1-1.21-1.45-6.83-2.9-13.66-4.3-20.51-.17-.85-.51-1.07-1.33-1.07-3.25,0-3.27-.03-3.88,3.1-1.19,6.12-2.35,12.25-3.55,18.36-.1.5-.38,1.19-.77,1.35-.78.33-1.25-.1-1.41-1.01-.94-5.24-1.93-10.48-2.9-15.72-.47-2.51-.94-5.02-1.41-7.53Z"/>
        <path class="cls-1" d="M243.03,19.93c4.15,2.09,5.94,5.78,4.61,10.06-1.12,3.62-3.91,5.35-7.45,5.69-3.34.33-6.72.21-10.08.27-1.5.03-3.01-.04-4.51.02-.8.03-1.08-.28-1.01-1.03.01-.16,0-.32,0-.47,0-8.94,0-17.89,0-26.83,0-1.59,0-1.61,1.55-1.6,4.2.03,8.4-.02,12.59.13,3.55.13,6.45,2.32,7.3,5.3.57,2,.49,4.06-.56,5.87-.58,1-1.6,1.74-2.43,2.61ZM226.31,34.13c.28.04.44.08.59.08,3.92,0,7.84,0,11.76-.03.78,0,1.58-.12,2.34-.33,2.42-.66,4.34-1.94,5.07-4.5,1.04-3.59-1.25-7.74-4.87-8.88-.38-.12-.76-.25-1.39-.47.61-.26.97-.4,1.31-.55,4.01-1.74,4.86-7.5,1.47-10.13-1.45-1.13-3.17-1.6-4.99-1.62-3.52-.04-7.05-.02-10.57-.02-.23,0-.45.06-.73.09v26.34Z"/>
        <path class="cls-1" d="M112.61,22.09c-.11,2.74-.51,5.37-1.58,7.89-2.6,6.11-8.19,8.53-14.27,7.77-6.96-.87-10.76-6.25-11.58-12.55-.43-3.3-.25-6.55.84-9.71,2.12-6.1,7.17-9.42,13.73-9.09,5.98.3,10.72,4.36,12.13,10.55.39,1.68.49,3.43.72,5.14ZM86.5,21.69c.28,2.01.38,3.68.77,5.28,1.34,5.55,5.43,8.98,10.89,9.29,5.38.3,9.78-2.59,11.62-7.78,1.46-4.12,1.49-8.31.08-12.45-1.72-5.06-5.81-7.96-11.02-7.98-5.27-.02-9.46,2.87-11.15,7.96-.64,1.92-.85,3.99-1.19,5.69Z"/>
        <path class="cls-1" d="M283.73,35.89h-1.74v-1.15c0-9.14.02-18.28-.03-27.41,0-1.07.32-1.34,1.34-1.33,4.16.07,8.32-.08,12.47.12,7.13.36,11,7.68,7.35,13.86-.63,1.06-1.82,1.8-2.79,2.65-.28.25-.68.36-1.11.58,2.36,4.25,4.68,8.41,7,12.59-1.29.38-2.03.05-2.64-1.11-1.98-3.78-4.09-7.49-6.15-11.23-.19-.34-.36-.7-.6-1.18.43-.2.8-.37,1.18-.54,3.66-1.65,5.14-4.25,4.59-8.04-.46-3.14-2.89-5.63-6.51-5.89-4.05-.29-8.13-.07-12.37-.07v28.14Z"/>
        <path class="cls-1" d="M183.78,37.09h-1.57c-.02-.42-.05-.81-.05-1.19,0-9.1.02-18.2-.03-27.3,0-1.09.3-1.42,1.39-1.4,4.2.08,8.4-.08,12.59.14,7.01.37,10.9,7.96,7.12,13.9-.85,1.33-2.32,2.26-3.68,3.53,1,1.79,2.16,3.88,3.33,5.97,1.15,2.06,2.29,4.13,3.47,6.25-1.3.38-2.01.06-2.62-1.1-2.18-4.12-4.47-8.18-6.79-12.39.5-.24.94-.46,1.39-.66,3.38-1.48,4.96-3.84,4.37-8.01-.48-3.4-3.23-5.75-6.88-5.9-3.72-.15-7.44-.04-11.16-.06-.61,0-.88.23-.85.83.01.36,0,.71,0,1.07,0,8.23,0,16.46,0,24.69,0,.51,0,1.01,0,1.63Z"/>
        <path class="cls-1" d="M177,35.42v1.64h-21.39c-.02-.35-.05-.72-.05-1.1,0-9.14.02-18.28-.03-27.42,0-1.05.29-1.35,1.33-1.34,6.06.04,12.12.02,18.18.02,1.3,0,1.35.09,1.09,1.63h-18.75v26.57h19.62Z"/>
        <path class="cls-1" d="M249.71,35.82c1.28-3.86,2.54-7.68,3.81-11.5,1.88-5.65,3.8-11.3,5.63-16.97.34-1.06.85-1.41,1.94-1.36,2.13.09,4.28.05,6.41.01.69-.01,1.06.21,1.28.9,3.11,9.41,6.25,18.8,9.38,28.2.07.22.09.45.14.7-1.11.33-1.7.11-2.1-1.09-2.8-8.6-5.69-17.16-8.5-25.75-.33-.99-.77-1.39-1.83-1.31-1.3.1-2.62.09-3.92,0-.9-.06-1.23.33-1.49,1.11-2.86,8.62-5.76,17.22-8.6,25.84-.36,1.09-.85,1.61-2.17,1.2Z"/>
        <path class="cls-1" d="M160.81,11.18h1.37c4.23,0,8.47,0,12.7,0,1.49,0,1.53.05,1.24,1.71h-13.64v6.05h11.67v1.67h-13.35v-9.43Z"/>
        <path class="cls-1" d="M74.41,37.08h-1.71c-.02-.43-.06-.85-.06-1.27,0-7.75.02-15.5-.03-23.26,0-1.07.25-1.45,1.38-1.41,2.41.09,4.83.04,7.24.02.67,0,1.15.06,1.14.93-.02.84-.53.81-1.11.81-2.25-.01-4.49,0-6.85,0v24.18Z"/>
        <path class="cls-1" d="M31.54,40.9v2.1H5.62v-2.1h25.92Z"/>
        <path class="cls-1" d="M287.23,20.55v-10.7c2.79.16,5.54.08,8.19.55,2.66.47,3.83,2.67,3.56,5.72-.21,2.37-1.92,4.24-4.37,4.4-2.43.16-4.88.03-7.38.03ZM288.85,11.75v7.16c1.92,0,3.79.15,5.61-.04,1.85-.2,2.99-1.84,2.94-3.74-.05-1.81-1.3-3.22-3.21-3.35-1.73-.12-3.47-.03-5.34-.03Z"/>
        <path class="cls-1" d="M187.25,16.49c0-1.46.01-2.92,0-4.39,0-.63.22-.95.9-.93,2.25.07,4.51,0,6.75.21,2.63.25,4.26,2.27,4.28,4.95.01,2.96-1.57,5.09-4.26,5.36-2.27.23-4.58.14-6.86.21-.76.02-.79-.48-.79-1.03,0-1.46,0-2.92,0-4.39ZM189,20.17c1.56,0,3.05,0,4.54,0,.36,0,.72,0,1.06-.07,1.78-.36,2.9-1.78,2.92-3.67.02-1.71-.95-3.12-2.75-3.34-1.89-.23-3.83-.05-5.78-.05v7.13Z"/>
        <path class="cls-1" d="M176.95,33.05h-16.12v-10.03h13.34v1.54c-.43,0-.84,0-1.26,0-3.13,0-6.25.03-9.38-.02-.9-.01-1.18.31-1.15,1.16.05,1.42.08,2.85,0,4.27-.07,1.12.28,1.51,1.45,1.49,3.88-.06,7.76-.02,11.63-.02.47,0,.94,0,1.49,0v1.6Z"/>
        <path class="cls-1" d="M269.51,24.73h-11.05c.09-.38.15-.71.26-1.03,1.28-3.9,2.57-7.79,3.82-11.7.25-.78.56-1.14,1.47-1.14.86,0,1.15.36,1.38,1.08,1.27,3.94,2.58,7.87,3.87,11.81.1.29.15.59.25.98ZM263.97,12.52c-1.09,3.62-2.11,7.03-3.16,10.54h6.38c-1.08-3.53-2.12-6.94-3.22-10.54Z"/>
        <path class="cls-1" d="M68.89,37.08h-1.5V12.96h-7.87c-.41-1.68-.34-1.78,1.18-1.78,2.29,0,4.59,0,6.88,0,.42,0,.85.04,1.31.06v25.83Z"/>
        <path class="cls-1" d="M187.24,23.91c2.19,0,4.31-.01,6.43.02.2,0,.49.26.59.46,1.95,4.18,3.87,8.37,5.81,12.56-1.3.51-1.91.01-2.4-1.12-1.37-3.15-2.88-6.23-4.27-9.37-.33-.74-.73-1.02-1.52-.96-.93.06-1.88.01-2.95.01v11.54h-1.69v-13.14Z"/>
        <path class="cls-1" d="M288.76,35.89h-1.56c-.03-.43-.08-.81-.09-1.2,0-3.56.03-7.12-.03-10.68-.02-1.08.35-1.37,1.37-1.32,1.54.08,3.09-.02,4.63.05.39.02.96.28,1.1.59,1.92,4.07,3.78,8.17,5.66,12.27.03.06,0,.15,0,.23-1.11.35-1.76.08-2.25-1.09-1.34-3.16-2.86-6.25-4.27-9.39-.33-.75-.74-1.05-1.6-1.05-2.97.03-2.97,0-2.97,2.98v8.6Z"/>
        <path class="cls-1" d="M273.2,35.81c-1.32.42-1.85-.05-2.14-1.13-.43-1.6-1.03-3.15-1.5-4.73-.23-.79-.59-1.15-1.49-1.13-2.73.06-5.46.04-8.18,0-.74,0-1.14.19-1.36.95-.49,1.66-1.09,3.29-1.65,4.93q-.44,1.3-2.09,1.14c.29-.91.55-1.79.84-2.67.56-1.68,1.16-3.35,1.69-5.04.21-.66.53-.94,1.26-.93,3.64.03,7.27,0,10.91.04.35,0,.94.22,1.02.47.93,2.67,1.79,5.37,2.68,8.09Z"/>
        <path class="cls-1" d="M59.42,8.88c-.19-1.65-.19-1.66,1.24-1.67,6.77,0,13.54-.01,20.3.02.45,0,1.17.24,1.31.57.31.74-.09,1.1-.96,1.09-5.22-.03-10.45-.02-15.67-.02-2.05,0-4.1,0-6.22,0Z"/>
        <path class="cls-1" d="M229.76,31.89v-10.46c.47-.02.92-.07,1.37-.06,2.29.05,4.59-.01,6.86.2,2.94.27,4.79,2.34,4.79,5.05,0,2.91-1.82,5.02-4.86,5.23-2.67.19-5.36.04-8.17.04ZM231.45,23.19c0,2.18-.03,4.23.03,6.28,0,.28.44.79.68.79,1.89.02,3.8.06,5.68-.13,2.07-.21,3.23-1.53,3.26-3.4.04-1.84-1.1-3.3-3.15-3.5-2.1-.21-4.24-.05-6.51-.05Z"/>
        <path class="cls-1" d="M229.77,19.41v-9.37c.18-.06.36-.16.54-.16,2.17,0,4.35-.05,6.51.07,2.51.14,4.32,2.16,4.39,4.72.07,2.59-1.35,4.47-3.97,4.7-2.42.21-4.88.05-7.47.05ZM231.52,11.54v6.27c1.65,0,3.22.03,4.78,0,1.99-.05,3.09-1.03,3.2-2.76.11-1.83-.96-3.29-2.82-3.47-1.67-.16-3.37-.03-5.16-.03Z"/>
        <path class="cls-1" d="M90.08,22.03c.46-2.02.69-4.13,1.44-6.04,1.45-3.7,4.38-5.52,7.97-5.34,3.08.15,5.84,2.52,6.91,6.13,1.07,3.61,1.19,7.29-.19,10.82-.63,1.6-1.65,3.21-2.91,4.36-3.21,2.93-8.03,2.14-10.66-1.54-1.78-2.49-2.28-5.33-2.24-8.32-.1-.02-.21-.05-.31-.07ZM105.68,21.97c-.38-1.8-.57-3.67-1.17-5.39-.89-2.52-2.71-4.23-5.52-4.31-2.71-.08-4.6,1.43-5.67,3.78-1.9,4.18-1.82,8.45.18,12.57,1.03,2.13,2.83,3.39,5.29,3.39,2.44,0,4.05-1.35,5.19-3.37,1.16-2.05,1.5-4.3,1.7-6.68Z"/>
      </g>
    </g>
  </g>
</svg>