<?xml version="1.0" encoding="UTF-8"?>
<svg id="_レイヤー_2" data-name="レイヤー 2" xmlns="http://www.w3.org/2000/svg" xmlns:xlink="http://www.w3.org/1999/xlink" viewBox="0 0 1115.06 275.24">
  <defs>
    <style>
      .cls-1 {
        filter: url(#drop-shadow-1);
      }

      .cls-2 {
        fill: #fff;
      }
    </style>
    <filter id="drop-shadow-1" x="-33.47" y="-33.4" width="1182" height="342" filterUnits="userSpaceOnUse">
      <feOffset dx="0" dy="0"/>
      <feGaussianBlur result="blur" stdDeviation="11"/>
      <feFlood flood-color="#000" flood-opacity=".75"/>
      <feComposite in2="blur" operator="in"/>
      <feComposite in="SourceGraphic"/>
    </filter>
  </defs>
  <g id="_レイヤー_1-2" data-name="レイヤー 1">
    <g class="cls-1">
      <g>
        <path class="cls-2" d="M289.23,237.06h-10.45v30h-3.98v-30h-10.36v-3.35h24.79v3.35Z"/>
        <path class="cls-2" d="M298.05,248.05c2.22-2.85,5.02-4.66,7.96-4.66,3.8,0,6.42,2.49,6.42,6.65v17.01h-3.75v-15.7c0-3.3-1.4-4.71-3.89-4.71-2.17,0-4.66,1.67-6.74,4.57v15.83h-3.67v-33.93h3.67v14.93Z"/>
        <path class="cls-2" d="M321.9,256.01c0,5.66,2.67,8.82,6.79,8.82,3.12,0,4.98-1.45,5.88-4.71l3.39,1.13c-1.49,4.16-4.48,6.33-9.32,6.33-6.24,0-10.31-4.52-10.31-12.03s4.25-12.17,10-12.17,9.77,4.39,9.77,11.81v.81h-16.2ZM334.52,253.39c-.36-4.66-2.62-7.19-6.15-7.19s-6.06,2.81-6.38,7.19h12.53Z"/>
        <path class="cls-2" d="M369.44,233.71c7.78,0,11.54,3.35,11.54,9.27s-4.12,9.5-11.85,9.5h-6.88v14.57h-3.89v-33.34h11.08ZM362.25,249.41h6.7c5.47,0,7.96-2.35,7.96-6.38s-2.26-6.15-7.69-6.15h-6.97v12.53Z"/>
        <path class="cls-2" d="M397.28,247.01c-2.85,0-5.66,2.26-7.1,6.79v13.26h-3.67v-23.12h3.53v5.88c1.72-4.43,4.48-6.38,7.51-6.38l-.27,3.57Z"/>
        <path class="cls-2" d="M406.55,239.5h-4.52v-4.48h4.52v4.48ZM406.14,267.05h-3.71v-23.12h3.71v23.12Z"/>
        <path class="cls-2" d="M417.04,248.14c2.26-2.9,5.11-4.71,8.1-4.71,3.8,0,6.42,2.4,6.42,6.61v17.01h-3.75v-15.7c0-3.3-1.4-4.71-3.89-4.71-2.17,0-4.66,1.63-6.74,4.57v15.83h-3.67v-23.12h3.53v4.21Z"/>
        <path class="cls-2" d="M452.61,251.22c-.68-3.35-2.58-4.93-5.16-4.93-3.85,0-6.24,3.26-6.24,9.18s2.4,9.27,6.24,9.27c3.03,0,4.75-1.67,5.43-5.07l3.48,1.09c-1.27,4.43-4.34,6.83-8.96,6.83-6.11,0-9.95-4.52-9.95-12.03s3.98-12.17,9.95-12.17c4.43,0,7.65,2.35,8.82,6.88l-3.62.95Z"/>
        <path class="cls-2" d="M463.92,256.01c0,5.66,2.67,8.82,6.79,8.82,3.12,0,4.98-1.45,5.88-4.71l3.39,1.13c-1.49,4.16-4.48,6.33-9.32,6.33-6.24,0-10.32-4.52-10.32-12.03s4.25-12.17,10-12.17,9.77,4.39,9.77,11.81v.81h-16.2ZM476.54,253.39c-.36-4.66-2.62-7.19-6.15-7.19s-6.06,2.81-6.38,7.19h12.53Z"/>
        <path class="cls-2" d="M511.47,233.71c7.78,0,11.54,3.35,11.54,9.27s-4.12,9.5-11.85,9.5h-6.88v14.57h-3.89v-33.34h11.08ZM504.27,249.41h6.7c5.47,0,7.96-2.35,7.96-6.38s-2.26-6.15-7.69-6.15h-6.97v12.53Z"/>
        <path class="cls-2" d="M526.66,249.45c1.27-4.03,4.57-6.06,9.18-6.06,5.57,0,8.37,2.44,8.37,7.69v8.46c0,3.3.23,5.79.45,7.51h-3.35c-.23-1.04-.36-2.08-.5-3.66-1.95,2.85-4.75,4.21-7.92,4.21-4.48,0-7.1-2.71-7.1-6.74s2.26-6.65,7.6-7.6c2.08-.36,4.62-.59,7.24-.72v-1.22c0-3.71-1.4-5.16-4.89-5.16-2.76,0-4.84,1.49-5.61,4.39l-3.48-1.09ZM540.64,255.06c-2.49.05-4.66.36-6.42.72-3.39.72-4.84,2.31-4.84,4.89s1.58,4.16,4.43,4.16c2.49,0,4.98-1.49,6.83-4.57v-5.2Z"/>
        <path class="cls-2" d="M562.29,247.01c-2.85,0-5.66,2.26-7.1,6.79v13.26h-3.67v-23.12h3.53v5.88c1.72-4.43,4.48-6.38,7.51-6.38l-.27,3.57Z"/>
        <path class="cls-2" d="M577.62,252.71l8.51,14.34h-4.16l-6.83-11.9-4.07,4.34v7.56h-3.62v-33.93h3.62v22.35l10.18-11.54h4.3l-7.92,8.78Z"/>
        <path class="cls-2" d="M626.52,237.06h-10.45v30h-3.98v-30h-10.36v-3.35h24.79v3.35Z"/>
        <path class="cls-2" d="M641.81,255.47c0,7.47-4.07,12.17-9.95,12.17s-9.91-4.61-9.91-12.03,4.07-12.17,9.95-12.17,9.91,4.57,9.91,12.03ZM625.71,255.51c0,5.97,2.31,9.27,6.15,9.27s6.2-3.26,6.2-9.27-2.31-9.23-6.15-9.23-6.2,3.3-6.2,9.23Z"/>
        <path class="cls-2" d="M670.55,267.05h-4.62l-3.03-12.98c-.54-2.4-1-4.52-1.54-7.15h-.72c-.5,2.58-.86,4.75-1.45,7.19l-3.12,12.94h-4.62l-6.56-23.12h3.89l3.08,12.98c.63,2.58,1.04,4.8,1.58,7.15h.72c.54-2.35.95-4.66,1.54-7.1l3.03-13.03h4.8l2.99,12.89c.59,2.58,1.09,4.84,1.54,7.24h.72c.59-2.49,1-4.71,1.63-7.24l3.17-12.89h3.62l-6.65,23.12Z"/>
        <path class="cls-2" d="M683.77,256.01c0,5.66,2.67,8.82,6.79,8.82,3.12,0,4.98-1.45,5.88-4.71l3.39,1.13c-1.49,4.16-4.48,6.33-9.32,6.33-6.24,0-10.32-4.52-10.32-12.03s4.25-12.17,10-12.17,9.77,4.39,9.77,11.81v.81h-16.2ZM696.4,253.39c-.36-4.66-2.62-7.19-6.15-7.19s-6.06,2.81-6.38,7.19h12.53Z"/>
        <path class="cls-2" d="M716.68,247.01c-2.85,0-5.66,2.26-7.1,6.79v13.26h-3.67v-23.12h3.53v5.88c1.72-4.43,4.48-6.38,7.51-6.38l-.27,3.57Z"/>
        <path class="cls-2" d="M756.89,237.06h-10.45v30h-3.98v-30h-10.36v-3.35h24.79v3.35Z"/>
        <path class="cls-2" d="M772.19,255.47c0,7.47-4.07,12.17-9.95,12.17s-9.91-4.61-9.91-12.03,4.07-12.17,9.95-12.17,9.91,4.57,9.91,12.03ZM756.08,255.51c0,5.97,2.31,9.27,6.15,9.27s6.2-3.26,6.2-9.27-2.31-9.23-6.15-9.23-6.2,3.3-6.2,9.23Z"/>
        <path class="cls-2" d="M788.53,252.71l8.51,14.34h-4.16l-6.83-11.9-4.07,4.34v7.56h-3.62v-33.93h3.62v22.35l10.18-11.54h4.3l-7.92,8.78Z"/>
        <path class="cls-2" d="M811.21,268.14c-1.81,5.2-4.43,7.1-8.55,7.1-.63,0-1.4-.05-2.22-.18l-.23-3.03c.9.18,1.67.27,2.4.27,2.49,0,4.16-1.31,5.25-4.61l.36-1.09-8.01-22.67h3.94l4.07,13.12c.59,1.95,1.04,3.66,1.58,5.66h.45c.54-1.95,1.04-3.8,1.63-5.75l3.98-13.03h3.76l-8.42,24.2Z"/>
        <path class="cls-2" d="M841.96,255.47c0,7.47-4.07,12.17-9.95,12.17s-9.91-4.61-9.91-12.03,4.07-12.17,9.95-12.17,9.91,4.57,9.91,12.03ZM825.85,255.51c0,5.97,2.31,9.27,6.15,9.27s6.2-3.26,6.2-9.27-2.31-9.23-6.15-9.23-6.2,3.3-6.2,9.23Z"/>
      </g>
      <g>
        <path class="cls-2" d="M143.53,88.47c-.19.95-.09,2.15-.63,2.83-7.54,9.45-14.88,19.08-22.87,28.14-4.45,5.04-9.23,4.98-14.25,1.38-4.44-3.18-5.17-5.68-3.58-11.07.81-2.75,1.33-5.59,1.9-8.4.13-.65-.07-1.37-.18-2.96-4.43,6.41-8.31,12.2-12.38,17.85-2.5,3.47-5.31,6.75-10.36,4.93-4.4-1.59-7.74-6.56-7.38-11.66.62-8.78,4.05-16.67,8.28-24.28,1.85-3.33,3.28-6.89,4.16-10.92-.82.61-1.79,1.09-2.44,1.86-9.18,10.86-18.75,21.41-26.08,33.72-.78,1.32-2.67,1.98-4.04,2.95-1.03-1.54-3.05-3.15-2.93-4.6.59-7.43,1.29-14.9,2.75-22.19,3.03-15.12,7.32-29.89,14.75-43.56.45-.83.64-1.81,1.05-2.97-4.62.03-8.24-.24-10.47,5.28-9.17,22.63-18.91,45.03-28.59,67.45-1.87,4.33-3.97,8.69-6.75,12.46-4.36,5.92-11.02,6.15-16.49,1.21-5.31-4.8-8.62-15.19-6.2-20.68,1.18,1.27,2.31,2.3,3.21,3.5,1.29,1.73,2.2,3.78,3.67,5.33,2.31,2.43,4.95,4.54,7.45,6.79,1.97-2.75,4.61-5.24,5.8-8.3,6.63-17.01,12.86-34.18,19.34-51.25,2.29-6.02,4.92-11.92,7.67-18.53-6.78,1.1-12.94,2.33-19.15,3.02-2.76.31-5.75-.11-8.41-.92-1.24-.38-1.96-2.48-2.92-3.79,1.26-.78,2.44-2.04,3.78-2.26,9.65-1.56,19.35-2.85,29-4.41,1.53-.25,3.32-1.07,4.29-2.22,2.93-3.49,6.35-4.12,9.93-1.37,4.73,3.65,7.48,2.37,10.56-2.4,5.51-8.55,11.88-16.56,18.08-24.65,1.06-1.38,2.99-2.27,4.69-2.95,5.14-2.08,9.25-.07,8.99,5.36-.32,6.76-1.33,13.78-3.65,20.1-4.52,12.32-10.64,23.88-20.4,33.17-4.89,4.65-9.5,9.67-13.65,14.98-2.21,2.84-3.4,6.58-4.62,10.06-1.63,4.66-2.85,9.46-3.67,14.35,5.8-7.28,11.53-14.61,17.42-21.81,2.09-2.55,4.41-4.97,6.9-7.12,2.19-1.89,4.78-3.59,7.77-1.39,2.91,2.14,3.03,5.22,1.84,8.18-1.81,4.54-4.37,8.8-5.96,13.4-1.99,5.77-3.38,11.76-4.9,17.69-.3,1.17-.04,2.49-.04,4.92,2.28-1.43,3.99-2.09,5.13-3.3,6.69-7.08,13.99-13.57,17.44-23.28,1.48-4.17,4.86-7.77,7.78-11.3,2.59-3.14,6.21-4.47,10.42-4.14,7.11.54,10.29,5.61,7.07,12.03-3.28,6.54-8.67,11.25-15.33,13.97-3.45,1.41-4.98,3.16-5.3,6.7-.31,3.43-1.41,6.79-1.61,10.21-.27,4.49,2.32,6.22,5.86,3.58,4.67-3.49,9.04-7.55,12.93-11.9,4.4-4.92,8.12-10.46,12.19-15.69.5-.64,1.27-1.06,1.92-1.58.4.16.81.31,1.21.47ZM88.21,26.05c1.58-3.66,3.16-7.31,4.74-10.97-.36-.15-.72-.3-1.07-.45-2.95,5.68-5.91,11.36-8.86,17.04.39.24.78.48,1.18.71.74-.93,1.48-1.86,2.22-2.79-.93,6.35,5.01,1.07,6.45,4.24-1.11.38-2.21,1.06-3.33,1.1-7.07.25-11.61,3.66-13.62,10.45-.04.14-.15.25-.2.38-2.6,6.9-5.2,13.8-7.8,20.71.39.15.78.3,1.18.44,2.12-5.04,4.24-10.09,6.35-15.13.23.1.46.2.68.3-1.6,4.41-3.21,8.82-4.81,13.23.38.23.75.46,1.13.69.49-.7.92-1.45,1.49-2.09,10.92-12.28,19.31-26.14,25.68-41.23,1.56-3.69,2.66-7.61,3.52-11.52.31-1.4-.69-3.09-1.1-4.65-1.22.86-2.84,1.46-3.58,2.62-3.55,5.55-6.86,11.26-10.25,16.91ZM113.64,92.29c.49.43.98.86,1.47,1.28,2.01-1.5,4.16-2.86,6-4.55,3.27-3.02,6.64-6.14,6.37-11.14-.07-1.3-.9-2.56-1.39-3.85-1.16.63-2.83.96-3.41,1.93-3.16,5.35-6.05,10.86-9.04,16.32ZM55.09,48.77c-.59-.27-1.18-.55-1.78-.82-3.2,7.19-6.39,14.38-9.59,21.58.44.2.89.4,1.33.6,3.34-7.12,6.69-14.24,10.03-21.36Z"/>
        <path class="cls-2" d="M549.82,27.05c-1.25,6.14-2.48,12.28-3.76,18.4-6.01,28.69-12.09,57.37-17.97,86.09-.59,2.87-1.58,3.79-4.44,3.73-7.77-.17-15.54-.06-24.28-.06-4.71-27.34-9.41-54.59-13.58-78.8-3.99,23.95-8.51,51.13-13.07,78.51h-28.97c-7.67-35.81-15.39-71.81-23.12-107.88,4.06-1.4,6.08-.96,6.97,3.28,6.54,31.22,13.33,62.4,19.91,93.61.76,3.61,2,5.57,6.13,5.07,3.41-.41,6.92-.2,10.37-.05,2.51.11,3.42-.82,3.87-3.35,4.17-23.49,8.5-46.95,12.77-70.43.36-1.98.56-4,1.04-5.95.53-2.2.25-4.81,4.06-4.78,3.63.03,3.41,2.54,3.8,4.56,4.49,23.28,8.92,46.58,13.28,69.89,1.87,10,1.78,10.01,11.79,10.01,1.3,0,2.61-.13,3.89.02,3.08.38,4.13-.97,4.75-3.98,6.48-31.53,13.19-63.01,19.68-94.54.84-4.08,2.7-4.93,6.9-3.38Z"/>
        <path class="cls-2" d="M439.16,27.05c5.48-1.45,5.92-1.3,6.83,3.79,3.81,21.21,7.61,42.42,11.22,63.67.74,4.33.67,8.8,1.64,13.33.28-1,.79-1.99.8-2.99.35-18.26,5.27-35.8,8.37-53.62,1.23-7.08,2.77-14.1,4.02-21.18.48-2.73,1.65-3.92,4.56-3.84,6.19.18,12.4.12,18.6.03,2.55-.04,3.79.74,4.33,3.5,4.03,20.58,8.36,41.1,12.33,61.7,1,5.18,1.05,10.54,2.47,15.86.53-5.5.82-11.04,1.65-16.49,2.37-15.63,4.95-31.22,7.46-46.83.71-4.4,1.67-8.76,2.18-13.18.45-3.9,2.1-5.46,6.62-3.83-.63,4.18-1.21,8.5-1.94,12.81-3.99,23.67-8.01,47.33-12.06,70.98-.37,2.18-.37,4.48-3.89,4.5-3.48.02-3.54-2.25-4-4.42-5.27-24.88-10.58-49.75-15.67-74.67-.63-3.1-1.85-3.9-4.83-3.9-11.83,0-11.91-.1-14.12,11.29-4.34,22.28-8.54,44.6-12.94,66.87-.36,1.82-1.4,4.33-2.81,4.93-2.84,1.22-4.53-.38-5.12-3.66-3.42-19.1-7.02-38.16-10.57-57.23-1.7-9.15-3.42-18.29-5.13-27.41Z"/>
        <path class="cls-2" d="M884.93,72.56c15.13,7.6,21.63,21.04,16.79,36.62-4.09,13.16-14.25,19.47-27.12,20.72-12.15,1.18-24.47.76-36.71.97-5.48.09-10.97-.13-16.44.08-2.93.11-3.94-1.03-3.68-3.75.05-.57,0-1.15,0-1.73,0-32.57,0-65.14,0-97.71,0-5.8.02-5.85,5.64-5.82,15.29.1,30.58-.09,45.85.48,12.91.48,23.48,8.44,26.56,19.29,2.07,7.3,1.8,14.77-2.06,21.36-2.13,3.64-5.84,6.35-8.85,9.49ZM824.05,124.27c1.03.15,1.59.3,2.16.29,14.28-.01,28.55.03,42.83-.11,2.85-.03,5.77-.45,8.52-1.2,8.81-2.4,15.79-7.07,18.47-16.37,3.78-13.08-4.54-28.17-17.72-32.33-1.39-.44-2.76-.92-5.08-1.7,2.24-.93,3.52-1.44,4.79-2,14.6-6.35,17.69-27.3,5.37-36.89-5.3-4.13-11.56-5.82-18.18-5.89-12.83-.13-25.67-.06-38.5-.06-.82,0-1.64.21-2.65.34v95.9Z"/>
        <path class="cls-2" d="M410.05,80.42c-.39,9.97-1.84,19.56-5.75,28.72-9.47,22.23-29.81,31.07-51.95,28.3-25.33-3.17-39.17-22.75-42.16-45.69-1.56-12.01-.93-23.87,3.06-35.36,7.71-22.2,26.11-34.3,50-33.11,21.79,1.09,39.03,15.89,44.18,38.4,1.4,6.12,1.77,12.48,2.61,18.73ZM314.95,78.98c1.03,7.33,1.39,13.41,2.8,19.24,4.89,20.21,19.76,32.7,39.65,33.81,19.6,1.1,35.62-9.43,42.32-28.34,5.32-14.99,5.44-30.26.3-45.33-6.28-18.41-21.15-28.97-40.14-29.06-19.2-.09-34.44,10.45-40.59,28.98-2.32,7-3.08,14.51-4.34,20.7Z"/>
        <path class="cls-2" d="M1033.15,130.7h-6.33v-4.18c0-33.27.07-66.55-.09-99.82-.02-3.89,1.18-4.89,4.88-4.83,15.13.25,30.29-.3,45.4.45,25.98,1.3,40.07,27.96,26.76,50.47-2.29,3.87-6.64,6.55-10.16,9.64-1.02.9-2.47,1.31-4.05,2.11,8.6,15.46,17.03,30.61,25.5,45.84-4.7,1.38-7.39.19-9.6-4.03-7.22-13.76-14.89-27.28-22.38-40.9-.69-1.25-1.3-2.54-2.18-4.28,1.55-.72,2.92-1.36,4.3-1.98,13.32-6.03,18.72-15.48,16.7-29.28-1.67-11.44-10.53-20.49-23.72-21.43-14.74-1.04-29.61-.24-45.03-.24v102.46Z"/>
        <path class="cls-2" d="M669.19,135.04h-5.73c-.07-1.54-.2-2.94-.2-4.34-.01-33.14.06-66.27-.1-99.41-.02-3.98,1.1-5.19,5.05-5.11,15.28.28,30.59-.3,45.83.51,25.52,1.35,39.68,28.99,25.94,50.62-3.08,4.85-8.46,8.23-13.4,12.86,3.63,6.52,7.88,14.13,12.12,21.75,4.18,7.51,8.34,15.03,12.64,22.77-4.72,1.4-7.32.2-9.55-4.02-7.92-15.01-16.28-29.79-24.72-45.11,1.82-.86,3.41-1.67,5.05-2.39,12.3-5.4,18.07-13.98,15.92-29.18-1.74-12.37-11.75-20.94-25.07-21.47-13.53-.54-27.1-.14-40.65-.23-2.22-.01-3.19.82-3.11,3.01.05,1.29-.01,2.59-.01,3.89,0,29.97,0,59.93,0,89.9,0,1.84,0,3.69,0,5.94Z"/>
        <path class="cls-2" d="M644.49,128.96v5.97h-77.9c-.06-1.26-.17-2.64-.17-4.01-.01-33.28.06-66.57-.1-99.85-.02-3.83,1.06-4.91,4.83-4.89,22.06.15,44.13.06,66.19.08,4.75,0,4.93.31,3.99,5.95h-68.28v96.75h71.44Z"/>
        <path class="cls-2" d="M909.25,130.44c4.67-14.07,9.26-27.97,13.89-41.86,6.86-20.59,13.84-41.14,20.52-61.79,1.25-3.85,3.09-5.12,7.05-4.96,7.77.31,15.57.17,23.35.05,2.52-.04,3.85.78,4.68,3.27,11.33,34.25,22.76,68.47,34.15,102.7.26.79.33,1.64.5,2.56-4.05,1.21-6.2.4-7.63-3.98-10.18-31.3-20.71-62.49-30.96-93.77-1.18-3.62-2.81-5.06-6.67-4.76-4.73.37-9.53.32-14.26,0-3.28-.22-4.47,1.19-5.42,4.04-10.4,31.38-20.97,62.7-31.31,94.1-1.31,3.97-3.08,5.87-7.9,4.38Z"/>
        <path class="cls-2" d="M585.57,40.69h4.97c15.42,0,30.84,0,46.26,0,5.42,0,5.57.2,4.52,6.22h-49.65v22.03h42.5v6.1h-48.61v-34.34Z"/>
        <path class="cls-2" d="M270.94,135.03h-6.24c-.08-1.58-.22-3.1-.22-4.61-.01-28.23.06-56.46-.09-84.68-.02-3.9.93-5.28,5.03-5.14,8.78.31,17.58.14,26.37.07,2.45-.02,4.2.23,4.14,3.4-.06,3.08-1.92,2.96-4.05,2.95-8.18-.04-16.36-.02-24.94-.02v88.03Z"/>
        <path class="cls-2" d="M114.85,148.92v7.64H20.48v-7.64h94.37Z"/>
        <path class="cls-2" d="M1045.89,74.83v-38.97c10.16.6,20.17.31,29.82,2,9.7,1.7,13.94,9.74,12.95,20.82-.77,8.65-6.99,15.44-15.91,16.03-8.84.58-17.76.13-26.86.13ZM1051.78,42.79v26.07c7.01,0,13.79.55,20.43-.15,6.72-.71,10.88-6.7,10.69-13.62-.18-6.59-4.73-11.72-11.67-12.2-6.3-.44-12.65-.09-19.45-.09Z"/>
        <path class="cls-2" d="M681.82,60.03c0-5.32.04-10.65-.01-15.97-.02-2.29.78-3.47,3.27-3.39,8.19.27,16.43-.01,24.57.77,9.59.92,15.53,8.27,15.57,18.03.04,10.78-5.71,18.54-15.51,19.51-8.28.82-16.66.52-25,.76-2.76.08-2.89-1.75-2.89-3.74,0-5.32,0-10.65,0-15.97ZM688.2,73.43c5.68,0,11.11.01,16.54-.01,1.29,0,2.62,0,3.87-.25,6.47-1.3,10.56-6.5,10.63-13.36.06-6.21-3.47-11.36-10.02-12.16-6.88-.84-13.94-.19-21.03-.19v25.97Z"/>
        <path class="cls-2" d="M644.34,120.34h-58.68v-36.52h48.56v5.61c-1.56,0-3.08,0-4.59,0-11.38,0-22.77.11-34.15-.07-3.29-.05-4.29,1.11-4.19,4.23.17,5.18.28,10.38-.03,15.54-.25,4.09,1.04,5.51,5.29,5.44,14.12-.24,28.24-.09,42.36-.09,1.7,0,3.41,0,5.44,0v5.84Z"/>
        <path class="cls-2" d="M981.36,90.03h-40.25c.34-1.37.56-2.59.94-3.76,4.64-14.2,9.37-28.36,13.92-42.59.9-2.82,2.06-4.16,5.35-4.14,3.14.02,4.19,1.29,5.04,3.94,4.62,14.35,9.38,28.66,14.08,42.99.35,1.06.56,2.16.92,3.57ZM961.2,45.59c-3.95,13.19-7.68,25.61-11.51,38.39h23.24c-3.93-12.86-7.72-25.27-11.73-38.39Z"/>
        <path class="cls-2" d="M250.84,135h-5.46V47.18h-28.66c-1.5-6.11-1.23-6.48,4.28-6.49,8.35,0,16.7-.01,25.06,0,1.54,0,3.08.15,4.78.23v94.06Z"/>
        <path class="cls-2" d="M681.8,87.07c7.96,0,15.69-.05,23.42.08.74.01,1.79.93,2.15,1.69,7.09,15.21,14.1,30.47,21.14,45.75-4.74,1.84-6.94.05-8.74-4.08-4.98-11.46-10.48-22.7-15.55-34.13-1.19-2.69-2.67-3.7-5.53-3.51-3.4.22-6.83.05-10.75.05v42.01h-6.14v-47.86Z"/>
        <path class="cls-2" d="M1051.44,130.68h-5.69c-.12-1.57-.31-2.97-.31-4.36-.02-12.97.13-25.94-.1-38.91-.07-3.92,1.28-4.97,4.99-4.79,5.61.27,11.25-.07,16.87.18,1.4.06,3.48,1.01,4.02,2.14,7,14.83,13.78,29.76,20.6,44.68.1.23.01.54.01.85-4.03,1.26-6.4.31-8.21-3.97-4.88-11.52-10.43-22.75-15.54-34.18-1.22-2.72-2.71-3.84-5.82-3.81-10.83.11-10.83-.02-10.83,10.87v31.3Z"/>
        <path class="cls-2" d="M994.8,130.4c-4.82,1.53-6.73-.18-7.79-4.12-1.57-5.81-3.76-11.46-5.45-17.24-.85-2.88-2.14-4.18-5.41-4.1-9.93.23-19.86.16-29.8.03-2.69-.03-4.14.71-4.96,3.46-1.8,6.05-3.97,11.98-6,17.96q-1.6,4.73-7.62,4.16c1.04-3.3,2.02-6.52,3.08-9.71,2.04-6.12,4.21-12.21,6.15-18.36.76-2.4,1.92-3.43,4.59-3.4,13.24.13,26.49,0,39.73.13,1.29.01,3.41.8,3.73,1.72,3.4,9.72,6.52,19.55,9.75,29.46Z"/>
        <path class="cls-2" d="M216.36,32.33c-.7-6.02-.7-6.06,4.51-6.07,24.64-.02,49.29-.05,73.93.08,1.66,0,4.26.89,4.76,2.06,1.14,2.68-.33,4-3.49,3.98-19.02-.12-38.05-.06-57.07-.06-7.47,0-14.94,0-22.65,0Z"/>
        <path class="cls-2" d="M836.61,116.13v-38.1c1.7-.08,3.36-.24,5-.21,8.33.18,16.7-.04,24.98.73,10.69.98,17.44,8.52,17.46,18.4.02,10.58-6.61,18.26-17.71,19.04-9.71.68-19.51.14-29.73.14ZM842.75,84.46c0,7.92-.1,15.4.12,22.86.03,1.03,1.61,2.88,2.49,2.89,6.89.08,13.83.22,20.67-.46,7.53-.75,11.75-5.59,11.88-12.36.13-6.68-3.99-12.01-11.47-12.75-7.65-.76-15.43-.17-23.69-.17Z"/>
        <path class="cls-2" d="M836.66,70.67v-34.12c.65-.2,1.31-.58,1.96-.58,7.91.02,15.83-.2,23.71.24,9.15.51,15.73,7.88,16,17.18.27,9.43-4.93,16.28-14.47,17.12-8.83.78-17.77.17-27.2.17ZM843.02,42.03v22.82c5.99,0,11.71.11,17.42-.03,7.24-.18,11.26-3.75,11.64-10.04.39-6.65-3.51-11.98-10.27-12.63-6.09-.59-12.29-.12-18.79-.12Z"/>
        <path class="cls-2" d="M328,80.21c1.69-7.36,2.52-15.05,5.24-22,5.27-13.48,15.94-20.09,29.03-19.45,11.2.55,21.27,9.17,25.16,22.33,3.88,13.13,4.34,26.56-.69,39.4-2.28,5.82-6.02,11.68-10.61,15.87-11.7,10.67-29.25,7.79-38.83-5.59-6.47-9.05-8.31-19.41-8.16-30.28-.38-.09-.76-.18-1.14-.27ZM384.8,80.01c-1.37-6.56-2.06-13.35-4.26-19.62-3.24-9.19-9.86-15.39-20.11-15.7-9.85-.29-16.74,5.22-20.64,13.78-6.93,15.23-6.62,30.76.66,45.79,3.75,7.74,10.29,12.34,19.28,12.34,8.89,0,14.76-4.92,18.89-12.27,4.21-7.48,5.46-15.66,6.19-24.33Z"/>
      </g>
    </g>
  </g>
</svg>