<?xml version="1.0" encoding="UTF-8"?>
<svg id="_レイヤー_2" data-name="レイヤー 2" xmlns="http://www.w3.org/2000/svg" viewBox="0 0 33.58 33.58">
  <defs>
    <style>
      .cls-1 {
        fill: #3f3d3c;
      }
    </style>
  </defs>
  <g id="footer">
    <g>
      <path class="cls-1" d="M16.79,3.03c4.48,0,5.01,.02,6.78,.1,1.64,.07,2.53,.35,3.12,.58,.78,.3,1.34,.67,1.93,1.26s.95,1.15,1.26,1.93c.23,.59,.5,1.48,.58,3.12,.08,1.77,.1,2.3,.1,6.78s-.02,5.01-.1,6.78c-.07,1.64-.35,2.53-.58,3.12-.3,.78-.67,1.34-1.26,1.93-.59,.59-1.15,.95-1.93,1.26-.59,.23-1.48,.5-3.12,.58-1.77,.08-2.3,.1-6.78,.1s-5.01-.02-6.78-.1c-1.64-.07-2.53-.35-3.12-.58-.78-.3-1.34-.67-1.93-1.26-.59-.59-.95-1.15-1.26-1.93-.23-.59-.5-1.48-.58-3.12-.08-1.77-.1-2.3-.1-6.78s.02-5.01,.1-6.78c.07-1.64,.35-2.53,.58-3.12,.3-.78,.67-1.34,1.26-1.93,.59-.59,1.15-.95,1.93-1.26,.59-.23,1.48-.5,3.12-.58,1.77-.08,2.3-.1,6.78-.1m0-3.03c-4.56,0-5.13,.02-6.92,.1-1.79,.08-3.01,.37-4.08,.78-1.1,.43-2.04,1-2.97,1.94-.93,.93-1.51,1.87-1.94,2.97C.47,6.86,.18,8.08,.1,9.87c-.08,1.79-.1,2.36-.1,6.92s.02,5.13,.1,6.92c.08,1.79,.37,3.01,.78,4.08,.43,1.1,1,2.04,1.94,2.97,.93,.93,1.87,1.51,2.97,1.94,1.07,.42,2.29,.7,4.08,.78,1.79,.08,2.36,.1,6.92,.1s5.13-.02,6.92-.1c1.79-.08,3.01-.37,4.08-.78,1.1-.43,2.04-1,2.97-1.94,.93-.93,1.51-1.87,1.94-2.97,.42-1.07,.7-2.29,.78-4.08,.08-1.79,.1-2.36,.1-6.92s-.02-5.13-.1-6.92c-.08-1.79-.37-3.01-.78-4.08-.43-1.1-1-2.04-1.94-2.97-.93-.93-1.87-1.51-2.97-1.94-1.07-.42-2.29-.7-4.08-.78-1.79-.08-2.36-.1-6.92-.1h0Z"/>
      <path class="cls-1" d="M16.79,8.17c-4.76,0-8.62,3.86-8.62,8.62s3.86,8.62,8.62,8.62,8.62-3.86,8.62-8.62-3.86-8.62-8.62-8.62Zm0,14.22c-3.09,0-5.6-2.51-5.6-5.6s2.51-5.6,5.6-5.6,5.6,2.51,5.6,5.6-2.51,5.6-5.6,5.6Z"/>
      <circle class="cls-1" cx="25.75" cy="7.83" r="2.01"/>
    </g>
  </g>
</svg>