<?xml version="1.0" encoding="UTF-8"?>
<svg id="_レイヤー_2" data-name="レイヤー 2" xmlns="http://www.w3.org/2000/svg" viewBox="0 0 34.55 34.55">
  <defs>
    <style>
      .cls-1 {
        fill: #fff;
      }

      .cls-2 {
        fill: #3f3d3c;
      }
    </style>
  </defs>
  <g id="footer">
    <g>
      <path class="cls-2" d="M34.55,17.28C34.55,7.73,26.82,0,17.28,0S0,7.73,0,17.28c0,8.62,6.32,15.77,14.58,17.07v-12.07h-4.39v-4.99h4.39v-3.81c0-4.33,2.58-6.72,6.53-6.72,1.89,0,3.87,.34,3.87,.34v4.25h-2.18c-2.15,0-2.82,1.33-2.82,2.7v3.24h4.79l-.77,4.99h-4.03v12.07c8.26-1.3,14.58-8.44,14.58-17.07Z"/>
      <path class="cls-1" d="M24,22.27l.77-4.99h-4.79v-3.24c0-1.37,.67-2.7,2.82-2.7h2.18V7.09s-1.98-.34-3.87-.34c-3.95,0-6.53,2.39-6.53,6.72v3.81h-4.39v4.99h4.39v12.07c.88,.14,1.78,.21,2.7,.21s1.82-.07,2.7-.21v-12.07h4.03Z"/>
    </g>
  </g>
</svg>