<?xml version="1.0" encoding="UTF-8"?>
<svg id="_レイヤー_2" data-name="レイヤー 2" xmlns="http://www.w3.org/2000/svg" viewBox="0 0 62.61 61.34">
  <defs>
    <style>
      .cls-1 {
        fill: none;
      }

      .cls-2 {
        fill: #e5c8a4;
      }

      .cls-3 {
        fill: #f4f4f4;
      }

      .cls-4 {
        fill: #fff;
      }
    </style>
  </defs>
  <g id="_レイヤー_2-2" data-name="レイヤー 2">
    <g>
      <path class="cls-1" d="M31.35,46.15l-.07.21c-.03-.06-.05-.14-.07-.21h.14Z"/>
      <path class="cls-1" d="M39.78,20.3c-.1.46-.23.92-.41,1.37l-.13.29-.13.39-.13.39-.25.77-.33,1.01h-1.21l-.51-1.1c.07-.12.13-.24.19-.34.73-1.14,1.74-2.1,2.9-2.78Z"/>
      <path class="cls-1" d="M23.04,51.61c-2.03-.07-4.01-.85-5.53-2.25-1.05-.93-1.85-2.14-2.33-3.47.03,0,.05.02.08.02,1.44.25,2.92.33,4.39.24h.12s1.38,0,1.38,0c.33,1.91.98,3.76,1.89,5.47Z"/>
      <path class="cls-1" d="M14.82,26.61c-.06.04-.14.06-.2.1-1.7.91-3.23,2.08-4.54,3.46-.63-2.21-.37-4.64.78-6.66.54-1,1.31-1.86,2.22-2.56.14.99.34,1.96.64,2.92.11.35.23.7.35,1.04.14.35.25.66.46,1.1l.29.62Z"/>
      <path class="cls-1" d="M26.13,23.78h0s-.24.73-.24.73h-1.27l-.63-1.26-.66-1.39s-.11-.24-.17-.4c-.05-.16-.11-.33-.16-.49-.07-.22-.12-.45-.16-.68.8.47,1.54,1.06,2.14,1.77.45.53.84,1.1,1.16,1.71Z"/>
      <path class="cls-1" d="M36.15,11.22c-.38.18-.76.38-1.12.59-1.36.78-2.61,1.73-3.72,2.82-1.41-1.4-3.06-2.54-4.85-3.41,1.53-1.02,3.36-1.58,5.21-1.48,1.6.05,3.16.59,4.48,1.48Z"/>
      <path class="cls-1" d="M45.03,36.42c-.05,0-.11.02-.16.03-.05,0-.08,0-.13,0l.07-.2c.07.05.14.11.22.17Z"/>
      <polygon class="cls-1" points="22.44 35.14 22.02 36.42 20.54 36.42 22.44 35.14"/>
      <path class="cls-1" d="M52.54,30.17c-.35-.36-.72-.72-1.1-1.06-1.07-.94-2.25-1.76-3.5-2.43l.45-1.39c.57-1.39.95-2.87,1.16-4.36,1.66,1.3,2.82,3.19,3.2,5.3.25,1.3.16,2.66-.2,3.94Z"/>
      <path class="cls-1" d="M19.8,36.42h-.11c-.14,0-.27,0-.41,0l-.28.02c-.47.04-.94,0-1.41-.04.49-.43,1.02-.81,1.59-1.11l.18.34c.14.24.2.39.43.78Z"/>
      <path class="cls-1" d="M47.44,45.9c-.23.64-.53,1.26-.91,1.83-.76,1.15-1.81,2.12-3.03,2.8-1.19.67-2.54,1.04-3.92,1.09.11-.2.22-.4.33-.62.11-.23.24-.48.34-.72l.21-.65,1.14-3.48h1.23l.61.04c.73.03,1.48.02,2.21-.05.61-.05,1.21-.13,1.81-.24Z"/>
      <path class="cls-4" d="M27.79,46.15c.31,1.12.8,2.19,1.42,3.17-.1.09-.18.19-.28.27-.73.62-1.58,1.1-2.48,1.45-.95-1.49-1.63-3.16-2.01-4.89-.05-.24-.1-.47-.14-.71-.14-.84-.21-1.68-.21-2.54,0-1.09.13-2.17.36-3.24.11-.47.23-.93.37-1.39l.6-1.85.72-2.18h3.4s-.71,2.18-.71,2.18l-.92,2.84c-.05.13-.06.26-.11.4-.3,1.06-.45,2.15-.45,3.24s.14,2.19.43,3.24Z"/>
      <path class="cls-4" d="M39.1,36.42h-3.57l-.59-1.29-.41-.88-.92-2.02-.53-1.18-.03-.05-1.43-3.11.04-.13h-.1l-1.2-2.59-.31-.65-.44-.96-.59-1.26c-.43-.81-.94-1.58-1.53-2.27-.03-.03-.05-.05-.07-.09-1.24-1.45-2.85-2.56-4.63-3.26.22-1.07.64-2.08,1.24-3,1.93.76,3.7,1.92,5.17,3.4.23.24.45.48.67.73.53.62,1,1.29,1.42,1.98.21.33.43.66.61,1.01l1.21,2.58.19.41.33.72,1.47,3.16-.03.08h.05l.9,1.94.41.88.19.43,1.48,3.23.32.7.3.66.38.82Z"/>
      <path class="cls-4" d="M56.55,36.58c-.05-.11-.08-.22-.12-.33-.43-1.1-.97-2.15-1.59-3.14,1.14-2.29,1.58-4.94,1.1-7.47-.63-3.59-3.02-6.78-6.27-8.44-.15-.08-.3-.17-.45-.24-.93-.44-1.92-.74-2.93-.92-1.1-.19-2.21-.22-3.31-.1-1.08.11-2.15.35-3.16.75-.53.22-1.07.45-1.57.74-1.19.68-2.25,1.58-3.12,2.62l-.34-.72c-.4-.77-.86-1.5-1.36-2.21.96-.97,2.03-1.83,3.21-2.5.62-.36,1.29-.67,1.96-.94,1.04-.41,2.12-.71,3.22-.89.57-.09,1.14-.15,1.72-.18.61-.03,1.2,0,1.81.04,1.25.09,2.49.35,3.68.75.53.17,1.06.38,1.56.62,2.2,1.01,4.15,2.56,5.62,4.48,1.48,1.92,2.49,4.18,2.92,6.56.76,3.98-.24,8.22-2.57,11.52Z"/>
      <path class="cls-4" d="M29.48,31.01h-1.58s-4.75,0-4.75,0c-.81,0-1.6.13-2.38.3-1.07.24-2.11.6-3.07,1.11,0,0-.02,0-.02,0-1.37.72-2.55,1.73-3.53,2.92-.95-.54-1.8-1.25-2.49-2.09,1.24-1.5,2.75-2.77,4.48-3.68.04-.02.07-.04.1-.05.97-.51,1.98-.91,3.02-1.2,1.1-.31,2.23-.49,3.36-.54.15,0,.32-.02.47-.02h4.89l.15.34,1.34,2.91Z"/>
      <path class="cls-3" d="M22.72,34.28l-.15.46c-.1-.16-.17-.3-.24-.43.14,0,.27-.02.4-.03Z"/>
      <path class="cls-3" d="M41.91,34.67l-.02.07-.05-.09s.05,0,.06.02Z"/>
      <path class="cls-4" d="M43.5,9.38h-.11c-1.26.05-2.5.24-3.7.55-2.1-2.06-4.94-3.34-7.89-3.44-3.28-.16-6.55,1.14-8.87,3.44-.39.37-.75.77-1.08,1.2-.41.52-.75,1.08-1.06,1.66-.53.99-.91,2.04-1.14,3.13-.23,1.06-.32,2.15-.25,3.22.05.95.22,1.89.51,2.8.14.43.32.92.49,1.3l.69,1.41c-1.1.14-2.2.37-3.26.71l-.36-.74c-.28-.61-.47-1.14-.65-1.73-.35-1.13-.57-2.32-.64-3.5-.07-1.11-.02-2.24.15-3.35.02-.1.03-.21.05-.32.19-1.05.5-2.08.91-3.08.48-1.16,1.1-2.26,1.86-3.27.05-.07.1-.15.15-.23,1.48-1.91,3.41-3.47,5.6-4.49,2.19-1.03,4.64-1.51,7.05-1.41,4.52.14,8.88,2.5,11.56,6.13Z"/>
      <path class="cls-4" d="M21.15,39.66c-.19,1.07-.29,2.15-.29,3.24h-1.12c-.11,0-.14,0-.31.02-1.2.08-2.43.02-3.62-.19-.38-.07-.76-.16-1.14-.25-1.09-.28-2.15-.67-3.14-1.18-.81-.42-1.58-.9-2.3-1.44-.23-.17-.43-.37-.63-.55-.96-.81-1.81-1.74-2.53-2.76-.51-.72-.98-1.48-1.36-2.27-1.03-2.18-1.55-4.62-1.46-7.03.09-2.43.77-4.81,1.96-6.92,1.8-3.26,4.88-5.74,8.39-6.94-.17.59-.31,1.18-.42,1.77-.12.68-.2,1.36-.24,2.04-2.05,1.07-3.79,2.7-4.91,4.72-1.9,3.32-2.06,7.54-.39,10.98.04.08.09.15.13.24.53,1.08,1.23,2.06,2.06,2.91.77.81,1.65,1.51,2.62,2.07.94.54,1.96.94,3.01,1.21.31.08.62.16.92.22.94.16,1.89.22,2.84.14.1,0,.33-.03.5-.02h1.44Z"/>
      <path class="cls-4" d="M38.17,46.15l-.81,2.47-.15.47c-.07.17-.15.33-.23.49-.14.28-.27.54-.43.81-.13.22-.27.43-.41.64-.19.29-.36.6-.57.88-.46.62-.98,1.2-1.53,1.75-.31.31-.62.62-.94.9-.56.48-1.17.91-1.79,1.29-1.08.66-2.23,1.19-3.42,1.57-.41.13-.81.24-1.23.33-2.35.53-4.84.49-7.18-.13-2.34-.62-4.53-1.81-6.32-3.42-3.13-2.79-4.95-6.94-5-11.11,1.08.72,2.23,1.31,3.42,1.79.44,2.63,1.75,5.12,3.75,6.91,2.61,2.4,6.3,3.47,9.79,2.93.28-.05.56-.07.83-.14.91-.21,1.77-.52,2.61-.91.88-.43,1.71-.96,2.45-1.59.1-.08.19-.18.29-.27.61-.55,1.17-1.15,1.66-1.81.15-.21.29-.44.43-.67.11-.17.24-.34.34-.53.11-.21.23-.42.33-.63.1-.18.14-.29.22-.54l.47-1.47h3.41Z"/>
      <path class="cls-4" d="M47.93,42.48c-.84.22-1.7.36-2.56.43-.61.05-1.21.06-1.82.04l-.45-.03c-.11,0-.17,0-.29,0h-12.21c0-.9.13-1.79.41-2.64l.19-.6h2.25v.03s.03-.03.03-.03h9.34c.16,0,.37,0,.53.02l.34.02h0c.14,0,.28,0,.43,0,.33,0,.67,0,1-.02.69-.05,1.37-.18,2.04-.36.07.16.15.31.22.47.34.85.52,1.77.56,2.7Z"/>
      <path class="cls-3" d="M28.13,31.41s0,0,0,0c.01.02.02.03,0,0Z"/>
      <path class="cls-4" d="M46.44,19.39c-.1,1.61-.44,3.2-1.06,4.69l-.43,1.33-1.01,3.08-1,3.1-1.01,3.08s-.05-.02-.06-.02l-.18-.39-1.47-3.21-.3-.67.41-1.25.43-1.3.58-1.77.44-1.37.05-.18.25-.77.13-.38c.05-.16.13-.37.18-.48.48-1.19.74-2.44.81-3.72,1.09-.13,2.19-.05,3.25.24Z"/>
      <polygon class="cls-3" points="31.66 27.77 31.62 27.89 31.56 27.77 31.66 27.77"/>
      <path class="cls-4" d="M54.44,43.08c-.04,2.91-.89,5.8-2.51,8.23-2.66,4.07-7.35,6.69-12.21,6.79-1.68.05-3.38-.19-4.99-.7.15-.13.32-.24.46-.37.84-.71,1.61-1.48,2.31-2.32.7.11,1.41.17,2.13.14,3.81-.07,7.51-2.15,9.6-5.33.93-1.39,1.52-2.99,1.8-4.64.19-1.19.23-2.4.06-3.59-.12-.91-.35-1.82-.69-2.68-.07-.18-.16-.34-.24-.51-.44-1-1.01-1.92-1.71-2.76-.74-.9-1.61-1.69-2.58-2.34l1.04-3.18c.84.49,1.65,1.07,2.38,1.71.6.53,1.13,1.11,1.64,1.72.72.87,1.34,1.8,1.85,2.81.24.44.45.9.63,1.37.24.62.44,1.26.61,1.91.3,1.22.43,2.48.42,3.74Z"/>
      <polygon class="cls-3" points="35.12 27.77 35.07 27.77 35.1 27.68 35.12 27.77"/>
      <path class="cls-2" d="M62.31,24.47c-.53-2.88-1.74-5.63-3.55-7.96-1.79-2.33-4.16-4.21-6.82-5.44-1.41-.65-2.91-1.12-4.44-1.4-.24-.43-.47-.84-.73-1.25-1.59-2.46-3.78-4.54-6.32-5.99C37.91.97,34.99.13,32.06.02c-2.92-.13-5.89.46-8.55,1.71-2.67,1.24-5.02,3.12-6.8,5.45-.61.78-1.14,1.61-1.61,2.48-5.3.97-10.1,4.34-12.73,9.07C.93,21.29.11,24.17.01,27.12c-.12,2.94.51,5.89,1.77,8.54.83,1.77,1.96,3.4,3.31,4.82,0,.08-.03.15-.04.24-.35,2.92,0,5.9,1.02,8.66,1.02,2.74,2.73,5.26,4.91,7.22,2.16,1.96,4.82,3.41,7.67,4.16,2.84.75,5.86.8,8.72.15,1.35-.3,2.67-.76,3.93-1.36,2.64,1.27,5.58,1.88,8.51,1.8,2.92-.08,5.85-.88,8.41-2.32,2.56-1.42,4.78-3.46,6.4-5.92,2.47-3.68,3.48-8.25,2.9-12.62,1.96-2.06,3.44-4.57,4.27-7.29.87-2.8,1.05-5.83.52-8.72ZM16.32,16.04c.02-.1.03-.21.05-.32.19-1.05.5-2.08.91-3.08.48-1.16,1.1-2.26,1.86-3.27.05-.07.1-.15.15-.23,1.48-1.91,3.41-3.47,5.6-4.49,2.19-1.03,4.64-1.51,7.05-1.41,4.52.14,8.88,2.5,11.56,6.13h-.11c-1.26.05-2.5.24-3.7.55-2.1-2.06-4.94-3.34-7.89-3.44-3.28-.16-6.55,1.14-8.87,3.44-.39.37-.75.77-1.08,1.2-.41.52-.75,1.08-1.06,1.66-.53.99-.91,2.04-1.14,3.13-.23,1.06-.32,2.15-.25,3.22.05.95.22,1.89.51,2.8.14.43.32.92.49,1.3l.69,1.41c-1.1.14-2.2.37-3.26.71l-.36-.74c-.28-.61-.47-1.14-.65-1.73-.35-1.13-.57-2.32-.64-3.5-.07-1.11-.02-2.24.15-3.35ZM52.54,30.17c-.35-.36-.72-.72-1.1-1.06-1.07-.94-2.25-1.76-3.5-2.43l.45-1.39c.57-1.39.95-2.87,1.16-4.36,1.66,1.3,2.82,3.19,3.2,5.3.25,1.3.16,2.66-.2,3.94ZM45.03,36.42c-.05,0-.11.02-.16.03-.05,0-.08,0-.13,0l.07-.2c.07.05.14.11.22.17ZM39.9,51c.11-.23.24-.48.34-.72l.21-.65,1.14-3.48h1.23l.61.04c.73.03,1.48.02,2.21-.05.61-.05,1.21-.13,1.81-.24-.23.64-.53,1.26-.91,1.83-.76,1.15-1.81,2.12-3.03,2.8-1.19.67-2.54,1.04-3.92,1.09.11-.2.22-.4.33-.62ZM45.37,42.9c-.61.05-1.21.06-1.82.04l-.45-.03c-.11,0-.17,0-.29,0h-12.21c0-.9.13-1.79.41-2.64l.19-.6h2.25v.03s.03-.03.03-.03h9.34c.16,0,.37,0,.53.02l.34.02h0c.14,0,.28,0,.43,0,.33,0,.67,0,1-.02.69-.05,1.37-.18,2.04-.36.07.16.15.31.22.47.34.85.52,1.77.56,2.7-.84.22-1.7.36-2.56.43ZM21.15,46.15c.33,1.91.98,3.76,1.89,5.47-2.03-.07-4.01-.85-5.53-2.25-1.05-.93-1.85-2.14-2.33-3.47.03,0,.05.02.08.02,1.44.25,2.92.34,4.39.24h.12s1.38,0,1.38,0ZM13.07,20.94c.14.99.34,1.96.64,2.92.11.35.23.7.35,1.04.14.35.25.66.46,1.1l.29.62c-.06.04-.14.06-.2.1-1.7.91-3.23,2.08-4.54,3.46-.63-2.21-.37-4.64.78-6.66.54-1,1.31-1.86,2.22-2.56ZM16.15,29.57s.07-.04.1-.05c.97-.51,1.98-.91,3.02-1.2,1.1-.31,2.23-.49,3.36-.54.15,0,.32-.02.47-.02h4.89l.15.34,1.34,2.91h-1.58s-4.75,0-4.75,0c-.81,0-1.6.13-2.38.3-1.07.24-2.11.6-3.07,1.11,0,0-.02,0-.02,0-1.37.72-2.55,1.73-3.53,2.92-.95-.54-1.8-1.25-2.49-2.09,1.24-1.5,2.75-2.77,4.48-3.68ZM26.13,23.79l-.24.72h-1.27l-.63-1.26-.66-1.39s-.11-.24-.17-.4c-.05-.16-.11-.33-.16-.49-.07-.22-.12-.45-.16-.68.8.47,1.54,1.06,2.14,1.77.45.53.84,1.1,1.16,1.71h0ZM22.57,34.74c-.1-.16-.17-.3-.24-.43.14,0,.27-.02.4-.03l-.15.46ZM19.18,35.3l.18.34c.14.24.2.39.43.78h-.11c-.14,0-.27,0-.41,0l-.28.02c-.47.04-.94,0-1.41-.04.49-.43,1.02-.81,1.59-1.11ZM24.44,46.15c-.05-.24-.1-.47-.14-.71-.14-.84-.21-1.68-.21-2.54,0-1.09.13-2.17.36-3.24.11-.47.23-.93.37-1.39l.6-1.85.72-2.18h3.4s-.71,2.18-.71,2.18l-.92,2.84c-.05.13-.06.26-.11.4-.3,1.06-.45,2.15-.45,3.24s.14,2.19.43,3.24c.31,1.12.8,2.19,1.42,3.17-.1.09-.18.19-.28.27-.73.62-1.58,1.1-2.48,1.45-.95-1.49-1.63-3.16-2.01-4.89ZM31.2,46.15h.14l-.07.21c-.03-.06-.05-.14-.07-.21ZM44.95,25.41l-1.01,3.08-1,3.1-1.01,3.08-.02.07-.05-.09-.18-.39-1.47-3.21-.3-.67.41-1.25.43-1.3.58-1.77.44-1.37.05-.18.25-.77.13-.38c.05-.16.13-.37.18-.48.48-1.19.74-2.44.81-3.72,1.09-.13,2.19-.05,3.25.24-.1,1.61-.44,3.2-1.06,4.69l-.43,1.33ZM39.37,21.66l-.13.29-.13.39-.13.39-.25.77-.33,1.01h-1.21l-.51-1.1c.07-.12.13-.24.19-.34.73-1.14,1.74-2.1,2.9-2.78-.1.46-.23.92-.41,1.37ZM36.02,29.7l.41.88.19.43,1.48,3.23.32.7.3.66.38.82h-3.57l-.59-1.29-.41-.88-.92-2.02-.53-1.18-.03-.05-1.43-3.11-.06-.13-1.2-2.59-.31-.65-.44-.96-.59-1.26c-.43-.82-.94-1.58-1.53-2.27-.03-.03-.05-.05-.07-.09-1.24-1.45-2.85-2.56-4.63-3.26.22-1.07.64-2.08,1.24-3,1.93.76,3.7,1.92,5.17,3.4.23.24.45.48.67.73.53.62,1,1.29,1.42,1.98.21.34.43.66.61,1.01l1.21,2.58.19.41.33.72,1.47,3.16.03.08.9,1.94ZM31.3,14.63c-1.41-1.4-3.06-2.54-4.85-3.41,1.53-1.02,3.36-1.58,5.21-1.48,1.6.05,3.16.59,4.48,1.48-.38.18-.76.38-1.12.59-1.36.78-2.61,1.73-3.72,2.82ZM4.7,34.28c-1.03-2.18-1.55-4.62-1.46-7.03.09-2.43.77-4.81,1.96-6.92,1.8-3.26,4.88-5.74,8.39-6.94-.17.59-.31,1.18-.42,1.77-.12.68-.2,1.36-.24,2.04-2.05,1.07-3.79,2.7-4.91,4.72-1.9,3.32-2.06,7.54-.39,10.98.04.08.09.15.13.24.53,1.08,1.23,2.06,2.06,2.91.77.81,1.65,1.51,2.62,2.07.94.54,1.96.94,3.01,1.21.31.08.62.16.92.22.94.16,1.89.22,2.84.14.1,0,.34-.03.5-.02h1.44c-.19,1.07-.29,2.15-.29,3.24h-1.12c-.11,0-.14,0-.31.02-1.2.08-2.43.02-3.62-.19-.38-.07-.76-.16-1.14-.25-1.09-.28-2.15-.67-3.14-1.18-.81-.42-1.58-.9-2.3-1.44-.23-.17-.43-.37-.63-.55-.96-.81-1.81-1.74-2.53-2.76-.51-.72-.98-1.48-1.36-2.27ZM27.89,57.4c-.41.13-.81.24-1.23.34-2.35.53-4.84.49-7.18-.13-2.34-.62-4.53-1.81-6.32-3.42-3.13-2.79-4.95-6.94-5-11.11,1.08.72,2.23,1.31,3.42,1.79.44,2.63,1.75,5.12,3.75,6.91,2.61,2.4,6.3,3.47,9.79,2.93.28-.05.56-.07.83-.14.91-.21,1.77-.52,2.61-.91.88-.43,1.71-.96,2.45-1.59.1-.08.19-.18.29-.27.61-.55,1.17-1.15,1.66-1.81.15-.21.29-.44.43-.67.11-.17.24-.34.34-.53.11-.21.23-.42.33-.63.1-.18.14-.29.22-.54l.47-1.47h3.41l-.81,2.47-.15.47c-.07.17-.15.33-.23.49-.14.28-.27.54-.43.81-.13.22-.27.43-.41.64-.19.29-.36.6-.57.88-.46.62-.98,1.2-1.53,1.75-.31.31-.62.62-.94.9-.56.48-1.17.91-1.79,1.29-1.08.66-2.23,1.19-3.42,1.57ZM51.93,51.31c-2.66,4.07-7.35,6.69-12.21,6.79-1.68.05-3.38-.19-4.99-.7.15-.13.32-.24.46-.37.84-.71,1.61-1.48,2.31-2.32.7.11,1.41.17,2.13.14,3.81-.07,7.51-2.15,9.6-5.33.93-1.39,1.52-2.99,1.8-4.64.19-1.19.23-2.4.06-3.59-.12-.91-.35-1.82-.69-2.68-.07-.18-.16-.34-.24-.51-.44-1-1.01-1.92-1.71-2.76-.74-.9-1.61-1.69-2.58-2.34l1.04-3.18c.84.49,1.65,1.07,2.38,1.71.6.53,1.13,1.11,1.64,1.72.72.87,1.34,1.8,1.85,2.81.24.44.45.9.63,1.37.24.62.44,1.26.61,1.91.3,1.22.43,2.48.42,3.74-.04,2.91-.89,5.8-2.51,8.23ZM56.55,36.58c-.05-.11-.08-.22-.12-.33-.43-1.1-.97-2.15-1.59-3.14,1.14-2.29,1.58-4.94,1.1-7.47-.63-3.59-3.02-6.78-6.27-8.44-.15-.08-.3-.17-.45-.24-.93-.44-1.92-.74-2.93-.92-1.1-.19-2.21-.22-3.31-.1-1.08.11-2.15.35-3.16.75-.53.22-1.07.45-1.57.74-1.19.68-2.25,1.58-3.12,2.62l-.34-.72c-.4-.77-.86-1.5-1.36-2.21.96-.97,2.03-1.83,3.21-2.5.62-.36,1.29-.67,1.96-.94,1.04-.41,2.12-.71,3.22-.89.57-.09,1.14-.15,1.72-.18.61-.03,1.2,0,1.81.04,1.25.09,2.49.35,3.68.75.53.17,1.06.38,1.56.62,2.2,1.01,4.15,2.56,5.62,4.48,1.48,1.92,2.49,4.18,2.92,6.56.76,3.98-.24,8.22-2.57,11.52Z"/>
    </g>
  </g>
</svg>