<?xml version="1.0" encoding="UTF-8"?>
<svg id="_レイヤー_2" data-name="レイヤー 2" xmlns="http://www.w3.org/2000/svg" viewBox="0 0 62.61 61.34">
  <defs>
    <style>
      .cls-1 {
        fill: none;
      }

      .cls-2 {
        fill: #f4f4f4;
      }

      .cls-3 {
        fill: #b1d47a;
      }

      .cls-4 {
        fill: #fff;
      }
    </style>
  </defs>
  <g id="_レイヤー_2-2" data-name="レイヤー 2">
    <g>
      <path class="cls-1" d="M31.35,46.15l-.07.21c-.03-.06-.05-.14-.07-.21h.14Z"/>
      <path class="cls-1" d="M39.78,20.3c-.1.46-.23.92-.41,1.37l-.13.29-.13.39-.13.39-.25.77-.33,1.01h-1.21l-.51-1.1c.07-.12.13-.24.19-.34.73-1.14,1.74-2.1,2.9-2.78Z"/>
      <path class="cls-1" d="M23.04,51.61c-2.03-.07-4.01-.85-5.53-2.25-1.05-.93-1.85-2.14-2.33-3.47.03,0,.05.02.08.02,1.44.25,2.92.33,4.39.24h.12s1.38,0,1.38,0c.33,1.91.98,3.76,1.89,5.47Z"/>
      <path class="cls-1" d="M14.82,26.61c-.06.04-.14.06-.2.1-1.7.91-3.23,2.08-4.54,3.46-.63-2.21-.37-4.64.78-6.66.54-1,1.31-1.86,2.22-2.56.14.99.34,1.96.64,2.92.11.35.23.7.35,1.04.14.35.25.66.46,1.1l.29.62Z"/>
      <path class="cls-1" d="M26.13,23.78h0s-.24.73-.24.73h-1.27l-.63-1.26-.66-1.39s-.11-.24-.17-.4c-.05-.16-.11-.33-.16-.49-.07-.22-.12-.45-.16-.68.8.47,1.54,1.06,2.14,1.77.45.53.84,1.1,1.16,1.71Z"/>
      <path class="cls-1" d="M36.15,11.22c-.38.18-.76.38-1.12.59-1.36.78-2.61,1.73-3.72,2.82-1.41-1.4-3.06-2.54-4.85-3.41,1.53-1.02,3.36-1.58,5.21-1.48,1.6.05,3.16.59,4.48,1.48Z"/>
      <path class="cls-1" d="M45.03,36.42c-.05,0-.11.02-.16.03-.05,0-.08,0-.13,0l.07-.2c.07.05.14.11.22.17Z"/>
      <polygon class="cls-1" points="22.44 35.14 22.02 36.42 20.54 36.42 22.44 35.14"/>
      <path class="cls-1" d="M52.54,30.17c-.35-.36-.72-.72-1.1-1.06-1.07-.94-2.25-1.76-3.5-2.43l.45-1.39c.57-1.39.95-2.87,1.16-4.36,1.66,1.3,2.82,3.19,3.2,5.3.25,1.3.16,2.66-.2,3.94Z"/>
      <path class="cls-1" d="M19.8,36.42h-.11c-.14,0-.27,0-.41,0l-.28.02c-.47.04-.94,0-1.41-.04.49-.43,1.02-.81,1.59-1.11l.18.34c.14.24.2.39.43.78Z"/>
      <path class="cls-1" d="M47.44,45.9c-.23.64-.53,1.26-.91,1.83-.76,1.15-1.81,2.12-3.03,2.8-1.19.67-2.54,1.04-3.92,1.09.11-.2.22-.4.33-.62.11-.23.24-.48.34-.72l.21-.65,1.14-3.48h1.23l.61.04c.73.03,1.48.02,2.21-.05.61-.05,1.21-.13,1.81-.24Z"/>
      <polygon class="cls-3" points="38.41 24.52 38.24 25.04 37.9 26.05 37.2 24.52 38.41 24.52"/>
      <path class="cls-3" d="M47.44,45.9c-.6.11-1.2.19-1.81.24-.73.06-1.48.07-2.21.05l-.61-.04h-11.61c-.41-1.03-.61-2.14-.61-3.24h12.21c.12,0,.18,0,.29,0l.45.03c.61.03,1.21.02,1.82-.04.86-.06,1.72-.21,2.56-.43.05,1.16-.1,2.33-.5,3.42Z"/>
      <path class="cls-3" d="M26.45,51.03c-.4.15-.8.28-1.2.37-.73.17-1.48.23-2.21.21-.91-1.71-1.57-3.56-1.89-5.47-.02-.05-.03-.12-.04-.17-.17-1.01-.25-2.05-.24-3.07,0-1.09.1-2.17.29-3.24.14-.81.33-1.6.59-2.38l.28-.86.42-1.29.13-.4.15-.46c.16,0,.33-.04.49-.04h2.93l-.72,2.18-.6,1.85c-.14.46-.26.92-.37,1.39-.24,1.07-.35,2.15-.36,3.24,0,.85.06,1.69.21,2.54.04.24.09.47.14.71.38,1.73,1.06,3.4,2.01,4.89Z"/>
      <path class="cls-3" d="M49.55,20.93c-.21,1.49-.59,2.97-1.16,4.36l-.45,1.39-1.02,3.14-1.04,3.18-1.06,3.25-.07.2c-.3.02-.61.03-.91.02l-.25-.02c-.21-.03-.55-.04-.76-.03h-1.47l.04-.13.52-1.56.02-.07,1.01-3.08,1-3.1,1.01-3.08.43-1.33c.62-1.49.96-3.08,1.06-4.69.48.13.96.29,1.41.5.61.28,1.17.63,1.69,1.04Z"/>
      <path class="cls-3" d="M54.63,53.1c-1.62,2.46-3.84,4.5-6.4,5.92-2.56,1.44-5.49,2.24-8.41,2.32-2.93.08-5.87-.53-8.51-1.8,1.21-.59,2.36-1.3,3.42-2.14,1.61.51,3.3.75,4.99.7,4.86-.1,9.55-2.73,12.21-6.79,1.62-2.43,2.47-5.32,2.51-8.23.02-1.26-.12-2.52-.42-3.74-.16-.65-.36-1.29-.61-1.91-.18-.47-.4-.92-.63-1.37-.51-1-1.13-1.94-1.85-2.81-.51-.61-1.04-1.2-1.64-1.72-.73-.64-1.54-1.22-2.38-1.71l1.02-3.14c1.26.67,2.44,1.48,3.5,2.43.38.33.75.7,1.1,1.06.86.91,1.64,1.89,2.3,2.94.62,1,1.16,2.04,1.59,3.14.04.11.07.22.12.33.47,1.27.8,2.57.97,3.9.58,4.37-.43,8.94-2.9,12.62Z"/>
      <path class="cls-3" d="M61.8,33.19c-.83,2.72-2.31,5.22-4.27,7.29-.17-1.33-.5-2.63-.97-3.9,2.34-3.3,3.33-7.53,2.57-11.52-.43-2.38-1.44-4.64-2.92-6.56-1.48-1.92-3.42-3.47-5.62-4.48-.5-.24-1.02-.44-1.56-.62-1.19-.4-2.43-.66-3.68-.75-.61-.05-1.2-.06-1.81-.04-.58.03-1.15.09-1.72.18-1.1.18-2.18.48-3.22.89-.67.27-1.33.58-1.96.94-1.19.67-2.25,1.53-3.21,2.5-.34-.49-.71-.97-1.1-1.42-.32-.37-.66-.72-1.01-1.07,1.11-1.1,2.36-2.05,3.72-2.82.36-.21.74-.41,1.12-.59,1.13-.55,2.32-.98,3.54-1.29,1.2-.31,2.44-.5,3.7-.55h.11c1.34-.05,2.69.05,4.01.29,1.53.28,3.02.75,4.44,1.4,2.66,1.23,5.02,3.11,6.82,5.44,1.81,2.33,3.02,5.08,3.55,7.96.53,2.89.35,5.92-.52,8.72Z"/>
      <path class="cls-3" d="M27.99,27.76h-4.89c-.15,0-.32.02-.47.02-1.13.05-2.26.24-3.36.54-1.04.29-2.06.69-3.02,1.2-.03.02-.06.04-.1.05-1.73.91-3.24,2.18-4.48,3.68-.43-.53-.81-1.12-1.1-1.76-.21-.43-.36-.88-.49-1.33,1.31-1.38,2.84-2.55,4.54-3.46.06-.04.14-.06.2-.1.97-.51,1.97-.92,3.01-1.24,1.06-.33,2.15-.57,3.26-.71.65-.08,1.31-.14,1.96-.14h3.43l.94,2.03.57,1.21Z"/>
      <path class="cls-3" d="M47.51,9.67c-1.32-.24-2.67-.34-4.01-.29-2.68-3.63-7.04-5.98-11.56-6.13-2.42-.1-4.86.38-7.05,1.41-2.19,1.02-4.13,2.58-5.6,4.49-.05.07-.1.15-.15.23-.75,1-1.38,2.11-1.86,3.27-.41,1-.72,2.03-.91,3.08-.02.11-.03.22-.05.32-.17,1.11-.23,2.24-.15,3.35.07,1.19.29,2.37.64,3.5.18.59.37,1.12.65,1.73l.36.74c-1.03.32-2.04.73-3.01,1.24l-.29-.62c-.21-.43-.33-.74-.46-1.1-.13-.34-.24-.69-.35-1.04-.3-.95-.51-1.93-.64-2.92-.17-1.24-.22-2.5-.14-3.75.05-.68.13-1.36.24-2.04.11-.59.24-1.18.42-1.77.36-1.29.88-2.54,1.51-3.73.47-.87,1-1.7,1.61-2.48,1.78-2.33,4.13-4.21,6.8-5.45C26.17.48,29.15-.11,32.06.02c2.92.11,5.85.95,8.39,2.41,2.54,1.46,4.73,3.53,6.32,5.99.26.41.5.82.73,1.25Z"/>
      <path class="cls-3" d="M41.58,46.15l-1.14,3.48-.21.65c-.1.24-.23.5-.34.72-.11.22-.22.42-.33.62-.06.12-.13.24-.19.36-.36.64-.76,1.26-1.2,1.85-.22.3-.45.6-.69.89-.7.83-1.47,1.61-2.31,2.32-.14.13-.31.24-.46.37-1.06.83-2.21,1.55-3.42,2.14-1.26.6-2.58,1.06-3.93,1.36-2.86.64-5.88.6-8.72-.15-2.85-.74-5.5-2.19-7.67-4.16-2.18-1.96-3.88-4.47-4.91-7.22-1.02-2.75-1.38-5.74-1.02-8.66,0-.08.03-.15.04-.24.67.71,1.39,1.37,2.17,1.96.3.22.6.43.9.63.05,4.17,1.87,8.32,5,11.11,1.79,1.61,3.97,2.81,6.32,3.42,2.34.62,4.83.66,7.18.13.42-.09.82-.21,1.23-.33,1.2-.38,2.34-.91,3.42-1.57.62-.38,1.23-.81,1.79-1.29.33-.28.63-.59.94-.9.55-.55,1.07-1.12,1.53-1.75.21-.28.38-.59.57-.88.14-.22.28-.43.41-.64.15-.26.29-.53.43-.81.07-.15.15-.32.23-.49l.15-.47.81-2.47h3.41Z"/>
      <path class="cls-3" d="M21.15,46.15h-1.49c-1.47.11-2.95.03-4.39-.23-.03,0-.05,0-.08-.02-1.23-.22-2.44-.57-3.59-1.03-1.2-.48-2.34-1.07-3.42-1.79-.3-.2-.6-.42-.9-.63-.78-.6-1.5-1.26-2.17-1.96-1.36-1.42-2.48-3.04-3.31-4.82C.52,33.02-.1,30.07.01,27.12c.1-2.95.91-5.83,2.36-8.39,2.63-4.74,7.43-8.1,12.73-9.07-.63,1.19-1.15,2.44-1.51,3.73-3.51,1.2-6.59,3.68-8.39,6.94-1.19,2.11-1.87,4.49-1.96,6.92-.09,2.42.43,4.85,1.46,7.03.38.8.85,1.55,1.36,2.27.72,1.02,1.58,1.95,2.53,2.76.21.18.41.38.63.55.72.54,1.49,1.02,2.3,1.44,1,.51,2.06.9,3.14,1.18.38.09.76.18,1.14.25,1.2.21,2.42.27,3.62.19.16-.02.2-.02.31-.02h1.12c0,1.02.07,2.06.24,3.07,0,.05.02.12.04.17Z"/>
      <path class="cls-3" d="M22.57,34.74l.49,1.41-1.9,1.29-1.36-1.01c-.24-.39-.3-.54-.43-.78l-.18-.34s.03-.02.04-.03c.96-.52,2.02-.83,3.11-.97.07.14.14.27.24.43Z"/>
      <polygon class="cls-3" points="26.48 24.52 25.9 24.52 26.13 23.79 26.48 24.52"/>
      <path class="cls-3" d="M41.9,34.74l-.52,1.56-.04.13h-2.25l-.38-.82-.3-.66-.32-.7-1.48-3.23-.19-.43-.41-.88-.9-1.94-.03-.08-1.47-3.16-.33-.72-.19-.41-1.21-2.58c-.18-.35-.4-.68-.61-1.01-.43-.7-.89-1.37-1.42-1.98-.22-.25-.44-.5-.67-.73-1.47-1.48-3.24-2.64-5.17-3.4.12-.2.24-.39.38-.57.57-.75,1.27-1.39,2.04-1.9,1.79.87,3.44,2.01,4.85,3.41.35.34.7.7,1.01,1.07.4.45.76.93,1.1,1.42.5.71.96,1.44,1.36,2.21l.34.72.08.18.35.74.69,1.48.44.97.51,1.1.71,1.53.79,1.71.28.59.93,2.04.3.67,1.47,3.21.18.39.05.09Z"/>
      <path class="cls-4" d="M27.79,46.15c.31,1.12.8,2.19,1.42,3.17-.1.09-.18.19-.28.27-.73.62-1.58,1.1-2.48,1.45-.95-1.49-1.63-3.16-2.01-4.89-.05-.24-.1-.47-.14-.71-.14-.84-.21-1.68-.21-2.54,0-1.09.13-2.17.36-3.24.11-.47.23-.93.37-1.39l.6-1.85.72-2.18h3.4s-.71,2.18-.71,2.18l-.92,2.84c-.05.13-.06.26-.11.4-.3,1.06-.45,2.15-.45,3.24s.14,2.19.43,3.24Z"/>
      <path class="cls-4" d="M39.1,36.42h-3.57l-.59-1.29-.41-.88-.92-2.02-.53-1.18-.03-.05-1.43-3.11.04-.13h-.1l-1.2-2.59-.31-.65-.44-.96-.59-1.26c-.43-.81-.94-1.58-1.53-2.27-.03-.03-.05-.05-.07-.09-1.24-1.45-2.85-2.56-4.63-3.26.22-1.07.64-2.08,1.24-3,1.93.76,3.7,1.92,5.17,3.4.23.24.45.48.67.73.53.62,1,1.29,1.42,1.98.21.33.43.66.61,1.01l1.21,2.58.19.41.33.72,1.47,3.16-.03.08h.05l.9,1.94.41.88.19.43,1.48,3.23.32.7.3.66.38.82Z"/>
      <path class="cls-4" d="M56.55,36.58c-.05-.11-.08-.22-.12-.33-.43-1.1-.97-2.15-1.59-3.14,1.14-2.29,1.58-4.94,1.1-7.47-.63-3.59-3.02-6.78-6.27-8.44-.15-.08-.3-.17-.45-.24-.93-.44-1.92-.74-2.93-.92-1.1-.19-2.21-.22-3.31-.1-1.08.11-2.15.35-3.16.75-.53.22-1.07.45-1.57.74-1.19.68-2.25,1.58-3.12,2.62l-.34-.72c-.4-.77-.86-1.5-1.36-2.21.96-.97,2.03-1.83,3.21-2.5.62-.36,1.29-.67,1.96-.94,1.04-.41,2.12-.71,3.22-.89.57-.09,1.14-.15,1.72-.18.61-.03,1.2,0,1.81.04,1.25.09,2.49.35,3.68.75.53.17,1.06.38,1.56.62,2.2,1.01,4.15,2.56,5.62,4.48,1.48,1.92,2.49,4.18,2.92,6.56.76,3.98-.24,8.22-2.57,11.52Z"/>
      <path class="cls-4" d="M29.48,31.01h-1.58s-4.75,0-4.75,0c-.81,0-1.6.13-2.38.3-1.07.24-2.11.6-3.07,1.11,0,0-.02,0-.02,0-1.37.72-2.55,1.73-3.53,2.92-.95-.54-1.8-1.25-2.49-2.09,1.24-1.5,2.75-2.77,4.48-3.68.04-.02.07-.04.1-.05.97-.51,1.98-.91,3.02-1.2,1.1-.31,2.23-.49,3.36-.54.15,0,.32-.02.47-.02h4.89l.15.34,1.34,2.91Z"/>
      <path class="cls-2" d="M22.72,34.28l-.15.46c-.1-.16-.17-.3-.24-.43.14,0,.27-.02.4-.03Z"/>
      <path class="cls-2" d="M41.91,34.67l-.02.07-.05-.09s.05,0,.06.02Z"/>
      <path class="cls-4" d="M43.5,9.38h-.11c-1.26.05-2.5.24-3.7.55-2.1-2.06-4.94-3.34-7.89-3.44-3.28-.16-6.55,1.14-8.87,3.44-.39.37-.75.77-1.08,1.2-.41.52-.75,1.08-1.06,1.66-.53.99-.91,2.04-1.14,3.13-.23,1.06-.32,2.15-.25,3.22.05.95.22,1.89.51,2.8.14.43.32.92.49,1.3l.69,1.41c-1.1.14-2.2.37-3.26.71l-.36-.74c-.28-.61-.47-1.14-.65-1.73-.35-1.13-.57-2.32-.64-3.5-.07-1.11-.02-2.24.15-3.35.02-.1.03-.21.05-.32.19-1.05.5-2.08.91-3.08.48-1.16,1.1-2.26,1.86-3.27.05-.07.1-.15.15-.23,1.48-1.91,3.41-3.47,5.6-4.49,2.19-1.03,4.64-1.51,7.05-1.41,4.52.14,8.88,2.5,11.56,6.13Z"/>
      <path class="cls-4" d="M21.15,39.66c-.19,1.07-.29,2.15-.29,3.24h-1.12c-.11,0-.14,0-.31.02-1.2.08-2.43.02-3.62-.19-.38-.07-.76-.16-1.14-.25-1.09-.28-2.15-.67-3.14-1.18-.81-.42-1.58-.9-2.3-1.44-.23-.17-.43-.37-.63-.55-.96-.81-1.81-1.74-2.53-2.76-.51-.72-.98-1.48-1.36-2.27-1.03-2.18-1.55-4.62-1.46-7.03.09-2.43.77-4.81,1.96-6.92,1.8-3.26,4.88-5.74,8.39-6.94-.17.59-.31,1.18-.42,1.77-.12.68-.2,1.36-.24,2.04-2.05,1.07-3.79,2.7-4.91,4.72-1.9,3.32-2.06,7.54-.39,10.98.04.08.09.15.13.24.53,1.08,1.23,2.06,2.06,2.91.77.81,1.65,1.51,2.62,2.07.94.54,1.96.94,3.01,1.21.31.08.62.16.92.22.94.16,1.89.22,2.84.14.1,0,.33-.03.5-.02h1.44Z"/>
      <path class="cls-4" d="M38.17,46.15l-.81,2.47-.15.47c-.07.17-.15.33-.23.49-.14.28-.27.54-.43.81-.13.22-.27.43-.41.64-.19.29-.36.6-.57.88-.46.62-.98,1.2-1.53,1.75-.31.31-.62.62-.94.9-.56.48-1.17.91-1.79,1.29-1.08.66-2.23,1.19-3.42,1.57-.41.13-.81.24-1.23.33-2.35.53-4.84.49-7.18-.13-2.34-.62-4.53-1.81-6.32-3.42-3.13-2.79-4.95-6.94-5-11.11,1.08.72,2.23,1.31,3.42,1.79.44,2.63,1.75,5.12,3.75,6.91,2.61,2.4,6.3,3.47,9.79,2.93.28-.05.56-.07.83-.14.91-.21,1.77-.52,2.61-.91.88-.43,1.71-.96,2.45-1.59.1-.08.19-.18.29-.27.61-.55,1.17-1.15,1.66-1.81.15-.21.29-.44.43-.67.11-.17.24-.34.34-.53.11-.21.23-.42.33-.63.1-.18.14-.29.22-.54l.47-1.47h3.41Z"/>
      <path class="cls-4" d="M47.94,42.48c-.84.22-1.7.36-2.56.43-.61.05-1.21.06-1.82.04l-.45-.03c-.11,0-.17,0-.29,0h-12.21c0-.9.13-1.79.41-2.64l.19-.6h2.25v.03s.03-.03.03-.03h9.34c.16,0,.37,0,.53.02l.34.02h0c.14,0,.28,0,.43,0,.33,0,.67,0,1-.02.69-.05,1.37-.18,2.04-.36.07.16.15.31.22.47.34.85.52,1.77.56,2.7Z"/>
      <path class="cls-2" d="M28.13,31.41s0,0,0,0c.01.02.02.03,0,0Z"/>
      <path class="cls-4" d="M46.44,19.39c-.1,1.61-.44,3.2-1.06,4.69l-.43,1.33-1.01,3.08-1,3.1-1.01,3.08s-.05-.02-.06-.02l-.18-.39-1.47-3.21-.3-.67.41-1.25.43-1.3.58-1.77.44-1.37.05-.18.25-.77.13-.38c.05-.16.13-.37.18-.48.48-1.19.74-2.44.81-3.72,1.09-.13,2.19-.05,3.25.24Z"/>
      <polygon class="cls-2" points="31.66 27.77 31.62 27.89 31.56 27.77 31.66 27.77"/>
      <path class="cls-4" d="M54.44,43.08c-.04,2.91-.89,5.8-2.51,8.23-2.66,4.07-7.35,6.69-12.21,6.79-1.68.05-3.38-.19-4.99-.7.15-.13.32-.24.46-.37.84-.71,1.61-1.48,2.31-2.32.7.11,1.41.17,2.13.14,3.81-.07,7.51-2.15,9.6-5.33.93-1.39,1.52-2.99,1.8-4.64.19-1.19.23-2.4.06-3.59-.12-.91-.35-1.82-.69-2.68-.07-.18-.16-.34-.24-.51-.44-1-1.01-1.92-1.71-2.76-.74-.9-1.61-1.69-2.58-2.34l1.04-3.18c.84.49,1.65,1.07,2.38,1.71.6.53,1.13,1.11,1.64,1.72.72.87,1.34,1.8,1.85,2.81.24.44.45.9.63,1.37.24.62.44,1.26.61,1.91.3,1.22.43,2.48.42,3.74Z"/>
      <polygon class="cls-2" points="35.12 27.77 35.07 27.77 35.1 27.68 35.12 27.77"/>
      <path class="cls-3" d="M35.53,36.42h-3.57l-1-2.17-.82-1.82v-.02s-.66-1.4-.66-1.4l-1.34-2.91-.15-.34-.57-1.21-.94-2.03-.34-.72h0c-.32-.62-.71-1.2-1.16-1.72-.6-.71-1.34-1.29-2.14-1.77-.25-1.12-.29-2.31-.09-3.44.02-.06.04-.12.05-.18,1.77.7,3.39,1.81,4.63,3.26.03.04.05.06.07.09.59.7,1.1,1.46,1.53,2.27l.59,1.26.44.96.31.65,1.2,2.59.06.13,1.43,3.11.03.05.53,1.18.92,2.02.41.88.59,1.29Z"/>
      <path class="cls-3" d="M34.75,46.15l-.47,1.47c-.08.25-.12.36-.22.54-.1.22-.22.43-.33.63-.11.18-.24.35-.34.53-.14.23-.28.46-.43.67-.49.66-1.05,1.26-1.66,1.81-.1.09-.19.19-.29.27-.74.63-1.58,1.16-2.45,1.59-.83.4-1.7.71-2.61.91-.27.06-.55.09-.83.14-3.49.53-7.18-.53-9.79-2.93-2-1.78-3.3-4.27-3.75-6.91,1.16.46,2.36.81,3.59,1.03.48,1.33,1.28,2.54,2.33,3.47,1.52,1.39,3.5,2.17,5.53,2.25.73.02,1.48-.04,2.21-.21.41-.09.81-.22,1.2-.37.9-.34,1.75-.82,2.48-1.45.1-.08.18-.18.28-.27.41-.38.8-.79,1.13-1.24.21-.29.4-.58.57-.88.08-.15.16-.31.24-.46h0s0-.04.04-.13l.08-.25.07-.21h3.4Z"/>
      <path class="cls-3" d="M39.69,9.93c-1.22.31-2.41.73-3.54,1.29-1.32-.9-2.88-1.44-4.48-1.48-1.86-.09-3.68.46-5.21,1.48-.77.52-1.47,1.15-2.04,1.9-.14.18-.26.37-.38.57-.6.91-1.02,1.93-1.24,3,0,.06-.03.12-.05.18-.2,1.13-.16,2.32.09,3.44.05.23.09.46.16.68.05.16.11.33.16.49.06.15.14.35.17.4l.66,1.39.63,1.26h-1.58c-.65,0-1.31.06-1.96.14l-.69-1.41c-.17-.38-.35-.87-.49-1.3-.29-.91-.45-1.85-.51-2.8-.06-1.08.03-2.16.25-3.22.24-1.1.62-2.15,1.14-3.13.31-.58.65-1.14,1.06-1.66.33-.43.69-.83,1.08-1.2,2.32-2.3,5.6-3.6,8.87-3.44,2.94.1,5.79,1.39,7.89,3.44Z"/>
      <path class="cls-3" d="M30.97,34.25h-4.83s-2.93,0-2.93,0c-.16,0-.33.03-.49.04-.13,0-.26.02-.4.03-1.09.14-2.15.45-3.11.97,0,0-.03.02-.04.03-.57.31-1.1.68-1.59,1.11-.22-.02-.43-.04-.65-.07-.99-.16-1.93-.52-2.78-1,.98-1.2,2.16-2.2,3.53-2.92,0,0,0,0,.02,0,.96-.52,2-.88,3.07-1.11.78-.17,1.58-.29,2.38-.3h6.33s.65,1.41.65,1.41v.02s.83,1.82.83,1.82Z"/>
      <polygon class="cls-3" points="32.25 36.42 32.13 36.79 31.96 36.42 32.25 36.42"/>
      <path class="cls-3" d="M22.02,36.42l-.28.86c-.25.78-.44,1.58-.59,2.38h-1.44c-.16,0-.4.02-.5.02-.95.07-1.9.02-2.84-.14-.31-.05-.62-.14-.92-.22-1.05-.27-2.06-.67-3.01-1.21-.97-.56-1.85-1.27-2.62-2.07-.83-.85-1.53-1.83-2.06-2.91-.04-.08-.09-.15-.13-.24-1.67-3.44-1.51-7.66.39-10.98,1.11-2.02,2.86-3.65,4.91-4.72-.08,1.25-.04,2.51.14,3.75-.91.71-1.67,1.57-2.22,2.56-1.15,2.02-1.41,4.45-.78,6.66.13.45.28.91.49,1.33.3.63.67,1.22,1.1,1.76.69.84,1.54,1.55,2.49,2.09.85.48,1.79.83,2.78,1,.22.04.43.05.65.07.47.05.94.07,1.41.04l.28-.02c.14-.02.27,0,.41,0h2.34Z"/>
      <path class="cls-3" d="M43.19,19.16c-.07,1.28-.33,2.54-.81,3.72-.05.11-.14.32-.18.48l-.13.38-.25.77-.05.18-.44,1.37-.58,1.77-.43,1.3-.41,1.25-.93-2.04-.28-.59-.79-1.71.33-1,.17-.53.33-1.01.25-.77.13-.39.13-.39.13-.29c.18-.44.31-.91.41-1.37l.08-.05c1.03-.6,2.17-.95,3.33-1.09Z"/>
      <path class="cls-3" d="M51.02,44.88c-.28,1.66-.87,3.25-1.8,4.64-2.08,3.19-5.79,5.26-9.6,5.33-.72.03-1.43-.04-2.13-.14.24-.29.47-.59.69-.89.43-.59.83-1.2,1.2-1.85.06-.12.13-.24.19-.36,1.38-.05,2.73-.42,3.92-1.09,1.22-.68,2.27-1.65,3.03-2.8.38-.57.69-1.19.91-1.83.4-1.1.55-2.26.5-3.42-.05-.92-.22-1.85-.56-2.7-.06-.16-.14-.31-.22-.47-.5-1.1-1.23-2.09-2.13-2.89-.07-.06-.14-.12-.22-.17l1.06-3.25c.97.64,1.84,1.44,2.58,2.34.7.84,1.27,1.77,1.71,2.76.07.16.16.33.24.51.33.86.57,1.77.69,2.68.16,1.2.13,2.41-.06,3.59Z"/>
      <path class="cls-3" d="M31.2,46.15c.03.07.05.14.07.21l-.08.25c-.03.09-.04.12-.04.12h0s0,0,0,0c-.07.15-.15.31-.24.46-.17.3-.36.59-.57.88-.33.45-.72.86-1.13,1.24-.62-.98-1.11-2.05-1.42-3.17-.3-1.05-.43-2.15-.43-3.24s.15-2.18.45-3.24c.05-.14.06-.27.11-.4l.92-2.84.71-2.17h1.42l1,2.17.16.37-.93,2.87-.19.6c-.28.85-.41,1.75-.41,2.64,0,1.1.2,2.21.61,3.24Z"/>
      <path class="cls-3" d="M47.16,39.31c-.67.18-1.35.32-2.04.36-.33.03-.67.03-1,.02-.14,0-.28.02-.43,0h0l-.34-.02c-.15-.02-.36-.02-.53-.02h-11.62l.93-2.87.13-.37h10.56c.21,0,.55,0,.76.03l.25.02c.31,0,.62,0,.91-.02.05,0,.08,0,.13,0,.05,0,.11-.02.16-.03.9.8,1.63,1.79,2.13,2.89Z"/>
      <path class="cls-3" d="M54.84,33.11c-.66-1.05-1.44-2.04-2.3-2.94.36-1.28.45-2.63.2-3.94-.37-2.11-1.54-3.99-3.2-5.3-.53-.41-1.09-.76-1.69-1.04-.45-.21-.93-.37-1.41-.5-1.06-.28-2.16-.36-3.25-.24-1.16.14-2.3.49-3.33,1.09l-.08.05c-1.16.68-2.16,1.64-2.9,2.78-.06.11-.12.23-.19.34l-.44-.97-.69-1.48-.35-.74-.08-.18c.88-1.04,1.94-1.94,3.12-2.62.5-.29,1.03-.53,1.57-.74,1.01-.4,2.08-.64,3.16-.75,1.1-.12,2.22-.09,3.31.1,1.01.18,2,.48,2.93.92.15.07.3.16.45.24,3.24,1.66,5.63,4.84,6.27,8.44.48,2.53.05,5.18-1.1,7.47Z"/>
      <path class="cls-3" d="M31.16,46.73s0,0,0,0c0,0,0,0,0,0Z"/>
      <polygon class="cls-3" points="33.47 39.66 33.45 39.69 33.44 39.66 33.47 39.66"/>
    </g>
  </g>
</svg>