<?xml version="1.0" encoding="UTF-8"?>
<svg id="_レイヤー_2" data-name="レイヤー 2" xmlns="http://www.w3.org/2000/svg" viewBox="0 0 16.33 21.42">
  <defs>
    <style>
      .cls-1 {
        fill: #fff;
      }

      .cls-2 {
        fill: #4d4d4d;
      }
    </style>
  </defs>
  <g id="_レイヤー_1-2" data-name="レイヤー 1">
    <g>
      <g>
        <path class="cls-2" d="M10.62,2l3.7,3.7v13.72H2V2H10.62m.39-2H1.31C.59,0,0,.59,0,1.31V20.11c0,.72,.59,1.31,1.31,1.31H15.02c.72,0,1.31-.59,1.31-1.31V5.32c0-.28-.11-.56-.31-.76L11.76,.31c-.2-.2-.47-.31-.76-.31h0Z"/>
        <g>
          <polygon class="cls-2" points="11.71 4.62 11.71 2.41 13.91 4.62 11.71 4.62"/>
          <path class="cls-2" d="M10.71,0V5.23c0,.22,.18,.39,.39,.39h5.23L10.71,0h0Z"/>
        </g>
      </g>
      <rect class="cls-2" x="1.02" y="8.57" width="14.38" height="6.02"/>
      <g>
        <path class="cls-1" d="M4.56,9.67c.94,0,1.36,.39,1.36,1.09s-.49,1.12-1.4,1.12h-.64v1.6h-.66v-3.81h1.35Zm-.68,1.71h.62c.51,0,.75-.23,.75-.62s-.22-.6-.73-.6h-.65v1.22Z"/>
        <path class="cls-1" d="M8.24,9.67c1.13,0,1.81,.6,1.81,1.88s-.76,1.93-1.9,1.93h-1.19v-3.81h1.28Zm-.62,3.3h.52c.74,0,1.21-.42,1.21-1.42s-.44-1.38-1.18-1.38h-.55v2.79Z"/>
        <path class="cls-1" d="M13.66,10.2h-1.84v1.03h1.4v.53h-1.4v1.73h-.67v-3.81h2.51v.53Z"/>
      </g>
    </g>
  </g>
</svg>