<?xml version="1.0" encoding="UTF-8"?>
<svg id="_レイヤー_2" data-name="レイヤー 2" xmlns="http://www.w3.org/2000/svg" viewBox="0 0 523.06 115.41">
  <defs>
    <style>
      .cls-1 {
        fill: #fff;
      }
    </style>
  </defs>
  <g id="_レイヤー_1-2" data-name="レイヤー 1">
    <g>
      <path class="cls-1" d="M36.39,53.39c-3.13-12.83-4.46-15.67-10.26-15.67h-8.08v27.83h7.6v.95H0v-.95h7.6V5.7H0v-.95h33.44c15.01,0,23.28,5.23,23.28,16.82,0,10.54-6.84,16.25-23.75,16.15,7.22.85,10.45,2.38,13.59,13.96,3.51,12.54,5.03,14.25,8.27,14.25,2.75,0,6.08-2.09,6.08-8.83h.95c0,7.41-3.52,10.36-10.54,10.36s-11.78-1.24-14.92-14.06ZM33.44,36.77c8.08,0,11.59-3.61,11.59-13.21v-4.75c0-9.5-3.52-13.11-11.59-13.11h-15.39v31.07h15.39Z"/>
      <path class="cls-1" d="M67.01,44.37c0-16.25,9.31-23.27,21.09-23.27,12.54,0,20.43,5.6,20.43,19.95,0,1.61-.1,2.18-.1,2.18h-30.59v3.99c0,13.49,4.94,19.29,13.59,19.29s13.49-3.9,14.82-8.36h.95c-1.33,5.04-6.37,9.41-16.34,9.41-14.82,0-23.85-7.03-23.85-23.18ZM97.7,38.19c0-12.35-3.33-16.05-9.6-16.05-5.89,0-10.26,4.37-10.26,16.05v4.08h19.86v-4.08Z"/>
      <path class="cls-1" d="M114.58,44.37c0-17.38,9.6-23.27,22.23-23.27,8.74,0,13.3,4.27,14.35,9.31h-.95c-1.04-4.46-5.13-8.17-12.92-8.17-8.17,0-11.78,5.22-11.78,18.43v7.31c0,13.21,3.61,18.43,11.78,18.43s12.06-3.61,13.11-8.17h.95c-1.04,5.03-5.79,9.31-14.54,9.31-12.64,0-22.23-5.79-22.23-23.18Z"/>
      <path class="cls-1" d="M155.7,44.37c0-16.91,11.02-23.27,22.42-23.27s22.33,6.36,22.33,23.27-10.92,23.18-22.33,23.18-22.42-6.27-22.42-23.18ZM189.52,47.98v-7.31c0-13.02-3.99-18.53-11.4-18.53s-11.5,5.51-11.5,18.53v7.31c0,13.02,3.99,18.53,11.5,18.53s11.4-5.51,11.4-18.53Z"/>
      <path class="cls-1" d="M269.69,65.55v-31.35c0-7.79-2.85-11.3-9.12-11.3s-11.02,4.18-11.02,13.21v29.45h5.6v.95h-21.38v-.95h5.7v-30.59c0-7.98-2.66-12.07-9.21-12.07s-10.93,4.18-10.93,13.21v29.45h5.51v.95h-21.09v-.95h5.51V22.99h-5.51v-.95h15.58v7.89c1.61-5.61,6.46-8.83,13.3-8.83,9.98,0,15.01,3.42,16.44,10.92,1.14-6.94,5.98-10.92,13.77-10.92,12.54,0,16.91,5.42,16.91,16.53v27.93h5.51v.95h-21.28v-.95h5.7Z"/>
      <path class="cls-1" d="M355.74,65.55v-31.35c0-7.79-2.85-11.3-9.12-11.3s-11.02,4.18-11.02,13.21v29.45h5.6v.95h-21.38v-.95h5.7v-30.59c0-7.98-2.66-12.07-9.21-12.07s-10.93,4.18-10.93,13.21v29.45h5.51v.95h-21.09v-.95h5.51V22.99h-5.51v-.95h15.58v7.89c1.62-5.61,6.46-8.83,13.3-8.83,9.97,0,15.01,3.42,16.43,10.92,1.14-6.94,5.99-10.92,13.78-10.92,12.54,0,16.91,5.42,16.91,16.53v27.93h5.51v.95h-21.28v-.95h5.7Z"/>
      <path class="cls-1" d="M374.41,44.37c0-16.25,9.31-23.27,21.09-23.27,12.54,0,20.42,5.6,20.42,19.95,0,1.61-.09,2.18-.09,2.18h-30.59v3.99c0,13.49,4.94,19.29,13.59,19.29s13.49-3.9,14.82-8.36h.95c-1.33,5.04-6.37,9.41-16.34,9.41-14.82,0-23.85-7.03-23.85-23.18ZM405.09,38.19c0-12.35-3.33-16.05-9.59-16.05-5.89,0-10.26,4.37-10.26,16.05v4.08h19.86v-4.08Z"/>
      <path class="cls-1" d="M454.87,65.55v-30.59c0-7.98-2.66-12.07-9.21-12.07s-10.92,4.18-10.92,13.21v29.45h5.51v.95h-21.09v-.95h5.51V22.99h-5.51v-.95h15.58v7.89c1.62-5.61,6.46-8.83,13.3-8.83,12.54,0,16.91,5.42,16.91,16.53v27.93h5.61v.95h-21.38v-.95h5.7Z"/>
      <path class="cls-1" d="M507.48,56.91c-1.81,7.31-7.12,10.64-13.87,10.64-11.12,0-20.05-5.79-20.05-23.18s8.93-23.27,20.05-23.27c6.75,0,12.06,3.42,13.87,10.73V.86h-5.51v-.86h15.58v65.55h5.51v.95h-15.58v-9.59ZM507.48,49.31v-9.97c0-13.3-6.37-16.44-11.97-16.44-7.12,0-11.02,4.75-11.02,17.77v7.31c0,13.02,3.89,17.86,11.02,17.86,5.61,0,11.97-3.23,11.97-16.53Z"/>
    </g>
    <g>
      <path class="cls-1" d="M181.96,98.39c0-1.03-.07-1.7-.19-2.26.74.07,1.54.22,1.92.36.19.07.29.19.29.36,0,.1-.05.19-.12.31-.12.24-.26.53-.29,1.22-.05.65-.07,1.32-.1,2.09,1.2-.24,2.38-.58,3.53-1.01.19-.07.29-.05.31.17.05.34.1.67.1,1.01,0,.22-.07.24-.26.31-1.25.43-2.3.72-3.74.98-.05,1.56-.05,3.14-.02,4.73,2.28-1.1,4.27-1.82,6.26-1.82,2.95,0,4.7,1.82,4.7,4.25,0,2.9-1.97,4.42-4.99,4.42-.65,0-1.37-.1-1.92-.29-.24-.07-.31-.24-.34-.62-.05-.31-.14-.67-.38-1.1.89.41,1.78.5,2.57.5,1.92,0,3.38-.96,3.38-2.95,0-1.75-1.18-2.9-3.31-2.9-1.42,0-3.31.62-5.98,2.02,0,.86.05,2.18.12,3.67.05,1.13.14,1.9.14,2.28,0,.34-.02.48-.26.55-.29.07-.74.17-1.01.17-.22,0-.34-.24-.91-.86-.86-.94-2.06-1.78-3.48-2.69-.36.22-.6.38-.82.53-.12.1-.22.17-.34.17-.14,0-.24-.1-.36-.26-.22-.31-.48-.84-.74-1.46.67-.17,1.39-.38,2.33-.84,1.06-.5,2.42-1.27,3.89-2.11-.02-1.7-.02-3.48-.02-5.14-1.61.19-2.71.26-4.39.26-.31,0-.41-.12-.46-.36-.07-.29-.12-.67-.14-1.13,1.46.07,3.12.02,4.99-.19.02-.86.05-1.54.05-2.35ZM178.87,110.68c1.15.67,1.97,1.18,2.98,1.73.17.1.24.05.24-.17-.05-1.03-.07-2.09-.14-3.41-1.1.62-1.92,1.15-3.07,1.85ZM190.6,99.04c.1-.17.17-.22.34-.19,1.87.38,3.58,1.2,4.75,2.52.1.12.1.19,0,.31-.19.29-.5.72-.77.98-.12.12-.22.1-.31,0-1.27-1.34-2.71-2.23-4.58-2.62.17-.36.36-.67.58-1.01Z"/>
      <path class="cls-1" d="M221.44,100.24c0,.22-.07.24-.31.24-2.57-.07-4.92-.1-7.63,0,0,1.51,0,3.17.02,4.78.19.74.29,1.61.29,2.52,0,3.02-1.3,5.59-4.68,7.42-.24.14-.43.22-.55.22-.14,0-.29-.07-.43-.19-.26-.24-.7-.53-1.1-.67,3.43-1.42,5.02-3.62,5.23-6.05-.53.91-1.56,1.37-2.64,1.37-1.66,0-3.17-1.1-3.17-3.38,0-2.04,1.51-3.34,3.29-3.34.91,0,1.75.26,2.26.82-.02-1.18-.02-2.26-.05-3.38-3.43.19-6.67.43-8.95.72-.58.07-.86.24-1.06.24-.14,0-.24-.07-.29-.24-.14-.31-.26-.89-.38-1.54.82.05,1.61-.02,3.02-.14,1.94-.14,4.42-.31,7.61-.5-.02-.98-.02-1.46-.05-2.23-.02-.6-.07-.98-.24-1.61.72.05,1.42.17,1.82.26.26.07.43.19.43.36,0,.14-.07.26-.17.43-.1.17-.14.34-.17.65-.05.53-.05.98-.05,2.04,2.66-.07,5.02-.07,7.68-.07.22,0,.26.02.26.26v1.03ZM207.88,106.43c0,1.32.86,2.06,1.94,2.06,1.34,0,2.18-1.03,2.18-2.11,0-1.2-.89-2.04-2.14-2.04-1.06,0-1.99.79-1.99,2.09Z"/>
      <path class="cls-1" d="M247.31,100.24c0,.22-.07.24-.31.24-2.57-.07-4.92-.1-7.63,0,0,1.51,0,3.17.02,4.78.19.74.29,1.61.29,2.52,0,3.02-1.3,5.59-4.68,7.42-.24.14-.43.22-.55.22-.14,0-.29-.07-.43-.19-.26-.24-.7-.53-1.1-.67,3.43-1.42,5.02-3.62,5.23-6.05-.53.91-1.56,1.37-2.64,1.37-1.66,0-3.17-1.1-3.17-3.38,0-2.04,1.51-3.34,3.29-3.34.91,0,1.75.26,2.26.82-.02-1.18-.02-2.26-.05-3.38-3.43.19-6.67.43-8.95.72-.58.07-.86.24-1.06.24-.14,0-.24-.07-.29-.24-.14-.31-.26-.89-.38-1.54.82.05,1.61-.02,3.02-.14,1.94-.14,4.42-.31,7.61-.5-.02-.98-.02-1.46-.05-2.23-.02-.6-.07-.98-.24-1.61.72.05,1.42.17,1.82.26.26.07.43.19.43.36,0,.14-.07.26-.17.43s-.14.34-.17.65c-.05.53-.05.98-.05,2.04,2.66-.07,5.02-.07,7.68-.07.22,0,.26.02.26.26v1.03ZM233.75,106.43c0,1.32.86,2.06,1.94,2.06,1.34,0,2.18-1.03,2.18-2.11,0-1.2-.89-2.04-2.14-2.04-1.06,0-1.99.79-1.99,2.09Z"/>
      <path class="cls-1" d="M263.21,97.69c.14-.65.19-1.15.12-1.78.84.19,1.42.48,1.85.72.31.19.29.43.1.67-.24.29-.31.48-.48.94-.22.58-.46,1.18-.84,2.21,4.15.26,6.72,2.83,6.72,6.55,0,4.27-3.29,6.5-7.32,7.44-.34.07-.46,0-.62-.24-.24-.34-.58-.65-1.01-.89,4.3-.77,7.32-2.9,7.32-6.36,0-2.23-1.3-5.21-5.5-5.28-1.18,2.95-2.4,5.28-3.72,7.32.36.55.79,1.06,1.34,1.66-.26.34-.48.58-.79.79-.12.1-.29.12-.46-.05-.31-.34-.67-.74-1.03-1.22-1.51,1.78-2.86,2.66-4.15,2.66-1.22,0-2.52-1.03-2.52-3.46s1.22-4.56,3.43-6.46c-.24-.94-.53-2.18-.77-3.24-.22-.96-.41-1.63-.7-2.23.7.02,1.34.12,1.73.24.29.1.31.24.29.5-.02.34.02.65.1,1.13.19,1.03.41,2.04.6,2.81,1.54-.89,3.65-1.58,5.5-1.7.34-.89.6-1.78.82-2.74ZM253.66,109.26c0,1.25.53,1.99,1.18,1.99.86,0,1.87-.58,3.22-2.33-.84-1.46-1.54-3.1-2.02-4.61-1.46,1.39-2.38,3.29-2.38,4.94ZM259.01,107.72c.86-1.32,2.02-3.67,2.93-6-1.54.14-3.41.82-4.73,1.68.48,1.54,1.15,3.19,1.8,4.32Z"/>
      <path class="cls-1" d="M280.31,100.28c-1.42,0-2.74.05-4.03.14-.29.02-.38-.07-.43-.38-.02-.34-.1-1.08-.12-1.49,1.49.14,2.83.19,4.61.19h8.5c.7,0,.94-.07,1.2-.22.19-.12.43-.1.62.02.41.29.79.65,1.08.98.19.26.17.53-.07.74-.22.19-.36.43-.53.82-1.15,3.05-2.83,5.76-4.7,7.87-1.94,2.18-4.15,4.15-7.13,5.78-.29.19-.6.19-.82-.05-.29-.29-.74-.6-1.25-.82,3.67-1.82,5.74-3.62,7.75-5.93,1.8-2.02,3.5-4.68,4.51-7.68h-9.19ZM295.98,96.44c0,1.34-1.08,2.42-2.42,2.42s-2.42-1.08-2.42-2.42,1.08-2.42,2.42-2.42,2.42,1.08,2.42,2.42ZM292.04,96.44c0,.84.67,1.51,1.51,1.51s1.51-.67,1.51-1.51-.67-1.51-1.51-1.51-1.51.67-1.51,1.51Z"/>
      <path class="cls-1" d="M304.9,103.48c-1.34,0-2.4.02-3.38.12-.22.02-.31-.07-.36-.31-.07-.38-.14-.94-.17-1.51,1.22.12,2.47.17,3.98.17h8.59c.6,0,.94-.05,1.18-.17.29-.14.41-.17.65.02.31.24.67.58.89.86.24.31.22.46-.05.65-.24.17-.36.41-.55.82-2.09,4.73-5.09,8.23-10.13,10.83-.29.14-.46.14-.65-.05-.36-.31-.86-.58-1.34-.74,4.99-2.4,8.64-5.95,10.44-10.68h-9.1ZM306.84,98.48c-1.27,0-2.35.02-3.41.1-.22.02-.26-.07-.29-.34-.05-.36-.12-1.01-.12-1.44,1.39.14,2.3.17,3.91.17h3.72c1.51,0,2.57-.05,3.72-.12.22,0,.26.07.26.29.02.31.02.74,0,1.08,0,.26-.05.34-.31.31-1.1,0-2.11-.05-3.58-.05h-3.91Z"/>
      <path class="cls-1" d="M324.17,98.2c.17-.17.29-.14.43-.05,1.34.74,2.93,1.87,4.32,3.19.17.17.19.26.07.46-.19.29-.62.84-.82,1.03-.14.17-.22.19-.38.02-1.42-1.39-3-2.62-4.56-3.55.31-.38.67-.82.94-1.1ZM326.33,110.92c2.59-1.37,4.7-2.67,6.94-4.46,2.42-1.99,4.42-3.77,6.48-6.46.1.67.24,1.13.41,1.58.14.31.12.5-.17.84-1.61,1.9-3.72,3.82-5.83,5.52-2.04,1.63-4.44,3.17-7.2,4.68-.65.38-1.1.74-1.32.94-.24.22-.43.22-.65-.02-.36-.38-.79-.96-1.18-1.63.94-.26,1.66-.55,2.52-.98Z"/>
    </g>
  </g>
</svg>