<?xml version="1.0" encoding="UTF-8"?>
<svg id="_レイヤー_2" data-name="レイヤー 2" xmlns="http://www.w3.org/2000/svg" viewBox="0 0 1064.89 86.26">
  <defs>
    <style>
      .cls-1 {
        fill: #fff;
      }
    </style>
  </defs>
  <g id="_レイヤー_1-2" data-name="レイヤー 1">
    <g>
      <path class="cls-1" d="M20.33,65.55V5.7H.95v13.68h-.95V4.75h51.02v14.63h-.95V5.7h-19.29v59.85h7.6v.95H12.73v-.95h7.6Z"/>
      <path class="cls-1" d="M90.12,65.55v-30.59c0-7.98-2.66-12.07-9.21-12.07s-10.92,4.18-10.92,13.21v29.45h5.51v.95h-21.09v-.95h5.51V.95h-5.51v-.95h15.58v29.93c1.61-5.61,6.46-8.83,13.3-8.83,12.54,0,16.91,5.42,16.91,16.53v27.93h5.61v.95h-21.38v-.95h5.7Z"/>
      <path class="cls-1" d="M108.42,44.37c0-16.25,9.31-23.27,21.09-23.27,12.54,0,20.43,5.6,20.43,19.95,0,1.61-.1,2.18-.1,2.18h-30.59v3.99c0,13.49,4.94,19.29,13.58,19.29s13.49-3.9,14.82-8.36h.95c-1.33,5.04-6.37,9.41-16.34,9.41-14.82,0-23.84-7.03-23.84-23.18ZM139.11,38.19c0-12.35-3.33-16.05-9.6-16.05-5.89,0-10.26,4.37-10.26,16.05v4.08h19.86v-4.08Z"/>
      <path class="cls-1" d="M197.53,65.55V5.7h-19.38v13.68h-.95V4.75h51.02v14.63h-.95V5.7h-19.29v59.85h7.6v.95h-25.65v-.95h7.6Z"/>
      <path class="cls-1" d="M235.65,35.63c0-23.28,12.83-31.83,29.17-31.83s29.17,8.55,29.17,31.83-12.92,31.83-29.17,31.83-29.17-8.55-29.17-31.83ZM282.3,40.66v-10.07c0-18.72-6.55-25.84-17.48-25.84s-17.48,7.12-17.48,25.84v10.07c0,18.71,6.46,25.84,17.48,25.84s17.48-7.12,17.48-25.84Z"/>
      <path class="cls-1" d="M326.04,66.5h-6.75l-19.29-60.8h-5.6v-.95h24.42v.95h-7.79l16.15,52.35,14.82-53.3h6.37l17.29,53.58,15.87-52.63h-8.27v-.95h15.39v.95h-6.08l-18.24,60.8h-6.65l-17.29-51.87-14.35,51.87Z"/>
      <path class="cls-1" d="M402.82,65.55V5.7h-7.6v-.95h46.08v13.68h-.95V5.7h-27.08v28.98h22.33v-8.27h.95v17.48h-.95v-8.26h-22.33v29.92h28.03v-12.73h.95v13.68h-47.03v-.95h7.6Z"/>
      <path class="cls-1" d="M488.5,53.39c-3.13-12.83-4.46-15.67-10.26-15.67h-8.08v27.83h7.6v.95h-25.65v-.95h7.6V5.7h-7.6v-.95h33.44c15.01,0,23.28,5.23,23.28,16.82,0,10.54-6.84,16.25-23.75,16.15,7.22.85,10.45,2.38,13.58,13.96,3.51,12.54,5.03,14.25,8.26,14.25,2.76,0,6.08-2.09,6.08-8.83h.95c0,7.41-3.51,10.36-10.54,10.36s-11.78-1.24-14.92-14.06ZM485.56,36.77c8.08,0,11.59-3.61,11.59-13.21v-4.75c0-9.5-3.51-13.11-11.59-13.11h-15.39v31.07h15.39Z"/>
      <path class="cls-1" d="M547.78,5.7h-7.6v-.95h28.79c15.11,0,22.04,4.85,22.04,15.2,0,7.6-3.99,13.11-17.48,14.25,14.63.76,19.86,6.94,19.86,15.77,0,10.83-8.55,16.53-23.94,16.53h-29.26v-.95h7.6V5.7ZM568.96,33.92c7.22,0,10.36-3.9,10.36-13.11v-1.9c0-9.31-3.14-13.21-10.36-13.21h-10.74v28.22h10.74ZM569.44,65.55c8.93,0,12.25-4.75,12.25-14.25v-2.66c0-8.83-3.23-13.78-12.25-13.78h-11.21v30.69h11.21Z"/>
      <path class="cls-1" d="M641.94,65.55l-6.65-18.53h-25.17l-6.75,18.53h8.27v.95h-15.48v-.95h6.08l22.04-60.8h6.65l22.04,60.8h5.7v.95h-24.42v-.95h7.7ZM634.91,46.08l-12.16-34.01-12.35,34.01h24.51Z"/>
      <path class="cls-1" d="M701.03,53.39c-3.13-12.83-4.46-15.67-10.26-15.67h-8.08v27.83h7.6v.95h-25.65v-.95h7.6V5.7h-7.6v-.95h33.44c15.01,0,23.28,5.23,23.28,16.82,0,10.54-6.84,16.25-23.75,16.15,7.22.85,10.45,2.38,13.59,13.96,3.51,12.54,5.03,14.25,8.26,14.25,2.76,0,6.08-2.09,6.08-8.83h.95c0,7.41-3.52,10.36-10.54,10.36s-11.78-1.24-14.92-14.06ZM698.09,36.77c8.08,0,11.59-3.61,11.59-13.21v-4.75c0-9.5-3.51-13.11-11.59-13.11h-15.39v31.07h15.39Z"/>
      <path class="cls-1" d="M754.13,35.63c0-23.28,12.83-31.83,30.4-31.83,11.88,0,18.91,5.04,21.09,12.35h-.95c-2.09-6.65-8.74-11.4-20.24-11.4-12.16,0-18.62,7.12-18.62,25.84v10.07c0,18.71,6.46,25.84,17,25.84,11.21,0,14.82-8.17,14.82-26.41v-5.7h-15.49v-.95h26.7v3.9c0,21.95-9.79,30.12-25.93,30.12s-28.79-8.55-28.79-31.83Z"/>
      <path class="cls-1" d="M845.03,60.71v-.29c-1.9,5.13-6.37,7.22-12.35,7.22-11.78,0-17.29-5.89-17.29-14.06s5.51-13.97,17.29-13.97c5.98,0,10.45,2,12.35,7.13v-10.74c0-10.26-4.28-13.49-11.4-13.49-8.07,0-11.69,3.23-13.11,7.7h-1.04c1.42-5.04,5.6-9.12,15.87-9.12,12.92,0,19.76,4.18,19.76,16.05v24.42c0,2.76.95,3.99,3.13,3.99s4.46-1.23,4.46-5.32h.95c0,5.04-2.85,7.13-9.41,7.13s-9.21-2.09-9.21-6.65ZM845.03,53.58c0-9.98-5.13-12.64-10.36-12.64-5.51,0-8.74,3.42-8.74,11.02v3.23c0,7.69,3.23,11.02,8.74,11.02,5.23,0,10.36-2.56,10.36-12.63Z"/>
      <path class="cls-1" d="M868.84,52.82V.95h-5.6v-.95h15.67v55.58c0,7.88,3.14,10.64,7.32,10.64s7.79-2.38,9.03-7.22h.95c-1.42,5.51-5.13,8.55-11.78,8.55-10.26,0-15.58-5.13-15.58-14.72Z"/>
      <path class="cls-1" d="M902.23,52.82V.95h-5.61v-.95h15.68v55.58c0,7.88,3.13,10.64,7.31,10.64s7.79-2.38,9.03-7.22h.95c-1.42,5.51-5.13,8.55-11.78,8.55-10.26,0-15.58-5.13-15.58-14.72Z"/>
      <path class="cls-1" d="M932.71,44.37c0-16.25,9.31-23.27,21.09-23.27,12.54,0,20.43,5.6,20.43,19.95,0,1.61-.1,2.18-.1,2.18h-30.59v3.99c0,13.49,4.94,19.29,13.59,19.29s13.49-3.9,14.82-8.36h.95c-1.33,5.04-6.37,9.41-16.34,9.41-14.82,0-23.85-7.03-23.85-23.18ZM963.4,38.19c0-12.35-3.33-16.05-9.6-16.05-5.89,0-10.26,4.37-10.26,16.05v4.08h19.86v-4.08Z"/>
      <path class="cls-1" d="M982.33,65.55v-29.17c0-9.79,5.99-15.39,16.72-15.39,7.03,0,10.64,2.95,12.26,8.55h-.95c-1.52-5.04-4.84-7.32-9.69-7.32-5.42,0-8.27,3.8-8.27,11.69v31.63h6.65v.95h-22.33v-.95h5.6Z"/>
      <path class="cls-1" d="M1034.3,73.82v-6.84c-10.45-1.33-15.2-7.22-15.2-16.91v-27.08h-5.61v-.95h21.19v.95h-5.51v30.69c0,7.79,2.38,12.92,10.07,12.92s10.07-5.13,10.07-12.92v-30.69h-5.51v-.95h21.09v.95h-5.51v27.08c0,9.69-4.85,15.49-15.11,16.82v8.65c0,6.46,1.9,9.41,6.74,9.41s8.36-2.28,9.69-7.22h.95c-1.52,5.61-5.41,8.55-12.54,8.55-10.07,0-14.82-3.99-14.82-12.44Z"/>
    </g>
  </g>
</svg>