<?xml version="1.0" encoding="UTF-8"?>
<svg id="_レイヤー_2" data-name="レイヤー 2" xmlns="http://www.w3.org/2000/svg" viewBox="0 0 523.33 36.35">
  <defs>
    <style>
      .cls-1 {
        fill: none;
        stroke: #ffaeae;
        stroke-miterlimit: 10;
      }

      .cls-2 {
        fill: #ffaeae;
      }
    </style>
  </defs>
  <g id="_レイヤー_1-2" data-name="レイヤー 1">
    <g>
      <g>
        <path class="cls-2" d="M188.51,35.2l-3.85-10.72h-14.57l-3.9,10.72h4.78v.55h-8.96v-.55h3.52L178.28,0h3.85l12.76,35.2h3.3v.55h-14.13v-.55h4.45ZM184.44,23.92l-7.04-19.69-7.15,19.69h14.19Z"/>
        <path class="cls-2" d="M218.54,31.18c-.93,3.3-3.74,5.11-7.7,5.11-7.26,0-9.79-3.08-9.79-9.51V10.56h-3.24v-.55h9.07v18.26c0,4.62,1.54,7.04,5.33,7.04s6.32-2.48,6.32-7.7V10.56h-3.19v-.55h9.02v25.19h3.19v.55h-9.02v-4.56Z"/>
        <path class="cls-2" d="M231.49,28.05V4.01h5.83v5.99h7.81v.55h-7.81v19.03c0,3.74,1.38,5.99,4.29,5.99s5-1.32,5.78-4.18h.55c-.82,3.19-2.97,4.95-7.15,4.95-6.38,0-9.29-2.86-9.29-8.3Z"/>
        <path class="cls-2" d="M269.64,31.18c-.94,3.3-3.74,5.11-7.7,5.11-7.26,0-9.79-3.08-9.79-9.51V10.56h-3.24v-.55h9.07v18.26c0,4.62,1.54,7.04,5.33,7.04s6.32-2.48,6.32-7.7V10.56h-3.19v-.55h9.02v25.19h3.19v.55h-9.02v-4.56Z"/>
        <path class="cls-2" d="M319.84,35.2v-18.15c0-4.51-1.65-6.54-5.28-6.54s-6.38,2.42-6.38,7.64v17.05h3.25v.55h-12.37v-.55h3.3v-17.71c0-4.62-1.54-6.98-5.33-6.98s-6.32,2.42-6.32,7.64v17.05h3.19v.55h-12.21v-.55h3.19V10.56h-3.19v-.55h9.02v4.56c.93-3.25,3.74-5.11,7.7-5.11,5.77,0,8.69,1.98,9.51,6.32.66-4.01,3.46-6.32,7.97-6.32,7.26,0,9.79,3.13,9.79,9.57v16.17h3.19v.55h-12.32v-.55h3.3Z"/>
        <path class="cls-2" d="M352.42,35.2v-17.71c0-4.62-1.54-6.98-5.33-6.98s-6.32,2.42-6.32,7.64v17.05h3.19v.55h-12.21v-.55h3.19V10.56h-3.19v-.55h9.02v4.56c.94-3.25,3.74-5.11,7.7-5.11,7.26,0,9.79,3.13,9.79,9.57v16.17h3.24v.55h-12.37v-.55h3.3Z"/>
      </g>
      <line class="cls-1" x1="150.64" y1="19.58" y2="19.58"/>
      <line class="cls-1" x1="523.33" y1="19.58" x2="372.69" y2="19.58"/>
    </g>
  </g>
</svg>