<?xml version="1.0" encoding="UTF-8"?>
<svg id="_レイヤー_2" data-name="レイヤー 2" xmlns="http://www.w3.org/2000/svg" viewBox="0 0 611.31 121.54">
  <defs>
    <style>
      .cls-1 {
        fill: #fff;
      }
    </style>
  </defs>
  <g id="_レイヤー_1-2" data-name="レイヤー 1">
    <g>
      <path class="cls-1" d="M1.14,55.67h.95c2,6.84,10.35,10.83,21.47,10.83s16.62-6.84,16.62-15.39c0-6.46-4.08-11.5-13.68-11.5h-8.07C6.17,39.62,0,33.35,0,23.85,0,11.4,10.83,3.8,22.8,3.8c10.26,0,18.72,4.37,21.28,11.78h-.95c-2.47-6.65-10.55-10.83-20.33-10.83-11.02,0-16.15,5.79-16.15,13.3,0,6.84,4.56,10.54,14.54,10.54h7.89c12.06,0,18.05,7.98,18.05,17.48,0,13.01-10.92,21.38-23.66,21.38-11.78,0-20.14-4.18-22.33-11.78Z"/>
      <path class="cls-1" d="M57.35,84.55V22.99h-5.51v-.95h15.58v9.79c1.81-7.31,7.22-10.73,13.87-10.73,11.12,0,20.05,5.89,20.05,23.27s-8.93,23.18-20.05,23.18c-6.65,0-12.06-3.33-13.87-10.64v27.64h5.6v.95h-21.19v-.95h5.51ZM90.41,47.98v-7.31c0-13.02-3.9-17.77-11.02-17.77-5.6,0-11.97,3.13-11.97,16.44v9.97c0,13.3,6.37,16.53,11.97,16.53,7.12,0,11.02-4.84,11.02-17.86Z"/>
      <path class="cls-1" d="M110.46,65.55V22.99h-5.51v-.95h15.58v43.51h5.51v.95h-21.09v-.95h5.51ZM108.94,7.41c0-3.33,2.09-5.89,6.27-5.89s6.27,2.56,6.27,5.89-2.09,5.99-6.27,5.99-6.27-2.57-6.27-5.99Z"/>
      <path class="cls-1" d="M135.8,65.55v-29.17c0-9.79,5.99-15.39,16.72-15.39,7.03,0,10.64,2.95,12.26,8.55h-.95c-1.52-5.04-4.85-7.32-9.69-7.32-5.42,0-8.27,3.8-8.27,11.69v31.63h6.65v.95h-22.33v-.95h5.6Z"/>
      <path class="cls-1" d="M172.82,65.55V22.99h-5.51v-.95h15.58v43.51h5.51v.95h-21.09v-.95h5.51ZM171.3,7.41c0-3.33,2.09-5.89,6.27-5.89s6.27,2.56,6.27,5.89-2.09,5.99-6.27,5.99-6.27-2.57-6.27-5.99Z"/>
      <path class="cls-1" d="M194.28,53.2V11.69h10.07v10.35h13.49v.95h-13.49v32.87c0,6.46,2.38,10.36,7.41,10.36s8.65-2.28,9.98-7.22h.95c-1.42,5.51-5.13,8.55-12.35,8.55-11.02,0-16.06-4.94-16.06-14.34Z"/>
      <path class="cls-1" d="M259.71,58.62c-1.61,5.7-6.46,8.83-13.3,8.83-12.54,0-16.91-5.32-16.91-16.44v-28.03h-5.6v-.95h15.68v31.54c0,7.98,2.66,12.16,9.22,12.16s10.92-4.28,10.92-13.3v-29.45h-5.51v-.95h15.58v43.51h5.51v.95h-15.58v-7.88Z"/>
      <path class="cls-1" d="M307.72,60.71v-.29c-1.9,5.13-6.37,7.22-12.35,7.22-11.78,0-17.29-5.89-17.29-14.06s5.51-13.97,17.29-13.97c5.98,0,10.45,2,12.35,7.13v-10.74c0-10.26-4.27-13.49-11.4-13.49-8.08,0-11.69,3.23-13.11,7.7h-1.04c1.42-5.04,5.6-9.12,15.87-9.12,12.92,0,19.76,4.18,19.76,16.05v24.42c0,2.76.95,3.99,3.13,3.99s4.46-1.23,4.46-5.32h.95c0,5.04-2.85,7.13-9.41,7.13s-9.21-2.09-9.21-6.65ZM307.72,53.58c0-9.98-5.13-12.64-10.35-12.64-5.51,0-8.74,3.42-8.74,11.02v3.23c0,7.69,3.23,11.02,8.74,11.02,5.23,0,10.35-2.56,10.35-12.63Z"/>
      <path class="cls-1" d="M331.53,52.82V.95h-5.6v-.95h15.67v55.58c0,7.88,3.14,10.64,7.32,10.64s7.79-2.38,9.03-7.22h.95c-1.42,5.51-5.13,8.55-11.78,8.55-10.26,0-15.58-5.13-15.58-14.72Z"/>
      <path class="cls-1" d="M391.19,65.55V5.7h-7.6v-.95h31.64c15.11,0,22.61,5.51,22.61,17.29s-7.5,17.29-22.61,17.29h-13.58v26.22h7.6v.95h-25.65v-.95h7.6ZM415.23,38.38c7.32,0,10.92-4.28,10.92-13.3v-6.08c0-9.02-3.61-13.3-10.92-13.3h-13.58v32.68h13.58Z"/>
      <path class="cls-1" d="M446.52,52.82V.95h-5.61v-.95h15.68v55.58c0,7.88,3.13,10.64,7.31,10.64s7.79-2.38,9.03-7.22h.95c-1.42,5.51-5.13,8.55-11.78,8.55-10.26,0-15.58-5.13-15.58-14.72Z"/>
      <path class="cls-1" d="M507.71,60.71v-.29c-1.9,5.13-6.37,7.22-12.35,7.22-11.78,0-17.29-5.89-17.29-14.06s5.51-13.97,17.29-13.97c5.98,0,10.45,2,12.35,7.13v-10.74c0-10.26-4.27-13.49-11.4-13.49-8.08,0-11.69,3.23-13.11,7.7h-1.04c1.42-5.04,5.6-9.12,15.87-9.12,12.92,0,19.76,4.18,19.76,16.05v24.42c0,2.76.95,3.99,3.13,3.99s4.47-1.23,4.47-5.32h.95c0,5.04-2.85,7.13-9.4,7.13s-9.22-2.09-9.22-6.65ZM507.71,53.58c0-9.98-5.13-12.64-10.35-12.64-5.51,0-8.74,3.42-8.74,11.02v3.23c0,7.69,3.23,11.02,8.74,11.02,5.22,0,10.35-2.56,10.35-12.63Z"/>
      <path class="cls-1" d="M528.65,44.37c0-17.38,9.59-23.27,22.23-23.27,8.74,0,13.3,4.27,14.34,9.31h-.95c-1.04-4.46-5.13-8.17-12.92-8.17s-11.78,5.22-11.78,18.43v7.31c0,13.21,3.61,18.43,11.78,18.43s12.07-3.61,13.11-8.17h.95c-1.04,5.03-5.79,9.31-14.54,9.31-12.64,0-22.23-5.79-22.23-23.18Z"/>
      <path class="cls-1" d="M569.8,44.37c0-16.25,9.31-23.27,21.09-23.27,12.54,0,20.42,5.6,20.42,19.95,0,1.61-.09,2.18-.09,2.18h-30.59v3.99c0,13.49,4.94,19.29,13.59,19.29s13.49-3.9,14.82-8.36h.95c-1.33,5.04-6.37,9.41-16.34,9.41-14.82,0-23.85-7.03-23.85-23.18ZM600.48,38.19c0-12.35-3.33-16.05-9.59-16.05-5.89,0-10.26,4.37-10.26,16.05v4.08h19.86v-4.08Z"/>
    </g>
    <g>
      <path class="cls-1" d="M156.78,113.04c.14.07.17.17.07.31-.31.5-.65,1.2-.65,1.87,0,1.97,2.21,2.93,6.14,2.93,2.81,0,5.09-.26,6.89-.7.22-.05.29-.02.34.17.07.26.17.86.22,1.25.02.19-.07.26-.31.31-1.87.38-3.98.62-7.27.62-4.68,0-7.46-1.42-7.46-4.51,0-1.03.38-1.94.98-2.83.34.17.72.38,1.06.58ZM162.4,104.06c1.73,0,3.65-.07,5.3-.22.22-.02.31.05.34.22.05.31.07.65.07,1.08,0,.26-.1.34-.34.36-2.02.29-4.22,1.39-6.22,2.74-.22.17-.46.19-.67.05-.29-.22-.6-.38-.98-.48,1.51-1.03,2.88-1.8,4.13-2.4-.79.07-1.85.1-2.59.1-1.56,0-3.41-.12-4.87-.43-.14-.02-.22-.1-.22-.34,0-.31.02-.82.05-1.22,1.61.36,3.7.55,6,.55ZM168.57,100.99c.1-.07.17-.07.26,0,.96.67,2.02,1.85,2.71,2.9.07.1.05.19-.05.26l-.7.58c-.12.1-.24.07-.31-.05-.7-1.18-1.7-2.3-2.78-3.07l.86-.62ZM170.58,99.41c.1-.07.17-.1.26-.02.96.74,2.04,1.8,2.74,2.81.07.12.05.19-.07.29l-.65.58c-.1.1-.19.1-.29-.05-.6-.98-1.63-2.16-2.76-3l.77-.6Z"/>
      <path class="cls-1" d="M188.62,111.26c2.09,3.05,5.28,5.59,9.65,7.3-.26.24-.53.55-.74.94-.17.26-.22.38-.34.38-.07,0-.17-.05-.34-.14-4.1-1.94-6.89-4.27-9.02-7.61.02,4.18.12,8.4.12,9.22,0,.17-.02.19-.19.19h-1.25c-.17,0-.19-.02-.19-.19,0-.82.12-5.18.14-9.24-2.09,3.26-4.66,5.57-8.57,7.56-.19.1-.31.17-.38.17-.12,0-.17-.1-.31-.36-.19-.36-.46-.65-.74-.89,3.89-1.68,7.08-4.27,9.05-7.32h-4.82c-2.3,0-3.07.05-3.22.05-.17,0-.19-.02-.19-.19v-1.03c0-.17.02-.19.19-.19.14,0,.91.05,3.22.05h5.74v-4.22h-5.06c-.48.84-1.03,1.66-1.78,2.52-.14.17-.22.26-.31.26-.07,0-.17-.1-.36-.24-.31-.26-.55-.41-.86-.53,1.78-1.82,2.76-3.65,3.48-5.78.12-.34.19-.79.24-1.2.55.12.94.24,1.32.38.26.1.34.17.34.31s-.12.24-.22.34c-.17.17-.29.5-.48.98-.24.58-.46,1.1-.7,1.61h4.39v-1.68c0-1.46-.02-1.9-.17-2.78.58.02,1.13.07,1.61.14.17.02.31.1.31.19,0,.19-.1.31-.14.48-.1.29-.14.7-.14,1.97v1.68h4.01c2.42,0,3.24-.02,3.36-.02.17,0,.19.02.19.17v1.06c0,.17-.02.19-.19.19-.12,0-.94-.05-3.36-.05h-4.01v4.22h6.12c2.3,0,3.07-.05,3.19-.05.19,0,.22.02.22.19v1.03c0,.17-.02.19-.22.19-.12,0-.89-.05-3.19-.05h-5.38Z"/>
      <path class="cls-1" d="M203.92,105.48c0-1.49-.02-2.28-.17-3.05.5.1,1.01.24,1.49.46,1.75-.38,3.55-1.03,4.97-1.78.43-.24.84-.5,1.15-.79.43.34.79.7,1.03,1.01.1.14.14.22.14.31,0,.12-.1.22-.29.24-.19.02-.46.14-.82.29-2.09.96-4.06,1.56-6.07,2.09v4.58h3.94c1.85,0,2.4-.05,2.52-.05.17,0,.19.02.19.19v1.03c0,.17-.02.19-.19.19-.12,0-.67-.05-2.52-.05h-3.94v5.76h4.37c1.56,0,2.02-.05,2.14-.05.17,0,.19.02.19.19v1.03c0,.17-.02.19-.19.19-.12,0-.58-.05-2.14-.05h-4.37v2.23c0,.17-.02.19-.19.19h-1.1c-.17,0-.19-.02-.19-.19,0-.12.05-1.25.05-3.91v-10.08ZM222.64,111.82c0,1.73.05,2.52.05,3.17,0,.86-.1,1.51-.48,2.02-.5.65-1.1.84-3.41.79-.48,0-.53.02-.6-.48-.07-.46-.24-.84-.43-1.13.67.07,1.32.12,2.09.12.98,0,1.32-.29,1.32-1.49v-11.64h-5.62v13.85c0,2.86.05,4.13.05,4.25,0,.17-.02.19-.22.19h-1.15c-.17,0-.19-.02-.19-.19,0-.12.05-1.42.05-4.54v-10.15c0-3.14-.05-4.46-.05-4.61,0-.17.02-.19.19-.19.12,0,.72.05,2.57.05h3.1c1.85,0,2.45-.05,2.59-.05.17,0,.19.02.19.19,0,.14-.05,1.25-.05,3.67v6.17Z"/>
      <path class="cls-1" d="M240.11,103.03c.14-.65.19-1.15.12-1.78.84.19,1.42.48,1.85.72.31.19.29.43.1.67-.24.29-.31.48-.48.94-.22.58-.46,1.18-.84,2.21,4.15.26,6.72,2.83,6.72,6.55,0,4.27-3.29,6.5-7.32,7.44-.34.07-.46,0-.62-.24-.24-.34-.58-.65-1.01-.89,4.3-.77,7.32-2.9,7.32-6.36,0-2.23-1.3-5.21-5.5-5.28-1.18,2.95-2.4,5.28-3.72,7.32.36.55.79,1.06,1.34,1.66-.26.34-.48.58-.79.79-.12.1-.29.12-.46-.05-.31-.34-.67-.74-1.03-1.22-1.51,1.78-2.86,2.66-4.15,2.66-1.22,0-2.52-1.03-2.52-3.46s1.22-4.56,3.43-6.46c-.24-.94-.53-2.18-.77-3.24-.22-.96-.41-1.63-.7-2.23.7.02,1.34.12,1.73.24.29.1.31.24.29.5-.02.34.02.65.1,1.13.19,1.03.41,2.04.6,2.81,1.54-.89,3.65-1.58,5.5-1.7.34-.89.6-1.78.82-2.74ZM230.55,114.6c0,1.25.53,1.99,1.18,1.99.86,0,1.87-.58,3.22-2.33-.84-1.46-1.54-3.1-2.02-4.61-1.46,1.39-2.38,3.29-2.38,4.94ZM235.91,113.07c.86-1.32,2.02-3.67,2.93-6-1.54.14-3.41.82-4.73,1.68.48,1.54,1.15,3.19,1.8,4.32Z"/>
      <path class="cls-1" d="M265.39,102.07c.1.1.17.22.17.31,0,.14-.1.24-.24.31-.29.12-.53.29-.89.62-2.35,2.14-5.28,4.85-7.08,6.77-.24.24-.34.43-.34.6s.1.29.31.43c2.95,2.18,6.14,4.75,9.26,7.92.17.19.22.24.02.48-.29.34-.67.7-.91.91-.19.14-.29.17-.46-.05-3.12-3.43-6.22-6-9.05-8.14-.65-.5-.94-.94-.94-1.51s.29-.98.84-1.56c1.94-2.06,4.56-4.61,6.7-6.77.48-.5.77-.91,1.06-1.49.55.36,1.2.82,1.54,1.15ZM266.42,105.29c.07-.05.14-.05.24.02.96.67,2.02,1.85,2.71,2.9.07.1.05.19-.05.26l-.7.58c-.12.1-.24.07-.31-.05-.7-1.18-1.7-2.3-2.78-3.07l.89-.65ZM268.42,103.73c.1-.07.17-.1.26-.02.96.74,2.04,1.8,2.74,2.81.07.12.05.19-.07.29l-.65.58c-.1.1-.19.1-.29-.05-.6-.98-1.63-2.16-2.76-3l.77-.6Z"/>
      <path class="cls-1" d="M282.07,101.64c.22.12.31.22.31.36,0,.12-.05.24-.1.31-.19.26-.34.5-.43.94-.46,2.23-.67,4.22-.72,5.52-.02.91-.02,1.9.1,2.71.5-1.01,1.22-2.38,1.78-3.46.14.46.31.74.48.98.17.26.12.41-.02.65-.62,1.1-1.18,2.28-1.51,3.17-.14.38-.17.55-.17.77.02.22-.02.29-.17.34-.22.05-.74.12-1.15.17-.12,0-.19-.1-.24-.24-.36-.98-.6-2.64-.6-4.49,0-1.46.26-3.7.55-5.64.14-1.01.26-1.78.22-2.66.67.14,1.27.36,1.68.58ZM289.66,101.4c.36.07.41.24.36.48-.07.26-.07.67-.05,1.13.19,2.67.29,4.66.29,6.36,0,3.43-.6,6.02-1.97,7.87-.96,1.32-2.23,2.5-3.96,3.48-.24.14-.41.14-.62-.05-.31-.26-.79-.55-1.22-.67,1.94-1.03,3.14-1.9,4.18-3.29,1.34-1.8,1.97-3.84,1.97-7.27,0-1.66-.1-3.94-.24-5.71-.1-1.15-.24-1.78-.48-2.52.67.02,1.32.07,1.75.19Z"/>
      <path class="cls-1" d="M311.78,111.12c-.22,2.21-.98,4.37-2.06,5.54,1.08,1.2,1.82,1.46,3.38,1.46l-.46,1.46h-.48c-1.75,0-2.62-.43-3.72-1.66-1.3,1.18-2.83,1.7-4.82,1.7-3.34,0-5.66-2.14-5.66-5.11,0-2.52,1.22-4.08,3.86-5.3-.94-1.44-1.32-2.47-1.32-3.74,0-2.18,1.7-3.84,4.06-3.84s3.94,1.39,3.94,3.6c0,2.06-1.25,3.48-4.37,4.44,1.34,2.06,3.07,4.34,4.56,6.02.89-1.32,1.22-2.98,1.39-4.99l1.7.41ZM299.81,114.36c0,2.18,1.75,3.82,4.08,3.82,1.51,0,2.66-.38,3.6-1.25-1.63-1.85-3.55-4.42-4.97-6.65-1.97,1.01-2.71,2.16-2.71,4.08ZM306.72,105.17c0-1.25-.86-2.14-2.16-2.14s-2.28.96-2.28,2.38c0,1.03.29,1.82,1.18,3.22,2.52-.89,3.26-1.87,3.26-3.46Z"/>
      <path class="cls-1" d="M326.71,105.48c0,1.49.05,2.09.05,2.21,0,.17-.02.19-.19.19-.12,0-.72-.05-2.4-.05h-4.34v8.38c0,3.43.05,4.85.05,4.99,0,.17-.02.19-.19.19h-1.13c-.17,0-.19-.02-.19-.19,0-.14.05-1.56.05-4.99v-10.39c0-3.43-.05-4.9-.05-5.04,0-.17.02-.19.19-.19.14,0,.94.05,2.71.05h2.9c1.68,0,2.28-.05,2.4-.05.17,0,.19.02.19.19,0,.14-.05.74-.05,2.21v2.5ZM325.34,101.81h-5.52v1.82h5.52v-1.82ZM325.34,104.78h-5.52v1.9h5.52v-1.9ZM334.68,115.03c0,.17-.02.19-.19.19-.12,0-.91-.05-3.26-.05h-.34v2.57c0,1.78.05,2.5.05,2.64,0,.17-.02.19-.19.19h-1.06c-.17,0-.19-.02-.19-.19,0-.14.05-.86.05-2.64v-2.57h-3.41c-.17,1.25-.34,1.87-.72,2.74-.46,1.01-1.18,1.94-2.14,2.71-.14.12-.24.19-.31.19-.1,0-.19-.1-.38-.29-.26-.26-.55-.46-.84-.58,1.03-.6,1.87-1.42,2.4-2.5.36-.72.58-1.49.62-2.28h-.14c-2.35,0-3.12.05-3.26.05-.17,0-.19-.02-.19-.19v-.89c0-.17.02-.19.19-.19.14,0,.91.05,3.26.05h.24c.02-.74.07-1.68.07-2.86-1.92,0-2.62.05-2.69.05-.19,0-.22-.02-.22-.19v-.89c0-.17.02-.19.22-.19.1,0,.84.05,3.1.05h5.33c2.26,0,3-.05,3.12-.05.14,0,.17.02.17.19v.89c0,.17-.02.19-.17.19-.12,0-.84-.05-2.9-.05v2.86h.34c2.35,0,3.14-.05,3.26-.05.17,0,.19.02.19.19v.89ZM329.54,111.14h-3.24c0,1.13-.02,2.06-.07,2.86h3.31v-2.86ZM337.63,115.3c0,1.32.07,2.57.07,3.48,0,1.06-.17,1.46-.62,1.82-.46.38-.98.48-2.9.48-.46,0-.43,0-.55-.46s-.24-.74-.43-1.06c.62.07,1.18.1,1.75.1,1.06,0,1.27-.19,1.27-1.15v-10.68h-4.39c-1.87,0-2.47.05-2.59.05-.19,0-.22-.02-.22-.19,0-.12.05-.58.05-2.06v-2.78c0-1.46-.05-1.92-.05-2.06,0-.17.02-.19.22-.19.12,0,.72.05,2.59.05h3.07c1.85,0,2.47-.05,2.59-.05.17,0,.19.02.19.19,0,.14-.05,1.1-.05,3.43v11.09ZM336.21,101.81h-5.79v1.82h5.79v-1.82ZM336.21,104.78h-5.79v1.9h5.79v-1.9Z"/>
      <path class="cls-1" d="M348.27,116.67c.48,1.18,1.03,1.8,2.14,2.3.86.38,2.69.62,4.97.62,3.07,0,6.38-.14,9.94-.48-.24.29-.38.62-.43.98q-.1.48-.58.53c-3.1.19-5.98.29-8.4.29-2.74,0-4.87-.26-6.02-.79-1.1-.5-1.73-1.22-2.28-2.35-.74.79-1.58,1.54-2.54,2.3-.29.22-.46.38-.53.5-.1.14-.19.22-.29.22s-.19-.07-.29-.22c-.24-.38-.46-.74-.67-1.22.62-.31.98-.53,1.49-.89.7-.5,1.42-1.13,2.11-1.9v-6h-1.7c-1.22,0-1.54.05-1.63.05-.19,0-.22-.02-.22-.22v-1.03c0-.17.02-.19.22-.19.1,0,.41.05,1.63.05h1.25c1.25,0,1.58-.05,1.7-.05.17,0,.19.02.19.19,0,.12-.05.74-.05,2.28v5.02ZM345.03,100.92c.26-.17.29-.19.43-.05.98.96,1.87,2.06,2.74,3.36.1.14.07.19-.17.38l-.58.46c-.31.22-.34.22-.46.02-.82-1.34-1.73-2.52-2.66-3.46-.14-.12-.12-.14.14-.34l.55-.38ZM364.14,102.79c0,1.85.05,2.06.05,2.21s-.02.17-.19.17h-1.03c-.17,0-.19-.02-.19-.17v-2.81h-12.14v2.81c0,.14-.02.17-.19.17h-1.01c-.17,0-.19-.02-.19-.17s.05-.36.05-2.21v-.6c0-.62-.05-.91-.05-1.06,0-.17.02-.19.19-.19.12,0,.98.05,3.41.05h7.75c2.42,0,3.29-.05,3.41-.05.17,0,.19.02.19.19,0,.14-.05.43-.05.94v.72ZM364.06,116.19c0,.17-.02.19-.19.19-.12,0-.94-.05-3.36-.05h-3.36v.1c0,1.37.05,1.9.05,2.04s-.02.19-.19.19h-1.01c-.14,0-.19-.05-.19-.19s.05-.67.05-2.04v-.1h-2.98c-2.4,0-3.22.05-3.36.05-.17,0-.19-.02-.19-.19v-.89c0-.17.02-.19.19-.19.14,0,.96.05,3.36.05h2.98v-1.51h-1.73c-2.21,0-2.98.05-3.12.05s-.17-.02-.17-.19c0-.14.02-.62.02-2.04v-2.38c0-1.42-.02-1.9-.02-2.02,0-.17.02-.19.17-.19s.91.05,3.12.05h1.73v-1.46h-1.7c-1.9,0-2.62.05-2.74.05-.17,0-.19-.02-.19-.19v-.84c0-.17.02-.19.19-.19.12,0,.84.05,2.74.05h1.7c0-.58-.05-1.1-.14-1.61.55.02.91.05,1.42.12.14.02.26.07.26.17,0,.12-.02.19-.1.34-.1.19-.14.41-.14.89v.1h2.09c1.9,0,2.62-.05,2.74-.05.17,0,.19.02.19.19v.84c0,.17-.02.19-.19.19-.12,0-.84-.05-2.74-.05h-2.09v1.46h2.02c2.21,0,2.98-.05,3.12-.05.17,0,.19.02.19.19,0,.12-.05.6-.05,2.02v2.38c0,1.42.05,1.9.05,2.04,0,.17-.02.19-.19.19-.14,0-.91-.05-3.12-.05h-2.02v1.51h3.36c2.42,0,3.24-.05,3.36-.05.17,0,.19.02.19.19v.89ZM355.86,107.98h-3.72v1.7h3.72v-1.7ZM355.86,110.71h-3.72v1.87h3.72v-1.87ZM361.14,107.98h-3.98v1.7h3.98v-1.7ZM361.14,110.71h-3.98v1.87h3.98v-1.87Z"/>
      <path class="cls-1" d="M383.29,103.66c.82,0,1.08-.02,1.37-.19.14-.1.31-.05.48.07.34.26.7.62.98.98.14.19.1.36-.12.55-.24.19-.46.48-.7.89-1.06,1.8-2.28,3.58-3.55,5.16,2.47,1.8,4.7,3.72,6.89,6.02.22.19.22.26.02.5-.26.31-.58.6-.86.86-.17.14-.26.14-.43-.05-2.02-2.3-4.3-4.34-6.62-6.1-2.74,2.83-5.62,5.06-8.57,6.7-.26.14-.41.17-.6-.05-.31-.36-.74-.6-1.25-.86,3.62-1.8,6.46-4.01,8.83-6.5,1.56-1.66,3.14-3.79,4.56-6.43h-7.22c-1.34,0-2.38.07-3.46.14-.22,0-.24-.07-.29-.26-.07-.34-.14-1.06-.14-1.54,1.18.1,2.23.1,3.72.1h6.96Z"/>
      <path class="cls-1" d="M399.87,111.48c.38.24.31.38.02.67-.17.17-.36.38-.65.94-.58,1.1-1.49,2.57-2.47,3.7-.22.24-.36.31-.65.14-.38-.24-.82-.43-1.25-.53,1.42-1.42,2.23-2.71,2.83-3.94.26-.53.46-1.1.55-1.75.6.22,1.13.46,1.61.77ZM404.05,104.9c0-1.34-.07-2.52-.26-3.31.74.05,1.56.14,1.99.26.34.1.38.36.19.67-.19.31-.24,1.08-.24,2.5v1.46h3.12c1.73,0,3.5-.05,4.92-.12.22-.02.29.07.29.29,0,.34,0,.74-.02,1.08,0,.24-.05.34-.29.34-1.56-.07-3.43-.1-4.97-.1h-3.05v4.18c0,2.04.07,3.62.07,5.16,0,1.03-.36,1.8-1.2,2.21-.86.43-1.99.65-2.76.7-.19.02-.34-.07-.41-.29-.22-.53-.53-.96-1.01-1.34,1.22,0,2.3-.17,2.98-.43.5-.19.65-.5.65-1.39v-8.79h-3.84c-1.34,0-2.83.07-4.1.17-.22.02-.29-.1-.31-.34-.02-.29-.1-1.03-.1-1.49,1.7.14,3.14.17,4.46.17h3.89v-1.58ZM410.43,110.98c.17-.12.29-.07.46.07,1.27,1.13,2.38,2.64,3.36,4.34.14.26.1.36-.1.55-.24.22-.6.5-.91.7-.19.12-.31.12-.41-.1-.82-1.66-2.02-3.41-3.46-4.8.38-.29.72-.53,1.06-.77ZM415.09,102.67c0,1.34-1.08,2.42-2.42,2.42s-2.42-1.08-2.42-2.42,1.08-2.42,2.42-2.42,2.42,1.08,2.42,2.42ZM411.15,102.67c0,.84.67,1.51,1.51,1.51s1.51-.67,1.51-1.51-.67-1.51-1.51-1.51-1.51.67-1.51,1.51Z"/>
      <path class="cls-1" d="M422.65,107.9c.19-.1.29-.05.43.12.79,1.01,1.44,2.06,1.97,3.36.1.24.1.29-.12.43-.31.19-.6.31-.91.43-.22.1-.31,0-.38-.19-.5-1.2-1.22-2.54-2.06-3.58.43-.24.79-.43,1.08-.58ZM435.47,107.93c.22.17.24.38.02.58-.24.22-.41.53-.7,1.15-1.03,2.35-2.18,4.49-3.53,6.19-1.49,1.92-2.88,3.24-4.85,4.56-.17.12-.38.17-.53.02-.36-.29-.74-.48-1.25-.6,2.5-1.63,3.89-2.88,5.38-4.78,1.3-1.66,2.5-3.84,3.26-5.91.22-.62.31-1.15.41-1.97.6.17,1.39.46,1.78.74ZM427.36,106.8c.17-.07.29-.05.41.14.67.91,1.34,2.14,1.8,3.34.07.19.02.29-.17.38-.26.14-.6.31-.96.46-.17.07-.24,0-.34-.22-.5-1.32-1.03-2.45-1.85-3.55.5-.26.82-.43,1.1-.55Z"/>
      <path class="cls-1" d="M448.05,107.93c2.76.79,5.42,1.92,7.83,3.34.19.1.24.22.17.38-.17.43-.38.86-.58,1.18-.14.19-.24.24-.46.1-2.23-1.46-4.8-2.59-6.98-3.22v5.57c0,1.46.05,3.34.07,4.9.02.24-.05.31-.31.31-.36.02-.84.02-1.22,0-.26,0-.34-.07-.34-.34.07-1.54.1-3.41.1-4.87v-10.68c0-1.8-.1-3.02-.26-3.84.84.07,1.56.17,1.99.31.38.1.29.36.17.72-.14.41-.17,1.13-.17,2.66v3.48Z"/>
    </g>
  </g>
</svg>