<?xml version="1.0" encoding="UTF-8"?>
<svg id="_レイヤー_2" data-name="レイヤー 2" xmlns="http://www.w3.org/2000/svg" viewBox="0 0 428.36 58.36">
  <defs>
    <style>
      .cls-1 {
        fill: #9e0a31;
      }
    </style>
  </defs>
  <g id="_レイヤー_1-2" data-name="レイヤー 1">
    <g>
      <path class="cls-1" d="M0,3.62h31.97v4.52H4.98v19h25.11v4.52H4.98v25.33H0V3.62Z"/>
      <path class="cls-1" d="M36.19,39.58c0-2.66.45-5.11,1.36-7.35.9-2.24,2.16-4.17,3.77-5.81,1.61-1.63,3.54-2.9,5.81-3.81,2.26-.91,4.72-1.36,7.39-1.36s5.11.45,7.35,1.36c2.24.9,4.17,2.17,5.81,3.81,1.63,1.63,2.9,3.57,3.81,5.81.9,2.24,1.36,4.69,1.36,7.35s-.45,5.12-1.36,7.35c-.9,2.24-2.17,4.17-3.81,5.81s-3.57,2.9-5.81,3.81c-2.24.9-4.69,1.36-7.35,1.36s-5.13-.45-7.39-1.36c-2.26-.91-4.2-2.17-5.81-3.81-1.61-1.63-2.87-3.57-3.77-5.81-.9-2.24-1.36-4.69-1.36-7.35ZM40.71,39.58c0,1.96.31,3.81.94,5.54.63,1.73,1.55,3.24,2.75,4.52,1.21,1.28,2.66,2.3,4.37,3.05,1.71.75,3.62,1.13,5.73,1.13s4.02-.38,5.73-1.13c1.71-.75,3.17-1.77,4.37-3.05,1.21-1.28,2.12-2.79,2.75-4.52.63-1.73.94-3.58.94-5.54s-.31-3.81-.94-5.54c-.63-1.73-1.55-3.24-2.75-4.52-1.21-1.28-2.67-2.3-4.37-3.05-1.71-.75-3.62-1.13-5.73-1.13s-4.02.38-5.73,1.13c-1.71.75-3.17,1.77-4.37,3.05-1.21,1.28-2.12,2.79-2.75,4.52-.63,1.73-.94,3.58-.94,5.54Z"/>
      <path class="cls-1" d="M79.39,39.58c0-2.66.45-5.11,1.36-7.35.9-2.24,2.16-4.17,3.77-5.81,1.61-1.63,3.54-2.9,5.81-3.81,2.26-.91,4.72-1.36,7.39-1.36s5.11.45,7.35,1.36c2.24.9,4.17,2.17,5.81,3.81,1.63,1.63,2.9,3.57,3.81,5.81.9,2.24,1.36,4.69,1.36,7.35s-.45,5.12-1.36,7.35c-.9,2.24-2.17,4.17-3.81,5.81s-3.57,2.9-5.81,3.81c-2.24.9-4.69,1.36-7.35,1.36s-5.13-.45-7.39-1.36c-2.26-.91-4.2-2.17-5.81-3.81-1.61-1.63-2.87-3.57-3.77-5.81-.9-2.24-1.36-4.69-1.36-7.35ZM83.92,39.58c0,1.96.31,3.81.94,5.54.63,1.73,1.55,3.24,2.75,4.52,1.21,1.28,2.66,2.3,4.37,3.05,1.71.75,3.62,1.13,5.73,1.13s4.02-.38,5.73-1.13c1.71-.75,3.17-1.77,4.37-3.05,1.21-1.28,2.12-2.79,2.75-4.52.63-1.73.94-3.58.94-5.54s-.31-3.81-.94-5.54c-.63-1.73-1.55-3.24-2.75-4.52-1.21-1.28-2.67-2.3-4.37-3.05-1.71-.75-3.62-1.13-5.73-1.13s-4.02.38-5.73,1.13c-1.71.75-3.17,1.77-4.37,3.05-1.21,1.28-2.12,2.79-2.75,4.52-.63,1.73-.94,3.58-.94,5.54Z"/>
      <path class="cls-1" d="M155.01,50.89h-.15c-.7,1.21-1.58,2.25-2.64,3.13-1.06.88-2.2,1.61-3.43,2.19-1.23.58-2.53,1-3.88,1.28-1.36.28-2.69.41-4,.41-2.67,0-5.13-.45-7.39-1.36-2.26-.91-4.2-2.17-5.81-3.81-1.61-1.63-2.87-3.57-3.77-5.81-.9-2.24-1.36-4.69-1.36-7.35s.45-5.11,1.36-7.35c.9-2.24,2.16-4.17,3.77-5.81,1.61-1.63,3.54-2.9,5.81-3.81,2.26-.91,4.72-1.36,7.39-1.36,1.31,0,2.64.14,4,.41,1.36.28,2.65.71,3.88,1.28,1.23.58,2.38,1.31,3.43,2.19,1.06.88,1.93,1.92,2.64,3.13h.15V0h4.52v57h-4.52v-6.11ZM155.46,39.58c0-1.96-.38-3.81-1.13-5.54s-1.78-3.24-3.09-4.52c-1.31-1.28-2.84-2.3-4.6-3.05-1.76-.75-3.67-1.13-5.73-1.13s-4.02.38-5.73,1.13c-1.71.75-3.17,1.77-4.37,3.05-1.21,1.28-2.12,2.79-2.75,4.52-.63,1.73-.94,3.58-.94,5.54s.31,3.81.94,5.54c.63,1.73,1.55,3.24,2.75,4.52,1.21,1.28,2.66,2.3,4.37,3.05,1.71.75,3.62,1.13,5.73,1.13s3.97-.38,5.73-1.13c1.76-.75,3.29-1.77,4.6-3.05,1.31-1.28,2.34-2.79,3.09-4.52.75-1.73,1.13-3.58,1.13-5.54Z"/>
      <path class="cls-1" d="M220.91,41.47l7.69-13.87h5.13l-9.65,17.04,12.14,12.74h-6.71l-7.99-8.59c-2.16,2.92-4.54,5.24-7.12,6.97-2.59,1.73-5.74,2.6-9.46,2.6-2.26,0-4.39-.37-6.37-1.09-1.99-.73-3.71-1.77-5.16-3.13-1.46-1.36-2.61-2.99-3.47-4.9-.85-1.91-1.28-4.05-1.28-6.41,0-2.06.35-3.87,1.06-5.43.7-1.56,1.62-2.94,2.75-4.15,1.13-1.21,2.42-2.3,3.88-3.28,1.46-.98,2.97-1.95,4.52-2.9-.75-.91-1.52-1.85-2.3-2.83-.78-.98-1.47-2-2.07-3.05s-1.11-2.15-1.51-3.28c-.4-1.13-.6-2.3-.6-3.51,0-1.91.36-3.62,1.09-5.13.73-1.51,1.71-2.78,2.94-3.81,1.23-1.03,2.66-1.82,4.3-2.38,1.63-.55,3.33-.83,5.09-.83,1.56,0,3.07.28,4.52.83,1.46.55,2.75,1.32,3.88,2.3,1.13.98,2.02,2.16,2.68,3.54.65,1.38.98,2.93.98,4.64,0,1.91-.34,3.57-1.02,4.98-.68,1.41-1.58,2.67-2.71,3.77-1.13,1.11-2.4,2.09-3.81,2.94-1.41.85-2.87,1.68-4.37,2.49l12.97,13.72ZM203.72,30.23c-1.21.71-2.4,1.46-3.58,2.26-1.18.8-2.26,1.7-3.24,2.68s-1.77,2.09-2.38,3.32c-.6,1.23-.9,2.63-.9,4.18,0,1.71.31,3.24.94,4.6.63,1.36,1.48,2.53,2.56,3.51,1.08.98,2.36,1.73,3.85,2.26,1.48.53,3.05.79,4.71.79,1.41,0,2.73-.23,3.96-.68,1.23-.45,2.38-1.06,3.43-1.81s2.04-1.62,2.94-2.6,1.73-2.02,2.49-3.13l-14.78-15.38ZM207.41,6.79c-2.26,0-4.17.69-5.73,2.07-1.56,1.38-2.34,3.2-2.34,5.47,0,.9.19,1.83.57,2.79.38.96.85,1.88,1.43,2.79.58.91,1.21,1.76,1.89,2.56.68.8,1.29,1.53,1.85,2.19,1.06-.55,2.16-1.16,3.32-1.81,1.16-.65,2.21-1.41,3.17-2.26.95-.85,1.75-1.82,2.38-2.9.63-1.08.94-2.32.94-3.73,0-2.11-.7-3.83-2.11-5.17-1.41-1.33-3.19-2-5.35-2Z"/>
      <path class="cls-1" d="M263.5,3.62h16.51c4.62,0,8.54.57,11.76,1.7,3.22,1.13,5.89,2.58,8.03,4.33,2.14,1.76,3.82,3.71,5.05,5.84,1.23,2.14,2.14,4.18,2.71,6.14.58,1.96.94,3.73,1.09,5.32.15,1.58.23,2.7.23,3.35s-.08,1.77-.23,3.36c-.15,1.58-.52,3.36-1.09,5.32-.58,1.96-1.48,4.01-2.71,6.14-1.23,2.14-2.92,4.08-5.05,5.84-2.14,1.76-4.81,3.2-8.03,4.33-3.22,1.13-7.14,1.7-11.76,1.7h-16.51V3.62ZM268.48,52.48h10.25c3.52,0,6.81-.44,9.88-1.32,3.06-.88,5.73-2.22,7.99-4.03s4.05-4.11,5.35-6.9c1.31-2.79,1.96-6.09,1.96-9.92s-.65-7.12-1.96-9.91c-1.31-2.79-3.09-5.09-5.35-6.9s-4.93-3.15-7.99-4.03c-3.07-.88-6.36-1.32-9.88-1.32h-10.25v44.33Z"/>
      <path class="cls-1" d="M317.59,31.97c0-.65-.03-1.44-.08-2.38-.05-.93-.09-1.87-.11-2.83-.03-.95-.06-1.85-.11-2.68-.05-.83-.08-1.47-.08-1.92h4.52c.05,1.31.09,2.56.11,3.77.02,1.21.09,1.99.19,2.34,1.16-2.06,2.64-3.74,4.45-5.05,1.81-1.31,4.02-1.96,6.63-1.96.45,0,.89.04,1.32.11.43.08.87.16,1.32.26l-.53,4.45c-.6-.2-1.18-.3-1.73-.3-1.96,0-3.66.31-5.09.94-1.43.63-2.61,1.5-3.54,2.6-.93,1.11-1.62,2.4-2.07,3.88-.45,1.48-.68,3.08-.68,4.79v19h-4.52v-25.03Z"/>
      <path class="cls-1" d="M340.99,8.37c0-.95.33-1.76.98-2.41.65-.65,1.46-.98,2.41-.98s1.76.33,2.41.98c.65.65.98,1.46.98,2.41s-.33,1.76-.98,2.41c-.65.65-1.46.98-2.41.98s-1.76-.33-2.41-.98c-.65-.65-.98-1.46-.98-2.41ZM342.12,22.17h4.52v34.83h-4.52V22.17Z"/>
      <path class="cls-1" d="M357.63,31.97c0-.65-.03-1.44-.08-2.38-.05-.93-.09-1.87-.11-2.83-.03-.95-.06-1.85-.11-2.68-.05-.83-.08-1.47-.08-1.92h4.52c.05,1.31.09,2.56.11,3.77.02,1.21.09,1.99.19,2.34h.23c.9-1.91,2.41-3.56,4.52-4.94,2.11-1.38,4.57-2.07,7.39-2.07s4.93.43,6.63,1.28c1.71.86,3.05,1.97,4.03,3.36.98,1.38,1.66,2.98,2.04,4.79.38,1.81.57,3.67.57,5.58v20.73h-4.52v-20.51c0-1.41-.13-2.78-.38-4.11-.25-1.33-.69-2.53-1.32-3.58-.63-1.06-1.51-1.9-2.64-2.53-1.13-.63-2.6-.94-4.41-.94-1.66,0-3.23.29-4.71.87-1.48.58-2.76,1.46-3.85,2.64-1.08,1.18-1.94,2.67-2.56,4.45-.63,1.79-.94,3.88-.94,6.3v17.42h-4.52v-25.03Z"/>
      <path class="cls-1" d="M397.9,0h4.52v38l17.19-15.76h6.63l-17.94,15.91,20.06,18.85h-6.86l-19.08-18.4v18.4h-4.52V0Z"/>
    </g>
  </g>
</svg>