<?xml version="1.0" encoding="UTF-8"?>
<svg id="_レイヤー_2" data-name="レイヤー 2" xmlns="http://www.w3.org/2000/svg" viewBox="0 0 146.26 111.38">
  <defs>
    <style>
      .cls-1 {
        fill: #fff;
      }
    </style>
  </defs>
  <g id="_レイヤー_1-2" data-name="レイヤー 1">
    <g>
      <path class="cls-1" d="M7.6.95H0v-.95h28.79c15.11,0,22.04,4.85,22.04,15.2,0,7.6-3.99,13.11-17.48,14.25,14.63.76,19.86,6.94,19.86,15.77,0,10.83-8.55,16.53-23.94,16.53H0v-.95h7.6V.95ZM28.79,29.17c7.22,0,10.36-3.9,10.36-13.11v-1.9c0-9.31-3.14-13.21-10.36-13.21h-10.73v28.22h10.73ZM29.26,60.8c8.93,0,12.26-4.75,12.26-14.25v-2.66c0-8.83-3.23-13.78-12.26-13.78h-11.21v30.69h11.21Z"/>
      <path class="cls-1" d="M90.06,55.96v-.29c-1.9,5.13-6.37,7.22-12.35,7.22-11.78,0-17.29-5.89-17.29-14.06s5.51-13.97,17.29-13.97c5.98,0,10.45,2,12.35,7.13v-10.74c0-10.26-4.27-13.49-11.4-13.49-8.08,0-11.69,3.23-13.11,7.7h-1.04c1.42-5.04,5.6-9.12,15.87-9.12,12.92,0,19.76,4.18,19.76,16.05v24.42c0,2.76.95,3.99,3.13,3.99s4.47-1.23,4.47-5.32h.95c0,5.04-2.85,7.13-9.4,7.13s-9.22-2.09-9.22-6.65ZM90.06,48.83c0-9.98-5.13-12.64-10.35-12.64-5.51,0-8.74,3.42-8.74,11.02v3.23c0,7.69,3.23,11.02,8.74,11.02,5.22,0,10.35-2.56,10.35-12.63Z"/>
      <path class="cls-1" d="M117.29,60.8v-29.17c0-9.79,5.99-15.39,16.72-15.39,7.03,0,10.64,2.95,12.25,8.55h-.95c-1.52-5.04-4.84-7.32-9.69-7.32-5.42,0-8.27,3.8-8.27,11.69v31.63h6.65v.95h-22.33v-.95h5.6Z"/>
    </g>
    <g>
      <path class="cls-1" d="M27.39,103.89c-.07.12-.12.36-.17.77-.17,1.58-.46,3.1-1.01,4.63-.1.26-.14.38-.24.38-.07,0-.17-.07-.34-.19-.19-.17-.6-.36-.82-.41.7-1.61.94-2.86,1.13-4.68.05-.48.05-.74.02-1.22.53.07.91.14,1.2.22.26.07.31.12.31.22,0,.12-.02.17-.1.29ZM31.83,97.74c.24-.1.26-.1.36.07.74,1.34,1.3,2.66,1.78,4.03.05.19.05.26-.26.36l-.5.14c-.34.07-.38.05-.43-.14l-.41-1.18-2.18.24v6.43c0,2.62.05,3.38.05,3.5,0,.17-.02.17-.19.17h-1.08c-.17,0-.19,0-.19-.17,0-.14.05-.89.05-3.5v-6.29c-.79.07-1.56.12-2.3.17-.53.05-.79.1-.94.19-.07.05-.17.1-.26.1-.12,0-.19-.12-.24-.31-.1-.36-.17-.84-.22-1.32.53.05,1.06.07,1.51.07h.22c.65-.84,1.22-1.66,1.78-2.47-1.08-1.37-2.14-2.54-3.43-3.7-.14-.14-.12-.17.07-.43l.38-.5c.17-.22.22-.22.36-.1l.94.91c.62-.94,1.15-1.85,1.66-2.83.38-.77.5-1.15.6-1.51.43.14.89.36,1.27.58.17.1.26.19.26.29,0,.12-.1.19-.22.26-.17.12-.26.24-.41.5-.84,1.42-1.46,2.42-2.3,3.6.53.55,1.06,1.13,1.61,1.75.58-.91,1.08-1.78,1.56-2.62.58-1.01.77-1.46.94-1.99.48.19.91.38,1.27.6.19.12.26.19.26.29,0,.14-.12.22-.26.34-.24.17-.38.43-.77,1.06-1.32,2.14-2.69,4.15-4.03,5.93,1.22-.07,2.47-.14,3.86-.29-.24-.58-.53-1.15-.84-1.7-.07-.14-.07-.22.24-.34l.46-.19ZM32.05,103.12c.26-.07.31-.05.38.12.46,1.22.91,3.17,1.15,4.58.02.22,0,.24-.29.34l-.5.17c-.34.1-.38.07-.41-.14-.19-1.51-.62-3.36-1.06-4.63-.05-.19-.02-.24.26-.31l.46-.12ZM36.13,107.54c0,1.03.1,1.42,1.06,1.68.74.19,1.75.22,3.05.22,1.7,0,3.31-.02,4.1-.55.74-.48.74-1.51.84-3.48.29.19.58.38.94.5.46.14.48.17.43.65-.12,1.85-.36,2.86-1.18,3.46-.96.7-2.69.77-4.97.77-1.94,0-3.19-.05-4.18-.38-.98-.34-1.44-1.06-1.44-2.62v-9.07c0-1.37-.05-1.82-.05-1.94l-.5.46c-.17.14-.29.24-.36.24-.1,0-.19-.1-.34-.26s-.38-.34-.7-.48c2.02-1.68,3.48-3.72,4.34-5.47.29-.58.46-1.06.53-1.56.62.17,1.08.31,1.39.43.14.05.24.14.24.24,0,.12-.1.22-.24.34-.17.14-.31.38-.58.91l-.24.43h3.29c.24,0,.38-.05.5-.1.07-.02.14-.07.22-.07.12,0,.26.05.67.41.34.31.41.43.41.53,0,.12-.1.24-.26.36-.14.12-.26.29-.41.53-.55.98-1.3,2.09-1.92,2.9h1.49c2.14,0,2.86-.05,3-.05.17,0,.19.02.19.19,0,.12-.05.58-.05,1.97v2.33c0,1.37.05,1.85.05,1.97,0,.17-.02.19-.19.19-.14,0-.86-.05-3-.05h-6.14v4.39ZM37.57,93.21c-.72,1.13-1.63,2.33-2.64,3.34.14,0,.89.05,2.98.05h1.37c.84-1.18,1.61-2.28,2.18-3.38h-3.89ZM39.42,97.79h-3.29v4.15h3.29v-4.15ZM44.1,97.79h-3.38v4.15h3.38v-4.15Z"/>
      <path class="cls-1" d="M72.19,99.74c0,.17-.02.19-.17.19s-.86-.05-3.1-.05h-14.69c-2.23,0-2.98.05-3.1.05-.17,0-.19-.02-.19-.19v-.89c0-.19.02-.22.19-.22.12,0,.86.05,3.1.05h6.41v-1.7h-3.02c-2.4,0-3.24.05-3.38.05-.17,0-.19-.02-.19-.19,0-.14.05-.6.05-1.92v-2.09c0-1.34-.05-1.8-.05-1.92,0-.19.02-.22.19-.22.14,0,.98.05,3.38.05h7.82c2.4,0,3.26-.05,3.38-.05.19,0,.22.02.22.22,0,.12-.05.58-.05,1.92v2.09c0,1.32.05,1.8.05,1.92,0,.17-.02.19-.22.19-.12,0-.98-.05-3.38-.05h-3.38v1.7h6.86c2.23,0,2.95-.05,3.1-.05s.17.02.17.22v.89ZM57.65,107.61c-.19.1-.43.34-.6.48-1.1,1.01-2.45,1.9-4.06,2.62-.19.1-.29.14-.36.14-.12,0-.19-.1-.34-.34-.22-.34-.41-.55-.65-.74,1.9-.74,3.17-1.51,4.06-2.28.36-.31.67-.65.89-1.03.5.22.84.38,1.15.58.14.1.22.14.22.26s-.14.22-.31.31ZM68.33,104.06c0,1.03.05,1.32.05,1.46,0,.17-.02.19-.22.19-.12,0-.94-.05-3.29-.05h-2.62v1.63c0,.74.05,1.27.05,1.9,0,.89-.12,1.25-.6,1.63-.41.34-.98.41-2.81.41q-.48,0-.62-.48c-.1-.36-.24-.7-.43-.98.82.07,1.42.1,2.09.1s.91-.22.91-.91v-3.29h-2.66c-2.35,0-3.14.05-3.29.05-.17,0-.19-.02-.19-.19,0-.14.05-.43.05-1.46v-1.1c0-1.03-.05-1.32-.05-1.46,0-.17.02-.19.19-.19.14,0,.94.05,3.29.05h6.7c2.35,0,3.17-.05,3.29-.05.19,0,.22.02.22.19,0,.14-.05.43-.05,1.46v1.1ZM67.61,91.84h-12.12v1.46h12.12v-1.46ZM67.61,94.36h-12.12v1.56h12.12v-1.56ZM66.93,102.47h-10.8v2.11h10.8v-2.11ZM65.88,106.62c.19-.14.24-.14.38-.02,1.49,1.3,3.05,2.23,5.14,3-.26.22-.48.48-.67.82-.14.24-.22.34-.34.34-.07,0-.19-.05-.36-.12-1.82-.86-3.17-1.7-4.82-3.24-.14-.12-.12-.19.12-.36l.55-.41Z"/>
      <path class="cls-1" d="M81.04,98.3c.5-1.22.74-1.92.77-2.71.79.26,1.49.53,1.9.79.34.19.26.46.05.67-.26.26-.5.6-.84,1.37-1.15,2.62-2.78,5.3-5.42,7.9-.24.24-.53.29-.74.1-.26-.24-.74-.48-1.32-.62,2.83-2.4,4.71-5.26,5.62-7.49ZM88.86,95.82c.22-.12.31-.14.5.05,2.57,2.54,4.58,5.69,6,8.62.12.22.12.36-.1.5-.26.19-.7.53-1.13.74-.22.12-.29.07-.38-.14-1.46-3.34-3.38-6.38-5.95-9.05.41-.29.82-.58,1.06-.72ZM91.55,92.82c.1-.07.17-.07.26,0,.96.67,2.02,1.85,2.71,2.9.07.1.05.19-.05.26l-.7.58c-.12.1-.24.07-.31-.05-.7-1.18-1.7-2.3-2.78-3.07l.86-.62ZM93.57,91.24c.1-.07.17-.1.26-.02.96.74,2.04,1.8,2.74,2.81.07.12.05.19-.07.29l-.65.58c-.1.1-.19.1-.29-.05-.6-.98-1.63-2.16-2.76-3l.77-.6Z"/>
      <path class="cls-1" d="M105,101.61c-2.09,0-3.1.24-3.24.24-.22,0-.34-.1-.41-.34-.1-.41-.19-1.18-.24-1.82,1.46.19,3.31.22,5.3.22h7.37c1.66,0,3.43-.02,5.26-.07.29-.02.36.02.36.29.02.36.02.86,0,1.25,0,.26-.07.31-.36.29-1.8-.05-3.58-.05-5.18-.05h-8.86Z"/>
    </g>
  </g>
</svg>