<?xml version="1.0" encoding="UTF-8"?>
<svg id="_レイヤー_2" xmlns="http://www.w3.org/2000/svg" version="1.1" viewBox="0 0 285.1 62.2">
  <!-- Generator: Adobe Illustrator 29.0.1, SVG Export Plug-In . SVG Version: 2.1.0 Build 192)  -->
  <defs>
    <style>
      .st0 {
        fill: #9e0a31;
      }
    </style>
  </defs>
  <g>
    <path class="st0" d="M1.7,2.4h2.6v12.5h15.8V2.4h2.6v28.3h-2.6v-13.4H4.3v13.4H1.7V2.4Z"/>
    <path class="st0" d="M28.3,21.5c0-1.4.2-2.7.7-3.9s1.1-2.2,2-3.1c.9-.9,1.9-1.5,3.1-2,1.2-.5,2.5-.7,3.9-.7s2.7.2,3.9.7c1.2.5,2.2,1.2,3.1,2,.9.9,1.5,1.9,2,3.1s.7,2.5.7,3.9-.2,2.7-.7,3.9-1.2,2.2-2,3.1c-.9.9-1.9,1.5-3.1,2-1.2.5-2.5.7-3.9.7s-2.7-.2-3.9-.7c-1.2-.5-2.2-1.2-3.1-2-.9-.9-1.5-1.9-2-3.1s-.7-2.5-.7-3.9ZM30.7,21.5c0,1,.2,2,.5,2.9.3.9.8,1.7,1.5,2.4.6.7,1.4,1.2,2.3,1.6.9.4,1.9.6,3,.6s2.1-.2,3-.6c.9-.4,1.7-.9,2.3-1.6.6-.7,1.1-1.5,1.5-2.4.3-.9.5-1.9.5-2.9s-.2-2-.5-2.9c-.3-.9-.8-1.7-1.5-2.4-.6-.7-1.4-1.2-2.3-1.6-.9-.4-1.9-.6-3-.6s-2.1.2-3,.6c-.9.4-1.7.9-2.3,1.6s-1.1,1.5-1.5,2.4c-.3.9-.5,1.9-.5,2.9Z"/>
    <path class="st0" d="M55.2,34c0,1,0,1.8-.2,2.6s-.4,1.4-.8,2c-.4.6-.9,1-1.6,1.3-.7.3-1.6.5-2.6.5s-1.3-.1-1.9-.4l.4-2.1c.6.2,1.1.3,1.5.3s1.2-.1,1.5-.3c.4-.2.7-.5.9-.9.2-.4.3-.8.4-1.3,0-.5.1-1,.1-1.5V12.3h2.4v21.7ZM52.2,4.9c0-.5.2-.9.5-1.3.3-.3.8-.5,1.3-.5s.9.2,1.3.5c.3.3.5.8.5,1.3s-.2.9-.5,1.3c-.3.3-.8.5-1.3.5s-.9-.2-1.3-.5c-.3-.3-.5-.8-.5-1.3Z"/>
    <path class="st0" d="M61,4.9c0-.5.2-.9.5-1.3.3-.3.8-.5,1.3-.5s.9.2,1.3.5c.3.3.5.8.5,1.3s-.2.9-.5,1.3c-.3.3-.8.5-1.3.5s-.9-.2-1.3-.5c-.3-.3-.5-.8-.5-1.3ZM61.6,12.3h2.4v18.5h-2.4V12.3Z"/>
    <path class="st0" d="M85.6,28c-.9,1.1-1.9,1.9-3.1,2.4-1.1.5-2.4.8-3.7.8s-2.7-.2-3.9-.7c-1.2-.5-2.2-1.2-3.1-2-.9-.9-1.5-1.9-2-3.1s-.7-2.5-.7-3.9.2-2.7.7-3.9,1.1-2.2,2-3.1c.9-.9,1.9-1.5,3.1-2,1.2-.5,2.5-.7,3.9-.7s2.6.3,3.8.8c1.2.6,2.2,1.3,3.1,2.4l-1.9,1.4c-.7-.8-1.5-1.4-2.3-1.8-.8-.4-1.7-.7-2.7-.7s-2.1.2-3,.6c-.9.4-1.7.9-2.3,1.6s-1.1,1.5-1.5,2.4c-.3.9-.5,1.9-.5,2.9s.2,2,.5,2.9c.3.9.8,1.7,1.5,2.4.6.7,1.4,1.2,2.3,1.6.9.4,1.9.6,3,.6s1.9-.2,2.8-.7c.8-.5,1.6-1.1,2.2-1.9l1.8,1.5Z"/>
    <path class="st0" d="M89.3.5h2.4v15h0c.5-1,1.3-1.9,2.4-2.6,1.1-.7,2.4-1.1,3.9-1.1s2.6.2,3.5.7c.9.5,1.6,1,2.1,1.8s.9,1.6,1.1,2.5c.2,1,.3,1.9.3,3v11h-2.4v-10.9c0-.7,0-1.5-.2-2.2-.1-.7-.4-1.3-.7-1.9-.3-.6-.8-1-1.4-1.3-.6-.3-1.4-.5-2.3-.5s-1.7.2-2.5.5c-.8.3-1.5.8-2,1.4-.6.6-1,1.4-1.4,2.4-.3.9-.5,2.1-.5,3.3v9.2h-2.4V.5Z"/>
    <path class="st0" d="M125.2,23c0,.9,0,1.7,0,2.4,0,.7,0,1.4,0,2,0,.6,0,1.2.1,1.7,0,.5,0,1.1.2,1.6h-2.2c-.2-.9-.2-1.9-.2-3h0c-.7,1.2-1.6,2.1-2.6,2.6-1,.6-2.3.8-3.9.8s-1.6-.1-2.4-.3c-.8-.2-1.5-.5-2.1-1-.6-.4-1.1-1-1.5-1.7-.4-.7-.6-1.5-.6-2.5,0-1.4.4-2.5,1.1-3.4.7-.8,1.6-1.4,2.7-1.9,1.1-.4,2.2-.7,3.4-.8,1.2-.1,2.2-.2,3.1-.2h2.8v-1.1c0-1.6-.5-2.7-1.5-3.4-1-.7-2.2-1-3.7-1-2.1,0-4,.7-5.6,2.1l-1.4-1.6c.9-.9,2-1.5,3.3-1.9,1.3-.4,2.6-.7,3.8-.7,2.2,0,4,.5,5.4,1.6,1.3,1.1,2,2.8,2,5.1v4.5ZM120.4,21.5c-1,0-2,0-2.9.2-.9.1-1.8.4-2.6.7-.8.3-1.4.7-1.8,1.3-.5.5-.7,1.2-.7,2s.1,1.1.4,1.5c.3.4.6.8,1,1.1s.8.5,1.3.6c.5.1,1,.2,1.5.2,1.3,0,2.3-.2,3.2-.6.8-.4,1.5-.9,2-1.5.5-.6.8-1.3,1-2,.2-.8.3-1.5.3-2.3v-1.2h-2.6Z"/>
    <path class="st0" d="M147.1,22.5l4.1-7.4h2.7l-5.1,9,6.4,6.8h-3.6l-4.2-4.6c-1.1,1.5-2.4,2.8-3.8,3.7-1.4.9-3,1.4-5,1.4s-2.3-.2-3.4-.6c-1.1-.4-2-.9-2.7-1.7-.8-.7-1.4-1.6-1.8-2.6-.5-1-.7-2.1-.7-3.4s.2-2.1.6-2.9c.4-.8.9-1.6,1.5-2.2.6-.6,1.3-1.2,2.1-1.7.8-.5,1.6-1,2.4-1.5-.4-.5-.8-1-1.2-1.5-.4-.5-.8-1.1-1.1-1.6s-.6-1.1-.8-1.7c-.2-.6-.3-1.2-.3-1.9,0-1,.2-1.9.6-2.7.4-.8.9-1.5,1.6-2,.7-.5,1.4-1,2.3-1.3.9-.3,1.8-.4,2.7-.4s1.6.1,2.4.4c.8.3,1.5.7,2.1,1.2.6.5,1.1,1.1,1.4,1.9.3.7.5,1.6.5,2.5s-.2,1.9-.5,2.6c-.4.7-.8,1.4-1.4,2-.6.6-1.3,1.1-2,1.6-.7.5-1.5.9-2.3,1.3l6.9,7.3ZM138,16.5c-.6.4-1.3.8-1.9,1.2-.6.4-1.2.9-1.7,1.4-.5.5-.9,1.1-1.3,1.8-.3.7-.5,1.4-.5,2.2s.2,1.7.5,2.4c.3.7.8,1.3,1.4,1.9.6.5,1.3.9,2,1.2.8.3,1.6.4,2.5.4s1.4-.1,2.1-.4c.7-.2,1.3-.6,1.8-1s1.1-.9,1.6-1.4c.5-.5.9-1.1,1.3-1.7l-7.8-8.2ZM139.9,4.1c-1.2,0-2.2.4-3,1.1s-1.2,1.7-1.2,2.9.1,1,.3,1.5c.2.5.5,1,.8,1.5.3.5.6.9,1,1.4.4.4.7.8,1,1.2.6-.3,1.1-.6,1.8-1,.6-.3,1.2-.7,1.7-1.2.5-.5.9-1,1.3-1.5.3-.6.5-1.2.5-2,0-1.1-.4-2-1.1-2.7-.7-.7-1.7-1.1-2.8-1.1Z"/>
    <path class="st0" d="M158.9,2.4h8.8c2.5,0,4.5.3,6.2.9,1.7.6,3.1,1.4,4.3,2.3,1.1.9,2,2,2.7,3.1.7,1.1,1.1,2.2,1.4,3.3.3,1,.5,2,.6,2.8,0,.8.1,1.4.1,1.8s0,.9-.1,1.8-.3,1.8-.6,2.8c-.3,1-.8,2.1-1.4,3.3-.7,1.1-1.5,2.2-2.7,3.1-1.1.9-2.6,1.7-4.3,2.3-1.7.6-3.8.9-6.2.9h-8.8V2.4ZM161.5,28.3h5.4c1.9,0,3.6-.2,5.2-.7,1.6-.5,3-1.2,4.2-2.1,1.2-1,2.1-2.2,2.8-3.7.7-1.5,1-3.2,1-5.3s-.3-3.8-1-5.3c-.7-1.5-1.6-2.7-2.8-3.7-1.2-1-2.6-1.7-4.2-2.1-1.6-.5-3.4-.7-5.2-.7h-5.4v23.5Z"/>
    <path class="st0" d="M201.7,23c0,.9,0,1.7,0,2.4,0,.7,0,1.4,0,2,0,.6,0,1.2.1,1.7,0,.5,0,1.1.2,1.6h-2.2c-.2-.9-.2-1.9-.2-3h0c-.7,1.2-1.6,2.1-2.6,2.6-1,.6-2.3.8-3.9.8s-1.6-.1-2.4-.3c-.8-.2-1.5-.5-2.1-1-.6-.4-1.1-1-1.5-1.7-.4-.7-.6-1.5-.6-2.5,0-1.4.4-2.5,1.1-3.4.7-.8,1.6-1.4,2.7-1.9,1.1-.4,2.2-.7,3.4-.8,1.2-.1,2.2-.2,3.1-.2h2.8v-1.1c0-1.6-.5-2.7-1.5-3.4-1-.7-2.2-1-3.7-1-2.1,0-4,.7-5.6,2.1l-1.4-1.6c.9-.9,2-1.5,3.3-1.9,1.3-.4,2.6-.7,3.8-.7,2.2,0,4,.5,5.4,1.6,1.3,1.1,2,2.8,2,5.1v4.5ZM196.9,21.5c-1,0-2,0-2.9.2-.9.1-1.8.4-2.6.7-.8.3-1.4.7-1.8,1.3-.5.5-.7,1.2-.7,2s.1,1.1.4,1.5c.3.4.6.8,1,1.1s.8.5,1.3.6c.5.1,1,.2,1.5.2,1.3,0,2.3-.2,3.2-.6.8-.4,1.5-.9,2-1.5.5-.6.8-1.3,1-2,.2-.8.3-1.5.3-2.3v-1.2h-2.6Z"/>
    <path class="st0" d="M207.3,4.9c0-.5.2-.9.5-1.3.3-.3.8-.5,1.3-.5s.9.2,1.3.5c.3.3.5.8.5,1.3s-.2.9-.5,1.3c-.3.3-.8.5-1.3.5s-.9-.2-1.3-.5c-.3-.3-.5-.8-.5-1.3ZM207.9,12.3h2.4v18.5h-2.4V12.3Z"/>
    <path class="st0" d="M218,14.4h-3.8v-2.2h3.8v-6c0-1.2.2-2.2.5-3,.4-.8.8-1.4,1.3-1.9.5-.5,1.1-.8,1.8-1,.7-.2,1.3-.3,1.9-.3,1.1,0,2,.2,2.8.5l-.5,2.1c-.5-.3-1.3-.4-2.2-.4-2.2,0-3.2,1.6-3.2,4.9v5.2h4.3v2.2h-4.3v16.3h-2.4V14.4Z"/>
    <path class="st0" d="M244.1,25.5c0,.3,0,.8,0,1.3,0,.5,0,1,0,1.5,0,.5,0,1,0,1.4,0,.4,0,.8,0,1h-2.4c0-.7,0-1.4,0-2,0-.6,0-1.1-.1-1.2h-.1c-.5,1-1.3,1.9-2.4,2.6s-2.4,1.1-3.9,1.1-2.6-.2-3.5-.7-1.6-1-2.2-1.8c-.5-.7-.9-1.6-1.1-2.5-.2-1-.3-1.9-.3-3v-11h2.4v10.9c0,.7,0,1.5.2,2.2.1.7.4,1.3.7,1.9.3.6.8,1,1.4,1.3.6.3,1.4.5,2.3.5s1.7-.2,2.5-.5c.8-.3,1.5-.8,2-1.4.6-.6,1-1.4,1.4-2.4.3-.9.5-2.1.5-3.3v-9.2h2.4v13.3Z"/>
    <path class="st0" d="M250.3.5h2.4v20.2l9.1-8.4h3.5l-9.5,8.4,10.6,10h-3.6l-10.1-9.8v9.8h-2.4V.5Z"/>
    <path class="st0" d="M284.9,25.5c0,.3,0,.8,0,1.3,0,.5,0,1,0,1.5,0,.5,0,1,0,1.4,0,.4,0,.8,0,1h-2.4c0-.7,0-1.4,0-2,0-.6,0-1.1-.1-1.2h-.1c-.5,1-1.3,1.9-2.4,2.6s-2.4,1.1-3.9,1.1-2.6-.2-3.5-.7-1.6-1-2.2-1.8c-.5-.7-.9-1.6-1.1-2.5-.2-1-.3-1.9-.3-3v-11h2.4v10.9c0,.7,0,1.5.2,2.2.1.7.4,1.3.7,1.9.3.6.8,1,1.4,1.3.6.3,1.4.5,2.3.5s1.7-.2,2.5-.5c.8-.3,1.5-.8,2-1.4.6-.6,1-1.4,1.4-2.4.3-.9.5-2.1.5-3.3v-9.2h2.4v13.3Z"/>
  </g>
  <g>
    <path class="st0" d="M4.6,51.9c-.9,0-1.8.1-3,.1s-.4-.1-.4-.4c0-.3-.1-.9-.2-1.6.5,0,.9,0,1.4,0,.8,0,1.5,0,2.3-.1,0-.6,0-1.3,0-2.1s0-1-.1-1.5c.9,0,1.7.2,2.1.3.2,0,.4.2.4.3s0,.2-.1.3c-.1.2-.2.5-.3.7,0,.5,0,.9,0,1.5.8-.2,1.5-.4,2.3-.7.2,0,.3,0,.3.2,0,.5.1.9.1,1.4s0,.2-.2.3c-1.2.4-1.5.5-2.6.7,0,.9,0,1.7,0,2.6,1.7-.7,3.3-1,4.4-1,2.2,0,3.8,1.4,3.8,3.6s-1.5,3.7-3.9,3.7-1.1,0-1.5-.2c-.3,0-.4-.3-.4-.5,0-.4-.2-1-.5-1.5.9.3,1.6.3,2.3.3,1,0,1.9-.6,1.9-1.9s-.7-1.8-2-1.8-2.3.3-4.1,1.2c0,.8,0,1.4,0,2.2,0,.8.1,1.9.1,2.3s0,.5-.3.6c-.4.1-1,.2-1.3.2-.2,0-.3-.1-.4-.4-.5-.7-1.4-1.5-2.6-2.3-.2.1-.4.3-.6.4,0,0-.2.1-.3.1-.1,0-.3-.1-.4-.3-.2-.3-.6-1.1-.8-1.7.5-.1,1.1-.3,1.7-.6.8-.4,1.6-.9,2.9-1.7v-3.1ZM2.9,58.1c.5.3,1.1.6,1.7.8.1,0,.2,0,.2-.1,0-.5,0-1.3-.1-1.9-.5.3-1.1.8-1.8,1.2ZM11.5,48.7c.1-.2.2-.3.3-.2,1.7.5,2.9,1.2,3.8,2.2,0,0,.1.1.1.2s0,.1,0,.2c-.2.4-.7.9-1,1.3,0,0-.3,0-.4,0-1-1.1-2.2-1.7-3.7-2.2.2-.5.5-1,.8-1.4Z"/>
    <path class="st0" d="M25.1,50.1c.3-.3.6-.6.7-.9.6.1,1.3.2,1.8.3.2,0,.3.1.3.2,0,.1,0,.2-.3.3,1.9,1.8,4.5,3,7.6,3.6-.2.3-.6.9-.8,1.4-.1.4-.2.5-.3.5s-.2,0-.4,0c-3-.9-5.4-2.3-7.3-4.2-1.9,1.9-4.1,3.2-6.9,4.1-.2,0-.3,0-.4,0-.2,0-.2-.1-.4-.5-.2-.4-.5-.9-.7-1.2,2.9-.7,5.3-2.1,6.9-3.7ZM28.3,47c0-.6,0-1-.1-1.5.6,0,1.3,0,1.8.1.1,0,.3,0,.3.2s0,.2-.1.3c0,.1-.1.3-.1.9h1.9c1.7,0,2.3,0,2.4,0,.2,0,.2,0,.2.2v1.3c0,.2,0,.2-.2.2s-.7,0-2.4,0h-1.9c0,.7,0,1,0,1.1,0,.2,0,.2-.2.2h-1.4c-.2,0-.2,0-.2-.2s0-.4,0-1.1h-3.4c0,.7,0,1,0,1.1,0,.2,0,.2-.2.2h-1.4c-.2,0-.2,0-.2-.2s0-.4,0-1.1h-1.8c-1.7,0-2.3,0-2.4,0-.2,0-.2,0-.2-.2v-1.3c0-.2,0-.2.2-.2s.7,0,2.4,0h1.8c0-.6,0-1-.1-1.5.6,0,1.3,0,1.8.1.2,0,.3,0,.3.2s0,.1-.1.3c0,.1-.1.4-.1.9h3.4ZM22.1,58.1c.3-.4.5-.7.6-1,.5.2,1.1.5,1.5.7.1,0,.2.2.2.3s-.1.2-.3.3c-.1,0-.3.3-.4.4-.7.9-1.5,1.7-2.7,2.5-.2.1-.3.2-.4.2s-.2-.1-.4-.4c-.3-.4-.6-.7-.9-.9,1.2-.6,2.1-1.3,2.8-2.1ZM25.6,54.9c0-1,0-1.5,0-2,.7,0,1.3,0,1.9.1.2,0,.3,0,.3.2s0,.2,0,.3c0,.1-.1.5-.1,1.2v.3h2.2c1.8,0,2.4,0,2.5,0,.2,0,.2,0,.2.2v1.3c0,.2,0,.2-.2.2s-.7,0-2.5,0h-2.2v3c0,1.4,0,2.1,0,2.2,0,.2,0,.2-.2.2h-1.5c-.2,0-.2,0-.2-.2s0-.8,0-2.2v-3h-2c-1.7,0-2.4,0-2.5,0-.2,0-.2,0-.2-.2v-1.3c0-.2,0-.2.2-.2s.7,0,2.5,0h2ZM30,57.3c.2-.1.3-.1.4,0,.9,1.1,2.1,2,3.5,2.7-.3.3-.6.6-.9,1-.2.3-.3.4-.4.4s-.2,0-.4-.2c-1.2-.8-2.3-1.9-3.2-3-.1-.1-.1-.2.1-.3l.9-.6Z"/>
    <path class="st0" d="M38.4,61.2c-.2-.2-.2-.2,0-.4.8-.8,1.5-1.7,2-2.6,0-.2.1-.2.4,0l1.1.5c.2,0,.2.2.1.3-.6,1.2-1.3,2.1-2.1,3,0,0-.1.1-.2.1s-.1,0-.2-.1l-1.1-.8ZM40.8,49.2c-1.6,0-2.2,0-2.3,0-.2,0-.2,0-.2-.2v-1.2c0-.2,0-.2.2-.2s.7,0,2.3,0h2.2c-.3-.5-.6-1-.8-1.4-.1-.2-.1-.2.1-.3l1.2-.3c.2,0,.2,0,.4.1.4.5.8,1.2,1.1,1.9h2.4c.2-.4.4-.7.6-1.2.1-.3.2-.6.3-.9.6,0,1.3.2,1.8.3.1,0,.3.1.3.2s0,.2-.2.3c-.1.1-.3.3-.3.4-.1.2-.3.5-.5.8h2.4c1.6,0,2.2,0,2.3,0,.2,0,.2,0,.2.2v1.2c0,.2,0,.2-.2.2s-.6,0-2.3,0h-11ZM46.1,53.9c0,1.2,0,2,0,2.5s0,.8-.4,1.1c-.3.2-.8.3-1.8.3s-.6,0-.7-.6c0-.3-.2-.7-.3-.9.4,0,.9,0,1.1,0s.4-.1.4-.6v-4.4h-3.1v4.4c0,1.2,0,1.6,0,1.7,0,.2,0,.2-.2.2h-1.4c-.2,0-.2,0-.2-.2s0-.6,0-1.8v-3.6c0-1.2,0-1.7,0-1.9,0-.2,0-.2.2-.2s.6,0,1.9,0h2.3c1.3,0,1.8,0,1.9,0,.2,0,.2,0,.2.2s0,.8,0,2v1.6ZM42.2,54c.1-.2.2-.2.4,0,.5.3,1.1.6,1.5.9,0,0,.1.1.1.2s0,0-.1.2l-.5.7c0,0-.1.1-.2.1s0,0-.2-.1c-.4-.4-1-.7-1.5-1-.1,0-.1-.1,0-.3l.5-.6ZM42.2,51.9c.1-.2.2-.2.3,0,.5.2,1.1.5,1.6.9.1.1.1.1,0,.3l-.5.7c0,0-.1.1-.2.1s-.1,0-.2-.1c-.4-.3-1-.7-1.5-.9-.2,0-.2-.1,0-.3l.5-.6ZM44.8,58.5c.2,0,.3,0,.3.2.2.9.3,1.9.4,2.9,0,.2,0,.3-.3.3h-1.4c-.3.1-.3.1-.3,0,0-1,0-2-.3-3,0-.2,0-.2.3-.3h1.2ZM48.4,58.4c.2,0,.3,0,.4.1.4.9.7,1.9.9,2.9,0,.2,0,.3-.2.3l-1.3.3c-.3,0-.3,0-.3-.1-.2-1-.5-2.1-.8-2.9,0-.2,0-.2.2-.3l1.1-.2ZM47.7,52c0-.6,0-1.1-.1-1.8.7,0,1.2,0,1.7.1.2,0,.3,0,.3.2s0,.2,0,.4c0,.1,0,.4,0,1.2v1.6c0,1,0,1.5,0,1.6,0,.2,0,.2-.2.2h-1.4c-.2,0-.2,0-.2-.2s0-.6,0-1.6v-1.6ZM53,54.7c0,.6,0,1,0,1.5s-.2,1-.6,1.2c-.5.3-.9.4-2.4.4s-.6,0-.7-.6c0-.5-.2-.8-.4-1.1.5,0,.9,0,1.6,0s.7-.2.7-.7v-3.4c0-1,0-1.6-.1-2.3.7,0,1.2,0,1.8.1.2,0,.3.1.3.2,0,.1,0,.3-.1.4,0,.2-.1.6-.1,1.5v2.7ZM51.8,58.1c.2-.1.3-.1.4,0,.8.8,1.4,1.7,1.9,2.7,0,.2,0,.2-.2.3l-1.1.7c-.1,0-.2,0-.2,0s-.1,0-.2-.1c-.5-1.1-1.1-2-1.9-2.9-.1-.1,0-.2.1-.3l1.1-.6Z"/>
    <path class="st0" d="M62,46.8c.2,0,.3.2.3.4s0,.2-.1.3c-.1.1-.2.4-.3.8-.3,1.2-.4,2.5-.5,3.4,0,.6,0,1.3,0,2,.4-.7.8-1.4,1.3-2.3.2.5.3.9.6,1.2,0,.1.1.2.1.3,0,.1,0,.3-.2.5-.4.8-.8,1.5-1.1,2.3,0,.2,0,.3,0,.5,0,.2,0,.3-.2.3-.2,0-1,.2-1.4.2-.1,0-.2-.1-.3-.2-.3-.8-.5-2.2-.5-3.7s.2-2.7.4-4.5c0-.6.1-1.2.1-2.1.8.2,1.5.3,2,.6ZM67.9,46.5c.4,0,.4.2.4.5,0,.3,0,.6,0,.8.1,1.7.3,3.3.3,4.6,0,2.6-.4,4.8-1.4,6.2-.7,1.1-1.8,2.2-3,2.9-.1,0-.3.1-.4.1s-.2,0-.4-.2c-.4-.3-1-.7-1.5-.8,1.5-.8,2.3-1.5,3.1-2.4,1-1.4,1.5-2.9,1.5-5.7s0-3.2-.2-4.3c0-.9-.2-1.3-.4-2,.8,0,1.5,0,2.1.2Z"/>
    <path class="st0" d="M81.4,51.1c-1.8,0-2.4,0-2.5,0-.2,0-.2,0-.2-.2v-1.4c0-.2,0-.2.2-.2s.7,0,2.5,0h1.8v-1.2c0-1.2,0-1.8-.1-2.6.6,0,1.3,0,1.9.1.2,0,.3,0,.3.2,0,.1,0,.3-.1.4,0,.2-.1.6-.1,1.8v1.2h2.6c1.7,0,2.4,0,2.5,0s.2,0,.2.2v1.4c0,.2,0,.2-.2.2s-.7,0-2.5,0h-1.9c1.2,2.4,2.6,4.1,5,6.2-.4.4-.7.8-.9,1.2-.1.3-.2.4-.3.4s-.2-.1-.4-.3c-2.1-2-3.2-3.8-4.2-6,0,1.6,0,3.2,0,4.6h.4c1.4,0,1.9,0,2,0,.2,0,.2,0,.2.2v1.3c0,.2,0,.2-.2.2s-.6,0-2,0h-.4c0,1.7,0,2.9,0,3.1s0,.2-.2.2h-1.5c-.2,0-.2,0-.2-.2s0-1.4,0-3.1h-.3c-1.4,0-1.9,0-2,0-.2,0-.2,0-.2-.2v-1.3c0-.2,0-.2.2-.2s.6,0,2,0h.3c0-1.4,0-3,0-4.6-1,2.4-2.3,4.4-4.1,6-.2.2-.3.3-.4.3s-.2-.1-.3-.3c-.3-.4-.5-.8-.8-1.1v1.7c0,1.8,0,2.6,0,2.7,0,.2,0,.2-.2.2h-1.5c-.2,0-.2,0-.2-.2s0-1,0-2.7v-4.1c0-.6,0-1.3,0-2-.3.4-.7.9-1,1.3-.1.1-.2.2-.3.2s-.1-.1-.2-.3c-.1-.6-.4-1.2-.6-1.5,1.5-1.7,2.7-3.7,3.4-5.9.1-.4.2-.8.3-1.3.6.2,1.2.3,1.7.6.2,0,.3.1.3.3s0,.2-.2.3c-.1.1-.2.3-.4.7-.3.9-.7,1.8-1.2,2.6v7.3c2-1.7,3.5-3.6,4.7-6.2h-1Z"/>
    <path class="st0" d="M95.1,56.3c.2,0,.3,0,.3.3,0,1.6-.2,2.9-.6,4.1,0,.1,0,.1-.1.1s-.1,0-.2,0l-.5-.4c-.2-.1-.2-.2-.2-.4.4-1,.5-2.3.6-3.7q0-.2.3-.1l.5.2ZM106.2,51.3v1.2h.8c1.5,0,2,0,2.2,0,.2,0,.2,0,.2.2s0,.5,0,1.4v1.6c0,.9,0,1.3,0,1.4,0,.2,0,.2-.2.2s-.6,0-2.2,0h-.5c.9,1.4,2.3,2.5,4.1,3.2-.3.3-.6.8-.9,1.2-.2.3-.2.4-.3.4s-.2,0-.4-.2c-1.6-.9-2.8-2.2-3.5-3.5-.7,1.5-2.1,2.8-3.7,3.6-.2.1-.3.2-.4.2s-.2-.1-.4-.4c-.2-.3-.5-.6-.7-.8-.3.8-.9,1.1-1.7,1.1s-.5,0-.8,0q-.3,0-.4-.6c0-.5-.2-.8-.4-1.2.5,0,.9.1,1.2.1.4,0,.6-.1.8-.4.2-.4.3-1.6.4-4.4h-3c-1.2,0-1.7,0-1.8,0s-.2,0-.2-.2,0-.8,0-2.2v-4.5c0-1.4,0-2.1,0-2.2,0-.2,0-.2.2-.2s.6,0,1.8,0h2.7c1.1,0,1.6,0,1.7,0,.2,0,.2,0,.2.2v1.2c0,.2,0,.2-.2.2s-.6,0-1.7,0h-.3v1.3c.9,0,1.3,0,1.4,0,.2,0,.2,0,.2.2v.8c1.5-.7,2.9-2,3.7-3.3.2-.4.4-.7.5-1.1.6,0,1.1.2,1.6.3.1,0,.2.1.2.2s0,.2-.2.3h-.1c1.1,1.5,2.5,2.7,4.5,3.4-.2.3-.4.8-.6,1.3,0,.3-.1.5-.3.5s-.2,0-.4-.2c-.5-.3-1-.5-1.4-.9v.7c0,.2,0,.2-.2.2s-.5,0-1.6,0h0ZM96.2,56.3c.2,0,.3,0,.3.1.2,1.1.3,2.2.3,3.3,0,.2,0,.2-.2.3h-.5c-.2.2-.3.2-.3,0,0-1.2,0-2.3-.2-3.4,0-.2,0-.2.2-.3h.4ZM97.3,48.9v-1.3h-1.4v1.3h1.4ZM97.3,51.5v-1.2h-1.4v1.2h1.4ZM97.3,54.1v-1.3h-1.4v1.3h1.4ZM97.3,56.2c.2,0,.2,0,.3.1.2.8.3,1.8.4,2.7,0,.2,0,.2-.2.3h-.4c-.2.2-.2.2-.3,0,0-1-.2-1.9-.4-2.8,0-.2,0-.2.2-.2h.4ZM98.4,56c.2,0,.2,0,.2,0,.2.6.4,1.3.5,1.9,0,.1,0,.2-.1.3l-.3.2c-.2,0-.2,0-.2,0-.1-.7-.3-1.4-.5-2q0-.1.1-.2h.3ZM99.1,54.1c1.1,0,1.4,0,1.5,0,.2,0,.2,0,.2.2,0,.4,0,.9,0,1.3,0,2.6-.3,4.1-.5,5,1.6-.7,3-1.7,3.7-3.2v-.3c.1,0-.2,0-.2,0-1.5,0-2,0-2.2,0-.2,0-.2,0-.2-.2s0-.5,0-1.4v-1.6c0-.9,0-1.2,0-1.4,0-.2,0-.2.2-.2s.6,0,2.2,0h.7v-1.2c-1.1,0-1.4,0-1.5,0-.2,0-.2,0-.2-.2v-.6c-.4.3-.9.6-1.3.9-.2.1-.3.2-.4.2s-.2-.1-.3-.4c-.1-.3-.3-.6-.5-.8h-.1c0,0-.4,0-1.4,0v1.2c.9,0,1.3,0,1.4,0,.2,0,.2,0,.2.2v1c0,.2,0,.2-.2.2s-.4,0-1.4,0v1.3h.3ZM103,53.8v2h1.3c0-.5,0-1.2.1-2h-1.4ZM107.4,49.9c-.8-.7-1.5-1.4-2.1-2.2-.5.8-1.2,1.5-1.9,2.2h3.9ZM107.7,55.8v-2h-1.6c0,.8,0,1.4-.1,2h1.7Z"/>
    <path class="st0" d="M119.5,53.3v-4.9h1.1v4.9h4.9v1h-4.9v4.9h-1.1v-4.9h-4.9v-1h4.9Z"/>
    <path class="st0" d="M133.3,50.2c-1.2,0-2.2,0-3,0-.2,0-.3-.1-.3-.4,0-.4-.1-1.3-.2-1.8.8,0,1.8.1,3.5.1h6.4c.5,0,.7,0,1-.2,0,0,.2,0,.3,0s.2,0,.3,0c.5.3,1,.8,1.3,1.2,0,.1.1.2.1.3,0,.2,0,.3-.3.5-.2.2-.3.3-.4.7-.9,2.1-2,4.1-3.5,5.9-1.5,1.8-3.3,3.3-5.1,4.3-.2.1-.3.2-.5.2s-.3,0-.5-.2c-.4-.4-1-.7-1.7-1,2.6-1.3,4.2-2.6,5.9-4.5,1.4-1.6,2.3-3.1,3-5.1h-6.5Z"/>
    <path class="st0" d="M151.1,49.3c.3,0,.3.3.2.6-.2.4-.2.8-.2,1.2,0,2.3-.4,4-1,5.3-.5,1.1-1.3,2.3-2.6,3.4-.2.1-.3.2-.5.2s-.2,0-.3-.1c-.4-.3-.9-.5-1.5-.8,1.4-1.1,2.4-2.2,3-3.6.5-1.2.7-2.2.8-5.1,0-.7,0-1-.2-1.5,1,.1,1.9.3,2.3.4ZM155.1,56.9c.9-.5,1.7-1,2.6-1.7,1.1-.8,2.1-1.8,3.2-3.1,0,.6.3,1.2.6,1.8,0,.1.1.2.1.3s0,.3-.3.5c-.9.9-1.7,1.7-2.7,2.4-.9.7-1.9,1.4-3.2,2.2-.3.2-.4.3-.5.4-.1,0-.2.1-.4.1s-.2,0-.4-.1c-.4-.3-.8-.7-1.1-1.1-.1-.2-.2-.3-.2-.4s0-.2,0-.3c.1-.2.1-.5.1-1.4v-5.6c0-1.6,0-2.3-.2-3.1.7,0,1.7.2,2.3.4.2,0,.3.2.3.3s0,.3-.1.5c-.2.3-.2.7-.2,2v6Z"/>
    <path class="st0" d="M168.9,55.1c-1.8,0-2.5.2-2.6.2s-.4-.1-.4-.4c0-.4-.2-1.3-.3-2.2,1.2.2,2.1.2,3.9.2h5.8c1.4,0,2.8,0,4.1,0,.3,0,.3,0,.3.3,0,.5,0,1.2,0,1.7,0,.2,0,.3-.3.3-1.4,0-2.7,0-4,0h-6.5Z"/>
    <path class="st0" d="M184.9,48.5c.2-.1.4,0,.5.1.9,1.1,1.5,2.3,2,3.4,0,0,0,.2,0,.2,0,.1,0,.2-.2.3-.3.2-.9.5-1.4.7-.3.1-.4,0-.5-.3-.6-1.4-1.2-2.5-2.1-3.6.7-.4,1.2-.7,1.6-.8ZM197.5,48.7c.1,0,.2.2.2.4s0,.2-.1.3c-.3.3-.5.8-.7,1.2-1.3,2.9-2.3,4.6-3.5,6.1-1.4,1.7-2.8,3.2-4.8,4.5-.2.1-.3.2-.4.2s-.2,0-.3-.1c-.5-.4-1.1-.7-1.7-.8,2.5-1.6,3.9-2.9,5.3-4.8,1.3-1.6,2.4-3.6,3.1-5.6.3-.8.5-1.4.5-2.4,1,.3,1.8.7,2.4,1.1ZM189.6,47.3c.2,0,.3,0,.5.1.6.8,1.4,2.2,1.8,3.3,0,.2,0,.4-.2.5-.3.2-1,.5-1.4.6-.3.1-.4,0-.5-.2-.5-1.3-1-2.5-1.9-3.6.5-.3,1.1-.5,1.7-.8Z"/>
    <path class="st0" d="M203.9,52.2c-1.6,0-2.2,0-2.3,0-.2,0-.2,0-.2-.2v-1.5c0-.2,0-.2.2-.2s.7,0,2.3,0h4.1c0-.7,0-1.5,0-2.4,0-.9,0-1.5,0-2.1.6,0,1.5,0,2.1.1.2,0,.3.1.3.3s0,.2-.1.4c0,.2-.1.5-.2,1.3,0,.9,0,1.7-.1,2.5h4.6c1.6,0,2.2,0,2.3,0,.2,0,.2,0,.2.2v1.5c0,.2,0,.2-.2.2s-.7,0-2.3,0h-4.3c1.1,3.5,3.5,6.5,7.2,7.9-.4.4-.8.9-1,1.4-.2.3-.2.5-.4.5s-.2,0-.4-.2c-2.9-1.5-5.1-4-6.4-7.3-.2.6-.4,1.2-.7,1.7-1.2,2.6-3.1,4.3-5.8,5.6-.2,0-.3.1-.4.1-.1,0-.2-.1-.4-.4-.3-.4-.6-.8-1-1.1,2.9-1.1,4.8-2.9,5.8-5,.4-.9.8-1.9,1-3.2h-3.9Z"/>
    <path class="st0" d="M225.3,48.5c.2,0,.3,0,.3,0,0,0,.1-.1.2-.1.1,0,.3.1.8.5.4.4.5.5.5.6,0,.2,0,.3-.2.4-.1.1-.3.3-.4.7-.4.9-.9,1.8-1.4,2.6.6.6,1.2,1.1,2,1.7,0-.3,0-.5,0-.5,0-.2,0-.2.2-.2s.7,0,2.4,0h4.6c1.7,0,2.3,0,2.4,0,.2,0,.2,0,.2.2s0,.6,0,2.1v1.9c0,2.8,0,3.3,0,3.4,0,.2,0,.2-.2.2h-1.4c-.2,0-.2,0-.2-.2v-.5h-6.3v.6c0,.2,0,.2-.2.2h-1.3c-.2,0-.2,0-.2-.2s0-.6,0-3.5v-1.7c0-.9,0-1.4,0-1.8-.3.3-.6.8-.8,1.3,0,.1,0,.2-.2.2s-.2-.1-.4-.3c-.3-.3-.6-.7-.9-1.1v4.2c0,1.3,0,2.6,0,2.7,0,.2,0,.2-.2.2h-1.4c-.2,0-.2,0-.2-.2s0-1.3,0-2.7v-3.6c-.4.4-.8.8-1.3,1.2-.2.2-.3.3-.4.3s-.1-.1-.2-.3c-.2-.6-.3-1-.6-1.5,1.9-1.3,3.3-3,4.2-5.2h-1.7c-1.3,0-1.7,0-1.9,0-.2,0-.2,0-.2-.2v-1.3c0-.2,0-.2.2-.2s.6,0,1.9,0v-.7c0-1,0-1.5-.2-2.2.7,0,1.3,0,1.9.2.2,0,.3,0,.3.2,0,.2,0,.3-.1.4-.1.2-.2.5-.2,1.4v.8h.5ZM229.5,48c-1.7,0-2.3,0-2.4,0-.2,0-.2,0-.2-.2v-1.3c0-.2,0-.2.2-.2s.7,0,2.4,0h4.9c1.7,0,2.3,0,2.4,0,.2,0,.2,0,.2.2v1.3c0,.2,0,.2-.2.2s-.7,0-2.4,0h-4.9ZM233.4,48.9c1.5,0,2,0,2.2,0,.2,0,.2,0,.2.2s0,.4,0,1.2v1.5c0,.8,0,1.1,0,1.2,0,.2,0,.2-.2.2s-.6,0-2.2,0h-3.2c-1.5,0-2,0-2.2,0-.2,0-.2,0-.2-.2s0-.4,0-1.2v-1.5c0-.8,0-1.1,0-1.2,0-.2,0-.2.2-.2s.6,0,2.2,0h3.2ZM228.7,57h2.3v-1.3h-2.3v1.3ZM231,59.8v-1.4h-2.3v1.4h2.3ZM234,50.3h-4.4v1.4h4.4v-1.4ZM232.7,55.6v1.3h2.3v-1.3h-2.3ZM235,59.8v-1.4h-2.3v1.4h2.3Z"/>
  </g>
</svg>