<?xml version="1.0" encoding="UTF-8"?>
<svg id="_レイヤー_2" data-name="レイヤー 2" xmlns="http://www.w3.org/2000/svg" viewBox="0 0 354.93 74.19">
  <defs>
    <style>
      .cls-1 {
        fill: #9e0a31;
      }
    </style>
  </defs>
  <g id="_レイヤー_1-2" data-name="レイヤー 1">
    <g>
      <path class="cls-1" d="M0,3.62h15.38c1.86,0,3.81.21,5.84.64,2.04.43,3.89,1.17,5.58,2.22,1.68,1.06,3.07,2.5,4.15,4.33,1.08,1.83,1.62,4.13,1.62,6.9,0,2.41-.44,4.5-1.32,6.26-.88,1.76-2.06,3.2-3.54,4.34-1.48,1.13-3.19,1.97-5.13,2.53-1.94.55-3.96.83-6.07.83H4.98v25.33H0V3.62ZM4.98,27.14h11.31c1.41,0,2.79-.16,4.15-.49,1.36-.33,2.56-.85,3.62-1.58,1.06-.73,1.91-1.7,2.56-2.9.65-1.21.98-2.69.98-4.45s-.34-3.17-1.02-4.37c-.68-1.21-1.56-2.2-2.64-2.98-1.08-.78-2.33-1.34-3.73-1.7-1.41-.35-2.82-.53-4.22-.53H4.98v19Z"/>
      <path class="cls-1" d="M39.63,0h4.52v28.27h.15c.9-1.91,2.41-3.56,4.52-4.94,2.11-1.38,4.57-2.07,7.39-2.07s4.93.43,6.63,1.28c1.71.86,3.05,1.97,4.03,3.36.98,1.38,1.66,2.98,2.04,4.79.38,1.81.57,3.67.57,5.58v20.73h-4.52v-20.51c0-1.41-.13-2.78-.38-4.11-.25-1.33-.69-2.53-1.32-3.58-.63-1.06-1.51-1.9-2.64-2.53-1.13-.63-2.6-.94-4.41-.94-1.66,0-3.23.29-4.71.87-1.48.58-2.76,1.46-3.85,2.64-1.08,1.18-1.94,2.67-2.56,4.45-.63,1.79-.94,3.88-.94,6.3v17.42h-4.52V0Z"/>
      <path class="cls-1" d="M77.92,39.58c0-2.66.45-5.11,1.36-7.35.9-2.24,2.16-4.17,3.77-5.81,1.61-1.63,3.54-2.9,5.81-3.81,2.26-.91,4.72-1.36,7.39-1.36s5.11.45,7.35,1.36c2.24.9,4.17,2.17,5.81,3.81,1.63,1.63,2.9,3.57,3.81,5.81.9,2.24,1.36,4.69,1.36,7.35s-.45,5.12-1.36,7.35c-.9,2.24-2.17,4.17-3.81,5.81s-3.57,2.9-5.81,3.81c-2.24.9-4.69,1.36-7.35,1.36s-5.13-.45-7.39-1.36c-2.26-.91-4.2-2.17-5.81-3.81-1.61-1.63-2.87-3.57-3.77-5.81-.9-2.24-1.36-4.69-1.36-7.35ZM82.44,39.58c0,1.96.31,3.81.94,5.54.63,1.73,1.55,3.24,2.75,4.52,1.21,1.28,2.66,2.3,4.37,3.05,1.71.75,3.62,1.13,5.73,1.13s4.02-.38,5.73-1.13c1.71-.75,3.17-1.77,4.37-3.05,1.21-1.28,2.12-2.79,2.75-4.52.63-1.73.94-3.58.94-5.54s-.31-3.81-.94-5.54c-.63-1.73-1.55-3.24-2.75-4.52-1.21-1.28-2.67-2.3-4.37-3.05-1.71-.75-3.62-1.13-5.73-1.13s-4.02.38-5.73,1.13c-1.71.75-3.17,1.77-4.37,3.05-1.21,1.28-2.12,2.79-2.75,4.52-.63,1.73-.94,3.58-.94,5.54Z"/>
      <path class="cls-1" d="M139.54,26.24h-9.95v22.69c0,1.56.43,2.76,1.28,3.62.85.86,2.04,1.28,3.54,1.28.85,0,1.72-.11,2.6-.34.88-.23,1.72-.51,2.53-.87l.38,4.07c-.85.3-1.83.58-2.94.83-1.11.25-2.09.38-2.94.38-1.61,0-2.99-.24-4.15-.72-1.16-.48-2.09-1.12-2.79-1.92-.7-.8-1.22-1.75-1.55-2.83-.33-1.08-.49-2.25-.49-3.51v-22.69h-7.54v-4.07h7.54v-10.03h4.52v10.03h9.95v4.07Z"/>
      <path class="cls-1" d="M143.03,39.58c0-2.66.45-5.11,1.36-7.35.9-2.24,2.16-4.17,3.77-5.81,1.61-1.63,3.54-2.9,5.81-3.81,2.26-.91,4.72-1.36,7.39-1.36s5.11.45,7.35,1.36c2.24.9,4.17,2.17,5.81,3.81,1.63,1.63,2.9,3.57,3.81,5.81.9,2.24,1.36,4.69,1.36,7.35s-.45,5.12-1.36,7.35c-.9,2.24-2.17,4.17-3.81,5.81s-3.57,2.9-5.81,3.81c-2.24.9-4.69,1.36-7.35,1.36s-5.13-.45-7.39-1.36c-2.26-.91-4.2-2.17-5.81-3.81-1.61-1.63-2.87-3.57-3.77-5.81-.9-2.24-1.36-4.69-1.36-7.35ZM147.55,39.58c0,1.96.31,3.81.94,5.54.63,1.73,1.55,3.24,2.75,4.52,1.21,1.28,2.66,2.3,4.37,3.05,1.71.75,3.62,1.13,5.73,1.13s4.02-.38,5.73-1.13c1.71-.75,3.17-1.77,4.37-3.05,1.21-1.28,2.12-2.79,2.75-4.52.63-1.73.94-3.58.94-5.54s-.31-3.81-.94-5.54c-.63-1.73-1.55-3.24-2.75-4.52-1.21-1.28-2.67-2.3-4.37-3.05-1.71-.75-3.62-1.13-5.73-1.13s-4.02.38-5.73,1.13c-1.71.75-3.17,1.77-4.37,3.05-1.21,1.28-2.12,2.79-2.75,4.52-.63,1.73-.94,3.58-.94,5.54Z"/>
      <path class="cls-1" d="M212.09,47.12c1.31,2.26,3,3.95,5.09,5.05,2.09,1.11,4.46,1.66,7.12,1.66,1.66,0,3.22-.25,4.67-.75,1.46-.5,2.73-1.21,3.81-2.11,1.08-.91,1.93-2,2.56-3.28.63-1.28.94-2.73.94-4.33,0-1.86-.39-3.39-1.17-4.6-.78-1.21-1.82-2.2-3.13-2.98-1.31-.78-2.78-1.44-4.41-2-1.63-.55-3.32-1.11-5.05-1.66-1.73-.55-3.42-1.18-5.05-1.88-1.63-.7-3.1-1.62-4.41-2.75-1.31-1.13-2.35-2.55-3.13-4.26-.78-1.71-1.17-3.82-1.17-6.33,0-2.36.46-4.46,1.39-6.3.93-1.83,2.19-3.37,3.77-4.6,1.58-1.23,3.4-2.16,5.47-2.79,2.06-.63,4.22-.94,6.48-.94,2.91,0,5.62.52,8.1,1.55,2.49,1.03,4.64,2.75,6.45,5.16l-4.3,3.09c-1.26-1.76-2.73-3.08-4.41-3.96-1.68-.88-3.68-1.32-5.99-1.32-1.61,0-3.14.21-4.6.64-1.46.43-2.73,1.06-3.81,1.88-1.08.83-1.95,1.87-2.6,3.13-.65,1.26-.98,2.74-.98,4.45,0,2.67.68,4.71,2.04,6.14,1.36,1.43,3.05,2.56,5.09,3.39,2.04.83,4.25,1.56,6.63,2.19,2.39.63,4.6,1.47,6.63,2.53,2.04,1.06,3.73,2.53,5.09,4.41,1.36,1.88,2.04,4.49,2.04,7.8,0,2.41-.45,4.55-1.36,6.41-.9,1.86-2.12,3.43-3.66,4.71-1.53,1.28-3.31,2.25-5.32,2.9-2.01.65-4.1.98-6.26.98-3.52,0-6.76-.62-9.73-1.85-2.97-1.23-5.5-3.3-7.61-6.22l4.75-3.17Z"/>
      <path class="cls-1" d="M249.38,22.17h4.52v6.11h.15c.7-1.21,1.58-2.25,2.64-3.13,1.06-.88,2.2-1.61,3.43-2.19,1.23-.58,2.53-1,3.88-1.28,1.36-.28,2.69-.41,4-.41,2.66,0,5.11.45,7.35,1.36,2.24.9,4.17,2.17,5.81,3.81,1.63,1.63,2.9,3.57,3.81,5.81.9,2.24,1.36,4.69,1.36,7.35s-.45,5.12-1.36,7.35c-.9,2.24-2.17,4.17-3.81,5.81s-3.57,2.9-5.81,3.81c-2.24.9-4.69,1.36-7.35,1.36-1.31,0-2.64-.14-4-.41-1.36-.28-2.65-.7-3.88-1.28-1.23-.58-2.38-1.31-3.43-2.19-1.06-.88-1.94-1.92-2.64-3.13h-.15v23.3h-4.52V22.17ZM253.46,39.58c0,1.96.38,3.81,1.13,5.54.75,1.73,1.78,3.24,3.09,4.52,1.31,1.28,2.84,2.3,4.6,3.05,1.76.75,3.67,1.13,5.73,1.13s4.02-.38,5.73-1.13c1.71-.75,3.17-1.77,4.37-3.05,1.21-1.28,2.12-2.79,2.75-4.52.63-1.73.94-3.58.94-5.54s-.31-3.81-.94-5.54c-.63-1.73-1.55-3.24-2.75-4.52-1.21-1.28-2.67-2.3-4.37-3.05-1.71-.75-3.62-1.13-5.73-1.13s-3.97.38-5.73,1.13c-1.76.75-3.29,1.77-4.6,3.05-1.31,1.28-2.34,2.79-3.09,4.52s-1.13,3.58-1.13,5.54Z"/>
      <path class="cls-1" d="M292.93,39.58c0-2.66.45-5.11,1.36-7.35.9-2.24,2.16-4.17,3.77-5.81,1.61-1.63,3.54-2.9,5.81-3.81,2.26-.91,4.72-1.36,7.39-1.36s5.11.45,7.35,1.36c2.24.9,4.17,2.17,5.81,3.81,1.63,1.63,2.9,3.57,3.81,5.81.9,2.24,1.36,4.69,1.36,7.35s-.45,5.12-1.36,7.35c-.9,2.24-2.17,4.17-3.81,5.81s-3.57,2.9-5.81,3.81c-2.24.9-4.69,1.36-7.35,1.36s-5.13-.45-7.39-1.36c-2.26-.91-4.2-2.17-5.81-3.81-1.61-1.63-2.87-3.57-3.77-5.81-.9-2.24-1.36-4.69-1.36-7.35ZM297.46,39.58c0,1.96.31,3.81.94,5.54.63,1.73,1.55,3.24,2.75,4.52,1.21,1.28,2.66,2.3,4.37,3.05,1.71.75,3.62,1.13,5.73,1.13s4.02-.38,5.73-1.13c1.71-.75,3.17-1.77,4.37-3.05,1.21-1.28,2.12-2.79,2.75-4.52.63-1.73.94-3.58.94-5.54s-.31-3.81-.94-5.54c-.63-1.73-1.55-3.24-2.75-4.52-1.21-1.28-2.67-2.3-4.37-3.05-1.71-.75-3.62-1.13-5.73-1.13s-4.02.38-5.73,1.13c-1.71.75-3.17,1.77-4.37,3.05-1.21,1.28-2.12,2.79-2.75,4.52-.63,1.73-.94,3.58-.94,5.54Z"/>
      <path class="cls-1" d="M354.55,26.24h-9.95v22.69c0,1.56.43,2.76,1.28,3.62.85.86,2.04,1.28,3.54,1.28.85,0,1.72-.11,2.6-.34.88-.23,1.72-.51,2.53-.87l.38,4.07c-.85.3-1.83.58-2.94.83-1.11.25-2.09.38-2.94.38-1.61,0-2.99-.24-4.15-.72-1.16-.48-2.09-1.12-2.79-1.92-.7-.8-1.22-1.75-1.55-2.83-.33-1.08-.49-2.25-.49-3.51v-22.69h-7.54v-4.07h7.54v-10.03h4.52v10.03h9.95v4.07Z"/>
    </g>
  </g>
</svg>