<?xml version="1.0" encoding="UTF-8"?>
<svg id="_レイヤー_2" data-name="レイヤー 2" xmlns="http://www.w3.org/2000/svg" viewBox="0 0 78.95 66.6">
  <defs>
    <style>
      .cls-1 {
        fill: #fff;
      }
    </style>
  </defs>
  <g id="_レイヤー_1-2" data-name="レイヤー 1">
    <g>
      <path class="cls-1" d="M10.85.45h-3.6v-.45h13.63c7.16,0,10.44,2.29,10.44,7.2,0,3.6-1.89,6.21-8.28,6.75,6.93.36,9.4,3.29,9.4,7.47,0,5.13-4.05,7.83-11.34,7.83H7.25v-.45h3.6V.45ZM20.89,13.81c3.42,0,4.91-1.84,4.91-6.21v-.9c0-4.41-1.49-6.25-4.91-6.25h-5.08v13.36h5.08ZM21.11,28.8c4.23,0,5.8-2.25,5.8-6.75v-1.26c0-4.18-1.53-6.52-5.8-6.52h-5.31v14.53h5.31Z"/>
      <path class="cls-1" d="M50.32,26.5v-.13c-.9,2.43-3.01,3.42-5.85,3.42-5.58,0-8.19-2.79-8.19-6.66s2.61-6.61,8.19-6.61c2.84,0,4.95.95,5.85,3.38v-5.08c0-4.86-2.02-6.39-5.4-6.39-3.83,0-5.54,1.53-6.21,3.64h-.49c.67-2.38,2.65-4.32,7.51-4.32,6.12,0,9.36,1.98,9.36,7.6v11.56c0,1.3.45,1.89,1.49,1.89s2.11-.58,2.11-2.52h.45c0,2.38-1.35,3.38-4.46,3.38s-4.37-.99-4.37-3.15ZM50.32,23.13c0-4.72-2.43-5.98-4.9-5.98-2.61,0-4.14,1.62-4.14,5.22v1.53c0,3.64,1.53,5.22,4.14,5.22,2.47,0,4.9-1.21,4.9-5.99Z"/>
      <path class="cls-1" d="M63.53,28.8v-13.81c0-4.63,2.83-7.29,7.92-7.29,3.33,0,5.04,1.39,5.8,4.05h-.45c-.72-2.39-2.29-3.46-4.59-3.46-2.57,0-3.92,1.8-3.92,5.53v14.98h3.15v.45h-10.57v-.45h2.65Z"/>
    </g>
    <g>
      <path class="cls-1" d="M2.14,60.36c-.06.1-.1.3-.14.64-.14,1.32-.38,2.58-.84,3.86-.08.22-.12.32-.2.32-.06,0-.14-.06-.28-.16-.16-.14-.5-.3-.68-.34.58-1.34.78-2.38.94-3.9.04-.4.04-.62.02-1.02.44.06.76.12,1,.18.22.06.26.1.26.18,0,.1-.02.14-.08.24ZM5.84,55.24c.2-.08.22-.08.3.06.62,1.12,1.08,2.22,1.48,3.36.04.16.04.22-.22.3l-.42.12c-.28.06-.32.04-.36-.12l-.34-.98-1.82.2v5.36c0,2.18.04,2.82.04,2.92,0,.14-.02.14-.16.14h-.9c-.14,0-.16,0-.16-.14,0-.12.04-.74.04-2.92v-5.24c-.66.06-1.3.1-1.92.14-.44.04-.66.08-.78.16-.06.04-.14.08-.22.08-.1,0-.16-.1-.2-.26-.08-.3-.14-.7-.18-1.1.44.04.88.06,1.26.06h.18c.54-.7,1.02-1.38,1.48-2.06-.9-1.14-1.78-2.12-2.86-3.08-.12-.12-.1-.14.06-.36l.32-.42c.14-.18.18-.18.3-.08l.78.76c.52-.78.96-1.54,1.38-2.36.32-.64.42-.96.5-1.26.36.12.74.3,1.06.48.14.08.22.16.22.24,0,.1-.08.16-.18.22-.14.1-.22.2-.34.42-.7,1.18-1.22,2.02-1.92,3,.44.46.88.94,1.34,1.46.48-.76.9-1.48,1.3-2.18.48-.84.64-1.22.78-1.66.4.16.76.32,1.06.5.16.1.22.16.22.24,0,.12-.1.18-.22.28-.2.14-.32.36-.64.88-1.1,1.78-2.24,3.46-3.36,4.94,1.02-.06,2.06-.12,3.22-.24-.2-.48-.44-.96-.7-1.42-.06-.12-.06-.18.2-.28l.38-.16ZM6.02,59.72c.22-.06.26-.04.32.1.38,1.02.76,2.64.96,3.82.02.18,0,.2-.24.28l-.42.14c-.28.08-.32.06-.34-.12-.16-1.26-.52-2.8-.88-3.86-.04-.16-.02-.2.22-.26l.38-.1ZM9.42,63.4c0,.86.08,1.18.88,1.4.62.16,1.46.18,2.54.18,1.42,0,2.76-.02,3.42-.46.62-.4.62-1.26.7-2.9.24.16.48.32.78.42.38.12.4.14.36.54-.1,1.54-.3,2.38-.98,2.88-.8.58-2.24.64-4.14.64-1.62,0-2.66-.04-3.48-.32s-1.2-.88-1.2-2.18v-7.56c0-1.14-.04-1.52-.04-1.62l-.42.38c-.14.12-.24.2-.3.2-.08,0-.16-.08-.28-.22-.12-.14-.32-.28-.58-.4,1.68-1.4,2.9-3.1,3.62-4.56.24-.48.38-.88.44-1.3.52.14.9.26,1.16.36.12.04.2.12.2.2,0,.1-.08.18-.2.28-.14.12-.26.32-.48.76l-.2.36h2.74c.2,0,.32-.04.42-.08.06-.02.12-.06.18-.06.1,0,.22.04.56.34.28.26.34.36.34.44,0,.1-.08.2-.22.3-.12.1-.22.24-.34.44-.46.82-1.08,1.74-1.6,2.42h1.24c1.78,0,2.38-.04,2.5-.04.14,0,.16.02.16.16,0,.1-.04.48-.04,1.64v1.94c0,1.14.04,1.54.04,1.64,0,.14-.02.16-.16.16-.12,0-.72-.04-2.5-.04h-5.12v3.66ZM10.62,51.46c-.6.94-1.36,1.94-2.2,2.78.12,0,.74.04,2.48.04h1.14c.7-.98,1.34-1.9,1.82-2.82h-3.24ZM12.16,55.28h-2.74v3.46h2.74v-3.46ZM16.06,55.28h-2.82v3.46h2.82v-3.46Z"/>
      <path class="cls-1" d="M39.51,56.9c0,.14-.02.16-.14.16s-.72-.04-2.58-.04h-12.24c-1.86,0-2.48.04-2.58.04-.14,0-.16-.02-.16-.16v-.74c0-.16.02-.18.16-.18.1,0,.72.04,2.58.04h5.34v-1.42h-2.52c-2,0-2.7.04-2.82.04-.14,0-.16-.02-.16-.16,0-.12.04-.5.04-1.6v-1.74c0-1.12-.04-1.5-.04-1.6,0-.16.02-.18.16-.18.12,0,.82.04,2.82.04h6.52c2,0,2.72-.04,2.82-.04.16,0,.18.02.18.18,0,.1-.04.48-.04,1.6v1.74c0,1.1.04,1.5.04,1.6,0,.14-.02.16-.18.16-.1,0-.82-.04-2.82-.04h-2.82v1.42h5.72c1.86,0,2.46-.04,2.58-.04s.14.02.14.18v.74ZM27.39,63.46c-.16.08-.36.28-.5.4-.92.84-2.04,1.58-3.38,2.18-.16.08-.24.12-.3.12-.1,0-.16-.08-.28-.28-.18-.28-.34-.46-.54-.62,1.58-.62,2.64-1.26,3.38-1.9.3-.26.56-.54.74-.86.42.18.7.32.96.48.12.08.18.12.18.22s-.12.18-.26.26ZM36.29,60.5c0,.86.04,1.1.04,1.22,0,.14-.02.16-.18.16-.1,0-.78-.04-2.74-.04h-2.18v1.36c0,.62.04,1.06.04,1.58,0,.74-.1,1.04-.5,1.36-.34.28-.82.34-2.34.34q-.4,0-.52-.4c-.08-.3-.2-.58-.36-.82.68.06,1.18.08,1.74.08s.76-.18.76-.76v-2.74h-2.22c-1.96,0-2.62.04-2.74.04-.14,0-.16-.02-.16-.16,0-.12.04-.36.04-1.22v-.92c0-.86-.04-1.1-.04-1.22,0-.14.02-.16.16-.16.12,0,.78.04,2.74.04h5.58c1.96,0,2.64-.04,2.74-.04.16,0,.18.02.18.16,0,.12-.04.36-.04,1.22v.92ZM35.69,50.32h-10.1v1.22h10.1v-1.22ZM35.69,52.42h-10.1v1.3h10.1v-1.3ZM35.13,59.18h-9v1.76h9v-1.76ZM34.25,62.64c.16-.12.2-.12.32-.02,1.24,1.08,2.54,1.86,4.28,2.5-.22.18-.4.4-.56.68-.12.2-.18.28-.28.28-.06,0-.16-.04-.3-.1-1.52-.72-2.64-1.42-4.02-2.7-.12-.1-.1-.16.1-.3l.46-.34Z"/>
      <path class="cls-1" d="M46.92,55.7c.42-1.02.62-1.6.64-2.26.66.22,1.24.44,1.58.66.28.16.22.38.04.56-.22.22-.42.5-.7,1.14-.96,2.18-2.32,4.42-4.52,6.58-.2.2-.44.24-.62.08-.22-.2-.62-.4-1.1-.52,2.36-2,3.92-4.38,4.68-6.24ZM53.44,53.64c.18-.1.26-.12.42.04,2.14,2.12,3.82,4.74,5,7.18.1.18.1.3-.08.42-.22.16-.58.44-.94.62-.18.1-.24.06-.32-.12-1.22-2.78-2.82-5.32-4.96-7.54.34-.24.68-.48.88-.6ZM55.68,51.14c.08-.06.14-.06.22,0,.8.56,1.68,1.54,2.26,2.42.06.08.04.16-.04.22l-.58.48c-.1.08-.2.06-.26-.04-.58-.98-1.42-1.92-2.32-2.56l.72-.52ZM57.36,49.82c.08-.06.14-.08.22-.02.8.62,1.7,1.5,2.28,2.34.06.1.04.16-.06.24l-.54.48c-.08.08-.16.08-.24-.04-.5-.82-1.36-1.8-2.3-2.5l.64-.5Z"/>
      <path class="cls-1" d="M66.93,58.46c-1.74,0-2.58.2-2.7.2-.18,0-.28-.08-.34-.28-.08-.34-.16-.98-.2-1.52,1.22.16,2.76.18,4.42.18h6.14c1.38,0,2.86-.02,4.38-.06.24-.02.3.02.3.24.02.3.02.72,0,1.04,0,.22-.06.26-.3.24-1.5-.04-2.98-.04-4.32-.04h-7.38Z"/>
    </g>
  </g>
</svg>