<?xml version="1.0" encoding="UTF-8"?>
<svg id="_レイヤー_2" data-name="レイヤー 2" xmlns="http://www.w3.org/2000/svg" viewBox="0 0 294.2 77.33">
  <defs>
    <style>
      .cls-1 {
        fill: #fff;
      }
    </style>
  </defs>
  <g id="_レイヤー_1-2" data-name="レイヤー 1">
    <g>
      <g>
        <path class="cls-1" d="M.54,26.37h.45c.94,3.24,4.91,5.13,10.17,5.13s7.88-3.24,7.88-7.29c0-3.06-1.93-5.44-6.48-5.44h-3.83C2.92,18.76,0,15.79,0,11.29,0,5.4,5.13,1.8,10.8,1.8c4.86,0,8.87,2.07,10.08,5.58h-.45c-1.17-3.15-4.99-5.13-9.63-5.13-5.22,0-7.65,2.75-7.65,6.3,0,3.24,2.16,5,6.88,5h3.74c5.71,0,8.55,3.78,8.55,8.28,0,6.17-5.17,10.12-11.21,10.12-5.58,0-9.54-1.98-10.57-5.58Z"/>
        <path class="cls-1" d="M27.61,40.05V10.89h-2.61v-.45h7.38v4.63c.85-3.46,3.42-5.08,6.57-5.08,5.26,0,9.5,2.79,9.5,11.02s-4.23,10.98-9.5,10.98c-3.15,0-5.71-1.58-6.57-5.04v13.09h2.65v.45h-10.04v-.45h2.61ZM43.27,22.72v-3.46c0-6.17-1.84-8.42-5.22-8.42-2.66,0-5.67,1.49-5.67,7.79v4.72c0,6.3,3.01,7.83,5.67,7.83,3.38,0,5.22-2.29,5.22-8.46Z"/>
        <path class="cls-1" d="M53.17,31.05V10.89h-2.61v-.45h7.38v20.61h2.61v.45h-9.99v-.45h2.61ZM52.45,3.51c0-1.57.99-2.79,2.97-2.79s2.97,1.21,2.97,2.79-.99,2.83-2.97,2.83-2.97-1.21-2.97-2.83Z"/>
        <path class="cls-1" d="M65.5,31.05v-13.81c0-4.63,2.84-7.29,7.92-7.29,3.33,0,5.04,1.39,5.8,4.05h-.45c-.72-2.39-2.29-3.46-4.59-3.46-2.57,0-3.92,1.8-3.92,5.53v14.98h3.15v.45h-10.57v-.45h2.65Z"/>
        <path class="cls-1" d="M83.41,31.05V10.89h-2.61v-.45h7.38v20.61h2.61v.45h-9.99v-.45h2.61ZM82.69,3.51c0-1.57.99-2.79,2.97-2.79s2.97,1.21,2.97,2.79-.99,2.83-2.97,2.83-2.97-1.21-2.97-2.83Z"/>
        <path class="cls-1" d="M93.98,25.2V5.54h4.77v4.9h6.39v.45h-6.39v15.57c0,3.06,1.12,4.91,3.51,4.91s4.1-1.08,4.73-3.42h.45c-.68,2.61-2.43,4.05-5.85,4.05-5.22,0-7.61-2.34-7.61-6.79Z"/>
        <path class="cls-1" d="M125.34,27.76c-.76,2.7-3.06,4.18-6.3,4.18-5.94,0-8.01-2.52-8.01-7.79v-13.27h-2.65v-.45h7.42v14.94c0,3.78,1.26,5.76,4.37,5.76s5.17-2.02,5.17-6.3v-13.95h-2.61v-.45h7.38v20.61h2.61v.45h-7.38v-3.73Z"/>
        <path class="cls-1" d="M148.47,28.75v-.13c-.9,2.43-3.01,3.42-5.85,3.42-5.58,0-8.19-2.79-8.19-6.66s2.61-6.61,8.19-6.61c2.84,0,4.95.95,5.85,3.38v-5.08c0-4.86-2.02-6.39-5.4-6.39-3.83,0-5.54,1.53-6.21,3.64h-.49c.67-2.38,2.65-4.32,7.51-4.32,6.12,0,9.36,1.98,9.36,7.6v11.56c0,1.3.45,1.89,1.49,1.89s2.11-.58,2.11-2.52h.45c0,2.38-1.35,3.38-4.46,3.38s-4.37-.99-4.37-3.15ZM148.47,25.38c0-4.72-2.43-5.98-4.9-5.98-2.61,0-4.14,1.62-4.14,5.22v1.53c0,3.64,1.53,5.22,4.14,5.22,2.47,0,4.9-1.21,4.9-5.99Z"/>
        <path class="cls-1" d="M160.13,25.02V.45h-2.66v-.45h7.42v26.32c0,3.74,1.48,5.04,3.46,5.04s3.69-1.12,4.28-3.42h.45c-.67,2.61-2.43,4.05-5.58,4.05-4.86,0-7.38-2.43-7.38-6.97Z"/>
        <path class="cls-1" d="M188.39,31.05V2.7h-3.6v-.45h14.98c7.15,0,10.71,2.61,10.71,8.19s-3.56,8.19-10.71,8.19h-6.43v12.42h3.6v.45h-12.15v-.45h3.6ZM199.77,18.18c3.46,0,5.18-2.03,5.18-6.3v-2.88c0-4.27-1.71-6.3-5.18-6.3h-6.43v15.48h6.43Z"/>
        <path class="cls-1" d="M215.03,25.02V.45h-2.65v-.45h7.42v26.32c0,3.74,1.49,5.04,3.46,5.04s3.69-1.12,4.27-3.42h.45c-.67,2.61-2.43,4.05-5.58,4.05-4.86,0-7.38-2.43-7.38-6.97Z"/>
        <path class="cls-1" d="M244.36,28.75v-.13c-.9,2.43-3.01,3.42-5.85,3.42-5.58,0-8.19-2.79-8.19-6.66s2.61-6.61,8.19-6.61c2.84,0,4.95.95,5.85,3.38v-5.08c0-4.86-2.02-6.39-5.4-6.39-3.83,0-5.54,1.53-6.21,3.64h-.49c.67-2.38,2.65-4.32,7.51-4.32,6.12,0,9.36,1.98,9.36,7.6v11.56c0,1.3.45,1.89,1.49,1.89s2.11-.58,2.11-2.52h.45c0,2.38-1.35,3.38-4.46,3.38s-4.37-.99-4.37-3.15ZM244.36,25.38c0-4.72-2.43-5.98-4.9-5.98-2.61,0-4.14,1.62-4.14,5.22v1.53c0,3.64,1.53,5.22,4.14,5.22,2.47,0,4.9-1.21,4.9-5.99Z"/>
        <path class="cls-1" d="M254.66,21.01c0-8.23,4.54-11.02,10.53-11.02,4.14,0,6.3,2.02,6.79,4.41h-.45c-.5-2.11-2.43-3.87-6.12-3.87s-5.58,2.47-5.58,8.73v3.46c0,6.25,1.71,8.73,5.58,8.73s5.71-1.71,6.21-3.87h.45c-.5,2.38-2.75,4.41-6.88,4.41-5.98,0-10.53-2.75-10.53-10.98Z"/>
        <path class="cls-1" d="M274.54,21.01c0-7.7,4.41-11.02,9.99-11.02,5.94,0,9.67,2.65,9.67,9.45,0,.76-.04,1.04-.04,1.04h-14.49v1.89c0,6.39,2.34,9.13,6.43,9.13s6.39-1.84,7.02-3.96h.45c-.63,2.38-3.01,4.46-7.74,4.46-7.02,0-11.29-3.33-11.29-10.98ZM289.07,18.09c0-5.85-1.58-7.6-4.54-7.6-2.79,0-4.86,2.07-4.86,7.6v1.93h9.4v-1.93Z"/>
      </g>
      <g>
        <path class="cls-1" d="M23.37,70.24c.12.06.14.14.06.26-.26.42-.54,1-.54,1.56,0,1.64,1.84,2.44,5.12,2.44,2.34,0,4.24-.22,5.74-.58.18-.04.24-.02.28.14.06.22.14.72.18,1.04.02.16-.06.22-.26.26-1.56.32-3.32.52-6.06.52-3.9,0-6.22-1.18-6.22-3.76,0-.86.32-1.62.82-2.36.28.14.6.32.88.48ZM28.05,62.76c1.44,0,3.04-.06,4.42-.18.18-.02.26.04.28.18.04.26.06.54.06.9,0,.22-.08.28-.28.3-1.68.24-3.52,1.16-5.18,2.28-.18.14-.38.16-.56.04-.24-.18-.5-.32-.82-.4,1.26-.86,2.4-1.5,3.44-2-.66.06-1.54.08-2.16.08-1.3,0-2.84-.1-4.06-.36-.12-.02-.18-.08-.18-.28,0-.26.02-.68.04-1.02,1.34.3,3.08.46,5,.46ZM33.19,60.2c.08-.06.14-.06.22,0,.8.56,1.68,1.54,2.26,2.42.06.08.04.16-.04.22l-.58.48c-.1.08-.2.06-.26-.04-.58-.98-1.42-1.92-2.32-2.56l.72-.52ZM34.87,58.88c.08-.06.14-.08.22-.02.8.62,1.7,1.5,2.28,2.34.06.1.04.16-.06.24l-.54.48c-.08.08-.16.08-.24-.04-.5-.82-1.36-1.8-2.3-2.5l.64-.5Z"/>
        <path class="cls-1" d="M49.94,68.76c1.74,2.54,4.4,4.66,8.04,6.08-.22.2-.44.46-.62.78-.14.22-.18.32-.28.32-.06,0-.14-.04-.28-.12-3.42-1.62-5.74-3.56-7.52-6.34.02,3.48.1,7,.1,7.68,0,.14-.02.16-.16.16h-1.04c-.14,0-.16-.02-.16-.16,0-.68.1-4.32.12-7.7-1.74,2.72-3.88,4.64-7.14,6.3-.16.08-.26.14-.32.14-.1,0-.14-.08-.26-.3-.16-.3-.38-.54-.62-.74,3.24-1.4,5.9-3.56,7.54-6.1h-4.02c-1.92,0-2.56.04-2.68.04-.14,0-.16-.02-.16-.16v-.86c0-.14.02-.16.16-.16.12,0,.76.04,2.68.04h4.78v-3.52h-4.22c-.4.7-.86,1.38-1.48,2.1-.12.14-.18.22-.26.22-.06,0-.14-.08-.3-.2-.26-.22-.46-.34-.72-.44,1.48-1.52,2.3-3.04,2.9-4.82.1-.28.16-.66.2-1,.46.1.78.2,1.1.32.22.08.28.14.28.26s-.1.2-.18.28c-.14.14-.24.42-.4.82-.2.48-.38.92-.58,1.34h3.66v-1.4c0-1.22-.02-1.58-.14-2.32.48.02.94.06,1.34.12.14.02.26.08.26.16,0,.16-.08.26-.12.4-.08.24-.12.58-.12,1.64v1.4h3.34c2.02,0,2.7-.02,2.8-.02.14,0,.16.02.16.14v.88c0,.14-.02.16-.16.16-.1,0-.78-.04-2.8-.04h-3.34v3.52h5.1c1.92,0,2.56-.04,2.66-.04.16,0,.18.02.18.16v.86c0,.14-.02.16-.18.16-.1,0-.74-.04-2.66-.04h-4.48Z"/>
        <path class="cls-1" d="M62.72,63.94c0-1.24-.02-1.9-.14-2.54.42.08.84.2,1.24.38,1.46-.32,2.96-.86,4.14-1.48.36-.2.7-.42.96-.66.36.28.66.58.86.84.08.12.12.18.12.26,0,.1-.08.18-.24.2-.16.02-.38.12-.68.24-1.74.8-3.38,1.3-5.06,1.74v3.82h3.28c1.54,0,2-.04,2.1-.04.14,0,.16.02.16.16v.86c0,.14-.02.16-.16.16-.1,0-.56-.04-2.1-.04h-3.28v4.8h3.64c1.3,0,1.68-.04,1.78-.04.14,0,.16.02.16.16v.86c0,.14-.02.16-.16.16-.1,0-.48-.04-1.78-.04h-3.64v1.86c0,.14-.02.16-.16.16h-.92c-.14,0-.16-.02-.16-.16,0-.1.04-1.04.04-3.26v-8.4ZM78.33,69.22c0,1.44.04,2.1.04,2.64,0,.72-.08,1.26-.4,1.68-.42.54-.92.7-2.84.66-.4,0-.44.02-.5-.4-.06-.38-.2-.7-.36-.94.56.06,1.1.1,1.74.1.82,0,1.1-.24,1.1-1.24v-9.7h-4.68v11.54c0,2.38.04,3.44.04,3.54,0,.14-.02.16-.18.16h-.96c-.14,0-.16-.02-.16-.16,0-.1.04-1.18.04-3.78v-8.46c0-2.62-.04-3.72-.04-3.84,0-.14.02-.16.16-.16.1,0,.6.04,2.14.04h2.58c1.54,0,2.04-.04,2.16-.04.14,0,.16.02.16.16,0,.12-.04,1.04-.04,3.06v5.14Z"/>
        <path class="cls-1" d="M92.92,61.9c.12-.54.16-.96.1-1.48.7.16,1.18.4,1.54.6.26.16.24.36.08.56-.2.24-.26.4-.4.78-.18.48-.38.98-.7,1.84,3.46.22,5.6,2.36,5.6,5.46,0,3.56-2.74,5.42-6.1,6.2-.28.06-.38,0-.52-.2-.2-.28-.48-.54-.84-.74,3.58-.64,6.1-2.42,6.1-5.3,0-1.86-1.08-4.34-4.58-4.4-.98,2.46-2,4.4-3.1,6.1.3.46.66.88,1.12,1.38-.22.28-.4.48-.66.66-.1.08-.24.1-.38-.04-.26-.28-.56-.62-.86-1.02-1.26,1.48-2.38,2.22-3.46,2.22-1.02,0-2.1-.86-2.1-2.88s1.02-3.8,2.86-5.38c-.2-.78-.44-1.82-.64-2.7-.18-.8-.34-1.36-.58-1.86.58.02,1.12.1,1.44.2.24.08.26.2.24.42-.02.28.02.54.08.94.16.86.34,1.7.5,2.34,1.28-.74,3.04-1.32,4.58-1.42.28-.74.5-1.48.68-2.28ZM84.96,71.54c0,1.04.44,1.66.98,1.66.72,0,1.56-.48,2.68-1.94-.7-1.22-1.28-2.58-1.68-3.84-1.22,1.16-1.98,2.74-1.98,4.12ZM89.42,70.26c.72-1.1,1.68-3.06,2.44-5-1.28.12-2.84.68-3.94,1.4.4,1.28.96,2.66,1.5,3.6Z"/>
        <path class="cls-1" d="M114.04,61.1c.08.08.14.18.14.26,0,.12-.08.2-.2.26-.24.1-.44.24-.74.52-1.96,1.78-4.4,4.04-5.9,5.64-.2.2-.28.36-.28.5s.08.24.26.36c2.46,1.82,5.12,3.96,7.72,6.6.14.16.18.2.02.4-.24.28-.56.58-.76.76-.16.12-.24.14-.38-.04-2.6-2.86-5.18-5-7.54-6.78-.54-.42-.78-.78-.78-1.26s.24-.82.7-1.3c1.62-1.72,3.8-3.84,5.58-5.64.4-.42.64-.76.88-1.24.46.3,1,.68,1.28.96ZM114.9,63.78c.06-.04.12-.04.2.02.8.56,1.68,1.54,2.26,2.42.06.08.04.16-.04.22l-.58.48c-.1.08-.2.06-.26-.04-.58-.98-1.42-1.92-2.32-2.56l.74-.54ZM116.56,62.48c.08-.06.14-.08.22-.02.8.62,1.7,1.5,2.28,2.34.06.1.04.16-.06.24l-.54.48c-.08.08-.16.08-.24-.04-.5-.82-1.36-1.8-2.3-2.5l.64-.5Z"/>
        <path class="cls-1" d="M127.99,60.74c.18.1.26.18.26.3,0,.1-.04.2-.08.26-.16.22-.28.42-.36.78-.38,1.86-.56,3.52-.6,4.6-.02.76-.02,1.58.08,2.26.42-.84,1.02-1.98,1.48-2.88.12.38.26.62.4.82.14.22.1.34-.02.54-.52.92-.98,1.9-1.26,2.64-.12.32-.14.46-.14.64.02.18-.02.24-.14.28-.18.04-.62.1-.96.14-.1,0-.16-.08-.2-.2-.3-.82-.5-2.2-.5-3.74,0-1.22.22-3.08.46-4.7.12-.84.22-1.48.18-2.22.56.12,1.06.3,1.4.48ZM134.31,60.54c.3.06.34.2.3.4-.06.22-.06.56-.04.94.16,2.22.24,3.88.24,5.3,0,2.86-.5,5.02-1.64,6.56-.8,1.1-1.86,2.08-3.3,2.9-.2.12-.34.12-.52-.04-.26-.22-.66-.46-1.02-.56,1.62-.86,2.62-1.58,3.48-2.74,1.12-1.5,1.64-3.2,1.64-6.06,0-1.38-.08-3.28-.2-4.76-.08-.96-.2-1.48-.4-2.1.56.02,1.1.06,1.46.16Z"/>
        <path class="cls-1" d="M152.79,68.64c-.18,1.84-.82,3.64-1.72,4.62.9,1,1.52,1.22,2.82,1.22l-.38,1.22h-.4c-1.46,0-2.18-.36-3.1-1.38-1.08.98-2.36,1.42-4.02,1.42-2.78,0-4.72-1.78-4.72-4.26,0-2.1,1.02-3.4,3.22-4.42-.78-1.2-1.1-2.06-1.1-3.12,0-1.82,1.42-3.2,3.38-3.2s3.28,1.16,3.28,3c0,1.72-1.04,2.9-3.64,3.7,1.12,1.72,2.56,3.62,3.8,5.02.74-1.1,1.02-2.48,1.16-4.16l1.42.34ZM142.81,71.34c0,1.82,1.46,3.18,3.4,3.18,1.26,0,2.22-.32,3-1.04-1.36-1.54-2.96-3.68-4.14-5.54-1.64.84-2.26,1.8-2.26,3.4ZM148.57,63.68c0-1.04-.72-1.78-1.8-1.78s-1.9.8-1.9,1.98c0,.86.24,1.52.98,2.68,2.1-.74,2.72-1.56,2.72-2.88Z"/>
        <path class="cls-1" d="M165.26,63.94c0,1.24.04,1.74.04,1.84,0,.14-.02.16-.16.16-.1,0-.6-.04-2-.04h-3.62v6.98c0,2.86.04,4.04.04,4.16,0,.14-.02.16-.16.16h-.94c-.14,0-.16-.02-.16-.16,0-.12.04-1.3.04-4.16v-8.66c0-2.86-.04-4.08-.04-4.2,0-.14.02-.16.16-.16.12,0,.78.04,2.26.04h2.42c1.4,0,1.9-.04,2-.04.14,0,.16.02.16.16,0,.12-.04.62-.04,1.84v2.08ZM164.12,60.88h-4.6v1.52h4.6v-1.52ZM164.12,63.36h-4.6v1.58h4.6v-1.58ZM171.9,71.9c0,.14-.02.16-.16.16-.1,0-.76-.04-2.72-.04h-.28v2.14c0,1.48.04,2.08.04,2.2,0,.14-.02.16-.16.16h-.88c-.14,0-.16-.02-.16-.16,0-.12.04-.72.04-2.2v-2.14h-2.84c-.14,1.04-.28,1.56-.6,2.28-.38.84-.98,1.62-1.78,2.26-.12.1-.2.16-.26.16-.08,0-.16-.08-.32-.24-.22-.22-.46-.38-.7-.48.86-.5,1.56-1.18,2-2.08.3-.6.48-1.24.52-1.9h-.12c-1.96,0-2.6.04-2.72.04-.14,0-.16-.02-.16-.16v-.74c0-.14.02-.16.16-.16.12,0,.76.04,2.72.04h.2c.02-.62.06-1.4.06-2.38-1.6,0-2.18.04-2.24.04-.16,0-.18-.02-.18-.16v-.74c0-.14.02-.16.18-.16.08,0,.7.04,2.58.04h4.44c1.88,0,2.5-.04,2.6-.04.12,0,.14.02.14.16v.74c0,.14-.02.16-.14.16-.1,0-.7-.04-2.42-.04v2.38h.28c1.96,0,2.62-.04,2.72-.04.14,0,.16.02.16.16v.74ZM167.62,68.66h-2.7c0,.94-.02,1.72-.06,2.38h2.76v-2.38ZM174.36,72.12c0,1.1.06,2.14.06,2.9,0,.88-.14,1.22-.52,1.52-.38.32-.82.4-2.42.4-.38,0-.36,0-.46-.38-.1-.38-.2-.62-.36-.88.52.06.98.08,1.46.08.88,0,1.06-.16,1.06-.96v-8.9h-3.66c-1.56,0-2.06.04-2.16.04-.16,0-.18-.02-.18-.16,0-.1.04-.48.04-1.72v-2.32c0-1.22-.04-1.6-.04-1.72,0-.14.02-.16.18-.16.1,0,.6.04,2.16.04h2.56c1.54,0,2.06-.04,2.16-.04.14,0,.16.02.16.16,0,.12-.04.92-.04,2.86v9.24ZM173.18,60.88h-4.82v1.52h4.82v-1.52ZM173.18,63.36h-4.82v1.58h4.82v-1.58Z"/>
        <path class="cls-1" d="M183.26,73.26c.4.98.86,1.5,1.78,1.92.72.32,2.24.52,4.14.52,2.56,0,5.32-.12,8.28-.4-.2.24-.32.52-.36.82q-.08.4-.48.44c-2.58.16-4.98.24-7,.24-2.28,0-4.06-.22-5.02-.66-.92-.42-1.44-1.02-1.9-1.96-.62.66-1.32,1.28-2.12,1.92-.24.18-.38.32-.44.42-.08.12-.16.18-.24.18s-.16-.06-.24-.18c-.2-.32-.38-.62-.56-1.02.52-.26.82-.44,1.24-.74.58-.42,1.18-.94,1.76-1.58v-5h-1.42c-1.02,0-1.28.04-1.36.04-.16,0-.18-.02-.18-.18v-.86c0-.14.02-.16.18-.16.08,0,.34.04,1.36.04h1.04c1.04,0,1.32-.04,1.42-.04.14,0,.16.02.16.16,0,.1-.04.62-.04,1.9v4.18ZM180.56,60.14c.22-.14.24-.16.36-.04.82.8,1.56,1.72,2.28,2.8.08.12.06.16-.14.32l-.48.38c-.26.18-.28.18-.38.02-.68-1.12-1.44-2.1-2.22-2.88-.12-.1-.1-.12.12-.28l.46-.32ZM196.49,61.7c0,1.54.04,1.72.04,1.84s-.02.14-.16.14h-.86c-.14,0-.16-.02-.16-.14v-2.34h-10.12v2.34c0,.12-.02.14-.16.14h-.84c-.14,0-.16-.02-.16-.14s.04-.3.04-1.84v-.5c0-.52-.04-.76-.04-.88,0-.14.02-.16.16-.16.1,0,.82.04,2.84.04h6.46c2.02,0,2.74-.04,2.84-.04.14,0,.16.02.16.16,0,.12-.04.36-.04.78v.6ZM196.43,72.86c0,.14-.02.16-.16.16-.1,0-.78-.04-2.8-.04h-2.8v.08c0,1.14.04,1.58.04,1.7s-.02.16-.16.16h-.84c-.12,0-.16-.04-.16-.16s.04-.56.04-1.7v-.08h-2.48c-2,0-2.68.04-2.8.04-.14,0-.16-.02-.16-.16v-.74c0-.14.02-.16.16-.16.12,0,.8.04,2.8.04h2.48v-1.26h-1.44c-1.84,0-2.48.04-2.6.04s-.14-.02-.14-.16c0-.12.02-.52.02-1.7v-1.98c0-1.18-.02-1.58-.02-1.68,0-.14.02-.16.14-.16s.76.04,2.6.04h1.44v-1.22h-1.42c-1.58,0-2.18.04-2.28.04-.14,0-.16-.02-.16-.16v-.7c0-.14.02-.16.16-.16.1,0,.7.04,2.28.04h1.42c0-.48-.04-.92-.12-1.34.46.02.76.04,1.18.1.12.02.22.06.22.14,0,.1-.02.16-.08.28-.08.16-.12.34-.12.74v.08h1.74c1.58,0,2.18-.04,2.28-.04.14,0,.16.02.16.16v.7c0,.14-.02.16-.16.16-.1,0-.7-.04-2.28-.04h-1.74v1.22h1.68c1.84,0,2.48-.04,2.6-.04.14,0,.16.02.16.16,0,.1-.04.5-.04,1.68v1.98c0,1.18.04,1.58.04,1.7,0,.14-.02.16-.16.16-.12,0-.76-.04-2.6-.04h-1.68v1.26h2.8c2.02,0,2.7-.04,2.8-.04.14,0,.16.02.16.16v.74ZM189.58,66.02h-3.1v1.42h3.1v-1.42ZM189.58,68.3h-3.1v1.56h3.1v-1.56ZM193.99,66.02h-3.32v1.42h3.32v-1.42ZM193.99,68.3h-3.32v1.56h3.32v-1.56Z"/>
        <path class="cls-1" d="M212.48,62.42c.68,0,.9-.02,1.14-.16.12-.08.26-.04.4.06.28.22.58.52.82.82.12.16.08.3-.1.46-.2.16-.38.4-.58.74-.88,1.5-1.9,2.98-2.96,4.3,2.06,1.5,3.92,3.1,5.74,5.02.18.16.18.22.02.42-.22.26-.48.5-.72.72-.14.12-.22.12-.36-.04-1.68-1.92-3.58-3.62-5.52-5.08-2.28,2.36-4.68,4.22-7.14,5.58-.22.12-.34.14-.5-.04-.26-.3-.62-.5-1.04-.72,3.02-1.5,5.38-3.34,7.36-5.42,1.3-1.38,2.62-3.16,3.8-5.36h-6.02c-1.12,0-1.98.06-2.88.12-.18,0-.2-.06-.24-.22-.06-.28-.12-.88-.12-1.28.98.08,1.86.08,3.1.08h5.8Z"/>
        <path class="cls-1" d="M226.33,68.94c.32.2.26.32.02.56-.14.14-.3.32-.54.78-.48.92-1.24,2.14-2.06,3.08-.18.2-.3.26-.54.12-.32-.2-.68-.36-1.04-.44,1.18-1.18,1.86-2.26,2.36-3.28.22-.44.38-.92.46-1.46.5.18.94.38,1.34.64ZM229.82,63.46c0-1.12-.06-2.1-.22-2.76.62.04,1.3.12,1.66.22.28.08.32.3.16.56-.16.26-.2.9-.2,2.08v1.22h2.6c1.44,0,2.92-.04,4.1-.1.18-.02.24.06.24.24,0,.28,0,.62-.02.9,0,.2-.04.28-.24.28-1.3-.06-2.86-.08-4.14-.08h-2.54v3.48c0,1.7.06,3.02.06,4.3,0,.86-.3,1.5-1,1.84-.72.36-1.66.54-2.3.58-.16.02-.28-.06-.34-.24-.18-.44-.44-.8-.84-1.12,1.02,0,1.92-.14,2.48-.36.42-.16.54-.42.54-1.16v-7.32h-3.2c-1.12,0-2.36.06-3.42.14-.18.02-.24-.08-.26-.28-.02-.24-.08-.86-.08-1.24,1.42.12,2.62.14,3.72.14h3.24v-1.32ZM235.14,68.52c.14-.1.24-.06.38.06,1.06.94,1.98,2.2,2.8,3.62.12.22.08.3-.08.46-.2.18-.5.42-.76.58-.16.1-.26.1-.34-.08-.68-1.38-1.68-2.84-2.88-4,.32-.24.6-.44.88-.64ZM239.02,61.6c0,1.12-.9,2.02-2.02,2.02s-2.02-.9-2.02-2.02.9-2.02,2.02-2.02,2.02.9,2.02,2.02ZM235.74,61.6c0,.7.56,1.26,1.26,1.26s1.26-.56,1.26-1.26-.56-1.26-1.26-1.26-1.26.56-1.26,1.26Z"/>
        <path class="cls-1" d="M245.36,65.96c.16-.08.24-.04.36.1.66.84,1.2,1.72,1.64,2.8.08.2.08.24-.1.36-.26.16-.5.26-.76.36-.18.08-.26,0-.32-.16-.42-1-1.02-2.12-1.72-2.98.36-.2.66-.36.9-.48ZM256.04,65.98c.18.14.2.32.02.48-.2.18-.34.44-.58.96-.86,1.96-1.82,3.74-2.94,5.16-1.24,1.6-2.4,2.7-4.04,3.8-.14.1-.32.14-.44.02-.3-.24-.62-.4-1.04-.5,2.08-1.36,3.24-2.4,4.48-3.98,1.08-1.38,2.08-3.2,2.72-4.92.18-.52.26-.96.34-1.64.5.14,1.16.38,1.48.62ZM249.28,65.04c.14-.06.24-.04.34.12.56.76,1.12,1.78,1.5,2.78.06.16.02.24-.14.32-.22.12-.5.26-.8.38-.14.06-.2,0-.28-.18-.42-1.1-.86-2.04-1.54-2.96.42-.22.68-.36.92-.46Z"/>
        <path class="cls-1" d="M266.59,65.98c2.3.66,4.52,1.6,6.52,2.78.16.08.2.18.14.32-.14.36-.32.72-.48.98-.12.16-.2.2-.38.08-1.86-1.22-4-2.16-5.82-2.68v4.64c0,1.22.04,2.78.06,4.08.02.2-.04.26-.26.26-.3.02-.7.02-1.02,0-.22,0-.28-.06-.28-.28.06-1.28.08-2.84.08-4.06v-8.9c0-1.5-.08-2.52-.22-3.2.7.06,1.3.14,1.66.26.32.08.24.3.14.6-.12.34-.14.94-.14,2.22v2.9Z"/>
      </g>
    </g>
  </g>
</svg>