<?xml version="1.0" encoding="UTF-8"?>
<svg id="_レイヤー_2" data-name="レイヤー 2" xmlns="http://www.w3.org/2000/svg" viewBox="0 0 225.67 73.34">
  <defs>
    <style>
      .cls-1 {
        fill: #b58e48;
      }
    </style>
  </defs>
  <g id="_レイヤー_1-2" data-name="レイヤー 1">
    <g>
      <path d="M43.78,64.95c0-.72,0-1.8.04-2.74-.54.82-1.14,1.64-1.8,2.42-.1.12-.18.2-.24.2s-.12-.08-.18-.2c-.16-.36-.32-.6-.52-.8,1.98-2.24,3.28-4.52,4.14-7.14.16-.5.26-.94.28-1.34.5.14.88.28,1.24.44.16.08.2.14.2.24s-.06.18-.16.28c-.12.12-.22.28-.4.74-.4,1.06-.86,2.12-1.4,3.16v9.84c0,2.12.04,3.02.04,3.12,0,.14-.02.16-.16.16h-.96c-.14,0-.16-.02-.16-.16,0-.1.04-1,.04-3.12v-5.1ZM53.53,61.05c1.58,3.06,3.22,5,6.22,7.46-.24.22-.44.46-.6.74-.1.18-.16.26-.22.26s-.14-.06-.28-.2c-2.88-2.62-4.22-4.4-5.66-7.56l.08,6.66h.96c1.64,0,2.16-.04,2.26-.04.14,0,.16.02.16.16v.84c0,.14-.02.16-.16.16-.1,0-.62-.04-2.26-.04h-.96c.04,2.1.06,3.5.06,3.66,0,.14-.02.16-.16.16h-.96c-.16,0-.18-.02-.18-.16,0-.16.04-1.56.06-3.66h-.76c-1.66,0-2.16.04-2.28.04-.14,0-.16-.02-.16-.16v-.84c0-.14.02-.16.16-.16.12,0,.62.04,2.28.04h.78l.08-6.68c-1.28,3.24-2.86,5.32-5.42,7.54-.14.12-.22.18-.28.18s-.12-.06-.24-.22c-.18-.26-.38-.46-.62-.62,2.6-2.1,4.52-4.28,5.9-7.56h-1.84c-2.02,0-2.68.04-2.8.04-.14,0-.16-.02-.16-.16v-.88c0-.14.02-.16.16-.16.12,0,.78.04,2.8.04h2.4v-2.04c0-1.2-.02-1.8-.14-2.42.48.02.94.06,1.32.12.16.02.26.08.26.16,0,.14-.08.24-.14.38-.08.22-.1.6-.1,1.74v2.06h3.24c2.02,0,2.7-.04,2.82-.04s.14.02.14.16v.88c0,.14-.02.16-.14.16s-.8-.04-2.82-.04h-2.8Z"/>
      <path d="M64.92,67.03c.22.04.24.08.24.24-.12,1.58-.38,2.88-.88,4.18-.06.14-.08.14-.28.02l-.36-.2c-.24-.14-.26-.2-.2-.36.44-1.06.72-2.34.84-3.86.02-.18.02-.16.28-.1l.36.08ZM71.28,56.97c0,.12-.02.14-.16.14-.12,0-.58-.04-1.92-.04h-.74v1.96h.08c1.32,0,1.7-.04,1.8-.04.14,0,.16.02.16.14v.7c0,.14-.02.16-.16.16-.1,0-.48-.04-1.82-.04h-.06v1.96h.08c1.32,0,1.7-.04,1.8-.04.14,0,.16.02.16.16v.68c0,.14-.02.16-.16.16-.1,0-.48-.04-1.8-.04h-.08v2.1h.68c1.3,0,1.7-.04,1.8-.04.14,0,.18.04.18.18-.06.44-.08.9-.08,1.3-.16,3.16-.4,4.86-.76,5.72-.34.74-.92,1.02-1.62,1.02-.36,0-.78-.02-1.18-.06q-.28-.04-.34-.42c-.06-.3-.16-.56-.26-.8.64.12,1.14.18,1.54.18.48,0,.72-.14.96-.58.3-.58.52-2.3.62-5.56h-3.4c-1.44,0-1.94.04-2.08.04s-.16-.02-.16-.16c0-.12.04-.76.04-2.42v-4.72c0-1.62-.04-2.3-.04-2.42,0-.14.02-.16.16-.16s.64.04,2.08.04h2.6c1.34,0,1.8-.04,1.92-.04.14,0,.16.02.16.16v.78ZM67.44,57.07h-2v1.96h2v-1.96ZM67.44,59.95h-2v1.96h2v-1.96ZM67.44,62.83h-2v2.1h2v-2.1ZM66.08,67.05c.22-.04.24-.04.26.08.22,1.14.36,2.14.42,3.28,0,.12,0,.18-.2.24l-.36.1c-.26.08-.28.06-.28-.06-.04-1.2-.14-2.3-.32-3.34-.04-.18-.04-.2.16-.24l.32-.06ZM67.32,66.95c.18-.06.22-.06.26.06.26.78.48,1.8.62,2.72.02.12,0,.18-.18.26l-.26.12c-.24.12-.26.12-.28-.06-.12-1-.32-1.96-.58-2.8-.04-.14-.02-.14.2-.22l.22-.08ZM68.46,66.73c.14-.06.18-.06.24.06.3.62.54,1.38.72,2.04.04.14,0,.16-.14.22l-.22.1c-.2.1-.26.1-.28-.04-.16-.72-.38-1.46-.68-2.08-.06-.14-.04-.14.12-.2l.24-.1ZM76.76,67.61c1.02,1.96,2.8,3.4,5.18,4.36-.2.18-.44.44-.6.74-.12.22-.18.3-.26.3s-.16-.06-.32-.14c-2.12-1.12-3.68-2.68-4.68-4.52l-.06.2c-.62,1.74-2.34,3.48-4.42,4.52-.16.08-.26.14-.34.14s-.16-.08-.28-.26c-.18-.26-.42-.48-.64-.6,2.16-.86,4.04-2.5,4.74-4.36l.12-.38h-.68c-1.7,0-2.28.04-2.4.04-.14,0-.16-.02-.16-.16,0-.1.04-.42.04-1.46v-1.44c0-1.04-.04-1.36-.04-1.48,0-.14.02-.16.16-.16.12,0,.7.04,2.4.04h1.06v-1.74h-.28c-1.36,0-1.76.04-1.86.04-.14,0-.16-.02-.16-.14v-.7c0-.14.02-.16.16-.16.1,0,.5.04,1.86.04h1.88c1.36,0,1.74-.04,1.86-.04.14,0,.16.02.16.16v.7c0,.12-.02.14-.16.14-.12,0-.5-.04-1.86-.04h-.5v1.74h1.2c1.7,0,2.28-.04,2.4-.04.14,0,.16.02.16.16,0,.12-.04.44-.04,1.48v1.44c0,1.04.04,1.36.04,1.46,0,.14-.02.16-.16.16-.12,0-.7-.04-2.4-.04h-1.12ZM81.68,61.09c-.1.2-.14.28-.24.28-.08,0-.16-.04-.3-.1-2.08-1.1-3.82-2.68-5.04-4.48-1.2,1.9-2.74,3.36-4.62,4.54-.14.1-.24.14-.3.14-.1,0-.14-.08-.26-.3-.14-.22-.34-.48-.52-.62,1.86-.88,3.54-2.4,4.66-4.22.26-.42.42-.78.52-1.18.42.06.78.16,1.12.26.16.06.24.12.24.22,0,.08-.02.16-.12.22-.08.04-.14.06-.18.1,1.5,1.98,3.2,3.38,5.52,4.38-.2.18-.32.4-.48.76ZM73.06,63.91v2.78h2.36c.12-.74.14-1.6.16-2.78h-2.52ZM79.34,63.91h-2.68c-.02,1.2-.06,2.04-.16,2.78h2.84v-2.78Z"/>
      <path d="M97.01,59.51c-3,.48-5.6.9-8.12,1.42-.72.14-.96.22-1.2.34-.14.06-.26.14-.38.14s-.22-.08-.28-.18c-.2-.4-.38-.88-.56-1.42.72,0,1.24-.06,2.48-.24,2.98-.48,7.04-1.08,12.4-1.74.2-.02.3.04.34.16.06.26.12.74.12,1,0,.18-.06.22-.26.24-1.08.06-1.88.18-2.92.6-2.92,1.16-5.16,3.62-5.16,6.3,0,3.32,2.9,4.3,5.82,4.54.26.02.32.06.32.22,0,.22-.06.68-.12.96-.04.22-.1.3-.32.28-3.38-.3-7.02-1.74-7.02-5.78,0-2.82,1.74-5.14,4.88-6.8l-.02-.04ZM99.45,62.33c.06-.04.12-.04.2.02.8.56,1.68,1.54,2.26,2.42.06.08.04.16-.04.22l-.58.48c-.1.08-.2.06-.26-.04-.58-.98-1.42-1.92-2.32-2.56l.74-.54ZM101.11,61.03c.08-.06.14-.08.22-.02.8.62,1.7,1.5,2.28,2.34.06.1.04.16-.06.24l-.54.48c-.08.08-.16.08-.24-.04-.5-.82-1.36-1.8-2.3-2.5l.64-.5Z"/>
      <path d="M113.41,57.45c-.18-.56-.34-.88-.66-1.28.58-.1,1.18-.14,1.56-.14.2,0,.34.1.34.24,0,.08-.04.2-.04.32,0,.18.04.36.16.84.14.52.26.88.38,1.3,1.42-.3,2.82-.62,4.42-1.16.12-.04.18-.06.22.08.08.24.14.52.18.74.02.16-.04.24-.18.28-1.48.46-2.88.8-4.3,1.12.24.72.56,1.48.94,2.26,1.48-.3,2.76-.66,3.98-1.14.16-.06.22-.04.28.1.08.26.14.5.18.76.02.14,0,.22-.16.28-1.22.4-2.54.76-3.8,1.04.78,1.46,1.88,3.04,3.12,4.08.12.12.16.18.08.34-.12.28-.3.56-.48.78-.16.18-.26.2-.44.04-.4-.28-.92-.52-1.42-.72-1.06-.4-2.24-.6-3.82-.6-2.08,0-3.42.6-3.42,1.98,0,1.54,1.88,2.1,5.06,2.1.72,0,1.38-.06,2.04-.12.16-.02.18.08.16.22-.04.28-.12.66-.22.96-.04.16-.08.22-.26.24-.52.04-1,.08-1.76.08-4,0-6.3-1.08-6.3-3.38,0-1.96,1.7-3.16,4.62-3.16,1.7,0,3.12.24,4.14.74-.78-.86-1.52-1.96-2.26-3.32-2.02.36-3.92.6-5.78.66-.16,0-.18-.02-.24-.2-.08-.24-.16-.64-.18-.94,2.06-.06,3.88-.26,5.7-.6-.32-.68-.66-1.46-.98-2.26-1.62.3-3.48.52-5.26.58-.16,0-.22-.02-.26-.2-.04-.16-.12-.56-.18-.92,1.9-.02,3.9-.26,5.36-.48-.16-.46-.3-.9-.52-1.54Z"/>
      <path d="M131.6,64.39c1.44-.94,2.86-1.42,4.3-1.42,2.88,0,4.66,1.78,4.66,4.38,0,2.98-2.36,5.14-6.6,5.14-2.4,0-3.48-1.08-3.48-2.36,0-1.04.92-2.04,2.34-2.04,1.8,0,3.02,1.16,3.4,2.86,1.72-.56,2.92-1.68,2.92-3.64s-1.56-3.28-3.46-3.28-3.96,1.02-5.5,2.26c-.64.5-1.16,1.04-1.76,1.64-.16.16-.26.18-.4.04-.24-.24-.54-.54-.74-.8-.08-.1-.06-.18.08-.3,1.58-1.38,2.6-2.4,4.52-4.46,1.16-1.26,2.36-2.54,3.9-4.36-1.66.26-3.22.56-5,.9-.26.04-.5.1-.7.18-.14.06-.3.1-.38.1-.14,0-.24-.08-.32-.24-.18-.36-.32-.74-.48-1.38.66.08,1.22.08,1.76.02,1.58-.16,3.22-.38,4.98-.72.24-.04.48-.1.62-.18.08-.06.2-.14.28-.14.1,0,.2.04.36.16.38.3.68.6.86.84.1.12.14.24.14.34,0,.16-.1.3-.3.38-.26.08-.48.22-.94.7-1.78,1.88-3.12,3.28-5.12,5.32l.06.06ZM132.86,69.17c-.64,0-1.22.32-1.22.94,0,.66.72,1.22,2.06,1.22.44,0,.84-.02,1.3-.1-.26-1.14-1-2.06-2.14-2.06Z"/>
      <path d="M149.1,65.79c.12.06.14.14.06.26-.26.42-.54,1-.54,1.56,0,1.64,1.84,2.44,5.12,2.44,2.34,0,4.24-.22,5.74-.58.18-.04.24-.02.28.14.06.22.14.72.18,1.04.02.16-.06.22-.26.26-1.56.32-3.32.52-6.06.52-3.88,0-6.22-1.18-6.22-3.76,0-.86.32-1.62.82-2.36.28.14.6.32.88.48ZM153.78,58.31c1.44,0,3.04-.06,4.42-.18.18-.02.26.04.28.18.04.26.06.54.06.9,0,.22-.08.28-.28.3-1.68.24-3.52,1.16-5.18,2.28-.18.14-.38.16-.56.04-.24-.18-.5-.32-.82-.4,1.26-.86,2.4-1.5,3.44-2-.66.06-1.54.08-2.16.08-1.3,0-2.84-.1-4.06-.36-.12-.02-.18-.08-.18-.28,0-.26.02-.68.04-1.02,1.34.3,3.08.46,5,.46Z"/>
      <path d="M170.89,56.41c.16.04.24.16.24.26,0,.2-.1.38-.1.7.02.44.06.84.12,1.28.18,1.44.42,2.78.78,4.04,1.18-.58,2.38-1.14,3.56-1.8.64-.36.88-.56,1.16-.92.4.38.76.76,1.02,1.12.16.24.12.52-.24.56-.5.08-1.16.36-1.76.64-1.46.68-3.18,1.5-4.54,2.28-2.02,1.18-2.96,2.22-2.96,3.62,0,1.78,1.68,2.22,4.7,2.2,1.86-.02,3.66-.2,5.14-.42.18-.02.24.02.28.18.06.32.1.7.12,1.04.02.18-.06.26-.28.28-1.64.18-3.08.28-5.32.28-3.46,0-5.96-.76-5.96-3.5,0-1.92,1.36-3.4,3.9-4.94-.44-1.48-.86-3.54-1.06-5.12-.12-.92-.22-1.42-.44-1.96.6.02,1.22.08,1.64.18Z"/>
    </g>
    <g>
      <path class="cls-1" d="M3.6,30.33V1.98H0v-.45h21.82v6.48h-.45V1.98h-12.82v13.72h10.57v-3.92h.45v8.28h-.45v-3.91h-10.57v14.17h13.27v-6.03h.45v6.48H0v-.45h3.6Z"/>
      <path class="cls-1" d="M43.48,30.33l-6.03-8.77-6.79,8.77h3.46v.45h-6.66v-.45h2.52l7.11-9.18-7.6-10.98h-2.25v-.45h10.84v.45h-3.02l5.85,8.42,6.43-8.42h-3.06v-.45h6.12v.45h-2.39l-6.75,8.82,7.83,11.34h2.38v.45h-10.66v-.45h2.66Z"/>
      <path class="cls-1" d="M56.78,39.33V10.17h-2.61v-.45h7.38v4.63c.85-3.46,3.42-5.08,6.57-5.08,5.26,0,9.49,2.79,9.49,11.02s-4.23,10.98-9.49,10.98c-3.15,0-5.71-1.58-6.57-5.04v13.09h2.65v.45h-10.03v-.45h2.61ZM72.44,22v-3.46c0-6.17-1.84-8.42-5.22-8.42-2.65,0-5.67,1.49-5.67,7.79v4.72c0,6.3,3.02,7.83,5.67,7.83,3.38,0,5.22-2.29,5.22-8.46Z"/>
      <path class="cls-1" d="M81.86,20.29c0-7.7,4.41-11.02,9.99-11.02,5.94,0,9.67,2.65,9.67,9.45,0,.76-.04,1.04-.04,1.04h-14.49v1.89c0,6.39,2.34,9.13,6.43,9.13s6.39-1.84,7.02-3.96h.45c-.63,2.38-3.02,4.46-7.74,4.46-7.02,0-11.29-3.33-11.29-10.98ZM96.4,17.37c0-5.85-1.57-7.6-4.54-7.6-2.79,0-4.86,2.07-4.86,7.6v1.93h9.4v-1.93Z"/>
      <path class="cls-1" d="M106.67,30.33v-13.81c0-4.63,2.83-7.29,7.92-7.29,3.33,0,5.04,1.39,5.8,4.05h-.45c-.72-2.39-2.29-3.46-4.59-3.46-2.56,0-3.91,1.8-3.91,5.53v14.98h3.15v.45h-10.57v-.45h2.65Z"/>
      <path class="cls-1" d="M125.47,30.33V10.17h-2.61v-.45h7.38v20.61h2.61v.45h-9.99v-.45h2.61ZM124.75,2.79c0-1.57.99-2.79,2.97-2.79s2.97,1.21,2.97,2.79-.99,2.83-2.97,2.83-2.97-1.21-2.97-2.83Z"/>
      <path class="cls-1" d="M135.66,20.29c0-7.7,4.41-11.02,9.99-11.02,5.94,0,9.67,2.65,9.67,9.45,0,.76-.04,1.04-.04,1.04h-14.49v1.89c0,6.39,2.34,9.13,6.43,9.13s6.39-1.84,7.02-3.96h.45c-.63,2.38-3.02,4.46-7.74,4.46-7.02,0-11.29-3.33-11.29-10.98ZM150.2,17.37c0-5.85-1.58-7.6-4.54-7.6-2.79,0-4.86,2.07-4.86,7.6v1.93h9.4v-1.93Z"/>
      <path class="cls-1" d="M175.08,30.33v-14.49c0-3.78-1.26-5.71-4.37-5.71s-5.17,1.98-5.17,6.25v13.95h2.61v.45h-9.99v-.45h2.61V10.17h-2.61v-.45h7.38v3.74c.77-2.66,3.06-4.18,6.3-4.18,5.94,0,8.01,2.56,8.01,7.83v13.23h2.66v.45h-10.12v-.45h2.7Z"/>
      <path class="cls-1" d="M185.22,20.29c0-8.23,4.54-11.02,10.53-11.02,4.14,0,6.3,2.02,6.79,4.41h-.45c-.5-2.11-2.43-3.87-6.12-3.87-3.87,0-5.58,2.47-5.58,8.73v3.46c0,6.25,1.71,8.73,5.58,8.73s5.71-1.71,6.21-3.87h.45c-.5,2.38-2.75,4.41-6.88,4.41-5.99,0-10.53-2.75-10.53-10.98Z"/>
      <path class="cls-1" d="M206.01,20.29c0-7.7,4.41-11.02,9.99-11.02,5.94,0,9.67,2.65,9.67,9.45,0,.76-.04,1.04-.04,1.04h-14.49v1.89c0,6.39,2.34,9.13,6.43,9.13s6.39-1.84,7.02-3.96h.45c-.63,2.38-3.01,4.46-7.74,4.46-7.02,0-11.29-3.33-11.29-10.98ZM220.54,17.37c0-5.85-1.57-7.6-4.54-7.6-2.79,0-4.86,2.07-4.86,7.6v1.93h9.4v-1.93Z"/>
    </g>
  </g>
</svg>