<?xml version="1.0" encoding="UTF-8"?>
<svg id="_レイヤー_2" data-name="レイヤー 2" xmlns="http://www.w3.org/2000/svg" viewBox="0 0 469.04 120.58">
  <defs>
    <style>
      .cls-1 {
        fill: #b58e48;
      }
    </style>
  </defs>
  <g id="_レイヤー_1-2" data-name="レイヤー 1">
    <g>
      <path d="M150.74,110.52c0-.86,0-2.16.05-3.29-.65.98-1.37,1.97-2.16,2.9-.12.14-.22.24-.29.24s-.14-.1-.22-.24c-.19-.43-.38-.72-.62-.96,2.38-2.69,3.94-5.42,4.97-8.57.19-.6.31-1.13.34-1.61.6.17,1.06.34,1.49.53.19.1.24.17.24.29s-.07.22-.19.34c-.14.14-.26.34-.48.89-.48,1.27-1.03,2.54-1.68,3.79v11.81c0,2.54.05,3.62.05,3.74,0,.17-.02.19-.19.19h-1.15c-.17,0-.19-.02-.19-.19,0-.12.05-1.2.05-3.74v-6.12ZM162.43,105.84c1.9,3.67,3.86,6,7.46,8.95-.29.26-.53.55-.72.89-.12.22-.19.31-.26.31s-.17-.07-.34-.24c-3.46-3.14-5.06-5.28-6.79-9.07l.1,7.99h1.15c1.97,0,2.59-.05,2.71-.05.17,0,.19.02.19.19v1.01c0,.17-.02.19-.19.19-.12,0-.74-.05-2.71-.05h-1.15c.05,2.52.07,4.2.07,4.39,0,.17-.02.19-.19.19h-1.15c-.19,0-.22-.02-.22-.19,0-.19.05-1.87.07-4.39h-.91c-1.99,0-2.59.05-2.74.05-.17,0-.19-.02-.19-.19v-1.01c0-.17.02-.19.19-.19.14,0,.74.05,2.74.05h.94l.1-8.02c-1.54,3.89-3.43,6.38-6.5,9.05-.17.14-.26.22-.34.22s-.14-.07-.29-.26c-.22-.31-.46-.55-.74-.74,3.12-2.52,5.42-5.14,7.08-9.07h-2.21c-2.42,0-3.22.05-3.36.05-.17,0-.19-.02-.19-.19v-1.06c0-.17.02-.19.19-.19.14,0,.94.05,3.36.05h2.88v-2.45c0-1.44-.02-2.16-.17-2.9.58.02,1.13.07,1.58.14.19.02.31.1.31.19,0,.17-.1.29-.17.46-.1.26-.12.72-.12,2.09v2.47h3.89c2.42,0,3.24-.05,3.38-.05s.17.02.17.19v1.06c0,.17-.02.19-.17.19s-.96-.05-3.38-.05h-3.36Z"/>
      <path d="M176.07,113.02c.26.05.29.1.29.29-.14,1.9-.46,3.46-1.06,5.02-.07.17-.1.17-.34.02l-.43-.24c-.29-.17-.31-.24-.24-.43.53-1.27.86-2.81,1.01-4.63.02-.22.02-.19.34-.12l.43.1ZM183.7,100.95c0,.14-.02.17-.19.17-.14,0-.7-.05-2.3-.05h-.89v2.35h.1c1.58,0,2.04-.05,2.16-.05.17,0,.19.02.19.17v.84c0,.17-.02.19-.19.19-.12,0-.58-.05-2.18-.05h-.07v2.35h.1c1.58,0,2.04-.05,2.16-.05.17,0,.19.02.19.19v.82c0,.17-.02.19-.19.19-.12,0-.58-.05-2.16-.05h-.1v2.52h.82c1.56,0,2.04-.05,2.16-.05.17,0,.22.05.22.22-.07.53-.1,1.08-.1,1.56-.19,3.79-.48,5.83-.91,6.87-.41.89-1.1,1.22-1.94,1.22-.43,0-.94-.02-1.42-.07q-.34-.05-.41-.5c-.07-.36-.19-.67-.31-.96.77.14,1.37.22,1.85.22.58,0,.86-.17,1.15-.7.36-.7.62-2.76.74-6.67h-4.08c-1.73,0-2.33.05-2.5.05s-.19-.02-.19-.19c0-.14.05-.91.05-2.9v-5.67c0-1.94-.05-2.76-.05-2.9,0-.17.02-.19.19-.19s.77.05,2.5.05h3.12c1.61,0,2.16-.05,2.3-.05.17,0,.19.02.19.19v.94ZM179.09,101.07h-2.4v2.35h2.4v-2.35ZM179.09,104.52h-2.4v2.35h2.4v-2.35ZM179.09,107.98h-2.4v2.52h2.4v-2.52ZM177.46,113.04c.26-.05.29-.05.31.1.26,1.37.43,2.57.5,3.94,0,.14,0,.22-.24.29l-.43.12c-.31.1-.34.07-.34-.07-.05-1.44-.17-2.76-.38-4.01-.05-.22-.05-.24.19-.29l.38-.07ZM178.95,112.92c.22-.07.26-.07.31.07.31.94.58,2.16.74,3.26.02.14,0,.22-.22.31l-.31.14c-.29.14-.31.14-.34-.07-.14-1.2-.38-2.35-.7-3.36-.05-.17-.02-.17.24-.26l.26-.1ZM180.32,112.66c.17-.07.22-.07.29.07.36.74.65,1.66.86,2.45.05.17,0,.19-.17.26l-.26.12c-.24.12-.31.12-.34-.05-.19-.86-.46-1.75-.82-2.5-.07-.17-.05-.17.14-.24l.29-.12ZM190.28,113.71c1.22,2.35,3.36,4.08,6.22,5.23-.24.22-.53.53-.72.89-.14.26-.22.36-.31.36s-.19-.07-.38-.17c-2.54-1.34-4.42-3.22-5.62-5.42l-.07.24c-.74,2.09-2.81,4.18-5.3,5.42-.19.1-.31.17-.41.17s-.19-.1-.34-.31c-.22-.31-.5-.58-.77-.72,2.59-1.03,4.85-3,5.69-5.23l.14-.46h-.82c-2.04,0-2.74.05-2.88.05-.17,0-.19-.02-.19-.19,0-.12.05-.5.05-1.75v-1.73c0-1.25-.05-1.63-.05-1.78,0-.17.02-.19.19-.19.14,0,.84.05,2.88.05h1.27v-2.09h-.34c-1.63,0-2.11.05-2.23.05-.17,0-.19-.02-.19-.17v-.84c0-.17.02-.19.19-.19.12,0,.6.05,2.23.05h2.26c1.63,0,2.09-.05,2.23-.05.17,0,.19.02.19.19v.84c0,.14-.02.17-.19.17-.14,0-.6-.05-2.23-.05h-.6v2.09h1.44c2.04,0,2.74-.05,2.88-.05.17,0,.19.02.19.19,0,.14-.05.53-.05,1.78v1.73c0,1.25.05,1.63.05,1.75,0,.17-.02.19-.19.19-.14,0-.84-.05-2.88-.05h-1.34ZM196.18,105.89c-.12.24-.17.34-.29.34-.1,0-.19-.05-.36-.12-2.5-1.32-4.58-3.22-6.05-5.38-1.44,2.28-3.29,4.03-5.54,5.45-.17.12-.29.17-.36.17-.12,0-.17-.1-.31-.36-.17-.26-.41-.58-.62-.74,2.23-1.06,4.25-2.88,5.59-5.06.31-.5.5-.94.62-1.42.5.07.94.19,1.34.31.19.07.29.14.29.26,0,.1-.02.19-.14.26-.1.05-.17.07-.22.12,1.8,2.38,3.84,4.06,6.62,5.26-.24.22-.38.48-.58.91ZM185.84,109.27v3.34h2.83c.14-.89.17-1.92.19-3.34h-3.02ZM193.37,109.27h-3.22c-.02,1.44-.07,2.45-.19,3.34h3.41v-3.34Z"/>
      <path d="M214.54,103.99c-3.6.58-6.72,1.08-9.74,1.7-.86.17-1.15.26-1.44.41-.17.07-.31.17-.46.17s-.26-.1-.34-.22c-.24-.48-.46-1.06-.67-1.7.86,0,1.49-.07,2.98-.29,3.58-.58,8.45-1.3,14.88-2.09.24-.02.36.05.41.19.07.31.14.89.14,1.2,0,.22-.07.26-.31.29-1.3.07-2.26.22-3.5.72-3.5,1.39-6.19,4.34-6.19,7.56,0,3.98,3.48,5.16,6.98,5.45.31.02.38.07.38.26,0,.26-.07.82-.14,1.15-.05.26-.12.36-.38.34-4.06-.36-8.42-2.09-8.42-6.94,0-3.38,2.09-6.17,5.86-8.16l-.02-.05ZM217.47,107.38c.07-.05.14-.05.24.02.96.67,2.02,1.85,2.71,2.9.07.1.05.19-.05.26l-.7.58c-.12.1-.24.07-.31-.05-.7-1.18-1.7-2.3-2.78-3.07l.89-.65ZM219.46,105.82c.1-.07.17-.1.26-.02.96.74,2.04,1.8,2.74,2.81.07.12.05.19-.07.29l-.65.58c-.1.1-.19.1-.29-.05-.6-.98-1.63-2.16-2.76-3l.77-.6Z"/>
      <path d="M234.17,101.52c-.22-.67-.41-1.06-.79-1.54.7-.12,1.42-.17,1.87-.17.24,0,.41.12.41.29,0,.1-.05.24-.05.38,0,.22.05.43.19,1.01.17.62.31,1.06.46,1.56,1.7-.36,3.38-.74,5.3-1.39.14-.05.22-.07.26.1.1.29.17.62.22.89.02.19-.05.29-.22.34-1.78.55-3.46.96-5.16,1.34.29.86.67,1.78,1.13,2.71,1.78-.36,3.31-.79,4.78-1.37.19-.07.26-.05.34.12.1.31.17.6.22.91.02.17,0,.26-.19.34-1.46.48-3.05.91-4.56,1.25.94,1.75,2.26,3.65,3.74,4.9.14.14.19.22.1.41-.14.34-.36.67-.58.94-.19.22-.31.24-.53.05-.48-.34-1.1-.62-1.7-.86-1.27-.48-2.69-.72-4.58-.72-2.5,0-4.1.72-4.1,2.38,0,1.85,2.26,2.52,6.07,2.52.86,0,1.66-.07,2.45-.14.19-.02.22.1.19.26-.05.34-.14.79-.26,1.15-.05.19-.1.26-.31.29-.62.05-1.2.1-2.11.1-4.8,0-7.56-1.3-7.56-4.06,0-2.35,2.04-3.79,5.54-3.79,2.04,0,3.74.29,4.97.89-.94-1.03-1.82-2.35-2.71-3.98-2.42.43-4.71.72-6.94.79-.19,0-.22-.02-.29-.24-.1-.29-.19-.77-.22-1.13,2.47-.07,4.66-.31,6.84-.72-.38-.82-.79-1.75-1.18-2.71-1.94.36-4.18.62-6.31.7-.19,0-.26-.02-.31-.24-.05-.19-.14-.67-.22-1.1,2.28-.02,4.68-.31,6.43-.58-.19-.55-.36-1.08-.62-1.85Z"/>
      <path d="M255.93,109.85c1.73-1.13,3.43-1.7,5.16-1.7,3.46,0,5.59,2.14,5.59,5.26,0,3.58-2.83,6.17-7.92,6.17-2.88,0-4.18-1.3-4.18-2.83,0-1.25,1.1-2.45,2.81-2.45,2.16,0,3.62,1.39,4.08,3.43,2.06-.67,3.5-2.02,3.5-4.37s-1.87-3.94-4.15-3.94-4.75,1.22-6.6,2.71c-.77.6-1.39,1.25-2.11,1.97-.19.19-.31.22-.48.05-.29-.29-.65-.65-.89-.96-.1-.12-.07-.22.1-.36,1.9-1.66,3.12-2.88,5.42-5.35,1.39-1.51,2.83-3.05,4.68-5.23-1.99.31-3.86.67-6,1.08-.31.05-.6.12-.84.22-.17.07-.36.12-.46.12-.17,0-.29-.1-.38-.29-.22-.43-.38-.89-.58-1.66.79.1,1.46.1,2.11.02,1.9-.19,3.86-.46,5.98-.86.29-.05.58-.12.74-.22.1-.07.24-.17.34-.17.12,0,.24.05.43.19.46.36.82.72,1.03,1.01.12.14.17.29.17.41,0,.19-.12.36-.36.46-.31.1-.58.26-1.13.84-2.14,2.26-3.74,3.94-6.14,6.38l.07.07ZM257.44,115.59c-.77,0-1.46.38-1.46,1.13,0,.79.86,1.46,2.47,1.46.53,0,1.01-.02,1.56-.12-.31-1.37-1.2-2.47-2.57-2.47Z"/>
      <path d="M276.88,111.53c.14.07.17.17.07.31-.31.5-.65,1.2-.65,1.87,0,1.97,2.21,2.93,6.14,2.93,2.81,0,5.09-.26,6.89-.7.22-.05.29-.02.34.17.07.26.17.86.22,1.25.02.19-.07.26-.31.31-1.87.38-3.98.62-7.27.62-4.66,0-7.46-1.42-7.46-4.51,0-1.03.38-1.94.98-2.83.34.17.72.38,1.06.58ZM282.5,102.55c1.73,0,3.65-.07,5.3-.22.22-.02.31.05.34.22.05.31.07.65.07,1.08,0,.26-.1.34-.34.36-2.02.29-4.22,1.39-6.22,2.74-.22.17-.46.19-.67.05-.29-.22-.6-.38-.98-.48,1.51-1.03,2.88-1.8,4.13-2.4-.79.07-1.85.1-2.59.1-1.56,0-3.41-.12-4.87-.43-.14-.02-.22-.1-.22-.34,0-.31.02-.82.05-1.22,1.61.36,3.7.55,6,.55Z"/>
      <path d="M302.97,100.27c.19.05.29.19.29.31,0,.24-.12.46-.12.84.02.53.07,1.01.14,1.54.22,1.73.5,3.34.94,4.85,1.42-.7,2.86-1.37,4.27-2.16.77-.43,1.06-.67,1.39-1.1.48.46.91.91,1.22,1.34.19.29.14.62-.29.67-.6.1-1.39.43-2.11.77-1.75.82-3.82,1.8-5.45,2.74-2.42,1.42-3.55,2.67-3.55,4.34,0,2.14,2.02,2.66,5.64,2.64,2.23-.02,4.39-.24,6.17-.5.22-.02.29.02.34.22.07.38.12.84.14,1.25.02.22-.07.31-.34.34-1.97.22-3.7.34-6.38.34-4.15,0-7.15-.91-7.15-4.2,0-2.3,1.63-4.08,4.68-5.93-.53-1.78-1.03-4.25-1.27-6.14-.14-1.1-.26-1.7-.53-2.35.72.02,1.46.1,1.97.22Z"/>
    </g>
    <g>
      <path class="cls-1" d="M7.6,64.03V4.18H0v-.95h46.08v13.68h-.95V4.18h-27.08v28.98h22.33v-8.27h.95v17.48h-.95v-8.26h-22.33v29.92h28.03v-12.73h.95v13.68H0v-.95h7.6Z"/>
      <path class="cls-1" d="M90.91,64.03l-12.73-18.53-14.35,18.53h7.31v.95h-14.06v-.95h5.32l15.01-19.38-16.06-23.18h-4.75v-.95h22.9v.95h-6.37l12.35,17.77,13.59-17.77h-6.46v-.95h12.92v.95h-5.04l-14.25,18.62,16.53,23.94h5.03v.95h-22.52v-.95h5.6Z"/>
      <path class="cls-1" d="M118.24,83.03V21.47h-5.51v-.95h15.58v9.79c1.81-7.31,7.22-10.73,13.87-10.73,11.12,0,20.05,5.89,20.05,23.27s-8.93,23.18-20.05,23.18c-6.65,0-12.06-3.33-13.87-10.64v27.64h5.6v.95h-21.19v-.95h5.51ZM151.3,46.46v-7.31c0-13.02-3.9-17.77-11.02-17.77-5.6,0-11.97,3.13-11.97,16.44v9.97c0,13.3,6.37,16.53,11.97,16.53,7.12,0,11.02-4.84,11.02-17.86Z"/>
      <path class="cls-1" d="M170.39,42.84c0-16.25,9.31-23.27,21.09-23.27,12.54,0,20.43,5.6,20.43,19.95,0,1.61-.1,2.18-.1,2.18h-30.59v3.99c0,13.49,4.94,19.29,13.59,19.29s13.49-3.9,14.82-8.36h.95c-1.33,5.04-6.37,9.41-16.34,9.41-14.82,0-23.85-7.03-23.85-23.18ZM201.07,36.67c0-12.35-3.33-16.05-9.6-16.05-5.89,0-10.26,4.37-10.26,16.05v4.08h19.86v-4.08Z"/>
      <path class="cls-1" d="M221.91,64.03v-29.17c0-9.79,5.98-15.39,16.72-15.39,7.03,0,10.64,2.95,12.25,8.55h-.95c-1.52-5.04-4.84-7.32-9.69-7.32-5.42,0-8.27,3.8-8.27,11.69v31.63h6.65v.95h-22.33v-.95h5.6Z"/>
      <path class="cls-1" d="M260.83,64.03V21.47h-5.51v-.95h15.58v43.51h5.51v.95h-21.09v-.95h5.51ZM259.31,5.89c0-3.33,2.09-5.89,6.27-5.89s6.27,2.56,6.27,5.89-2.09,5.99-6.27,5.99-6.27-2.57-6.27-5.99Z"/>
      <path class="cls-1" d="M281.52,42.84c0-16.25,9.31-23.27,21.09-23.27,12.54,0,20.42,5.6,20.42,19.95,0,1.61-.09,2.18-.09,2.18h-30.59v3.99c0,13.49,4.94,19.29,13.59,19.29s13.49-3.9,14.82-8.36h.95c-1.33,5.04-6.37,9.41-16.34,9.41-14.82,0-23.85-7.03-23.85-23.18ZM312.2,36.67c0-12.35-3.33-16.05-9.59-16.05-5.89,0-10.26,4.37-10.26,16.05v4.08h19.86v-4.08Z"/>
      <path class="cls-1" d="M363.88,64.03v-30.59c0-7.98-2.66-12.07-9.21-12.07s-10.92,4.18-10.92,13.21v29.45h5.51v.95h-21.09v-.95h5.51V21.47h-5.51v-.95h15.58v7.89c1.62-5.61,6.46-8.83,13.3-8.83,12.54,0,16.91,5.42,16.91,16.53v27.93h5.61v.95h-21.38v-.95h5.7Z"/>
      <path class="cls-1" d="M384.48,42.84c0-17.38,9.59-23.27,22.23-23.27,8.74,0,13.3,4.27,14.34,9.31h-.95c-1.04-4.46-5.13-8.17-12.92-8.17s-11.78,5.22-11.78,18.43v7.31c0,13.21,3.61,18.43,11.78,18.43s12.07-3.61,13.11-8.17h.95c-1.04,5.03-5.79,9.31-14.54,9.31-12.64,0-22.23-5.79-22.23-23.18Z"/>
      <path class="cls-1" d="M427.52,42.84c0-16.25,9.31-23.27,21.09-23.27,12.54,0,20.43,5.6,20.43,19.95,0,1.61-.1,2.18-.1,2.18h-30.59v3.99c0,13.49,4.94,19.29,13.58,19.29s13.49-3.9,14.82-8.36h.95c-1.33,5.04-6.37,9.41-16.34,9.41-14.82,0-23.84-7.03-23.84-23.18ZM458.21,36.67c0-12.35-3.33-16.05-9.6-16.05-5.89,0-10.26,4.37-10.26,16.05v4.08h19.86v-4.08Z"/>
    </g>
  </g>
</svg>