<?xml version="1.0" encoding="UTF-8"?>
<svg id="_レイヤー_2" data-name="レイヤー 2" xmlns="http://www.w3.org/2000/svg" viewBox="0 0 332.26 112.72">
  <defs>
    <style>
      .cls-1 {
        fill: #b58e48;
      }

      .cls-2 {
        fill: #4d4d4d;
      }
    </style>
  </defs>
  <g id="_レイヤー_1-2" data-name="レイヤー 1">
    <g>
      <path class="cls-1" d="M45.79,61.75l-6.65-18.53H13.96l-6.75,18.53h8.27v.95H0v-.95h6.08L28.12.95h6.65l22.04,60.8h5.7v.95h-24.42v-.95h7.7ZM38.76,42.28L26.6,8.27l-12.35,34.01h24.51Z"/>
      <path class="cls-1" d="M62.82,31.83c0-23.28,12.83-31.83,29.17-31.83,9.88,0,17.39,5.04,19.57,12.35h-.95c-1.9-5.7-8.08-11.4-18.71-11.4s-17.39,7.12-17.39,25.84v10.07c0,18.71,6.46,25.84,17.39,25.84s16.72-5.7,18.71-11.4h.95c-2.18,7.31-9.69,12.35-19.57,12.35-16.34,0-29.17-8.55-29.17-31.82Z"/>
      <path class="cls-1" d="M118.91,31.83c0-23.28,12.82-31.83,29.17-31.83,9.88,0,17.39,5.04,19.57,12.35h-.95c-1.9-5.7-8.07-11.4-18.71-11.4s-17.38,7.12-17.38,25.84v10.07c0,18.71,6.46,25.84,17.38,25.84s16.72-5.7,18.71-11.4h.95c-2.18,7.31-9.69,12.35-19.57,12.35-16.34,0-29.17-8.55-29.17-31.82Z"/>
      <path class="cls-1" d="M180.7,61.75V1.9h-7.6v-.95h46.08v13.68h-.95V1.9h-27.07v28.97h22.32v-8.27h.95v17.48h-.95v-8.26h-22.32v29.92h28.03v-12.73h.95v13.68h-47.03v-.95h7.6Z"/>
      <path class="cls-1" d="M231.32,51.87h.95c1.99,6.84,10.35,10.83,21.47,10.83s16.62-6.84,16.62-15.39c0-6.46-4.08-11.5-13.68-11.5h-8.07c-12.26,0-18.43-6.27-18.43-15.77,0-12.45,10.83-20.04,22.8-20.04,10.26,0,18.72,4.37,21.28,11.78h-.95c-2.47-6.65-10.55-10.83-20.33-10.83-11.02,0-16.15,5.79-16.15,13.3,0,6.84,4.56,10.54,14.54,10.54h7.89c12.06,0,18.05,7.98,18.05,17.48,0,13.02-10.92,21.38-23.65,21.38-11.78,0-20.14-4.18-22.33-11.78Z"/>
      <path class="cls-1" d="M286.28,51.87h.95c2,6.84,10.35,10.83,21.47,10.83s16.62-6.84,16.62-15.39c0-6.46-4.08-11.5-13.68-11.5h-8.07c-12.26,0-18.43-6.27-18.43-15.77,0-12.45,10.83-20.04,22.8-20.04,10.26,0,18.71,4.37,21.28,11.78h-.95c-2.47-6.65-10.54-10.83-20.33-10.83-11.02,0-16.15,5.79-16.15,13.3,0,6.84,4.56,10.54,14.54,10.54h7.89c12.07,0,18.05,7.98,18.05,17.48,0,13.02-10.92,21.38-23.66,21.38-11.78,0-20.14-4.18-22.33-11.78Z"/>
    </g>
    <g>
      <path class="cls-2" d="M131.53,96.59c-1.9,0-3.31.1-4.46.22-.26.02-.36-.07-.41-.26-.1-.41-.22-1.15-.26-1.66,1.46.14,2.88.17,4.94.17h9.99c1.34,0,1.58-.07,1.8-.14.12-.05.26-.1.36-.1.12,0,.24.07.36.17.34.29.62.58.89.94.19.24.17.5-.12.7-.21.12-.38.38-.53.6-1.1,1.66-2.74,3.34-4.58,4.73-.19.14-.43.14-.62-.02-.36-.29-.74-.46-1.25-.6,2.06-1.32,3.72-2.9,4.87-4.73h-10.97ZM133.11,106.53c.89-1.85,1.2-3.77,1.2-5.9,0-.79-.07-1.34-.21-1.99.7.05,1.44.17,1.9.34.38.14.38.41.24.7-.12.22-.19.5-.19,1.18,0,2.04-.38,4.42-1.37,6.38-.94,1.87-2.62,3.55-4.51,4.75-.24.14-.5.19-.72,0-.34-.31-.77-.55-1.3-.74,2.35-1.22,4.06-2.78,4.97-4.7Z"/>
      <path class="cls-2" d="M161.87,96.76c.72-.02.94-.07,1.2-.26.17-.12.36-.07.62.1.29.19.67.5.96.79s.24.53.05.72c-.24.22-.43.43-.62.84-1.46,3.12-3,5.62-4.63,7.49-2.16,2.47-4.73,4.63-7.49,6.22-.19.12-.36.07-.53-.07-.34-.31-.79-.53-1.34-.7,3.53-1.92,5.67-3.77,7.94-6.36,1.8-2.09,3.14-4.2,4.51-7.34l-6.91.19c-1.78,2.21-3.05,3.7-4.75,5.14-.26.24-.48.24-.74.05-.26-.19-.72-.41-1.22-.5,3.02-2.42,4.8-4.58,6.26-6.98.77-1.27,1.08-2.04,1.2-3,.72.22,1.44.55,1.8.84.24.17.26.46,0,.62s-.53.5-.72.82c-.36.58-.62,1.03-.96,1.51l5.38-.1Z"/>
      <path class="cls-2" d="M177.41,97.62c0-1.78-.05-2.59-.29-3.6.77.07,1.51.19,1.99.34.34.12.36.38.22.67-.17.36-.29,1.08-.29,2.57v2.57l7.01-1.66c1.1-.24,1.32-.36,1.61-.6.19-.17.38-.14.62-.02.36.19.79.55,1.1.89.24.24.17.5-.07.7-.29.24-.43.41-.6.74-1.01,1.9-2.26,3.77-3.91,5.3-.24.22-.41.26-.67.1-.38-.22-.79-.38-1.25-.48,1.87-1.51,3.43-3.53,4.37-5.47l-8.21,2.04v5.81c0,1.73.74,2.21,3.65,2.21,2.09,0,4.03-.19,5.42-.46.29-.05.31.05.36.31.05.36.12.74.12,1.08,0,.22-.1.29-.36.31-1.34.17-2.93.29-5.45.29-4.2,0-5.38-.98-5.38-3.65v-5.52l-2.04.5c-1.54.38-2.76.74-3.62,1.08-.31.12-.41.07-.53-.17-.22-.43-.46-1.08-.62-1.58,1.44-.14,2.69-.41,4.46-.84l2.35-.55v-2.9Z"/>
      <path class="cls-2" d="M208.64,95.78c.82,0,1.08-.02,1.37-.19.14-.1.31-.05.48.07.34.26.7.62.98.98.14.19.1.36-.12.55-.24.19-.46.48-.7.89-1.06,1.8-2.28,3.58-3.55,5.16,2.47,1.8,4.7,3.72,6.89,6.02.22.19.22.26.02.5-.26.31-.58.6-.87.86-.17.14-.26.14-.43-.05-2.02-2.3-4.3-4.34-6.62-6.1-2.74,2.83-5.62,5.06-8.57,6.7-.26.14-.41.17-.6-.05-.31-.36-.74-.6-1.25-.86,3.62-1.8,6.46-4.01,8.83-6.5,1.56-1.66,3.14-3.79,4.56-6.43h-7.22c-1.34,0-2.38.07-3.46.14-.22,0-.24-.07-.29-.26-.07-.34-.14-1.06-.14-1.54,1.18.1,2.23.1,3.72.1h6.96Z"/>
    </g>
  </g>
</svg>