<?xml version="1.0" encoding="UTF-8"?>
<svg id="_レイヤー_2" data-name="レイヤー 2" xmlns="http://www.w3.org/2000/svg" viewBox="0 0 373.52 71.47">
  <defs>
    <style>
      .cls-1 {
        fill: #9e0a31;
      }
    </style>
  </defs>
  <g id="_レイヤー_1-2" data-name="レイヤー 1">
    <g>
      <path class="cls-1" d="M23.3,0h5.13l22.47,53.38h-5.58l-5.81-14.17H11.23l-6.03,14.17H0L23.3,0ZM25.63,5.43l-12.44,29.25h24.5L25.63,5.43Z"/>
      <path class="cls-1" d="M56.55,28.35c0-.65-.03-1.44-.08-2.38-.05-.93-.09-1.87-.11-2.83-.03-.95-.06-1.85-.11-2.68-.05-.83-.08-1.47-.08-1.92h4.52c.05,1.31.09,2.56.11,3.77.02,1.21.09,1.99.19,2.34h.23c.9-1.91,2.41-3.56,4.52-4.94,2.11-1.38,4.57-2.07,7.39-2.07s4.93.43,6.63,1.28c1.71.86,3.05,1.97,4.03,3.36.98,1.38,1.66,2.98,2.04,4.79.38,1.81.57,3.67.57,5.58v20.73h-4.52v-20.51c0-1.41-.13-2.78-.38-4.11-.25-1.33-.69-2.53-1.32-3.58-.63-1.06-1.51-1.9-2.64-2.53-1.13-.63-2.6-.94-4.41-.94-1.66,0-3.23.29-4.71.87-1.48.58-2.76,1.46-3.85,2.64-1.08,1.18-1.94,2.67-2.56,4.45-.63,1.79-.94,3.88-.94,6.3v17.42h-4.52v-25.03Z"/>
      <path class="cls-1" d="M96.72,28.35c0-.65-.03-1.44-.08-2.38-.05-.93-.09-1.87-.11-2.83-.03-.95-.06-1.85-.11-2.68-.05-.83-.08-1.47-.08-1.92h4.52c.05,1.31.09,2.56.11,3.77.02,1.21.09,1.99.19,2.34h.23c.9-1.91,2.41-3.56,4.52-4.94,2.11-1.38,4.57-2.07,7.39-2.07s4.93.43,6.63,1.28c1.71.86,3.05,1.97,4.03,3.36.98,1.38,1.66,2.98,2.04,4.79.38,1.81.57,3.67.57,5.58v20.73h-4.52v-20.51c0-1.41-.13-2.78-.38-4.11-.25-1.33-.69-2.53-1.32-3.58-.63-1.06-1.51-1.9-2.64-2.53-1.13-.63-2.6-.94-4.41-.94-1.66,0-3.23.29-4.71.87-1.48.58-2.76,1.46-3.85,2.64-1.08,1.18-1.94,2.67-2.56,4.45-.63,1.79-.94,3.88-.94,6.3v17.42h-4.52v-25.03Z"/>
      <path class="cls-1" d="M136.12,4.75c0-.95.33-1.76.98-2.41.65-.65,1.46-.98,2.41-.98s1.76.33,2.41.98c.65.65.98,1.46.98,2.41s-.33,1.76-.98,2.41c-.65.65-1.46.98-2.41.98s-1.76-.33-2.41-.98c-.65-.65-.98-1.46-.98-2.41ZM137.25,18.55h4.52v34.83h-4.52V18.55Z"/>
      <path class="cls-1" d="M148.23,18.55h5.13l11.61,29.93,11.31-29.93h4.6l-13.72,34.83h-4.67l-14.25-34.83Z"/>
      <path class="cls-1" d="M216.32,46.82c-1.76,2.67-3.93,4.57-6.52,5.73-2.59,1.16-5.44,1.73-8.56,1.73-2.66,0-5.08-.45-7.24-1.36-2.16-.91-4.02-2.17-5.58-3.81-1.56-1.63-2.75-3.57-3.58-5.81-.83-2.24-1.24-4.71-1.24-7.43s.43-5.03,1.28-7.24c.85-2.21,2.06-4.13,3.62-5.77,1.56-1.63,3.39-2.92,5.5-3.85,2.11-.93,4.45-1.39,7.01-1.39s5.01.46,7.05,1.39c2.04.93,3.74,2.16,5.13,3.69,1.38,1.53,2.42,3.28,3.13,5.24.7,1.96,1.06,3.95,1.06,5.96v3.17h-29.25c0,.96.19,2.17.57,3.66.38,1.48,1.07,2.93,2.07,4.33,1,1.41,2.35,2.61,4.03,3.62,1.68,1.01,3.86,1.51,6.52,1.51,2.31,0,4.55-.55,6.71-1.66,2.16-1.11,3.82-2.61,4.98-4.52l3.32,2.79ZM212.85,33.02c0-1.56-.31-3.02-.94-4.37-.63-1.36-1.48-2.55-2.56-3.58-1.08-1.03-2.36-1.85-3.85-2.45-1.48-.6-3.05-.9-4.71-.9-2.46,0-4.51.5-6.15,1.51-1.63,1.01-2.93,2.16-3.88,3.47-.96,1.31-1.63,2.58-2.04,3.81-.4,1.23-.6,2.07-.6,2.53h24.73Z"/>
      <path class="cls-1" d="M225.91,28.35c0-.65-.03-1.44-.08-2.38-.05-.93-.09-1.87-.11-2.83-.03-.95-.06-1.85-.11-2.68-.05-.83-.08-1.47-.08-1.92h4.52c.05,1.31.09,2.56.11,3.77.02,1.21.09,1.99.19,2.34,1.16-2.06,2.64-3.74,4.45-5.05,1.81-1.31,4.02-1.96,6.63-1.96.45,0,.89.04,1.32.11.43.08.87.16,1.32.26l-.53,4.45c-.6-.2-1.18-.3-1.73-.3-1.96,0-3.66.31-5.09.94-1.43.63-2.61,1.5-3.54,2.6-.93,1.11-1.62,2.4-2.07,3.88-.45,1.48-.68,3.08-.68,4.79v19h-4.52v-25.03Z"/>
      <path class="cls-1" d="M250.8,44.48c.95,1.86,2.36,3.28,4.22,4.26,1.86.98,3.82,1.47,5.88,1.47.95,0,1.91-.15,2.87-.45.95-.3,1.81-.73,2.56-1.28.75-.55,1.37-1.22,1.85-2,.48-.78.72-1.67.72-2.68,0-1.61-.52-2.81-1.55-3.62-1.03-.8-2.3-1.43-3.81-1.88-1.51-.45-3.17-.84-4.98-1.17-1.81-.33-3.47-.83-4.98-1.51-1.51-.68-2.78-1.62-3.81-2.83-1.03-1.21-1.55-2.91-1.55-5.13,0-1.71.35-3.19,1.06-4.45.7-1.26,1.62-2.3,2.75-3.13s2.4-1.44,3.81-1.85c1.41-.4,2.84-.6,4.3-.6,2.87,0,5.34.53,7.43,1.58,2.09,1.06,3.71,2.71,4.86,4.98l-4.07,2.41c-.86-1.61-1.92-2.83-3.2-3.66s-2.95-1.24-5.01-1.24c-.8,0-1.65.13-2.53.38-.88.25-1.67.6-2.38,1.06-.7.45-1.29,1.03-1.77,1.73-.48.7-.72,1.51-.72,2.41,0,1.56.51,2.71,1.55,3.47,1.03.75,2.3,1.34,3.81,1.77,1.51.43,3.17.79,4.98,1.09s3.47.79,4.98,1.47,2.78,1.66,3.81,2.94c1.03,1.28,1.55,3.1,1.55,5.47,0,1.81-.34,3.38-1.02,4.71-.68,1.33-1.61,2.45-2.79,3.36-1.18.91-2.53,1.58-4.03,2.04-1.51.45-3.09.68-4.75.68-3.02,0-5.77-.58-8.26-1.73-2.49-1.16-4.41-2.94-5.77-5.35l4-2.71Z"/>
      <path class="cls-1" d="M308.49,38.75c0,1.71.01,3.24.04,4.6.02,1.36.06,2.61.11,3.77.05,1.16.11,2.24.19,3.24.08,1.01.19,2.01.34,3.02h-4.22c-.3-1.71-.45-3.59-.45-5.65h-.15c-1.31,2.26-2.93,3.92-4.86,4.98-1.94,1.06-4.39,1.58-7.35,1.58-1.51,0-2.99-.19-4.45-.57-1.46-.38-2.77-.98-3.92-1.81-1.16-.83-2.1-1.9-2.83-3.21-.73-1.31-1.09-2.89-1.09-4.75,0-2.66.68-4.77,2.04-6.33,1.36-1.56,3.03-2.73,5.01-3.51,1.98-.78,4.1-1.28,6.33-1.51,2.24-.23,4.21-.34,5.92-.34h5.28v-2.11c0-3.02-.93-5.18-2.79-6.48-1.86-1.31-4.2-1.96-7.01-1.96-4.02,0-7.57,1.31-10.63,3.92l-2.64-3.09c1.66-1.61,3.72-2.83,6.18-3.66,2.46-.83,4.83-1.24,7.09-1.24,4.22,0,7.59.99,10.1,2.98,2.51,1.99,3.77,5.19,3.77,9.61v8.52ZM299.45,35.89c-1.91,0-3.76.13-5.54.38-1.79.25-3.39.68-4.83,1.28-1.43.6-2.58,1.41-3.43,2.41-.86,1.01-1.28,2.26-1.28,3.77,0,1.06.24,2,.72,2.83.48.83,1.09,1.51,1.85,2.04.75.53,1.59.93,2.53,1.21.93.28,1.87.41,2.83.41,2.41,0,4.4-.35,5.96-1.05,1.56-.7,2.8-1.62,3.73-2.75.93-1.13,1.57-2.41,1.92-3.85.35-1.43.53-2.88.53-4.33v-2.34h-4.98Z"/>
      <path class="cls-1" d="M318.89,28.35c0-.65-.03-1.44-.08-2.38-.05-.93-.09-1.87-.11-2.83-.03-.95-.06-1.85-.11-2.68-.05-.83-.08-1.47-.08-1.92h4.52c.05,1.31.09,2.56.11,3.77.02,1.21.09,1.99.19,2.34,1.16-2.06,2.64-3.74,4.45-5.05,1.81-1.31,4.02-1.96,6.63-1.96.45,0,.89.04,1.32.11.43.08.87.16,1.32.26l-.53,4.45c-.6-.2-1.18-.3-1.73-.3-1.96,0-3.66.31-5.09.94-1.43.63-2.61,1.5-3.54,2.6-.93,1.11-1.62,2.4-2.07,3.88-.45,1.48-.68,3.08-.68,4.79v19h-4.52v-25.03Z"/>
      <path class="cls-1" d="M355.58,64.16c-.86,2.26-2.04,4.05-3.54,5.35-1.51,1.31-3.52,1.96-6.03,1.96-.75,0-1.51-.06-2.26-.19-.75-.13-1.48-.29-2.19-.49l.45-4.22c.65.2,1.32.39,2,.57.68.18,1.37.26,2.07.26.8,0,1.52-.18,2.15-.53.63-.35,1.17-.8,1.62-1.36.45-.55.84-1.17,1.17-1.85.33-.68.62-1.37.87-2.07l3.17-8.07-14.17-34.98h5.05l11.54,29.33,11.23-29.33h4.83l-17.94,45.61Z"/>
    </g>
  </g>
</svg>