<?xml version="1.0" encoding="UTF-8"?>
<svg id="_レイヤー_2" data-name="レイヤー 2" xmlns="http://www.w3.org/2000/svg" viewBox="0 0 523.33 49.16">
  <defs>
    <style>
      .cls-1 {
        fill: #eae534;
      }

      .cls-2 {
        fill: none;
        stroke: #eae534;
        stroke-miterlimit: 10;
      }
    </style>
  </defs>
  <g id="_レイヤー_1-2" data-name="レイヤー 1">
    <g>
      <g>
        <path class="cls-1" d="M186.26,31.35h.55c1.16,3.96,5.99,6.27,12.43,6.27s9.62-3.96,9.62-8.91c0-3.74-2.36-6.65-7.92-6.65h-4.67c-7.09,0-10.67-3.63-10.67-9.13,0-7.2,6.27-11.6,13.2-11.6,5.94,0,10.83,2.53,12.32,6.82h-.55c-1.43-3.85-6.1-6.27-11.77-6.27-6.38,0-9.35,3.35-9.35,7.7,0,3.96,2.64,6.1,8.41,6.1h4.56c6.98,0,10.45,4.62,10.45,10.12,0,7.53-6.32,12.37-13.69,12.37-6.82,0-11.66-2.42-12.92-6.82Z"/>
        <path class="cls-1" d="M219.14,48.06V12.43h-3.19v-.55h9.02v5.66c1.04-4.23,4.18-6.21,8.03-6.21,6.43,0,11.6,3.41,11.6,13.47s-5.17,13.42-11.6,13.42c-3.85,0-6.98-1.92-8.03-6.16v16h3.25v.55h-12.26v-.55h3.19ZM238.28,26.89v-4.23c0-7.53-2.25-10.28-6.38-10.28-3.25,0-6.93,1.81-6.93,9.51v5.77c0,7.7,3.68,9.57,6.93,9.57,4.12,0,6.38-2.8,6.38-10.34Z"/>
        <path class="cls-1" d="M249.94,37.07v-16.88c0-5.66,3.46-8.91,9.68-8.91,4.07,0,6.16,1.71,7.09,4.95h-.55c-.88-2.91-2.8-4.23-5.61-4.23-3.13,0-4.78,2.2-4.78,6.76v18.31h3.85v.55h-12.92v-.55h3.25Z"/>
        <path class="cls-1" d="M271.65,37.07V12.43h-3.19v-.55h9.02v25.19h3.19v.55h-12.21v-.55h3.19ZM270.77,3.41c0-1.92,1.21-3.41,3.63-3.41s3.63,1.49,3.63,3.41-1.21,3.46-3.63,3.46-3.63-1.48-3.63-3.46Z"/>
        <path class="cls-1" d="M304.13,37.07v-17.71c0-4.62-1.54-6.98-5.33-6.98s-6.32,2.42-6.32,7.64v17.05h3.19v.55h-12.21v-.55h3.19V12.43h-3.19v-.55h9.02v4.56c.93-3.25,3.74-5.11,7.7-5.11,7.26,0,9.79,3.13,9.79,9.57v16.17h3.25v.55h-12.37v-.55h3.3Z"/>
        <path class="cls-1" d="M319.34,43.83c0-1.98,1.27-3.96,4.12-4.89-4.4.11-7.26-1.71-7.26-5.12s2.64-5.22,6.05-5.22h1.65c-4.89-1.1-7.31-3.96-7.31-8.08,0-5.94,4.62-8.63,11.71-8.63h13.64v.55h-9.02c4.89,1.15,7.09,3.96,7.09,8.08,0,5.99-4.62,8.63-11.71,8.63h-6.05c-2.58,0-3.57,1.04-3.57,2.03,0,1.49,1.1,2.31,3.24,2.31h9.73c6.82,0,8.47,3.35,8.47,6.43,0,4.73-5,9.24-12.54,9.24-5.72,0-8.25-2.31-8.25-5.33ZM337.43,42.34c0-2.53-1.92-3.41-6.1-3.41h-6.54c-3.68.93-4.89,2.97-4.89,4.84,0,2.8,2.25,4.84,7.75,4.84,6.93,0,9.79-3.79,9.79-6.27ZM333.91,21.72v-2.42c0-3.79-1.71-6.87-5.61-6.87s-5.66,3.08-5.66,6.87v2.42c0,3.79,1.71,6.87,5.66,6.87s5.61-3.08,5.61-6.87Z"/>
      </g>
      <line class="cls-2" x1="160.64" y1="21.45" y2="21.45"/>
      <line class="cls-2" x1="523.33" y1="21.45" x2="362.69" y2="21.45"/>
    </g>
  </g>
</svg>