<?xml version="1.0" encoding="UTF-8"?>
<svg id="_レイヤー_2" xmlns="http://www.w3.org/2000/svg" version="1.1" viewBox="0 0 359.2 193">
  <!-- Generator: Adobe Illustrator 29.0.1, SVG Export Plug-In . SVG Version: 2.1.0 Build 192)  -->
  <defs>
    <style>
      .st0 {
        fill: #9e0a31;
      }
    </style>
  </defs>
  <g>
    <path class="st0" d="M4.3,3.6h5v23.5h29.9V3.6h5v53.4h-5v-25.3H9.3v25.3h-5V3.6Z"/>
    <path class="st0" d="M53.7,39.6c0-2.7.5-5.1,1.4-7.4.9-2.2,2.2-4.2,3.8-5.8,1.6-1.6,3.5-2.9,5.8-3.8,2.3-.9,4.7-1.4,7.4-1.4s5.1.5,7.4,1.4c2.2.9,4.2,2.2,5.8,3.8,1.6,1.6,2.9,3.6,3.8,5.8.9,2.2,1.4,4.7,1.4,7.4s-.5,5.1-1.4,7.4c-.9,2.2-2.2,4.2-3.8,5.8s-3.6,2.9-5.8,3.8c-2.2.9-4.7,1.4-7.4,1.4s-5.1-.5-7.4-1.4c-2.3-.9-4.2-2.2-5.8-3.8-1.6-1.6-2.9-3.6-3.8-5.8-.9-2.2-1.4-4.7-1.4-7.4ZM58.2,39.6c0,2,.3,3.8.9,5.5.6,1.7,1.5,3.2,2.8,4.5,1.2,1.3,2.7,2.3,4.4,3.1,1.7.8,3.6,1.1,5.7,1.1s4-.4,5.7-1.1c1.7-.8,3.2-1.8,4.4-3.1,1.2-1.3,2.1-2.8,2.8-4.5.6-1.7.9-3.6.9-5.5s-.3-3.8-.9-5.5c-.6-1.7-1.5-3.2-2.8-4.5-1.2-1.3-2.7-2.3-4.4-3.1-1.7-.8-3.6-1.1-5.7-1.1s-4,.4-5.7,1.1c-1.7.8-3.2,1.8-4.4,3.1-1.2,1.3-2.1,2.8-2.8,4.5-.6,1.7-.9,3.6-.9,5.5Z"/>
    <path class="st0" d="M103.5,63.1c0,1.8-.1,3.4-.4,4.9-.3,1.5-.8,2.7-1.5,3.8s-1.8,1.9-3.1,2.5c-1.3.6-2.9.9-4.9.9s-2.4-.2-3.6-.7l.7-4c1.1.4,2,.6,2.9.6s2.2-.2,2.9-.6c.7-.4,1.3-1,1.7-1.7.4-.7.6-1.5.8-2.4.1-.9.2-1.9.2-2.9V22.2h4.5v40.9ZM97.9,8.4c0-1,.3-1.8,1-2.4.7-.7,1.5-1,2.4-1s1.8.3,2.4,1c.7.7,1,1.5,1,2.4s-.3,1.8-1,2.4c-.7.7-1.5,1-2.4,1s-1.8-.3-2.4-1c-.7-.7-1-1.5-1-2.4Z"/>
    <path class="st0" d="M113.6,8.4c0-1,.3-1.8,1-2.4.7-.7,1.5-1,2.4-1s1.8.3,2.4,1c.7.7,1,1.5,1,2.4s-.3,1.8-1,2.4c-.7.7-1.5,1-2.4,1s-1.8-.3-2.4-1c-.7-.7-1-1.5-1-2.4ZM114.8,22.2h4.5v34.8h-4.5V22.2Z"/>
    <path class="st0" d="M159.2,51.9c-1.7,2.1-3.6,3.6-5.8,4.6-2.2,1-4.5,1.5-7,1.5s-5.1-.5-7.4-1.4c-2.3-.9-4.2-2.2-5.8-3.8-1.6-1.6-2.9-3.6-3.8-5.8-.9-2.2-1.4-4.7-1.4-7.4s.5-5.1,1.4-7.4c.9-2.2,2.2-4.2,3.8-5.8,1.6-1.6,3.5-2.9,5.8-3.8,2.3-.9,4.7-1.4,7.4-1.4s4.9.5,7.1,1.6c2.2,1.1,4.1,2.5,5.8,4.4l-3.6,2.7c-1.3-1.5-2.7-2.6-4.3-3.4-1.6-.8-3.2-1.2-5.1-1.2s-4,.4-5.7,1.1c-1.7.8-3.2,1.8-4.4,3.1-1.2,1.3-2.1,2.8-2.8,4.5-.6,1.7-.9,3.6-.9,5.5s.3,3.8.9,5.5c.6,1.7,1.5,3.2,2.8,4.5,1.2,1.3,2.7,2.3,4.4,3.1,1.7.8,3.6,1.1,5.7,1.1s3.7-.4,5.2-1.3c1.6-.9,3-2,4.1-3.5l3.5,2.9Z"/>
    <path class="st0" d="M165.4,0h4.5v28.3h.2c.9-1.9,2.4-3.6,4.5-4.9,2.1-1.4,4.6-2.1,7.4-2.1s4.9.4,6.6,1.3c1.7.9,3.1,2,4,3.4,1,1.4,1.7,3,2,4.8.4,1.8.6,3.7.6,5.6v20.7h-4.5v-20.5c0-1.4-.1-2.8-.4-4.1-.3-1.3-.7-2.5-1.3-3.6-.6-1.1-1.5-1.9-2.6-2.5-1.1-.6-2.6-.9-4.4-.9s-3.2.3-4.7.9c-1.5.6-2.8,1.5-3.8,2.6-1.1,1.2-1.9,2.7-2.6,4.4-.6,1.8-.9,3.9-.9,6.3v17.4h-4.5V0Z"/>
    <path class="st0" d="M232.2,42.4c0,1.7,0,3.2,0,4.6,0,1.4,0,2.6.1,3.8,0,1.2.1,2.2.2,3.2,0,1,.2,2,.3,3h-4.2c-.3-1.7-.5-3.6-.5-5.7h-.2c-1.3,2.3-2.9,3.9-4.9,5-1.9,1.1-4.4,1.6-7.4,1.6s-3-.2-4.4-.6c-1.5-.4-2.8-1-3.9-1.8-1.2-.8-2.1-1.9-2.8-3.2-.7-1.3-1.1-2.9-1.1-4.8,0-2.7.7-4.8,2-6.3,1.4-1.6,3-2.7,5-3.5,2-.8,4.1-1.3,6.3-1.5,2.2-.2,4.2-.3,5.9-.3h5.3v-2.1c0-3-.9-5.2-2.8-6.5-1.9-1.3-4.2-2-7-2-4,0-7.6,1.3-10.6,3.9l-2.6-3.1c1.7-1.6,3.7-2.8,6.2-3.7,2.5-.8,4.8-1.2,7.1-1.2,4.2,0,7.6,1,10.1,3,2.5,2,3.8,5.2,3.8,9.6v8.5ZM223.1,39.5c-1.9,0-3.8.1-5.5.4-1.8.3-3.4.7-4.8,1.3s-2.6,1.4-3.4,2.4c-.9,1-1.3,2.3-1.3,3.8s.2,2,.7,2.8c.5.8,1.1,1.5,1.8,2,.8.5,1.6.9,2.5,1.2.9.3,1.9.4,2.8.4,2.4,0,4.4-.4,6-1.1,1.6-.7,2.8-1.6,3.7-2.8.9-1.1,1.6-2.4,1.9-3.8.4-1.4.5-2.9.5-4.3v-2.3h-5Z"/>
    <path class="st0" d="M33.7,122.1l7.7-13.9h5.1l-9.7,17,12.1,12.7h-6.7l-8-8.6c-2.2,2.9-4.5,5.2-7.1,7-2.6,1.7-5.7,2.6-9.5,2.6s-4.4-.4-6.4-1.1c-2-.7-3.7-1.8-5.2-3.1-1.5-1.4-2.6-3-3.5-4.9-.9-1.9-1.3-4-1.3-6.4s.4-3.9,1.1-5.4c.7-1.6,1.6-2.9,2.8-4.1,1.1-1.2,2.4-2.3,3.9-3.3,1.5-1,3-1.9,4.5-2.9-.8-.9-1.5-1.8-2.3-2.8-.8-1-1.5-2-2.1-3.1s-1.1-2.1-1.5-3.3c-.4-1.1-.6-2.3-.6-3.5,0-1.9.4-3.6,1.1-5.1.7-1.5,1.7-2.8,2.9-3.8,1.2-1,2.7-1.8,4.3-2.4,1.6-.6,3.3-.8,5.1-.8s3.1.3,4.5.8c1.5.6,2.8,1.3,3.9,2.3,1.1,1,2,2.2,2.7,3.5.7,1.4,1,2.9,1,4.6s-.3,3.6-1,5c-.7,1.4-1.6,2.7-2.7,3.8-1.1,1.1-2.4,2.1-3.8,2.9-1.4.9-2.9,1.7-4.4,2.5l13,13.7ZM16.5,110.8c-1.2.7-2.4,1.5-3.6,2.3-1.2.8-2.3,1.7-3.2,2.7s-1.8,2.1-2.4,3.3c-.6,1.2-.9,2.6-.9,4.2s.3,3.2.9,4.6c.6,1.4,1.5,2.5,2.6,3.5,1.1,1,2.4,1.7,3.8,2.3,1.5.5,3.1.8,4.7.8s2.7-.2,4-.7c1.2-.5,2.4-1.1,3.4-1.8s2-1.6,2.9-2.6,1.7-2,2.5-3.1l-14.8-15.4ZM20.2,87.4c-2.3,0-4.2.7-5.7,2.1-1.6,1.4-2.3,3.2-2.3,5.5s.2,1.8.6,2.8c.4,1,.9,1.9,1.4,2.8.6.9,1.2,1.8,1.9,2.6.7.8,1.3,1.5,1.8,2.2,1.1-.6,2.2-1.2,3.3-1.8,1.2-.7,2.2-1.4,3.2-2.3,1-.9,1.7-1.8,2.4-2.9.6-1.1.9-2.3.9-3.7,0-2.1-.7-3.8-2.1-5.2-1.4-1.3-3.2-2-5.4-2Z"/>
    <path class="st0" d="M55.2,84.2h16.5c4.6,0,8.5.6,11.8,1.7,3.2,1.1,5.9,2.6,8,4.3,2.1,1.8,3.8,3.7,5.1,5.8,1.2,2.1,2.1,4.2,2.7,6.1.6,2,.9,3.7,1.1,5.3.2,1.6.2,2.7.2,3.4s0,1.8-.2,3.4c-.2,1.6-.5,3.4-1.1,5.3-.6,2-1.5,4-2.7,6.1-1.2,2.1-2.9,4.1-5.1,5.8-2.1,1.8-4.8,3.2-8,4.3-3.2,1.1-7.1,1.7-11.8,1.7h-16.5v-53.4ZM60.2,133.1h10.3c3.5,0,6.8-.4,9.9-1.3,3.1-.9,5.7-2.2,8-4s4-4.1,5.4-6.9c1.3-2.8,2-6.1,2-9.9s-.7-7.1-2-9.9c-1.3-2.8-3.1-5.1-5.4-6.9s-4.9-3.2-8-4c-3.1-.9-6.4-1.3-9.9-1.3h-10.3v44.3Z"/>
    <path class="st0" d="M135,123c0,1.7,0,3.2,0,4.6,0,1.4,0,2.6.1,3.8,0,1.2.1,2.2.2,3.2,0,1,.2,2,.3,3h-4.2c-.3-1.7-.5-3.6-.5-5.7h-.2c-1.3,2.3-2.9,3.9-4.9,5-1.9,1.1-4.4,1.6-7.4,1.6s-3-.2-4.4-.6c-1.5-.4-2.8-1-3.9-1.8-1.2-.8-2.1-1.9-2.8-3.2-.7-1.3-1.1-2.9-1.1-4.8,0-2.7.7-4.8,2-6.3,1.4-1.6,3-2.7,5-3.5,2-.8,4.1-1.3,6.3-1.5,2.2-.2,4.2-.3,5.9-.3h5.3v-2.1c0-3-.9-5.2-2.8-6.5-1.9-1.3-4.2-2-7-2-4,0-7.6,1.3-10.6,3.9l-2.6-3.1c1.7-1.6,3.7-2.8,6.2-3.7,2.5-.8,4.8-1.2,7.1-1.2,4.2,0,7.6,1,10.1,3,2.5,2,3.8,5.2,3.8,9.6v8.5ZM126,120.1c-1.9,0-3.8.1-5.5.4-1.8.3-3.4.7-4.8,1.3-1.4.6-2.6,1.4-3.4,2.4-.9,1-1.3,2.3-1.3,3.8s.2,2,.7,2.8c.5.8,1.1,1.5,1.8,2,.8.5,1.6.9,2.5,1.2.9.3,1.9.4,2.8.4,2.4,0,4.4-.4,6-1.1,1.6-.7,2.8-1.6,3.7-2.8.9-1.1,1.6-2.4,1.9-3.8.4-1.4.5-2.9.5-4.3v-2.3h-5Z"/>
    <path class="st0" d="M144.7,89c0-1,.3-1.8,1-2.4.7-.7,1.5-1,2.4-1s1.8.3,2.4,1c.7.7,1,1.5,1,2.4s-.3,1.8-1,2.4c-.7.7-1.5,1-2.4,1s-1.8-.3-2.4-1c-.7-.7-1-1.5-1-2.4ZM145.8,102.8h4.5v34.8h-4.5v-34.8Z"/>
    <path class="st0" d="M164.1,106.8h-7.2v-4.1h7.2v-11.4c0-2.3.3-4.1,1-5.6.7-1.5,1.5-2.7,2.5-3.6,1-.9,2.1-1.5,3.4-1.9,1.2-.4,2.4-.6,3.5-.6,2.1,0,3.8.3,5.2.9l-.9,3.9c-1-.5-2.4-.8-4.1-.8-4.1,0-6.1,3.1-6.1,9.3v9.7h8.1v4.1h-8.1v30.8h-4.5v-30.8Z"/>
    <path class="st0" d="M212.6,127.8c0,.7,0,1.4,0,2.4,0,.9,0,1.9.1,2.8,0,1,0,1.8.1,2.7,0,.8,0,1.5,0,1.9h-4.5c0-1.3,0-2.6-.1-3.8,0-1.2,0-2-.2-2.3h-.2c-.9,1.9-2.4,3.6-4.5,4.9-2.1,1.4-4.6,2.1-7.4,2.1s-4.9-.4-6.7-1.3c-1.7-.9-3.1-2-4.1-3.4-1-1.4-1.6-3-2-4.8-.4-1.8-.5-3.7-.5-5.6v-20.7h4.5v20.5c0,1.4.1,2.8.4,4.1.3,1.3.7,2.5,1.3,3.6.6,1.1,1.5,1.9,2.6,2.5,1.1.6,2.6.9,4.4.9s3.2-.3,4.7-.9c1.5-.6,2.8-1.5,3.8-2.6,1.1-1.2,1.9-2.7,2.6-4.4.6-1.8.9-3.9.9-6.3v-17.4h4.5v25Z"/>
    <path class="st0" d="M223.3,80.6h4.5v38l17.2-15.8h6.6l-17.9,15.9,20.1,18.8h-6.9l-19.1-18.4v18.4h-4.5v-57Z"/>
    <path class="st0" d="M287.9,127.8c0,.7,0,1.4,0,2.4,0,.9,0,1.9.1,2.8,0,1,0,1.8.1,2.7,0,.8,0,1.5,0,1.9h-4.5c0-1.3,0-2.6-.1-3.8,0-1.2,0-2-.2-2.3h-.2c-.9,1.9-2.4,3.6-4.5,4.9-2.1,1.4-4.6,2.1-7.4,2.1s-4.9-.4-6.7-1.3c-1.7-.9-3.1-2-4.1-3.4-1-1.4-1.6-3-2-4.8-.4-1.8-.5-3.7-.5-5.6v-20.7h4.5v20.5c0,1.4.1,2.8.4,4.1.3,1.3.7,2.5,1.3,3.6.6,1.1,1.5,1.9,2.6,2.5,1.1.6,2.6.9,4.4.9s3.2-.3,4.7-.9c1.5-.6,2.8-1.5,3.8-2.6,1.1-1.2,1.9-2.7,2.6-4.4.6-1.8.9-3.9.9-6.3v-17.4h4.5v25Z"/>
  </g>
  <g>
    <path class="st0" d="M6.1,179.4c-1.2,0-2.4.2-4,.2s-.5-.1-.6-.5c0-.5-.2-1.2-.3-2.1.6,0,1.2.1,1.9.1,1,0,2,0,3-.2,0-.8,0-1.7,0-2.7s0-1.3-.2-1.9c1.2,0,2.2.2,2.9.4.3,0,.5.2.5.5s0,.2-.1.4c-.2.3-.3.6-.3.9,0,.6,0,1.2-.1,2,1.1-.2,2-.5,3.1-.9.2,0,.4,0,.4.2,0,.6.1,1.2.1,1.9s0,.3-.3.4c-1.6.5-2,.6-3.4.9,0,1.2,0,2.3,0,3.5,2.3-1,4.4-1.3,5.9-1.3,3,0,5.1,1.9,5.1,4.8s-2,4.9-5.2,4.9-1.5,0-2-.2c-.4,0-.5-.3-.5-.7,0-.5-.2-1.3-.7-2,1.2.4,2.1.4,3,.4,1.3,0,2.6-.8,2.6-2.5s-1-2.4-2.6-2.4-3,.4-5.5,1.6c0,1,0,1.8,0,2.9,0,1.1.2,2.6.2,3.1s0,.7-.4.8c-.5.1-1.3.3-1.8.3-.3,0-.4-.2-.6-.5-.6-.9-1.9-2-3.4-3.1-.3.1-.6.3-.8.5-.1.1-.3.2-.4.2-.2,0-.4-.1-.5-.4-.3-.4-.7-1.4-1.1-2.2.6-.1,1.4-.4,2.2-.8,1-.6,2.2-1.2,3.9-2.2v-4.1ZM3.9,187.7c.7.4,1.5.8,2.3,1.1.2,0,.3,0,.2-.2,0-.6,0-1.7-.1-2.5-.7.5-1.5,1-2.4,1.6ZM15.4,175.1c.2-.3.2-.3.4-.3,2.2.6,3.8,1.7,5.1,2.9,0,0,.1.2.1.2s0,.1,0,.2c-.3.5-.9,1.2-1.3,1.7,0,0-.4.1-.5,0-1.3-1.4-3-2.3-4.9-3,.3-.6.7-1.3,1.1-1.9Z"/>
    <path class="st0" d="M33.4,177c.4-.4.7-.8,1-1.2.8.1,1.7.3,2.4.5.3,0,.4.2.4.3,0,.1,0,.2-.4.4,2.6,2.4,6,3.9,10.2,4.8-.3.4-.8,1.2-1.1,1.8-.2.5-.3.6-.5.6s-.3,0-.5-.1c-4-1.2-7.2-3.1-9.7-5.5-2.5,2.5-5.4,4.2-9.2,5.5-.2,0-.4.1-.5.1-.2,0-.3-.2-.5-.6-.2-.6-.6-1.2-1-1.6,3.8-1,7-2.7,9.2-4.9ZM37.7,172.9c0-.7,0-1.4-.1-2,.9,0,1.7,0,2.4.2.2,0,.3.1.3.2s0,.2-.1.4c0,.1-.1.5-.1,1.2h2.6c2.3,0,3.1,0,3.2,0,.2,0,.3,0,.3.3v1.8c0,.2,0,.3-.3.3s-.9,0-3.2,0h-2.6c0,.9,0,1.3,0,1.4,0,.2,0,.3-.3.3h-1.9c-.2,0-.3,0-.3-.3s0-.5,0-1.4h-4.6c0,.9,0,1.3,0,1.4,0,.2,0,.3-.3.3h-1.9c-.2,0-.3,0-.3-.3s0-.5,0-1.4h-2.4c-2.3,0-3.1,0-3.3,0-.2,0-.3,0-.3-.3v-1.8c0-.2,0-.3.3-.3s.9,0,3.3,0h2.4c0-.7,0-1.4-.1-1.9.9,0,1.7,0,2.4.2.2,0,.4,0,.4.2s0,.2-.1.4c0,.1-.1.5-.1,1.2h4.6ZM29.4,187.7c.4-.5.6-1,.8-1.3.6.3,1.5.6,2,1,.2,0,.3.2.3.4s-.2.3-.3.4c-.1,0-.4.4-.6.6-1,1.2-2,2.3-3.6,3.4-.3.2-.4.3-.6.3s-.3-.2-.5-.6c-.4-.5-.8-.9-1.2-1.2,1.6-.8,2.7-1.8,3.7-2.9ZM34.1,183.4c0-1.4,0-2-.1-2.7.9,0,1.7,0,2.5.2.2,0,.4.1.4.3s0,.2-.1.4c0,.2-.1.6-.1,1.6v.3h2.9c2.4,0,3.2,0,3.3,0,.2,0,.3,0,.3.3v1.8c0,.2,0,.3-.3.3s-1,0-3.3,0h-2.9v4c0,1.9,0,2.8,0,3,0,.2,0,.3-.3.3h-2.1c-.2,0-.3,0-.3-.3s0-1.1,0-3v-4h-2.7c-2.3,0-3.1,0-3.3,0-.3,0-.3,0-.3-.3v-1.8c0-.3,0-.3.3-.3s1,0,3.3,0h2.7v-.2ZM39.9,186.6c.3-.1.3-.2.5,0,1.2,1.4,2.7,2.6,4.6,3.6-.4.4-.8.8-1.2,1.3-.2.4-.4.5-.5.5s-.3,0-.6-.3c-1.6-1.1-3-2.5-4.2-4-.2-.2-.1-.3.1-.5l1.2-.7Z"/>
    <path class="st0" d="M51.1,191.8c-.3-.2-.3-.3-.1-.5,1.1-1,2.1-2.2,2.7-3.5.1-.2.2-.2.5,0l1.5.7c.3.1.3.2.2.4-.7,1.5-1.7,2.8-2.8,3.9,0,0-.1.1-.2.1s-.2,0-.3-.1l-1.4-1.1ZM54.3,175.8c-2.1,0-2.9,0-3,0-.2,0-.3,0-.3-.3v-1.6c0-.2,0-.2.3-.2s.9,0,3,0h2.9c-.4-.6-.8-1.3-1.1-1.8-.1-.2-.1-.3.2-.4l1.6-.5c.3,0,.3,0,.5.2.5.7,1.1,1.6,1.5,2.5h3.2c.3-.5.6-1,.8-1.5.2-.4.3-.7.4-1.2.8.1,1.7.3,2.4.5.2,0,.3.1.3.3s-.1.3-.3.4c-.2.1-.3.3-.5.5-.2.3-.4.7-.7,1.1h3.3c2.2,0,2.9,0,3,0,.2,0,.3,0,.3.2v1.6c0,.2,0,.3-.3.3s-.9,0-3,0h-14.6ZM61.4,182c0,1.5,0,2.7,0,3.3s0,1.1-.6,1.4c-.4.3-1,.5-2.4.5s-.8,0-.9-.7c0-.4-.3-.9-.5-1.2.6,0,1.2,0,1.5,0s.6-.2.6-.7v-5.9h-4.2v5.9c0,1.6,0,2.1,0,2.3,0,.2,0,.3-.3.3h-1.8c-.2,0-.3,0-.3-.3s0-.8,0-2.4v-4.8c0-1.6,0-2.3,0-2.5,0-.2,0-.3.3-.3s.7,0,2.5,0h3.1c1.8,0,2.4,0,2.5,0,.2,0,.3,0,.3.3s0,1,0,2.7v2.2ZM56.1,182.2c.2-.2.2-.2.5,0,.7.3,1.4.8,2,1.2.1,0,.2.1.2.2s0,.1-.1.2l-.7.9c0,.1-.2.2-.2.2s-.1,0-.2-.1c-.6-.5-1.3-1-2-1.3-.2,0-.2-.2,0-.4l.6-.8ZM56.1,179.4c.2-.2.2-.2.4-.1.7.3,1.4.7,2.1,1.2.2.1.2.2,0,.4l-.7.9c0,.1-.1.2-.2.2s-.1,0-.3-.1c-.6-.5-1.3-.9-2-1.2-.2,0-.2-.1,0-.4l.6-.8ZM59.7,188.2c.3,0,.4,0,.4.3.3,1.2.4,2.5.5,3.9,0,.2,0,.3-.3.4h-1.8c-.4.2-.4.1-.4,0,0-1.3-.1-2.7-.4-3.9,0-.2,0-.3.3-.3h1.7ZM64.4,188.1c.3,0,.4,0,.5.2.5,1.2.9,2.5,1.2,3.8,0,.3,0,.3-.3.4l-1.7.3c-.3,0-.4,0-.5-.2-.2-1.3-.6-2.8-1.1-3.9,0-.2,0-.3.3-.4l1.5-.3ZM63.4,179.4c0-.8,0-1.5-.2-2.4.9,0,1.5,0,2.3.1.2,0,.4.1.4.2s0,.3-.1.5-.1.5-.1,1.5v2.1c0,1.4,0,2,0,2.1,0,.2,0,.3-.3.3h-1.8c-.2,0-.3,0-.3-.3s0-.7,0-2.1v-2.1ZM70.5,183.1c0,.8,0,1.4,0,1.9s-.3,1.3-.8,1.6c-.6.3-1.2.5-3.2.5s-.8,0-.9-.8c-.1-.6-.3-1.1-.5-1.4.7,0,1.2.1,2.1.1s.9-.3.9-.9v-4.5c0-1.3,0-2.2-.2-3,.9,0,1.7,0,2.4.2.3,0,.4.2.4.3,0,.2,0,.3-.2.5,0,.3-.1.8-.1,1.9v3.6ZM69,187.6c.3-.1.4-.1.6,0,1,1.1,1.8,2.3,2.6,3.6,0,.2,0,.2-.2.4l-1.5,1c-.1,0-.2.1-.3.1s-.1,0-.2-.2c-.7-1.5-1.5-2.6-2.5-3.9-.1-.2-.1-.2.2-.4l1.4-.7Z"/>
    <path class="st0" d="M82.5,172.6c.3.1.5.3.5.5s0,.2-.2.4c-.2.2-.3.5-.4,1.1-.3,1.6-.5,3.3-.7,4.6,0,.9-.1,1.8,0,2.6.5-.9,1-1.8,1.7-3.1.2.7.5,1.2.7,1.6.1.1.1.3.1.4,0,.2,0,.4-.2.6-.5,1-1.1,2-1.4,3.1,0,.2,0,.4-.1.7,0,.2,0,.3-.3.4-.3,0-1.3.2-1.9.3-.2,0-.3-.1-.3-.3-.4-1-.7-2.9-.7-4.9s.3-3.6.6-6c0-.8.2-1.7.2-2.7,1.1.2,2,.5,2.6.7ZM90.3,172.2c.5.1.5.2.5.6,0,.3,0,.8,0,1.1.2,2.3.3,4.5.3,6.2,0,3.4-.6,6.4-1.8,8.3-.9,1.5-2.4,2.9-4,3.9-.2.1-.3.2-.5.2s-.3,0-.5-.3c-.5-.5-1.3-.9-2-1.1,1.9-1.1,3.1-1.9,4.1-3.2,1.4-1.9,2-3.9,2-7.7s-.1-4.2-.3-5.7c-.1-1.2-.2-1.8-.5-2.6,1.1,0,2,0,2.7.3Z"/>
    <path class="st0" d="M108.2,178.3c-2.4,0-3.1,0-3.3,0-.2,0-.3,0-.3-.3v-1.8c0-.3,0-.3.3-.3s.9,0,3.3,0h2.4v-1.6c0-1.5,0-2.4-.2-3.4.9,0,1.7,0,2.5.2.2,0,.4.1.4.2,0,.2,0,.3-.2.5-.1.3-.1.8-.1,2.4v1.6h3.4c2.3,0,3.1,0,3.3,0s.2,0,.2.3v1.8c0,.2,0,.3-.2.3s-1,0-3.3,0h-2.5c1.7,3.2,3.4,5.5,6.7,8.2-.5.5-.9,1-1.2,1.6s-.3.5-.4.5-.3-.1-.5-.4c-2.8-2.7-4.3-5.1-5.6-8.1,0,2.2,0,4.3,0,6.2h.6c1.9,0,2.5,0,2.6,0,.2,0,.3,0,.3.3v1.8c0,.3,0,.3-.3.3s-.7,0-2.6,0h-.5c0,2.3,0,3.9,0,4.1s0,.3-.3.3h-2.1c-.3,0-.3,0-.3-.3s0-1.8,0-4.1h-.4c-1.9,0-2.5,0-2.6,0-.2,0-.3,0-.3-.3v-1.8c0-.2,0-.3.3-.3s.7,0,2.6,0h.5c0-1.9,0-4,0-6.1-1.4,3.2-3.1,5.8-5.5,8-.2.2-.4.4-.5.4s-.2-.1-.4-.5c-.3-.6-.7-1-1.1-1.4v2.3c0,2.4,0,3.5,0,3.6,0,.2,0,.3-.3.3h-2c-.2,0-.2,0-.2-.3s0-1.3,0-3.6v-5.4c0-.8,0-1.8,0-2.7-.5.6-.9,1.2-1.4,1.8-.2.2-.3.3-.4.3s-.2-.1-.3-.4c-.2-.8-.5-1.6-.8-2.1,2.1-2.3,3.6-4.9,4.6-7.8.2-.6.3-1.1.4-1.7.9.2,1.6.5,2.3.7.3.1.4.2.4.4s0,.3-.3.4c-.1.1-.3.3-.5,1-.5,1.2-1,2.4-1.6,3.5v9.7c2.7-2.2,4.7-4.8,6.3-8.3h-1.3Z"/>
    <path class="st0" d="M126.5,185.3c.3,0,.3.1.3.4,0,2.1-.3,3.8-.9,5.5,0,.1,0,.2-.1.2s-.1,0-.3-.1l-.7-.5c-.3-.2-.3-.3-.2-.5.5-1.4.7-3,.8-5q0-.3.4-.2l.7.2ZM141.2,178.5v1.6h1.1c2,0,2.7,0,2.9,0,.2,0,.3,0,.3.3s0,.6,0,1.8v2.1c0,1.2,0,1.7,0,1.8,0,.2,0,.3-.3.3s-.9,0-2.9,0h-.7c1.2,1.9,3.1,3.3,5.5,4.2-.4.4-.8,1-1.2,1.7-.2.4-.3.6-.5.6s-.3,0-.6-.2c-2.1-1.2-3.7-2.9-4.7-4.7-.9,2-2.8,3.7-4.9,4.8-.3.2-.5.3-.6.3s-.3-.2-.5-.5c-.3-.4-.6-.8-.9-1.1-.4,1-1.2,1.4-2.2,1.4s-.7,0-1.1,0q-.4,0-.5-.8c-.1-.6-.3-1.1-.5-1.6.7,0,1.2.2,1.6.2s.9-.1,1.1-.6c.3-.6.4-2.2.5-5.8h-4c-1.6,0-2.2,0-2.4,0s-.3,0-.3-.3,0-1,0-3v-6c0-1.9,0-2.8,0-3,0-.2,0-.3.3-.3s.8,0,2.4,0h3.6c1.5,0,2.1,0,2.3,0,.3,0,.3,0,.3.3v1.5c0,.2,0,.2-.3.2s-.8,0-2.3,0h-.3v1.7c1.2,0,1.7,0,1.8,0,.2,0,.3,0,.3.3v1.1c2-1,3.8-2.6,5-4.4.3-.5.5-.9.7-1.5.8.1,1.4.3,2.1.4.2,0,.3.1.3.3s0,.2-.2.3h-.2c1.4,2.1,3.4,3.6,6,4.6-.3.3-.6,1-.8,1.7-.1.4-.2.6-.4.6s-.3,0-.6-.2c-.6-.3-1.3-.7-1.8-1.2v1c0,.2,0,.2-.3.2s-.6,0-2.1,0h0ZM127.9,185.2c.3,0,.3,0,.4.2.2,1.4.4,2.9.4,4.3,0,.2,0,.3-.3.4l-.6.2c-.3,0-.3.1-.3-.1,0-1.6,0-3.1-.3-4.5,0-.2,0-.3.2-.3h.5ZM129.5,175.4v-1.7h-1.8v1.7h1.8ZM129.5,178.8v-1.6h-1.8v1.6h1.8ZM129.5,182.3v-1.7h-1.8v1.7h1.8ZM129.5,185.1c.2,0,.3,0,.3.1.2,1.1.5,2.4.6,3.6,0,.2,0,.3-.2.4l-.5.2c-.3,0-.3.1-.3-.1-.1-1.3-.3-2.6-.6-3.7,0-.2,0-.2.2-.3h.5ZM130.8,184.8c.2,0,.3,0,.3,0,.3.8.6,1.7.7,2.6,0,.2,0,.2-.2.3l-.5.2c-.2.1-.3,0-.3,0-.1-.9-.4-1.9-.6-2.7q0-.2.1-.3l.4-.2ZM131.9,182.3c1.4,0,1.9,0,2,0,.2,0,.3,0,.3.3,0,.6,0,1.2,0,1.7-.1,3.5-.3,5.4-.7,6.7,2.2-.9,3.9-2.3,4.9-4.2l.2-.4h-.4c-2,0-2.7,0-2.9,0-.2,0-.3,0-.3-.3s0-.6,0-1.8v-2.1c0-1.2,0-1.7,0-1.8,0-.2,0-.3.3-.3s.9,0,2.9,0h1v-1.6c-1.5,0-1.9,0-2,0-.2,0-.3,0-.3-.2v-.9c-.6.5-1.2.9-1.8,1.2-.3.1-.4.2-.6.2s-.2-.2-.4-.6c-.2-.4-.4-.8-.6-1.1h-.2c-.1,0-.6,0-1.8,0v1.6c1.2,0,1.7,0,1.8,0,.2,0,.3,0,.3.3v1.3c0,.2,0,.3-.3.3s-.6,0-1.8,0v1.7h.4ZM137.1,181.9v2.7h1.8c0-.7.1-1.6.1-2.7h-1.9ZM142.9,176.7c-1.1-.9-2-1.9-2.7-2.9-.7,1.1-1.6,2-2.5,2.9h5.2ZM143.3,184.5v-2.7h-2.1c0,1,0,1.9-.1,2.7h2.2Z"/>
    <path class="st0" d="M158.9,181.2v-6.6h1.4v6.6h6.6v1.4h-6.6v6.6h-1.4v-6.6h-6.6v-1.4h6.6Z"/>
    <path class="st0" d="M177.2,177.1c-1.6,0-2.9,0-4,.1-.3,0-.4-.1-.5-.5,0-.5-.2-1.7-.2-2.4,1.1.1,2.4.2,4.6.2h8.6c.7,0,1,0,1.3-.2.1,0,.2,0,.4,0s.3,0,.5.1c.6.4,1.3,1,1.8,1.6.1.1.2.3.2.4,0,.2-.1.4-.3.6-.2.2-.3.5-.6.9-1.2,2.8-2.6,5.5-4.7,7.8-2.1,2.4-4.4,4.3-6.8,5.7-.2.1-.4.2-.6.2s-.4,0-.6-.3c-.6-.5-1.3-1-2.2-1.3,3.5-1.8,5.6-3.4,7.8-6,1.9-2.1,3.1-4.2,4.1-6.8h-8.7Z"/>
    <path class="st0" d="M200.9,175.8c.4.1.5.4.3.7-.3.5-.3,1.1-.3,1.6,0,3-.5,5.3-1.3,7.1-.6,1.5-1.7,3-3.4,4.5-.2.2-.4.3-.6.3s-.3,0-.5-.2c-.6-.4-1.2-.7-2-1,1.9-1.4,3.1-2.9,4-4.8.7-1.6,1-3,1-6.8,0-.9,0-1.3-.2-2,1.4.2,2.5.3,3,.5ZM206.2,186c1.2-.6,2.3-1.4,3.4-2.2,1.4-1.1,2.9-2.4,4.2-4.1,0,.8.3,1.6.7,2.4,0,.2.1.3.1.4s0,.3-.4.6c-1.2,1.2-2.3,2.2-3.6,3.1-1.2,1-2.6,1.9-4.3,2.9-.4.3-.5.3-.7.5-.1.1-.3.2-.5.2s-.3,0-.5-.2c-.5-.4-1.1-1-1.4-1.5-.1-.2-.2-.4-.2-.5s0-.2,0-.4c.2-.3.1-.6.1-1.8v-7.5c0-2.1,0-3.1-.2-4.2,1,.1,2.3.3,3,.5.3,0,.4.2.4.4s0,.4-.2.6c-.2.5-.2.9-.2,2.7v8Z"/>
    <path class="st0" d="M224.7,183.6c-2.4,0-3.3.3-3.5.3s-.5-.1-.6-.5c-.1-.6-.3-1.7-.4-2.9,1.6.2,2.8.3,5.2.3h7.7c1.8,0,3.7,0,5.5,0,.4,0,.4,0,.4.3,0,.7,0,1.5,0,2.3,0,.3,0,.4-.4.4-1.8,0-3.6,0-5.4,0h-8.6Z"/>
    <path class="st0" d="M245.8,174.8c.3-.1.5,0,.6.2,1.2,1.4,2,3,2.7,4.5,0,.1,0,.2,0,.3,0,.1,0,.2-.3.4-.4.3-1.2.7-1.8.9-.4.1-.5,0-.6-.4-.8-1.8-1.6-3.4-2.8-4.8.9-.5,1.7-.9,2.1-1.1ZM262.6,175.2c.2,0,.3.3.3.5s0,.3-.2.4c-.4.3-.7,1.1-.9,1.6-1.7,3.8-3,6.1-4.7,8.2-1.8,2.3-3.7,4.3-6.3,6-.2.1-.4.2-.6.2s-.2,0-.4-.2c-.7-.5-1.4-.9-2.3-1.1,3.3-2.2,5.2-3.9,7.1-6.3,1.7-2.1,3.1-4.8,4.2-7.4.4-1,.6-1.8.7-3.1,1.3.5,2.4.9,3.1,1.4ZM252.1,173.3c.3-.1.5,0,.6.2.8,1.1,1.8,3,2.4,4.4.1.3,0,.5-.2.7-.4.3-1.3.6-1.8.9-.4.1-.5,0-.6-.3-.6-1.7-1.4-3.3-2.5-4.8.7-.3,1.5-.7,2.2-1Z"/>
    <path class="st0" d="M271.2,179.7c-2.2,0-2.9,0-3,0-.2,0-.3,0-.3-.3v-2c0-.2,0-.3.3-.3s.9,0,3,0h5.5c0-1,0-2.1.1-3.2,0-1.2,0-2-.1-2.8.7,0,2,0,2.8.2.2,0,.4.2.4.3s0,.3-.1.5c-.1.2-.2.6-.2,1.7,0,1.2,0,2.3-.1,3.3h6.2c2.2,0,2.9,0,3,0,.2,0,.3,0,.3.3v2c0,.3,0,.3-.3.3s-.9,0-3,0h-5.7c1.5,4.7,4.7,8.6,9.6,10.5-.5.5-1,1.2-1.4,1.8-.2.4-.3.6-.5.6s-.3,0-.6-.2c-3.8-2-6.9-5.4-8.5-9.7-.2.8-.6,1.6-.9,2.3-1.7,3.4-4.2,5.8-7.7,7.5-.3.1-.5.2-.6.2-.2,0-.3-.1-.6-.6-.4-.6-.8-1.1-1.4-1.5,3.9-1.5,6.4-3.8,7.8-6.6.6-1.2,1-2.6,1.3-4.2h-5.2Z"/>
    <path class="st0" d="M299.6,174.9c.2,0,.3,0,.5,0,0,0,.2-.1.3-.1.2,0,.4.1,1,.7.5.5.6.6.6.8,0,.2,0,.4-.3.5-.2.1-.4.4-.6.9-.6,1.2-1.2,2.4-1.9,3.5.7.9,1.5,1.5,2.6,2.3,0-.4,0-.6,0-.7,0-.2,0-.3.3-.3s.9,0,3.2,0h6.1c2.2,0,3,0,3.2,0,.2,0,.2,0,.2.3s0,.9,0,2.8v2.6c0,3.7,0,4.4,0,4.5,0,.2,0,.2-.2.2h-1.8c-.2,0-.3,0-.3-.2v-.7h-8.4v.8c0,.2,0,.3-.3.3h-1.8c-.2,0-.3,0-.3-.3s0-.8,0-4.6v-2.3c0-1.2,0-1.9,0-2.4-.3.3-.8,1-1.1,1.8,0,.2-.1.3-.2.3s-.3-.1-.5-.4c-.4-.4-.8-.9-1.2-1.5v5.6c0,1.8,0,3.4,0,3.6,0,.2,0,.3-.3.3h-1.9c-.3,0-.3,0-.3-.3s0-1.8,0-3.6v-4.8c-.6.6-1.1,1.1-1.7,1.7-.2.2-.4.3-.5.3s-.2-.1-.3-.4c-.2-.8-.5-1.3-.8-1.9,2.6-1.7,4.4-4,5.7-6.9h-2.3c-1.8,0-2.3,0-2.5,0-.2,0-.3,0-.3-.3v-1.8c0-.2,0-.3.3-.3s.7,0,2.5,0v-1c0-1.3,0-2-.2-2.9.9,0,1.8,0,2.6.2.2,0,.4.1.4.2,0,.2,0,.3-.1.5-.1.3-.2.6-.2,1.9v1.1h.7ZM305.2,174.2c-2.3,0-3,0-3.2,0-.3,0-.3,0-.3-.3v-1.7c0-.2,0-.3.3-.3s.9,0,3.2,0h6.5c2.3,0,3,0,3.2,0,.3,0,.3,0,.3.3v1.7c0,.2,0,.3-.3.3s-.9,0-3.2,0h-6.5ZM310.4,175.4c2,0,2.7,0,2.9,0,.2,0,.3,0,.3.3s0,.5,0,1.6v2c0,1.1,0,1.5,0,1.6,0,.2,0,.3-.3.3s-.8,0-2.9,0h-4.2c-2,0-2.7,0-2.9,0-.2,0-.3,0-.3-.3s0-.5,0-1.6v-2c0-1.1,0-1.4,0-1.6,0-.2,0-.3.3-.3s.9,0,2.9,0h4.2ZM304.2,186.1h3v-1.8h-3v1.8ZM307.2,189.9v-1.9h-3v1.9h3ZM311.3,177.3h-5.9v1.9h5.9v-1.9ZM309.4,184.3v1.8h3.1v-1.8h-3.1ZM312.5,189.9v-1.9h-3.1v1.9h3.1Z"/>
  </g>
</svg>