<svg width="57" height="59" viewBox="0 0 57 59" fill="none" xmlns="http://www.w3.org/2000/svg">
<path d="M55.7509 14.2885C53.9835 8.0422 48.8074 5.3851 42.8739 6.39504C37.41 7.32507 34.5556 14.1365 33.2261 18.267C33.6215 12.7961 32.6106 5.18783 26.0833 1.63519C16.1099 -3.79338 9.79761 5.9276 9.16636 7.18999C8.53511 8.45249 8.53407 8.69414 10.3025 8.57872C10.8293 8.54423 15.4194 7.2523 19.9238 8.06691L22.0434 6.11212L23.0257 8.86681C26.7578 10.1746 29.7522 13.5261 30.2917 18.5512C27.2639 14.8289 22.5937 12.4323 17.3348 12.4323C8.19091 12.4323 0.778809 19.643 0.778809 28.5375C0.778809 29.2535 0.793639 28.7398 0.793639 28.7398C0.819275 29.0769 1.04011 29.3679 1.35775 29.4833C1.67527 29.5978 2.03142 29.5159 2.26709 29.2733C2.26709 29.2733 2.45149 28.9862 3.28001 28.2288C4.73967 26.8933 6.34533 25.7166 8.06549 24.7136L9.63862 21.7774L11.7611 22.9047C14.9459 21.6354 18.4196 20.9351 22.0581 20.9351C24.4577 20.9351 26.7873 21.2398 29.0094 21.8108C23.8856 21.4716 16.163 24.1425 13.1064 30.6628C9.31903 38.7425 13.0462 45.1555 13.5848 45.6574C14.0267 46.0687 14.5612 45.7482 14.7062 45.0311C15.0227 43.464 15.8927 40.5346 17.4904 37.2492L16.8454 34.6435L18.6218 35.0981C20.8479 31.1726 24.1076 27.0509 28.7185 24.2746C25.155 32.1254 22.2218 43.5989 26.6917 58.8599H37.6691C37.6691 58.8599 26.5249 48.0658 32.3165 25.9315C33.5751 27.5578 35.1767 29.9181 36.5133 32.7931L38.2027 33.0062L37.4481 35.028C38.3733 37.5036 39.0391 40.2692 39.1317 43.229C39.1554 43.9845 39.6111 44.5438 39.8438 44.0487C43.4103 36.4482 42.2888 28.6693 37.2894 24.1304C40.4416 25.1699 43.0178 27.7047 45.0249 30.6043L47.4186 31.1182L46.9728 33.8167C48.6525 37.0103 49.6831 40.1724 50.0511 41.9852C50.1959 42.6992 50.5747 43.1648 51.0315 42.3522C53.7526 37.5096 54.1038 28.2166 49.1861 23.1293C45.3731 19.1862 38.6456 18.9266 34.5023 20.0195C37.2223 15.446 44.5003 15.1057 44.5003 15.1057C44.5003 15.1057 45.6513 12.4549 45.9039 12.0761C46.1563 11.6974 47.545 14.6583 47.545 14.6583L54.8732 17.6517C54.8732 17.6517 55.8141 18.2949 55.9975 17.2019C56.108 16.5421 56.175 15.5252 55.7509 14.2885Z" fill="white"/>
</svg>
