<svg width="605" height="86" viewBox="0 0 605 86" fill="none" xmlns="http://www.w3.org/2000/svg">
<path d="M6.89808 31H0.307173L10.3498 1.90909H18.2759L28.3043 31H21.7134L14.4265 8.55682H14.1992L6.89808 31ZM6.48615 19.5653H22.0543V24.3665H6.48615V19.5653ZM52.7113 1.90909H58.7908V22.1932C58.7908 24.0682 58.3694 25.697 57.5266 27.0795C56.6933 28.4621 55.5333 29.5275 54.0465 30.2756C52.5598 31.0237 50.8316 31.3977 48.8619 31.3977C47.11 31.3977 45.5191 31.09 44.0891 30.4744C42.6687 29.8494 41.5418 28.9025 40.7085 27.6335C39.8751 26.3551 39.4632 24.75 39.4727 22.8182H45.5948C45.6138 23.5852 45.77 24.2434 46.0636 24.7926C46.3666 25.3324 46.7785 25.7491 47.2994 26.0426C47.8297 26.3267 48.4547 26.4688 49.1744 26.4688C49.9319 26.4688 50.5711 26.3078 51.092 25.9858C51.6223 25.6544 52.0247 25.1714 52.2994 24.5369C52.574 23.9025 52.7113 23.1212 52.7113 22.1932V1.90909ZM73.6204 31.4261C71.4139 31.4261 69.5058 30.9574 67.896 30.0199C66.2956 29.0729 65.0598 27.7566 64.1886 26.071C63.3174 24.3759 62.8817 22.411 62.8817 20.1761C62.8817 17.9223 63.3174 15.9527 64.1886 14.267C65.0598 12.572 66.2956 11.2557 67.896 10.3182C69.5058 9.37121 71.4139 8.89773 73.6204 8.89773C75.8268 8.89773 77.7302 9.37121 79.3306 10.3182C80.9405 11.2557 82.181 12.572 83.0522 14.267C83.9234 15.9527 84.359 17.9223 84.359 20.1761C84.359 22.411 83.9234 24.3759 83.0522 26.071C82.181 27.7566 80.9405 29.0729 79.3306 30.0199C77.7302 30.9574 75.8268 31.4261 73.6204 31.4261ZM73.6488 26.7386C74.6526 26.7386 75.4906 26.4545 76.163 25.8864C76.8353 25.3087 77.342 24.5227 77.6829 23.5284C78.0333 22.5341 78.2085 21.4025 78.2085 20.1335C78.2085 18.8646 78.0333 17.733 77.6829 16.7386C77.342 15.7443 76.8353 14.9583 76.163 14.3807C75.4906 13.803 74.6526 13.5142 73.6488 13.5142C72.6355 13.5142 71.7833 13.803 71.092 14.3807C70.4102 14.9583 69.8941 15.7443 69.5437 16.7386C69.2028 17.733 69.0323 18.8646 69.0323 20.1335C69.0323 21.4025 69.2028 22.5341 69.5437 23.5284C69.8941 24.5227 70.4102 25.3087 71.092 25.8864C71.7833 26.4545 72.6355 26.7386 73.6488 26.7386ZM102.285 21.7102V9.18182H108.336V31H102.527V27.0369H102.299C101.807 28.3153 100.988 29.3428 99.842 30.1193C98.7056 30.8958 97.3183 31.2841 95.68 31.2841C94.2217 31.2841 92.9386 30.9527 91.8306 30.2898C90.7227 29.6269 89.8562 28.6847 89.2312 27.4631C88.6156 26.2415 88.3031 24.7784 88.2937 23.0739V9.18182H94.3448V21.9943C94.3543 23.2822 94.6999 24.3002 95.3817 25.0483C96.0636 25.7964 96.9774 26.1705 98.1232 26.1705C98.8524 26.1705 99.5342 26.0047 100.169 25.6733C100.803 25.3324 101.315 24.8305 101.703 24.1676C102.1 23.5047 102.295 22.6856 102.285 21.7102ZM113.176 31V9.18182H119.043V12.9886H119.27C119.668 11.6345 120.336 10.6117 121.273 9.92045C122.211 9.2197 123.29 8.86932 124.512 8.86932C124.815 8.86932 125.141 8.88826 125.492 8.92614C125.842 8.96402 126.15 9.0161 126.415 9.08239V14.4517C126.131 14.3665 125.738 14.2907 125.236 14.2244C124.734 14.1581 124.275 14.125 123.858 14.125C122.968 14.125 122.173 14.3191 121.472 14.7074C120.781 15.0862 120.231 15.6165 119.824 16.2983C119.426 16.9801 119.228 17.7661 119.228 18.6562V31H113.176ZM135.595 18.3864V31H129.544V9.18182H135.311V13.0312H135.566C136.049 11.7623 136.859 10.7585 137.995 10.0199C139.132 9.27178 140.51 8.89773 142.129 8.89773C143.644 8.89773 144.965 9.22917 146.092 9.89205C147.219 10.5549 148.095 11.5019 148.72 12.733C149.345 13.9545 149.657 15.4129 149.657 17.108V31H143.606V18.1875C143.616 16.8523 143.275 15.8106 142.583 15.0625C141.892 14.3049 140.94 13.9261 139.728 13.9261C138.914 13.9261 138.194 14.1013 137.569 14.4517C136.954 14.8021 136.471 15.3134 136.12 15.9858C135.779 16.6487 135.604 17.4489 135.595 18.3864ZM164.37 31.4261C162.125 31.4261 160.194 30.9716 158.574 30.0625C156.964 29.1439 155.724 27.8466 154.853 26.1705C153.981 24.4848 153.546 22.4915 153.546 20.1903C153.546 17.946 153.981 15.9763 154.853 14.2812C155.724 12.5862 156.95 11.2652 158.532 10.3182C160.123 9.37121 161.988 8.89773 164.128 8.89773C165.568 8.89773 166.908 9.12973 168.148 9.59375C169.398 10.0483 170.487 10.7348 171.415 11.6534C172.353 12.572 173.082 13.7273 173.603 15.1193C174.123 16.5019 174.384 18.1212 174.384 19.9773V21.6392H155.961V17.8892H168.688C168.688 17.018 168.498 16.2462 168.12 15.5739C167.741 14.9015 167.215 14.3759 166.543 13.9972C165.88 13.6089 165.108 13.4148 164.228 13.4148C163.309 13.4148 162.495 13.6278 161.784 14.054C161.084 14.4706 160.534 15.0341 160.137 15.7443C159.739 16.4451 159.535 17.2263 159.526 18.0881V21.6534C159.526 22.733 159.725 23.6657 160.123 24.4517C160.53 25.2377 161.103 25.8438 161.841 26.2699C162.58 26.696 163.456 26.9091 164.469 26.9091C165.141 26.9091 165.757 26.8144 166.316 26.625C166.874 26.4356 167.353 26.1515 167.75 25.7727C168.148 25.3939 168.451 24.9299 168.659 24.3807L174.256 24.75C173.972 26.0947 173.39 27.2689 172.509 28.2727C171.638 29.267 170.511 30.0436 169.128 30.6023C167.755 31.1515 166.169 31.4261 164.37 31.4261ZM181.483 39.1818C180.716 39.1818 179.996 39.1203 179.324 38.9972C178.661 38.8835 178.111 38.7367 177.676 38.5568L179.039 34.0398C179.75 34.2576 180.389 34.3759 180.957 34.3949C181.535 34.4138 182.032 34.2813 182.449 33.9972C182.875 33.7131 183.22 33.2301 183.485 32.5483L183.841 31.625L176.014 9.18182H182.377L186.895 25.2045H187.122L191.681 9.18182H198.088L189.608 33.358C189.2 34.5322 188.646 35.5549 187.946 36.4261C187.254 37.3068 186.378 37.9839 185.318 38.4574C184.257 38.9403 182.979 39.1818 181.483 39.1818ZM220.3 31.4261C218.094 31.4261 216.185 30.9574 214.576 30.0199C212.975 29.0729 211.739 27.7566 210.868 26.071C209.997 24.3759 209.561 22.411 209.561 20.1761C209.561 17.9223 209.997 15.9527 210.868 14.267C211.739 12.572 212.975 11.2557 214.576 10.3182C216.185 9.37121 218.094 8.89773 220.3 8.89773C222.507 8.89773 224.41 9.37121 226.01 10.3182C227.62 11.2557 228.861 12.572 229.732 14.267C230.603 15.9527 231.039 17.9223 231.039 20.1761C231.039 22.411 230.603 24.3759 229.732 26.071C228.861 27.7566 227.62 29.0729 226.01 30.0199C224.41 30.9574 222.507 31.4261 220.3 31.4261ZM220.328 26.7386C221.332 26.7386 222.17 26.4545 222.843 25.8864C223.515 25.3087 224.022 24.5227 224.363 23.5284C224.713 22.5341 224.888 21.4025 224.888 20.1335C224.888 18.8646 224.713 17.733 224.363 16.7386C224.022 15.7443 223.515 14.9583 222.843 14.3807C222.17 13.803 221.332 13.5142 220.328 13.5142C219.315 13.5142 218.463 13.803 217.772 14.3807C217.09 14.9583 216.574 15.7443 216.223 16.7386C215.882 17.733 215.712 18.8646 215.712 20.1335C215.712 21.4025 215.882 22.5341 216.223 23.5284C216.574 24.5227 217.09 25.3087 217.772 25.8864C218.463 26.4545 219.315 26.7386 220.328 26.7386ZM246.706 9.18182V13.7273H233.24V9.18182H246.706ZM236.323 31V7.60511C236.323 6.02367 236.631 4.71212 237.246 3.67045C237.871 2.62879 238.723 1.84754 239.803 1.3267C240.882 0.805869 242.109 0.545453 243.482 0.545453C244.41 0.545453 245.257 0.616476 246.025 0.758523C246.801 0.900568 247.379 1.02841 247.757 1.14205L246.678 5.6875C246.441 5.61174 246.148 5.54072 245.797 5.47443C245.456 5.40814 245.106 5.375 244.746 5.375C243.856 5.375 243.236 5.58333 242.885 6C242.535 6.4072 242.36 6.98011 242.36 7.71875V31H236.323ZM275.556 10.2756C275.442 9.12973 274.954 8.23958 274.093 7.60511C273.231 6.97064 272.061 6.65341 270.584 6.65341C269.58 6.65341 268.733 6.79545 268.042 7.07955C267.35 7.35417 266.82 7.73769 266.451 8.23011C266.091 8.72254 265.911 9.28125 265.911 9.90625C265.892 10.4271 266.001 10.8816 266.238 11.2699C266.484 11.6581 266.82 11.9943 267.246 12.2784C267.672 12.553 268.165 12.7945 268.723 13.0028C269.282 13.2017 269.879 13.3722 270.513 13.5142L273.127 14.1392C274.396 14.4233 275.56 14.8021 276.621 15.2756C277.682 15.7491 278.6 16.3314 279.377 17.0227C280.153 17.714 280.755 18.5284 281.181 19.4659C281.616 20.4034 281.839 21.4782 281.848 22.6903C281.839 24.4706 281.384 26.0142 280.485 27.321C279.595 28.6184 278.307 29.6269 276.621 30.3466C274.945 31.0568 272.923 31.4119 270.556 31.4119C268.207 31.4119 266.162 31.0521 264.419 30.3324C262.686 29.6127 261.332 28.5473 260.357 27.1364C259.391 25.7159 258.884 23.9593 258.837 21.8665H264.789C264.855 22.8419 265.134 23.6562 265.627 24.3097C266.129 24.9536 266.796 25.4413 267.63 25.7727C268.472 26.0947 269.424 26.2557 270.485 26.2557C271.526 26.2557 272.431 26.1042 273.198 25.8011C273.974 25.4981 274.576 25.0767 275.002 24.5369C275.428 23.9972 275.641 23.3769 275.641 22.6761C275.641 22.0227 275.447 21.4735 275.059 21.0284C274.68 20.5833 274.121 20.2045 273.382 19.892C272.653 19.5795 271.758 19.2955 270.698 19.0398L267.53 18.2443C265.078 17.6477 263.141 16.715 261.721 15.446C260.3 14.1771 259.595 12.4678 259.604 10.3182C259.595 8.55682 260.063 7.01799 261.01 5.7017C261.967 4.38542 263.278 3.35795 264.945 2.61932C266.612 1.88068 268.506 1.51136 270.627 1.51136C272.786 1.51136 274.67 1.88068 276.28 2.61932C277.9 3.35795 279.159 4.38542 280.059 5.7017C280.958 7.01799 281.422 8.54261 281.451 10.2756H275.556ZM295.815 31.4261C293.571 31.4261 291.639 30.9716 290.02 30.0625C288.41 29.1439 287.169 27.8466 286.298 26.1705C285.427 24.4848 284.991 22.4915 284.991 20.1903C284.991 17.946 285.427 15.9763 286.298 14.2812C287.169 12.5862 288.395 11.2652 289.977 10.3182C291.568 9.37121 293.433 8.89773 295.574 8.89773C297.013 8.89773 298.353 9.12973 299.593 9.59375C300.843 10.0483 301.932 10.7348 302.86 11.6534C303.798 12.572 304.527 13.7273 305.048 15.1193C305.569 16.5019 305.829 18.1212 305.829 19.9773V21.6392H287.406V17.8892H300.133C300.133 17.018 299.944 16.2462 299.565 15.5739C299.186 14.9015 298.661 14.3759 297.988 13.9972C297.325 13.6089 296.554 13.4148 295.673 13.4148C294.754 13.4148 293.94 13.6278 293.23 14.054C292.529 14.4706 291.98 15.0341 291.582 15.7443C291.184 16.4451 290.981 17.2263 290.971 18.0881V21.6534C290.971 22.733 291.17 23.6657 291.568 24.4517C291.975 25.2377 292.548 25.8438 293.287 26.2699C294.025 26.696 294.901 26.9091 295.914 26.9091C296.587 26.9091 297.202 26.8144 297.761 26.625C298.32 26.4356 298.798 26.1515 299.196 25.7727C299.593 25.3939 299.896 24.9299 300.105 24.3807L305.701 24.75C305.417 26.0947 304.835 27.2689 303.954 28.2727C303.083 29.267 301.956 30.0436 300.574 30.6023C299.2 31.1515 297.614 31.4261 295.815 31.4261ZM315.829 18.3864V31H309.778V9.18182H315.545V13.0312H315.801C316.284 11.7623 317.093 10.7585 318.23 10.0199C319.366 9.27178 320.744 8.89773 322.363 8.89773C323.878 8.89773 325.199 9.22917 326.326 9.89205C327.453 10.5549 328.329 11.5019 328.954 12.733C329.579 13.9545 329.892 15.4129 329.892 17.108V31H323.841V18.1875C323.85 16.8523 323.509 15.8106 322.818 15.0625C322.127 14.3049 321.175 13.9261 319.963 13.9261C319.148 13.9261 318.429 14.1013 317.804 14.4517C317.188 14.8021 316.705 15.3134 316.355 15.9858C316.014 16.6487 315.839 17.4489 315.829 18.3864ZM352.814 15.4034L347.275 15.7443C347.18 15.2708 346.976 14.8447 346.664 14.4659C346.351 14.0777 345.939 13.7699 345.428 13.5426C344.926 13.3059 344.325 13.1875 343.624 13.1875C342.686 13.1875 341.896 13.3864 341.252 13.7841C340.608 14.1723 340.286 14.6932 340.286 15.3466C340.286 15.8674 340.494 16.3078 340.911 16.6676C341.328 17.0275 342.042 17.3163 343.056 17.5341L347.005 18.3295C349.126 18.7652 350.707 19.4659 351.749 20.4318C352.791 21.3977 353.311 22.6667 353.311 24.2386C353.311 25.6686 352.89 26.9233 352.047 28.0028C351.214 29.0824 350.068 29.9252 348.61 30.5312C347.161 31.1278 345.489 31.4261 343.596 31.4261C340.707 31.4261 338.406 30.8248 336.692 29.6222C334.988 28.41 333.989 26.7623 333.695 24.679L339.647 24.3665C339.827 25.2472 340.262 25.9195 340.953 26.3835C341.645 26.8381 342.53 27.0653 343.61 27.0653C344.67 27.0653 345.523 26.8617 346.167 26.4545C346.82 26.0379 347.151 25.5028 347.161 24.8494C347.151 24.3002 346.919 23.8504 346.465 23.5C346.01 23.1402 345.31 22.8655 344.363 22.6761L340.584 21.9233C338.453 21.4972 336.867 20.7585 335.826 19.7074C334.793 18.6562 334.277 17.3163 334.277 15.6875C334.277 14.286 334.656 13.0786 335.414 12.0653C336.181 11.0521 337.256 10.2708 338.638 9.72159C340.03 9.17235 341.659 8.89773 343.525 8.89773C346.28 8.89773 348.449 9.48011 350.03 10.6449C351.621 11.8097 352.549 13.3958 352.814 15.4034ZM366.98 31.4261C364.773 31.4261 362.865 30.9574 361.255 30.0199C359.655 29.0729 358.419 27.7566 357.548 26.071C356.677 24.3759 356.241 22.411 356.241 20.1761C356.241 17.9223 356.677 15.9527 357.548 14.267C358.419 12.572 359.655 11.2557 361.255 10.3182C362.865 9.37121 364.773 8.89773 366.98 8.89773C369.186 8.89773 371.09 9.37121 372.69 10.3182C374.3 11.2557 375.54 12.572 376.412 14.267C377.283 15.9527 377.718 17.9223 377.718 20.1761C377.718 22.411 377.283 24.3759 376.412 26.071C375.54 27.7566 374.3 29.0729 372.69 30.0199C371.09 30.9574 369.186 31.4261 366.98 31.4261ZM367.008 26.7386C368.012 26.7386 368.85 26.4545 369.522 25.8864C370.195 25.3087 370.701 24.5227 371.042 23.5284C371.393 22.5341 371.568 21.4025 371.568 20.1335C371.568 18.8646 371.393 17.733 371.042 16.7386C370.701 15.7443 370.195 14.9583 369.522 14.3807C368.85 13.803 368.012 13.5142 367.008 13.5142C365.995 13.5142 365.143 13.803 364.451 14.3807C363.77 14.9583 363.253 15.7443 362.903 16.7386C362.562 17.733 362.392 18.8646 362.392 20.1335C362.392 21.4025 362.562 22.5341 362.903 23.5284C363.253 24.5227 363.77 25.3087 364.451 25.8864C365.143 26.4545 365.995 26.7386 367.008 26.7386ZM381.653 31V9.18182H387.52V12.9886H387.747C388.145 11.6345 388.812 10.6117 389.75 9.92045C390.687 9.2197 391.767 8.86932 392.988 8.86932C393.291 8.86932 393.618 8.88826 393.968 8.92614C394.319 8.96402 394.627 9.0161 394.892 9.08239V14.4517C394.608 14.3665 394.215 14.2907 393.713 14.2244C393.211 14.1581 392.752 14.125 392.335 14.125C391.445 14.125 390.649 14.3191 389.949 14.7074C389.257 15.0862 388.708 15.6165 388.301 16.2983C387.903 16.9801 387.704 17.7661 387.704 18.6562V31H381.653ZM402.42 39.1818C401.653 39.1818 400.933 39.1203 400.261 38.9972C399.598 38.8835 399.049 38.7367 398.613 38.5568L399.977 34.0398C400.687 34.2576 401.326 34.3759 401.895 34.3949C402.472 34.4138 402.969 34.2813 403.386 33.9972C403.812 33.7131 404.158 33.2301 404.423 32.5483L404.778 31.625L396.951 9.18182H403.315L407.832 25.2045H408.059L412.619 9.18182H419.025L410.545 33.358C410.138 34.5322 409.584 35.5549 408.883 36.4261C408.192 37.3068 407.316 37.9839 406.255 38.4574C405.195 38.9403 403.916 39.1818 402.42 39.1818ZM438.042 31L429.718 1.90909H436.436L441.252 22.1222H441.493L446.806 1.90909H452.559L457.857 22.1648H458.113L462.928 1.90909H469.647L461.323 31H455.328L449.789 11.9801H449.561L444.036 31H438.042ZM480.339 31.4261C478.133 31.4261 476.225 30.9574 474.615 30.0199C473.014 29.0729 471.779 27.7566 470.907 26.071C470.036 24.3759 469.6 22.411 469.6 20.1761C469.6 17.9223 470.036 15.9527 470.907 14.267C471.779 12.572 473.014 11.2557 474.615 10.3182C476.225 9.37121 478.133 8.89773 480.339 8.89773C482.546 8.89773 484.449 9.37121 486.049 10.3182C487.659 11.2557 488.9 12.572 489.771 14.267C490.642 15.9527 491.078 17.9223 491.078 20.1761C491.078 22.411 490.642 24.3759 489.771 26.071C488.9 27.7566 487.659 29.0729 486.049 30.0199C484.449 30.9574 482.546 31.4261 480.339 31.4261ZM480.368 26.7386C481.371 26.7386 482.209 26.4545 482.882 25.8864C483.554 25.3087 484.061 24.5227 484.402 23.5284C484.752 22.5341 484.927 21.4025 484.927 20.1335C484.927 18.8646 484.752 17.733 484.402 16.7386C484.061 15.7443 483.554 14.9583 482.882 14.3807C482.209 13.803 481.371 13.5142 480.368 13.5142C479.354 13.5142 478.502 13.803 477.811 14.3807C477.129 14.9583 476.613 15.7443 476.262 16.7386C475.922 17.733 475.751 18.8646 475.751 20.1335C475.751 21.4025 475.922 22.5341 476.262 23.5284C476.613 24.5227 477.129 25.3087 477.811 25.8864C478.502 26.4545 479.354 26.7386 480.368 26.7386ZM501.064 18.3864V31H495.012V9.18182H500.779V13.0312H501.035C501.518 11.7623 502.328 10.7585 503.464 10.0199C504.6 9.27178 505.978 8.89773 507.598 8.89773C509.113 8.89773 510.434 9.22917 511.561 9.89205C512.688 10.5549 513.564 11.5019 514.189 12.733C514.814 13.9545 515.126 15.4129 515.126 17.108V31H509.075V18.1875C509.084 16.8523 508.743 15.8106 508.052 15.0625C507.361 14.3049 506.409 13.9261 505.197 13.9261C504.383 13.9261 503.663 14.1013 503.038 14.4517C502.422 14.8021 501.94 15.3134 501.589 15.9858C501.248 16.6487 501.073 17.4489 501.064 18.3864ZM527.935 31.3551C526.278 31.3551 524.777 30.929 523.432 30.0767C522.097 29.215 521.036 27.9508 520.25 26.2841C519.474 24.608 519.086 22.553 519.086 20.1193C519.086 17.6193 519.488 15.5407 520.293 13.8835C521.098 12.2169 522.168 10.9716 523.503 10.1477C524.848 9.31439 526.32 8.89773 527.921 8.89773C529.142 8.89773 530.16 9.10606 530.975 9.52273C531.799 9.92992 532.462 10.4413 532.963 11.0568C533.475 11.6629 533.863 12.2595 534.128 12.8466H534.313V1.90909H540.35V31H534.384V27.5057H534.128C533.844 28.1117 533.442 28.7131 532.921 29.3097C532.409 29.8968 531.742 30.3845 530.918 30.7727C530.104 31.161 529.109 31.3551 527.935 31.3551ZM529.853 26.5398C530.828 26.5398 531.652 26.2746 532.324 25.7443C533.006 25.2045 533.527 24.4517 533.887 23.4858C534.256 22.5199 534.441 21.3883 534.441 20.0909C534.441 18.7936 534.261 17.6667 533.901 16.7102C533.541 15.7538 533.02 15.0152 532.338 14.4943C531.657 13.9735 530.828 13.7131 529.853 13.7131C528.858 13.7131 528.02 13.983 527.338 14.5227C526.657 15.0625 526.141 15.8106 525.79 16.767C525.44 17.7235 525.265 18.8314 525.265 20.0909C525.265 21.3598 525.44 22.482 525.79 23.4574C526.15 24.4233 526.666 25.1809 527.338 25.7301C528.02 26.2699 528.858 26.5398 529.853 26.5398ZM555.268 31.4261C553.024 31.4261 551.092 30.9716 549.473 30.0625C547.863 29.1439 546.622 27.8466 545.751 26.1705C544.88 24.4848 544.444 22.4915 544.444 20.1903C544.444 17.946 544.88 15.9763 545.751 14.2812C546.622 12.5862 547.849 11.2652 549.43 10.3182C551.021 9.37121 552.886 8.89773 555.027 8.89773C556.466 8.89773 557.806 9.12973 559.047 9.59375C560.297 10.0483 561.386 10.7348 562.314 11.6534C563.251 12.572 563.98 13.7273 564.501 15.1193C565.022 16.5019 565.282 18.1212 565.282 19.9773V21.6392H546.859V17.8892H559.586C559.586 17.018 559.397 16.2462 559.018 15.5739C558.639 14.9015 558.114 14.3759 557.441 13.9972C556.779 13.6089 556.007 13.4148 555.126 13.4148C554.208 13.4148 553.393 13.6278 552.683 14.054C551.982 14.4706 551.433 15.0341 551.035 15.7443C550.637 16.4451 550.434 17.2263 550.424 18.0881V21.6534C550.424 22.733 550.623 23.6657 551.021 24.4517C551.428 25.2377 552.001 25.8438 552.74 26.2699C553.478 26.696 554.354 26.9091 555.368 26.9091C556.04 26.9091 556.655 26.8144 557.214 26.625C557.773 26.4356 558.251 26.1515 558.649 25.7727C559.047 25.3939 559.35 24.9299 559.558 24.3807L565.154 24.75C564.87 26.0947 564.288 27.2689 563.407 28.2727C562.536 29.267 561.409 30.0436 560.027 30.6023C558.654 31.1515 557.067 31.4261 555.268 31.4261ZM569.231 31V9.18182H575.098V12.9886H575.325C575.723 11.6345 576.39 10.6117 577.328 9.92045C578.265 9.2197 579.345 8.86932 580.566 8.86932C580.869 8.86932 581.196 8.88826 581.547 8.92614C581.897 8.96402 582.205 9.0161 582.47 9.08239V14.4517C582.186 14.3665 581.793 14.2907 581.291 14.2244C580.789 14.1581 580.33 14.125 579.913 14.125C579.023 14.125 578.227 14.3191 577.527 14.7074C576.835 15.0862 576.286 15.6165 575.879 16.2983C575.481 16.9801 575.282 17.7661 575.282 18.6562V31H569.231ZM603.752 15.4034L598.212 15.7443C598.117 15.2708 597.914 14.8447 597.601 14.4659C597.289 14.0777 596.877 13.7699 596.365 13.5426C595.864 13.3059 595.262 13.1875 594.561 13.1875C593.624 13.1875 592.833 13.3864 592.189 13.7841C591.545 14.1723 591.223 14.6932 591.223 15.3466C591.223 15.8674 591.432 16.3078 591.848 16.6676C592.265 17.0275 592.98 17.3163 593.993 17.5341L597.942 18.3295C600.063 18.7652 601.645 19.4659 602.686 20.4318C603.728 21.3977 604.249 22.6667 604.249 24.2386C604.249 25.6686 603.828 26.9233 602.985 28.0028C602.151 29.0824 601.006 29.9252 599.547 30.5312C598.098 31.1278 596.427 31.4261 594.533 31.4261C591.645 31.4261 589.344 30.8248 587.63 29.6222C585.925 28.41 584.926 26.7623 584.632 24.679L590.584 24.3665C590.764 25.2472 591.2 25.9195 591.891 26.3835C592.582 26.8381 593.468 27.0653 594.547 27.0653C595.608 27.0653 596.46 26.8617 597.104 26.4545C597.757 26.0379 598.089 25.5028 598.098 24.8494C598.089 24.3002 597.857 23.8504 597.402 23.5C596.948 23.1402 596.247 22.8655 595.3 22.6761L591.522 21.9233C589.391 21.4972 587.805 20.7585 586.763 19.7074C585.731 18.6562 585.215 17.3163 585.215 15.6875C585.215 14.286 585.594 13.0786 586.351 12.0653C587.118 11.0521 588.193 10.2708 589.576 9.72159C590.968 9.17235 592.596 8.89773 594.462 8.89773C597.218 8.89773 599.386 9.48011 600.968 10.6449C602.559 11.8097 603.487 13.3958 603.752 15.4034ZM30.1619 70.4432C30.1165 69.0114 30.2907 67.7992 30.6847 66.8068C31.0786 65.8144 31.6506 65.0606 32.4006 64.5455C33.1581 64.0303 34.0483 63.7727 35.071 63.7727C35.7831 63.7727 36.465 63.9205 37.1165 64.2159C37.768 64.5114 38.5066 65.0227 39.3324 65.75C39.7718 66.1364 40.143 66.4318 40.446 66.6364C40.7491 66.8333 41.0975 66.9318 41.4915 66.9318C42.0294 66.9318 42.4725 66.7235 42.821 66.3068C43.1695 65.8826 43.3324 65.2121 43.3097 64.2955H47.0142C47.0672 65.7348 46.893 66.9508 46.4915 67.9432C46.09 68.9356 45.5104 69.6894 44.7528 70.2045C43.9953 70.7197 43.1127 70.9773 42.1051 70.9773C41.3551 70.9773 40.6506 70.822 39.9915 70.5114C39.34 70.1932 38.6165 69.6856 37.821 68.9886C37.3513 68.572 36.9763 68.2727 36.696 68.0909C36.4157 67.9015 36.0824 67.8068 35.696 67.8068C35.1581 67.8068 34.715 68.0114 34.3665 68.4205C34.018 68.822 33.8551 69.4962 33.8778 70.4432H30.1619ZM59.7415 79H51.4915V55.7273H59.8097C62.1506 55.7273 64.1657 56.1932 65.8551 57.125C67.5445 58.0492 68.8438 59.3788 69.7528 61.1136C70.6695 62.8485 71.1278 64.9242 71.1278 67.3409C71.1278 69.7652 70.6695 71.8485 69.7528 73.5909C68.8438 75.3333 67.5369 76.6705 65.8324 77.6023C64.1354 78.5341 62.1051 79 59.7415 79ZM56.4119 74.7841H59.5369C60.9915 74.7841 62.215 74.5265 63.2074 74.0114C64.2074 73.4886 64.9574 72.6818 65.4574 71.5909C65.965 70.4924 66.2188 69.0758 66.2188 67.3409C66.2188 65.6212 65.965 64.2159 65.4574 63.125C64.9574 62.0341 64.2112 61.2311 63.2188 60.7159C62.2263 60.2008 61.0028 59.9432 59.5483 59.9432H56.4119V74.7841ZM74.6818 79V61.5455H79.5227V79H74.6818ZM77.1136 59.2955C76.3939 59.2955 75.7765 59.0568 75.2614 58.5795C74.7538 58.0947 74.5 57.5152 74.5 56.8409C74.5 56.1742 74.7538 55.6023 75.2614 55.125C75.7765 54.6402 76.3939 54.3977 77.1136 54.3977C77.8333 54.3977 78.447 54.6402 78.9545 55.125C79.4697 55.6023 79.7273 56.1742 79.7273 56.8409C79.7273 57.5152 79.4697 58.0947 78.9545 58.5795C78.447 59.0568 77.8333 59.2955 77.1136 59.2955ZM97.9233 66.5227L93.4915 66.7955C93.4157 66.4167 93.2528 66.0758 93.0028 65.7727C92.7528 65.4621 92.4233 65.2159 92.0142 65.0341C91.6127 64.8447 91.1316 64.75 90.571 64.75C89.821 64.75 89.1884 64.9091 88.6733 65.2273C88.1581 65.5379 87.9006 65.9545 87.9006 66.4773C87.9006 66.8939 88.0672 67.2462 88.4006 67.5341C88.7339 67.822 89.3059 68.053 90.1165 68.2273L93.2756 68.8636C94.9725 69.2121 96.2377 69.7727 97.071 70.5455C97.9044 71.3182 98.321 72.3333 98.321 73.5909C98.321 74.7348 97.9839 75.7386 97.3097 76.6023C96.643 77.4659 95.7263 78.1402 94.5597 78.625C93.4006 79.1023 92.0634 79.3409 90.5483 79.3409C88.2377 79.3409 86.3968 78.8598 85.0256 77.8977C83.6619 76.928 82.8627 75.6098 82.6278 73.9432L87.3892 73.6932C87.5331 74.3977 87.8816 74.9356 88.4347 75.3068C88.9877 75.6705 89.696 75.8523 90.5597 75.8523C91.4081 75.8523 92.09 75.6894 92.6051 75.3636C93.1278 75.0303 93.393 74.6023 93.4006 74.0795C93.393 73.6402 93.2074 73.2803 92.8438 73C92.4801 72.7121 91.9195 72.4924 91.1619 72.3409L88.1392 71.7386C86.4347 71.3977 85.1657 70.8068 84.3324 69.9659C83.5066 69.125 83.0938 68.053 83.0938 66.75C83.0938 65.6288 83.3968 64.6629 84.0028 63.8523C84.6165 63.0417 85.4763 62.4167 86.5824 61.9773C87.696 61.5379 88.9991 61.3182 90.4915 61.3182C92.696 61.3182 94.4309 61.7841 95.696 62.7159C96.9688 63.6477 97.7112 64.9167 97.9233 66.5227ZM109.256 79.3409C107.468 79.3409 105.93 78.9621 104.642 78.2045C103.362 77.4394 102.377 76.3788 101.688 75.0227C101.006 73.6667 100.665 72.1061 100.665 70.3409C100.665 68.553 101.009 66.9848 101.699 65.6364C102.396 64.2803 103.384 63.2235 104.665 62.4659C105.945 61.7008 107.468 61.3182 109.233 61.3182C110.756 61.3182 112.089 61.5947 113.233 62.1477C114.377 62.7008 115.282 63.4773 115.949 64.4773C116.616 65.4773 116.983 66.6515 117.051 68H112.483C112.354 67.1288 112.013 66.428 111.46 65.8977C110.915 65.3598 110.199 65.0909 109.312 65.0909C108.562 65.0909 107.907 65.2955 107.347 65.7045C106.794 66.1061 106.362 66.6932 106.051 67.4659C105.741 68.2386 105.585 69.1742 105.585 70.2727C105.585 71.3864 105.737 72.3333 106.04 73.1136C106.35 73.8939 106.786 74.4886 107.347 74.8977C107.907 75.3068 108.562 75.5114 109.312 75.5114C109.866 75.5114 110.362 75.3977 110.801 75.1705C111.248 74.9432 111.616 74.6136 111.903 74.1818C112.199 73.7424 112.392 73.2159 112.483 72.6023H117.051C116.975 73.9356 116.612 75.1098 115.96 76.125C115.316 77.1326 114.426 77.9205 113.29 78.4886C112.153 79.0568 110.809 79.3409 109.256 79.3409ZM128.037 79.3409C126.272 79.3409 124.745 78.9659 123.457 78.2159C122.177 77.4583 121.188 76.4053 120.491 75.0568C119.795 73.7008 119.446 72.1288 119.446 70.3409C119.446 68.5379 119.795 66.9621 120.491 65.6136C121.188 64.2576 122.177 63.2045 123.457 62.4545C124.745 61.697 126.272 61.3182 128.037 61.3182C129.802 61.3182 131.325 61.697 132.605 62.4545C133.893 63.2045 134.885 64.2576 135.582 65.6136C136.279 66.9621 136.628 68.5379 136.628 70.3409C136.628 72.1288 136.279 73.7008 135.582 75.0568C134.885 76.4053 133.893 77.4583 132.605 78.2159C131.325 78.9659 129.802 79.3409 128.037 79.3409ZM128.06 75.5909C128.863 75.5909 129.533 75.3636 130.071 74.9091C130.609 74.447 131.014 73.8182 131.287 73.0227C131.567 72.2273 131.707 71.322 131.707 70.3068C131.707 69.2917 131.567 68.3864 131.287 67.5909C131.014 66.7955 130.609 66.1667 130.071 65.7045C129.533 65.2424 128.863 65.0114 128.06 65.0114C127.249 65.0114 126.567 65.2424 126.014 65.7045C125.469 66.1667 125.056 66.7955 124.776 67.5909C124.503 68.3864 124.366 69.2917 124.366 70.3068C124.366 71.322 124.503 72.2273 124.776 73.0227C125.056 73.8182 125.469 74.447 126.014 74.9091C126.567 75.3636 127.249 75.5909 128.06 75.5909ZM155.486 61.5455L149.384 79H143.929L137.827 61.5455H142.94L146.565 74.0341H146.747L150.361 61.5455H155.486ZM165.355 79.3409C163.56 79.3409 162.014 78.9773 160.719 78.25C159.431 77.5152 158.438 76.4773 157.741 75.1364C157.045 73.7879 156.696 72.1932 156.696 70.3523C156.696 68.5568 157.045 66.9811 157.741 65.625C158.438 64.2689 159.42 63.2121 160.685 62.4545C161.957 61.697 163.45 61.3182 165.162 61.3182C166.313 61.3182 167.385 61.5038 168.378 61.875C169.378 62.2386 170.249 62.7879 170.991 63.5227C171.741 64.2576 172.325 65.1818 172.741 66.2955C173.158 67.4015 173.366 68.697 173.366 70.1818V71.5114H158.628V68.5114H168.81C168.81 67.8144 168.658 67.197 168.355 66.6591C168.052 66.1212 167.632 65.7008 167.094 65.3977C166.563 65.0871 165.946 64.9318 165.241 64.9318C164.507 64.9318 163.855 65.1023 163.287 65.4432C162.726 65.7765 162.287 66.2273 161.969 66.7955C161.651 67.3561 161.488 67.9811 161.48 68.6705V71.5227C161.48 72.3864 161.639 73.1326 161.957 73.7614C162.283 74.3902 162.741 74.875 163.332 75.2159C163.923 75.5568 164.624 75.7273 165.435 75.7273C165.973 75.7273 166.465 75.6515 166.912 75.5C167.359 75.3485 167.741 75.1212 168.06 74.8182C168.378 74.5152 168.62 74.1439 168.787 73.7045L173.264 74C173.037 75.0758 172.571 76.0152 171.866 76.8182C171.17 77.6136 170.268 78.2348 169.162 78.6818C168.063 79.1212 166.795 79.3409 165.355 79.3409ZM176.526 79V61.5455H181.219V64.5909H181.401C181.719 63.5076 182.253 62.6894 183.003 62.1364C183.753 61.5758 184.616 61.2955 185.594 61.2955C185.836 61.2955 186.098 61.3106 186.378 61.3409C186.658 61.3712 186.904 61.4129 187.116 61.4659V65.7614C186.889 65.6932 186.575 65.6326 186.173 65.5795C185.772 65.5265 185.404 65.5 185.071 65.5C184.359 65.5 183.723 65.6553 183.162 65.9659C182.609 66.2689 182.17 66.6932 181.844 67.2386C181.526 67.7841 181.366 68.4129 181.366 69.125V79H176.526ZM189.619 79V61.5455H194.46V79H189.619ZM192.051 59.2955C191.331 59.2955 190.714 59.0568 190.199 58.5795C189.691 58.0947 189.438 57.5152 189.438 56.8409C189.438 56.1742 189.691 55.6023 190.199 55.125C190.714 54.6402 191.331 54.3977 192.051 54.3977C192.771 54.3977 193.384 54.6402 193.892 55.125C194.407 55.6023 194.665 56.1742 194.665 56.8409C194.665 57.5152 194.407 58.0947 193.892 58.5795C193.384 59.0568 192.771 59.2955 192.051 59.2955ZM203.179 68.9091V79H198.338V61.5455H202.952V64.625H203.156C203.543 63.6098 204.19 62.8068 205.099 62.2159C206.009 61.6174 207.111 61.3182 208.406 61.3182C209.618 61.3182 210.675 61.5833 211.577 62.1136C212.478 62.6439 213.179 63.4015 213.679 64.3864C214.179 65.3636 214.429 66.5303 214.429 67.8864V79H209.588V68.75C209.596 67.6818 209.323 66.8485 208.77 66.25C208.217 65.6439 207.455 65.3409 206.486 65.3409C205.834 65.3409 205.259 65.4811 204.759 65.7614C204.266 66.0417 203.88 66.4508 203.599 66.9886C203.327 67.5189 203.187 68.1591 203.179 68.9091ZM226.108 85.9091C224.54 85.9091 223.195 85.6932 222.074 85.2614C220.96 84.8371 220.074 84.2576 219.415 83.5227C218.756 82.7879 218.328 81.9621 218.131 81.0455L222.608 80.4432C222.744 80.7917 222.96 81.1174 223.256 81.4205C223.551 81.7235 223.941 81.9659 224.426 82.1477C224.919 82.3371 225.517 82.4318 226.222 82.4318C227.275 82.4318 228.142 82.1742 228.824 81.6591C229.513 81.1515 229.858 80.2992 229.858 79.1023V75.9091H229.653C229.441 76.3939 229.123 76.8523 228.699 77.2841C228.275 77.7159 227.729 78.0682 227.062 78.3409C226.396 78.6136 225.6 78.75 224.676 78.75C223.366 78.75 222.172 78.447 221.097 77.8409C220.028 77.2273 219.176 76.2917 218.54 75.0341C217.911 73.7689 217.597 72.1705 217.597 70.2386C217.597 68.2614 217.919 66.6098 218.562 65.2841C219.206 63.9583 220.063 62.9659 221.131 62.3068C222.206 61.6477 223.384 61.3182 224.665 61.3182C225.642 61.3182 226.46 61.4848 227.119 61.8182C227.778 62.1439 228.309 62.553 228.71 63.0455C229.119 63.5303 229.434 64.0076 229.653 64.4773H229.835V61.5455H234.642V79.1705C234.642 80.6553 234.278 81.8977 233.551 82.8977C232.824 83.8977 231.816 84.6477 230.528 85.1477C229.248 85.6553 227.775 85.9091 226.108 85.9091ZM226.21 75.1136C226.991 75.1136 227.65 74.9205 228.188 74.5341C228.733 74.1402 229.15 73.5795 229.438 72.8523C229.733 72.1174 229.881 71.2386 229.881 70.2159C229.881 69.1932 229.737 68.3068 229.449 67.5568C229.161 66.7992 228.744 66.2121 228.199 65.7955C227.653 65.3788 226.991 65.1705 226.21 65.1705C225.415 65.1705 224.744 65.3864 224.199 65.8182C223.653 66.2424 223.241 66.8333 222.96 67.5909C222.68 68.3485 222.54 69.2235 222.54 70.2159C222.54 71.2235 222.68 72.0947 222.96 72.8295C223.248 73.5568 223.661 74.1212 224.199 74.5227C224.744 74.9167 225.415 75.1136 226.21 75.1136ZM255.185 61.5455V65.1818H244.673V61.5455H255.185ZM247.06 57.3636H251.901V73.6364C251.901 74.0833 251.969 74.4318 252.105 74.6818C252.241 74.9242 252.431 75.0947 252.673 75.1932C252.923 75.2917 253.211 75.3409 253.537 75.3409C253.764 75.3409 253.991 75.322 254.219 75.2841C254.446 75.2386 254.62 75.2045 254.741 75.1818L255.503 78.7841C255.26 78.8598 254.92 78.947 254.48 79.0455C254.041 79.1515 253.507 79.2159 252.878 79.2386C251.711 79.2841 250.688 79.1288 249.81 78.7727C248.938 78.4167 248.26 77.8636 247.776 77.1136C247.291 76.3636 247.052 75.4167 247.06 74.2727V57.3636ZM263.554 68.9091V79H258.713V55.7273H263.418V64.625H263.622C264.016 63.5947 264.652 62.7879 265.531 62.2045C266.41 61.6136 267.512 61.3182 268.838 61.3182C270.05 61.3182 271.107 61.5833 272.009 62.1136C272.918 62.6364 273.622 63.3902 274.122 64.375C274.63 65.3523 274.88 66.5227 274.872 67.8864V79H270.031V68.75C270.039 67.6742 269.766 66.8371 269.213 66.2386C268.668 65.6402 267.902 65.3409 266.918 65.3409C266.259 65.3409 265.675 65.4811 265.168 65.7614C264.668 66.0417 264.274 66.4508 263.986 66.9886C263.705 67.5189 263.562 68.1591 263.554 68.9091ZM286.636 79.3409C284.841 79.3409 283.295 78.9773 282 78.25C280.712 77.5152 279.72 76.4773 279.023 75.1364C278.326 73.7879 277.977 72.1932 277.977 70.3523C277.977 68.5568 278.326 66.9811 279.023 65.625C279.72 64.2689 280.701 63.2121 281.966 62.4545C283.239 61.697 284.731 61.3182 286.443 61.3182C287.595 61.3182 288.667 61.5038 289.659 61.875C290.659 62.2386 291.53 62.7879 292.273 63.5227C293.023 64.2576 293.606 65.1818 294.023 66.2955C294.439 67.4015 294.648 68.697 294.648 70.1818V71.5114H279.909V68.5114H290.091C290.091 67.8144 289.939 67.197 289.636 66.6591C289.333 66.1212 288.913 65.7008 288.375 65.3977C287.845 65.0871 287.227 64.9318 286.523 64.9318C285.788 64.9318 285.136 65.1023 284.568 65.4432C284.008 65.7765 283.568 66.2273 283.25 66.7955C282.932 67.3561 282.769 67.9811 282.761 68.6705V71.5227C282.761 72.3864 282.92 73.1326 283.239 73.7614C283.564 74.3902 284.023 74.875 284.614 75.2159C285.205 75.5568 285.905 75.7273 286.716 75.7273C287.254 75.7273 287.746 75.6515 288.193 75.5C288.64 75.3485 289.023 75.1212 289.341 74.8182C289.659 74.5152 289.902 74.1439 290.068 73.7045L294.545 74C294.318 75.0758 293.852 76.0152 293.148 76.8182C292.451 77.6136 291.549 78.2348 290.443 78.6818C289.345 79.1212 288.076 79.3409 286.636 79.3409ZM305.304 79V55.7273H314.622C316.334 55.7273 317.762 55.9811 318.906 56.4886C320.05 56.9962 320.91 57.7008 321.486 58.6023C322.062 59.4962 322.349 60.5265 322.349 61.6932C322.349 62.6023 322.168 63.4015 321.804 64.0909C321.44 64.7727 320.94 65.3333 320.304 65.7727C319.675 66.2045 318.955 66.5114 318.145 66.6932V66.9205C319.031 66.9583 319.861 67.2083 320.634 67.6705C321.414 68.1326 322.046 68.7803 322.531 69.6136C323.016 70.4394 323.259 71.4242 323.259 72.5682C323.259 73.803 322.952 74.9053 322.338 75.875C321.732 76.8371 320.834 77.5985 319.645 78.1591C318.455 78.7197 316.99 79 315.247 79H305.304ZM310.224 74.9773H314.236C315.607 74.9773 316.607 74.7159 317.236 74.1932C317.865 73.6629 318.179 72.9583 318.179 72.0795C318.179 71.4356 318.024 70.8674 317.713 70.375C317.402 69.8826 316.959 69.4962 316.384 69.2159C315.815 68.9356 315.137 68.7955 314.349 68.7955H310.224V74.9773ZM310.224 65.4659H313.872C314.546 65.4659 315.145 65.3485 315.668 65.1136C316.198 64.8712 316.615 64.5303 316.918 64.0909C317.228 63.6515 317.384 63.125 317.384 62.5114C317.384 61.6705 317.084 60.9924 316.486 60.4773C315.895 59.9621 315.054 59.7045 313.963 59.7045H310.224V65.4659ZM334.324 79.3409C332.528 79.3409 330.983 78.9773 329.688 78.25C328.4 77.5152 327.407 76.4773 326.71 75.1364C326.013 73.7879 325.665 72.1932 325.665 70.3523C325.665 68.5568 326.013 66.9811 326.71 65.625C327.407 64.2689 328.388 63.2121 329.653 62.4545C330.926 61.697 332.419 61.3182 334.131 61.3182C335.282 61.3182 336.354 61.5038 337.347 61.875C338.347 62.2386 339.218 62.7879 339.96 63.5227C340.71 64.2576 341.294 65.1818 341.71 66.2955C342.127 67.4015 342.335 68.697 342.335 70.1818V71.5114H327.597V68.5114H337.778C337.778 67.8144 337.627 67.197 337.324 66.6591C337.021 66.1212 336.6 65.7008 336.062 65.3977C335.532 65.0871 334.915 64.9318 334.21 64.9318C333.475 64.9318 332.824 65.1023 332.256 65.4432C331.695 65.7765 331.256 66.2273 330.938 66.7955C330.619 67.3561 330.456 67.9811 330.449 68.6705V71.5227C330.449 72.3864 330.608 73.1326 330.926 73.7614C331.252 74.3902 331.71 74.875 332.301 75.2159C332.892 75.5568 333.593 75.7273 334.403 75.7273C334.941 75.7273 335.434 75.6515 335.881 75.5C336.328 75.3485 336.71 75.1212 337.028 74.8182C337.347 74.5152 337.589 74.1439 337.756 73.7045L342.233 74C342.006 75.0758 341.54 76.0152 340.835 76.8182C340.138 77.6136 339.237 78.2348 338.131 78.6818C337.032 79.1212 335.763 79.3409 334.324 79.3409ZM350.472 79.3295C349.358 79.3295 348.366 79.1364 347.494 78.75C346.623 78.3561 345.934 77.7765 345.426 77.0114C344.926 76.2386 344.676 75.2765 344.676 74.125C344.676 73.1553 344.854 72.3409 345.21 71.6818C345.566 71.0227 346.051 70.4924 346.665 70.0909C347.278 69.6894 347.975 69.3864 348.756 69.1818C349.544 68.9773 350.369 68.8333 351.233 68.75C352.248 68.6439 353.066 68.5455 353.688 68.4545C354.309 68.3561 354.759 68.2121 355.04 68.0227C355.32 67.8333 355.46 67.553 355.46 67.1818V67.1136C355.46 66.3939 355.233 65.8371 354.778 65.4432C354.331 65.0492 353.695 64.8523 352.869 64.8523C351.998 64.8523 351.305 65.0455 350.79 65.4318C350.275 65.8106 349.934 66.2879 349.767 66.8636L345.29 66.5C345.517 65.4394 345.964 64.5227 346.631 63.75C347.297 62.9697 348.157 62.3712 349.21 61.9545C350.271 61.5303 351.498 61.3182 352.892 61.3182C353.862 61.3182 354.79 61.4318 355.676 61.6591C356.57 61.8864 357.362 62.2386 358.051 62.7159C358.748 63.1932 359.297 63.8068 359.699 64.5568C360.1 65.2992 360.301 66.1894 360.301 67.2273V79H355.71V76.5795H355.574C355.294 77.125 354.919 77.6061 354.449 78.0227C353.979 78.4318 353.415 78.7538 352.756 78.9886C352.097 79.2159 351.335 79.3295 350.472 79.3295ZM351.858 75.9886C352.57 75.9886 353.199 75.8485 353.744 75.5682C354.29 75.2803 354.718 74.8939 355.028 74.4091C355.339 73.9242 355.494 73.375 355.494 72.7614V70.9091C355.343 71.0076 355.134 71.0985 354.869 71.1818C354.612 71.2576 354.32 71.3295 353.994 71.3977C353.669 71.4583 353.343 71.5152 353.017 71.5682C352.691 71.6136 352.396 71.6553 352.131 71.6932C351.563 71.7765 351.066 71.9091 350.642 72.0909C350.218 72.2727 349.888 72.5189 349.653 72.8295C349.419 73.1326 349.301 73.5114 349.301 73.9659C349.301 74.625 349.54 75.1288 350.017 75.4773C350.502 75.8182 351.116 75.9886 351.858 75.9886ZM375.25 71.5682V61.5455H380.091V79H375.443V75.8295H375.261C374.867 76.8523 374.212 77.6742 373.295 78.2955C372.386 78.9167 371.277 79.2273 369.966 79.2273C368.799 79.2273 367.773 78.9621 366.886 78.4318C366 77.9015 365.307 77.1477 364.807 76.1705C364.314 75.1932 364.064 74.0227 364.057 72.6591V61.5455H368.898V71.7955C368.905 72.8258 369.182 73.6402 369.727 74.2386C370.273 74.8371 371.004 75.1364 371.92 75.1364C372.504 75.1364 373.049 75.0038 373.557 74.7386C374.064 74.4659 374.473 74.0644 374.784 73.5341C375.102 73.0038 375.258 72.3485 375.25 71.5682ZM393.247 61.5455V65.1818H382.736V61.5455H393.247ZM385.122 57.3636H389.963V73.6364C389.963 74.0833 390.031 74.4318 390.168 74.6818C390.304 74.9242 390.493 75.0947 390.736 75.1932C390.986 75.2917 391.274 75.3409 391.599 75.3409C391.827 75.3409 392.054 75.322 392.281 75.2841C392.509 75.2386 392.683 75.2045 392.804 75.1818L393.565 78.7841C393.323 78.8598 392.982 78.947 392.543 79.0455C392.103 79.1515 391.569 79.2159 390.94 79.2386C389.774 79.2841 388.751 79.1288 387.872 78.7727C387.001 78.4167 386.323 77.8636 385.838 77.1136C385.353 76.3636 385.115 75.4167 385.122 74.2727V57.3636ZM399.389 85.5455C398.776 85.5455 398.2 85.4962 397.662 85.3977C397.132 85.3068 396.692 85.1894 396.344 85.0455L397.435 81.4318C398.003 81.6061 398.514 81.7008 398.969 81.7159C399.431 81.7311 399.829 81.625 400.162 81.3977C400.503 81.1705 400.779 80.7841 400.991 80.2386L401.276 79.5L395.014 61.5455H400.105L403.719 74.3636H403.901L407.548 61.5455H412.673L405.889 80.8864C405.563 81.8258 405.12 82.6439 404.56 83.3409C404.007 84.0455 403.306 84.5871 402.457 84.9659C401.609 85.3523 400.586 85.5455 399.389 85.5455ZM430.443 79.3409C428.678 79.3409 427.152 78.9659 425.864 78.2159C424.583 77.4583 423.595 76.4053 422.898 75.0568C422.201 73.7008 421.852 72.1288 421.852 70.3409C421.852 68.5379 422.201 66.9621 422.898 65.6136C423.595 64.2576 424.583 63.2045 425.864 62.4545C427.152 61.697 428.678 61.3182 430.443 61.3182C432.208 61.3182 433.731 61.697 435.011 62.4545C436.299 63.2045 437.292 64.2576 437.989 65.6136C438.686 66.9621 439.034 68.5379 439.034 70.3409C439.034 72.1288 438.686 73.7008 437.989 75.0568C437.292 76.4053 436.299 77.4583 435.011 78.2159C433.731 78.9659 432.208 79.3409 430.443 79.3409ZM430.466 75.5909C431.269 75.5909 431.939 75.3636 432.477 74.9091C433.015 74.447 433.42 73.8182 433.693 73.0227C433.973 72.2273 434.114 71.322 434.114 70.3068C434.114 69.2917 433.973 68.3864 433.693 67.5909C433.42 66.7955 433.015 66.1667 432.477 65.7045C431.939 65.2424 431.269 65.0114 430.466 65.0114C429.655 65.0114 428.973 65.2424 428.42 65.7045C427.875 66.1667 427.462 66.7955 427.182 67.5909C426.909 68.3864 426.773 69.2917 426.773 70.3068C426.773 71.322 426.909 72.2273 427.182 73.0227C427.462 73.8182 427.875 74.447 428.42 74.9091C428.973 75.3636 429.655 75.5909 430.466 75.5909ZM451.568 61.5455V65.1818H440.795V61.5455H451.568ZM443.261 79V60.2841C443.261 59.0189 443.508 57.9697 444 57.1364C444.5 56.303 445.182 55.678 446.045 55.2614C446.909 54.8447 447.89 54.6364 448.989 54.6364C449.731 54.6364 450.409 54.6932 451.023 54.8068C451.644 54.9205 452.106 55.0227 452.409 55.1136L451.545 58.75C451.356 58.6894 451.121 58.6326 450.841 58.5795C450.568 58.5265 450.288 58.5 450 58.5C449.288 58.5 448.792 58.6667 448.511 59C448.231 59.3258 448.091 59.7841 448.091 60.375V79H443.261ZM471.341 55.7273H476.205V71.9545C476.205 73.4545 475.867 74.7576 475.193 75.8636C474.527 76.9697 473.598 77.822 472.409 78.4205C471.22 79.0189 469.837 79.3182 468.261 79.3182C466.86 79.3182 465.587 79.072 464.443 78.5795C463.307 78.0795 462.405 77.322 461.739 76.3068C461.072 75.2841 460.742 74 460.75 72.4545H465.648C465.663 73.0682 465.788 73.5947 466.023 74.0341C466.265 74.4659 466.595 74.7992 467.011 75.0341C467.436 75.2614 467.936 75.375 468.511 75.375C469.117 75.375 469.629 75.2462 470.045 74.9886C470.47 74.7235 470.792 74.3371 471.011 73.8295C471.231 73.322 471.341 72.697 471.341 71.9545V55.7273ZM485.159 79.3295C484.045 79.3295 483.053 79.1364 482.182 78.75C481.311 78.3561 480.621 77.7765 480.114 77.0114C479.614 76.2386 479.364 75.2765 479.364 74.125C479.364 73.1553 479.542 72.3409 479.898 71.6818C480.254 71.0227 480.739 70.4924 481.352 70.0909C481.966 69.6894 482.663 69.3864 483.443 69.1818C484.231 68.9773 485.057 68.8333 485.92 68.75C486.936 68.6439 487.754 68.5455 488.375 68.4545C488.996 68.3561 489.447 68.2121 489.727 68.0227C490.008 67.8333 490.148 67.553 490.148 67.1818V67.1136C490.148 66.3939 489.92 65.8371 489.466 65.4432C489.019 65.0492 488.383 64.8523 487.557 64.8523C486.686 64.8523 485.992 65.0455 485.477 65.4318C484.962 65.8106 484.621 66.2879 484.455 66.8636L479.977 66.5C480.205 65.4394 480.652 64.5227 481.318 63.75C481.985 62.9697 482.845 62.3712 483.898 61.9545C484.958 61.5303 486.186 61.3182 487.58 61.3182C488.549 61.3182 489.477 61.4318 490.364 61.6591C491.258 61.8864 492.049 62.2386 492.739 62.7159C493.436 63.1932 493.985 63.8068 494.386 64.5568C494.788 65.2992 494.989 66.1894 494.989 67.2273V79H490.398V76.5795H490.261C489.981 77.125 489.606 77.6061 489.136 78.0227C488.667 78.4318 488.102 78.7538 487.443 78.9886C486.784 79.2159 486.023 79.3295 485.159 79.3295ZM486.545 75.9886C487.258 75.9886 487.886 75.8485 488.432 75.5682C488.977 75.2803 489.405 74.8939 489.716 74.4091C490.027 73.9242 490.182 73.375 490.182 72.7614V70.9091C490.03 71.0076 489.822 71.0985 489.557 71.1818C489.299 71.2576 489.008 71.3295 488.682 71.3977C488.356 71.4583 488.03 71.5152 487.705 71.5682C487.379 71.6136 487.083 71.6553 486.818 71.6932C486.25 71.7765 485.754 71.9091 485.33 72.0909C484.905 72.2727 484.576 72.5189 484.341 72.8295C484.106 73.1326 483.989 73.5114 483.989 73.9659C483.989 74.625 484.227 75.1288 484.705 75.4773C485.189 75.8182 485.803 75.9886 486.545 75.9886ZM498.744 85.5455V61.5455H503.517V64.4773H503.733C503.945 64.0076 504.252 63.5303 504.653 63.0455C505.063 62.553 505.593 62.1439 506.244 61.8182C506.903 61.4848 507.722 61.3182 508.699 61.3182C509.972 61.3182 511.146 61.6515 512.222 62.3182C513.297 62.9773 514.157 63.9735 514.801 65.3068C515.445 66.6326 515.767 68.2955 515.767 70.2955C515.767 72.2424 515.453 73.8864 514.824 75.2273C514.203 76.5606 513.354 77.572 512.278 78.2614C511.21 78.9432 510.013 79.2841 508.688 79.2841C507.748 79.2841 506.949 79.1288 506.29 78.8182C505.638 78.5076 505.104 78.1174 504.688 77.6477C504.271 77.1705 503.953 76.6894 503.733 76.2045H503.585V85.5455H498.744ZM503.483 70.2727C503.483 71.3106 503.627 72.2159 503.915 72.9886C504.203 73.7614 504.619 74.3636 505.165 74.7955C505.71 75.2197 506.373 75.4318 507.153 75.4318C507.941 75.4318 508.608 75.2159 509.153 74.7841C509.699 74.3447 510.112 73.7386 510.392 72.9659C510.68 72.1856 510.824 71.2879 510.824 70.2727C510.824 69.2652 510.684 68.3788 510.403 67.6136C510.123 66.8485 509.71 66.25 509.165 65.8182C508.619 65.3864 507.949 65.1705 507.153 65.1705C506.366 65.1705 505.699 65.3788 505.153 65.7955C504.616 66.2121 504.203 66.803 503.915 67.5682C503.627 68.3333 503.483 69.2348 503.483 70.2727ZM523.972 79.3295C522.858 79.3295 521.866 79.1364 520.994 78.75C520.123 78.3561 519.434 77.7765 518.926 77.0114C518.426 76.2386 518.176 75.2765 518.176 74.125C518.176 73.1553 518.354 72.3409 518.71 71.6818C519.066 71.0227 519.551 70.4924 520.165 70.0909C520.778 69.6894 521.475 69.3864 522.256 69.1818C523.044 68.9773 523.869 68.8333 524.733 68.75C525.748 68.6439 526.566 68.5455 527.188 68.4545C527.809 68.3561 528.259 68.2121 528.54 68.0227C528.82 67.8333 528.96 67.553 528.96 67.1818V67.1136C528.96 66.3939 528.733 65.8371 528.278 65.4432C527.831 65.0492 527.195 64.8523 526.369 64.8523C525.498 64.8523 524.805 65.0455 524.29 65.4318C523.775 65.8106 523.434 66.2879 523.267 66.8636L518.79 66.5C519.017 65.4394 519.464 64.5227 520.131 63.75C520.797 62.9697 521.657 62.3712 522.71 61.9545C523.771 61.5303 524.998 61.3182 526.392 61.3182C527.362 61.3182 528.29 61.4318 529.176 61.6591C530.07 61.8864 530.862 62.2386 531.551 62.7159C532.248 63.1932 532.797 63.8068 533.199 64.5568C533.6 65.2992 533.801 66.1894 533.801 67.2273V79H529.21V76.5795H529.074C528.794 77.125 528.419 77.6061 527.949 78.0227C527.479 78.4318 526.915 78.7538 526.256 78.9886C525.597 79.2159 524.835 79.3295 523.972 79.3295ZM525.358 75.9886C526.07 75.9886 526.699 75.8485 527.244 75.5682C527.79 75.2803 528.218 74.8939 528.528 74.4091C528.839 73.9242 528.994 73.375 528.994 72.7614V70.9091C528.843 71.0076 528.634 71.0985 528.369 71.1818C528.112 71.2576 527.82 71.3295 527.494 71.3977C527.169 71.4583 526.843 71.5152 526.517 71.5682C526.191 71.6136 525.896 71.6553 525.631 71.6932C525.063 71.7765 524.566 71.9091 524.142 72.0909C523.718 72.2727 523.388 72.5189 523.153 72.8295C522.919 73.1326 522.801 73.5114 522.801 73.9659C522.801 74.625 523.04 75.1288 523.517 75.4773C524.002 75.8182 524.616 75.9886 525.358 75.9886ZM542.398 68.9091V79H537.557V61.5455H542.17V64.625H542.375C542.761 63.6098 543.409 62.8068 544.318 62.2159C545.227 61.6174 546.33 61.3182 547.625 61.3182C548.837 61.3182 549.894 61.5833 550.795 62.1136C551.697 62.6439 552.398 63.4015 552.898 64.3864C553.398 65.3636 553.648 66.5303 553.648 67.8864V79H548.807V68.75C548.814 67.6818 548.542 66.8485 547.989 66.25C547.436 65.6439 546.674 65.3409 545.705 65.3409C545.053 65.3409 544.477 65.4811 543.977 65.7614C543.485 66.0417 543.098 66.4508 542.818 66.9886C542.545 67.5189 542.405 68.1591 542.398 68.9091ZM557.974 72.7159C557.929 71.2841 558.103 70.072 558.497 69.0795C558.891 68.0871 559.463 67.3333 560.213 66.8182C560.971 66.303 561.861 66.0455 562.884 66.0455C563.596 66.0455 564.277 66.1932 564.929 66.4886C565.58 66.7841 566.319 67.2955 567.145 68.0227C567.584 68.4091 567.955 68.7045 568.259 68.9091C568.562 69.1061 568.91 69.2045 569.304 69.2045C569.842 69.2045 570.285 68.9962 570.634 68.5795C570.982 68.1553 571.145 67.4848 571.122 66.5682H574.827C574.88 68.0076 574.705 69.2235 574.304 70.2159C573.902 71.2083 573.323 71.9621 572.565 72.4773C571.808 72.9924 570.925 73.25 569.918 73.25C569.168 73.25 568.463 73.0947 567.804 72.7841C567.152 72.4659 566.429 71.9583 565.634 71.2614C565.164 70.8447 564.789 70.5455 564.509 70.3636C564.228 70.1742 563.895 70.0795 563.509 70.0795C562.971 70.0795 562.527 70.2841 562.179 70.6932C561.83 71.0947 561.668 71.7689 561.69 72.7159H557.974Z" fill="white"/>
</svg>
