<svg width="138" height="38" viewBox="0 0 138 38" fill="none" xmlns="http://www.w3.org/2000/svg">
<g clip-path="url(#clip0_252_81)">
<path d="M17.6698 33.2486C8.40927 33.2486 0.83252 25.9485 0.83252 17.0259C0.83252 8.10377 8.40927 0.803223 17.6698 0.803223H120.329C129.589 0.803223 137.166 8.10377 137.166 17.0259C137.166 25.9485 129.589 33.2486 120.329 33.2486H17.6698Z" fill="white"/>
<path d="M138 17.0259C137.997 26.3954 130.054 34.0485 120.329 34.0513H35.4579C34.9978 34.0513 34.6248 33.6916 34.6248 33.2485C34.6248 32.8048 34.9978 32.4456 35.4579 32.4456L120.329 32.4453C124.73 32.4449 128.727 30.7122 131.631 27.9151C134.535 25.1165 136.333 21.2653 136.333 17.0259C136.333 12.786 134.534 8.93494 131.631 6.13659C128.727 3.33912 124.73 1.60658 120.329 1.60658H17.6706C13.2702 1.60658 9.27324 3.33912 6.36888 6.13677C3.46562 8.93529 1.66743 12.7863 1.66708 17.0259C1.66743 21.2657 3.46562 25.1167 6.36888 27.9151C9.27324 30.7124 13.2704 32.4449 17.6706 32.4453H26.6829C27.1434 32.4453 27.5163 32.8044 27.5163 33.2483C27.5163 33.6918 27.1432 34.0513 26.6829 34.0513L17.6706 34.051C7.94627 34.0482 0.00308228 26.3951 0 17.0256C0.00289917 7.65587 7.94608 0.00314912 17.6704 0H120.329C130.054 0.00332408 137.997 7.65605 138 17.0259Z" fill="black"/>
<path d="M33.2694 31.4645C33.595 31.7784 33.595 32.287 33.2694 32.6005L28.2378 37.4484C27.9123 37.7617 27.3846 37.7617 27.0592 37.4484C26.7335 37.1345 26.7335 36.6259 27.0592 36.3122L32.0906 31.4643C32.416 31.1512 32.9438 31.1512 33.2694 31.4645Z" fill="black"/>
<path d="M14.088 15.792C14.4707 15.792 14.8067 15.7453 15.096 15.652C15.39 15.5587 15.635 15.428 15.831 15.26C16.027 15.0873 16.174 14.8843 16.272 14.651C16.37 14.413 16.419 14.1517 16.419 13.867C16.419 13.2883 16.2277 12.852 15.845 12.558C15.467 12.264 14.8977 12.117 14.137 12.117H12.73V15.792H14.088ZM18.778 21H17.448C17.182 21 16.9883 20.895 16.867 20.685L14.382 17.199C14.3027 17.0823 14.2163 17.0007 14.123 16.954C14.0297 16.9027 13.8897 16.877 13.703 16.877H12.73V21H11.239V10.948H14.137C14.7857 10.948 15.3433 11.0157 15.81 11.151C16.2813 11.2817 16.6687 11.4707 16.972 11.718C17.28 11.9607 17.5063 12.2547 17.651 12.6C17.8003 12.9453 17.875 13.3327 17.875 13.762C17.875 14.112 17.8213 14.441 17.714 14.749C17.6067 15.057 17.448 15.3347 17.238 15.582C17.0327 15.8247 16.7807 16.0347 16.482 16.212C16.1833 16.3893 15.845 16.5247 15.467 16.618C15.6537 16.73 15.8147 16.8863 15.95 17.087L18.778 21ZM24.0372 16.653C24.0372 16.3823 23.9975 16.1327 23.9182 15.904C23.8435 15.6753 23.7315 15.477 23.5822 15.309C23.4329 15.141 23.2509 15.0103 23.0362 14.917C22.8215 14.8237 22.5742 14.777 22.2942 14.777C21.7202 14.777 21.2675 14.9427 20.9362 15.274C20.6095 15.6053 20.4019 16.065 20.3132 16.653H24.0372ZM25.1642 19.985C24.9962 20.181 24.8025 20.3513 24.5832 20.496C24.3639 20.636 24.1305 20.7503 23.8832 20.839C23.6359 20.9277 23.3792 20.993 23.1132 21.035C22.8519 21.077 22.5929 21.098 22.3362 21.098C21.8462 21.098 21.3912 21.0163 20.9712 20.853C20.5559 20.685 20.1942 20.4423 19.8862 20.125C19.5829 19.803 19.3449 19.4063 19.1722 18.935C19.0042 18.459 18.9202 17.913 18.9202 17.297C18.9202 16.8023 18.9972 16.3427 19.1512 15.918C19.3052 15.4887 19.5245 15.1153 19.8092 14.798C20.0985 14.4807 20.4509 14.231 20.8662 14.049C21.2815 13.867 21.7482 13.776 22.2662 13.776C22.7002 13.776 23.0992 13.8483 23.4632 13.993C23.8319 14.133 24.1492 14.3383 24.4152 14.609C24.6812 14.8797 24.8889 15.2133 25.0382 15.61C25.1922 16.0067 25.2692 16.4593 25.2692 16.968C25.2692 17.178 25.2459 17.3203 25.1992 17.395C25.1525 17.465 25.0662 17.5 24.9402 17.5H20.2782C20.2922 17.9247 20.3529 18.2957 20.4602 18.613C20.5675 18.9257 20.7145 19.187 20.9012 19.397C21.0925 19.607 21.3189 19.7633 21.5802 19.866C21.8415 19.9687 22.1332 20.02 22.4552 20.02C22.7585 20.02 23.0199 19.985 23.2392 19.915C23.4632 19.845 23.6545 19.7703 23.8132 19.691C23.9765 19.607 24.1119 19.53 24.2192 19.46C24.3312 19.39 24.4292 19.355 24.5132 19.355C24.6252 19.355 24.7115 19.397 24.7722 19.481L25.1642 19.985ZM31.7203 15.218C31.6783 15.2693 31.6363 15.3113 31.5943 15.344C31.557 15.372 31.501 15.386 31.4263 15.386C31.3517 15.386 31.2723 15.358 31.1883 15.302C31.109 15.2413 31.0063 15.1783 30.8803 15.113C30.759 15.043 30.6097 14.98 30.4323 14.924C30.2597 14.8633 30.045 14.833 29.7883 14.833C29.4523 14.833 29.156 14.8937 28.8993 15.015C28.6427 15.1363 28.428 15.309 28.2553 15.533C28.0873 15.757 27.959 16.03 27.8703 16.352C27.7817 16.674 27.7373 17.0357 27.7373 17.437C27.7373 17.8523 27.784 18.2233 27.8773 18.55C27.9707 18.872 28.1037 19.145 28.2763 19.369C28.449 19.5883 28.659 19.7563 28.9063 19.873C29.1537 19.985 29.429 20.041 29.7323 20.041C30.0263 20.041 30.269 20.006 30.4603 19.936C30.6517 19.8613 30.8103 19.782 30.9363 19.698C31.0623 19.614 31.1673 19.537 31.2513 19.467C31.3353 19.3923 31.4217 19.355 31.5103 19.355C31.6223 19.355 31.7087 19.397 31.7693 19.481L32.1613 19.985C31.998 20.1857 31.8137 20.356 31.6083 20.496C31.4077 20.636 31.193 20.7503 30.9643 20.839C30.7357 20.9277 30.4953 20.993 30.2433 21.035C29.996 21.077 29.744 21.098 29.4873 21.098C29.044 21.098 28.6287 21.0163 28.2413 20.853C27.8587 20.6897 27.525 20.4517 27.2403 20.139C26.9603 19.8263 26.7387 19.4437 26.5753 18.991C26.412 18.5337 26.3303 18.0157 26.3303 17.437C26.3303 16.9097 26.4027 16.422 26.5473 15.974C26.6967 15.526 26.9137 15.141 27.1983 14.819C27.4877 14.4923 27.8423 14.238 28.2623 14.056C28.6823 13.8693 29.163 13.776 29.7043 13.776C30.213 13.776 30.661 13.8577 31.0483 14.021C31.4357 14.1843 31.781 14.4153 32.0843 14.714L31.7203 15.218ZM36.3435 13.776C36.8662 13.776 37.3375 13.8623 37.7575 14.035C38.1822 14.203 38.5415 14.448 38.8355 14.77C39.1342 15.0873 39.3628 15.4723 39.5215 15.925C39.6802 16.373 39.7595 16.877 39.7595 17.437C39.7595 17.997 39.6802 18.5033 39.5215 18.956C39.3628 19.4087 39.1342 19.7937 38.8355 20.111C38.5415 20.4283 38.1822 20.6733 37.7575 20.846C37.3375 21.014 36.8662 21.098 36.3435 21.098C35.8162 21.098 35.3402 21.014 34.9155 20.846C34.4955 20.6733 34.1362 20.4283 33.8375 20.111C33.5388 19.7937 33.3078 19.4087 33.1445 18.956C32.9858 18.5033 32.9065 17.997 32.9065 17.437C32.9065 16.877 32.9858 16.373 33.1445 15.925C33.3078 15.4723 33.5388 15.0873 33.8375 14.77C34.1362 14.448 34.4955 14.203 34.9155 14.035C35.3402 13.8623 35.8162 13.776 36.3435 13.776ZM36.3435 20.034C37.0155 20.034 37.5172 19.8077 37.8485 19.355C38.1798 18.9023 38.3455 18.2653 38.3455 17.444C38.3455 16.6227 38.1798 15.9857 37.8485 15.533C37.5172 15.0757 37.0155 14.847 36.3435 14.847C35.6622 14.847 35.1535 15.0757 34.8175 15.533C34.4862 15.9857 34.3205 16.6227 34.3205 17.444C34.3205 18.2653 34.4862 18.9023 34.8175 19.355C35.1535 19.8077 35.6622 20.034 36.3435 20.034ZM41.2832 21V13.888H42.1022C42.2936 13.888 42.4126 13.979 42.4592 14.161L42.5572 14.84C42.8186 14.5273 43.1079 14.273 43.4252 14.077C43.7472 13.8763 44.1229 13.776 44.5522 13.776C45.0236 13.776 45.4062 13.9067 45.7002 14.168C45.9942 14.4247 46.2089 14.7747 46.3442 15.218C46.4469 14.966 46.5799 14.749 46.7432 14.567C46.9066 14.385 47.0886 14.2357 47.2892 14.119C47.4899 14.0023 47.7022 13.916 47.9262 13.86C48.1549 13.804 48.3859 13.776 48.6192 13.776C48.9972 13.776 49.3332 13.8367 49.6272 13.958C49.9259 14.0747 50.1779 14.2473 50.3832 14.476C50.5886 14.7047 50.7449 14.987 50.8522 15.323C50.9596 15.659 51.0132 16.0417 51.0132 16.471V21H49.6412V16.471C49.6412 15.939 49.5246 15.5377 49.2912 15.267C49.0626 14.9963 48.7266 14.861 48.2832 14.861C48.0872 14.861 47.9006 14.896 47.7232 14.966C47.5459 15.0313 47.3896 15.1317 47.2542 15.267C47.1236 15.4023 47.0186 15.5703 46.9392 15.771C46.8646 15.9717 46.8272 16.205 46.8272 16.471V21H45.4552V16.471C45.4552 15.9203 45.3456 15.5143 45.1262 15.253C44.9069 14.9917 44.5849 14.861 44.1602 14.861C43.8662 14.861 43.5932 14.938 43.3412 15.092C43.0892 15.246 42.8582 15.456 42.6482 15.722V21H41.2832ZM52.8496 21V13.888H53.6686C53.86 13.888 53.979 13.979 54.0256 14.161L54.1236 14.84C54.385 14.5273 54.6743 14.273 54.9916 14.077C55.3136 13.8763 55.6893 13.776 56.1186 13.776C56.59 13.776 56.9726 13.9067 57.2666 14.168C57.5606 14.4247 57.7753 14.7747 57.9106 15.218C58.0133 14.966 58.1463 14.749 58.3096 14.567C58.473 14.385 58.655 14.2357 58.8556 14.119C59.0563 14.0023 59.2686 13.916 59.4926 13.86C59.7213 13.804 59.9523 13.776 60.1856 13.776C60.5636 13.776 60.8996 13.8367 61.1936 13.958C61.4923 14.0747 61.7443 14.2473 61.9496 14.476C62.155 14.7047 62.3113 14.987 62.4186 15.323C62.526 15.659 62.5796 16.0417 62.5796 16.471V21H61.2076V16.471C61.2076 15.939 61.091 15.5377 60.8576 15.267C60.629 14.9963 60.293 14.861 59.8496 14.861C59.6536 14.861 59.467 14.896 59.2896 14.966C59.1123 15.0313 58.956 15.1317 58.8206 15.267C58.69 15.4023 58.585 15.5703 58.5056 15.771C58.431 15.9717 58.3936 16.205 58.3936 16.471V21H57.0216V16.471C57.0216 15.9203 56.912 15.5143 56.6926 15.253C56.4733 14.9917 56.1513 14.861 55.7266 14.861C55.4326 14.861 55.1596 14.938 54.9076 15.092C54.6556 15.246 54.4246 15.456 54.2146 15.722V21H52.8496ZM69.127 16.653C69.127 16.3823 69.0874 16.1327 69.008 15.904C68.9334 15.6753 68.8214 15.477 68.672 15.309C68.5227 15.141 68.3407 15.0103 68.126 14.917C67.9114 14.8237 67.664 14.777 67.384 14.777C66.81 14.777 66.3574 14.9427 66.026 15.274C65.6994 15.6053 65.4917 16.065 65.403 16.653H69.127ZM70.254 19.985C70.086 20.181 69.8924 20.3513 69.673 20.496C69.4537 20.636 69.2204 20.7503 68.973 20.839C68.7257 20.9277 68.469 20.993 68.203 21.035C67.9417 21.077 67.6827 21.098 67.426 21.098C66.936 21.098 66.481 21.0163 66.061 20.853C65.6457 20.685 65.284 20.4423 64.976 20.125C64.6727 19.803 64.4347 19.4063 64.262 18.935C64.094 18.459 64.01 17.913 64.01 17.297C64.01 16.8023 64.087 16.3427 64.241 15.918C64.395 15.4887 64.6144 15.1153 64.899 14.798C65.1884 14.4807 65.5407 14.231 65.956 14.049C66.3714 13.867 66.838 13.776 67.356 13.776C67.79 13.776 68.189 13.8483 68.553 13.993C68.9217 14.133 69.239 14.3383 69.505 14.609C69.771 14.8797 69.9787 15.2133 70.128 15.61C70.282 16.0067 70.359 16.4593 70.359 16.968C70.359 17.178 70.3357 17.3203 70.289 17.395C70.2424 17.465 70.156 17.5 70.03 17.5H65.368C65.382 17.9247 65.4427 18.2957 65.55 18.613C65.6574 18.9257 65.8044 19.187 65.991 19.397C66.1824 19.607 66.4087 19.7633 66.67 19.866C66.9314 19.9687 67.223 20.02 67.545 20.02C67.8484 20.02 68.1097 19.985 68.329 19.915C68.553 19.845 68.7444 19.7703 68.903 19.691C69.0664 19.607 69.2017 19.53 69.309 19.46C69.421 19.39 69.519 19.355 69.603 19.355C69.715 19.355 69.8014 19.397 69.862 19.481L70.254 19.985ZM73.1072 14.875C73.2612 14.7117 73.4222 14.5623 73.5902 14.427C73.7582 14.2917 73.9355 14.1773 74.1222 14.084C74.3135 13.986 74.5165 13.9113 74.7312 13.86C74.9505 13.804 75.1839 13.776 75.4312 13.776C75.8232 13.776 76.1662 13.8413 76.4602 13.972C76.7589 14.1027 77.0085 14.287 77.2092 14.525C77.4099 14.7583 77.5615 15.0407 77.6642 15.372C77.7669 15.7033 77.8182 16.0697 77.8182 16.471V21H76.4462V16.471C76.4462 15.9623 76.3295 15.568 76.0962 15.288C75.8629 15.0033 75.5059 14.861 75.0252 14.861C74.6752 14.861 74.3462 14.945 74.0382 15.113C73.7349 15.2763 73.4525 15.5003 73.1912 15.785V21H71.8262V13.888H72.6452C72.8365 13.888 72.9555 13.979 73.0022 14.161L73.1072 14.875ZM84.2452 15.61C84.0212 15.316 83.7785 15.1107 83.5172 14.994C83.2605 14.8773 82.9712 14.819 82.6492 14.819C82.0238 14.819 81.5385 15.0453 81.1932 15.498C80.8525 15.946 80.6822 16.6017 80.6822 17.465C80.6822 17.9177 80.7195 18.305 80.7942 18.627C80.8735 18.9443 80.9855 19.2057 81.1302 19.411C81.2795 19.6117 81.4615 19.761 81.6762 19.859C81.8908 19.9523 82.1335 19.999 82.4042 19.999C82.8008 19.999 83.1438 19.9103 83.4332 19.733C83.7225 19.5557 83.9932 19.306 84.2452 18.984V15.61ZM85.6172 10.668V21H84.7912C84.5998 21 84.4808 20.909 84.4342 20.727L84.3152 19.908C84.0118 20.2673 83.6665 20.5567 83.2792 20.776C82.8965 20.9907 82.4532 21.098 81.9492 21.098C81.5432 21.098 81.1745 21.0187 80.8432 20.86C80.5165 20.7013 80.2365 20.4703 80.0032 20.167C79.7698 19.859 79.5902 19.4787 79.4642 19.026C79.3382 18.5733 79.2752 18.053 79.2752 17.465C79.2752 16.9377 79.3452 16.4477 79.4852 15.995C79.6252 15.5423 79.8282 15.1503 80.0942 14.819C80.3602 14.4877 80.6822 14.2287 81.0602 14.042C81.4382 13.8507 81.8652 13.755 82.3412 13.755C82.7705 13.755 83.1345 13.825 83.4332 13.965C83.7365 14.105 84.0072 14.3033 84.2452 14.56V10.668H85.6172ZM92.2325 16.653C92.2325 16.3823 92.1928 16.1327 92.1135 15.904C92.0388 15.6753 91.9268 15.477 91.7775 15.309C91.6282 15.141 91.4462 15.0103 91.2315 14.917C91.0168 14.8237 90.7695 14.777 90.4895 14.777C89.9155 14.777 89.4628 14.9427 89.1315 15.274C88.8048 15.6053 88.5972 16.065 88.5085 16.653H92.2325ZM93.3595 19.985C93.1915 20.181 92.9978 20.3513 92.7785 20.496C92.5592 20.636 92.3258 20.7503 92.0785 20.839C91.8312 20.9277 91.5745 20.993 91.3085 21.035C91.0472 21.077 90.7882 21.098 90.5315 21.098C90.0415 21.098 89.5865 21.0163 89.1665 20.853C88.7512 20.685 88.3895 20.4423 88.0815 20.125C87.7782 19.803 87.5402 19.4063 87.3675 18.935C87.1995 18.459 87.1155 17.913 87.1155 17.297C87.1155 16.8023 87.1925 16.3427 87.3465 15.918C87.5005 15.4887 87.7198 15.1153 88.0045 14.798C88.2938 14.4807 88.6462 14.231 89.0615 14.049C89.4768 13.867 89.9435 13.776 90.4615 13.776C90.8955 13.776 91.2945 13.8483 91.6585 13.993C92.0272 14.133 92.3445 14.3383 92.6105 14.609C92.8765 14.8797 93.0842 15.2133 93.2335 15.61C93.3875 16.0067 93.4645 16.4593 93.4645 16.968C93.4645 17.178 93.4412 17.3203 93.3945 17.395C93.3478 17.465 93.2615 17.5 93.1355 17.5H88.4735C88.4875 17.9247 88.5482 18.2957 88.6555 18.613C88.7628 18.9257 88.9098 19.187 89.0965 19.397C89.2878 19.607 89.5142 19.7633 89.7755 19.866C90.0368 19.9687 90.3285 20.02 90.6505 20.02C90.9538 20.02 91.2152 19.985 91.4345 19.915C91.6585 19.845 91.8498 19.7703 92.0085 19.691C92.1718 19.607 92.3072 19.53 92.4145 19.46C92.5265 19.39 92.6245 19.355 92.7085 19.355C92.8205 19.355 92.9068 19.397 92.9675 19.481L93.3595 19.985ZM99.5167 15.61C99.2927 15.316 99.05 15.1107 98.7887 14.994C98.532 14.8773 98.2427 14.819 97.9207 14.819C97.2953 14.819 96.81 15.0453 96.4647 15.498C96.124 15.946 95.9537 16.6017 95.9537 17.465C95.9537 17.9177 95.991 18.305 96.0657 18.627C96.145 18.9443 96.257 19.2057 96.4017 19.411C96.551 19.6117 96.733 19.761 96.9477 19.859C97.1623 19.9523 97.405 19.999 97.6757 19.999C98.0723 19.999 98.4153 19.9103 98.7047 19.733C98.994 19.5557 99.2647 19.306 99.5167 18.984V15.61ZM100.889 10.668V21H100.063C99.8713 21 99.7523 20.909 99.7057 20.727L99.5867 19.908C99.2833 20.2673 98.938 20.5567 98.5507 20.776C98.168 20.9907 97.7247 21.098 97.2207 21.098C96.8147 21.098 96.446 21.0187 96.1147 20.86C95.788 20.7013 95.508 20.4703 95.2747 20.167C95.0413 19.859 94.8617 19.4787 94.7357 19.026C94.6097 18.5733 94.5467 18.053 94.5467 17.465C94.5467 16.9377 94.6167 16.4477 94.7567 15.995C94.8967 15.5423 95.0997 15.1503 95.3657 14.819C95.6317 14.4877 95.9537 14.2287 96.3317 14.042C96.7097 13.8507 97.1367 13.755 97.6127 13.755C98.042 13.755 98.406 13.825 98.7047 13.965C99.008 14.105 99.2787 14.3033 99.5167 14.56V10.668H100.889ZM106.803 21V15.008L106.061 14.917C105.954 14.8937 105.865 14.8563 105.795 14.805C105.73 14.749 105.697 14.6697 105.697 14.567V14H106.803V13.356C106.803 12.95 106.861 12.5883 106.978 12.271C107.095 11.9537 107.26 11.6853 107.475 11.466C107.694 11.242 107.956 11.074 108.259 10.962C108.567 10.8453 108.912 10.787 109.295 10.787C109.617 10.787 109.913 10.8337 110.184 10.927L110.156 11.613C110.151 11.6737 110.133 11.7203 110.1 11.753C110.067 11.781 110.023 11.802 109.967 11.816C109.916 11.83 109.85 11.8393 109.771 11.844C109.696 11.844 109.615 11.844 109.526 11.844C109.316 11.844 109.125 11.8697 108.952 11.921C108.779 11.9723 108.632 12.0587 108.511 12.18C108.39 12.3013 108.296 12.4623 108.231 12.663C108.166 12.859 108.133 13.104 108.133 13.398V14H110.128V14.994H108.175V21H106.803ZM114.082 13.776C114.604 13.776 115.076 13.8623 115.496 14.035C115.92 14.203 116.28 14.448 116.574 14.77C116.872 15.0873 117.101 15.4723 117.26 15.925C117.418 16.373 117.498 16.877 117.498 17.437C117.498 17.997 117.418 18.5033 117.26 18.956C117.101 19.4087 116.872 19.7937 116.574 20.111C116.28 20.4283 115.92 20.6733 115.496 20.846C115.076 21.014 114.604 21.098 114.082 21.098C113.554 21.098 113.078 21.014 112.654 20.846C112.234 20.6733 111.874 20.4283 111.576 20.111C111.277 19.7937 111.046 19.4087 110.883 18.956C110.724 18.5033 110.645 17.997 110.645 17.437C110.645 16.877 110.724 16.373 110.883 15.925C111.046 15.4723 111.277 15.0873 111.576 14.77C111.874 14.448 112.234 14.203 112.654 14.035C113.078 13.8623 113.554 13.776 114.082 13.776ZM114.082 20.034C114.754 20.034 115.255 19.8077 115.587 19.355C115.918 18.9023 116.084 18.2653 116.084 17.444C116.084 16.6227 115.918 15.9857 115.587 15.533C115.255 15.0757 114.754 14.847 114.082 14.847C113.4 14.847 112.892 15.0757 112.556 15.533C112.224 15.9857 112.059 16.6227 112.059 17.444C112.059 18.2653 112.224 18.9023 112.556 19.355C112.892 19.8077 113.4 20.034 114.082 20.034ZM120.31 15.253C120.538 14.7863 120.814 14.42 121.136 14.154C121.458 13.888 121.845 13.755 122.298 13.755C122.452 13.755 122.596 13.7737 122.732 13.811C122.872 13.8437 122.993 13.895 123.096 13.965L123.005 14.994C122.972 15.12 122.895 15.183 122.774 15.183C122.708 15.183 122.61 15.1713 122.48 15.148C122.349 15.12 122.209 15.106 122.06 15.106C121.84 15.106 121.647 15.1387 121.479 15.204C121.311 15.2647 121.159 15.358 121.024 15.484C120.893 15.6053 120.776 15.757 120.674 15.939C120.571 16.1163 120.475 16.3193 120.387 16.548V21H119.022V13.888H119.806C119.955 13.888 120.055 13.916 120.107 13.972C120.163 14.0233 120.202 14.1167 120.226 14.252L120.31 15.253ZM125.751 10.948V14.952C125.751 15.162 125.747 15.3673 125.737 15.568C125.728 15.7687 125.714 15.9717 125.695 16.177C125.681 16.3777 125.663 16.5853 125.639 16.8C125.616 17.0147 125.59 17.241 125.562 17.479H124.638C124.61 17.241 124.585 17.0147 124.561 16.8C124.538 16.5853 124.517 16.3777 124.498 16.177C124.484 15.9717 124.473 15.7687 124.463 15.568C124.454 15.3673 124.449 15.162 124.449 14.952V10.948H125.751ZM124.155 20.181C124.155 20.055 124.179 19.936 124.225 19.824C124.272 19.712 124.337 19.614 124.421 19.53C124.505 19.446 124.603 19.3807 124.715 19.334C124.827 19.2827 124.949 19.257 125.079 19.257C125.205 19.257 125.324 19.2827 125.436 19.334C125.548 19.3807 125.646 19.446 125.73 19.53C125.814 19.614 125.88 19.712 125.926 19.824C125.978 19.936 126.003 20.055 126.003 20.181C126.003 20.3117 125.978 20.433 125.926 20.545C125.88 20.657 125.814 20.755 125.73 20.839C125.646 20.923 125.548 20.9883 125.436 21.035C125.324 21.0817 125.205 21.105 125.079 21.105C124.949 21.105 124.827 21.0817 124.715 21.035C124.603 20.9883 124.505 20.923 124.421 20.839C124.337 20.755 124.272 20.657 124.225 20.545C124.179 20.433 124.155 20.3117 124.155 20.181Z" fill="#EF7014"/>
</g>
<defs>
<clipPath id="clip0_252_81">
<rect width="138" height="38" fill="white"/>
</clipPath>
</defs>
</svg>
