<svg width="28" height="29" viewBox="0 0 28 29" fill="none" xmlns="http://www.w3.org/2000/svg">
<path fill-rule="evenodd" clip-rule="evenodd" d="M13.4453 24.2474C13.5417 24.2033 13.6257 24.1437 13.6966 24.0727C13.9434 23.8255 14.0245 23.4412 13.8699 23.1046L7.28863 8.74184C7.09042 8.30855 6.57875 8.11861 6.14587 8.31722C5.71537 8.51502 5.52344 9.0263 5.72165 9.45959L12.3025 23.8227C12.5011 24.2556 13.0128 24.4456 13.4453 24.2474ZM16.6954 7.93967C15.7244 6.04456 10.2993 7.5532 8.53327 8.79971L12.0537 16.4824C18.748 11.1342 17.8406 14.1066 17.8406 14.1066C17.8406 14.1066 18.1955 15.0981 20.6813 12.8791C22.1468 11.2304 22.9643 9.5052 21.9286 7.54469C19.6785 9.92921 17.1845 8.69273 17.1845 8.69273L16.6954 7.93967Z" fill="#D4EDB2"/>
<circle cx="14" cy="14.6055" r="13.5" stroke="#D4EDB2"/>
</svg>
