<svg id="レイヤー_1" data-name="レイヤー 1" xmlns="http://www.w3.org/2000/svg" viewBox="0 0 51.2 51.2"><defs><style>.cls-1{fill:#4b4b4b;}.cls-2{fill:#fff;}</style></defs><path class="cls-1" d="M29.8,10.9a2.7,2.7,0,1,0,5.3.2,2.7,2.7,0,1,0-5.3-.2"/><path class="cls-1" d="M28.6,21h0"/><path class="cls-1" d="M24.1,24.9l2.2-5h.1a.5.5,0,0,1,.2-.4A18.7,18.7,0,0,1,29,15.7a3.5,3.5,0,0,1,2.5-1.2,3.4,3.4,0,0,1,3.1,1.6l2.3,3.8L41,23a1.1,1.1,0,0,1,.2,1.5,1,1,0,0,1-1.4.3L35.4,22c.1,1.1,1.5,18.5,1.5,18.5a1.4,1.4,0,0,1-2.7.3l-1.3-7.2-.3.8a1.4,1.4,0,0,1-.5.8l-4.3,4.6a1.2,1.2,0,0,1-1.7.1,1.3,1.3,0,0,1-.1-1.8l3.4-4.9,1.2-4.8c0-.8-1.2-8.2-1.2-8.2l-.8.8h0L26,25.8a1.1,1.1,0,0,1-1.4.5,1,1,0,0,1-.5-1.4"/><rect class="cls-2" x="23.2" y="2" width="4.8" height="47.25" transform="translate(-10.6 25.6) rotate(-45)"/><path class="cls-1" d="M43.7,7.5a25.6,25.6,0,1,0,7.5,18.1A25.5,25.5,0,0,0,43.7,7.5M25.6,46.9a20.8,20.8,0,0,1-15-6.3,20.8,20.8,0,0,1-6.3-15A21.5,21.5,0,0,1,9.7,11.5L39.6,41.6a20.9,20.9,0,0,1-14,5.3m15.9-7.2L11.6,9.6a21.1,21.1,0,0,1,29,1,20.8,20.8,0,0,1,6.3,15,21.5,21.5,0,0,1-5.4,14.1"/><polygon class="cls-1" points="23.6 42 21.4 42 21.4 36.7 8.8 36.7 8.8 42 6.9 42 6.9 34.4 23.6 34.4 23.6 42"/><path class="cls-1" d="M19.6,33H10.4a1,1,0,0,1-1-1V28.3a1,1,0,0,1,1-1h9.2a.9.9,0,0,1,1,1V32a.9.9,0,0,1-1,1"/><rect class="cls-1" x="9.4" y="30.2" width="11.2" height="3.77"/><path class="cls-1" d="M13.1,26.9V26a.8.8,0,0,1,.7-.7h2.5a.8.8,0,0,1,.7.7v.9h1.2V25.4a1.1,1.1,0,0,0-1.1-1.1H12.9a1.1,1.1,0,0,0-1,1.1v1.5Z"/></svg>