<svg id="レイヤー_1" data-name="レイヤー 1" xmlns="http://www.w3.org/2000/svg" viewBox="0 0 50.3 50.3"><defs><style>.cls-1{fill:#4b4b4b;}.cls-2{fill:#fff;}</style></defs><rect class="cls-1" x="22.5" y="15.1" width="2.1" height="7.14"/><rect class="cls-1" x="22.5" y="29.1" width="2.1" height="8.02"/><polygon class="cls-1" points="29.4 29.4 29.4 33.7 41.6 33.4 41.6 29.7 29.4 29.4"/><polygon class="cls-1" points="45.4 31.6 40.7 35.3 40.7 27.8 45.4 31.6"/><polygon class="cls-1" points="27.7 23.1 27.7 27.5 14.5 27.8 14.5 22.9 27.7 23.1"/><rect class="cls-2" x="35.8" y="27.3" width="3.7" height="8.98"/><path class="cls-1" d="M38.6,40.1,8.4,35.5V11.7l30.2,4.6ZM10.5,33.7l26,3.9V18.1l-26-3.9Z"/><polygon class="cls-2" points="3.2 25.3 15.4 32.3 15.4 18.3 3.2 25.3"/><polygon class="cls-1" points="5.7 25.3 15.4 30.9 15.4 19.7 5.7 25.3"/><path class="cls-1" d="M44.5,50.3H5.8A5.8,5.8,0,0,1,0,44.5V5.8A5.8,5.8,0,0,1,5.8,0H44.5a5.8,5.8,0,0,1,5.8,5.8V44.5a5.8,5.8,0,0,1-5.8,5.8M5.8,3.2A2.6,2.6,0,0,0,3.2,5.8V44.5a2.6,2.6,0,0,0,2.6,2.6H44.5a2.6,2.6,0,0,0,2.6-2.6V5.8a2.6,2.6,0,0,0-2.6-2.6Z"/></svg>