<svg id="レイヤー_1" data-name="レイヤー 1" xmlns="http://www.w3.org/2000/svg" viewBox="0 0 50.3 50.3"><defs><style>.cls-1{fill:#4b4b4b;}.cls-2{fill:#fff;}</style></defs><path class="cls-1" d="M44.5,50.3H5.8A5.8,5.8,0,0,1,0,44.5V5.8A5.8,5.8,0,0,1,5.8,0H44.5a5.8,5.8,0,0,1,5.8,5.8V44.5a5.8,5.8,0,0,1-5.8,5.8M5.8,3.2A2.6,2.6,0,0,0,3.2,5.8V44.5a2.6,2.6,0,0,0,2.6,2.6H44.5a2.6,2.6,0,0,0,2.6-2.6V5.8a2.6,2.6,0,0,0-2.6-2.6Z"/><path class="cls-1" d="M43.1,25.5H6.8a2.2,2.2,0,0,1-2.2-2.2V12.2A2.2,2.2,0,0,1,6.8,10H43.1a2.2,2.2,0,0,1,2.2,2.2V23.3a2.2,2.2,0,0,1-2.2,2.2M7,23.1H42.9V12.4H7Z"/><path class="cls-1" d="M43.1,24.3H22.8a1,1,0,0,1-1-1V12.2a1.1,1.1,0,0,1,1-1H43.1a1,1,0,0,1,1,1V23.3a.9.9,0,0,1-1,1"/><path class="cls-1" d="M11.6,14.7c-.1,0-.1,0-.1.1v.5h2.4v1.3h-.8V16H12v1h.8c.1,0,.1-.1.2-.2v-.2l.7.3-.2.4h0l-.2.3H11.8a.5.5,0,0,1-.5-.5V16h-.6a2.2,2.2,0,0,1-.1.8A3.2,3.2,0,0,1,8.9,18h4.4v.7H11.4v1H14v.8H8.1v-.8h2.6v-1h-2V18h.2l-.4-.6a2.4,2.4,0,0,0,1.1-.6A.9.9,0,0,0,10,16H9v.7H8.2V15.3h2.5v-.8h.7l.2.2"/><path class="cls-1" d="M19.6,16.8h-.7l1.4.9-.5.6-.4-.3H18v.5h1.9v.7H18v.6h2.5v.7H14.7v-.7h2.6v-.6H15.4v-.7h1.9v-.4H15.7c-.1.1-.1.2-.2.1h-.1v-.7h1l.4-.6h-1v-.6h3.9Zm-1.5-2.2H18v.5h2.4v1.4h-.7v-.8H15.5v.9h-.7V15.2h2.4v-.7h.9m-.6,2.2-.4.6h1.5l-.5-.3.4-.2Z"/><path class="cls-2" d="M27.9,14.7v.6h1.8V16H27.9v.4h1.4v2.1h-.7v-.2h-.7a2,2,0,0,1-.2.9,6.4,6.4,0,0,0,2.2.6l-.2.8a8.5,8.5,0,0,1-2.4-.8l-.4.4a5.3,5.3,0,0,1-1.5.5l-.2-.5v.4h-.7V17.7l-.3.4-.5-.5a3.7,3.7,0,0,0,.8-1.4,3.8,3.8,0,0,0,.4-1.7l.7.2c0,.1.1.1.1.2h-.1l-.4,1.4c.1,0,.1,0,.1.1s.1,0,.1.1h-.2V20h.3l1.1-.4h.2l-.7-.9.4-.2h-.8V16.4h1.5V16H25.6v-.7h1.6v-.8h.6c.2.1.2.1.1.2M27.2,17h-.8v.7h.8Zm-.5,1.3h.1l.3.4a.7.7,0,0,0,.1-.5Zm1.2-.6h.7V17h-.7Z"/><path class="cls-2" d="M36,19.8V20a.5.5,0,0,1-.5.4h-.9v-.8h.8V18.4H33.8v2h-.7v-2H31.8v.2a2.5,2.5,0,0,1-.9,2l-.6-.6.4-.3a3.8,3.8,0,0,0,.4-1.6V14.9H36Zm-4.2-3.5h1.3v-.8H31.8Zm0,1.5h1.3V17H31.8Zm2-1.5h1.5v-.8H33.8Zm0,1.5h1.5V17H33.8Z"/><path class="cls-2" d="M40.3,14.9v.9h2.2v3h-.7v-.2H40.3v2h-.7v-2H38.1V19h-.7V15.8h2.2V14.6h.6c.2.1.2.1.1.3M38.1,18h1.5V16.5H38.1Zm2.2,0h1.5V16.5H40.3Z"/><path class="cls-1" d="M38,32.3a1.1,1.1,0,0,0-.8.3,2,2,0,0,0-2.1-1.2l-.8.4a1.6,1.6,0,0,0-1.8-.7,1.4,1.4,0,0,0-1.1.7l-1.3-7.3a1.8,1.8,0,0,0-3.6.6l2,11.7L25,35.5a1.7,1.7,0,0,0-2.2.8,2.1,2.1,0,0,0,.8,2.4s5.6,4.7,8.6,5.6c4.7,1.2,9.2-2.8,8.6-6.1l-.7-4.4A1.8,1.8,0,0,0,38,32.3"/><path class="cls-2" d="M34,44.9l-1.9-.2c-3.1-.9-8.5-5.5-8.7-5.7a2.5,2.5,0,0,1-1-2.8,2.2,2.2,0,0,1,2.8-1.1L28,36.2l-1.9-11a2.2,2.2,0,0,1,1.8-2.6,2.1,2.1,0,0,1,1.7.4,1.9,1.9,0,0,1,.9,1.4L31.6,31a1.6,1.6,0,0,1,.9-.3,2,2,0,0,1,1.9.6c.2-.2.4-.2.7-.3a2.3,2.3,0,0,1,2.2,1h.6a2.1,2.1,0,0,1,1.7.4,2.3,2.3,0,0,1,.9,1.4l.7,4.5a5.4,5.4,0,0,1-2,4.7,7.7,7.7,0,0,1-5.2,2m-9.6-9.1c-.5,0-1.1.2-1.2.6a1.7,1.7,0,0,0,.7,2s5.5,4.7,8.4,5.5a7.2,7.2,0,0,0,6.4-1.6,4.7,4.7,0,0,0,1.7-4l-.7-4.5a1.8,1.8,0,0,0-.6-.9,1.4,1.4,0,0,0-1.1-.2l-.6.2-.4.3-.2-.5a1.5,1.5,0,0,0-1.6-.9l-.6.3-.3.2L34,32a1.5,1.5,0,0,0-1.4-.5,1.1,1.1,0,0,0-.9.5l-.6.8-1.4-8.2a1.2,1.2,0,0,0-.5-1,1.5,1.5,0,0,0-1.1-.2A1.4,1.4,0,0,0,26.9,25L29,37.4l-4.1-1.6h-.5"/></svg>