<svg id="レイヤー_1" data-name="レイヤー 1" xmlns="http://www.w3.org/2000/svg" viewBox="0 0 51.2 51.2"><defs><style>.cls-1{fill:#4b4b4b;}.cls-2{fill:#fff;}</style></defs><path class="cls-1" d="M31.2,11.8a5.1,5.1,0,1,1-5.1-5.1,5.1,5.1,0,0,1,5.1,5.1"/><path class="cls-1" d="M24.4,40.9,21.9,38l2.8-2.8-4.3-4.3a42.1,42.1,0,0,0-3.2,4,3.7,3.7,0,0,0,.9,5.2l4,3.1a1.6,1.6,0,0,0,2.3-2.3"/><path class="cls-1" d="M27.7,40.9,30.2,38l-2.8-2.8,4.2-4.3a36.9,36.9,0,0,1,3.3,4,3.7,3.7,0,0,1-.9,5.2l-4,3.1a1.6,1.6,0,0,1-2.3-2.3"/><path class="cls-1" d="M31.7,28.7V26l6,5.4a1.6,1.6,0,0,0,2.2-.1,1.6,1.6,0,0,0-.1-2.3l-6.1-7.6A9.7,9.7,0,0,0,26,17.9a9.4,9.4,0,0,0-7.6,3.5L12.3,29a1.6,1.6,0,0,0-.1,2.3,1.6,1.6,0,0,0,2.2.1l6-5.4v2.7Z"/><rect class="cls-2" x="23.2" y="2" width="4.8" height="47.25" transform="translate(-10.6 25.6) rotate(-45)"/><path class="cls-1" d="M43.7,7.5a25.6,25.6,0,1,0,7.5,18.1A25.5,25.5,0,0,0,43.7,7.5M25.6,46.9a20.8,20.8,0,0,1-15-6.3,20.8,20.8,0,0,1-6.3-15A21.5,21.5,0,0,1,9.7,11.5L39.6,41.6a20.9,20.9,0,0,1-14,5.3m15.9-7.2L11.6,9.6a21.1,21.1,0,0,1,29,1,20.8,20.8,0,0,1,6.3,15,21.5,21.5,0,0,1-5.4,14.1"/></svg>