<svg id="レイヤー_1" data-name="レイヤー 1" xmlns="http://www.w3.org/2000/svg" viewBox="0 0 125.8 125.8"><defs><style>.cls-1{fill:#4b4b4b;}.cls-2{fill:#fff;}</style></defs><path class="cls-1" d="M51.7,70.6l1.8,32a3.9,3.9,0,1,0,7.7-.3l.9-25Z"/><path class="cls-1" d="M74.1,70.6l-1.8,32a3.9,3.9,0,0,1-7.8-.3l-.9-25Z"/><path class="cls-1" d="M74,30.5A11,11,0,1,1,63,19.4,11,11,0,0,1,74,30.5Z"/><path class="cls-1" d="M74.1,64.7V59.5L85.9,70.1a3.3,3.3,0,0,0,4.5-.3,3.1,3.1,0,0,0-.3-4.4S79.3,51.8,78,50.4a18.7,18.7,0,0,0-15.1-6.9,18.8,18.8,0,0,0-15.2,6.9l-12.1,15a3.1,3.1,0,0,0-.2,4.4,3.3,3.3,0,0,0,4.5.3L51.6,59.5v5.2Z"/><polyline class="cls-1" points="51.7 70.6 51.6 64.7 74.1 64.7 74.1 70.6 63.6 77.3 62.1 77.3"/><rect class="cls-2" x="56.2" y="10.4" width="14.7" height="109.38" transform="translate(-27.4 64) rotate(-45)"/><path class="cls-1" d="M62.9,125.8a62.9,62.9,0,1,1,62.9-62.9A62.9,62.9,0,0,1,62.9,125.8Zm0-115A52.1,52.1,0,1,0,115,62.9,52.2,52.2,0,0,0,62.9,10.8Z"/><rect class="cls-1" x="59.2" y="10.4" width="8.8" height="109.38" transform="translate(-27.4 64) rotate(-45)"/></svg>