<svg id="レイヤー_1" data-name="レイヤー 1" xmlns="http://www.w3.org/2000/svg" viewBox="0 0 125.8 125.8"><defs><style>.cls-1{fill:#4b4b4b;}</style></defs><path class="cls-1" d="M79.8,75.5a33.3,33.3,0,0,1-2.7-11.6c0-2.6,2.4-6.8,4.5-10.6l1.6-3.1c2.2-4.1,1.2-9.1.1-14.4-.3-1.1-.5-2.3-.7-3.4h0l-.5-2.7h0l-1.4-7.4-2.6.5,1.8,9.4c-6.5,7.3-12.7,11.5-17.2,11.5S52,39.5,45.5,32.2l1.7-9.4-2.6-.5-1.3,7.4h0l-.5,2.6h0c-.2,1.1-.5,2.3-.7,3.4-1.1,5.3-2.1,10.3,0,14.4l1.7,3.1c2.1,3.8,4.5,8,4.5,10.6a31.6,31.6,0,0,1-2.8,11.6c-1.7,4.1-3.8,8.6-3.8,8.6L41,85.4l1.4.5c4.6,1.7,6.3,4.9,9.2,10.1l.9,1.5c2.4,4.3,7.4,11.2,10.2,11.2s7.8-6.9,10.2-11.2l.9-1.5c2.9-5.2,4.6-8.4,9.2-10.1l1.3-.5-.6-1.3s-2.2-4.5-3.9-8.6M71.5,94.7l-.9,1.5c-3.3,5.9-6.8,9.4-7.9,9.8s-4.6-3.9-7.9-9.8l-.9-1.5c-2.7-4.9-4.7-8.5-9.3-10.7.8-1.6,2.2-4.6,3.4-7.5,1.9-4.9,2.9-9.1,2.9-12.6S48.5,56.3,46.1,52l-1.6-3c-1.8-3.3-.8-7.9.2-12.7a2.9,2.9,0,0,1,.2-.9c6.6,7.1,12.8,11,17.8,11s11.2-3.9,17.8-11c.1.3.1.6.2.9,1,4.8,2,9.4.2,12.7l-1.6,3c-2.4,4.3-4.8,8.7-4.8,11.9s1,7.7,2.9,12.6c1.2,2.9,2.6,5.9,3.4,7.5C76.2,86.2,74.2,89.8,71.5,94.7Z"/><path class="cls-1" d="M62.7,110.6c-4.9,0-11.2-10.9-11.9-12.1l-.9-1.6c-2.9-5.1-4.3-7.7-8.2-9.1l-3.4-1.3,1.6-3.2c0-.1,2.1-4.4,3.8-8.6a28.8,28.8,0,0,0,2.6-10.8c0-2-2.4-6.5-4.2-9.7l-1.7-3.1c-2.5-4.8-1.3-10.3-.2-15.7.2-1.1.5-2.2.7-3.4l1.3-7.6h.1l.8-4.5,6.4,1.2L47.6,31.6C53.4,38,59,41.8,62.7,41.8S72,38,77.8,31.6L75.9,21.2,82.3,20l1.2,6.4h0l1.1,5.8a22.1,22.1,0,0,0,.5,2.5v.7c1.1,5.4,2.3,10.9-.2,15.7l-1.7,3.1c-1.8,3.3-4.3,7.7-4.3,9.7s.9,6.5,2.7,10.8h0c.9,2.4,2.3,5.4,3.7,8.4,0,.1.1.1.1.2h0l1.6,3.2-3.4,1.3c-3.9,1.4-5.5,4.2-8.2,9.1l-.9,1.6C73.9,99.7,67.6,110.6,62.7,110.6ZM47.2,83.2c3.9,2.4,5.9,6.1,8.4,10.5l.9,1.5a36.3,36.3,0,0,0,6.2,8.4,32.1,32.1,0,0,0,6.2-8.4l.9-1.5c2.4-4.4,4.5-8.1,8.4-10.5-.7-1.6-1.7-3.8-2.6-6a36,36,0,0,1-3.1-13.3c0-3.7,2.6-8.4,5.1-12.9l1.6-2.9c1.1-2.2.8-5.3.1-8.7-6,5.9-11.8,8.9-16.6,8.9s-10.6-3-16.6-8.9c-.7,3.4-1,6.5.1,8.7l1.5,2.8h.1c2.5,4.5,5.1,9.2,5.1,12.9s-1.1,8.2-3.1,13.3Z"/><path class="cls-1" d="M62.9,125.8a62.9,62.9,0,1,1,62.9-62.9A62.9,62.9,0,0,1,62.9,125.8Zm0-115A52.1,52.1,0,1,0,115,62.9,52.2,52.2,0,0,0,62.9,10.8Z"/></svg>