<svg id="レイヤー_1" data-name="レイヤー 1" xmlns="http://www.w3.org/2000/svg" viewBox="0 0 50.3 50.3"><defs><style>.cls-1{fill:#4b4b4b;}</style></defs><path class="cls-1" d="M24.3,34.6a99.8,99.8,0,0,1-10.9-1h-.9V18.6h.8c.4-.1,8.7-1.8,11.2-1.8s10.9,1.7,11.2,1.8h.8V33.5h-.8a110.2,110.2,0,0,1-11.4,1m-9.9-2.7c2,.2,7.3.9,9.9.9a100,100,0,0,0,10.3-1V20.2a95.9,95.9,0,0,0-10.1-1.6c-1.9,0-7.9,1.2-10.1,1.6Z"/><rect class="cls-1" x="16.8" y="21.5" width="15.1" height="1.88"/><rect class="cls-1" x="16.8" y="25.1" width="15.1" height="1.88"/><rect class="cls-1" x="16.8" y="28.7" width="15.1" height="1.88"/><path class="cls-1" d="M36.3,33.6V31.7C40,31.7,43,29.2,43,26s-3-5.7-6.7-5.7V18.5c4.7,0,8.6,3.4,8.6,7.5s-3.9,7.6-8.6,7.6"/><path class="cls-1" d="M13.7,33.6C9,33.6,5.1,30.2,5.1,26s3.9-7.5,8.6-7.5v1.8C10,20.3,7,22.9,7,26s3,5.7,6.7,5.7Z"/><path class="cls-1" d="M44.5,50.3H5.8A5.8,5.8,0,0,1,0,44.5V5.8A5.8,5.8,0,0,1,5.8,0H44.5a5.8,5.8,0,0,1,5.8,5.8V44.5a5.8,5.8,0,0,1-5.8,5.8M5.8,3.2A2.6,2.6,0,0,0,3.2,5.8V44.5a2.6,2.6,0,0,0,2.6,2.6H44.5a2.6,2.6,0,0,0,2.6-2.6V5.8a2.6,2.6,0,0,0-2.6-2.6Z"/></svg>