<svg id="レイヤー_1" data-name="レイヤー 1" xmlns="http://www.w3.org/2000/svg" viewBox="0 0 50.3 50.3"><defs><style>.cls-1{fill:#4b4b4b;}</style></defs><path class="cls-1" d="M14.6,11.4c-5.5,1.8-5.9,12.4-3.3,18.4l8.9-.7a53,53,0,0,0,1.2-10.4c0-2.8-1.6-8.9-6.8-7.3"/><path class="cls-1" d="M11.7,32.1s-.3,8.6,5.6,7.9,3.3-8.8,3.3-8.8Z"/><path class="cls-1" d="M36.2,11.4c-5.2-1.6-6.8,4.5-6.8,7.3a53,53,0,0,0,1.2,10.4l8.9.7c2.6-6,2.2-16.6-3.3-18.4"/><path class="cls-1" d="M30.2,31.2s-2,8.2,3.3,8.8,5.6-7.9,5.6-7.9Z"/><path class="cls-1" d="M44.5,50.3H5.8A5.8,5.8,0,0,1,0,44.5V5.8A5.8,5.8,0,0,1,5.8,0H44.5a5.8,5.8,0,0,1,5.8,5.8V44.5a5.8,5.8,0,0,1-5.8,5.8M5.8,3.2A2.6,2.6,0,0,0,3.2,5.8V44.5a2.6,2.6,0,0,0,2.6,2.6H44.5a2.6,2.6,0,0,0,2.6-2.6V5.8a2.6,2.6,0,0,0-2.6-2.6Z"/></svg>