<svg id="レイヤー_1" data-name="レイヤー 1" xmlns="http://www.w3.org/2000/svg" viewBox="0 0 50.3 50.3"><defs><style>.cls-1{fill:#4b4b4b;}</style></defs><path class="cls-1" d="M40.7,9.9l-.4-.4a6.7,6.7,0,0,0-9.3,0L18.8,21.7A7.2,7.2,0,0,0,17,25l-.7,2.9a7.7,7.7,0,0,1-1.8,3.3l-3.6,3.5-.8.9L8.5,37.1a3.4,3.4,0,0,0,0,4.6,3.3,3.3,0,0,0,4.7,0l1.5-1.5.8-.9,3.6-3.5a7.3,7.3,0,0,1,3.3-1.9l2.8-.6a6.7,6.7,0,0,0,3.3-1.8L40.7,19.3a6.6,6.6,0,0,0,0-9.4m-1.1,8.2L27.4,30.3a5.2,5.2,0,0,1-2.5,1.4l-2.8.7A7.8,7.8,0,0,0,18,34.6l-3.3,3.3-2.3-2.3,3.2-3.3a8,8,0,0,0,2.3-4.1l.7-2.8A4.8,4.8,0,0,1,20,22.9L32.1,10.7a5,5,0,0,1,7.1,0l.4.4a5,5,0,0,1,0,7"/><rect class="cls-1" x="22.9" y="18.6" width="12.2" height="5.43" rx="0.8" transform="translate(-6.6 26.7) rotate(-45)"/><path class="cls-1" d="M44.5,0H5.8A5.8,5.8,0,0,0,0,5.8V44.5a5.8,5.8,0,0,0,5.8,5.8H44.5a5.8,5.8,0,0,0,5.8-5.8V5.8A5.8,5.8,0,0,0,44.5,0Zm2.6,44.5a2.6,2.6,0,0,1-2.6,2.6H5.8a2.6,2.6,0,0,1-2.6-2.6V5.8A2.6,2.6,0,0,1,5.8,3.2H44.5a2.6,2.6,0,0,1,2.6,2.6Z"/></svg>