<svg id="レイヤー_1" data-name="レイヤー 1" xmlns="http://www.w3.org/2000/svg" viewBox="0 0 50.3 50.3"><defs><style>.cls-1{fill:#4b4b4b;}</style></defs><path class="cls-1" d="M13.7,13.4a2.2,2.2,0,0,1-4.4,0,2.2,2.2,0,1,1,4.4,0"/><path class="cls-1" d="M11.5,16.3c-1.6,0-5.3.1-5.3,3.2v7.2a.9.9,0,0,0,.9.9c.4.1.8-.3.9-.8l.4-4.4.4,16.5A1.1,1.1,0,0,0,9.9,40a1.2,1.2,0,0,0,1.2-1.1l.4-10.2.4,10.2A1.1,1.1,0,0,0,13.1,40a1.1,1.1,0,0,0,1.1-1.1l.4-16.5.4,4.4c.1.5.5.9.9.8a.9.9,0,0,0,.9-.9V19.5c0-3.1-3.7-3.2-5.3-3.2"/><path class="cls-1" d="M41.1,13.4a2.2,2.2,0,0,1-4.4,0,2.2,2.2,0,1,1,4.4,0"/><path class="cls-1" d="M38.9,16.3c-1.6,0-5.2.1-5.2,3.2v7.2a.9.9,0,0,0,1.7.1l.4-4.4.4,16.5A1.1,1.1,0,0,0,37.3,40a1.1,1.1,0,0,0,1.2-1.1l.4-10.2.5,10.2a1.1,1.1,0,1,0,2.2,0L42,22.4l.5,4.4a.8.8,0,0,0,.9.8.9.9,0,0,0,.8-.9V19.5c0-3.1-3.7-3.2-5.3-3.2"/><path class="cls-1" d="M44.5,50.3H5.8A5.8,5.8,0,0,1,0,44.5V5.8A5.8,5.8,0,0,1,5.8,0H44.5a5.8,5.8,0,0,1,5.8,5.8V44.5a5.8,5.8,0,0,1-5.8,5.8M5.8,3.2A2.6,2.6,0,0,0,3.2,5.8V44.5a2.6,2.6,0,0,0,2.6,2.6H44.5a2.6,2.6,0,0,0,2.6-2.6V5.8a2.6,2.6,0,0,0-2.6-2.6Z"/><rect class="cls-1" x="22.1" y="23.7" width="6.9" height="2.78"/><polygon class="cls-1" points="31.2 25.1 27.2 21.5 27.2 28.7 31.2 25.1"/><polygon class="cls-1" points="19.4 25.1 23.5 28.7 23.5 21.5 19.4 25.1"/></svg>