<svg id="レイヤー_1" data-name="レイヤー 1" xmlns="http://www.w3.org/2000/svg" viewBox="0 0 50.3 50.3"><defs><style>.cls-1{fill:#4b4b4b;}</style></defs><path class="cls-1" d="M20.3,41.2H39.2a9.1,9.1,0,0,0-5.4-8.7V30.9c1.7-1-9.6.3-7.8.9h.4v.3a9,9,0,0,0-6.1,9"/><path class="cls-1" d="M44.5,50.3H5.8A5.8,5.8,0,0,1,0,44.5V5.8A5.8,5.8,0,0,1,5.8,0H44.5a5.8,5.8,0,0,1,5.8,5.8V44.5a5.8,5.8,0,0,1-5.8,5.8M5.8,3.2A2.6,2.6,0,0,0,3.2,5.8V44.5a2.6,2.6,0,0,0,2.6,2.6H44.5a2.6,2.6,0,0,0,2.6-2.6V5.8a2.6,2.6,0,0,0-2.6-2.6Z"/><path class="cls-1" d="M9.8,33.1h.6a1.4,1.4,0,0,1,1.1-1.3h.6a1.3,1.3,0,0,1,1.1-.9,1,1,0,0,1,.9.2l-.9-5.2a1.5,1.5,0,0,1,1.1-1.6,1.3,1.3,0,0,1,1.5,1.1l1.8,10.3a4.3,4.3,0,0,1-3.5,4.9,4.2,4.2,0,0,1-4.9-3.5l-.5-2.6a1.4,1.4,0,0,1,1.1-1.6"/><path class="cls-1" d="M41.3,22.2C40.6,28.8,35,33.7,28.7,33a11.1,11.1,0,0,1-8.6-5.7c-.2-.4,2-.2,2-1.2s-2.8-.6-2.9-.9a11.3,11.3,0,0,1-.6-5.2c.6-6.6,6.3-11.5,12.5-10.8s10.8,6.4,10.2,13"/><path class="cls-1" d="M21.8,16.5l-6.6,5.1a.5.5,0,0,0,.2.9l9.2,2.8c.5.1.9-.3.7-.7l-2.7-7.9a.5.5,0,0,0-.8-.2"/></svg>