<svg id="レイヤー_1" data-name="レイヤー 1" xmlns="http://www.w3.org/2000/svg" viewBox="0 0 51.2 51.2"><defs><style>.cls-1{fill:#4b4b4b;}</style></defs><path class="cls-1" d="M43.7,7.5a25.6,25.6,0,1,0,7.5,18.1A25.5,25.5,0,0,0,43.7,7.5M25.6,46.9a20.8,20.8,0,0,1-15-6.3,20.8,20.8,0,0,1-6.3-15A21.5,21.5,0,0,1,9.7,11.5L39.6,41.6a20.9,20.9,0,0,1-14,5.3m15.9-7.2L11.6,9.6a21.1,21.1,0,0,1,29,1,20.8,20.8,0,0,1,6.3,15,21.5,21.5,0,0,1-5.4,14.1"/><path class="cls-1" d="M13.6,32.6A1.5,1.5,0,0,0,12,33.9h0a1.5,1.5,0,0,0,1.6,1.3H28a1.5,1.5,0,0,0,1.6-1.3h0A1.5,1.5,0,0,0,28,32.6Z"/><path class="cls-1" d="M11.3,30.9h.3l.3.3c0,.1.1.2.2.3l.6.5.4.2h1.1l.4-.2.5-.4.2-.3.3-.3h.7c0,.1.1.2.2.3l.3.3c.1.2.3.3.6.5l.4.2h1a.5.5,0,0,0,.4-.2l.5-.4.3-.3.3-.3h.6l.3.3c.1.1.2.2.2.3l.6.5.4.2h1.1l.4-.2.5-.4c.1-.1.2-.2.2-.3s.3-.2.3-.3h.7l.3.3c0,.1.1.2.2.3l.6.5.4.2h1l-2.3-2.3H24.7l-.4.2-.5.4-.3.3-.3.3h-.6c-.1-.1-.2-.1-.3-.3s-.1-.1-.2-.3l-.6-.5H20l-.4.2-.5.4-.2.3c-.1.2-.2.2-.3.3h-.3c-.1,0-.2,0-.2-.1h-.2l-.2-.3q-.1,0-.3-.3l-.6-.5H15.4a.5.5,0,0,0-.4.2l-.5.4-.3.3-.3.3h-.3c-.1,0-.2,0-.2-.1h-.1c-.1-.1-.2-.1-.3-.3s-.2-.1-.3-.3l-.5-.5h-.9a.6.6,0,1,0,0,1.2"/><path class="cls-1" d="M12.3,28.7H24.7l-6.8-6.9c-3.5.8-6.1,3.1-6.5,5.5v.4a.9.9,0,0,0,1,1M19,24.2a.4.4,0,0,1,.4.4.5.5,0,0,1-.4.5.5.5,0,0,1-.5-.5.5.5,0,0,1,.5-.4m-1.6-1.4a.4.4,0,0,1,.4.4.5.5,0,0,1-.4.5.5.5,0,0,1-.5-.5.5.5,0,0,1,.5-.4m-1.9,1.4a.5.5,0,0,1,.5.4.5.5,0,0,1-.5.5.5.5,0,0,1-.4-.5.4.4,0,0,1,.4-.4"/><path class="cls-1" d="M12.4,36.1c-.9,0-1.3.8-1.3,1.7V38a1.7,1.7,0,0,0,1.8,1.7H28.4a1.6,1.6,0,0,0,1.7-1.5h4.1l-1.7-1.7H29.8a1.3,1.3,0,0,0-1-.4Z"/><polygon class="cls-1" points="27.9 9 23.5 6.4 22.6 8 26.3 10.1 27.1 13.7 20.6 13.7 20.7 14.6 20.9 16.9 22.7 18.7 22.5 15.4 37.2 15.4 35.9 32 37.5 33.6 39.1 13.7 28.9 13.7 27.9 9"/></svg>