<svg id="レイヤー_1" data-name="レイヤー 1" xmlns="http://www.w3.org/2000/svg" viewBox="0 0 57.7 51.8"><defs><style>.cls-1{fill:#4b4b4b;}</style></defs><path class="cls-1" d="M24.4,22.9a2.4,2.4,0,0,1-4.8,0,2.4,2.4,0,0,1,4.8,0"/><path class="cls-1" d="M37.2,43.1a1.3,1.3,0,0,0,1.6.7,1.2,1.2,0,0,0,.6-1.6l-2.9-6.7a1.4,1.4,0,0,0-1-.7l-4-.9,3.8-3.3,5.9-.5a1.1,1.1,0,0,0,0-2.2H34.3a1.9,1.9,0,0,0-1.2.4l-3.9,2.9-1.9-4.6,2.5-2.7a.9.9,0,0,0,.3-.6l1.2-4a.9.9,0,0,0-1.8-.6L28,22.4l-2.6,2.2c-1,.7-4.4,2.4-5,2.7L17.1,29a1.6,1.6,0,0,0-.6.8L15,34.2a1,1,0,0,0,1.8.8l1.7-4,3-1.2s.2-.1.3.3l3,4.9a3.7,3.7,0,0,0,3,2.1c1.4.3,6.3.7,6.3.7Z"/><path class="cls-1" d="M29.9,44.5v.4a18.3,18.3,0,0,1-9,.5,14,14,0,0,1-4.3-1.6A14,14,0,0,1,13.1,41l.8-.7A10.9,10.9,0,0,0,17.2,43a14.2,14.2,0,0,0,4,1.7,17.1,17.1,0,0,0,8.7-.2"/><path class="cls-1" d="M29.4,43v.2a13.2,13.2,0,0,1-5.9-.7,8.7,8.7,0,0,1-2.7-1.4A11,11,0,0,1,18.7,39l.6-.4a9,9,0,0,0,4.4,3.5,13.9,13.9,0,0,0,5.7.9"/><path class="cls-1" d="M7.3,51.8a9.7,9.7,0,0,1-3.1-.4,7.2,7.2,0,0,1-2.5-1.6A3.6,3.6,0,0,1,.6,48.2,5.1,5.1,0,0,1,0,45.7a8.9,8.9,0,0,1,.3-2.2,6.7,6.7,0,0,1,1-2.1L22.9,4a8.4,8.4,0,0,1,1.8-2.3A7.2,7.2,0,0,1,27.1.3a5.6,5.6,0,0,1,3.6,0,8,8,0,0,1,1.6.8A9.2,9.2,0,0,1,34.9,4L56.5,41.4a9.5,9.5,0,0,1,.9,2.1,8.9,8.9,0,0,1,.3,2.2,6,6,0,0,1-2.7,5,7.5,7.5,0,0,1-1.8.8,11.2,11.2,0,0,1-2.7.3ZM28.9,4.6h-.4l-.4.2a3.3,3.3,0,0,0-1.2,1.4L5.2,43.7l-.5,1.2c0,.3-.1.5-.1.8a1.4,1.4,0,0,0,.2.6l.4.5.6.3H50.5A3.4,3.4,0,0,0,52,47a2.9,2.9,0,0,0,.8-.4l.2-.3a1.3,1.3,0,0,0,.1-.6,2.2,2.2,0,0,0-.1-.8,6.1,6.1,0,0,0-.5-1.2L30.9,6.3A6.2,6.2,0,0,0,30,5.1l-.8-.4h-.3"/><path class="cls-1" d="M7.3,51.3a8.4,8.4,0,0,1-2.9-.5,5.9,5.9,0,0,1-2.3-1.4,4.5,4.5,0,0,1-1-1.4,4.6,4.6,0,0,1-.5-2.3,6.9,6.9,0,0,1,.3-2,16.7,16.7,0,0,1,.8-2L23.3,4.3a7.9,7.9,0,0,1,1.8-2.2A6.1,6.1,0,0,1,27.3.8L28.9.6l1.6.2,1.5.8a9.1,9.1,0,0,1,2.4,2.7L56,41.7a8.8,8.8,0,0,1,.9,2,6.9,6.9,0,0,1,.3,2,5.2,5.2,0,0,1-.7,2.5,4.9,4.9,0,0,1-1.8,2l-1.6.7a7.5,7.5,0,0,1-2.6.4ZM28.9,4h-.6l-.6.3A5.3,5.3,0,0,0,26.4,6L4.8,43.5a3.4,3.4,0,0,0-.6,1.2,4.4,4.4,0,0,0-.2,1,1.6,1.6,0,0,0,.3.9.9.9,0,0,0,.6.6l.8.4,1.6.2H50.5a4.7,4.7,0,0,0,1.7-.3,2.3,2.3,0,0,0,1-.5l.3-.5a1.9,1.9,0,0,0,.2-.8,4.4,4.4,0,0,0-.2-1,6.1,6.1,0,0,0-.5-1.2L31.4,6a6.9,6.9,0,0,0-1.1-1.3l-.9-.6h-.5"/><path class="cls-1" d="M7.3,51.5a7.3,7.3,0,0,1-3-.5,7.2,7.2,0,0,1-2.4-1.4,6.5,6.5,0,0,1-1-1.5,5,5,0,0,1-.6-2.4,5.2,5.2,0,0,1,.4-2.1c.2-.6.5-1.3.8-2L23.2,4.2A9.8,9.8,0,0,1,24.9,2,6.2,6.2,0,0,1,27.2.6,4.7,4.7,0,0,1,28.9.3a5.1,5.1,0,0,1,1.7.3l1.5.8a8.5,8.5,0,0,1,2.5,2.8L56.2,41.6a11.3,11.3,0,0,1,.9,2,7.6,7.6,0,0,1,.3,2.1,5.2,5.2,0,0,1-.7,2.7,5,5,0,0,1-3.6,2.7,7.5,7.5,0,0,1-2.6.4ZM28.9,4.3h-.5l-.5.2a4.2,4.2,0,0,0-1.3,1.6L5,43.6a3.4,3.4,0,0,0-.6,1.2,2.8,2.8,0,0,0-.1.9,1.1,1.1,0,0,0,.2.8l.5.6.7.3,1.6.2H50.5a3.8,3.8,0,0,0,1.6-.3,1.9,1.9,0,0,0,.9-.5l.3-.4a1.4,1.4,0,0,0,.2-.7,2.9,2.9,0,0,0-.2-.9,6.1,6.1,0,0,0-.5-1.2L31.2,6.2a4.9,4.9,0,0,0-1-1.3,1.4,1.4,0,0,0-.9-.5h-.4"/><path class="cls-1" d="M56.5,43.8a7.7,7.7,0,0,0-.8-1.9L34.1,4.5a8.4,8.4,0,0,0-2.3-2.6,3.7,3.7,0,0,0-1.4-.7,3.9,3.9,0,0,0-3,0,4.5,4.5,0,0,0-2.1,1.2,7.4,7.4,0,0,0-1.7,2.1L2,41.9a15.4,15.4,0,0,0-.8,1.9,6.3,6.3,0,0,0-.3,1.9,5,5,0,0,0,.5,2.1,4.2,4.2,0,0,0,.9,1.4,5.4,5.4,0,0,0,2.2,1.3,7.9,7.9,0,0,0,2.8.4H50.5a10.1,10.1,0,0,0,2.5-.3,6.9,6.9,0,0,0,1.5-.7,4.8,4.8,0,0,0,1.7-1.8,5,5,0,0,0,.6-2.4,6.3,6.3,0,0,0-.3-1.9m-2.7,2.9-.4.5a2.3,2.3,0,0,1-1.1.7l-1.8.2H7.3a4.4,4.4,0,0,1-1.7-.2,1.9,1.9,0,0,1-.9-.4,1.6,1.6,0,0,1-.7-.7,2.3,2.3,0,0,1-.3-1.1,4.3,4.3,0,0,1,.2-1.1,3.8,3.8,0,0,1,.6-1.3L26.1,5.9a4.1,4.1,0,0,1,1.4-1.7l.7-.4h1.3a3.4,3.4,0,0,1,1.1.7,5.7,5.7,0,0,1,1.1,1.4L53.3,43.3l.6,1.3a4.1,4.1,0,0,1,.1,1.1,1.8,1.8,0,0,1-.2,1"/></svg>