<svg id="レイヤー_1" data-name="レイヤー 1" xmlns="http://www.w3.org/2000/svg" viewBox="0 0 51.2 51.2"><defs><style>.cls-1{fill:#4b4b4b;}.cls-2{fill:none;stroke:#fff;stroke-miterlimit:10;stroke-width:5px;}.cls-3{fill:#fff;}</style></defs><path class="cls-1" d="M32,11.4a5.6,5.6,0,1,1-5.6-5.6A5.6,5.6,0,0,1,32,11.4"/><path class="cls-1" d="M26.4,18.6c-3.9,0-13.1.4-13.1,8V44.9a2.2,2.2,0,0,0,2,2.2,2.2,2.2,0,0,0,2.3-2l1-11.1L19,48.3l7.4,1.6,7.5-1.6L34.3,34l1,11.1a2.1,2.1,0,0,0,2.2,2,2.3,2.3,0,0,0,2.1-2.2V26.6c0-7.6-9.2-8-13.2-8"/><circle class="cls-2" cx="25.6" cy="25.6" r="21.2"/><path class="cls-3" d="M26.8,30.8c.2,0,6-4.2,7.2-6.5s1.4-6.4,1.3-7.7V15.4s-.7,7.4-3,6,.3-3.4.3-3.4-1.3,1.8-2.4,3.6a19.4,19.4,0,0,0-1.8,3.8s1.9-2.6,3.3-1-4.8,6.4-4.8,6.4"/><path class="cls-3" d="M34.7,25.4A28.6,28.6,0,0,1,32,28.5a13.1,13.1,0,0,0-2.8,4.2,70.4,70.4,0,0,0-2.4,8.8S30.2,31.4,33,31.3s1.6,1.5.9,3.3l-1.7,3.7a39.6,39.6,0,0,0,3.1-4.2c1.5-2.5,1.8-5,1.8-8.3a28.2,28.2,0,0,0-1-7s0,4.7-1.4,6.6"/><path class="cls-3" d="M18.3,23.8c-.1,0-4.2,3-5,4.5a15.1,15.1,0,0,0-.9,5.4v.9s.5-5.2,2.2-4.2-.2,2.4-.2,2.4.9-1.3,1.6-2.5a16.4,16.4,0,0,0,1.3-2.7s-1.4,1.8-2.3.7,3.3-4.5,3.3-4.5"/><rect class="cls-3" x="23.2" y="2" width="4.8" height="47.25" transform="translate(-10.6 25.6) rotate(-45)"/><path class="cls-1" d="M43.7,7.5a25.6,25.6,0,1,0,7.5,18.1A25.5,25.5,0,0,0,43.7,7.5M25.6,46.9a20.8,20.8,0,0,1-15-6.3,20.8,20.8,0,0,1-6.3-15A21.5,21.5,0,0,1,9.7,11.5L39.6,41.6a20.9,20.9,0,0,1-14,5.3m15.9-7.2L11.6,9.6a21.1,21.1,0,0,1,29,1,20.8,20.8,0,0,1,6.3,15,21.5,21.5,0,0,1-5.4,14.1"/></svg>