<svg id="レイヤー_1" data-name="レイヤー 1" xmlns="http://www.w3.org/2000/svg" viewBox="0 0 94.3 78"><defs><style>.cls-1{fill:#4b4b4b;}</style></defs><path class="cls-1" d="M47.2,28.4a16,16,0,0,0-11.4,4.7,16.4,16.4,0,0,0-4.7,11.5A16,16,0,0,0,35.8,56a15.8,15.8,0,0,0,22.7,0,16,16,0,0,0,4.7-11.4,16.4,16.4,0,0,0-4.7-11.5,16,16,0,0,0-11.3-4.7m0,26.2a10,10,0,1,1,9.8-10,9.9,9.9,0,0,1-9.8,10"/><path class="cls-1" d="M91.5,16.8A9.6,9.6,0,0,0,84.7,14H74.3a2.3,2.3,0,0,1-2-1.3l-3.1-7A9.4,9.4,0,0,0,60.5,0H33.8a9.4,9.4,0,0,0-8.7,5.7l-3.1,7A2.3,2.3,0,0,1,20,14H9.6a9.8,9.8,0,0,0-6.8,2.8A9.8,9.8,0,0,0,0,23.6V68.3a9.6,9.6,0,0,0,2.8,6.8A9.4,9.4,0,0,0,9.6,78H84.7a9.3,9.3,0,0,0,6.8-2.9,9.6,9.6,0,0,0,2.8-6.8V23.6a9.8,9.8,0,0,0-2.8-6.8m-29,43.3a21.6,21.6,0,0,1-15.3,6.4,21.9,21.9,0,0,1-15.4-6.4,22,22,0,0,1,0-31,21.4,21.4,0,0,1,15.4-6.4,21.2,21.2,0,0,1,15.3,6.4,22,22,0,0,1,0,31M85.1,31.4H78.5V24.8h6.6Z"/></svg>