<svg id="レイヤー_1" data-name="レイヤー 1" xmlns="http://www.w3.org/2000/svg" viewBox="0 0 125.8 125.8"><defs><style>.cls-1{fill:#4b4b4b;}.cls-2{fill:#3d3a39;}</style></defs><path class="cls-1" d="M48.6,72.2c3,.3,5.5,2.5,6.8,5.6,1.4-3.4,4.2-5.7,7.5-5.7a6.8,6.8,0,0,1,3.2.7L48.6,26.5V22.4H46.7v4.1L29.5,72.9a8.8,8.8,0,0,1,3.2-.7c3.3,0,6.2,2.3,7.6,5.7A8.4,8.4,0,0,1,47,72.2"/><path class="cls-1" d="M40.3,79.2,39.8,78c-1.4-3.3-4.1-5.3-7.1-5.3h0a6.6,6.6,0,0,0-3,.7l-1.1.6L46.2,26.4V21.9h2.9v4.5L67,73.8l-1.1-.5a6.3,6.3,0,0,0-3-.7h0c-3,0-5.7,2.1-7.1,5.4l-.4,1.1L54.9,78a8,8,0,0,0-6.3-5.3v-1a8.8,8.8,0,0,1,6.7,4.9,8.6,8.6,0,0,1,7.5-5h0a8.5,8.5,0,0,1,2.3.3L48.1,26.6V22.9h-.9v3.7h0L30.4,72a8.5,8.5,0,0,1,2.3-.3h0c3.1,0,5.9,1.9,7.6,5a8.7,8.7,0,0,1,6.6-5l.2,1C44.3,73,42,75,40.7,78Z"/><line class="cls-1" x1="47.8" y1="64.4" x2="47.8" y2="103.4"/><rect class="cls-1" x="44.8" y="64.4" width="6" height="38.96"/><path class="cls-1" d="M62.9,125.8a62.9,62.9,0,1,1,62.9-62.9,62.9,62.9,0,0,1-62.9,62.9m0-115A52.1,52.1,0,1,0,115,62.9,52.2,52.2,0,0,0,62.9,10.8"/><path class="cls-1" d="M71.4,79.2l-.3-3.9c.1,0,5.9-.5,9.9-3a14.3,14.3,0,0,0,3.1-2.6,10.1,10.1,0,0,1-6.3-2.5,7.4,7.4,0,0,1-2.7-6.8,8.5,8.5,0,0,1,6.1-6.3A8.3,8.3,0,0,1,90,56.7a7.6,7.6,0,0,1,1.9,5.8,50.4,50.4,0,0,0,8.1-9.2l3.3,2.2c-.3.5-7,10.3-13.5,13.2a20.5,20.5,0,0,1-6.7,7c-4.9,3-11.4,3.5-11.7,3.5M83.5,57.7l-1.2.2a4.6,4.6,0,0,0-3.2,3.3,3.3,3.3,0,0,0,1.3,3A7.5,7.5,0,0,0,87,65.5a8.3,8.3,0,0,0,.9-2.8,3.8,3.8,0,0,0-.9-3.3,4.8,4.8,0,0,0-3.5-1.7"/><path class="cls-2" d="M67.3,95.6v-4s5.3-.2,13.9-5.2S92.5,77,92.5,77l3.4,2c-.1.2-3.2,5.3-12.8,10.9s-15.6,5.7-15.8,5.7"/></svg>