<svg id="レイヤー_1" data-name="レイヤー 1" xmlns="http://www.w3.org/2000/svg" viewBox="0 0 50.3 50.3"><defs><style>.cls-1{fill:#4b4b4b;}.cls-2{fill:#fff;}</style></defs><path class="cls-1" d="M29.1,16.2a1,1,0,0,1,0,2,1,1,0,0,1,0-2"/><path class="cls-1" d="M29.1,20.4a1.1,1.1,0,0,1,1,1,1,1,0,0,1-1,1,.9.9,0,0,1-1-1,1,1,0,0,1,1-1"/><path class="cls-1" d="M29.1,24.6a1.1,1.1,0,0,1,1,1,1,1,0,0,1-1,1,.9.9,0,0,1-1-1,1,1,0,0,1,1-1"/><path class="cls-1" d="M31.8,15.6a.9.9,0,0,1,1.3.4,1,1,0,0,1-.3,1.3,1.1,1.1,0,0,1-1.4-.3,1,1,0,0,1,.4-1.4"/><path class="cls-1" d="M33.9,19.2a1,1,0,0,1,1.3.4.9.9,0,0,1-.3,1.3,1.1,1.1,0,0,1-1.4-.3,1.1,1.1,0,0,1,.4-1.4"/><path class="cls-1" d="M36,22.9a1,1,0,0,1,1.4.3,1,1,0,0,1-.4,1.3.9.9,0,0,1-1.3-.3.9.9,0,0,1,.3-1.3"/><path class="cls-1" d="M34.1,15.1a1.1,1.1,0,0,1-.3-1.4,1,1,0,0,1,1.3-.4,1.1,1.1,0,0,1,.4,1.4,1.2,1.2,0,0,1-1.4.4"/><path class="cls-1" d="M37.4,15.8a1,1,0,0,1,1.4-.4,1.1,1.1,0,0,1,.4,1.3,1,1,0,0,1-1.8-.9"/><path class="cls-1" d="M42.4,17.4a1,1,0,0,1,.4,1.4.9.9,0,0,1-1.3.3.9.9,0,0,1-.4-1.3,1,1,0,0,1,1.3-.4"/><path class="cls-1" d="M21.1,19.4H12c-1.4,0-2.5,4.1-2.5,5.5v18A2.5,2.5,0,0,0,12,45.4h9.1a2.5,2.5,0,0,0,2.5-2.5v-18c0-1.4-1.1-5.5-2.5-5.5"/><rect class="cls-1" x="11.8" y="15.5" width="9.2" height="2.59"/><path class="cls-1" d="M19.7,14.2H13.1a1.3,1.3,0,0,0-1.3,1.3h0a1.3,1.3,0,0,0,1.3,1.3h6.6A1.3,1.3,0,0,0,21,15.6h0a1.3,1.3,0,0,0-1.3-1.3"/><rect class="cls-1" x="15.3" y="10" width="2.8" height="5.12"/><rect class="cls-1" x="12.8" y="7.3" width="7.7" height="3.1"/><path class="cls-1" d="M18.9,5.6H14.4a1.6,1.6,0,0,0-1.6,1.6h0a1.6,1.6,0,0,0,1.6,1.6h4.5a1.6,1.6,0,0,0,1.6-1.6h0a1.6,1.6,0,0,0-1.6-1.6"/><path class="cls-1" d="M27.5,9.1H19.9a.9.9,0,0,1-.9-.9h0a.9.9,0,0,1,.9-1h7.6a.9.9,0,0,1,1,1h0a.9.9,0,0,1-1,.9"/><path class="cls-1" d="M28.4,11.3,26.9,8.6a.9.9,0,0,1,.3-1.3h.1a1,1,0,0,1,1.4.4l1.5,2.7a.9.9,0,0,1-.4,1.3h0a1,1,0,0,1-1.4-.3"/><rect class="cls-2" x="12.8" y="26.6" width="7.7" height="5.83"/><path class="cls-1" d="M44.5,50.3H5.8A5.8,5.8,0,0,1,0,44.5V5.8A5.8,5.8,0,0,1,5.8,0H44.5a5.8,5.8,0,0,1,5.8,5.8V44.5a5.8,5.8,0,0,1-5.8,5.8M5.8,3.2A2.6,2.6,0,0,0,3.2,5.8V44.5a2.6,2.6,0,0,0,2.6,2.6H44.5a2.6,2.6,0,0,0,2.6-2.6V5.8a2.6,2.6,0,0,0-2.6-2.6Z"/></svg>