<svg xmlns="http://www.w3.org/2000/svg" viewBox="0 0 25.08 27.59"><defs><style>.cls-1{fill:#fff;}</style></defs><title>ic_rsv</title><g id="レイヤー_2" data-name="レイヤー 2"><g id="素材_オブジェクト" data-name="素材・オブジェクト"><path class="cls-1" d="M21.16,5.94v-.3a1,1,0,0,0-1-1h-.7a3.29,3.29,0,0,1-1.84-.68L13.33.28a1.26,1.26,0,0,0-1.58,0L7.5,3.92a3.32,3.32,0,0,1-1.84.68H5a1,1,0,0,0-1,1v.3a2.6,2.6,0,0,1-.8,1.73l-2.33,2A2.63,2.63,0,0,0,0,11.39V26.54a1,1,0,0,0,1,1.05H24a1,1,0,0,0,1-1.05V11.39a2.63,2.63,0,0,0-.79-1.73L22,7.67A2.63,2.63,0,0,1,21.16,5.94ZM6.72,19.75,2.31,24.17c-.41.41-.74.27-.74-.3V14.16c0-.57.33-.71.74-.3l4.41,4.42A1,1,0,0,1,6.72,19.75Zm3.27,0h5a2.9,2.9,0,0,1,1.79.74l4.83,4.79c.41.41.27.74-.31.74H3.72c-.58,0-.71-.33-.31-.74l4.8-4.79A2.85,2.85,0,0,1,10,19.75Zm13.52-5.59v9.71c0,.58-.33.71-.74.31l-4.46-4.43a1,1,0,0,1,0-1.47l4.46-4.43C23.18,13.44,23.51,13.58,23.51,14.16Zm-.83-2.43-.78.77c-.41.41-.74.27-.74-.31V10.13c0-.58.36-.74.8-.37l.66.56A.93.93,0,0,1,22.68,11.73ZM13.34,2.49,15,3.92c.44.38.33.68-.25.68h-4.5c-.58,0-.69-.3-.25-.68l1.7-1.43A1.29,1.29,0,0,1,13.34,2.49Zm6.25,4.72v6.54a2.85,2.85,0,0,1-.74,1.78l-1.92,1.92a3,3,0,0,1-1.79.73H9.89a2.85,2.85,0,0,1-1.78-.74L6.22,15.56a2.94,2.94,0,0,1-.73-1.78V7.21a1,1,0,0,1,1-1h12A1,1,0,0,1,19.59,7.21ZM3.18,12.52l-.79-.79a1,1,0,0,1,.06-1.41l.67-.56c.44-.37.8-.21.8.37v2.08C3.92,12.79,3.59,12.92,3.18,12.52Z"/><path class="cls-1" d="M15.67,7.73H9.93c-.58,0-1,.35-1,.79s.47.78,1,.78h5.74c.58,0,1-.35,1-.78S16.25,7.73,15.67,7.73Z"/><path class="cls-1" d="M15.67,10.87H9.93c-.58,0-1,.35-1,.78s.47.78,1,.78h5.74c.58,0,1-.35,1-.78S16.25,10.87,15.67,10.87Z"/><path class="cls-1" d="M11,14h-1c-.58,0-1,.35-1,.79s.47.78,1,.78h1c.58,0,1-.35,1-.78S11.55,14,11,14Z"/></g></g></svg>