<svg xmlns="http://www.w3.org/2000/svg" xmlns:xlink="http://www.w3.org/1999/xlink" viewBox="0 0 28.81 26.9"><defs><style>.cls-1{filter:url(#luminosity-noclip);}.cls-2{mask:url(#mask);}.cls-3{fill:#fff;}</style><filter id="luminosity-noclip" x="0" y="-1.75" width="28.81" height="28.66" filterUnits="userSpaceOnUse" color-interpolation-filters="sRGB"><feFlood flood-color="#fff" result="bg"/><feBlend in="SourceGraphic" in2="bg"/></filter><mask id="mask" x="0" y="-1.75" width="28.81" height="28.66" maskUnits="userSpaceOnUse"><path class="cls-1" d="M14.41,19.13c-.56,0-2,0-5.16-5-1.12-1.79-3-5.18-3-7.75a8.16,8.16,0,0,1,16.31,0c0,2.58-1.87,6-3,7.74C16.45,19.13,14.91,19.13,14.41,19.13Z"/></mask></defs><title>ic_map</title><g id="レイヤー_2" data-name="レイヤー 2"><g id="素材_オブジェクト" data-name="素材・オブジェクト"><g class="cls-2"><path class="cls-3" d="M7.43,21.4,4.2,26.9H1a.84.84,0,0,1-.89-1.16l2.09-5.86Z"/><polygon class="cls-3" points="7.08 26.9 26.45 26.9 9.61 22.03 7.08 26.9"/><polygon class="cls-3" points="28.81 25.22 27.27 20.89 22.55 19.72 21.76 23.29 28.81 25.22"/><path class="cls-3" d="M21.85,13.79H5.21a1.18,1.18,0,0,0-1.09.58L2.78,18.11l16.51,4.51Z"/><path class="cls-3" d="M25,14.37a1.21,1.21,0,0,0-1.1-.58l-1,4.36L26.6,19Z"/></g><path class="cls-3" d="M14.41,0A6.39,6.39,0,0,1,20.8,6.4c0,3.53-5.12,11-6.39,11S8,9.93,8,6.4A6.39,6.39,0,0,1,14.41,0Zm0,10.73A4.34,4.34,0,1,0,10.07,6.4,4.33,4.33,0,0,0,14.41,10.73Z"/></g></g></svg>