<svg xmlns="http://www.w3.org/2000/svg" viewBox="0 0 24.85 26.37"><defs><style>.cls-1,.cls-2{fill:#fff;}.cls-1{fill-rule:evenodd;}</style></defs><title>ic_tel</title><g id="レイヤー_2" data-name="レイヤー 2"><g id="素材_オブジェクト" data-name="素材・オブジェクト"><path class="cls-1" d="M4.57,17.89C.17,11.6-1.16,5.55,1.05,3.89A7.8,7.8,0,0,1,2.67,2.78l4.23,6c-1.43,1.27-1.15,4.3.7,6.94s4.6,4,6.29,3l4.22,6A9.74,9.74,0,0,1,16.52,26C14.2,27.56,9,24.18,4.57,17.89ZM18.62,24,14.55,18.2a.75.75,0,0,1,.18-1l2-1.41a.74.74,0,0,1,1,.18l4.07,5.81a.75.75,0,0,1-.18,1l-2,1.41a.73.73,0,0,1-1-.18ZM7.68,8.39,3.61,2.58a.75.75,0,0,1,.18-1l2-1.42a.75.75,0,0,1,1,.18l4.07,5.82a.75.75,0,0,1-.18,1l-2,1.41a.75.75,0,0,1-1-.18Z"/><path class="cls-2" d="M15.27,5.05a1.16,1.16,0,1,0,.34,2.3,1.52,1.52,0,0,1,.64.05,2.23,2.23,0,0,1,1.09.81A3.45,3.45,0,0,1,18,9.8a3.39,3.39,0,0,1-.1,1.48,1.16,1.16,0,0,0,2.23.66,5.71,5.71,0,0,0,.17-2.49,5.8,5.8,0,0,0-1.12-2.64,4.62,4.62,0,0,0-2.28-1.64,3.92,3.92,0,0,0-1.64-.12Z"/><path class="cls-2" d="M14.63.74A1.16,1.16,0,1,0,15,3a5.73,5.73,0,0,1,3.55.48,6.91,6.91,0,0,1,2.48,2.12A8,8,0,0,1,22.41,8.8a7.47,7.47,0,0,1-.63,4.63,1.16,1.16,0,1,0,2.09,1,9.81,9.81,0,0,0,.82-6A10.22,10.22,0,0,0,23,4.27,9.14,9.14,0,0,0,19.6,1.41a8.07,8.07,0,0,0-5-.67Z"/></g></g></svg>