<?xml version="1.0" encoding="utf-8"?>
<!-- Generator: Adobe Illustrator 23.1.1, SVG Export Plug-In . SVG Version: 6.00 Build 0)  -->
<svg version="1.1" xmlns="http://www.w3.org/2000/svg" xmlns:xlink="http://www.w3.org/1999/xlink" x="0px" y="0px"
	 viewBox="0 0 190 70" style="enable-background:new 0 0 190 70;" xml:space="preserve">
<style type="text/css">
	.st0{fill:#FF5200;}
	.st1{fill:#FFFFFF;}
</style>
<g id="text_x2F_object">
</g>
<g id="header_x2F_footer">
	<rect class="st0" width="190" height="70"/>
	<g>
		<path class="st1" d="M45.3,26.5h18.5v17.4h-3.3v-1.6H48.6v1.6h-3.3V26.5z M60.5,39.5V29.3H48.6v10.2H60.5z"/>
		<path class="st1" d="M76.3,25l3.1,0.2c-0.1,1-0.3,1.9-0.5,2.7h8.2c-0.6-1.2-1.2-2.3-1.8-3.4l2.3-1.2c0.7,1.3,1.3,2.5,1.9,3.6
			l-1.9,0.9h1.4v2.8c-0.5,4.4-2,7.7-4.5,9.9s-6.2,3.7-11.3,4.3L72.6,42c4.2-0.5,7.3-1.6,9.3-3.4s3.3-4.5,3.7-8h-7.7
			c-1,2.2-2.6,4.4-4.7,6.4l-2.2-1.9C74,32.2,75.8,28.8,76.3,25z M93.3,26.7l-2.4,1.1c-0.9-1.7-1.5-2.9-1.9-3.6l2.4-1.2
			C92.1,24.3,92.8,25.6,93.3,26.7z"/>
		<path class="st1" d="M98.6,34.7c3.3-0.7,6.5-1.9,9.5-3.5c3-1.6,5.6-3.6,7.8-5.9l2.3,2.2c-1.9,2-4.2,3.9-6.9,5.5v11.5h-3.4v-9.8
			c-2.9,1.4-5.7,2.3-8.6,2.9L98.6,34.7z"/>
		<path class="st1" d="M126.5,28.3l1.7-2.6c2.4,1.4,4.7,2.8,6.9,4.4l-1.8,2.6C131.1,31.2,128.8,29.7,126.5,28.3z M127,41.1
			c4.5-0.4,8-1.7,10.4-3.7c2.5-2.1,4.2-5.1,5.2-9.2l3,0.8c-1,4.6-3,8.2-6,10.7c-3,2.5-7.1,4-12.2,4.4L127,41.1z"/>
	</g>
</g>
</svg>
