<?xml version="1.0" encoding="utf-8"?>
<!-- Generator: Adobe Illustrator 23.1.1, SVG Export Plug-In . SVG Version: 6.00 Build 0)  -->
<svg version="1.1" xmlns="http://www.w3.org/2000/svg" xmlns:xlink="http://www.w3.org/1999/xlink" x="0px" y="0px"
	 viewBox="0 0 190 70" style="enable-background:new 0 0 190 70;" xml:space="preserve">
<style type="text/css">
	.st0{fill:#FFFFFF;}
	.st1{fill:#FF5200;}
</style>
<g id="text_x2F_object">
</g>
<g id="header_x2F_footer">
	<g>
		<rect x="2.7" y="2.7" class="st0" width="184.7" height="64.7"/>
		<path class="st1" d="M184.7,5.3v59.4H5.3V5.3H184.7 M190,0H0v70h190V0L190,0z"/>
	</g>
	<g>
		<path class="st1" d="M42,31.1h2.7v2.7H42V37h2.2v2.5H23V37h2.2v-3.2h-2.7v-2.7h2.7v-0.4l-2.5-1.5c1.7-1.8,3.2-3.8,4.5-5.9l3.2,0.7
			c-0.3,0.6-0.6,1.1-0.9,1.6h14.2v2.5H42V31.1z M22.6,44.5c1.2-1.6,2.3-3.2,3.2-4.8l2.6,1.3c-0.9,1.7-2,3.4-3.3,5L22.6,44.5z
			 M28.3,28.1v3h1.5v-3H28.3z M29.8,33.8h-1.5V37h1.5V33.8z M30,46c-0.2-1.5-0.4-3.3-0.8-5.3l3-0.4c0.4,1.9,0.6,3.7,0.8,5.3L30,46z
			 M32.8,31.1h1.6v-3h-1.6V31.1z M32.8,33.8V37h1.6v-3.2H32.8z M35.8,45.9c-0.4-1.3-1-3-1.8-5.2l2.9-0.7c0.8,2.1,1.4,3.8,1.8,5.2
			L35.8,45.9z M37.3,31.1h1.5v-3h-1.5V31.1z M37.3,33.8V37h1.5v-3.2H37.3z M42,45.9c-1-1.7-2.1-3.4-3.2-4.9l2.5-1.4
			c1.2,1.7,2.3,3.3,3.2,5L42,45.9z"/>
		<path class="st1" d="M46.7,25.8l2.3-0.8c0.5,1.4,0.9,2.9,1.3,4.6v-5.5h2.8v5.4c0.6-1.7,1-3.2,1.2-4.6l2.4,0.5
			c-0.5,2.1-1,4-1.7,5.8l-2-0.7v1.2H56v2.5h-2c0.8,1.6,1.6,3.2,2.4,4.9l-1.9,1.7c-0.3-0.8-0.8-1.8-1.4-3.2v8.2h-2.9v-7.1
			c-0.7,1.9-1.5,3.4-2.5,4.7l-1.3-3c1.5-2,2.6-4,3.3-6.1H47v-2.5h3.3v-1.2l-2,0.7C47.7,29.1,47.2,27.3,46.7,25.8z M64.3,41.1
			L56,42.8l-0.3-2.7l8.6-1.8V24.1h3.1v13.5l2-0.4l0.2,2.7l-2.3,0.5v5.4h-3.1V41.1z M61.1,37.7c-1.5-1.6-3.1-3.3-4.8-4.9l2.1-2
			c1.7,1.6,3.3,3.2,4.8,4.8L61.1,37.7z M61.8,31.6c-1.3-1.4-2.7-2.9-4.3-4.4l2.1-2c1.5,1.3,2.9,2.8,4.3,4.3L61.8,31.6z"/>
		<path class="st1" d="M89.4,31.5v1.7H75.8v-1.7c-1.2,0.7-2.3,1.4-3.5,2l-1.2-2.6c3.6-1.9,6.8-4.2,9.5-6.7h4.1
			c2.7,2.6,5.9,4.8,9.5,6.7l-1.2,2.6C91.7,32.9,90.6,32.2,89.4,31.5z M89.6,38.1c1.5,2.7,2.7,5.1,3.6,7l-2.8,1.1
			c-0.1-0.2-0.3-0.6-0.5-1.1c-0.2-0.5-0.4-0.8-0.5-1.1c-5.4,0.7-10.8,1.1-16.2,1.3l-0.1-2.6c1.5-0.1,2.6-0.1,3.4-0.2
			c0.9-1.7,1.7-3.2,2.3-4.6h-6.3v-2.6h20.6v2.6h-11c-0.6,1.5-1.3,3-2.1,4.4c2.9-0.2,5.6-0.5,8.2-0.8c-0.4-0.8-0.8-1.6-1.2-2.3
			L89.6,38.1z M88.1,30.7c-1.9-1.3-3.8-2.8-5.5-4.5c-1.8,1.7-3.6,3.2-5.5,4.5H88.1z"/>
		<path class="st1" d="M100.9,41.8h-3.2V30.7h18.9v11.1h-3.8c2.1,0.7,3.9,1.4,5.5,2.1l-1.4,2.3c-2.1-1-4.7-2-7.8-3l0.7-1.4h-5.1
			l0.6,1.2c-2,1.2-4.6,2.3-8,3.1L96,43.6c2.2-0.5,4.1-1.1,5.8-1.8H100.9z M101.8,29.9h-3.2v-5.4h17v5.4H101.8z M100.9,34h12.4v-1.1
			h-12.4V34z M100.9,35.8v1.1h12.4v-1.1H100.9z M100.9,38.7v1.1h12.4v-1.1H100.9z M101.8,28h10.6v-1.2h-10.6V28z"/>
		<path class="st1" d="M124,27v-2.5h9.1c0.5,0.8,1,1.7,1.6,2.4c0.8-0.9,1.4-1.7,2-2.6l2.3,1.4c-0.7,1-1.5,2-2.5,3.1
			c0.4,0.4,0.9,0.8,1.4,1.2c0.9-1.1,1.7-2.1,2.3-2.9l2.3,1.4c-0.7,1.1-1.5,2.1-2.4,3c0.8,0.5,1.7,1,2.8,1.6l-1.2,2.7
			c-0.7-0.4-1.5-0.8-2.3-1.3v6.2h-1.8c-0.2,0.6-0.6,1.3-1.1,2.2h5.9v2.6h-21.6v-2.6h5.6c-0.3-0.9-0.6-1.6-0.8-2.2h-1.8v-6.2
			c-0.8,0.5-1.6,1-2.3,1.3l-1.2-2.7c1.5-0.8,2.7-1.4,3.6-2c-1.2-1.2-2.2-2-2.8-2.6l2.1-2c1.1,1,2.2,2,3.1,2.9
			c0.9-0.7,1.7-1.6,2.5-2.5H124z M123.8,34.5h15.6c-1.3-0.8-2.4-1.6-3.5-2.5v1.3h-8.6v-1.3C126.2,32.8,125,33.7,123.8,34.5z
			 M126.9,38.5h9.3v-1.8h-9.3V38.5z M131.6,27.3c-0.8,1.2-1.8,2.3-3,3.5h6C133.4,29.6,132.4,28.4,131.6,27.3z M133.1,42.9
			c0.3-0.5,0.7-1.2,1.2-2.2h-5.4c0.4,1,0.6,1.7,0.8,2.2H133.1z"/>
		<path class="st1" d="M165.7,24.6v7.6h1.5v2.6H162c0.4,0.9,0.8,1.8,1.2,2.7c0.7-0.6,1.5-1.4,2.4-2.4l1.7,1.8c-0.8,1-1.7,2-2.7,2.8
			c0.9,1.3,2,2.5,3.1,3.4l-1.9,2.4c-1.5-1.4-2.8-3.3-3.9-5.6v1.9c0,0.7,0,1.2,0,1.6c0,0.4-0.1,0.7-0.2,1.1c-0.1,0.3-0.2,0.6-0.3,0.7
			c-0.1,0.2-0.3,0.3-0.6,0.4c-0.3,0.1-0.6,0.2-0.9,0.2c-0.3,0-0.8,0-1.3,0c-0.3,0-1.1,0-2.4-0.1l-0.1-2.1c-0.8,0.7-1.7,1.3-2.5,1.9
			l-1.2-1.7c-2.5,0.7-4.8,1.3-6.9,1.7l-0.3-2.5c1.1-0.2,2.3-0.5,3.7-0.8v-6.3h-3.3v-2.5h3.3v-2h-1.9v-0.8c-0.5,0.5-1,0.9-1.5,1.3
			l-0.6-3.1c1.5-1.1,2.8-2.6,4.1-4.4h2.9c1.3,1.5,2.5,2.6,3.8,3.4l-1.4,2.2v1.4h-2.5v2h2.6v-1h8.3v-1.3h-7.3v-2.3h7.3v-1.3H155v-2.6
			H165.7z M145.4,37l2-0.5c0.3,1.3,0.7,2.8,0.9,4.4l-2,0.4C146,39.9,145.7,38.5,145.4,37z M152.6,28.8c-0.8-0.7-1.5-1.5-2.3-2.5
			c-0.6,0.8-1.2,1.7-1.9,2.5H152.6z M151.8,40.1c0.3-1.3,0.6-2.6,0.8-3.7l1.3,0.2l2-1.5c1,1.1,1.8,2.1,2.5,3.1l0.5-0.5v-2.8h-4.5v1
			h-2.8v5.6c1.6-0.5,2.7-0.8,3.1-0.9l0.1,0.8c0.4-0.3,1-0.8,1.7-1.4c-0.7-1-1.4-1.8-2-2.5c-0.1,0.8-0.4,1.8-0.7,3.2L151.8,40.1z
			 M158.9,41c-0.6,0.7-1.4,1.4-2.4,2.2c0.7,0,1.2,0.1,1.6,0.1c0.4,0,0.6-0.1,0.7-0.2c0.1-0.1,0.1-0.5,0.1-1.1V41z"/>
	</g>
</g>
</svg>
