<svg xmlns="http://www.w3.org/2000/svg" viewBox="0 0 223.73 30.18"><defs><style>.cls-1{fill:#dcaf00;}</style></defs><title>st_company</title><g id="レイヤー_2" data-name="レイヤー 2"><g id="text_object" data-name="text/object"><path class="cls-1" d="M28.09,6.05,25.82,7.79a12.47,12.47,0,0,0-4.5-3.7,13.18,13.18,0,0,0-5.77-1.26A12.74,12.74,0,0,0,9.18,4.48,11.82,11.82,0,0,0,4.64,8.92,12.19,12.19,0,0,0,3,15.18,11.77,11.77,0,0,0,6.63,24a12.49,12.49,0,0,0,9.09,3.51,12.76,12.76,0,0,0,10.1-4.73l2.27,1.72a14.38,14.38,0,0,1-5.37,4.23,16.73,16.73,0,0,1-7.17,1.5q-7.55,0-11.9-5A15.19,15.19,0,0,1,0,14.92,14.22,14.22,0,0,1,4.42,4.31,15.27,15.27,0,0,1,15.51,0a16.26,16.26,0,0,1,7.26,1.59A14.15,14.15,0,0,1,28.09,6.05Z"/><path class="cls-1" d="M50,0A14.87,14.87,0,0,1,60.94,4.36a14.49,14.49,0,0,1,4.4,10.72A14.56,14.56,0,0,1,61,25.78a14.54,14.54,0,0,1-10.7,4.4A14.7,14.7,0,0,1,39.46,25.8a14.38,14.38,0,0,1-4.39-10.59,15.25,15.25,0,0,1,2-7.67A14.53,14.53,0,0,1,42.53,2,14.74,14.74,0,0,1,50,0Zm.12,2.79a11.9,11.9,0,0,0-6,1.66,12,12,0,0,0-4.46,4.48A12.46,12.46,0,0,0,38,15.21a11.69,11.69,0,0,0,3.55,8.64,11.64,11.64,0,0,0,8.55,3.53,12.34,12.34,0,0,0,6.2-1.62,11.69,11.69,0,0,0,4.44-4.44,12.47,12.47,0,0,0,1.59-6.25,12.22,12.22,0,0,0-1.59-6.19,12,12,0,0,0-4.49-4.43A12.24,12.24,0,0,0,50.14,2.79Z"/><path class="cls-1" d="M73,29.45,77.13.72h.47L89.28,24.3,100.85.72h.46l4.13,28.73h-2.81L99.79,8.91,89.63,29.45H88.9L78.62,8.75l-2.83,20.7Z"/><path class="cls-1" d="M114.91.72h5.72a33.53,33.53,0,0,1,6.65.43,7.43,7.43,0,0,1,4,2.49,7.2,7.2,0,0,1,1.56,4.74,7.3,7.3,0,0,1-1.52,4.74,7.55,7.55,0,0,1-4.2,2.51,37.57,37.57,0,0,1-7.31.46h-2V29.45h-2.87Zm2.87,2.82v9.74l4.87.06A12.61,12.61,0,0,0,127,12.8a4.38,4.38,0,0,0,2.15-1.73,4.8,4.8,0,0,0,.78-2.68,4.75,4.75,0,0,0-.78-2.64A4.34,4.34,0,0,0,127.05,4a12.37,12.37,0,0,0-4.19-.5Z"/><path class="cls-1" d="M150.27.72l13.39,28.73h-3.1L156,20H143.67l-4.48,9.45H136L149.56.72Zm-.37,6.11L145,17.23h9.82Z"/><path class="cls-1" d="M171.74,29.45V.72h.62l19.12,22V.72h2.83V29.45h-.64l-19-21.75V29.45Z"/><path class="cls-1" d="M202.52.72h3.3l7.35,11.85L220.41.72h3.32l-9.1,15V29.45h-2.84V15.72Z"/></g></g></svg>