<svg xmlns="http://www.w3.org/2000/svg" viewBox="0 0 253.94 38.47"><defs><style>.cls-1{fill:#c3af3f;}</style></defs><title>st_facilities</title><g id="レイヤー_2" data-name="レイヤー 2"><g id="テキスト"><path class="cls-1" d="M0,.92H18.35V4.51H3.66V16H18.35v3.58H3.66v18H0Z"/><path class="cls-1" d="M45.23.92,62.32,37.55h-4l-5.76-12H36.82l-5.71,12H27L44.34.92ZM44.77,8.7,38.49,22H51Z"/><path class="cls-1" d="M108.38,7.72l-2.89,2.22a15.65,15.65,0,0,0-5.74-4.72A16.77,16.77,0,0,0,92.4,3.61a16.27,16.27,0,0,0-8.12,2.1,15.15,15.15,0,0,0-5.79,5.66,15.6,15.6,0,0,0-2.06,8A15,15,0,0,0,81,30.53,15.9,15.9,0,0,0,92.62,35a16.3,16.3,0,0,0,12.87-6l2.89,2.19a18.44,18.44,0,0,1-6.83,5.39,21.43,21.43,0,0,1-9.15,1.9q-9.62,0-15.17-6.4a19.32,19.32,0,0,1-4.66-13A18.14,18.14,0,0,1,78.21,5.49,19.45,19.45,0,0,1,92.35,0a20.78,20.78,0,0,1,9.26,2A18,18,0,0,1,108.38,7.72Z"/><path class="cls-1" d="M123.55.92h3.66V37.55h-3.66Z"/><path class="cls-1" d="M145,.92h3.66V34h14.1v3.53H145Z"/><path class="cls-1" d="M176.72.92h3.66V37.55h-3.66Z"/><path class="cls-1" d="M194.15,4.51V.92h20.07V4.51h-8.17v33h-3.74v-33Z"/><path class="cls-1" d="M226.9.92h4.21L240.48,16,249.71.92h4.23l-11.6,19.13v17.5h-3.61V20.05Z"/></g></g></svg>