<svg xmlns="http://www.w3.org/2000/svg" viewBox="0 0 359.58 30.18"><defs><style>.cls-1{fill:#dcaf00;}</style></defs><title>st_privacy</title><g id="レイヤー_2" data-name="レイヤー 2"><g id="text_object" data-name="text/object"><path class="cls-1" d="M0,.72H5.72a33.41,33.41,0,0,1,6.64.43,7.49,7.49,0,0,1,4,2.49A7.2,7.2,0,0,1,18,8.38a7.3,7.3,0,0,1-1.52,4.74,7.55,7.55,0,0,1-4.2,2.51,37.64,37.64,0,0,1-7.31.46h-2V29.45H0ZM2.87,3.54v9.74l4.86.06a12.64,12.64,0,0,0,4.32-.54,4.38,4.38,0,0,0,2.15-1.73A4.8,4.8,0,0,0,15,8.39a4.75,4.75,0,0,0-.78-2.64A4.34,4.34,0,0,0,12.14,4,12.37,12.37,0,0,0,8,3.54Z"/><path class="cls-1" d="M26.7.72h5.72a34.69,34.69,0,0,1,6.48.39,7.33,7.33,0,0,1,4.16,2.52,7.14,7.14,0,0,1,1.6,4.74,7.66,7.66,0,0,1-1.1,4.13,6.86,6.86,0,0,1-3.15,2.68,14.41,14.41,0,0,1-5.67.93L45.07,29.45H41.52L31.19,16.11H29.57V29.45H26.7Zm2.87,2.82V13.3l5,0a12.16,12.16,0,0,0,4.25-.55,4.36,4.36,0,0,0,2.15-1.74,4.86,4.86,0,0,0,.78-2.69,4.62,4.62,0,0,0-.79-2.63,4.33,4.33,0,0,0-2-1.69,12.53,12.53,0,0,0-4.23-.5Z"/><path class="cls-1" d="M54.07.72H57V29.45H54.07Z"/><path class="cls-1" d="M65,.72H68.1l9.52,22.2L87.3.72h3.13L77.93,29.45H77.3Z"/><path class="cls-1" d="M106.92.72l13.4,28.73h-3.1L112.7,20H100.33l-4.48,9.45h-3.2L106.22.72Zm-.36,6.11-4.92,10.4h9.82Z"/><path class="cls-1" d="M153.4,6.05l-2.27,1.74a12.47,12.47,0,0,0-4.5-3.7,13.15,13.15,0,0,0-5.77-1.26,12.76,12.76,0,0,0-6.37,1.65A11.82,11.82,0,0,0,130,8.92a12.29,12.29,0,0,0-1.61,6.26,11.77,11.77,0,0,0,3.6,8.77A12.51,12.51,0,0,0,141,27.46a12.76,12.76,0,0,0,10.1-4.73l2.27,1.72A14.42,14.42,0,0,1,148,28.68a16.81,16.81,0,0,1-7.18,1.5q-7.55,0-11.9-5a15.19,15.19,0,0,1-3.65-10.24,14.23,14.23,0,0,1,4.43-10.61A15.23,15.23,0,0,1,140.82,0a16.26,16.26,0,0,1,7.26,1.59A14.08,14.08,0,0,1,153.4,6.05Z"/><path class="cls-1" d="M159.53.72h3.3l7.35,11.85L177.42.72h3.32l-9.11,15V29.45H168.8V15.72Z"/><path class="cls-1" d="M204.52.72h5.72a33.48,33.48,0,0,1,6.64.43,7.43,7.43,0,0,1,4,2.49,7.15,7.15,0,0,1,1.57,4.74,7.25,7.25,0,0,1-1.53,4.74,7.48,7.48,0,0,1-4.2,2.51,37.45,37.45,0,0,1-7.3.46h-2.05V29.45h-2.87Zm2.87,2.82v9.74l4.86.06a12.64,12.64,0,0,0,4.32-.54,4.38,4.38,0,0,0,2.15-1.73,4.8,4.8,0,0,0,.78-2.68,4.75,4.75,0,0,0-.78-2.64A4.34,4.34,0,0,0,216.66,4a12.41,12.41,0,0,0-4.19-.5Z"/><path class="cls-1" d="M245.12,0A14.87,14.87,0,0,1,256,4.36a14.49,14.49,0,0,1,4.4,10.72,14.6,14.6,0,0,1-4.39,10.7,15.34,15.34,0,0,1-21.49,0,14.39,14.39,0,0,1-4.4-10.59,15.26,15.26,0,0,1,2-7.67A14.53,14.53,0,0,1,237.63,2,14.74,14.74,0,0,1,245.12,0Zm.12,2.79a12.25,12.25,0,0,0-10.5,6.14,12.47,12.47,0,0,0-1.61,6.28,11.73,11.73,0,0,0,3.55,8.64,11.68,11.68,0,0,0,8.56,3.53,12.28,12.28,0,0,0,6.19-1.62,11.55,11.55,0,0,0,4.44-4.44,12.37,12.37,0,0,0,1.6-6.25,12.13,12.13,0,0,0-1.6-6.19,11.94,11.94,0,0,0-4.49-4.43A12.2,12.2,0,0,0,245.24,2.79Z"/><path class="cls-1" d="M270,.72h2.87v26H284v2.77H270Z"/><path class="cls-1" d="M291.87.72h2.87V29.45h-2.87Z"/><path class="cls-1" d="M332.24,6.05,330,7.79a12.47,12.47,0,0,0-4.5-3.7,13.18,13.18,0,0,0-5.77-1.26,12.74,12.74,0,0,0-6.37,1.65,11.82,11.82,0,0,0-4.54,4.44,12.19,12.19,0,0,0-1.61,6.26,11.77,11.77,0,0,0,3.6,8.77,12.49,12.49,0,0,0,9.09,3.51A12.76,12.76,0,0,0,330,22.73l2.27,1.72a14.42,14.42,0,0,1-5.36,4.23,16.81,16.81,0,0,1-7.18,1.5q-7.54,0-11.9-5a15.19,15.19,0,0,1-3.65-10.24,14.26,14.26,0,0,1,4.42-10.61A15.27,15.27,0,0,1,319.66,0a16.26,16.26,0,0,1,7.26,1.59A14.15,14.15,0,0,1,332.24,6.05Z"/><path class="cls-1" d="M338.36.72h3.31L349,12.57,356.25.72h3.33l-9.11,15V29.45h-2.83V15.72Z"/></g></g></svg>