<?xml version="1.0" encoding="utf-8"?>
<!-- Generator: Adobe Illustrator 22.1.0, SVG Export Plug-In . SVG Version: 6.00 Build 0)  -->
<svg version="1.1" id="レイヤー_1" xmlns="http://www.w3.org/2000/svg" xmlns:xlink="http://www.w3.org/1999/xlink" x="0px"
	 y="0px" width="401.9px" height="38.5px" viewBox="0 0 401.9 38.5" style="enable-background:new 0 0 401.9 38.5;"
	 xml:space="preserve">
<style type="text/css">
	.st0{fill:#C3AF3F;}
</style>
<title>st_facilities</title>
<g>
	<path class="st0" d="M0,0.9h7.3c4.1,0,6.8,0.2,8.3,0.5c2.2,0.5,3.9,1.6,5.3,3.2c1.4,1.6,2,3.7,2,6c0,2-0.5,3.7-1.4,5.3
		c-0.9,1.5-2.3,2.7-4,3.4c-1.7,0.8-4.2,1.2-7.2,1.2l13.2,17h-4.5l-13.2-17H3.7v17H0V0.9z M3.7,4.5V17L10,17c2.4,0,4.3-0.2,5.4-0.7
		s2.1-1.2,2.7-2.2c0.7-1,1-2.2,1-3.4c0-1.2-0.3-2.3-1-3.3c-0.7-1-1.5-1.7-2.6-2.2c-1.1-0.4-2.9-0.6-5.4-0.6H3.7z"/>
	<path class="st0" d="M39.1,0.9h21v3.6H42.8V16H60v3.6H42.8V34H60v3.6H39.1V0.9z"/>
	<path class="st0" d="M109.6,7.7l-2.9,2.2c-1.6-2.1-3.5-3.6-5.7-4.7c-2.2-1.1-4.7-1.6-7.4-1.6c-2.9,0-5.6,0.7-8.1,2.1
		C83,7.1,81.1,9,79.7,11.4c-1.4,2.4-2.1,5-2.1,8c0,4.5,1.5,8.2,4.6,11.2c3.1,3,6.9,4.5,11.6,4.5c5.1,0,9.4-2,12.9-6l2.9,2.2
		c-1.8,2.3-4.1,4.1-6.8,5.4c-2.7,1.3-5.8,1.9-9.2,1.9c-6.4,0-11.5-2.1-15.2-6.4c-3.1-3.6-4.7-8-4.7-13c0-5.4,1.9-9.9,5.6-13.5
		C83.2,1.8,87.9,0,93.6,0c3.4,0,6.5,0.7,9.3,2C105.6,3.4,107.8,5.3,109.6,7.7z"/>
	<path class="st0" d="M141.5,0c5.5,0,10.2,1.9,13.9,5.6c3.7,3.7,5.6,8.3,5.6,13.7c0,5.4-1.9,9.9-5.6,13.6s-8.3,5.6-13.6,5.6
		c-5.4,0-10-1.9-13.8-5.6c-3.7-3.7-5.6-8.2-5.6-13.5c0-3.5,0.9-6.8,2.6-9.8s4-5.4,7-7.1C134.9,0.9,138,0,141.5,0z M141.6,3.6
		c-2.7,0-5.3,0.7-7.7,2.1c-2.4,1.4-4.3,3.3-5.7,5.7c-1.4,2.4-2,5.1-2,8c0,4.4,1.5,8,4.5,11c3,3,6.7,4.5,10.9,4.5
		c2.8,0,5.5-0.7,7.9-2.1c2.4-1.4,4.3-3.3,5.7-5.7s2-5.1,2-8c0-2.9-0.7-5.5-2-7.9s-3.3-4.2-5.7-5.6C147,4.3,144.4,3.6,141.6,3.6z"/>
	<path class="st0" d="M174.7,37.6L180,0.9h0.6L195.5,31l14.7-30.1h0.6l5.3,36.6h-3.6l-3.6-26.2l-13,26.2H195l-13.1-26.4l-3.6,26.4
		H174.7z"/>
	<path class="st0" d="M230.2,37.6l5.2-36.6h0.6L250.9,31l14.7-30.1h0.6l5.3,36.6H268l-3.6-26.2l-13,26.2h-0.9l-13.1-26.4l-3.6,26.4
		H230.2z"/>
	<path class="st0" d="M287.6,0.9h21v3.6h-17.3V16h17.2v3.6h-17.2V34h17.2v3.6h-20.8V0.9z"/>
	<path class="st0" d="M324.2,37.6V0.9h0.8L349.4,29V0.9h3.6v36.6h-0.8L328,9.8v27.7H324.2z"/>
	<path class="st0" d="M371,37.6V0.9h7.6c5.5,0,9.5,0.4,11.9,1.3c3.6,1.2,6.3,3.4,8.3,6.5s3,6.7,3,11c0,3.7-0.8,6.9-2.4,9.7
		c-1.6,2.8-3.6,4.8-6.2,6.2c-2.5,1.3-6.1,2-10.6,2H371z M374.5,34.1h4.2c5.1,0,8.6-0.3,10.5-0.9c2.8-0.9,4.9-2.5,6.5-4.8
		c1.6-2.3,2.4-5.2,2.4-8.5c0-3.5-0.9-6.6-2.6-9.1c-1.7-2.5-4.1-4.2-7.1-5.2c-2.3-0.7-6.1-1-11.3-1h-2.6V34.1z"/>
</g>
</svg>
