<svg xmlns="http://www.w3.org/2000/svg" viewBox="0 0 336.93 38.47"><defs><style>.cls-1{fill:#c3af3f;}</style></defs><title>st_restaurant</title><g id="レイヤー_2" data-name="レイヤー 2"><g id="text_object" data-name="text/object"><path class="cls-1" d="M0,.92H7.3a44.32,44.32,0,0,1,8.26.5,9.47,9.47,0,0,1,5.31,3.2,9.17,9.17,0,0,1,2,6.05,9.74,9.74,0,0,1-1.41,5.26,8.8,8.8,0,0,1-4,3.43,18.41,18.41,0,0,1-7.22,1.18l13.17,17H18.9l-13.17-17H3.66v17H0ZM3.66,4.51V17L10,17a15.59,15.59,0,0,0,5.43-.7,5.64,5.64,0,0,0,2.74-2.23,6.16,6.16,0,0,0,1-3.42,6,6,0,0,0-1-3.35,5.62,5.62,0,0,0-2.62-2.16,16,16,0,0,0-5.39-.64Z"/><path class="cls-1" d="M35,.92H56V4.51H38.68V16H55.86v3.58H38.68V34H55.86v3.58H35Z"/><path class="cls-1" d="M63.8,30.73l3.12-1.87q3.28,6.06,7.59,6A7.19,7.19,0,0,0,78,34.05a6.11,6.11,0,0,0,2.47-2.3,6,6,0,0,0,.84-3.06A6.2,6.2,0,0,0,80,25.08a29.84,29.84,0,0,0-6.28-5.88,32.36,32.36,0,0,1-5.7-5,9.15,9.15,0,0,1-1.94-5.6,8.55,8.55,0,0,1,1.14-4.36,8.24,8.24,0,0,1,3.23-3.1A9.35,9.35,0,0,1,75,0a9.65,9.65,0,0,1,4.84,1.28A16.77,16.77,0,0,1,84.62,6l-3,2.27a14.3,14.3,0,0,0-3.52-3.61,6.08,6.08,0,0,0-3.18-.87,5,5,0,0,0-3.62,1.34A4.4,4.4,0,0,0,69.9,8.44a5.7,5.7,0,0,0,.5,2.32,8.61,8.61,0,0,0,1.82,2.44q.72.69,4.73,3.66a26.63,26.63,0,0,1,6.53,6.25,10.14,10.14,0,0,1,1.76,5.5,9.33,9.33,0,0,1-3,6.93,10.2,10.2,0,0,1-7.36,2.93,10.76,10.76,0,0,1-6-1.78A16.23,16.23,0,0,1,63.8,30.73Z"/><path class="cls-1" d="M94,4.51V.92h20.07V4.51h-8.17v33h-3.73v-33Z"/><path class="cls-1" d="M136.33.92l17.08,36.63h-3.95l-5.76-12H127.92l-5.71,12h-4.08L135.43.92Zm-.46,7.78L129.59,22h12.52Z"/><path class="cls-1" d="M161.82.92h3.66V23a45.61,45.61,0,0,0,.15,4.91,8,8,0,0,0,1.27,3.62A7.32,7.32,0,0,0,170,34a9.54,9.54,0,0,0,4.16,1,8.25,8.25,0,0,0,3.48-.77,7.64,7.64,0,0,0,2.79-2.15A8.66,8.66,0,0,0,182,28.76a27.45,27.45,0,0,0,.37-5.73V.92h3.66V23a26.93,26.93,0,0,1-1,7.94,10.76,10.76,0,0,1-3.83,5.26,11,11,0,0,1-7,2.24,13.35,13.35,0,0,1-7.6-2.11,10.16,10.16,0,0,1-4.23-5.61,29.59,29.59,0,0,1-.67-7.72Z"/><path class="cls-1" d="M200,.92h7.3a44.45,44.45,0,0,1,8.27.5,9.48,9.48,0,0,1,5.3,3.2,9.17,9.17,0,0,1,2,6.05,9.82,9.82,0,0,1-1.4,5.26,8.78,8.78,0,0,1-4,3.43,18.41,18.41,0,0,1-7.22,1.18l13.18,17h-4.53l-13.18-17h-2.07v17H200Zm3.66,3.59V17L210,17a15.55,15.55,0,0,0,5.43-.7,5.6,5.6,0,0,0,2.74-2.23,6.16,6.16,0,0,0,1-3.42,5.89,5.89,0,0,0-1-3.35,5.57,5.57,0,0,0-2.62-2.16,16,16,0,0,0-5.39-.64Z"/><path class="cls-1" d="M251,.92l17.08,36.63h-3.95l-5.76-12H242.59l-5.71,12H232.8L250.11.92Zm-.46,7.78L244.26,22h12.53Z"/><path class="cls-1" d="M278.18,37.55V.92h.8L303.36,29V.92H307V37.55h-.82L282,9.81V37.55Z"/><path class="cls-1" d="M316.86,4.51V.92h20.07V4.51h-8.17v33H325v-33Z"/></g></g></svg>