<svg xmlns="http://www.w3.org/2000/svg" viewBox="0 0 309.66 31.68"><title>txt_tel</title><g id="レイヤー_2" data-name="レイヤー 2"><g id="テキスト"><path d="M10.5,0a9.89,9.89,0,0,1,5.69,1.62,10.3,10.3,0,0,1,3.69,5,26.31,26.31,0,0,1,1.3,9.28,26.26,26.26,0,0,1-1.32,9.35,10.53,10.53,0,0,1-3.56,4.92,9.62,9.62,0,0,1-5.64,1.56,10,10,0,0,1-5.72-1.57,10.44,10.44,0,0,1-3.63-4.8A25.35,25.35,0,0,1,0,16.14q0-8.31,2.56-12A9.14,9.14,0,0,1,10.5,0Zm.13,5.46a3.93,3.93,0,0,0-2.58.93A6,6,0,0,0,6.34,9.6a27.89,27.89,0,0,0-.6,6.66c0,3.82.46,6.45,1.36,7.91a4,4,0,0,0,3.53,2.18A3.73,3.73,0,0,0,14,24.28q1.48-2.51,1.49-8.37c0-4-.44-6.7-1.34-8.2A4,4,0,0,0,10.63,5.46Z"/><path d="M33.82.76H48V6.07H38.11l-1.23,5.48a7.85,7.85,0,0,1,1-.22,6.35,6.35,0,0,1,.95-.07,9.12,9.12,0,0,1,6.82,2.8,9.85,9.85,0,0,1,2.71,7.17,10.14,10.14,0,0,1-3,7.43,9.89,9.89,0,0,1-7.31,3,10.09,10.09,0,0,1-10.26-8.2h6a5.29,5.29,0,0,0,1.84,2.15,4.59,4.59,0,0,0,2.51.72A4.37,4.37,0,0,0,41.41,25a4.85,4.85,0,0,0,1.33-3.53A4.84,4.84,0,0,0,41.5,18a3.92,3.92,0,0,0-3-1.35,4.07,4.07,0,0,0-1.86.47,7,7,0,0,0-1.79,1.42l-4.68-1Z"/><path d="M61.31,10.48h-5.6A11,11,0,0,1,58.78,2.8,10.82,10.82,0,0,1,70.92,1.16,8.63,8.63,0,0,1,74.28,4.5a8.81,8.81,0,0,1,1.26,4.44A13.11,13.11,0,0,1,74,14.72a31.48,31.48,0,0,1-5.59,7.33L65,25.61H75.79v5.32H54.89V28.18l9.33-9.52a27,27,0,0,0,4.5-5.5,8.09,8.09,0,0,0,1.12-3.77,3.88,3.88,0,0,0-1.16-2.88,4.07,4.07,0,0,0-3-1.14,4,4,0,0,0-3.08,1.38A5.66,5.66,0,0,0,61.31,10.48Z"/><path d="M84.29,17.21H94.71v5.21H84.29Z"/><path d="M111.4,31.68l-4.88-2.42L111.81,19a8.83,8.83,0,0,1-6.54-2.74,9.39,9.39,0,0,1-2.69-6.83,9,9,0,0,1,2.76-6.68,9.5,9.5,0,0,1,13.45.1,9.15,9.15,0,0,1,2.72,6.52,9.75,9.75,0,0,1-.42,2.8,29,29,0,0,1-1.94,4.33Zm.72-18.12a3.51,3.51,0,0,0,2.68-1.17,4.05,4.05,0,0,0,1.09-2.88,4.08,4.08,0,0,0-1.14-2.95,3.55,3.55,0,0,0-2.65-1.19,3.73,3.73,0,0,0-2.75,1.18,4,4,0,0,0-1.15,2.93,4,4,0,0,0,1.12,2.91A3.71,3.71,0,0,0,112.12,13.56Z"/><path d="M137.93,0l4.89,2.45-5.28,10.24a8.79,8.79,0,0,1,6.52,2.75,9.39,9.39,0,0,1,2.69,6.83,9.37,9.37,0,0,1-9.42,9.41,9,9,0,0,1-6.8-2.84,9.14,9.14,0,0,1-2.71-6.51,9.87,9.87,0,0,1,.42-2.81,28.27,28.27,0,0,1,1.93-4.34Zm-.72,18.13a3.56,3.56,0,0,0-2.69,1.16,4.09,4.09,0,0,0-1.08,2.9,4.1,4.1,0,0,0,1.13,2.93,3.55,3.55,0,0,0,2.66,1.19A3.72,3.72,0,0,0,140,25.14a4.06,4.06,0,0,0,1.15-2.95,4,4,0,0,0-1.12-2.9A3.75,3.75,0,0,0,137.21,18.13Z"/><path d="M159.86,10.48h-5.6a11.08,11.08,0,0,1,3.06-7.68,10.82,10.82,0,0,1,12.14-1.64,8.58,8.58,0,0,1,3.37,3.34,8.81,8.81,0,0,1,1.26,4.44,13.11,13.11,0,0,1-1.53,5.78A31.48,31.48,0,0,1,167,22.05l-3.39,3.56h10.75v5.32H153.44V28.18l9.33-9.52a27.74,27.74,0,0,0,4.5-5.5,8.21,8.21,0,0,0,1.12-3.77,3.88,3.88,0,0,0-1.16-2.88,4.07,4.07,0,0,0-3-1.14,3.94,3.94,0,0,0-3.08,1.38A5.66,5.66,0,0,0,159.86,10.48Z"/><path d="M182.84,17.21h10.42v5.21H182.84Z"/><path d="M219.55,14.57a9.41,9.41,0,0,1,3,12.66,8.45,8.45,0,0,1-3.5,3.34,12.33,12.33,0,0,1-5.59,1.11,13.1,13.1,0,0,1-5.81-1.07,8.25,8.25,0,0,1-3.44-3.27,9.5,9.5,0,0,1-1.3-4.93,9.15,9.15,0,0,1,1-4.34,10.53,10.53,0,0,1,3.11-3.5,9.68,9.68,0,0,1-2-2.92,7.93,7.93,0,0,1-.69-3.27,8.29,8.29,0,0,1,1.14-4.29,7.79,7.79,0,0,1,3.19-3A10,10,0,0,1,213.37,0,9.58,9.58,0,0,1,218,1.09a8,8,0,0,1,3.17,3.08,8.42,8.42,0,0,1,1.16,4.29,7.45,7.45,0,0,1-.61,3A11.68,11.68,0,0,1,219.55,14.57Zm-6.13,3.07a5,5,0,0,0-3.49,1.26,3.91,3.91,0,0,0-1.42,3A4.09,4.09,0,0,0,209.85,25a4.88,4.88,0,0,0,3.5,1.26,5,5,0,0,0,3.5-1.18,3.9,3.9,0,0,0,1.3-3,4.1,4.1,0,0,0-1.35-3.13A4.77,4.77,0,0,0,213.42,17.64Zm-.23-12.1a3.13,3.13,0,0,0-2.33.93A3.24,3.24,0,0,0,210,8.85a3.33,3.33,0,0,0,1,2.43,3.42,3.42,0,0,0,4.77,0,3.43,3.43,0,0,0,.93-2.49,3.11,3.11,0,0,0-.94-2.36A3.42,3.42,0,0,0,213.19,5.54Z"/><path d="M241.84,0a9.89,9.89,0,0,1,5.69,1.62,10.3,10.3,0,0,1,3.69,5,26.31,26.31,0,0,1,1.3,9.28,26.26,26.26,0,0,1-1.32,9.35,10.53,10.53,0,0,1-3.56,4.92A9.62,9.62,0,0,1,242,31.68a10,10,0,0,1-5.72-1.57,10.44,10.44,0,0,1-3.63-4.8,25.35,25.35,0,0,1-1.31-9.17q0-8.31,2.56-12A9.14,9.14,0,0,1,241.84,0ZM242,5.46a3.93,3.93,0,0,0-2.58.93,6.07,6.07,0,0,0-1.72,3.21,28.53,28.53,0,0,0-.59,6.66c0,3.82.45,6.45,1.36,7.91A4,4,0,0,0,242,26.35a3.73,3.73,0,0,0,3.32-2.07q1.49-2.51,1.49-8.37c0-4-.45-6.7-1.34-8.2A4,4,0,0,0,242,5.46Z"/><path d="M276.68,14.57A9.16,9.16,0,0,1,279.85,18a9.48,9.48,0,0,1-.19,9.28,8.43,8.43,0,0,1-3.49,3.34,12.38,12.38,0,0,1-5.6,1.11,13.05,13.05,0,0,1-5.8-1.07,8.22,8.22,0,0,1-3.45-3.27A9.5,9.5,0,0,1,260,22.41a9.15,9.15,0,0,1,1-4.34,10.53,10.53,0,0,1,3.11-3.5,10.05,10.05,0,0,1-2-2.92,7.93,7.93,0,0,1-.69-3.27,8.29,8.29,0,0,1,1.14-4.29,7.79,7.79,0,0,1,3.19-3A10,10,0,0,1,270.51,0a9.56,9.56,0,0,1,4.65,1.09,8,8,0,0,1,3.17,3.08,8.42,8.42,0,0,1,1.16,4.29,7.28,7.28,0,0,1-.61,3A11.46,11.46,0,0,1,276.68,14.57Zm-6.13,3.07a5.08,5.08,0,0,0-3.49,1.26,3.89,3.89,0,0,0-1.41,3A4.08,4.08,0,0,0,267,25a4.9,4.9,0,0,0,3.51,1.26A5,5,0,0,0,274,25.07a3.91,3.91,0,0,0,1.31-3,4.11,4.11,0,0,0-1.36-3.13A4.77,4.77,0,0,0,270.55,17.64Zm-.23-12.1a3.1,3.1,0,0,0-2.32.93,3.25,3.25,0,0,0-.92,2.38,3.29,3.29,0,0,0,1,2.43,3.4,3.4,0,0,0,4.76,0,3.39,3.39,0,0,0,.94-2.49,3.12,3.12,0,0,0-.95-2.36A3.38,3.38,0,0,0,270.32,5.54Z"/><path d="M299,0a9.89,9.89,0,0,1,5.69,1.62,10.24,10.24,0,0,1,3.69,5,26.28,26.28,0,0,1,1.31,9.28,26.23,26.23,0,0,1-1.33,9.35,10.52,10.52,0,0,1-3.55,4.92,9.62,9.62,0,0,1-5.64,1.56,10,10,0,0,1-5.73-1.57,10.44,10.44,0,0,1-3.63-4.8,25.35,25.35,0,0,1-1.31-9.17q0-8.31,2.57-12A9.13,9.13,0,0,1,299,0Zm.14,5.46a3.93,3.93,0,0,0-2.58.93,6,6,0,0,0-1.72,3.21,27.89,27.89,0,0,0-.6,6.66c0,3.82.46,6.45,1.37,7.91a4,4,0,0,0,3.53,2.18,3.72,3.72,0,0,0,3.31-2.07c1-1.67,1.49-4.46,1.49-8.37s-.44-6.7-1.34-8.2A4,4,0,0,0,299.11,5.46Z"/></g></g></svg>