<svg width="32" height="32" viewBox="0 0 32 32" fill="none" xmlns="http://www.w3.org/2000/svg">
<path d="M16.0001 32C15.7349 32 15.4806 31.8946 15.293 31.7071C15.1055 31.5196 15.0001 31.2652 15.0001 31V28.414L13.7081 29.708C13.5204 29.8955 13.2658 30.0007 13.0004 30.0006C12.7351 30.0004 12.4806 29.8948 12.2931 29.707C12.1056 29.5192 12.0004 29.2647 12.0006 28.9993C12.0008 28.7339 12.1064 28.4795 12.2941 28.292L15.0001 25.586V23.414L13.7081 24.708C13.6152 24.8008 13.5048 24.8745 13.3834 24.9247C13.262 24.9749 13.1318 25.0007 13.0004 25.0006C12.7351 25.0004 12.4806 24.8948 12.2931 24.707C12.1056 24.5192 12.0004 24.2647 12.0006 23.9993C12.0008 23.7339 12.1064 23.4795 12.2941 23.292L15.0001 20.586V17.732L12.5281 19.158L11.5381 22.858C11.504 22.9849 11.4452 23.1037 11.3651 23.2079C11.285 23.312 11.1852 23.3994 11.0714 23.4649C10.9575 23.5305 10.8319 23.573 10.7016 23.59C10.5713 23.607 10.439 23.5981 10.3121 23.564C10.1853 23.5299 10.0664 23.4711 9.96226 23.391C9.85812 23.3109 9.77078 23.2111 9.70523 23.0972C9.63967 22.9834 9.59717 22.8577 9.58017 22.7275C9.56317 22.5972 9.572 22.4649 9.60614 22.338L10.0801 20.574L8.20014 21.658L7.20814 25.358C7.13918 25.6142 6.97128 25.8325 6.74136 25.9649C6.51144 26.0973 6.23834 26.133 5.98214 26.064C5.72594 25.995 5.50763 25.8271 5.37523 25.5972C5.24283 25.3673 5.20718 25.0942 5.27614 24.838L5.75014 23.074L3.51014 24.366C3.28058 24.4965 3.00872 24.5309 2.75387 24.4617C2.49903 24.3926 2.2819 24.2254 2.14986 23.9967C2.01783 23.768 1.98161 23.4964 2.0491 23.2411C2.1166 22.9858 2.28233 22.7676 2.51014 22.634L4.75014 21.342L2.98214 20.868C2.85528 20.8339 2.73639 20.7751 2.63226 20.695C2.52812 20.6149 2.44078 20.5151 2.37523 20.4012C2.30967 20.2874 2.26718 20.1617 2.25017 20.0315C2.23317 19.9012 2.242 19.7689 2.27614 19.642C2.31028 19.5151 2.36908 19.3963 2.44917 19.2921C2.52926 19.188 2.62908 19.1006 2.74292 19.0351C2.85677 18.9695 2.98241 18.927 3.11268 18.91C3.24294 18.893 3.37528 18.9019 3.50214 18.936L7.19814 19.926L9.07814 18.842L7.31414 18.368C7.18535 18.3359 7.06424 18.2785 6.95787 18.1991C6.85149 18.1197 6.76199 18.0199 6.69457 17.9056C6.62716 17.7913 6.58317 17.6647 6.56519 17.5332C6.54721 17.4017 6.55559 17.2679 6.58984 17.1396C6.62409 17.0114 6.68352 16.8913 6.76468 16.7862C6.84583 16.6812 6.94709 16.5934 7.06253 16.5279C7.17798 16.4624 7.30531 16.4206 7.43709 16.4048C7.56888 16.389 7.7025 16.3996 7.83014 16.436L11.5301 17.426L14.0001 16L11.5281 14.574L7.83014 15.564C7.7025 15.6004 7.56888 15.611 7.43709 15.5952C7.30531 15.5794 7.17798 15.5376 7.06253 15.4721C6.94709 15.4066 6.84583 15.3188 6.76468 15.2138C6.68352 15.1087 6.62409 14.9886 6.58984 14.8604C6.55559 14.7321 6.54721 14.5983 6.56519 14.4668C6.58317 14.3353 6.62716 14.2087 6.69457 14.0944C6.76199 13.9801 6.85149 13.8803 6.95787 13.8009C7.06424 13.7215 7.18535 13.6641 7.31414 13.632L9.08014 13.158L7.20014 12.074L3.50014 13.064C3.24561 13.1274 2.97634 13.0883 2.75038 12.9551C2.52442 12.8218 2.35986 12.6052 2.29217 12.3517C2.22448 12.0983 2.25909 11.8284 2.38853 11.6002C2.51797 11.3721 2.73187 11.2039 2.98414 11.132L4.75014 10.658L2.51014 9.366C2.39549 9.30082 2.29487 9.2136 2.21407 9.10937C2.13327 9.00515 2.07388 8.88597 2.03933 8.75869C2.00478 8.63142 1.99574 8.49857 2.01274 8.36779C2.02973 8.23701 2.07243 8.11088 2.13838 7.99667C2.20432 7.88246 2.2922 7.78242 2.39696 7.70231C2.50172 7.62221 2.62129 7.56361 2.74879 7.5299C2.87629 7.49619 3.0092 7.48804 3.13986 7.5059C3.27053 7.52377 3.39637 7.5673 3.51014 7.634L5.75014 8.926L5.27614 7.16C5.2127 6.90547 5.25182 6.6362 5.38506 6.41024C5.5183 6.18428 5.73499 6.01972 5.98842 5.95203C6.24186 5.88434 6.51174 5.91895 6.7399 6.04839C6.96806 6.17783 7.13622 6.39173 7.20814 6.644L8.19814 10.342L10.0781 11.426L9.60614 9.66C9.5427 9.40547 9.58182 9.1362 9.71506 8.91024C9.84829 8.68428 10.065 8.51972 10.3184 8.45203C10.5719 8.38434 10.8417 8.41895 11.0699 8.54839C11.2981 8.67783 11.4662 8.89173 11.5381 9.144L12.5281 12.842L15.0001 14.268V11.414L12.2941 8.708C12.1064 8.52049 12.0008 8.26607 12.0006 8.00071C12.0004 7.73534 12.1056 7.48077 12.2931 7.293C12.4806 7.10523 12.7351 6.99963 13.0004 6.99944C13.2658 6.99926 13.5204 7.10449 13.7081 7.292L15.0001 8.586V6.414L12.2941 3.708C12.2012 3.61516 12.1274 3.50491 12.077 3.38355C12.0266 3.26219 12.0007 3.1321 12.0006 3.00071C12.0005 2.86931 12.0263 2.73919 12.0765 2.61776C12.1267 2.49633 12.2003 2.38598 12.2931 2.293C12.386 2.20002 12.4962 2.12625 12.6176 2.07588C12.7389 2.02551 12.869 1.99954 13.0004 1.99944C13.1318 1.99935 13.262 2.02514 13.3834 2.07534C13.5048 2.12553 13.6152 2.19916 13.7081 2.292L15.0001 3.586V1C15.0001 0.734784 15.1055 0.48043 15.293 0.292893C15.4806 0.105357 15.7349 0 16.0001 0C16.2654 0 16.5197 0.105357 16.7072 0.292893C16.8948 0.48043 17.0001 0.734784 17.0001 1V3.586L18.2941 2.292C18.4819 2.10449 18.7365 1.99926 19.0018 1.99944C19.2672 1.99963 19.5216 2.10523 19.7091 2.293C19.8966 2.48077 20.0019 2.73534 20.0017 3.00071C20.0015 3.26607 19.8959 3.52049 19.7081 3.708L17.0001 6.414V8.586L18.2941 7.292C18.4819 7.10449 18.7365 6.99926 19.0018 6.99944C19.2672 6.99963 19.5216 7.10523 19.7091 7.293C19.8966 7.48077 20.0019 7.73534 20.0017 8.00071C20.0015 8.26607 19.8959 8.52049 19.7081 8.708L17.0001 11.414V14.268L19.4721 12.842L20.4621 9.142C20.4963 9.01514 20.5551 8.89625 20.6352 8.79212C20.7153 8.68798 20.8151 8.60065 20.9289 8.53509C21.0428 8.46953 21.1684 8.42704 21.2987 8.41004C21.4289 8.39303 21.5613 8.40186 21.6881 8.436C21.815 8.47014 21.9339 8.52894 22.038 8.60903C22.1422 8.68912 22.2295 8.78894 22.2951 8.90278C22.3606 9.01663 22.4031 9.14227 22.4201 9.27254C22.4371 9.4028 22.4283 9.53514 22.3941 9.662L21.9221 11.426L23.8021 10.342L24.7921 6.642C24.8611 6.3858 25.029 6.16749 25.2589 6.03509C25.4888 5.90269 25.7619 5.86704 26.0181 5.936C26.2743 6.00496 26.4927 6.17286 26.6251 6.40278C26.7575 6.6327 26.7931 6.9058 26.7241 7.162L26.2521 8.926L28.4921 7.634C28.7217 7.50348 28.9936 7.46906 29.2484 7.53825C29.5032 7.60744 29.7204 7.77462 29.8524 8.00331C29.9844 8.23199 30.0207 8.50362 29.9532 8.75892C29.8857 9.01421 29.7199 9.23245 29.4921 9.366L27.2521 10.658L29.0181 11.132C29.2743 11.201 29.4927 11.3689 29.6251 11.5988C29.7575 11.8287 29.7931 12.1018 29.7241 12.358C29.6552 12.6142 29.4873 12.8325 29.2574 12.9649C29.0274 13.0973 28.7543 13.133 28.4981 13.064L24.8021 12.074L22.9221 13.158L24.6881 13.632C24.9443 13.701 25.1627 13.8689 25.2951 14.0988C25.4275 14.3287 25.4631 14.6018 25.3941 14.858C25.3252 15.1142 25.1573 15.3325 24.9274 15.4649C24.6974 15.5973 24.4243 15.633 24.1681 15.564L20.4721 14.574L18.0001 16L20.4721 17.426L24.1701 16.436C24.4263 16.3673 24.6993 16.4032 24.9291 16.5358C25.1588 16.6684 25.3264 16.8868 25.3951 17.143C25.4638 17.3992 25.4279 17.6722 25.2953 17.9019C25.1628 18.1317 24.9443 18.2993 24.6881 18.368L22.9221 18.842L24.8021 19.926L28.5001 18.936C28.7563 18.8673 29.0293 18.9032 29.2591 19.0358C29.4888 19.1684 29.6564 19.3868 29.7251 19.643C29.7938 19.8992 29.7579 20.1722 29.6253 20.4019C29.4928 20.6317 29.2743 20.7993 29.0181 20.868L27.2521 21.342L29.4921 22.634C29.7199 22.7676 29.8857 22.9858 29.9532 23.2411C30.0207 23.4964 29.9844 23.768 29.8524 23.9967C29.7204 24.2254 29.5032 24.3926 29.2484 24.4617C28.9936 24.5309 28.7217 24.4965 28.4921 24.366L26.2521 23.074L26.7241 24.84C26.7605 24.9676 26.7711 25.1013 26.7554 25.233C26.7396 25.3648 26.6977 25.4922 26.6322 25.6076C26.5667 25.7231 26.4789 25.8243 26.3739 25.9055C26.2689 25.9866 26.1487 26.0461 26.0205 26.0803C25.8923 26.1145 25.7585 26.1229 25.627 26.1049C25.4955 26.087 25.3689 26.043 25.2545 25.9756C25.1402 25.9081 25.0404 25.8186 24.961 25.7123C24.8817 25.6059 24.8242 25.4848 24.7921 25.356L23.8021 21.658L21.9221 20.574L22.3941 22.34C22.4576 22.5945 22.4185 22.8638 22.2852 23.0898C22.152 23.3157 21.9353 23.4803 21.6819 23.548C21.4284 23.6157 21.1585 23.5811 20.9304 23.4516C20.7022 23.3222 20.5341 23.1083 20.4621 22.856L19.4721 19.16L17.0001 17.732V20.586L19.7081 23.292C19.8959 23.4795 20.0015 23.7339 20.0017 23.9993C20.0019 24.2647 19.8966 24.5192 19.7091 24.707C19.5216 24.8948 19.2672 25.0004 19.0018 25.0006C18.7365 25.0007 18.4819 24.8955 18.2941 24.708L17.0001 23.414V25.586L19.7081 28.292C19.8959 28.4795 20.0015 28.7339 20.0017 28.9993C20.0019 29.2647 19.8966 29.5192 19.7091 29.707C19.5216 29.8948 19.2672 30.0004 19.0018 30.0006C18.7365 30.0007 18.4819 29.8955 18.2941 29.708L17.0001 28.414V31C17.0001 31.2652 16.8948 31.5196 16.7072 31.7071C16.5197 31.8946 16.2654 32 16.0001 32Z" fill="white"/>
</svg>
