<svg width="32" height="32" viewBox="0 0 32 32" fill="none" xmlns="http://www.w3.org/2000/svg">
<path d="M26.2302 19.766C28.7002 18.966 30.1902 16.576 29.9902 14.086C29.9792 13.9716 29.9313 13.864 29.8537 13.7792C29.7762 13.6944 29.6732 13.6371 29.5602 13.616C29.5602 13.616 28.6702 13.426 28.4702 13.386C28.3702 13.366 28.3302 13.236 28.3902 13.166C28.5202 13.026 29.1402 12.326 29.1402 12.326C29.3002 12.156 29.3302 11.886 29.2102 11.686C27.9202 9.556 25.3102 8.496 22.8302 9.306C22.1202 9.536 21.5002 9.956 20.9602 10.486C21.3002 9.806 21.5002 9.096 21.5002 8.346C21.5002 5.746 19.6902 3.586 17.2602 3.016C17.1471 2.99326 17.0297 3.00603 16.9241 3.05257C16.8184 3.09911 16.7298 3.17715 16.6702 3.276C16.6702 3.276 16.2102 4.066 16.1102 4.246C16.0602 4.336 15.9202 4.326 15.8802 4.256C15.7802 4.086 15.3202 3.276 15.3202 3.276C15.2002 3.076 14.9602 2.956 14.7402 3.016C12.3202 3.576 10.5002 5.736 10.5002 8.336C10.5002 9.086 10.7102 9.796 11.0402 10.476C10.5002 9.946 9.89022 9.536 9.18022 9.306C6.70022 8.496 4.09022 9.556 2.80022 11.686C2.68022 11.886 2.71022 12.146 2.87022 12.326C2.87022 12.326 3.48022 13.006 3.62022 13.156C3.69022 13.226 3.64022 13.366 3.55022 13.386L2.45022 13.616C2.22022 13.666 2.04022 13.856 2.02022 14.086C1.91409 15.3181 2.22785 16.5499 2.91049 17.5812C3.59314 18.6124 4.60452 19.3824 5.78022 19.766C6.50022 19.996 7.24022 20.026 8.00022 19.906C7.32022 20.256 6.72022 20.716 6.28022 21.326C4.75022 23.426 4.95022 26.236 6.58022 28.126C6.73022 28.306 6.99022 28.356 7.21022 28.256C7.21022 28.256 8.04022 27.886 8.23022 27.796C8.32022 27.756 8.43022 27.836 8.42022 27.926L8.30022 29.046C8.28022 29.276 8.40022 29.516 8.62022 29.606C10.9202 30.566 13.6502 29.886 15.1802 27.786C15.6202 27.176 15.8702 26.486 16.0002 25.736C16.1302 26.486 16.3802 27.186 16.8202 27.786C18.3502 29.886 21.0802 30.566 23.3802 29.606C23.6002 29.516 23.7202 29.286 23.7002 29.046C23.7002 29.046 23.6002 28.136 23.5802 27.936C23.5702 27.836 23.6802 27.756 23.7702 27.796L24.8002 28.256C25.0102 28.356 25.2802 28.306 25.4302 28.126C27.0602 26.236 27.2602 23.426 25.7302 21.326C25.2902 20.716 24.6902 20.266 24.0102 19.906C24.7702 20.026 25.5102 19.996 26.2302 19.766ZM17.8342 18.621L18.5872 19.661C18.6206 19.657 18.6549 19.655 18.6902 19.655C18.9059 19.6552 19.1157 19.7252 19.2884 19.8544C19.4611 19.9836 19.5873 20.1652 19.6483 20.372C19.7094 20.5789 19.7019 20.7999 19.627 21.0022C19.5521 21.2045 19.4139 21.3771 19.2328 21.4943C19.0518 21.6116 18.8378 21.6672 18.6226 21.6528C18.4074 21.6384 18.2026 21.5548 18.0388 21.4146C17.875 21.2743 17.7609 21.0848 17.7136 20.8744C17.6663 20.664 17.6882 20.4439 17.7762 20.247L17.0242 19.208C16.7048 19.3526 16.3581 19.4272 16.0075 19.4268C15.6569 19.4265 15.3104 19.3512 14.9912 19.206L14.2332 20.249C14.3227 20.4501 14.3433 20.6751 14.2919 20.8892C14.2405 21.1032 14.1198 21.2943 13.9487 21.4328C13.7776 21.5713 13.5656 21.6495 13.3456 21.6552C13.1255 21.6609 12.9097 21.5938 12.7316 21.4644C12.5536 21.335 12.4232 21.1504 12.3607 20.9394C12.2982 20.7283 12.3071 20.5025 12.3861 20.297C12.465 20.0915 12.6095 19.9178 12.7972 19.8028C12.9849 19.6878 13.2053 19.638 13.4242 19.661L14.1832 18.618C13.9467 18.3592 13.7682 18.0529 13.6597 17.7195C13.5512 17.3861 13.5153 17.0334 13.5542 16.685L12.3292 16.288C12.1656 16.4353 11.958 16.5245 11.7386 16.5418C11.5191 16.5591 11.3001 16.5035 11.1154 16.3836C10.9308 16.2637 10.7909 16.0862 10.7174 15.8787C10.6439 15.6712 10.641 15.4452 10.709 15.2359C10.777 15.0265 10.9122 14.8454 11.0937 14.7207C11.2751 14.5961 11.4926 14.5347 11.7124 14.5463C11.9323 14.5578 12.1421 14.6415 12.3095 14.7845C12.4769 14.9275 12.5925 15.1217 12.6382 15.337L13.8622 15.734C14.0359 15.4286 14.2728 15.1638 14.5569 14.9572C14.8411 14.7506 15.1661 14.607 15.5102 14.536V13.252C15.3196 13.1419 15.1706 12.972 15.0863 12.7687C15.0021 12.5653 14.9873 12.3398 15.0443 12.1272C15.1013 11.9145 15.2268 11.7266 15.4015 11.5926C15.5761 11.4586 15.7901 11.386 16.0102 11.386C16.2304 11.386 16.4443 11.4586 16.619 11.5926C16.7936 11.7266 16.9192 11.9145 16.9762 12.1272C17.0331 12.3398 17.0183 12.5653 16.9341 12.7687C16.8499 12.972 16.7009 13.1419 16.5102 13.252V14.536C17.2152 14.681 17.8102 15.126 18.1562 15.732L19.3712 15.338C19.4166 15.1226 19.5319 14.9281 19.6991 14.7849C19.8663 14.6416 20.0761 14.5576 20.2959 14.5457C20.5158 14.5339 20.7334 14.5949 20.915 14.7194C21.0966 14.8438 21.2321 15.0248 21.3004 15.2341C21.3687 15.4434 21.366 15.6694 21.2927 15.877C21.2195 16.0846 21.0798 16.2623 20.8952 16.3824C20.7107 16.5025 20.4917 16.5583 20.2722 16.5413C20.0527 16.5242 19.845 16.4352 19.6812 16.288L18.4652 16.684C18.4752 16.7733 18.4802 16.8637 18.4802 16.955C18.4802 17.597 18.2352 18.182 17.8342 18.621Z" fill="white"/>
</svg>
