<?xml version="1.0" encoding="utf-8"?>
<!-- Generator: Adobe Illustrator 27.1.1, SVG Export Plug-In . SVG Version: 6.00 Build 0)  -->
<svg version="1.1" id="_レイヤー_2" xmlns="http://www.w3.org/2000/svg" xmlns:xlink="http://www.w3.org/1999/xlink" x="0px"
	 y="0px" viewBox="0 0 527.6 314.4" style="enable-background:new 0 0 527.6 314.4;" xml:space="preserve">
<style type="text/css">
	.st0{fill:none;stroke:#FFFFFF;stroke-width:9;stroke-linejoin:round;}
	.st1{fill:#FF912E;stroke:#FF912E;stroke-width:0.75;stroke-miterlimit:10;}
	.st2{fill:#FFFFFF;}
	.st3{fill:#FF912E;}
</style>
<g id="_00">
	<g>
		<g>
			<g>
				<path class="st0" d="M74,135c0,24.4-22.8,39.2-44.3,37.4c-1.9,6-3.9,11.9-5.6,17.6H12.2c6.2-18.8,13.7-39.5,20.1-58.3h11
					c-3.3,9.7-6.8,20-10.2,30.3c14.7,1,29.9-9.7,29.9-26.2c0-9.9-8.9-17.2-19.4-17.2c-7.8,0-15.3,2.9-20.7,6.8l-5.2-8.9
					c6.3-4.6,15.6-8.1,26.3-8.1C61.6,108.4,74,120.9,74,135L74,135z"/>
				<path class="st0" d="M123.8,158.3c-3.9,8.7-13.5,23.5-23.4,23.5c-4.9,0-7.7-3.4-8.3-6.9c-2.3,3.6-6,6.9-11.7,6.9
					c-7.1,0-11.6-5.8-11.6-14.9c0-13.7,9.5-27.8,21.1-27.8c4.1,0,8.1,2.6,9.7,5.3l1.4-4.3h10.5c-9,24.6-11.7,31.8-7.8,31.8
					s10.4-7.8,15.6-18.6L123.8,158.3L123.8,158.3z M97.1,151.8c-1.3-1.9-3.6-3.4-6.2-3.4c-6.8,0-11.3,9.5-11.3,17.4
					c0,3.3,1.4,6.1,4.7,6.1C88.9,171.9,93,165.3,97.1,151.8L97.1,151.8z"/>
				<path class="st0" d="M132.2,172.7c0-7.9,7.6-16.6,7.6-21.4c0-1.6-0.6-2.8-2.5-2.8c-8.2,0-16.3,20.9-19.4,32.2h-10.7
					c4.6-13.5,9.1-27.1,13.9-40.6h10.4l-2.9,8.4c3.7-6.3,9.2-9.4,14.3-9.4c5,0,8.3,3.4,8.3,8.4c0.2,7.6-8.1,17.9-8.1,22.3
					c0,1.3,0.8,2.2,2.2,2.2c4,0,10.4-8.1,15.5-18.6l4.5,4.9c-3.9,8.7-13.4,23.5-23.7,23.5C135.4,181.7,132.2,177.9,132.2,172.7
					L132.2,172.7z"/>
				<path class="st0" d="M240.4,158.3c-3.8,8.6-13.5,23.5-23.3,23.5c-6.3,0-9.7-4.5-9.7-9.7c0-6.4,3.3-12.9,7.2-21.4
					c-1.7,0-3.8-0.3-5.7-0.7c-5.5,11.4-12.9,17.4-21.9,18.6c-3.8,7.6-10.7,13.3-19.6,13.3c-8.9,0-14.1-6.4-14.1-15
					c0-14.3,9.5-27.7,23.2-27.7c9,0,13.7,7.5,13.7,15.1c0,1.4-0.1,2.9-0.3,4.3c6.8-2.6,11.2-10.1,14.3-22h9.4
					c-0.4,1.6-0.9,3.2-1.4,4.7c5.1,0.8,12.5,1.1,16.1,1c-4,8.5-10.1,22.3-10.1,27c0,1.6,0.8,2.7,2.2,2.7c4,0,10.8-8.7,15.4-18.6
					L240.4,158.3L240.4,158.3z M179.6,155c0-4-1.6-6.9-4.8-6.9c-5.5,0-10.9,9.7-10.9,17.2c0,4.6,1.9,7,4.9,7
					C174.2,172.3,179.6,162.8,179.6,155L179.6,155z"/>
				<path class="st0" d="M283.5,158.3c-3.9,8.7-13.5,23.5-23.4,23.5c-4.9,0-7.7-3.4-8.3-6.9c-2.3,3.6-6,6.9-11.7,6.9
					c-7.1,0-11.6-5.8-11.6-14.9c0-13.7,9.5-27.8,21.1-27.8c4.1,0,8.1,2.6,9.7,5.3l1.4-4.3h10.5c-9,24.6-11.7,31.8-7.8,31.8
					s10.4-7.8,15.6-18.6L283.5,158.3L283.5,158.3z M256.8,151.8c-1.3-1.9-3.6-3.4-6.2-3.4c-6.8,0-11.3,9.5-11.3,17.4
					c0,3.3,1.4,6.1,4.7,6.1C248.6,171.9,252.7,165.3,256.8,151.8L256.8,151.8z"/>
				<path class="st0" d="M314,172.7c0-7.9,7.7-16.7,7.7-21.4c0-1.6-0.7-2.8-2.5-2.8c-8.3,0-15.8,20.8-19.2,32.2h-10.4
					c7.2-20.3,9.3-25.7,9.3-29.4c0-1.6-0.9-2.9-2.5-2.9c-8.3,0-15.3,19.8-19.1,32.2H267c4.6-13.5,9.1-27.1,13.7-40.6H291l-3.1,8.5
					c4.7-6.3,9.9-9.5,14.8-9.5s8,3.9,7.2,9.4c3.8-6.3,9.7-9.4,14.7-9.4s8.3,3.5,8.3,8.3c0.2,7.4-8,18-8,22.4c0,1.3,0.8,2.2,2.2,2.2
					c4.1,0,10.4-8.1,15.6-18.6l4.4,4.9c-3.8,8.7-13.4,23.5-23.7,23.5C317.2,181.7,314,177.9,314,172.7L314,172.7z"/>
				<path class="st0" d="M386.7,167.7c-3.3,5.6-11.4,14.1-19.8,14.1c-4.9,0-7.7-3.4-8.2-6.9c-2.4,3.6-6,6.9-11.7,6.9
					c-7.2,0-11.6-6-11.6-15c0-13.7,9.5-27.7,21-27.7c4.1,0,8.1,2.6,9.7,5.3l1.5-4.3h10.5c-9.1,24.6-11.8,31.8-7.9,31.8
					c2.5,0,7.3-4.8,10.7-10L386.7,167.7L386.7,167.7z M363.6,151.8c-1.3-1.9-3.5-3.4-6.2-3.4c-6.8,0-11.3,9.4-11.3,17.3
					c0,3.3,1.4,6.2,4.7,6.2C355.4,171.9,359.5,165.3,363.6,151.8L363.6,151.8z"/>
				<path class="st0" d="M167.2,220h-29c-2.8,7.8-5.5,15.8-8.3,23.8h20.2l-3.3,10h-20.3c-3,8.8-5.8,17.6-8.7,26.3h30l-3.3,10.1
					h-41.6c8.9-26.2,18.1-54.2,27.3-80h40.2L167.2,220L167.2,220z"/>
				<path class="st0" d="M204.1,258.4c-3.8,8.7-13.3,23.5-23,23.5c-5,0-8.2-4.1-11.5-12.2l-8.8,11.2h-12.1l17.8-20l-6.2-20.6h10.4
					l4,13.9l10.6-13.9h12.1l-20,22.7c2.6,7.2,4.2,9,7,9c3.7,0,9.7-7.8,15.3-18.6L204.1,258.4L204.1,258.4z"/>
				<path class="st0" d="M178.6,307c7.7-22.2,15.3-44.7,22.9-66.8H212l-3.5,8.7c3.3-5.5,8.5-9.7,14.2-9.7c5.6,0,9.2,4.5,9.2,12.5
					c0,7.1-4.6,17.6-10.6,21.6c6.9-0.7,14.3-7.6,19.5-20.1l4.5,5.6c-9,20.7-20.4,23-32.4,23c-5.2,0-10.4-1-14.2-3.7
					c-2.7,7.6-5.6,17.6-9,28.7L178.6,307L178.6,307z M220.9,253.7c0-3.4-1.2-5.5-3.8-5.5c-4.1-0.1-10.1,6.2-16.1,22.7
					c1.4,1.5,3.9,2.6,6.8,2.6C214.5,273.4,220.9,261.7,220.9,253.7L220.9,253.7z"/>
				<path class="st0" d="M282.3,258.4c-6,11.8-12.3,23.5-30.3,23.5c-10.2,0-18.1-5.7-18.1-16.4c0-13.4,9-26.3,22.4-26.3
					c8.1,0,12.4,6,12.4,12.1c0,12.2-13.7,17.6-24.1,15.3c0.7,4.1,3.7,6.6,9.7,6.6c10,0,16-5.2,23.3-19.8L282.3,258.4L282.3,258.4z
					 M244.8,260.1c6.6,0.7,14.2-2.8,14.3-8.4c0.1-2.4-1.2-4-3.5-4C250.5,247.7,246.1,253.2,244.8,260.1L244.8,260.1z"/>
				<path class="st0" d="M317.6,258.4c-3.8,8.6-13.5,23.5-23.3,23.5c-6.3,0-9.5-4.5-9.5-9.7c0-6.4,3.2-12.9,7.2-21.4
					c-2.1-0.1-4.5-0.4-6.9-1c-4.2,10.1-9.3,17.8-14.7,24.1c-5,6-8.8-0.2-4.4-5.3c7.3-8.5,11.4-20.8,14.2-31.8h9.3
					c-0.4,1.5-0.8,3-1.3,4.5c5,0.9,13.5,1.3,17.4,1.2c-3.9,8.5-10.1,22.3-10.1,27c0,1.6,0.8,2.7,2.3,2.7c3.9,0,10.8-8.7,15.3-18.6
					L317.6,258.4L317.6,258.4z"/>
				<path class="st0" d="M338.6,258.4c-3.8,8.7-13.4,23.5-23.4,23.5c-15.9,0-8.3-20-0.2-41.7h10.7c-6.5,17.4-12.7,31.8-7.2,31.8
					c4,0,10.5-7.8,15.7-18.6L338.6,258.4L338.6,258.4z M317.4,229.3c0-4.8,4-9.2,8.4-9.2c3.1,0,5.3,2.3,5.3,5.3
					c0,4.5-4.1,9.3-8.4,9.3C319.3,234.8,317.4,232.4,317.4,229.3L317.4,229.3z"/>
				<path class="st0" d="M375.2,258.4c-6,11.8-12.3,23.5-30.3,23.5c-10.2,0-18.1-5.7-18.1-16.4c0-13.4,9-26.3,22.4-26.3
					c8.1,0,12.4,6,12.4,12.1c0,12.2-13.7,17.6-24.1,15.3c0.7,4.1,3.7,6.6,9.7,6.6c10,0,16-5.2,23.3-19.8L375.2,258.4L375.2,258.4z
					 M337.8,260.1c6.6,0.7,14.2-2.8,14.3-8.4c0.1-2.4-1.2-4-3.5-4C343.4,247.7,339.1,253.2,337.8,260.1L337.8,260.1z"/>
				<path class="st0" d="M383.7,272.8c0-7.9,7.6-16.6,7.6-21.4c0-1.6-0.6-2.8-2.5-2.8c-8.2,0-16.3,20.9-19.4,32.2h-10.7
					c4.6-13.5,9.1-27.1,13.9-40.6H383l-2.9,8.4c3.7-6.3,9.2-9.4,14.3-9.4c5,0,8.3,3.4,8.3,8.4c0.2,7.6-8.1,17.9-8.1,22.3
					c0,1.3,0.8,2.2,2.2,2.2c4,0,10.4-8.1,15.5-18.6l4.5,4.9c-3.9,8.7-13.4,23.5-23.7,23.5C386.8,281.9,383.7,278.1,383.7,272.8
					L383.7,272.8z"/>
				<path class="st0" d="M452.1,258.4c-6,11.8-12.3,23.5-30.3,23.5c-9.4,0-16.7-6-16.7-16.5c0-13.9,10-26.2,21.9-26.2
					c10.8,0,14.8,10.2,11.5,19.7h-10.8c2.1-6,1.2-10.6-2.2-10.6c-4.7,0-9.5,8.2-9.5,15.8c0,5.7,3,9,8.1,9c10,0,16.1-5.2,23.4-19.8
					L452.1,258.4L452.1,258.4z"/>
				<path class="st0" d="M481,271.7c-4.8,5.3-13,10.2-22.5,10.2c-10.2,0-18.1-5.7-18.1-16.4c0-13.4,9-26.3,22.4-26.3
					c8.1,0,12.4,6,12.4,12.1c0,12-13.7,17.6-24.1,15.3c0.7,4.1,3.7,6.6,9.7,6.6s12.3-5,15.9-8.6L481,271.7L481,271.7z M451.4,260
					c6.6,0.8,14.2-2.9,14.3-8.3c0.1-2.4-1.2-4-3.5-4C457,247.7,452.7,253.2,451.4,260z"/>
			</g>
			<g>
				<path class="st1" d="M74,135c0,24.4-22.8,39.2-44.3,37.4c-1.9,6-3.9,11.9-5.6,17.6H12.2c6.2-18.8,13.7-39.5,20.1-58.3h11
					c-3.3,9.7-6.8,20-10.2,30.3c14.7,1,29.9-9.7,29.9-26.2c0-9.9-8.9-17.2-19.4-17.2c-7.8,0-15.3,2.9-20.7,6.8l-5.2-8.9
					c6.3-4.6,15.6-8.1,26.3-8.1C61.6,108.4,74,120.9,74,135L74,135z"/>
				<path class="st1" d="M123.8,158.3c-3.9,8.7-13.5,23.5-23.4,23.5c-4.9,0-7.7-3.4-8.3-6.9c-2.3,3.6-6,6.9-11.7,6.9
					c-7.1,0-11.6-5.8-11.6-14.9c0-13.7,9.5-27.8,21.1-27.8c4.1,0,8.1,2.6,9.7,5.3l1.4-4.3h10.5c-9,24.6-11.7,31.8-7.8,31.8
					s10.4-7.8,15.6-18.6L123.8,158.3L123.8,158.3z M97.1,151.8c-1.3-1.9-3.6-3.4-6.2-3.4c-6.8,0-11.3,9.5-11.3,17.4
					c0,3.3,1.4,6.1,4.7,6.1C88.9,171.9,93,165.3,97.1,151.8L97.1,151.8z"/>
				<path class="st1" d="M132.2,172.7c0-7.9,7.6-16.6,7.6-21.4c0-1.6-0.6-2.8-2.5-2.8c-8.2,0-16.3,20.9-19.4,32.2h-10.7
					c4.6-13.5,9.1-27.1,13.9-40.6h10.4l-2.9,8.4c3.7-6.3,9.2-9.4,14.3-9.4c5,0,8.3,3.4,8.3,8.4c0.2,7.6-8.1,17.9-8.1,22.3
					c0,1.3,0.8,2.2,2.2,2.2c4,0,10.4-8.1,15.5-18.6l4.5,4.9c-3.9,8.7-13.4,23.5-23.7,23.5C135.4,181.7,132.2,177.9,132.2,172.7
					L132.2,172.7z"/>
				<path class="st1" d="M240.4,158.3c-3.8,8.6-13.5,23.5-23.3,23.5c-6.3,0-9.7-4.5-9.7-9.7c0-6.4,3.3-12.9,7.2-21.4
					c-1.7,0-3.8-0.3-5.7-0.7c-5.5,11.4-12.9,17.4-21.9,18.6c-3.8,7.6-10.7,13.3-19.6,13.3c-8.9,0-14.1-6.4-14.1-15
					c0-14.3,9.5-27.7,23.2-27.7c9,0,13.7,7.5,13.7,15.1c0,1.4-0.1,2.9-0.3,4.3c6.8-2.6,11.2-10.1,14.3-22h9.4
					c-0.4,1.6-0.9,3.2-1.4,4.7c5.1,0.8,12.5,1.1,16.1,1c-4,8.5-10.1,22.3-10.1,27c0,1.6,0.8,2.7,2.2,2.7c4,0,10.8-8.7,15.4-18.6
					L240.4,158.3L240.4,158.3z M179.6,155c0-4-1.6-6.9-4.8-6.9c-5.5,0-10.9,9.7-10.9,17.2c0,4.6,1.9,7,4.9,7
					C174.2,172.3,179.6,162.8,179.6,155L179.6,155z"/>
				<path class="st1" d="M283.5,158.3c-3.9,8.7-13.5,23.5-23.4,23.5c-4.9,0-7.7-3.4-8.3-6.9c-2.3,3.6-6,6.9-11.7,6.9
					c-7.1,0-11.6-5.8-11.6-14.9c0-13.7,9.5-27.8,21.1-27.8c4.1,0,8.1,2.6,9.7,5.3l1.4-4.3h10.5c-9,24.6-11.7,31.8-7.8,31.8
					s10.4-7.8,15.6-18.6L283.5,158.3L283.5,158.3z M256.8,151.8c-1.3-1.9-3.6-3.4-6.2-3.4c-6.8,0-11.3,9.5-11.3,17.4
					c0,3.3,1.4,6.1,4.7,6.1C248.6,171.9,252.7,165.3,256.8,151.8L256.8,151.8z"/>
				<path class="st1" d="M314,172.7c0-7.9,7.7-16.7,7.7-21.4c0-1.6-0.7-2.8-2.5-2.8c-8.3,0-15.8,20.8-19.2,32.2h-10.4
					c7.2-20.3,9.3-25.7,9.3-29.4c0-1.6-0.9-2.9-2.5-2.9c-8.3,0-15.3,19.8-19.1,32.2H267c4.6-13.5,9.1-27.1,13.7-40.6H291l-3.1,8.5
					c4.7-6.3,9.9-9.5,14.8-9.5s8,3.9,7.2,9.4c3.8-6.3,9.7-9.4,14.7-9.4s8.3,3.5,8.3,8.3c0.2,7.4-8,18-8,22.4c0,1.3,0.8,2.2,2.2,2.2
					c4.1,0,10.4-8.1,15.6-18.6l4.4,4.9c-3.8,8.7-13.4,23.5-23.7,23.5C317.2,181.7,314,177.9,314,172.7L314,172.7z"/>
				<path class="st1" d="M386.7,167.7c-3.3,5.6-11.4,14.1-19.8,14.1c-4.9,0-7.7-3.4-8.2-6.9c-2.4,3.6-6,6.9-11.7,6.9
					c-7.2,0-11.6-6-11.6-15c0-13.7,9.5-27.7,21-27.7c4.1,0,8.1,2.6,9.7,5.3l1.5-4.3h10.5c-9.1,24.6-11.8,31.8-7.9,31.8
					c2.5,0,7.3-4.8,10.7-10L386.7,167.7L386.7,167.7z M363.6,151.8c-1.3-1.9-3.5-3.4-6.2-3.4c-6.8,0-11.3,9.4-11.3,17.3
					c0,3.3,1.4,6.2,4.7,6.2C355.4,171.9,359.5,165.3,363.6,151.8L363.6,151.8z"/>
				<path class="st1" d="M167.2,220h-29c-2.8,7.8-5.5,15.8-8.3,23.8h20.2l-3.3,10h-20.3c-3,8.8-5.8,17.6-8.7,26.3h30l-3.3,10.1
					h-41.6c8.9-26.2,18.1-54.2,27.3-80h40.2L167.2,220L167.2,220z"/>
				<path class="st1" d="M204.1,258.4c-3.8,8.7-13.3,23.5-23,23.5c-5,0-8.2-4.1-11.5-12.2l-8.8,11.2h-12.1l17.8-20l-6.2-20.6h10.4
					l4,13.9l10.6-13.9h12.1l-20,22.7c2.6,7.2,4.2,9,7,9c3.7,0,9.7-7.8,15.3-18.6L204.1,258.4L204.1,258.4z"/>
				<path class="st1" d="M178.6,307c7.7-22.2,15.3-44.7,22.9-66.8H212l-3.5,8.7c3.3-5.5,8.5-9.7,14.2-9.7c5.6,0,9.2,4.5,9.2,12.5
					c0,7.1-4.6,17.6-10.6,21.6c6.9-0.7,14.3-7.6,19.5-20.1l4.5,5.6c-9,20.7-20.4,23-32.4,23c-5.2,0-10.4-1-14.2-3.7
					c-2.7,7.6-5.6,17.6-9,28.7L178.6,307L178.6,307z M220.9,253.7c0-3.4-1.2-5.5-3.8-5.5c-4.1-0.1-10.1,6.2-16.1,22.7
					c1.4,1.5,3.9,2.6,6.8,2.6C214.5,273.4,220.9,261.7,220.9,253.7L220.9,253.7z"/>
				<path class="st1" d="M282.3,258.4c-6,11.8-12.3,23.5-30.3,23.5c-10.2,0-18.1-5.7-18.1-16.4c0-13.4,9-26.3,22.4-26.3
					c8.1,0,12.4,6,12.4,12.1c0,12.2-13.7,17.6-24.1,15.3c0.7,4.1,3.7,6.6,9.7,6.6c10,0,16-5.2,23.3-19.8L282.3,258.4L282.3,258.4z
					 M244.8,260.1c6.6,0.7,14.2-2.8,14.3-8.4c0.1-2.4-1.2-4-3.5-4C250.5,247.7,246.1,253.2,244.8,260.1L244.8,260.1z"/>
				<path class="st1" d="M317.6,258.4c-3.8,8.6-13.5,23.5-23.3,23.5c-6.3,0-9.5-4.5-9.5-9.7c0-6.4,3.2-12.9,7.2-21.4
					c-2.1-0.1-4.5-0.4-6.9-1c-4.2,10.1-9.3,17.8-14.7,24.1c-5,6-8.8-0.2-4.4-5.3c7.3-8.5,11.4-20.8,14.2-31.8h9.3
					c-0.4,1.5-0.8,3-1.3,4.5c5,0.9,13.5,1.3,17.4,1.2c-3.9,8.5-10.1,22.3-10.1,27c0,1.6,0.8,2.7,2.3,2.7c3.9,0,10.8-8.7,15.3-18.6
					L317.6,258.4L317.6,258.4z"/>
				<path class="st1" d="M338.6,258.4c-3.8,8.7-13.4,23.5-23.4,23.5c-15.9,0-8.3-20-0.2-41.7h10.7c-6.5,17.4-12.7,31.8-7.2,31.8
					c4,0,10.5-7.8,15.7-18.6L338.6,258.4L338.6,258.4z M317.4,229.3c0-4.8,4-9.2,8.4-9.2c3.1,0,5.3,2.3,5.3,5.3
					c0,4.5-4.1,9.3-8.4,9.3C319.3,234.8,317.4,232.4,317.4,229.3L317.4,229.3z"/>
				<path class="st1" d="M375.2,258.4c-6,11.8-12.3,23.5-30.3,23.5c-10.2,0-18.1-5.7-18.1-16.4c0-13.4,9-26.3,22.4-26.3
					c8.1,0,12.4,6,12.4,12.1c0,12.2-13.7,17.6-24.1,15.3c0.7,4.1,3.7,6.6,9.7,6.6c10,0,16-5.2,23.3-19.8L375.2,258.4L375.2,258.4z
					 M337.8,260.1c6.6,0.7,14.2-2.8,14.3-8.4c0.1-2.4-1.2-4-3.5-4C343.4,247.7,339.1,253.2,337.8,260.1L337.8,260.1z"/>
				<path class="st1" d="M383.7,272.8c0-7.9,7.6-16.6,7.6-21.4c0-1.6-0.6-2.8-2.5-2.8c-8.2,0-16.3,20.9-19.4,32.2h-10.7
					c4.6-13.5,9.1-27.1,13.9-40.6H383l-2.9,8.4c3.7-6.3,9.2-9.4,14.3-9.4c5,0,8.3,3.4,8.3,8.4c0.2,7.6-8.1,17.9-8.1,22.3
					c0,1.3,0.8,2.2,2.2,2.2c4,0,10.4-8.1,15.5-18.6l4.5,4.9c-3.9,8.7-13.4,23.5-23.7,23.5C386.8,281.9,383.7,278.1,383.7,272.8
					L383.7,272.8z"/>
				<path class="st1" d="M452.1,258.4c-6,11.8-12.3,23.5-30.3,23.5c-9.4,0-16.7-6-16.7-16.5c0-13.9,10-26.2,21.9-26.2
					c10.8,0,14.8,10.2,11.5,19.7h-10.8c2.1-6,1.2-10.6-2.2-10.6c-4.7,0-9.5,8.2-9.5,15.8c0,5.7,3,9,8.1,9c10,0,16.1-5.2,23.4-19.8
					L452.1,258.4L452.1,258.4z"/>
				<path class="st1" d="M481,271.7c-4.8,5.3-13,10.2-22.5,10.2c-10.2,0-18.1-5.7-18.1-16.4c0-13.4,9-26.3,22.4-26.3
					c8.1,0,12.4,6,12.4,12.1c0,12-13.7,17.6-24.1,15.3c0.7,4.1,3.7,6.6,9.7,6.6s12.3-5,15.9-8.6L481,271.7L481,271.7z M451.4,260
					c6.6,0.8,14.2-2.9,14.3-8.3c0.1-2.4-1.2-4-3.5-4C457,247.7,452.7,253.2,451.4,260z"/>
			</g>
		</g>
		<g>
			<g>
				<path class="st2" d="M463.8,107.3c-4.4-0.3-6.6-0.4-11-0.9c-0.2,2.4-0.3,3.6-0.6,6.1c4.5,0.4,6.7,0.6,11.2,0.9
					C463.5,111,463.6,109.8,463.8,107.3L463.8,107.3z"/>
			</g>
		</g>
		<g>
			<path class="st2" d="M56,267.2c-8-3.5-14.6-9.9-19.3-17.1c-2.1-3.3-3.9-6.8-5.1-10.5c-0.7-2.4-1.2-4.8-1.1-7.3
				c0.1-1.7,0.7-5.4,3.1-5.1c1.2,0.1,2.2,1.1,2.9,2c0.9,1,1.5,2.3,2.1,3.5c1.3,2.6,2.2,5.4,2.9,8.3c0.2,1,2,0.8,1.9-0.3
				c-0.6-5.7-1.1-11.6,1.2-17c0.9-2,2.2-4.1,4.4-4.8c1.1-0.3,2.2-0.4,3.1,0.2c1.1,0.6,1.9,1.4,2.4,2.6c2.2,5.3,3.1,11.1,3.2,16.8
				c0.1,5.8-0.4,11.6-1.6,17.2c-1.4,6.5-3.7,12.8-6.6,18.8c-0.5,1.1,1.1,2.1,1.6,1c5.5-11.5,8.8-23.9,8.5-36.7
				c-0.1-6.1-1-12.5-3.5-18.2c-1-2.3-3.7-4-6.2-3.8c-2.6,0.3-4.5,1.8-5.9,3.9c-3.8,5.9-3.3,13.3-2.6,20c0.6-0.1,1.2-0.2,1.9-0.3
				c-0.6-2.8-1.5-5.4-2.7-8c-1.1-2.3-2.3-4.8-4.5-6.3c-2.1-1.4-4.7-0.9-6,1.2c-1.5,2.3-1.6,5.4-1.2,8c0.6,4.5,2.3,8.9,4.5,12.9
				c2.3,4.1,5.2,8,8.6,11.3c3.8,3.9,8.2,7.2,13.2,9.4C56.2,269.3,57.2,267.7,56,267.2L56,267.2L56,267.2z"/>
			<path class="st2" d="M67,270.9c-1.9-4-2.4-8.7-1.8-13c0.2-2,0.7-4,1.5-5.8c0.5-1,1-2,1.7-2.8c0.4-0.5,1.8-1.8,2.5-1
				c0.6,0.8,0.2,2.3,0,3.1c-0.4,1.5-0.9,2.9-1.6,4.2c-0.6,1.1,1,2,1.6,1c1.5-2.3,3.2-4.8,5.9-5.9c1-0.4,2.5-0.8,3.5-0.2
				s-0.1,2.8-0.4,3.6c-2,5.1-5.8,9.4-10.2,12.7c-2.6,1.9-5.4,3.5-8.4,4.8c-1.1,0.5-0.1,2.1,1,1.6c6-2.7,11.5-6.5,15.5-11.8
				c1.9-2.5,3.5-5.3,4.5-8.4c0.5-1.5,0.6-3.1-0.8-4.1c-1.2-0.8-2.9-0.7-4.2-0.4c-3.7,0.9-5.9,4.1-7.9,7.1c0.5,0.3,1.1,0.6,1.6,1
				c0.7-1.4,1.3-2.9,1.7-4.4c0.3-1.3,0.6-2.6,0.3-3.9c-0.3-1.2-1.2-2.1-2.4-2.2c-1.4,0-2.7,1-3.6,2c-1.7,1.9-2.6,4.4-3.2,6.9
				c-0.6,2.6-0.8,5.3-0.7,7.9c0.2,3.1,0.9,6.2,2.2,9C65.9,272.9,67.5,272,67,270.9L67,270.9L67,270.9z"/>
		</g>
		<g>
			<path class="st2" d="M110.2,86.7c11.7,3.7,23.5,7.4,35.2,11.1v-2.2c-11.6,4.1-23.3,8.2-34.9,12.3c0.4,0.6,0.9,1.1,1.3,1.7
				c6.6-9.9,13.2-19.9,19.8-29.8c-0.7-0.2-1.4-0.4-2.2-0.6c0.6,6,1.1,11.9,1.7,17.9c0.5,5.8,1.5,11.8,0.5,17.6
				c0.7-0.1,1.4-0.2,2.1-0.3c-6.2-9.4-13-18.3-20.4-26.8c-1-1.1-2.6,0.5-1.7,1.7c7.3,8.3,13.9,17.1,20,26.3c0.5,0.8,1.9,0.8,2.1-0.3
				c1-5.6,0.3-11.1-0.2-16.6c-0.6-6.5-1.2-13-1.8-19.5c-0.1-1.1-1.5-1.6-2.2-0.6c-6.6,9.9-13.2,19.9-19.8,29.8
				c-0.5,0.8,0.4,2.1,1.3,1.7c11.6-4.1,23.3-8.2,34.9-12.3c1.1-0.4,1.1-1.9,0-2.2c-11.7-3.7-23.5-7.4-35.2-11.1
				C109.3,84,108.7,86.2,110.2,86.7L110.2,86.7L110.2,86.7z"/>
			<path class="st2" d="M145,80c6.9-2.8,13.7-5.7,20.6-8.5c-0.3-0.4-0.5-0.7-0.8-1.1C161.2,77,157.6,83.5,154,90
				c0.4,0.1,0.9,0.1,1.3,0.2c-1.1-7.4-2.2-14.7-3.3-22.1c-0.4,0.2-0.8,0.5-1.2,0.7c5.2,5,11.8,10.1,15.6,16.2
				c0.3-0.4,0.5-0.7,0.8-1.1c-6.6-2.1-13.3-3.7-20.1-4.8c-0.9-0.2-1.3,1.2-0.4,1.4c6.8,1.2,13.5,2.8,20.1,4.8
				c0.6,0.2,1.1-0.5,0.8-1.1c-4-6.3-10.5-11.3-15.8-16.5c-0.6-0.5-1.3,0-1.2,0.7c1.1,7.4,2.2,14.7,3.3,22.1c0.1,0.6,1,0.7,1.3,0.2
				c3.6-6.5,7.2-13.1,10.8-19.6c0.3-0.5-0.2-1.3-0.8-1.1c-6.9,2.8-13.7,5.7-20.6,8.5C143.8,78.9,144.2,80.3,145,80L145,80L145,80z"
				/>
		</g>
		<g>
			<g>
				<path class="st2" d="M505.6,176.7c-1.6,7.4-3.2,14.8-4.8,22.1c0.5-0.2,1-0.4,1.5-0.6c-2.6-1.9-6.5-3.5-9.4-1.2
					c-2.3,1.9-2.6,5.4-0.9,7.8c3.9,5.5,14.9,1.3,10.7-5c-1.4-2.1-5.5-3.9-7.4-1.5c-1.7,2.2,0,5.4,2.4,6.2c2.2,0.8,4.2-0.5,3.8-2.9
					c-0.5-2.8-3.9-4.7-6.5-3.4c-2.5,1.3-3,4.7-0.6,6.5c2.9,2.1,6.1-0.6,5.8-3.8c-0.1-1.3-2.2-1.3-2.1,0c0.6-0.3,1.1-0.7,1.7-1
					c0.5,1,1.1,2.1,1.6,3.1c-1.7,0.8-3.4,1.5-5.1,2.3c-1.7-0.4-2.6-1.4-2.7-3.1c-1.1-1.6-0.7-2.6,1.3-3.1c0.9-1.3,1.9-1.7,3.1-0.9
					c1.3,0.3,2.2,0.9,3.3,1.6c0.5,0.4,1.4,0,1.5-0.6c1.6-7.4,3.2-14.8,4.8-22.1C507.9,175.9,505.9,175.4,505.6,176.7L505.6,176.7
					L505.6,176.7z"/>
				<path class="st2" d="M506.3,177.1c0.5,2.4,1,5,2.7,6.9c0.8,0.9,1.5,1.2,2.4,1.8c2.5,1.7,1.6,4.3,0.3,6.6c-0.7,1.2,1.1,2.2,1.8,1
					c1.2-2.1,2.5-5.4,1.1-7.7c-0.6-1.1-1.6-1.3-2.6-1.9c-2.6-1.6-3.2-4.5-3.8-7.3C508,175.2,506,175.8,506.3,177.1L506.3,177.1
					L506.3,177.1z"/>
			</g>
			<g>
				<g>
					<path class="st2" d="M461.9,181.6c-3.2,6.2-6.5,12.4-9.7,18.6c0.5-0.1,1-0.1,1.5-0.2c-2.3-2.9-6.9-5.6-9.9-1.9
						c-2.6,3.2-0.7,7.7,2.9,9c3.4,1.3,8.2-1.1,7.1-5.3c-0.7-2.7-4.9-5.7-7-2.6c-1.7,2.4,1.2,7.5,4.2,5.8c2.7-1.6,0.4-5.8-1.9-6.6
						c-3.2-1-6.3,2.4-4.3,5.3c2,2.9,5.7,1.2,6.3-1.8c0.2-1.2-1.6-1.7-1.8-0.5c2.7-0.9,2.4-0.5-0.9,1.2c-2.9,2.9-4,2-3.5-2.8
						c1.7-0.3,3.4-0.6,5.1-0.8c0.9,0.6,1.8,1.4,2.4,2.4c0.4,0.5,1.2,0.3,1.5-0.2c3.2-6.2,6.5-12.4,9.7-18.6
						C464.1,181.5,462.5,180.5,461.9,181.6L461.9,181.6L461.9,181.6z"/>
					<path class="st2" d="M479.2,190.9c-3.2,6.2-6.5,12.4-9.7,18.6c0.5-0.1,1-0.1,1.5-0.2c-2.3-2.9-6.9-5.6-9.9-1.9
						c-2.6,3.2-0.7,7.7,2.9,9c3.4,1.3,8.2-1.1,7.1-5.3c-0.7-2.7-4.9-5.7-7-2.6c-1.7,2.4,1.2,7.5,4.2,5.8c2.7-1.6,0.4-5.8-1.9-6.6
						c-3.2-1-6.3,2.4-4.3,5.3c2,2.9,5.7,1.2,6.3-1.8c0.2-1.2-1.6-1.7-1.8-0.5c2.7-0.9,2.4-0.5-0.9,1.2c-2.9,2.9-4,2-3.5-2.8
						c1.7-0.3,3.4-0.6,5.1-0.8c0.9,0.6,1.8,1.4,2.4,2.4c0.4,0.5,1.2,0.3,1.5-0.2c3.2-6.2,6.5-12.4,9.7-18.6
						C481.4,190.7,479.8,189.8,479.2,190.9L479.2,190.9L479.2,190.9z"/>
					<path class="st2" d="M462.4,183c5.7,2.8,11.3,5.8,16.8,9c1.1,0.6,2-1,1-1.7c-5.5-3.2-11.1-6.2-16.8-9
						C462.2,180.8,461.3,182.4,462.4,183L462.4,183z"/>
					<path class="st2" d="M460.4,188.6c5.3,2.5,10.5,5,15.6,7.7c1.1,0.6,2.1-1.1,1-1.7c-5.2-2.6-10.4-5.2-15.6-7.7
						C460.3,186.4,459.3,188.1,460.4,188.6L460.4,188.6z"/>
				</g>
				<path class="st2" d="M465.3,183.7c-1.5,0.7-2.7,1.6-3.9,2.8c-0.7,0.6,0,1.9,0.9,1.6c1.6-0.5,3.2-1.1,4.8-1.6l-0.7-1.7
					c-1.1,0.8-2,1.6-2.8,2.6c-0.6,0.7-0.1,1.9,0.9,1.6c1.7-0.5,3.3-1,5-1.6c-0.3-0.5-0.6-1.1-0.9-1.6c-1,1.2-2,2.3-3.1,3.5
					c-0.8,0.8,0.2,1.9,1.2,1.5c1.7-0.7,3.3-1.4,5-1.9c-0.3-0.5-0.6-1.1-0.9-1.6c-1,1.1-1.9,2.3-2.9,3.4c-0.7,0.8,0.2,2.1,1.2,1.5
					c1.5-0.9,2.9-1.5,4.6-2c-0.4-0.5-0.7-0.9-1.1-1.4c-0.3,0.6-0.7,1.2-1.3,1.7c-0.8,0.8,0.2,2,1.2,1.5c1.1-0.6,2.3-1,3.5-1.4
					c-0.4-0.5-0.7-0.9-1.1-1.4c-0.5,0.9-1.1,1.6-1.9,2.2c-0.8,0.7,0.2,2,1.2,1.5c1.1-0.6,2.1-1,3.3-1.3c-0.3-0.5-0.6-1.1-0.9-1.6
					c-0.7,0.7-1.3,1.4-2.1,2c0.4,0.4,0.9,0.9,1.3,1.3c0.5-0.2,0.9-0.5,1.4-0.7c-0.4-0.5-0.7-0.9-1.1-1.4l-1,1.5
					c-0.6,0.8,0,1.7,0.9,1.6c0.9-0.1,1.7-0.2,2.6-0.3c-0.4-0.4-0.8-0.8-1.2-1.2c-0.2,0.4-0.5,0.9-0.7,1.3c-0.4,0.7,0.2,1.4,0.8,1.4
					c0.2,0,0.4,0,0.7,0.1c1.2,0.1,1.2-1.8,0-1.9c-0.2,0-0.4,0-0.7-0.1c0.3,0.5,0.5,1,0.8,1.4c0.5-0.8,0.6-0.9,0.9-1.7
					s-0.6-1.3-1.2-1.2l-2.6,0.3c0.3,0.5,0.6,1.1,0.9,1.6c0.5-0.7,0.9-1.1,1.3-1.9c0.5-0.7-0.3-1.6-1.1-1.4c-0.9,0.2-1.5,0.6-2.3,1.2
					c-0.9,0.8,0.4,2.1,1.3,1.3c0.8-0.6,1.4-1.3,2.1-2c0.6-0.7,0-1.9-0.9-1.6c-1.3,0.4-2.5,0.8-3.7,1.5c0.4,0.5,0.8,1,1.2,1.5
					c0.9-0.8,1.6-1.6,2.2-2.6c0.5-0.7-0.3-1.6-1.1-1.4c-1.4,0.4-2.7,0.9-4,1.6c0.4,0.5,0.8,1,1.2,1.5c0.6-0.6,1.1-1.3,1.6-2.1
					c0.4-0.7-0.3-1.6-1.1-1.4c-1.8,0.5-3.4,1.3-5,2.2c0.4,0.5,0.8,1,1.2,1.5c1-1.1,1.9-2.3,2.9-3.4c0.6-0.7,0-1.9-0.9-1.6
					c-1.9,0.6-3.7,1.3-5.5,2.1c0.4,0.5,0.8,1,1.2,1.5c1.1-1.1,2.1-2.3,3.1-3.5c0.6-0.7,0-2-0.9-1.6c-1.6,0.6-3.3,1.1-5,1.6
					c0.3,0.5,0.6,1.1,0.9,1.6c0.8-0.9,1.4-1.6,2.4-2.3c0.8-0.6,0.4-2.1-0.7-1.7c-1.6,0.5-3.2,1.1-4.8,1.6c0.3,0.5,0.6,1.1,0.9,1.6
					c1.1-1,2.2-1.8,3.5-2.5C467.3,184.8,466.4,183.2,465.3,183.7L465.3,183.7L465.3,183.7z"/>
			</g>
		</g>
		<g>
			<path class="st2" d="M261.5,33.4c-7.1-7.1-14.6-13.8-21.4-21.2c0,0.6,0,1.2,0,1.7c3.4-2.7,6.9-5.4,10.3-8.1l-2.1-0.6
				c1.5,5.1,3.5,10,5.4,14.9c1.8,4.8,3.4,10,6,14.4c0.8,1.4,2.9,0.2,2.2-1.2c-2.6-4.5-4.2-9.7-6-14.6c-1.8-4.7-3.6-9.4-5.1-14.2
				c-0.3-1-1.3-1.1-2.1-0.6c-3.5,2.6-6.9,5.3-10.3,8.1c-0.5,0.4-0.4,1.3,0,1.7c6.7,7.4,14.3,14.1,21.4,21.2
				C260.8,36.3,262.6,34.5,261.5,33.4L261.5,33.4L261.5,33.4z"/>
			<path class="st2" d="M255.9,40.2c-10,0.1-20.1,0.9-30.1,0.5c0.4,0.4,0.8,0.8,1.2,1.2c0.4-4.4,0.9-8.7,1.4-13.1
				c-0.6,0.4-1.3,0.7-1.9,1c4.7,2.4,9.6,4.5,14.4,6.6c4.7,2,9.5,4.5,14.5,5.8c1.5,0.4,2.2-2,0.7-2.4c-5-1.3-9.9-3.8-14.7-5.9
				c-4.6-2-9.3-4-13.7-6.3c-0.9-0.5-1.8,0.1-1.9,1c-0.5,4.3-1,8.7-1.4,13.1c-0.1,0.7,0.6,1.2,1.2,1.2c10,0.4,20.1-0.4,30.1-0.5
				C257.4,42.7,257.4,40.2,255.9,40.2L255.9,40.2L255.9,40.2z"/>
			<path class="st2" d="M270,31.2c0.7-10,0.8-20.1,2-30c-0.5,0.4-1,0.8-1.6,1.2c4.3,0.8,8.6,1.6,12.9,2.5c-0.2-0.6-0.5-1.2-0.7-1.8
				c-2.8,4.5-5.3,9.2-7.8,13.8c-2.4,4.5-5.3,9.1-7,14c-0.5,1.5,1.9,2.2,2.4,0.7c1.7-4.9,4.6-9.6,7.1-14.1c2.4-4.4,4.7-8.9,7.4-13.1
				c0.4-0.6,0.1-1.7-0.7-1.8c-4.3-0.9-8.6-1.7-12.9-2.5c-0.9-0.2-1.5,0.3-1.6,1.2c-1.2,9.9-1.3,20.1-2,30
				C267.4,32.8,269.9,32.8,270,31.2L270,31.2L270,31.2z"/>
		</g>
	</g>
</g>
<g>
	<g>
		<path class="st3" d="M527.5,119.5c-91.3,9.2-177.7-13.4-252.8-66.1c6.3-8.7,12.7-17.3,19.1-26c68.5,48,146.6,68.4,229.9,60.1
			C524.9,98.1,526.2,108.8,527.5,119.5z"/>
	</g>
</g>
<g>
	<g>
		<path class="st2" d="M299.5,46.1c0.6,2.7-0.4,6.6-2.5,10c-0.9,1.4-1.7,2.2-2.3,2.5c-0.6,0.2-1.3,0.1-2.2-0.5
			c-0.6-0.4-1.4-1-2.2-1.7c0.4-0.6,0.5-1,0.6-1.6c0.8,0.9,1.6,1.5,2.3,2c1,0.6,1.6,0.3,2.9-1.7c0.4-0.6,0.6-1,0.9-1.7
			c-3.2,0.5-6.6,0.3-10.9-0.9c0.1-0.7,0.1-1.1,0.1-1.7c4.1,1.4,8,1.8,11.5,1.1c0.3-0.8,0.4-1.3,0.6-2.1c-2.9,0.2-6-0.1-9.3-1.1
			c0.1-0.6,0.1-1,0.1-1.6c2,0.7,3.3,1.1,5.3,1.3c1.5,0.2,2.7,0.2,4.1,0.1c0.1-0.9,0-1.5-0.1-2.2c-1.9,0-3.7-0.3-6.4-1.2
			c0.1-0.7,0.1-1,0.1-1.6c3.3,1.3,5.7,1.7,8.3,1.5c-1.1-0.7-1.6-1.1-2.7-1.8c-0.7-0.4-1.3-0.8-1.8-1.1c0.4-0.5,0.5-0.8,0.9-1.4
			c0.4,0.4,0.9,0.8,1.7,1.3c3.1,2.1,4.6,3.1,7.8,5.1c0.9,0.6,1.4,0.8,1.9,1c-0.3,0.6-0.5,0.8-0.8,1.4c-0.5-0.4-1.1-0.8-1.8-1.3
			c-0.8-0.5-1.2-0.8-2-1.3c-0.8,2.2-1.1,3.1-1.4,4.8c2-0.3,4-0.8,4.8-1.4c0.2,0.7,0.3,1,0.5,1.7c-0.6,0.1-0.7,0.1-1.8,0.5
			c-1,0.3-1.8,0.5-3.6,0.7c-0.3,3.2,0.2,5.6,1.7,8.7c-0.5,0.1-1,0.3-1.7,0.6c-0.8-2.3-1.1-3.4-1.3-5c-0.3-2.7,0-5.8,1-8.9
			c0.2-0.7,0.3-1,0.8-2.4c-0.2-0.1-0.3-0.2-0.6-0.4c-0.9,0.2-1.2,0.2-2.1,0.3C299.6,46.1,299.6,46.1,299.5,46.1z M303.8,40.1
			c0.3-0.5,0.5-0.9,0.7-1.4c0.6,0.4,0.8,0.6,1.4,0.9c-0.4,0.4-0.6,0.8-0.9,1.2c-0.2,0.3-0.3,0.4-0.4,0.7c2.2,1.4,3.2,2.1,5.4,3.5
			c0.8,0.5,1.3,0.8,1.9,1.1c-0.3,0.4-0.5,0.7-0.9,1.4c-0.3,0.5-0.5,0.8-0.8,1.3c-0.4,0.7-0.6,1-0.8,1.5c-0.5-0.3-0.7-0.5-1.2-0.8
			c0.7-1.2,1.1-1.8,1.8-3c-5.2-3.3-7.8-5-12.9-8.5c-0.8,1.2-1.1,1.7-1.9,2.9c-0.5-0.3-0.7-0.5-1.2-0.8c0.4-0.4,0.6-0.8,1-1.4
			c0.3-0.5,0.5-0.8,0.9-1.3c0.4-0.6,0.6-1,0.9-1.4c0.5,0.5,1,0.8,1.7,1.3c2,1.4,3,2,5,3.4C303.6,40.5,303.7,40.4,303.8,40.1z"/>
		<path class="st2" d="M317.3,49.7c0.5-0.8,0.7-1.4,1-2.1c0.5,0.3,0.8,0.5,1.4,0.8c-0.5,0.6-0.8,1.1-1.3,2c-0.3,0.5-0.5,0.8-0.8,1.4
			c0.4,0.2,0.6,0.3,0.9,0.6c0.6,0.4,1.1,0.6,1.7,0.8c-0.3,0.6-0.5,0.9-0.8,1.4c-0.5-0.4-0.8-0.6-1.6-1c-0.8-0.5-1.2-0.7-1.9-1.1
			c-0.2,0.4-0.4,0.6-0.5,0.8C315,54,315,54,314,55.5c0.8,0.5,1.2,0.7,1.9,1.1c0.6,0.4,1,0.5,1.4,0.7c-0.2,0.3-0.3,0.4-1.4,2.3
			c-1.5,2.6-3.5,5.6-4.7,7c-1.3,1.5-1.8,1.6-3.2,0.8c-0.3-0.2-0.8-0.5-1.3-1c0.3-0.6,0.5-1,0.6-1.5c0.5,0.6,1,1,1.4,1.2
			c0.7,0.4,1,0.3,2.2-1.3c1.4-1.9,3-4.3,4.5-6.9c-0.9-0.5-1.3-0.8-2.1-1.3c-1.7,2.6-2.4,3.6-3.5,4.9c-1.5,1.7-3.3,3.1-5.4,4
			c0-0.8-0.1-1.1-0.3-1.7c2.8-1.2,4.3-2.6,6.5-5.6c1.3-1.8,2.4-3.6,4.2-6.6c-0.2-0.1-0.3-0.2-0.6-0.3c-0.7-0.4-1.1-0.6-1.6-0.8
			c0.3-0.6,0.5-0.9,0.9-1.5c0.5,0.4,0.9,0.7,1.5,1.1c0.6,0.4,0.9,0.5,1.5,0.9C316.8,50.5,317,50.2,317.3,49.7z M322.1,55.1
			c-1.3,1-2.3,1.6-3.9,2.3c0-0.5-0.2-0.9-0.5-1.4c2.2-0.8,4.3-2.2,5.9-3.9c0.3-0.3,0.6-0.6,0.7-0.7c0.2-0.3,0.2-0.3,0.3-0.4
			c0.4,0.4,0.7,0.6,1.1,1c-0.5,0.4-0.5,0.5-0.7,0.7c-0.7,0.7-0.9,0.8-1.7,1.5c2.1,1.2,3.2,1.8,5.3,2.9c0.9,0.5,1.5,0.8,2,0.9
			c-0.3,0.6-0.5,0.9-0.8,1.5c-0.5-0.4-1.1-0.7-1.9-1.1C325.6,57.1,324.4,56.5,322.1,55.1z M320.5,59.7c-1,0.7-1.7,1-2.9,1.5
			c-0.1-0.5-0.2-0.8-0.5-1.3c1.8-0.6,2.8-1.2,4.2-2.3c0.6-0.5,0.9-0.9,1.3-1.3c0.4,0.4,0.6,0.6,1,1c-0.2,0.2-0.8,0.7-1.4,1.2
			c-0.2,0.1-0.2,0.2-0.4,0.3c1.7,0.9,2.5,1.4,4.2,2.3c0.7,0.4,1.1,0.6,1.6,0.7c-0.3,0.6-0.5,0.9-0.8,1.5c-0.4-0.4-0.8-0.6-1.5-1
			c-0.8-0.4-1.2-0.7-2-1.1c-1.2,2.1-1.3,2.2-1.9,3c1.1,0.6,1.7,0.9,2.8,1.5c0.7,0.4,1.3,0.6,1.8,0.8c-0.3,0.6-0.5,0.9-0.8,1.5
			c-0.5-0.4-1-0.7-1.7-1.1c-1.1-0.6-1.6-0.9-2.6-1.4c-0.3,1.8-0.3,2.8,0,4.2c0.3,1.6,0.9,2.8,2.1,4.4c-0.6,0.3-1,0.5-1.5,0.9
			c-1.1-1.8-1.7-3.3-1.9-5.3c-0.2-1.3-0.1-2.1,0.1-3.5c-1,1.1-1.9,1.7-3,2.2c-1.6,0.8-3.2,1-5.4,0.9c0.1-0.6,0.1-1.1-0.1-1.7
			c2.1,0.3,4-0.1,5.7-1.1c0.9-0.5,1.6-1.2,2.4-2.1c-0.9-0.5-1.3-0.7-2.2-1.2c-0.8-0.4-1.3-0.7-1.9-0.9c0.3-0.6,0.5-0.9,0.8-1.5
			c0.4,0.4,0.9,0.6,1.7,1.1c0.9,0.5,1.4,0.8,2.4,1.3c0.7-1,1.1-1.5,1.9-3C321.5,60.3,321.2,60.1,320.5,59.7z"/>
		<path class="st2" d="M333,60.5c0.4,0.2,0.5,0.3,0.7,0.4c0.3,0.1,0.5,0.2,1.1,0.5c2.4,1,8.9,3.6,11.4,4.6c1.1,0.4,2.1,0.8,2.5,0.8
			c-0.3,0.7-0.4,1.1-0.6,1.8c-0.8-0.4-1.5-0.6-2.4-0.7c-1.5-0.2-3.3,0-4.8,0.5c-2.3,0.8-4,2.2-4.9,4.1s-0.6,4,0.8,5.6
			c0.8,0.9,1.9,1.8,2.7,2.2c0,0,0.1,0.1,0.2,0.1c-0.4,0.7-0.7,1-1.1,1.7c-0.2-0.2-0.3-0.2-0.6-0.4c-1.9-1.3-2.9-2.4-3.6-3.9
			c-0.9-1.8-0.9-3.9,0-5.8c1.3-2.7,3.8-4.5,7-5.2c0.8-0.2,1.5-0.3,2.4-0.3c-1.3-0.3-2.3-0.7-4.5-1.6c-4.2-1.7-6-2.4-7.1-2.6
			C332.5,61.6,332.7,61.2,333,60.5z M344.7,69.5c0.3,1.4,0.4,2.3,0.4,4.1c-0.5,0.1-0.8,0.1-1.3,0.1c0.1-1.6,0-2.8-0.3-4.1
			C343.9,69.6,344.2,69.5,344.7,69.5z M347.1,69.3c0.3,1.4,0.4,2.3,0.4,4.1c-0.5,0.1-0.8,0.1-1.3,0.2c0-1.6-0.1-2.8-0.3-4.1
			C346.4,69.4,346.6,69.3,347.1,69.3z"/>
		<path class="st2" d="M349.4,74.8c0.4,0.3,0.8,0.5,1.5,0.8c0.4,0.2,0.6,0.2,0.9,0.4c0.6,0.3,1.1,0.4,1.6,0.6
			c-0.4,0.7-0.6,1.2-1.1,2.4c-0.8,1.8-1.1,2.8-1.9,4.6c0,0.9,0,1.3,0.4,2c0.7,1.4,1.8,2.3,4.4,3.3c4.3,1.7,7.1,2.6,9.4,3.2
			c-0.6,0.7-0.7,0.8-1.1,1.5c-2.4-0.8-5.1-1.8-7.8-2.9c-3.4-1.4-4.5-2.1-5.5-3.5c-0.5-0.8-0.8-1.6-0.9-2.7c-1.3,0.6-1.7,0.8-3.4,1.4
			c-0.3,0.1-0.4,0.2-1,0.4c0-0.7,0-1.1-0.1-1.8c1.1-0.1,2.6-0.5,4.4-1.4c0.9-2.3,1.4-3.4,2.4-5.6c-0.5-0.2-0.7-0.3-1.2-0.5
			c-0.7-0.3-1-0.4-1.5-0.5C349,75.7,349.1,75.4,349.4,74.8z M354.4,66.6c0.7,2.1,0.9,3.1,1.3,5.5c-0.6,0.2-0.9,0.4-1.5,0.6
			c-0.3-2.5-0.5-3.5-1.2-5.7C353.6,66.9,353.9,66.8,354.4,66.6z M366.1,79.7c0.9,0.3,1.3,0.4,1.7,0.5c-0.3,0.5-0.5,1-0.8,1.8
			c-1,2.8-1.5,4.1-2.6,6.9c-0.5,1.2-0.9,1.3-2.8,0.6c-0.4-0.2-1.4-0.4-1.5-0.6s0.2-0.9,0.2-1.5c0.7,0.5,1.3,0.7,2,1
			c0.5,0.2,0.8,0.2,0.9-0.1c1.1-2.9,1.6-4.4,2.7-7.3c-3.8-1.4-5.7-2.2-9.4-3.7c-1.1,2.7-1.7,4.1-2.8,6.8c-0.4,0.9-0.6,1.6-0.8,2.2
			c-0.6-0.2-0.9-0.4-1.5-0.6c0.3-0.6,0.6-1.2,1-2.1c1-2.5,1.5-3.7,2.6-6.2c0.4-0.9,0.5-1.3,0.7-1.9c0.4,0.2,0.7,0.4,1.5,0.7
			c0.1,0,0.1,0.1,0.2,0.1c0.8-2,1.2-3,2-5c0.4-0.9,0.6-1.4,0.7-2c0.5,0.3,1,0.5,1.7,0.8c2,0.8,3,1.2,5,2c1,0.4,1.3,0.5,1.9,0.6
			c-0.2,0.4-0.5,1-0.8,1.9C367.3,76.6,366.9,77.6,366.1,79.7z M361.9,75.4c0.3-0.8,0.5-1.3,0.6-1.7c0.3,0.2,0.8,0.4,1.5,0.7
			c1,0.4,1.5,0.6,2.5,1c0.3-0.7,0.4-1.1,0.7-1.8c-2.4-0.9-3.7-1.4-6.1-2.4c-0.9,2.2-1.3,3.4-2.2,5.6c0.9,0.4,1.3,0.5,2.2,0.9
			C361.3,76.7,361.5,76.3,361.9,75.4z M362.2,85.3c-0.3,0.7-0.4,1.1-0.5,1.4c-0.4-0.2-0.8-0.4-1.4-0.6c-1.2-0.5-1.9-0.7-3.1-1.2
			c-0.2,0.5-0.3,0.7-0.5,1.2c-0.5-0.2-0.7-0.3-1.2-0.5c0.2-0.5,0.4-0.8,0.6-1.4c0.5-1.2,0.7-1.9,1.2-3.1c0.3-0.6,0.4-1,0.5-1.5
			c0.2,0.2,0.6,0.3,1.4,0.7c1.1,0.5,1.7,0.7,2.8,1.1c0.8,0.3,1.2,0.4,1.5,0.5c-0.2,0.4-0.3,0.7-0.6,1.4
			C362.7,84,362.6,84.5,362.2,85.3z M357.6,83.7c1.3,0.5,2,0.8,3.4,1.3c0.4-1,0.6-1.5,1-2.5c-1.3-0.5-2-0.8-3.4-1.3
			C358.2,82.2,358,82.7,357.6,83.7z M364.9,79.2c0.4-1.1,0.6-1.6,1-2.7c-1.1-0.4-1.7-0.7-2.8-1.1c-0.4,1.1-0.6,1.6-1.1,2.7
			C363.2,78.5,363.8,78.8,364.9,79.2z"/>
		<path class="st2" d="M375,87.1c-1.8,0.8-2.8,1.7-3.2,2.8c-0.4,1.1,0,2.1,1,3c0.7,0.6,2,1.2,3.7,1.8c2.7,0.9,5.3,1.3,6.7,1.1
			c-0.2,0.8-0.3,1.2-0.4,2.1c-0.3-0.1-0.4-0.1-0.8-0.1c-2-0.2-4.1-0.7-6-1.3c-2.1-0.7-3.8-1.6-4.7-2.4c-1.3-1.3-1.7-2.8-1.2-4.5
			c0.5-1.6,1.9-2.8,4-3.8C374.6,86.3,374.7,86.5,375,87.1z M375.9,77.5c1.3,0.9,2.9,1.7,5.2,2.4c2.4,0.8,4.1,1.2,5.3,1.2
			c-0.2,0.7-0.2,1-0.4,1.6c-1.5,0.2-3.8,1-6.4,2c-0.3-0.5-0.4-0.8-0.7-1.3c1.7-0.6,2.3-0.8,3.4-1.1c0.3-0.1,0.3-0.1,0.6-0.1
			c0.2,0,0.2,0,0.5-0.1c-1.3-0.2-2-0.3-3.2-0.7c-1.4-0.5-3.1-1.2-4.4-1.9c-0.4-0.2-0.4-0.2-0.6-0.3
			C375.4,78.5,375.6,78.2,375.9,77.5z M384.9,84.7c0.6,1.7,0.8,2.4,1.1,3.9c-0.5,0.1-0.7,0.2-1.2,0.4c-0.3-1.5-0.5-2.3-1.1-3.9
			C384.2,84.9,384.4,84.8,384.9,84.7z M387.2,84c0.6,1.7,0.8,2.4,1.1,3.9c-0.5,0.1-0.7,0.2-1.2,0.4c-0.3-1.5-0.5-2.3-1.1-3.9
			C386.5,84.2,386.7,84.1,387.2,84z"/>
		<path class="st2" d="M403.3,85.2c0.2-0.6,0.2-0.9,0.3-1.4c0.6,0.2,0.9,0.2,1.6,0.4c-0.3,0.8-0.4,1.1-0.9,3.1c0,0.1,0,0.2-0.1,0.3
			c4,1,5.6,1.3,6.3,1.4c-0.2,0.7-0.2,1.1-0.4,1.8c-0.8-0.3-1.5-0.5-4-1.1c-0.3-0.1-0.5-0.1-2.3-0.5c-0.5,1.9-0.7,2.9-1.2,4.9
			c0.1,1.1,0,2-0.2,3c-0.6,2.6-2.3,4.6-4.6,5.7c-1.1,0.5-2.2,0.8-4,1.1c-0.2-0.9-0.2-1.1-0.5-1.8c1.9-0.1,3-0.4,4-0.9
			c1.9-0.9,3.1-2.3,3.8-4.6c-0.3,0.5-0.5,0.8-0.9,1.1c-0.9,0.7-1.9,0.9-3.1,0.6c-2.1-0.6-3.1-2.6-2.5-4.8c0.6-2.3,2.7-3.6,4.8-3
			c1,0.3,1.8,0.9,2.2,1.8c0.1-0.3,0.1-0.4,0.3-1.4c0-0.1,0.1-0.3,0.1-0.6c0.1-0.3,0.1-0.3,0.3-1.3c-4.2-1-8.5-2-10-2.1
			c0.2-0.7,0.3-1.1,0.5-1.8c0.4,0.1,0.5,0.2,0.8,0.3c0.6,0.2,0.6,0.2,4,1c2,0.5,3.7,0.8,5.1,1.2C403,86.4,403.1,86,403.3,85.2z
			 M400.4,92.4c-0.3-0.4-0.7-0.6-1.3-0.8c-1.3-0.4-2.6,0.5-3.1,1.9c-0.4,1.4,0.2,2.7,1.5,3c1.5,0.4,2.8-0.5,3.3-2.2
			C401.1,93.5,401,92.9,400.4,92.4z"/>
		<path class="st2" d="M419.1,93.4c1.3,1.5,1.7,2,2.6,3.3c2-1.4,3.3-2.5,5.1-4.5c-2.5-0.5-3.8-0.7-6.3-1.2c-2.1,1.9-4.2,3.2-7,4.4
			c-0.2-0.5-0.3-0.9-0.6-1.4c2.5-0.9,4.5-2.1,6.3-3.6c1.5-1.3,2.5-2.4,3.1-3.5c0.5,0.4,0.8,0.6,1.3,0.9c-1.3,1.4-1.3,1.4-1.8,2
			c1.9,0.4,2.8,0.5,4.6,0.9c0.8,0.2,1.4,0.2,2,0.2c0.2,0.5,0.3,0.7,0.6,1.2c-0.3,0.3-0.4,0.4-0.9,0.9c-2.4,2.7-5,4.7-8.4,6.7
			c3.2,0.6,4.8,0.9,8,1.5c0.7,0.1,1.1,0.2,1.6,0.2c-0.2,0.6-0.3,1.2-0.5,2c-0.4,2.4-0.6,3.6-1.1,6.1c-0.1,0.8-0.2,1.7-0.3,2.2
			c-0.6-0.1-0.9-0.2-1.6-0.3c0.1-0.6,0.2-0.8,0.3-1.4c-3.7-0.6-5.6-1-9.3-1.7c-0.1,0.6-0.2,0.8-0.3,1.4c-0.6-0.1-0.9-0.2-1.6-0.3
			c0.2-0.6,0.5-1.5,0.6-2.2c0.5-2.4,0.8-3.6,1.3-6c-1.7,0.8-3.2,1.3-5.5,1.9c-0.1-0.6-0.2-1-0.5-1.7c3.7-0.7,6.6-1.8,9.7-3.8
			c-0.8-1.4-1.3-2-2.5-3.4C418.4,93.8,418.7,93.7,419.1,93.4z M417.1,106.8c3.7,0.7,5.6,1.1,9.3,1.7c0.4-2.4,0.6-3.6,1.1-5.9
			c-3.7-0.6-5.5-1-9.1-1.7C417.8,103.3,417.6,104.4,417.1,106.8z"/>
		<path class="st2" d="M443.4,92.9c0.1-1.1,0.2-1.6,0.2-2.2c0.7,0.1,1,0.1,1.7,0.2c-0.2,0.6-0.3,1.2-0.4,2.2
			c-0.1,1.1-0.2,1.6-0.4,2.7c2.7,0.3,4,0.5,6.7,0.8c0.9,0.1,1.6,0.1,2.3,0.1c-0.1,0.7-0.1,1.1-0.2,1.8c-0.7-0.1-1.4-0.3-2.2-0.4
			c-2.7-0.3-4-0.4-6.7-0.8c-0.3,2.1-0.4,3.2-0.7,5.3c2,0.2,2.9,0.4,4.9,0.6c0.7,0.1,1.1,0.1,1.6,0.1c-0.2,0.6-0.3,1.2-0.3,2
			c-0.3,2.7-0.5,4.1-0.8,6.8c-0.1,0.9-0.1,1.7-0.1,2.3c-0.7-0.1-1-0.1-1.7-0.2c0.1-0.6,0.1-0.9,0.2-1.6c-4.5-0.5-6.7-0.8-11.2-1.4
			c-0.1,0.6-0.1,0.9-0.2,1.6c-0.7-0.1-1-0.1-1.6-0.2c0.2-0.7,0.4-1.5,0.5-2.3c0.4-2.7,0.6-4.1,1-6.8c0.1-0.8,0.2-1.4,0.2-2
			c0.5,0.1,0.9,0.2,1.6,0.3c1.8,0.3,2.7,0.4,4.4,0.6c0.3-2.1,0.4-3.2,0.7-5.3c-2.5-0.3-3.7-0.5-6.1-0.9c-1-0.2-1.6-0.2-2.3-0.2
			c0.1-0.7,0.2-1.1,0.3-1.8c0.6,0.2,1.3,0.4,2.2,0.5c2.4,0.4,3.7,0.5,6.1,0.9C443.2,94.5,443.2,94,443.4,92.9z M436.4,109.8
			c4.5,0.6,6.7,0.9,11.2,1.4c0.3-2.6,0.5-3.9,0.8-6.5c-4.4-0.5-6.6-0.8-11-1.4C437,105.9,436.8,107.2,436.4,109.8z"/>
		<path class="st2" d="M458.8,102.1c-0.4,2.7-0.8,5.2-1.4,7.1c-0.6,2.2-1.3,3.6-2.5,5.5c-0.3-0.5-0.7-1-1.1-1.4
			c1-1.5,1.6-2.6,2.1-4.1c0.9-2.8,1.6-6.9,2.2-12.9c0.1-1.5,0.2-2.4,0.2-3.1c0.7,0.2,1.2,0.2,2.6,0.3c4.5,0.3,6.7,0.5,11.2,0.7
			c1.1,0,1.6,0,2.2,0c-0.1,0.8-0.1,1-0.2,1.7c0,0.9-0.1,1.4-0.1,2.3c0,0.8-0.1,1,0,1.6c-0.8-0.1-1.5-0.1-2.2-0.2
			c-5.1-0.2-7.6-0.4-12.6-0.8c-0.1,0.8-0.1,1.2-0.2,1.9c5.2,0.4,7.8,0.6,13.1,0.8c1.4,0.1,1.9,0.1,2.6,0c0,0.6,0,1-0.1,1.6
			c-0.7-0.1-1.3-0.2-2.5-0.2c-2.8-0.1-4.2-0.2-7-0.4c-0.7,1.4-1.1,1.9-1.8,2.9c3.1,0.1,3.7,0.1,6.9-0.1c-0.5-0.6-0.9-0.9-1.8-1.8
			c0.5-0.3,0.7-0.4,1.2-0.6c1.8,1.7,2.5,2.5,4,4.5c-0.5,0.3-0.7,0.5-1.2,0.8c-0.6-0.9-0.8-1.1-1.2-1.7c-3.1,0.2-6.2,0.3-11.1,0.2
			c-0.4,0-0.5,0-0.8,0c0-0.7-0.1-1-0.1-1.6c0.4,0.1,0.5,0.1,0.8,0.1c0.1,0,0.1,0,1.9,0.1c0.8-1.1,1.3-1.9,1.8-3
			C461.7,102.3,460.7,102.2,458.8,102.1z M470.9,109.8c1.4,0.1,1.8,0,2.4,0c0,0.6,0,1-0.1,1.6c-0.7-0.1-1.3-0.2-2.4-0.2
			c-1.8-0.1-2.7-0.1-4.4-0.2c-0.1,1.1-0.1,1.7-0.2,2.8c2.2,0.1,3.3,0.2,5.5,0.3c1.7,0.1,2.2,0.1,2.8,0c0,0.7,0,1-0.1,1.7
			c-0.7-0.1-1.5-0.2-2.9-0.3c-4.8-0.2-7.2-0.3-11.9-0.7c-1.2-0.1-2.1-0.1-2.8-0.1c0.1-0.7,0.1-1,0.2-1.7c0.5,0.1,1.2,0.2,2.6,0.3
			c2.1,0.2,3.1,0.2,5.1,0.4c0.1-1.1,0.1-1.7,0.2-2.8c-1.5-0.1-2.2-0.1-3.6-0.2c-1.1-0.1-1.7-0.1-2.4-0.1c0.1-0.6,0.1-1,0.1-1.6
			c0.6,0.1,1,0.2,2.4,0.3c1.4,0.1,2.2,0.2,3.6,0.2c0.1-1.1,0.1-1.5,0-2.1c0.6,0,1,0.1,1.6,0.1c-0.1,0.6-0.2,1-0.3,2.1
			C468.2,109.7,469.1,109.7,470.9,109.8z M472.6,98.2c0.1-1,0.1-1.6,0.1-2.6c-5.3-0.2-7.9-0.4-13.2-0.8c-0.1,1-0.1,1.6-0.2,2.6
			C464.6,97.8,467.3,98,472.6,98.2z"/>
		<path class="st2" d="M478.9,98.7c0.7,0.2,1.6,0.3,2.7,0.3c0.4,0,0.7,0,1.3,0c0.5-3.1,0.6-3.5,0.6-4.7c0.7,0.1,1,0.1,1.7,0.2
			c-0.1,0.6-0.1,0.6-0.4,2.4c-0.1,0.8-0.2,1.2-0.3,1.9c1.7-0.2,2.9-0.5,3.9-0.9c0,0.7,0.1,1,0.1,1.7c-0.2,0-0.2,0-0.6,0.1
			c-1.1,0.3-2.6,0.5-3.7,0.6c-0.4,2-1,4.9-1.7,7.2c-0.8,2.7-1.5,4.6-2.8,7.7c-0.7-0.3-1-0.5-1.6-0.8c1.8-3.2,3.7-9,4.6-13.9
			c-0.4,0-0.7,0-1.5,0s-1,0-1.8-0.1h-0.1c0,0-0.2,0-0.4,0C478.8,99.7,478.8,99.4,478.9,98.7z M488.5,107.9c-0.5,0.6-0.5,0.7-0.7,1
			c-0.4,0.5-0.6,1.2-0.6,1.8c0,1.5,1.4,2.3,4,2.3c1.7,0,3.7-0.4,5-1c0.1,0.8,0.1,1.1,0.2,1.9c-0.3,0.1-0.3,0.1-1,0.2
			c-1.5,0.3-2.9,0.5-4.1,0.5c-3.7,0.1-5.7-1.3-5.6-3.8c0-1.1,0.4-1.9,1.6-3.7C487.8,107.5,488,107.7,488.5,107.9z M495.4,103.4
			c-1.1-0.1-1.7-0.1-2.6-0.1c-2,0-3.5,0.3-5.5,0.9c-0.1-0.7-0.1-1-0.1-1.7c2.6-0.6,4-0.9,5.9-0.9c0.4,0,0.7,0,2.4,0
			C495.4,102.4,495.4,102.7,495.4,103.4z"/>
		<path class="st2" d="M500.8,96.3c0.4,0,0.6,0.1,1,0c2.4-0.1,4.9-0.6,5.7-1.1c0.4,0.6,0.6,0.9,1,1.5c-1.1,1-1.6,1.5-2.4,2.9
			c-1.9,2.9-2.8,5.7-2.8,8.2c0.1,3,2.1,5.2,4.7,5c2-0.1,3.8-1.7,4.5-3.8c0.5-1.5,0.6-3.2,0.5-5.3c-0.2-2.9-0.9-6.2-1.8-8
			c0.6-0.3,0.9-0.4,1.5-0.7c0.4,1.2,1.4,3,2.3,4.4c1.1,1.5,2,2.5,3.5,3.6c0.4,0.3,0.5,0.4,0.9,0.5c-0.3,0.7-0.4,1.1-0.7,1.8
			c-0.4-0.4-0.4-0.4-1-0.8c-1.3-1.1-2.2-2.1-3.1-3.5c-0.4-0.6-0.6-0.9-0.8-1.4c-0.3-0.5-0.3-0.5-0.5-0.9c0.8,2.3,1.1,3.7,1.2,5.7
			c0.1,1.9-0.1,3.6-0.6,5.2c-0.8,2.8-3.2,4.7-5.9,4.8c-3.6,0.2-6.2-2.6-6.3-6.7c-0.1-2.8,0.9-5.7,2.7-8.6c0.7-1.1,0.7-1.1,1.9-2.4
			c-1.5,0.6-1.7,0.6-4.8,1c-0.4,0-0.4,0-0.6,0.1C500.9,97.4,500.8,97,500.8,96.3z M515.3,93.7c1,1.3,1.5,2,2.3,3.5
			c-0.4,0.3-0.6,0.5-1,0.8c-0.8-1.6-1.4-2.4-2.3-3.6C514.7,94.2,514.9,94,515.3,93.7z M517.3,92.4c1,1.1,1.6,2,2.4,3.3
			c-0.4,0.3-0.6,0.5-1,0.8c-0.7-1.3-1.3-2.3-2.3-3.4C516.7,92.8,516.9,92.7,517.3,92.4z"/>
	</g>
</g>
</svg>
