<?xml version="1.0" encoding="UTF-8"?>
<svg id="icon_insta" data-name="icon_insta" xmlns="http://www.w3.org/2000/svg" viewBox="0 0 20.58 20.58">
  <defs>
    <style>
      .cls-1 {
        fill: #fff;
      }
    </style>
  </defs>
  <g id="icon_insta_in" data-name="icon_insta_in">
    <g>
      <path class="cls-1" d="M10.29,1.85c2.75,0,3.07,.01,4.16,.06,1,.04,1.55,.21,1.91,.35,.48,.19,.82,.41,1.19,.77,.36,.36,.58,.71,.77,1.18,.14,.37,.31,.91,.35,1.92,.05,1.08,.06,1.41,.06,4.16s-.01,3.07-.06,4.16c-.05,1-.21,1.55-.35,1.91-.19,.48-.41,.83-.77,1.19-.36,.35-.7,.58-1.19,.77-.36,.14-.91,.3-1.91,.35-1.09,.05-1.41,.06-4.16,.06s-3.07-.01-4.16-.06c-1-.04-1.55-.21-1.91-.35-.48-.19-.82-.42-1.18-.77-.36-.36-.58-.7-.77-1.19-.14-.36-.31-.91-.35-1.91-.05-1.09-.06-1.41-.06-4.16s0-3.08,.06-4.16c.05-1.01,.21-1.55,.35-1.92,.19-.47,.41-.82,.77-1.18,.36-.36,.7-.58,1.18-.77,.36-.14,.91-.31,1.91-.35,1.09-.05,1.41-.06,4.16-.06m0-1.85c-2.79,0-3.15,.01-4.24,.06-1.09,.05-1.84,.23-2.49,.48-.68,.26-1.25,.61-1.83,1.18-.57,.57-.92,1.15-1.19,1.82-.26,.65-.43,1.4-.48,2.5-.05,1.1-.06,1.45-.06,4.25s.01,3.15,.06,4.24c.05,1.09,.22,1.84,.48,2.5,.26,.67,.61,1.25,1.19,1.82,.57,.58,1.14,.93,1.83,1.19,.65,.26,1.4,.43,2.49,.47,1.1,.05,1.45,.06,4.24,.06s3.14-.01,4.24-.06c1.09-.05,1.84-.22,2.5-.47,.67-.27,1.25-.61,1.82-1.19,.57-.57,.92-1.15,1.19-1.82,.25-.65,.43-1.4,.48-2.5,.05-1.1,.06-1.45,.06-4.24s-.01-3.15-.06-4.25c-.05-1.1-.22-1.84-.48-2.5-.26-.68-.61-1.25-1.19-1.82-.57-.57-1.15-.92-1.82-1.18-.65-.26-1.4-.43-2.5-.48-1.1-.05-1.45-.06-4.24-.06"/>
      <path class="cls-1" d="M10.29,5.01c-2.92,0-5.29,2.37-5.29,5.29s2.37,5.28,5.29,5.28,5.28-2.36,5.28-5.28-2.37-5.29-5.28-5.29m0,8.72c-1.89,0-3.43-1.53-3.43-3.43s1.54-3.43,3.43-3.43,3.43,1.54,3.43,3.43-1.54,3.43-3.43,3.43"/>
      <path class="cls-1" d="M17.02,4.8c0,.68-.55,1.23-1.24,1.23s-1.23-.56-1.23-1.23,.55-1.24,1.23-1.24,1.24,.55,1.24,1.24"/>
    </g>
  </g>
</svg>