<?xml version="1.0" encoding="UTF-8"?>
<svg id="_レイヤー_2" data-name="レイヤー 2" xmlns="http://www.w3.org/2000/svg" xmlns:xlink="http://www.w3.org/1999/xlink" viewBox="0 0 179.27 101">
  <defs>
    <style>
      .cls-1 {
        fill: #678796;
      }

      .cls-2 {
        fill: #897f46;
      }

      .cls-3 {
        fill: url(#_名称未設定グラデーション_2);
      }
    </style>
    <radialGradient id="_名称未設定グラデーション_2" data-name="名称未設定グラデーション 2" cx="-5322.75" cy="96.8" fx="-5322.75" fy="96.8" r="69.53" gradientTransform="translate(1776.74 -8.6) scale(.32)" gradientUnits="userSpaceOnUse">
      <stop offset="0" stop-color="#b3ab7d"/>
      <stop offset=".5" stop-color="#92864b"/>
      <stop offset="1" stop-color="#847a43"/>
    </radialGradient>
  </defs>
  <g id="_00" data-name="00">
    <g>
      <path class="cls-3" d="M109.55,33.25c-2.13-.96-6.08-1.1-9.68,.24-5.1,1.9-6.34,3.11-8.1,4.16-1.9-.45-3.32-.83-4.27-1.12,0,0,4.13-3.44,7.15-8.83,.81,.17,1.95,.26,2.96,.24,3.79-.15,9.79-1.73,11.68-7.18,2.44-7.03-1.59-11.89-5.4-14.86-.39-.3-.8-.59-1.22-.87,2.02-3.31,4.35-4.37,6.56-4.54l-.1-.49c-1.29-.07-4.93,.44-8.39,3.95-2.82-1.36-6.18-2.09-10.06-2.02-11.93,.21-21.94,8.32-21.71,19.42,.11,5.41,4.06,8.04,8.59,8.06,7.28,.07,13.06-7.2,11.95-14.64-.46-3.36-2.39-5.06-4.3-5.12-2.44-.14-4.08,1.59-4.63,2.67-.42,.74-.69,1.47-.98,2.26l.5,.19s1.42-4.39,5.01-4.21c1.58,.08,2.93,1.78,3.15,4.05v.09c.51,5.18-4.13,14.07-10.78,13.81-3.43-.23-4.94-3.57-4.96-7.11,.02-10.55,7.51-18.49,18.31-18.65,3.11-.05,6.42,.43,9.31,1.94-2.96,3.49-5.66,7.76-8.71,16.87-2.24,6.7-2.45,10.86-5.27,14.55-4.42-1.39-9.03-2.42-12.27-2.55-4.16-.12-6.74,1.92-6.24,4.28,.5,2.36,4.25,3.15,6.84,3.2,3.47,.06,7.42-.86,10.27-2.27,.84,.27,2.42,.77,3.92,1.23,0,0-1.61,1.13-2.98,1.91-.38,.22-1.9,1.04-3.23,1.68l.3,.56c.92-.42,2.09-.99,3.28-1.66,1.34-.84,2.3-1.39,3.52-2.21,3.25,.96,7.04,2.13,10.56,2.19,2.68,.05,5.88-.9,8.33-2.44,.9-.57,1.69-1.24,2.32-2.04,.68-.86,1.87-3.37-1.21-4.76Zm-12.97-10.42c1.94-6.44,2.15-10.5,5.57-16.85,4.06,3.12,4.83,7.56,3.11,13.08-1.65,5.3-5.77,7.41-8.23,7.72-.56,.07-1.33,.15-1.95,.08l.28-.67c.41-.83,.87-2.23,1.22-3.36Zm-22.36,17.4c-2.1,0-5.61-.68-5.87-2.42-.25-1.68,2.01-2.2,5.36-1.89,2.33,.15,7.13,1.73,9.57,2.42-1.9,.94-5.6,1.86-9.06,1.88Zm34.6-2.38c-1.94,1.24-4.85,1.62-8.65,1.35-2.23-.15-4.99-.78-7.46-1.34,2.44-1.49,5.6-3.24,8.91-3.88,3.3-.64,5.43-.42,6.99,.19,1.98,.77,1.65,2.76,.21,3.68Z"/>
      <g>
        <path class="cls-2" d="M89.64,77.83c-33.3,0-64.15,.3-89.64,.81v.34c25.48,.51,56.34,.81,89.64,.81s64.15-.3,89.64-.81v-.34c-25.48-.51-56.34-.81-89.64-.81Z"/>
        <g>
          <g>
            <path class="cls-2" d="M76.45,71.49c-2.92-.09-4.44-2.58-4.44-4.65,0-2.83,2.04-4.02,3.75-4.16,.78-.07,2.77,.05,2.92,1.1l.13,.03,.44-1.67c-.79-.33-1.96-.5-2.58-.5-4.54,0-6.61,3.07-6.61,5.95,0,1.73,.63,3.04,1.59,3.95,.95,.91,2.29,1.36,3.74,1.36,1.58,0,3.74-.75,4.66-2.73l-.16-.06c-.73,1.12-1.91,1.44-3.42,1.39Z"/>
            <path class="cls-2" d="M33.96,55.1h-5.62v.19c1.05,.08,2.2,1.42,2.2,3.35,0,1.36,.02,10.26,.02,11.4,0,1.61-1.49,2.39-2.14,2.43v.15h6.52v-.15c-.65-.03-2.14-.8-2.14-2.41v-14.09c.14,0,.21,0,.41,0,3.39,0,5.67,1.67,5.67,4.26,0,2.15-1.98,4.64-5.14,4.81v.19c1.9,0,3.83,.03,5.27-.79,1.11-.63,2.5-1.79,2.5-4.24,0-1.84-1.15-5.1-7.54-5.1Z"/>
            <path class="cls-2" d="M45.29,62.99v-1.54s-1.04,1.12-2.97,1.12v.17c.67,.21,.96,.73,.96,2.12v5.2c0,1.61-1.34,2.37-1.93,2.4v.15h5.88v-.15c-.58-.03-1.93-.81-1.93-2.42,0,0,0-3.62,0-4.15s-.02-1.47,.19-1.71c1.07-1.39,2.95-1.17,3.85-.59l.03-.12c-.62-.81-2.42-2.2-4.08-.49Z"/>
            <path class="cls-2" d="M53.44,70.07v-5.34c.01-1.09,.06-2.37,.12-3.31,0,0-1.22,1.15-3.09,1.15l-.02,.18c.62,.08,.97,.7,.97,2.11v5.19c0,1.61-1.36,2.38-1.95,2.41v.15h5.88v-.15c-.59-.03-1.92-.79-1.92-2.39Z"/>
            <path class="cls-2" d="M67.58,70.04v-5.1c0-1.79-.93-3.31-3.2-3.31-1.39,0-2.96,.96-4.13,1.72,0-.23,0-1.29,.05-1.91,0,0-1.16,1.12-3.03,1.12l-.02,.18c.63,.11,.97,.71,.97,2.11v5.18c0,1.61-1.34,2.39-1.93,2.42v.15h5.88v-.15c-.58-.03-1.93-.81-1.93-2.42v-5.66c.39-.51,1.61-1.44,2.73-1.47,1.86-.05,2.57,1.12,2.57,2.64v4.5c0,1.61-1.34,2.38-1.93,2.41v.15h5.88v-.15c-.59-.03-1.93-.81-1.93-2.42Z"/>
            <path class="cls-2" d="M86.47,61.63c-3.28,0-5.49,2.75-5.49,6.03,0,1.17,.33,2.43,1.15,3.47,.79,1.01,2.19,1.76,3.96,1.76,3.76,0,4.31-2.69,4.31-2.69l-.16-.06c-.55,1.33-2.07,1.43-2.87,1.43-2.92,0-4.86-2.77-4.49-5.86h7.52s.02-.5-.01-.87c-.18-1.78-1.56-3.19-3.91-3.19Zm1.88,3.23h-5.32c.21-1.14,1.52-2.3,3.13-2.3,2.5,0,2.19,2.3,2.19,2.3Z"/>
            <path class="cls-2" d="M52.42,59.81c.77,0,1.39-.62,1.39-1.4s-.62-1.4-1.39-1.4-1.4,.63-1.4,1.4,.63,1.4,1.4,1.4Z"/>
          </g>
          <g>
            <path class="cls-2" d="M132.04,71.38c-1.24,0-1.41-1.47-1.44-3.12v-5.24s2.72,0,2.72,0v-.94l-2.71-.04v-2.16s-1.51,2.52-3.2,2.63v.24s1.1,.13,1.17,1.52l.02,5.33c0,1.84,.35,3.28,2.18,3.27,1.63,0,2.72-1.02,2.81-2.6l-.16-.03c-.22,.7-.72,1.13-1.38,1.13Z"/>
            <path class="cls-2" d="M108.29,55.25c.65,.03,2.14,.84,2.14,2.46v5.21h-8.04v-5.21c0-1.61,1.49-2.42,2.14-2.46v-.14h-6.43v.14c.65,.03,2.14,.84,2.14,2.46v12.31c0,1.61-1.49,2.42-2.14,2.45v.14h6.43v-.14c-.65-.03-2.13-.84-2.13-2.45v-5.9h8.04v5.9c0,1.61-1.49,2.42-2.14,2.45v.14h6.43v-.14c-.65-.03-2.14-.84-2.14-2.45v-12.31c0-1.61,1.49-2.42,2.14-2.46v-.14h-6.43v.14Z"/>
            <path class="cls-2" d="M140.29,61.61c-3.29,0-5.51,2.75-5.51,6.04,0,1.18,.33,2.43,1.15,3.47,.79,1.01,2.19,1.76,3.97,1.76,3.76,0,4.32-2.7,4.32-2.7l-.16-.06c-.52,1.25-2.07,1.43-2.88,1.43-2.93,0-4.87-2.77-4.5-5.87h7.54s.02-.5-.01-.87c-.18-1.78-1.56-3.2-3.91-3.2Zm1.89,3.24h-5.33c.21-1.15,1.53-2.3,3.14-2.3,2.51,0,2.19,2.3,2.19,2.3Z"/>
            <path class="cls-2" d="M120.63,61.61c-3.09,0-5.59,2.49-5.59,5.56s2.5,5.56,5.59,5.56,5.59-2.49,5.59-5.56-2.5-5.56-5.59-5.56Zm0,10.18c-1.76,0-3.19-2.07-3.19-4.63s1.43-4.63,3.19-4.63,3.19,2.07,3.19,4.63-1.43,4.63-3.19,4.63Z"/>
            <path class="cls-2" d="M149.14,70.03v-12.85c0-1.06,.01-2.79,.05-3.67,0,0-1.8,1.58-3.3,1.58v.17c.81,.16,1.19,.59,1.19,2.88l.03,11.93c0,1.61-1.33,2.37-1.92,2.4v.14h5.86v-.14c-.59-.03-1.92-.82-1.92-2.43Z"/>
          </g>
        </g>
      </g>
      <g>
        <g>
          <path class="cls-1" d="M104.34,100.05c1.98,0,2.49-1.89,2.99-4.3l-.03-.03c-.63,1.1-1.65,2.03-2.91,2.03-.99,0-1.8-.63-1.8-1.76,0-1.07,1.26-6,1.26-6.36,0-.19-.08-.28-.27-.39h1.72c-.71,3.25-1.43,5.53-1.45,6.68,0,.5,.44,.88,.95,.88,1.35,0,2.68-1.81,3.18-4.06,.2-.93,.65-2.77,.65-3.1,0-.19-.08-.28-.27-.39h1.72l-1.64,7.4c-.55,2.51-1.23,4.36-3.97,4.36-.65,0-1.7-.17-2.54-1.04l.36-1.61c.09,.99,1.02,1.7,2.05,1.7Z"/>
          <path class="cls-1" d="M95.87,92.76l3.09-2.85c.17-.15,.28-.26,.28-.43,0-.14-.12-.22-.28-.25h2.58c-.34,.08-.68,.29-.9,.48l-3.31,2.94,.03,.03c.12-.03,.34-.08,.71-.08,.73,0,2.2,.37,2.2,1.99,0,.84-.45,1.87-.45,2.47,0,.19,.09,.36,.26,.43h-1.69c.22-.99,.54-2.38,.54-2.89,0-1.02-1.01-1.3-1.76-1.3-.51,0-1.08,.09-1.5,.2-.45,2.07-.71,3.37-.71,3.54,0,.23,.12,.36,.26,.45h-2.1c.29-.12,.48-.42,.57-.85,.34-1.52,2.16-9.57,2.16-10.1,0-.19-.08-.28-.26-.39h1.67l-1.44,6.56,.03,.03Z"/>
          <path class="cls-1" d="M89.18,86.93c-1.71,0-2.61,1.03-2.61,2.05,0,2.17,5.09,2.31,5.09,5.41,0,1.68-1.61,3.46-4.16,3.46-2.1,0-3.15-1.09-3.61-1.09-.24,0-.38,.19-.46,.38l.63-2.96c.43,1.83,1.42,2.55,3.34,2.55s2.67-1.17,2.67-2.18c0-2.23-5.09-2.15-5.09-5.33,0-2.04,1.94-3.4,4.06-3.4,1.77,0,2.56,.76,3,.76,.25,0,.4-.19,.49-.32l-.54,2.55c-.33-1.2-1.55-1.88-2.83-1.88Z"/>
        </g>
        <g>
          <path class="cls-1" d="M23.69,87.85h-.03c-.96,4.38-1.96,8.71-1.96,9.09,0,.29,.06,.4,.26,.56h-1.82c.31-.14,.42-.23,.57-.82,.42-1.55,2.17-9.62,2.17-9.96,0-.29-.06-.4-.26-.56h1.89l4.18,9.17h.03c1.28-5.95,1.89-8.34,1.89-8.61,0-.29-.06-.4-.26-.56h1.81c-.31,.14-.4,.23-.54,.8l-2.34,10.53h-1.24l-4.33-9.65Z"/>
          <path class="cls-1" d="M62.65,100.05c1.98,0,2.49-1.89,2.99-4.3l-.03-.03c-.63,1.1-1.65,2.03-2.91,2.03-.99,0-1.8-.63-1.8-1.76,0-1.07,1.26-6,1.26-6.36,0-.19-.08-.28-.27-.39h1.72c-.71,3.25-1.43,5.53-1.45,6.68,0,.5,.44,.88,.95,.88,1.35,0,2.68-1.81,3.18-4.06,.2-.93,.65-2.77,.65-3.1,0-.19-.08-.28-.27-.39h1.72l-1.64,7.4c-.55,2.51-1.23,4.36-3.97,4.36-.65,0-1.7-.17-2.54-1.04l.36-1.61c.09,.99,1.02,1.7,2.05,1.7Z"/>
          <path class="cls-1" d="M38,96.25c0-.25,.02-.42,.03-.62h-.03c-.57,1.19-1.62,2.09-3.11,2.09-.7,0-2.47-.48-2.47-3s1.76-5.71,4.5-5.71c1.19,0,1.86,.57,2.13,.97h.05l.19-.76h1.24c-.53,2.49-1.35,5.89-1.35,6.9,0,.57,.08,1.02,.42,1.38h-1.39c-.17-.46-.2-.86-.2-1.25Zm-.93-6.31c-1.96,0-3.32,2.97-3.32,4.66,0,1.01,.43,2.2,1.61,2.2,.97,0,2.5-1.28,3.08-3.9l.42-1.93c-.37-.65-1.04-1.02-1.78-1.02Z"/>
          <path class="cls-1" d="M75.26,96.25c0-.25,.02-.42,.03-.62h-.03c-.57,1.19-1.62,2.09-3.11,2.09-.7,0-2.47-.48-2.47-3s1.76-5.71,4.5-5.71c1.19,0,1.86,.57,2.13,.97h.05l.19-.76h1.24c-.53,2.49-1.35,5.89-1.35,6.9,0,.57,.08,1.02,.42,1.38h-1.39c-.17-.46-.2-.86-.2-1.25Zm-.93-6.31c-1.96,0-3.32,2.97-3.32,4.66,0,1.01,.43,2.2,1.61,2.2,.97,0,2.5-1.28,3.08-3.9l.42-1.93c-.37-.65-1.04-1.02-1.78-1.02Z"/>
          <path class="cls-1" d="M54.65,97.72c-1.16,0-2.95-.62-2.95-3.16s1.92-5.55,4.72-5.55c1.16,0,2.95,.62,2.95,3.15s-1.92,5.55-4.72,5.55Zm.05-.93c2.15,0,3.34-3.32,3.34-4.86,0-1.04-.7-1.99-1.67-1.99-2.15,0-3.34,3.31-3.34,4.84,0,1.05,.7,2.01,1.67,2.01Z"/>
          <path class="cls-1" d="M44.24,99.86c1.89,0,2.98-1.56,3.42-4.38l-.03-.03c-.65,1.1-1.36,2.15-2.92,2.15s-2.49-1.27-2.49-3.06c0-2.4,1.81-5.52,4.45-5.52,1.14,0,1.95,.68,2.18,.99l.19-.77h1.61c-.29,.12-.43,.45-.51,.77l-1.36,6.12c-.6,2.69-1.55,4.66-4.58,4.66-1.21,0-2.01-.49-2.65-1.02l.33-1.62c.42,1.13,1.18,1.72,2.37,1.72Zm2.69-9.91c-2.03,0-3.39,2.92-3.39,4.67,0,.96,.48,2.04,1.56,2.04,1.36,0,2.44-1.84,2.77-3.01l.77-2.75c-.45-.53-1.04-.94-1.72-.94Z"/>
        </g>
        <g>
          <path class="cls-1" d="M134.02,89.94c0,.5,.15,3.88,.22,5.78h.03l3.62-6.5h.83l.68,6.5h.03c1.33-3,2.86-5.75,2.86-6.11,0-.19-.15-.29-.34-.39h1.95c-.45,.15-.59,.43-.73,.73l-3.65,7.55h-1.16l-.65-6.31h-.03l-3.49,6.31h-1.14l-.36-7.58c-.02-.33-.14-.59-.34-.7h2.17c-.31,.12-.5,.23-.5,.71Z"/>
          <path class="cls-1" d="M157.6,89.93c-1.18,0-2.7,1.8-3.12,3.89-.28,1.37-.64,2.96-.64,3.23,0,.24,.13,.36,.27,.45h-2.1c.3-.13,.49-.42,.58-.86,.74-3.34,1.46-6.65,1.46-7.12,0-.17-.09-.34-.27-.41h1.66l-.36,1.73,.03,.03c.52-.97,1.49-1.98,2.65-1.98,.5,0,.89,.19,1.16,.44l-.33,1.54c-.06-.52-.49-.94-.99-.94Z"/>
          <path class="cls-1" d="M122.8,87.25h-2.61c-1.01,4.65-2.12,9.4-2.12,9.7s.06,.4,.26,.56h-2.27c.31-.14,.4-.23,.54-.82l2.13-9.43h-2.47c-.62,0-.8,.17-1.07,.65l.37-1.73h8.24l-.37,1.73c-.03-.42-.2-.65-.63-.65Z"/>
          <path class="cls-1" d="M125.79,97.72c-1.16,0-2.95-.62-2.95-3.16s1.92-5.55,4.72-5.55c1.16,0,2.95,.62,2.95,3.15s-1.92,5.55-4.72,5.55Zm.05-.93c2.15,0,3.34-3.32,3.34-4.86,0-1.04-.7-1.99-1.67-1.99-2.15,0-3.34,3.31-3.34,4.84,0,1.05,.7,2.01,1.67,2.01Z"/>
          <path class="cls-1" d="M147.25,97.72c-2.15,.01-3.39-1.39-3.39-3.28,0-2.69,2.18-5.43,4.96-5.43,1.58,0,2.51,.91,2.51,1.95,0,2.29-3.29,3.31-4.92,3.31-.57,0-.97-.01-1.21-.08-.02,.09-.02,.19-.02,.28,0,1.33,.77,2.32,2.15,2.32,1.19,0,2.44-.85,2.94-1.67l-.34,1.69c-.6,.46-1.49,.91-2.69,.91Zm1.04-4.7c1.28-.51,1.72-1.28,1.72-1.93s-.57-1.14-1.27-1.14c-1.64,0-3.18,2.01-3.42,3.51,1.14,0,1.87,0,2.97-.43Z"/>
        </g>
      </g>
    </g>
  </g>
</svg>