<?xml version="1.0" encoding="UTF-8"?>
<svg id="_レイヤー_2" data-name="レイヤー 2" xmlns="http://www.w3.org/2000/svg" viewBox="0 0 298.55 69.26">
  <defs>
    <style>
      .cls-1 {
        fill: #ff912e;
        stroke: #ff912e;
        stroke-miterlimit: 10;
        stroke-width: .75px;
      }
    </style>
  </defs>
  <g id="_00" data-name="00">
    <g>
      <path class="cls-1" d="M45.04,7.97H24.95c-1.92,5.4-3.83,10.93-5.75,16.47h13.99l-2.27,6.89h-14.06c-2.06,6.11-4.05,12.21-6.03,18.18H31.55l-2.27,6.96H.52C6.7,38.36,13.02,18.98,19.41,1.08h27.83l-2.2,6.89Z"/>
      <path class="cls-1" d="M50.72,44.54c0-5.47,5.25-11.5,5.25-14.84,0-1.14-.43-1.92-1.7-1.92-5.68,0-11.29,14.48-13.42,22.29h-7.38c3.19-9.37,6.32-18.74,9.58-28.12h7.17l-1.99,5.82c2.56-4.33,6.39-6.53,9.87-6.53s5.75,2.34,5.75,5.82c.14,5.25-5.61,12.35-5.61,15.41,0,.92,.57,1.49,1.49,1.49,2.77,0,7.17-5.61,10.72-12.85l3.12,3.41c-2.7,6.04-9.3,16.26-16.4,16.26-4.26,0-6.46-2.63-6.46-6.25Z"/>
      <path class="cls-1" d="M87.36,34.53c-3.98,8.8-10.01,15.83-19.67,19.1-4.62,10.86-8.8,15.27-15.27,15.27-4.19,0-7.95-1.99-7.95-5.89,0-5.33,4.9-9.23,16.97-11,.64-1.49,1.21-3.12,1.85-4.97,2.2-6.25,4.97-14.56,8.38-25.06h7.24c-3.48,10.08-6.11,18.32-8.45,24.71,5.61-2.91,9.73-7.17,13.7-15.55l3.19,3.41Zm-27.9,22.36c-5.32,.99-8.66,2.7-8.66,5.04,0,.99,.99,1.63,1.99,1.63,2.63,0,4.54-2.2,6.67-6.67Zm13.99-42.46c0-3.34,2.77-6.39,5.75-6.39,2.13,0,3.76,1.56,3.76,3.69,0,3.12-2.84,6.46-5.82,6.46-2.34,0-3.69-1.63-3.69-3.76Z"/>
      <path class="cls-1" d="M116.04,32.54c-1.56,2.98-6.82,6.39-12.21,5.54-2.06,6.96-7.46,12.71-14.91,12.71-6.04,0-9.73-4.4-9.73-10.37,0-9.87,6.6-19.17,16.05-19.17,6.25,0,9.51,5.18,9.51,10.44v.57c3.05,.78,6.11-.28,7.95-3.34l3.34,3.62Zm-18.67-.28c0-2.77-1.14-4.76-3.34-4.76-3.83,0-7.53,6.74-7.53,11.93,0,3.19,1.35,4.83,3.41,4.83,3.69,0,7.46-6.6,7.46-12Z"/>
      <path class="cls-1" d="M99.71,62c0-8.45,11.64-11.57,20.66-12.78l2.13-6.11c-1.42,2.06-4.19,3.62-6.96,3.62-9.94,0-7.67-11.43-2.2-24.78h7.45c-3.48,8.52-7.31,18.67-2.56,18.67,5.32,0,8.16-10.79,10.72-18.67h7.38c-3.76,10.86-6.82,20.16-10.58,31.1-3.48,10.08-9.58,15.83-17.18,15.83-5.89,0-8.87-3.2-8.87-6.89Zm18.96-7.45c-5.25,.5-12,3.12-12,6.46,0,1.21,.78,2.13,2.56,2.13,3.27,0,6.75-2.48,9.44-8.59Z"/>
      <path class="cls-1" d="M169.93,32.32c5.04,1.7,8.73,5.75,8.73,10.37,0,9.23-10.15,14.48-20.87,14.48-8.09,0-17.04-3.05-20.38-5.4l3.55-6.75c1.35,.85,2.91,1.63,4.47,2.34,3.48-10.51,7.31-21.02,10.65-31.52h8.09l-4.26,12.42c9.8,.14,19.17-3.9,19.17-11.5,0-5.96-6.32-9.09-12.71-9.09-5.68,0-11.57,1.78-16.12,4.54l-3.05-6.6c5.04-3.34,12.42-5.25,19.17-5.25,11.5,0,20.87,6.18,20.87,15.48,0,7.95-7.46,14.77-17.32,16.47Zm.43,10.44c0-4.47-6.32-7.81-12.64-8.17-1.77,5.11-3.48,10.15-4.97,15.27,1.92,.43,3.83,.71,5.75,.71,6.46,0,11.93-2.91,11.86-7.81Z"/>
      <path class="cls-1" d="M220.83,34.53c-2.7,6.04-9.37,16.26-16.19,16.26-3.05,0-5.4-2.13-5.54-5.75-2.06,3.19-5.25,5.75-9.23,5.75-7.53,0-9.3-8.24-.43-28.83h7.45c-6.6,15.34-7.88,22.08-4.19,22.08,3.98,0,6.53-6.11,12.07-22.08h7.53c-6.03,16.69-8.24,22.01-5.4,22.01s7.24-5.4,10.79-12.85l3.12,3.41Z"/>
      <path class="cls-1" d="M259.6,30.76c-3.83,4.33-10.15,6.96-16.61,4.83,8.52,9.58,4.97,33.3-8.17,33.3-10.15,0-10.01-10.22-1.35-33.09-3.05,.64-6.25,.57-9.09,0,6.74,13.92,2.13,33.09-9.73,33.09-10.37,0-9.58-10.65-.43-34.43,2.84-7.46,6.67-18.6,10.58-28.97h7.46c-4.05,10.22-6.46,17.04-9.37,24.14,3.9,1.42,8.45,1.63,12.85,0,2.63-7.03,5.75-15.83,8.87-24.14h7.38c-3.55,8.88-6.39,16.4-9.37,24.57,5.18,1.7,11.79,.35,15.48-3.48l1.49,4.19Zm-40.04,7.53c-4.83,13.49-8.31,24.35-3.83,24.35,6.25,0,7.17-16.12,3.83-24.35Zm19.74,0c-4.83,13.49-8.31,24.42-3.83,24.42,6.25,0,7.24-16.19,3.83-24.42Z"/>
      <path class="cls-1" d="M284.73,34.53c-4.12,8.17-8.52,16.26-20.94,16.26-7.03,0-12.5-3.98-12.5-11.36,0-9.3,6.25-18.18,15.48-18.18,5.61,0,8.59,4.12,8.59,8.38,0,8.45-9.51,12.21-16.69,10.58,.5,2.84,2.56,4.54,6.67,4.54,6.89,0,11.08-3.62,16.12-13.7l3.27,3.48Zm-25.91,1.21c4.54,.5,9.8-1.92,9.87-5.82,.07-1.63-.85-2.77-2.41-2.77-3.55,0-6.53,3.83-7.46,8.59Z"/>
      <path class="cls-1" d="M298.08,41.06c-2.27,3.91-7.88,9.73-13.7,9.73-9.87,0-8.17-10.44-3.83-23.22h-3.05l1.92-5.61h3.12l3.69-9.87h7.38c-1.49,3.69-2.77,6.96-3.9,9.87h5.96l-1.99,5.61h-6.03c-4.47,12.5-4.54,16.4-.99,16.4,1.7,0,5.04-3.34,7.38-6.89l4.05,3.98Z"/>
    </g>
  </g>
</svg>