<?xml version="1.0" encoding="UTF-8"?>
<svg id="_レイヤー_2" data-name="レイヤー 2" xmlns="http://www.w3.org/2000/svg" viewBox="0 0 254.96 56.13">
  <defs>
    <style>
      .cls-1 {
        fill: #ff912e;
        stroke: #ff912e;
        stroke-miterlimit: 10;
        stroke-width: .75px;
      }
    </style>
  </defs>
  <g id="_00" data-name="00">
    <g>
      <path class="cls-1" d="M39.43,7.26h-14.48c-5.61,15.9-11.29,32.66-16.4,48.49H.52C5.92,39.92,11.39,23.17,17,7.26H2.58L4.93,.38H41.77l-2.34,6.89Z"/>
      <path class="cls-1" d="M59.67,33.82c-2.56,5.96-9.3,16.26-16.05,16.26-4.33,0-6.67-3.12-6.67-6.75,0-4.4,2.27-8.95,4.97-14.84-1.56-.07-3.62-.28-5.4-.85-3.12,8.95-7.81,17.47-11.5,22.36l-4.83-3.62c5.4-7.03,10.65-18.89,12.21-27.62h6.6l-.64,2.84c3.27,.85,10.08,1.21,13.06,1.14-2.77,5.89-7.03,15.41-7.03,18.67,0,1.14,.57,1.85,1.56,1.85,2.7,0,7.46-6.03,10.65-12.85l3.05,3.41Z"/>
      <path class="cls-1" d="M89.56,33.82c-2.7,6.04-9.37,16.26-16.19,16.26-3.41,0-5.32-2.34-5.75-4.76-1.56,2.48-4.12,4.76-8.09,4.76-4.9,0-8.02-4.05-8.02-10.29,0-9.51,6.6-19.24,14.63-19.24,2.84,0,5.61,1.77,6.67,3.69l.99-2.98h7.24c-6.25,17.04-8.09,22.01-5.4,22.01s7.17-5.4,10.79-12.85l3.12,3.41Zm-18.46-4.47c-.92-1.35-2.48-2.34-4.26-2.34-4.69,0-7.81,6.6-7.81,12.07,0,2.27,.99,4.19,3.27,4.19,3.12,0,5.96-4.54,8.8-13.92Z"/>
      <path class="cls-1" d="M104.11,33.82c-2.63,6.04-9.3,16.26-16.19,16.26-11,0-5.75-13.84-.14-28.83h7.38c-4.47,12.07-8.8,22.01-4.97,22.01,2.77,0,7.24-5.4,10.86-12.85l3.05,3.41Zm-14.7-20.09c0-3.34,2.77-6.39,5.82-6.39,2.13,0,3.69,1.56,3.69,3.69,0,3.12-2.84,6.46-5.82,6.46-2.34,0-3.69-1.63-3.69-3.76Z"/>
      <path class="cls-1" d="M130.1,40.35c-2.2,3.91-7.81,9.73-13.7,9.73-4.26,0-6.46-2.63-6.46-6.25,0-5.47,5.25-11.5,5.25-14.84,0-1.14-.43-1.92-1.7-1.92-5.68,0-11.29,14.48-13.42,22.29h-7.38c3.19-9.37,6.32-18.74,9.58-28.12h7.17l-1.99,5.82c2.56-4.33,6.25-6.53,9.73-6.53s5.75,2.41,5.82,5.75c.07,5.11-5.54,12.42-5.54,15.48,0,.92,.43,1.49,1.21,1.49,1.77,0,5.04-3.34,7.45-6.89l3.98,3.98Z"/>
      <path class="cls-1" d="M184.34,.38c-10.65,18.39-21.09,36.92-30.6,55.38h-9.94c.92-18.46,2.13-36.92,4.12-55.38h8.38c-2.06,15.12-3.62,30.32-4.54,45.44,7.88-14.91,15.34-30.32,23.5-45.44h9.09Z"/>
      <path class="cls-1" d="M195.27,33.82c-2.63,6.04-9.3,16.26-16.19,16.26-11,0-5.75-13.84-.14-28.83h7.38c-4.47,12.07-8.8,22.01-4.97,22.01,2.77,0,7.24-5.4,10.86-12.85l3.05,3.41Zm-14.7-20.09c0-3.34,2.77-6.39,5.82-6.39,2.13,0,3.69,1.56,3.69,3.69,0,3.12-2.84,6.46-5.82,6.46-2.34,0-3.69-1.63-3.69-3.76Z"/>
      <path class="cls-1" d="M220.62,33.82c-4.12,8.17-8.52,16.26-20.94,16.26-7.03,0-12.5-3.98-12.5-11.36,0-9.3,6.25-18.18,15.48-18.18,5.61,0,8.59,4.12,8.59,8.38,0,8.45-9.51,12.21-16.69,10.58,.5,2.84,2.56,4.54,6.67,4.54,6.89,0,11.08-3.62,16.12-13.7l3.27,3.48Zm-25.91,1.21c4.54,.5,9.8-1.92,9.87-5.82,.07-1.63-.85-2.77-2.41-2.77-3.55,0-6.53,3.83-7.46,8.59Z"/>
      <path class="cls-1" d="M212.31,41.41c0-5.32,3.05-14.13,6.18-20.16h7.67c-3.05,6.32-6.46,14.27-6.46,18.96,0,1.7,.57,2.77,1.99,2.77,5.04,0,8.66-13.21,11.43-21.73h7.24c-2.13,6.46-5.4,15.34-5.4,19.17,0,1.42,.5,2.63,2.2,2.63,3.9,0,10.15-10.29,9.8-21.8h7.6c.57,14.06-8.38,28.9-18.67,28.9-4.19,0-6.39-2.48-7.03-5.32-2.13,3.19-5.04,5.32-8.95,5.32-5.25,0-7.6-3.83-7.6-8.73Z"/>
    </g>
  </g>
</svg>