<?xml version="1.0" encoding="UTF-8"?>
<svg id="_レイヤー_2" data-name="レイヤー 2" xmlns="http://www.w3.org/2000/svg" viewBox="0 0 389.87 68.31">
  <defs>
    <style>
      .cls-1 {
        fill: #ff912e;
        stroke: #ff912e;
        stroke-miterlimit: 10;
        stroke-width: .75px;
      }
    </style>
  </defs>
  <g id="_レイヤー_1-2" data-name="レイヤー 1">
    <g>
      <path class="cls-1" d="M32.55,31.88c9.73-1.68,17.08-8.4,17.08-16.24C49.63,6.47,40.39.38,29.05.38c-6.65,0-13.93,1.89-18.9,5.18l3.01,6.51c4.48-2.73,10.29-4.48,15.89-4.48,6.3,0,12.53,3.08,12.53,8.96,0,7.49-9.24,11.48-18.9,11.34l4.2-12.25h-7.98c-3.29,10.36-7.07,20.72-10.5,31.08-1.54-.7-3.08-1.47-4.41-2.31l-3.5,6.65c3.29,2.31,12.11,5.32,20.09,5.32,10.57,0,20.58-5.18,20.58-14.28,0-4.55-3.64-8.54-8.61-10.22ZM21.28,49.87c-1.89,0-3.78-.28-5.67-.7,1.47-5.04,3.15-10.01,4.9-15.05,6.23.35,12.46,3.64,12.46,8.05.07,4.83-5.32,7.7-11.69,7.7Z"/>
      <path class="cls-1" d="M116.34,40.07c-4.69,0-.91-10.01,2.52-18.41h-7.35c-1.15,2.81-2.16,5.53-2.93,8.08-1.77,1.99-4.24,2.67-6.72,2.14.07-.7.14-1.33.14-2.03,0-5.39-2.73-8.82-7.14-8.82-2.94,0-6.16,1.75-8.05,4.13,2.31-6.37,5.04-13.37,7.56-19.74h-7.49c-3.08,8.89-6.3,17.57-9.24,26.46-.17.51-.33,1.01-.47,1.49-3.26,5.93-6.87,9.99-9.26,9.99-2.66,0-.84-4.9,5.32-21.7h-7.14l-.98,2.94c-1.05-1.89-3.78-3.64-6.58-3.64-7.91,0-14.42,9.59-14.42,18.97,0,6.16,3.08,10.15,7.91,10.15,3.92,0,6.44-2.24,7.98-4.69.42,2.38,2.31,4.69,5.67,4.69,3.84,0,7.62-3.28,10.67-7.21,1.19,5.72,6.06,7.35,9.35,7.35,6.72,0,12.32-5.95,14.84-12.74,2.28.42,4.54.05,6.5-.74-.62,5.64,1.04,9.35,6.65,9.35,2.73,0,5.46-1.54,6.86-3.57l-2.1,6.02c-8.89,1.19-20.37,4.27-20.37,12.6,0,3.64,2.94,6.79,8.75,6.79,7.49,0,13.51-5.67,16.94-15.61,3.71-10.78,6.72-19.95,10.43-30.66h-7.28c-2.52,7.77-5.32,18.41-10.57,18.41ZM54.74,43.36c-2.24,0-3.22-1.89-3.22-4.13,0-5.39,3.08-11.9,7.7-11.9,1.75,0,3.29.98,4.2,2.31-2.8,9.24-5.6,13.72-8.68,13.72ZM86.17,43.5c-2.52,0-3.92-2.66-2.03-8.4,1.82-5.04,4.9-7.84,7.49-7.84,1.61,0,2.87,1.19,2.87,3.43,0,5.53-4.34,12.81-8.33,12.81ZM107.44,62.26c-1.75,0-2.52-.91-2.52-2.1,0-3.29,6.65-5.88,11.83-6.37-2.66,6.02-6.09,8.47-9.31,8.47Z"/>
      <path class="cls-1" d="M181.65,49.31c-1.82,0-3.5-.56-5.11-1.47,5.74-5.6,10.15-13.3,11.34-21.21h-7.21c-1.47,6.51-4.76,12.46-8.82,16.59-2.59-3.71-4.55-8.61-5.74-14,8.19-4.13,16.94-8.68,16.94-18.2,0-5.11-3.57-10.57-10.57-10.57-9.24,0-15.05,7.14-15.05,16.73,0,2.87.21,5.81.63,8.75-7.07,3.85-13.65,8.61-13.65,17.71,0,8.33,6.86,12.74,14.56,12.74,3.78,0,7.77-1.4,11.55-3.71,2.94,2.31,6.44,3.71,10.43,3.71,4.55,0,8.96-2.1,11.27-4.48l-3.22-6.02c-2.17,2.17-4.41,3.43-7.35,3.43ZM171.57,6.96c2.31,0,3.92,2.1,3.92,4.48,0,5.04-4.69,8.05-10.43,10.99-.21-1.89-.28-3.71-.28-5.53,0-6.37,3.43-9.94,6.79-9.94ZM160.01,49.1c-4.41,0-7.56-2.17-7.56-6.65,0-4.13,2.94-7,6.93-9.52,1.4,5.46,3.57,10.64,6.44,14.7-1.96.98-3.92,1.47-5.81,1.47Z"/>
      <path class="cls-1" d="M245.28,7.87l2.31-6.79h-36.33l-2.31,6.79h14.21c-5.53,15.68-10.92,32.2-16.24,47.81h7.91c5.04-15.61,10.64-32.13,16.17-47.81h14.28Z"/>
      <path class="cls-1" d="M385.41,36.57c-2.31,3.5-5.6,6.79-7.28,6.79-.91,0-1.47-.7-1.47-1.82,0-3.22,4.2-12.6,6.93-18.41-2.66.07-8.54-.21-11.97-.91.35-.98.63-1.96.91-3.01h-6.37c-1.89,7.49-4.69,15.89-9.66,21.7-.37.43-.65.86-.86,1.3-2.1,1.33-4.39,1.92-7.12,1.92-4.06,0-6.09-1.68-6.58-4.48,7.07,1.61,16.45-2.1,16.45-10.43,0-4.2-2.94-8.26-8.47-8.26-7.26,0-12.65,5.58-14.52,12.5-3.26,5.88-6.9,9.91-9.28,9.91-2.1,0-1.82-2.17.77-9.8,1.96-5.95,5.67-16.52,10.15-28.14h-7.42c-3.29,9.08-6.95,18.89-9.23,25.73l-.42-.46c-3.5,7.35-7.91,12.67-10.64,12.67-3.01,0-.21-7.28,10.99-37.94h-7.28c-2.1,6.44-4.2,12.81-6.44,19.18-1.05-1.89-3.78-3.64-6.65-3.64-7.61,0-13.95,9.03-14.32,18.07-2.1,2.7-4.12,4.33-5.63,4.33-3.01,0-.21-7.28,10.99-37.94h-7.28c-2.1,6.44-4.2,12.81-6.44,19.18-1.05-1.89-3.78-3.64-6.65-3.64-5.52,0-10.36,4.75-12.76,10.81-1.19.35-2.47.37-3.76.04v-.56c0-5.18-3.22-10.29-9.38-10.29-9.31,0-15.82,9.17-15.82,18.9,0,5.88,3.64,10.22,9.59,10.22,7.35,0,12.67-5.67,14.7-12.53,1.09.17,2.17.16,3.22.02-.08.76-.14,1.53-.14,2.29,0,6.23,3.08,10.22,7.98,10.22,3.85,0,6.37-2.24,7.91-4.69.42,2.38,2.31,4.69,5.6,4.69h.07c3.06-.03,6.07-2.12,8.69-4.95,1.26,3.11,3.74,4.95,7.05,4.95,3.85,0,6.37-2.24,7.91-4.69.42,2.38,2.31,4.69,5.6,4.69h.07c3.81-.04,7.56-3.28,10.57-7.17-.21,4.88,1.73,7.17,6.15,7.17,4.09,0,8.11-3.66,11.22-7.87,1.4,5.13,6.1,7.87,11.88,7.87,12.25,0,16.59-7.98,20.65-16.03l-.61-.65c.87-1.66,1.71-3.41,2.5-5.3,1.54.42,3.29.63,4.69.7-2.66,5.81-4.83,10.29-4.83,14.63,0,3.57,2.24,6.65,6.51,6.65,5.74,0,11.27-5.74,13.51-9.59l-3.99-3.92ZM349.43,26.77c1.54,0,2.45,1.12,2.38,2.73-.07,3.85-5.25,6.23-9.73,5.74.91-4.69,3.85-8.47,7.35-8.47ZM239.46,43.64c-2.03,0-3.36-1.61-3.36-4.76,0-5.11,3.64-11.76,7.42-11.76,2.17,0,3.29,1.96,3.29,4.69,0,5.32-3.71,11.83-7.35,11.83ZM266.76,43.36c-2.24,0-3.22-1.89-3.22-4.13s.58-4.89,1.62-7.03c.02-.04.05-.07.06-.11h0c1.35-2.73,3.45-4.76,6.02-4.76,1.82,0,3.29.98,4.2,2.31-2.73,9.24-5.6,13.72-8.68,13.72ZM296.09,43.36c-2.24,0-3.22-1.89-3.22-4.13,0-5.39,3.08-11.9,7.7-11.9,1.82,0,3.29.98,4.2,2.31-2.73,9.24-5.6,13.72-8.68,13.72Z"/>
    </g>
  </g>
</svg>