<?xml version="1.0" encoding="UTF-8"?>
<svg id="_レイヤー_2" data-name="レイヤー 2" xmlns="http://www.w3.org/2000/svg" viewBox="0 0 300.06 68.55">
  <defs>
    <style>
      .cls-1 {
        fill: #ff912e;
        stroke: #ff912e;
        stroke-miterlimit: 10;
        stroke-width: .75px;
      }
    </style>
  </defs>
  <g id="_00" data-name="00">
    <g>
      <path class="cls-1" d="M42.02,.38c-1.49,18.96-3.05,37.06-4.47,55.38h-8.45c.5-4.47,1.06-9.02,1.56-13.63h-13.99c-2.41,4.62-4.76,9.16-7.03,13.63H.63c2.48-4.54,4.97-9.09,7.53-13.63H.92l2.48-7.1H12.21C18.74,23.45,25.34,11.95,31.66,.38h10.37Zm-10.58,34.65c1.06-9.02,2.06-18.03,2.98-26.62-4.54,8.66-9.3,17.68-14.06,26.62h11.08Z"/>
      <path class="cls-1" d="M57.01,43.83c0-5.47,5.25-11.5,5.25-14.84,0-1.14-.43-1.92-1.7-1.92-5.68,0-11.29,14.48-13.42,22.29h-7.38c3.19-9.37,6.32-18.74,9.58-28.12h7.17l-1.99,5.82c2.56-4.33,6.39-6.53,9.87-6.53s5.75,2.34,5.75,5.82c.14,5.25-5.61,12.35-5.61,15.41,0,.92,.57,1.49,1.49,1.49,2.77,0,7.17-5.61,10.72-12.85l3.12,3.41c-2.7,6.04-9.3,16.26-16.4,16.26-4.26,0-6.46-2.63-6.46-6.25Z"/>
      <path class="cls-1" d="M85.69,43.83c0-5.47,5.25-11.5,5.25-14.84,0-1.14-.43-1.92-1.7-1.92-5.68,0-11.29,14.48-13.42,22.29h-7.38c3.19-9.37,6.32-18.74,9.58-28.12h7.17l-1.99,5.82c2.56-4.33,6.39-6.53,9.87-6.53s5.75,2.34,5.75,5.82c.14,5.25-5.61,12.35-5.61,15.41,0,.92,.57,1.49,1.49,1.49,2.77,0,7.17-5.61,10.72-12.85l3.12,3.41c-2.7,6.04-9.3,16.26-16.4,16.26-4.26,0-6.46-2.63-6.46-6.25Z"/>
      <path class="cls-1" d="M123.11,33.82c-2.63,6.04-9.3,16.26-16.19,16.26-11,0-5.75-13.84-.14-28.83h7.38c-4.47,12.07-8.8,22.01-4.97,22.01,2.77,0,7.24-5.4,10.86-12.85l3.05,3.41Zm-14.7-20.09c0-3.34,2.77-6.39,5.82-6.39,2.13,0,3.69,1.56,3.69,3.69,0,3.12-2.84,6.46-5.82,6.46-2.34,0-3.69-1.63-3.69-3.76Z"/>
      <path class="cls-1" d="M151.57,31.83c-1.7,3.2-7.38,6.75-13.13,5.33-3.41,7.53-9.23,12.99-15.69,12.99-5.4,0-7.53-3.83-7.53-8.45,0-5.68,2.77-14.2,5.11-20.45h7.53c-2.34,6.75-5.4,15.62-5.4,19.6,0,1.49,.57,2.27,1.85,2.27,3.48,0,10.08-10.37,9.8-21.87h7.6c.14,3.48-.28,7.03-1.21,10.37,2.98,.71,5.89-.43,7.74-3.41l3.34,3.62Z"/>
      <path class="cls-1" d="M175.71,33.82c-4.12,8.17-8.52,16.26-20.94,16.26-7.03,0-12.5-3.98-12.5-11.36,0-9.3,6.25-18.18,15.48-18.18,5.61,0,8.59,4.12,8.59,8.38,0,8.45-9.51,12.21-16.69,10.58,.5,2.84,2.56,4.54,6.67,4.54,6.89,0,11.08-3.62,16.12-13.7l3.27,3.48Zm-25.91,1.21c4.54,.5,9.8-1.92,9.87-5.82,.07-1.63-.85-2.77-2.41-2.77-3.55,0-6.53,3.83-7.46,8.59Z"/>
      <path class="cls-1" d="M200.14,33.82c-2.63,5.96-9.37,16.26-16.12,16.26-4.33,0-6.6-3.12-6.6-6.75,0-4.4,2.2-8.95,4.97-14.84-1.42-.07-3.12-.28-4.76-.71-2.91,6.96-6.46,12.28-10.15,16.68-3.48,4.12-6.11-.14-3.05-3.69,5.04-5.89,7.88-14.41,9.8-22.01h6.46c-.28,1.06-.57,2.06-.92,3.12,3.48,.64,9.37,.92,12.07,.85-2.7,5.89-6.96,15.41-6.96,18.67,0,1.14,.57,1.85,1.56,1.85,2.7,0,7.45-6.03,10.58-12.85l3.12,3.41Z"/>
      <path class="cls-1" d="M224.07,33.74c-4.9,10.72-10.08,16.4-21.58,16.4-5.18,0-10.65-2.34-12.71-6.74-.85-1.56-.43-2.91,.99-4.9,3.98-5.96,6.46-11.15,8.66-18.6h8.02c2.06,4.19,5.75,10.93,5.68,16.19,0,3.05-.92,5.89-2.91,7.74,3.55-1.7,7.46-6.32,10.86-13.84l2.98,3.76Zm-18.03,3.91c0-3.76-1.42-7.38-2.98-10.51-1.85,5.82-4.83,10.86-7.31,14.2,1.06,1.49,2.77,2.84,5.11,2.84,3.34,0,5.18-3.19,5.18-6.53Z"/>
      <path class="cls-1" d="M253.96,33.82c-2.7,6.04-9.37,16.26-16.19,16.26-3.41,0-5.32-2.34-5.75-4.76-1.56,2.48-4.12,4.76-8.09,4.76-4.9,0-8.02-4.05-8.02-10.29,0-9.51,6.6-19.24,14.63-19.24,2.84,0,5.61,1.78,6.67,3.69l.99-2.98h7.24c-6.25,17.04-8.09,22.01-5.4,22.01s7.17-5.4,10.79-12.85l3.12,3.41Zm-18.46-4.47c-.92-1.35-2.48-2.34-4.26-2.34-4.69,0-7.81,6.6-7.81,12.07,0,2.27,.99,4.19,3.27,4.19,3.12,0,5.96-4.54,8.8-13.92Z"/>
      <path class="cls-1" d="M278.38,33.82c-2.63,5.96-9.37,16.26-16.12,16.26-4.33,0-6.6-3.12-6.6-6.75,0-4.4,2.2-8.95,4.97-14.84-1.42-.07-3.12-.28-4.76-.71-2.91,6.96-6.46,12.28-10.15,16.68-3.48,4.12-6.11-.14-3.05-3.69,5.04-5.89,7.88-14.41,9.8-22.01h6.46c-.28,1.06-.57,2.06-.92,3.12,3.48,.64,9.37,.92,12.07,.85-2.7,5.89-6.96,15.41-6.96,18.67,0,1.14,.57,1.85,1.56,1.85,2.7,0,7.45-6.03,10.58-12.85l3.12,3.41Z"/>
      <path class="cls-1" d="M262.9,61.29c0-8.45,11.64-11.57,20.66-12.78l2.13-6.11c-1.42,2.06-4.19,3.62-6.96,3.62-9.94,0-7.67-11.43-2.2-24.78h7.45c-3.48,8.52-7.31,18.67-2.56,18.67,5.32,0,8.16-10.79,10.72-18.67h7.38c-3.76,10.86-6.82,20.16-10.58,31.1-3.48,10.08-9.58,15.83-17.18,15.83-5.89,0-8.87-3.2-8.87-6.89Zm18.96-7.46c-5.25,.5-12,3.12-12,6.46,0,1.21,.78,2.13,2.56,2.13,3.27,0,6.75-2.48,9.44-8.59Z"/>
    </g>
  </g>
</svg>