<svg width="45" height="45" viewBox="0 0 45 45" fill="none" xmlns="http://www.w3.org/2000/svg">
<path d="M13.1816 0.157361C10.7875 0.270312 9.15268 0.652366 7.72346 1.21397C6.2443 1.79043 4.99059 2.56399 3.74317 3.8159C2.49576 5.06781 1.7276 6.32242 1.1552 7.80384C0.601243 9.2362 0.225939 10.8724 0.120188 13.2678C0.0144366 15.6632 -0.00896361 16.4331 0.00273651 22.5433C0.0144366 28.6534 0.0414369 29.4194 0.157538 31.8197C0.271839 34.2133 0.652543 35.8477 1.21415 37.2773C1.7915 38.7565 2.56416 40.0098 3.81652 41.2576C5.06889 42.5055 6.3226 43.2718 7.80762 43.8451C9.23863 44.3982 10.8753 44.7753 13.2702 44.8802C15.6651 44.985 16.436 45.0093 22.5444 44.9976C28.6527 44.9859 29.4218 44.9589 31.8217 44.8451C34.2215 44.7312 35.8474 44.3478 37.2775 43.7889C38.7567 43.2102 40.0108 42.4389 41.2578 41.1861C42.5048 39.9333 43.2725 38.6777 43.8444 37.1954C44.3988 35.7644 44.7755 34.1278 44.8794 31.7346C44.9843 29.333 45.009 28.5661 44.9973 22.4569C44.9856 16.3476 44.9582 15.5817 44.8443 13.1823C44.7305 10.7829 44.3493 9.1534 43.7882 7.72284C43.2099 6.24367 42.4382 4.99131 41.1863 3.74255C39.9343 2.49378 38.6779 1.72653 37.1961 1.15592C35.7641 0.601966 34.1284 0.224412 31.7335 0.120911C29.3385 0.0174098 28.5677 -0.00914047 22.4571 0.00255965C16.3465 0.0142598 15.5814 0.04036 13.1816 0.157361ZM13.4444 40.8324C11.2506 40.737 10.0594 40.3725 9.26563 40.0674C8.21442 39.6624 7.46561 39.1728 6.6745 38.3893C5.8834 37.6058 5.39739 36.8543 4.98699 35.8054C4.67873 35.0116 4.30748 33.8218 4.20488 31.628C4.09328 29.2569 4.06988 28.545 4.05683 22.5379C4.04378 16.5308 4.06673 15.8198 4.17068 13.4478C4.26428 11.2558 4.63103 10.0633 4.93569 9.26995C5.34069 8.21739 5.8285 7.46993 6.61375 6.67928C7.39901 5.88862 8.14827 5.40171 9.19813 4.99131C9.99104 4.68171 11.1809 4.3136 13.3737 4.2092C15.7466 4.0967 16.4576 4.0742 22.4638 4.06115C28.47 4.0481 29.1828 4.0706 31.5566 4.175C33.7486 4.2704 34.9415 4.63356 35.734 4.94001C36.7857 5.34501 37.534 5.83147 38.3247 6.61808C39.1153 7.40468 39.6027 8.15124 40.0131 9.20335C40.3231 9.99401 40.6912 11.1834 40.7948 13.3776C40.9077 15.7505 40.9333 16.4619 40.9441 22.4677C40.9549 28.4734 40.9338 29.1867 40.8298 31.5578C40.734 33.7515 40.3704 34.9432 40.0648 35.7379C39.6598 36.7886 39.1716 37.5379 38.3859 38.3281C37.6002 39.1183 36.8518 39.6052 35.8015 40.0156C35.0095 40.3248 33.8183 40.6938 31.6273 40.7982C29.2544 40.9098 28.5434 40.9332 22.5349 40.9462C16.5265 40.9593 15.8177 40.935 13.4448 40.8324M31.787 10.4746C31.7879 11.0087 31.9471 11.5305 32.2446 11.974C32.5421 12.4175 32.9644 12.7629 33.4581 12.9664C33.9519 13.1699 34.4949 13.2224 35.0185 13.1173C35.5421 13.0122 36.0228 12.7541 36.3997 12.3758C36.7767 11.9975 37.033 11.5159 37.1362 10.9919C37.2394 10.4679 37.1849 9.92508 36.9795 9.43208C36.7742 8.93907 36.4273 8.51802 35.9827 8.22219C35.5381 7.92635 35.0157 7.76902 34.4816 7.77009C33.7657 7.77152 33.0796 8.05723 32.5743 8.56441C32.069 9.07158 31.7858 9.75868 31.787 10.4746ZM10.9473 22.5226C10.9599 28.9037 16.1422 34.0648 22.5219 34.0526C28.9016 34.0405 34.0663 28.8587 34.0541 22.4776C34.042 16.0965 28.8584 10.9341 22.4778 10.9467C16.0972 10.9593 10.9351 16.1424 10.9473 22.5226ZM15 22.5145C14.9971 21.0311 15.4341 19.5801 16.2558 18.3451C17.0775 17.1101 18.247 16.1464 19.6163 15.576C20.9857 15.0057 22.4934 14.8541 23.9489 15.1407C25.4044 15.4272 26.7422 16.1389 27.7932 17.1857C28.8442 18.2325 29.5612 19.5675 29.8534 21.0219C30.1457 22.4762 30.0002 23.9845 29.4352 25.3561C28.8703 26.7277 27.9113 27.901 26.6795 28.7276C25.4477 29.5542 23.9985 29.9969 22.5151 29.9999C21.5301 30.0019 20.5544 29.8099 19.6436 29.4349C18.7329 29.0598 17.9049 28.509 17.207 27.8139C16.5092 27.1188 15.9551 26.293 15.5764 25.3837C15.1977 24.4744 15.0019 23.4995 15 22.5145Z" fill="#333333"/>
</svg>
