<svg width="69" height="62" viewBox="0 0 69 62" fill="none" xmlns="http://www.w3.org/2000/svg">
<path d="M59.8187 7.62439C58.9774 2.74135 54.7189 -1.1009 49.6277 0.28682C43.8773 1.848 41.1626 8.24886 40.0784 13.5656C39.081 18.4573 39.2111 24.0515 41.1626 28.7784C40.0351 26.6708 38.5519 24.7627 36.8173 23.1148C36.2622 22.2128 35.4903 21.571 34.3975 21.5363C34.2066 21.0159 33.9985 20.4955 33.8424 19.9924C33.4607 18.7869 33.1312 17.3558 33.6255 16.1328C34.1199 14.9359 35.2301 14.2594 36.3489 15.0574C36.9647 15.4997 36.9561 15.5344 37.277 16.0895C37.4765 16.4277 38.1009 16.3497 38.2137 15.9767C39.0897 13.0365 34.701 12.3426 33.0791 14.1553C31.8822 15.491 31.7955 17.3471 32.2031 19.021C32.4113 19.897 32.7062 20.8598 33.0618 21.8138C32.9317 21.8832 32.8103 21.9699 32.6975 22.0567C31.0062 19.5241 28.1787 17.4772 25.1518 18.7001C23.7467 19.2726 22.6539 20.5735 22.6712 22.1261C22.6799 23.5224 23.4952 24.9535 24.9436 25.1877C25.4467 25.2658 25.7763 24.5632 25.3426 24.2597C22.4197 22.2215 24.8742 19.0037 27.9359 19.6889C29.792 20.1052 30.9715 21.4062 32.1251 22.7592C31.9429 23.1148 31.8475 23.5224 31.8996 23.9561C31.9256 24.1729 31.9776 24.3724 32.0557 24.5719C31.9776 24.9015 31.9603 25.2571 32.0383 25.6387C32.3506 27.0871 33.5215 28.4922 34.2587 29.7412C35.0653 31.1029 35.8719 32.4472 36.6872 33.8002C36.5658 33.8349 36.453 33.9043 36.3663 33.9911C31.4572 30.0621 25.5594 27.4688 19.4014 26.1938C13.6597 25.0142 6.19207 24.9969 2.08962 29.9146C-1.67457 34.4247 -0.200117 40.6261 5.28137 42.725C11.6042 45.1535 18.9938 44.2255 25.6028 43.4102C23.5559 47.5126 22.5932 52.3263 23.5559 56.8537C24.4753 61.1643 28.4216 62.977 32.2291 60.5225C36.1061 58.0246 38.3785 52.8814 39.2718 48.5274C40.0437 44.7546 39.8443 40.8776 38.7428 37.2348C40.356 39.9322 41.9605 42.6296 43.5998 45.3096C44.5278 46.8361 45.9762 49.2733 48.1619 48.5621C49.7491 48.0417 50.0527 46.2203 49.671 44.7892C49.0119 42.3607 47.416 39.8715 45.9676 37.6078C47.7889 39.2037 49.8272 40.548 51.7266 41.5455C55.8377 43.7224 62.2993 45.8907 66.4885 42.7597C70.244 39.9582 69.2899 34.6589 66.8701 31.3197C64.0686 27.4514 59.5759 25.3178 54.901 25.2571C56.9566 19.5761 60.9029 13.8604 59.8274 7.62439H59.8187ZM34.5796 56.0471C33.3133 57.8598 31.5873 59.898 29.2456 60.2103C25.6808 60.6873 24.7875 57.1573 24.562 54.4165C24.2324 50.4008 25.1865 46.4285 27.1466 42.9332C27.3635 42.5429 26.9471 42.0919 26.5568 42.1352C20.7805 42.8117 14.9 43.4883 9.12362 42.4561C5.91452 41.875 2.00289 40.6261 1.30903 36.94C0.7019 33.6875 2.53196 30.5564 5.22066 28.8305C9.98227 25.7775 16.4178 26.6188 21.5784 28.0065C27.0425 29.4723 32.021 32.1697 36.5831 35.4655C39.3672 42.1352 38.7601 50.0452 34.5796 56.0384V56.0471ZM35.2735 23.8173C35.152 23.6352 35.0133 23.4704 34.8745 23.3056C34.8745 23.3056 34.8745 23.3056 34.8745 23.2969C35.2041 23.4617 35.4643 23.7826 35.6638 24.1382C35.5163 24.0775 35.3775 23.9735 35.2735 23.8173ZM46.0023 40.6521C45.9589 40.5827 45.9069 40.5394 45.8461 40.496C45.716 40.2878 45.5773 40.071 45.4558 39.8715C44.8921 38.9608 44.3197 38.0415 43.7559 37.1308C43.01 35.7257 42.186 34.3553 41.31 33.011C42.0993 34.1472 42.8712 35.3007 43.6084 36.4803C44.5452 37.9894 45.4385 39.5333 46.2885 41.0944C46.1931 40.947 46.1063 40.7995 46.0023 40.6521ZM53.0796 25.7515C52.8801 26.3499 53.2791 26.827 53.8862 26.8356C58.2576 26.8963 62.7763 28.8478 65.387 32.4385C68.2144 36.3328 67.7548 42.0051 61.9784 42.4561C57.8066 42.7857 53.3312 40.7822 49.9486 38.4664C47.0691 36.4889 45.1783 33.965 43.1227 31.3631C41.683 26.4887 40.4948 21.7358 41.0498 16.5925C41.5876 11.5967 43.4523 5.15251 48.1185 2.48982C54.3546 -1.06621 59.1422 5.14384 58.5004 11.085C57.9367 16.3323 54.7102 20.8337 53.071 25.7515H53.0796Z" fill="#333333"/>
</svg>
