<svg width="40" height="40" viewBox="0 0 40 40" fill="none" xmlns="http://www.w3.org/2000/svg">
<path d="M20 40C19.6685 40 19.3506 39.8683 19.1162 39.6339C18.8817 39.3995 18.75 39.0815 18.75 38.75V35.5175L17.1351 37.135C16.9003 37.3694 16.5821 37.5009 16.2504 37.5007C15.9187 37.5005 15.6007 37.3685 15.3663 37.1338C15.1319 36.899 15.0004 36.5808 15.0006 36.2491C15.0008 35.9174 15.1328 35.5994 15.3675 35.365L18.75 31.9825V29.2675L17.1351 30.885C17.0188 31.0011 16.8809 31.0931 16.7291 31.1558C16.5773 31.2186 16.4147 31.2508 16.2504 31.2507C15.9187 31.2505 15.6007 31.1185 15.3663 30.8838C15.1319 30.649 15.0004 30.3308 15.0006 29.9991C15.0008 29.6674 15.1328 29.3494 15.3675 29.115L18.75 25.7325V22.165L15.6601 23.9475L14.4226 28.5725C14.3799 28.7311 14.3064 28.8797 14.2063 29.0098C14.1062 29.14 13.9814 29.2492 13.8391 29.3311C13.6968 29.4131 13.5397 29.4662 13.3769 29.4875C13.214 29.5087 13.0486 29.4977 12.8901 29.455C12.7315 29.4123 12.5829 29.3388 12.4527 29.2387C12.3225 29.1386 12.2134 29.0138 12.1314 28.8715C12.0495 28.7292 11.9963 28.5722 11.9751 28.4093C11.9538 28.2465 11.9649 28.0811 12.0076 27.9225L12.6001 25.7175L10.2501 27.0725L9.01005 31.6975C8.92386 32.0177 8.71397 32.2906 8.42657 32.4561C8.13917 32.6216 7.7978 32.6662 7.47755 32.58C7.1573 32.4938 6.88441 32.2839 6.71891 31.9965C6.55341 31.7091 6.50886 31.3677 6.59505 31.0475L7.18755 28.8425L4.38755 30.4575C4.1006 30.6206 3.76077 30.6637 3.44222 30.5772C3.12367 30.4907 2.85225 30.2817 2.68721 29.9959C2.52216 29.71 2.47688 29.3705 2.56125 29.0514C2.64562 28.7322 2.85279 28.4594 3.13755 28.2925L5.93755 26.6775L3.72755 26.085C3.56898 26.0423 3.42037 25.9688 3.2902 25.8687C3.16003 25.7686 3.05086 25.6438 2.96891 25.5015C2.88696 25.3592 2.83385 25.2022 2.8126 25.0393C2.79134 24.8765 2.80237 24.7111 2.84505 24.5525C2.88773 24.3939 2.96123 24.2453 3.06134 24.1152C3.16145 23.985 3.28622 23.8758 3.42853 23.7939C3.57084 23.7119 3.72789 23.6588 3.89072 23.6375C4.05356 23.6163 4.21898 23.6273 4.37755 23.67L8.99755 24.9075L11.3476 23.5525L9.14255 22.96C8.98156 22.9199 8.83017 22.8481 8.69721 22.7489C8.56424 22.6496 8.45236 22.5249 8.36809 22.382C8.28382 22.2391 8.22884 22.0808 8.20637 21.9164C8.18389 21.7521 8.19436 21.5849 8.23717 21.4246C8.27999 21.2643 8.35428 21.1141 8.45572 20.9828C8.55717 20.8515 8.68373 20.7417 8.82804 20.6599C8.97235 20.578 9.13151 20.5257 9.29625 20.506C9.46098 20.4862 9.628 20.4995 9.78755 20.545L14.4126 21.7825L17.5001 20L14.4101 18.2175L9.78755 19.455C9.628 19.5005 9.46098 19.5138 9.29625 19.494C9.13151 19.4743 8.97235 19.422 8.82804 19.3401C8.68373 19.2583 8.55717 19.1485 8.45572 19.0172C8.35428 18.8859 8.27999 18.7357 8.23717 18.5754C8.19436 18.4151 8.18389 18.2479 8.20637 18.0836C8.22884 17.9192 8.28382 17.7609 8.36809 17.618C8.45236 17.4751 8.56424 17.3504 8.69721 17.2511C8.83017 17.1519 8.98156 17.0801 9.14255 17.04L11.3501 16.4475L9.00005 15.0925L4.37505 16.33C4.05689 16.4093 3.7203 16.3604 3.43785 16.1939C3.1554 16.0273 2.9497 15.7564 2.86509 15.4396C2.78048 15.1229 2.82374 14.7855 2.98554 14.5003C3.14733 14.2151 3.41472 14.0049 3.73005 13.915L5.93755 13.3225L3.13755 11.7075C2.99424 11.626 2.86847 11.517 2.76747 11.3867C2.66647 11.2564 2.59223 11.1075 2.54904 10.9484C2.50585 10.7893 2.49455 10.6232 2.5158 10.4597C2.53705 10.2963 2.59042 10.1386 2.67285 9.99584C2.75527 9.85308 2.86513 9.72803 2.99608 9.62789C3.12703 9.52776 3.27649 9.45451 3.43587 9.41238C3.59524 9.37024 3.76138 9.36005 3.92471 9.38238C4.08804 9.40471 4.24534 9.45913 4.38755 9.5425L7.18755 11.1575L6.59505 8.95C6.51575 8.63183 6.56465 8.29525 6.7312 8.0128C6.89775 7.73035 7.16861 7.52465 7.4854 7.44004C7.8022 7.35543 8.13955 7.39869 8.42475 7.56048C8.70995 7.72228 8.92015 7.98967 9.01005 8.305L10.2476 12.9275L12.5976 14.2825L12.0076 12.075C11.9283 11.7568 11.9771 11.4203 12.1437 11.1378C12.3102 10.8553 12.5811 10.6496 12.8979 10.565C13.2147 10.4804 13.5521 10.5237 13.8372 10.6855C14.1224 10.8473 14.3327 11.1147 14.4226 11.43L15.6601 16.0525L18.75 17.835V14.2675L15.3675 10.885C15.1328 10.6506 15.0008 10.3326 15.0006 10.0009C15.0004 9.66918 15.1319 9.35097 15.3663 9.11625C15.6007 8.88153 15.9187 8.74954 16.2504 8.7493C16.5821 8.74907 16.9003 8.88061 17.1351 9.115L18.75 10.7325V8.0175L15.3675 4.635C15.2513 4.51894 15.1591 4.38113 15.0961 4.22944C15.0332 4.07774 15.0007 3.91513 15.0006 3.75088C15.0005 3.58664 15.0327 3.42398 15.0955 3.2722C15.1582 3.12041 15.2502 2.98247 15.3663 2.86625C15.4824 2.75003 15.6202 2.65781 15.7719 2.59485C15.9236 2.53189 16.0862 2.49942 16.2504 2.4993C16.4147 2.49919 16.5773 2.53142 16.7291 2.59417C16.8809 2.65692 17.0188 2.74894 17.1351 2.865L18.75 4.4825V1.25C18.75 0.918479 18.8817 0.600537 19.1162 0.366117C19.3506 0.131696 19.6685 0 20 0C20.3316 0 20.6495 0.131696 20.8839 0.366117C21.1184 0.600537 21.25 0.918479 21.25 1.25V4.4825L22.8675 2.865C23.1023 2.63061 23.4205 2.49907 23.7522 2.4993C24.0839 2.49954 24.4019 2.63153 24.6363 2.86625C24.8707 3.10097 25.0022 3.41918 25.002 3.75088C25.0018 4.08259 24.8698 4.40061 24.635 4.635L21.25 8.0175V10.7325L22.8675 9.115C23.1023 8.88061 23.4205 8.74907 23.7522 8.7493C24.0839 8.74954 24.4019 8.88153 24.6363 9.11625C24.8707 9.35097 25.0022 9.66918 25.002 10.0009C25.0018 10.3326 24.8698 10.6506 24.635 10.885L21.25 14.2675V17.835L24.34 16.0525L25.5775 11.4275C25.6202 11.2689 25.6937 11.1203 25.7938 10.9901C25.894 10.86 26.0187 10.7508 26.161 10.6689C26.3033 10.5869 26.4604 10.5338 26.6232 10.5125C26.7861 10.4913 26.9515 10.5023 27.1101 10.545C27.2686 10.5877 27.4172 10.6612 27.5474 10.7613C27.6776 10.8614 27.7867 10.9862 27.8687 11.1285C27.9506 11.2708 28.0038 11.4278 28.025 11.5907C28.0463 11.7535 28.0352 11.9189 27.9925 12.0775L27.4026 14.2825L29.7526 12.9275L30.99 8.3025C31.0762 7.98225 31.2861 7.70936 31.5735 7.54386C31.8609 7.37836 32.2023 7.3338 32.5225 7.42C32.8428 7.5062 33.1157 7.71608 33.2812 8.00348C33.4467 8.29088 33.4912 8.63225 33.4051 8.9525L32.8151 11.1575L35.6151 9.5425C35.902 9.37935 36.2418 9.33633 36.5604 9.42281C36.8789 9.5093 37.1503 9.71827 37.3154 10.0041C37.4804 10.29 37.5257 10.6295 37.4413 10.9486C37.357 11.2678 37.1498 11.5406 36.8651 11.7075L34.0651 13.3225L36.2725 13.915C36.5928 14.0012 36.8657 14.2111 37.0312 14.4985C37.1967 14.7859 37.2412 15.1273 37.155 15.4475C37.0689 15.7677 36.859 16.0406 36.5716 16.2061C36.2842 16.3716 35.9428 16.4162 35.6225 16.33L31.0026 15.0925L28.6525 16.4475L30.86 17.04C31.1803 17.1262 31.4532 17.3361 31.6187 17.6235C31.7842 17.9109 31.8287 18.2523 31.7425 18.5725C31.6564 18.8927 31.4465 19.1656 31.1591 19.3311C30.8717 19.4966 30.5303 19.5412 30.21 19.455L25.59 18.2175L22.5 20L25.59 21.7825L30.2125 20.545C30.5328 20.4591 30.874 20.504 31.1612 20.6697C31.4484 20.8355 31.6579 21.1085 31.7438 21.4287C31.8297 21.749 31.7848 22.0902 31.6191 22.3774C31.4533 22.6646 31.1803 22.8741 30.86 22.96L28.6525 23.5525L31.0026 24.9075L35.625 23.67C35.9453 23.5841 36.2865 23.629 36.5737 23.7947C36.8609 23.9605 37.0704 24.2335 37.1563 24.5537C37.2422 24.874 37.1973 25.2152 37.0316 25.5024C36.8658 25.7896 36.5928 25.9991 36.2725 26.085L34.0651 26.6775L36.8651 28.2925C37.1498 28.4594 37.357 28.7322 37.4413 29.0514C37.5257 29.3705 37.4804 29.71 37.3154 29.9959C37.1503 30.2817 36.8789 30.4907 36.5604 30.5772C36.2418 30.6637 35.902 30.6206 35.6151 30.4575L32.8151 28.8425L33.4051 31.05C33.4505 31.2096 33.4638 31.3766 33.4441 31.5413C33.4244 31.706 33.372 31.8652 33.2902 32.0095C33.2083 32.1538 33.0985 32.2804 32.9672 32.3818C32.836 32.4833 32.6858 32.5576 32.5255 32.6004C32.3652 32.6432 32.198 32.6537 32.0336 32.6312C31.8692 32.6087 31.711 32.5537 31.568 32.4695C31.4251 32.3852 31.3004 32.2733 31.2012 32.1403C31.1019 32.0074 31.0302 31.856 30.99 31.695L29.7526 27.0725L27.4026 25.7175L27.9925 27.925C28.0718 28.2432 28.0229 28.5797 27.8564 28.8622C27.6899 29.1447 27.419 29.3503 27.1022 29.435C26.7854 29.5196 26.448 29.4763 26.1629 29.3145C25.8777 29.1527 25.6674 28.8853 25.5775 28.57L24.34 23.95L21.25 22.165V25.7325L24.635 29.115C24.8698 29.3494 25.0018 29.6674 25.002 29.9991C25.0022 30.3308 24.8707 30.649 24.6363 30.8838C24.4019 31.1185 24.0839 31.2505 23.7522 31.2507C23.4205 31.2509 23.1023 31.1194 22.8675 30.885L21.25 29.2675V31.9825L24.635 35.365C24.8698 35.5994 25.0018 35.9174 25.002 36.2491C25.0022 36.5808 24.8707 36.899 24.6363 37.1338C24.4019 37.3685 24.0839 37.5005 23.7522 37.5007C23.4205 37.5009 23.1023 37.3694 22.8675 37.135L21.25 35.5175V38.75C21.25 39.0815 21.1184 39.3995 20.8839 39.6339C20.6495 39.8683 20.3316 40 20 40Z" fill="#718EAF"/>
</svg>
