<svg width="40" height="40" viewBox="0 0 40 40" fill="none" xmlns="http://www.w3.org/2000/svg">
<path d="M32.7873 24.7075C35.8748 23.7075 37.7373 20.72 37.4873 17.6075C37.4735 17.4646 37.4136 17.33 37.3167 17.224C37.2197 17.118 37.091 17.0464 36.9498 17.02C36.9498 17.02 35.8373 16.7825 35.5873 16.7325C35.4623 16.7075 35.4123 16.545 35.4873 16.4575C35.6498 16.2825 36.4248 15.4075 36.4248 15.4075C36.6248 15.195 36.6623 14.8575 36.5123 14.6075C34.8998 11.945 31.6373 10.62 28.5373 11.6325C27.6498 11.92 26.8748 12.445 26.1998 13.1075C26.6248 12.2575 26.8748 11.37 26.8748 10.4325C26.8748 7.18251 24.6123 4.48251 21.5748 3.77001C21.4334 3.74159 21.2866 3.75755 21.1546 3.81573C21.0226 3.8739 20.9117 3.97145 20.8373 4.09501C20.8373 4.09501 20.2623 5.08251 20.1373 5.30751C20.0748 5.42001 19.8998 5.40751 19.8498 5.32001C19.7248 5.10751 19.1498 4.09501 19.1498 4.09501C18.9998 3.84501 18.6998 3.69501 18.4248 3.77001C15.3998 4.47001 13.1248 7.17001 13.1248 10.42C13.1248 11.3575 13.3873 12.245 13.7998 13.095C13.1248 12.4325 12.3623 11.92 11.4748 11.6325C8.37479 10.62 5.11229 11.945 3.49979 14.6075C3.34979 14.8575 3.38729 15.1825 3.58729 15.4075C3.58729 15.4075 4.34979 16.2575 4.52479 16.445C4.61229 16.5325 4.54979 16.7075 4.43729 16.7325L3.06229 17.02C2.77479 17.0825 2.54979 17.32 2.52479 17.6075C2.39213 19.1477 2.78433 20.6874 3.63763 21.9765C4.49093 23.2655 5.75516 24.228 7.22479 24.7075C8.12479 24.995 9.04979 25.0325 9.99979 24.8825C9.14979 25.32 8.39979 25.895 7.84979 26.6575C5.93729 29.2825 6.18729 32.795 8.22479 35.1575C8.41229 35.3825 8.73729 35.445 9.01229 35.32C9.01229 35.32 10.0498 34.8575 10.2873 34.745C10.3998 34.695 10.5373 34.795 10.5248 34.9075L10.3748 36.3075C10.3498 36.595 10.4998 36.895 10.7748 37.0075C13.6498 38.2075 17.0623 37.3575 18.9748 34.7325C19.5248 33.97 19.8373 33.1075 19.9998 32.17C20.1623 33.1075 20.4748 33.9825 21.0248 34.7325C22.9373 37.3575 26.3498 38.2075 29.2248 37.0075C29.4998 36.895 29.6498 36.6075 29.6248 36.3075C29.6248 36.3075 29.4998 35.17 29.4748 34.92C29.4623 34.795 29.5998 34.695 29.7123 34.745L30.9998 35.32C31.2623 35.445 31.5998 35.3825 31.7873 35.1575C33.8248 32.795 34.0748 29.2825 32.1623 26.6575C31.6123 25.895 30.8623 25.3325 30.0123 24.8825C30.9623 25.0325 31.8873 24.995 32.7873 24.7075ZM22.2923 23.2763L23.2335 24.5763C23.2752 24.5713 23.3181 24.5688 23.3623 24.5688C23.6319 24.569 23.8942 24.6565 24.11 24.818C24.3258 24.9795 24.4837 25.2065 24.5599 25.4651C24.6362 25.7236 24.6269 25.9999 24.5333 26.2528C24.4397 26.5056 24.2668 26.7214 24.0406 26.8679C23.8143 27.0145 23.5467 27.084 23.2777 27.066C23.0087 27.048 22.7528 26.9436 22.548 26.7682C22.3432 26.5929 22.2006 26.356 22.1415 26.093C22.0823 25.83 22.1098 25.5549 22.2198 25.3088L21.2798 24.01C20.8805 24.1907 20.4472 24.284 20.0089 24.2836C19.5706 24.2831 19.1375 24.189 18.7385 24.0075L17.791 25.3113C17.9029 25.5627 17.9287 25.8439 17.8644 26.1115C17.8001 26.379 17.6493 26.6179 17.4354 26.791C17.2215 26.9641 16.9565 27.0618 16.6815 27.069C16.4064 27.0761 16.1366 26.9923 15.9141 26.8305C15.6915 26.6688 15.5285 26.4381 15.4504 26.1742C15.3723 25.9104 15.3834 25.6281 15.4821 25.3713C15.5807 25.1144 15.7614 24.8973 15.996 24.7535C16.2306 24.6098 16.5061 24.5475 16.7798 24.5763L17.7285 23.2725C17.4329 22.949 17.2098 22.5661 17.0742 22.1494C16.9386 21.7327 16.8936 21.2918 16.9423 20.8563L15.411 20.36C15.2066 20.5441 14.947 20.6557 14.6727 20.6773C14.3984 20.6989 14.1246 20.6293 13.8938 20.4795C13.663 20.3296 13.4882 20.1078 13.3963 19.8484C13.3044 19.589 13.3007 19.3065 13.3858 19.0448C13.4708 18.7831 13.6398 18.5568 13.8666 18.4009C14.0934 18.2451 14.3652 18.1684 14.64 18.1828C14.9148 18.1972 15.1772 18.3019 15.3864 18.4806C15.5957 18.6593 15.7401 18.9021 15.7973 19.1713L17.3273 19.6675C17.5444 19.2858 17.8405 18.9547 18.1957 18.6965C18.5509 18.4382 18.9572 18.2588 19.3873 18.17V16.565C19.149 16.4274 18.9627 16.2151 18.8574 15.9608C18.7521 15.7066 18.7337 15.4247 18.8049 15.159C18.8761 14.8932 19.033 14.6583 19.2513 14.4908C19.4696 14.3233 19.7371 14.2325 20.0123 14.2325C20.2875 14.2325 20.5549 14.3233 20.7732 14.4908C20.9915 14.6583 21.1485 14.8932 21.2197 15.159C21.2909 15.4247 21.2724 15.7066 21.1671 15.9608C21.0618 16.2151 20.8756 16.4274 20.6373 16.565V18.17C21.5185 18.3513 22.2623 18.9075 22.6948 19.665L24.2135 19.1725C24.2703 18.9032 24.4144 18.6602 24.6234 18.4811C24.8324 18.3021 25.0946 18.197 25.3694 18.1822C25.6442 18.1674 25.9162 18.2437 26.1433 18.3992C26.3703 18.5548 26.5396 18.781 26.625 19.0426C26.7104 19.3042 26.707 19.5867 26.6154 19.8463C26.5239 20.1058 26.3492 20.3278 26.1186 20.478C25.8879 20.6281 25.6142 20.6979 25.3398 20.6766C25.0654 20.6553 24.8057 20.544 24.601 20.36L23.081 20.855C23.0935 20.9667 23.0998 21.0796 23.0998 21.1938C23.0998 21.9963 22.7935 22.7275 22.2923 23.2763Z" fill="#EE8593"/>
</svg>
