<svg width="32" height="32" viewBox="0 0 32 32" fill="none" xmlns="http://www.w3.org/2000/svg">
<path d="M30.8536 7.76813C29.8927 4.37225 27.0787 2.92769 23.8528 3.47675C20.8823 3.98238 19.3305 7.6855 18.6077 9.93113C18.8227 6.95675 18.273 2.82044 14.7244 0.889001C9.30222 -2.06231 5.87047 3.22263 5.52729 3.90894C5.1841 4.59531 5.18354 4.72669 6.14497 4.66394C6.43135 4.64519 8.92685 3.94281 11.3757 4.38569L12.528 3.32294L13.0621 4.82056C15.0911 5.53156 16.719 7.35363 17.0123 10.0856C15.3662 8.06194 12.8272 6.759 9.96816 6.759C4.99697 6.759 0.967285 10.6792 0.967285 15.5148C0.967285 15.9041 0.975348 15.6248 0.975348 15.6248C0.989285 15.8081 1.10935 15.9663 1.28204 16.029C1.45466 16.0913 1.64829 16.0467 1.77641 15.9148C1.77641 15.9148 1.87666 15.7588 2.3271 15.3469C3.12066 14.6209 3.9936 13.9812 4.92879 13.4359L5.78404 11.8396L6.93797 12.4524C8.66941 11.7624 10.5579 11.3816 12.536 11.3816C13.8406 11.3816 15.1072 11.5473 16.3152 11.8578C13.5296 11.6733 9.3311 13.1254 7.66935 16.6703C5.61029 21.0629 7.6366 24.5494 7.92941 24.8223C8.16966 25.0459 8.46028 24.8716 8.5391 24.4818C8.71116 23.6298 9.18416 22.0372 10.0528 20.251L9.7021 18.8344L10.6678 19.0816C11.8781 16.9474 13.6503 14.7066 16.157 13.1972C14.2197 17.4654 12.625 23.7031 15.0552 31.9999H21.0232C21.0232 31.9999 14.9645 26.1316 18.1132 14.098C18.7974 14.9822 19.6682 16.2654 20.3948 17.8284L21.3133 17.9443L20.903 19.0434C21.406 20.3893 21.768 21.8929 21.8183 23.502C21.8312 23.9128 22.079 24.2168 22.2055 23.9476C24.1445 19.8156 23.5347 15.5864 20.8167 13.1188C22.5305 13.6839 23.931 15.062 25.0222 16.6384L26.3236 16.9178L26.0812 18.3849C26.9944 20.1211 27.5547 21.8403 27.7548 22.8258C27.8335 23.214 28.0395 23.4671 28.2878 23.0253C29.7672 20.3926 29.9581 15.3403 27.2845 12.5746C25.2115 10.4308 21.554 10.2897 19.3015 10.8839C20.7803 8.39744 24.737 8.21244 24.737 8.21244C24.737 8.21244 25.3628 6.77125 25.5001 6.56531C25.6373 6.35944 26.3923 7.96919 26.3923 7.96919L30.3764 9.59656C30.3764 9.59656 30.8879 9.94625 30.9877 9.35206C31.0477 8.99331 31.0842 8.4405 30.8536 7.76813Z" fill="white"/>
</svg>
