<svg width="35" height="40" viewBox="0 0 35 40" fill="none" xmlns="http://www.w3.org/2000/svg">
<path d="M24.8708 27.6404C29.3823 27.2402 34.089 24.3873 34.089 24.3873C34.089 24.3873 28.9535 22.4076 24.4421 22.8079C24.1484 22.834 23.8647 22.864 23.5897 22.8975C24.1989 22.2189 24.83 21.4462 25.4781 20.5728C29.1989 15.5588 30.5721 8.09679 30.5721 8.09679C30.5721 8.09679 24.1489 11.4081 20.3812 16.2284C20.3865 15.9316 20.3893 15.6292 20.3893 15.3202C20.3894 7.99257 17.0667 0 17.0667 0C17.0667 0 13.744 7.99257 13.744 15.3201C13.744 15.6291 13.7469 15.9314 13.7521 16.2282C9.98432 11.408 3.56124 8.09672 3.56124 8.09672C3.56124 8.09672 4.93448 15.5587 8.65522 20.5727C9.30334 21.4462 9.93446 22.2189 10.5436 22.8974C10.2688 22.8639 9.98495 22.834 9.69132 22.8078C5.17981 22.4076 0.0444336 24.3873 0.0444336 24.3873C0.0444336 24.3873 4.75107 27.2402 9.26251 27.6404C10.4281 27.7439 11.4576 27.762 12.3473 27.7098C10.3754 29.702 9.18995 32.6577 9.18995 32.6577C9.18995 32.6577 12.6376 31.679 14.8295 29.7053C15.4825 29.1174 16.0016 28.5652 16.3937 28.0623C16.5539 29.3535 16.7343 31.3207 16.7083 33.4945C16.6747 36.296 16.0583 39.2123 16.0521 39.2415C15.9796 39.5803 16.1956 39.9135 16.5343 39.986C16.5785 39.9956 16.6226 40 16.6661 40C16.9557 40 17.2158 39.7984 17.2789 39.5039C17.3054 39.3802 17.9277 36.4395 17.9628 33.5096C17.9897 31.2661 17.809 29.2661 17.6448 27.9382C18.0467 28.4739 18.5968 29.0685 19.3039 29.7053C21.4957 31.679 24.9434 32.6577 24.9434 32.6577C24.9434 32.6577 23.7581 29.702 21.7861 27.7098C22.6759 27.7619 23.7054 27.7439 24.8709 27.6404H24.8708Z" fill="#D4832A"/>
</svg>
