<svg width="103" height="103" viewBox="0 0 103 103" fill="none" xmlns="http://www.w3.org/2000/svg">
  <circle cx="51.5" cy="51.5" r="51.5" fill="#FFD700" />
  <path d="M48.8905 45.4577C50.0514 43.3748 50.6321 42.3333 51.5 42.3333C52.3679 42.3333 52.9486 43.3748 54.1095 45.4577L54.41 45.9965C54.74 46.5884 54.905 46.8844 55.1621 47.0796C55.4194 47.2749 55.7398 47.3475 56.3803 47.4923L56.9638 47.6243C59.2186 48.1345 60.3458 48.3895 60.614 49.2521C60.8823 50.1147 60.1137 51.0132 58.5767 52.8108L58.1788 53.2758C57.742 53.7866 57.5236 54.0419 57.4256 54.3579C57.3272 54.674 57.3603 55.0145 57.4263 55.696L57.4863 56.3166C57.7187 58.7146 57.8351 59.9139 57.1327 60.4469C56.4305 60.9799 55.375 60.4939 53.2639 59.522L52.7178 59.2704C52.1178 58.9942 51.8179 58.856 51.5 58.856C51.1821 58.856 50.8822 58.9942 50.2822 59.2704L49.7361 59.522C47.625 60.4939 46.5694 60.9799 45.8672 60.4469C45.165 59.9139 45.2812 58.7146 45.5136 56.3166L45.5737 55.696C45.6398 55.0145 45.6728 54.674 45.5746 54.3579C45.4763 54.0419 45.2579 53.7866 44.8211 53.2758L44.4234 52.8108C42.8863 51.0132 42.1178 50.1147 42.386 49.2521C42.6542 48.3895 43.7815 48.1345 46.0362 47.6243L46.6196 47.4923C47.2602 47.3475 47.5806 47.2749 47.8379 47.0796C48.095 46.8844 48.26 46.5884 48.59 45.9965L48.8905 45.4577Z" stroke="white" stroke-width="3.4375" />
  <path d="M40.0417 31.6492C43.4124 29.6993 47.326 28.5833 51.5 28.5833C64.1564 28.5833 74.4167 38.8435 74.4167 51.5C74.4167 64.1564 64.1564 74.4167 51.5 74.4167C38.8435 74.4167 28.5833 64.1564 28.5833 51.5C28.5833 47.326 29.6993 43.4124 31.6492 40.0417" stroke="white" stroke-width="3.4375" stroke-linecap="round" />
</svg>