<svg height="28.75" viewBox="0 0 333.56 28.75" width="333.56" xmlns="http://www.w3.org/2000/svg"><g fill="#3e3a39"><path d="m9.2 11.07.09-.19c2.25.87 3.49 2.49 3.49 3.37 0 .5-.22 1.31-.9 1.31-.75 0-.9-.53-1.47-2.31l-2.84.47c0 .97.25 11.76.25 13s-.65 1.56-1.28 1.56-.69-.41-.69-1.09c0-.75.16-11.26.16-13.22l-3.93.81c-.53.13-.5.9-.78.94-.03 0-.06.03-.09.03-.19 0-.19-.31-.37-.84-.25-.56-.5-1.4-.84-2.43 1.03.37 2.99.5 4.96.47 1.19-1.75 4.52-6.71 4.46-9.11l2.18 1.25c.22.16.59.37.59.65v.09c-.19.47-1.25.28-1.59.75-.81 1.28-3.46 4.52-4.99 6.36 1.75-.03 3.93 0 4.55-.16l-.97-1.71zm-4.77 5.71c.44.13.62.13.62.59 0 .44-.78.69-.97 1.19-.47 1.56-1.43 4.83-3.59 7.45l-.12-.09c.59-2.03 2.03-5.93 2.03-9.01 0-.28 0-.53-.03-.78zm4.71-14.72c-.16.41-.94.19-1.34.53-.44.31-1.4 1.5-3.06 3.31.97.59 1.34 1.19 1.34 1.84s-.25 1.34-1 1.34c-.59 0-.94-.41-1.31-1.25-.5-1-1.03-1.81-2.31-2.96l.12-.19c.87.19 1.96.56 2.71.9.65-1.09 2.18-3.52 2.25-5.58l2.06 1.31c.37.25.53.5.53.69v.06zm.18 14.44c2.21 1.72 2.93 3.24 2.93 4.3 0 .62-.34 1.28-1.03 1.28s-.94-.87-1.03-1.53c-.13-.62-.31-2.25-1.06-3.9l.19-.16zm14.32-6.96c.16 0 .69-.9.97-.9.25 0 1.93 1 1.93 1.25 0 .47-1 .81-1 1.12 0 .62.25 6.52.25 7.17s-.59 1.06-1.12 1.06c-.62 0-.62-.13-.62-1.15h-8.64v5.83c0 1.4.5 1.4 1.84 1.4h5.86c2.65 0 2.87-1.68 3.06-2.31l.62-2.25h.12c.09.69.16 1.19.31 2.09.22 1.62 1.03 1.47 1.03 2.15 0 1.4-2.74 2.03-4.33 2.03h-6.92c-3.12 0-3.12-1.19-3.12-3.09v-14.78l-1.84 2.03c-.06-.06-.09-.16-.16-.22 2.25-3.2 4.84-8.91 4.56-10.94l2.09.84c.41.16.66.31.66.59 0 .5-.78.12-1.28 1.37h3.87c.34 0 .78-.78 1.06-.78.41 0 2.15 1.31 2.15 1.84 0 .65-1.06.34-1.56.81-.53.41-3.12 3.9-3.84 4.83h4.05zm-4.77 0c1.03-1.87 1.75-3.27 3.09-5.96h-4.46c-.72 1.31-1.53 2.96-3.31 5.21l1.53.75zm-3.46 7.8h3.56v-7.05h-3.56zm8.63-7.05h-3.62v7.05h3.62z"/><path d="m60.5 10.88c.22 0 1.22-1.56 1.5-1.56s2.37 1.68 2.37 1.96c0 .31-.12.34-.31.34h-23.48c-.97 0-2.81.03-3.68.19l-.53-1.19c.65.12 3.43.25 4.3.25h8.76v-2.59h-5.89c0 1.03-.87 1.25-1.19 1.25-.28 0-.56-.16-.56-.47l.03-5.99c0-.44 0-1.75-.25-2.84.78.47 1.75 1.06 2.99 1.06h12.29c.25 0 .69-.84.97-.84.25 0 1.84 1.19 1.84 1.59 0 .47-.84.44-.84 1.06l.06 5.15c0 .69-.9 1.03-1.31 1.03-.53 0-.53-.44-.53-1h-5.83v2.59h9.29zm-14 11.01c.25.19.53.47.53.69 0 .06-.03.13-.06.16-.34.44-1 .03-1.72.69-1.19 1-5.46 4.18-8.01 4.62l-.09-.16c2.12-1.19 7.45-5.64 7.45-7.2l1.9 1.22zm-4.37-6.3c0-.41-.03-1.53-.16-2.59.9.5 1.96 1.12 2.71 1.12h11.76c.28 0 .81-.94 1.09-.94s1.87 1.22 1.87 1.5c0 .44-.81.72-.81 1.37s.09 2.4.09 3.18-.62 1.06-1.15 1.06c-.62 0-.62-.22-.62-1.12h-5.43c0 1.59.16 5.12.16 6.61 0 1.4-.87 2.5-2.9 2.96-.37-1.31-1.9-2.34-2.68-2.68v-.19c.9.12 1.84.25 2.68.25s1.06-.37 1.06-.87v-6.08h-5.96c0 .97-.56 1.28-1.12 1.28-.62 0-.65-.34-.65-.84zm1.41-11.29h13.5v-2.25h-13.5zm0 3.25h13.5v-2.49h-13.5zm13.38 7.33h-13.07v3.56h13.07zm-1.56 6.89c2.34.37 7.45 2.59 7.45 4.83 0 .62-.37 1.25-1.06 1.25-1.47 0-1.43-2.56-6.46-5.89.03-.06.03-.12.06-.19"/><path d="m79.81 14.74c-.31 1.28-.72 2.59-1.28 4.24-.28.72-.84 2.4-.84 2.99 0 .25 0 .5.41 1.47.13.34.34.9.34 1.25 0 .53-.44.72-.72.72-1 0-2.84-1.87-2.84-6.42 0-1.28.12-2.84.87-6.74.25-1.4.72-3.77.72-5.05 0-.5 0-2.12-.84-3.09 2.18.28 2.99 2.49 2.99 3.43s-.72 2.65-.84 2.99c-.44 1.03-1.78 4.46-1.78 7.36 0 1.4.28 2.06.62 2.06.47 0 2.56-4.37 2.99-5.3l.19.09zm12.04 7.76c-1 1.22-2.96 1.81-4.8 1.81-2.56 0-4.33-1.09-4.33-2.56 0-1.75 1.9-3.15 5.15-3.15 1.5 0 2.62.16 3.37.28-.12-1.87-.47-6.8-.47-8.39-.84.16-2.43.5-3.93.5-2.84 0-4.24-1.68-4.24-2.71 0-.53.25-.78.5-1.03.69 2.28 3.43 2.49 4.71 2.49s2.28-.22 2.96-.37c-.06-2.84-.09-3.93-.34-4.55-.28-.65-1-.72-1.93-.81.84-.87 1.59-.94 1.9-.94.9 0 2.25 1 2.25 1.65 0 .25-.28 1.22-.31 1.4 1.84.56 2.68.78 3.4.78.19 0 .94-.06 1.09-.06.22 0 1.09 0 1.09.66 0 .87-1.22 1.22-5.89 2.68.06 1.96.12 3.06.5 5.96.22 1.87.22 2.31.28 3.03 1.65.5 3.4 1 5.21 2.25 1.09.75 1.22 1.06 1.22 1.47 0 .22 0 1.12-.75 1.12-.28 0-.56-.06-1.37-.75-1.72-1.43-2.9-2.03-4.37-2.71-.09.56-.25 1.22-.87 1.96m-4.68-3.03c-1.03 0-1.62.12-2.03.37-.59.37-1.12 1.06-1.12 1.78 0 1.4 2.15 1.4 2.43 1.4 2.96 0 4.3-1.09 4.68-2.99-2-.44-2.56-.56-3.96-.56m4.8-10.45c.56-.19 2.56-.87 2.56-1.25 0-.09-.09-.22-.19-.28-.28-.22-1.75-1.06-2.09-1.25-.19 1.06-.22 1.59-.28 2.78"/><path d="m108.81 24.16c2.46-.96 6.46-2.62 10.39-6.91 3.84-4.13 5.4-7.96 5.4-8.38 0-.38-.48-.45-1.06-.45-1.31 0-4.38.19-8.19.93-1.44.26-2.78.51-3.04.51-1.22 0-2.24-1.57-2.24-2.24 0-.13.03-.19.06-.32.67.38 1.28.74 4.09.74 4.09 0 8.99-.58 9.11-.64.29-.03 1.6-.35 1.86-.35.99 0 2.33 1.18 2.33 1.73 0 .26-.16.48-.61.8-.58.42-.67.58-1.15 1.44-4.54 7.9-9.47 12.25-16.95 13.34l-.03-.19zm24.56-21.17c0 1.57-1.31 2.85-2.88 2.85s-2.88-1.28-2.88-2.85 1.31-2.88 2.88-2.88 2.88 1.28 2.88 2.88m-4.67 0c0 .96.8 1.76 1.79 1.76s1.79-.8 1.79-1.76-.8-1.79-1.79-1.79-1.79.8-1.79 1.79"/><path d="m141.45 26.4c2.97-1.69 5.47-3.84 7.23-5.92 3.17-3.74 3.2-7.39 3.2-9.31 0-.9-.03-4.83-.22-5.37-.35-1.09-1.37-1.12-1.92-1.15.45-.54 1.18-1.5 2.21-1.5.8 0 2.21.8 2.21 1.5 0 .19-.35.96-.38 1.12-.13.38-.13 3.74-.13 4.41 0 3.17-.03 7.64-4.41 11.93-2.14 2.11-4.83 3.55-7.68 4.51l-.1-.22zm2.63-21.33c1.5 0 1.5 1.28 1.5 1.57 0 .45-.06 2.4-.06 2.81 0 .7.03 3.9.03 4.54s-.13 1.09-.8 1.09c-.9 0-.96-.74-.96-1.37 0-.67.16-3.68.16-4.29 0-1.47 0-3.36-.96-3.93.32-.22.61-.42 1.09-.42"/><path d="m168.86 7.21c3.29 0 6.24 1.28 6.24 3.39 0 .99-.74 1.41-1.15 1.41-.48 0-.58-.13-1.6-1.31-1.76-2.01-3.26-2.75-4.51-3.33.32-.1.48-.16 1.02-.16m22.29-1.73c-3.58 6.59-9.63 11.32-15.89 15.38-.83.51-2.18 1.21-2.91 1.82-.64.54-.99.61-1.25.61-1.18 0-2.97-1.89-2.97-3.33 0-.61.22-1.02.38-1.25.32.45.51.74.96 1.09.58.48 1.18.64 1.5.64 1.82 0 6.49-3.23 8.6-4.73 5.08-3.65 7-5.69 11.42-10.36z"/><path d="m193.45 22.78c12.82-3.77 18.36-14.17 18.36-14.49 0-.26-.19-.35-.42-.35-1.28 0-6.91 1.02-9.02 1.76-1.12.38-1.31.42-1.66.42-.99 0-2.08-1.02-1.92-2.59.42.38.83.77 2.49.77 2.17 0 7.45-.96 8.63-1.28.38-.13 2.08-.86 2.46-.86.8 0 2.59 1.18 2.59 1.76 0 .22-.26.42-.7.67-.67.38-.77.51-1.6 1.66-1.28 1.66-1.47 1.92-2.05 2.65 0 .06-.83.96-.96 1.15 2.11.61 4.25 1.22 6.52 2.75.67.45 2.27 1.6 2.27 2.78 0 .61-.45.93-.83.93q-.45 0-2.08-1.63c-2.14-2.17-4.54-3.55-6.17-4.48-2.08 2.4-4.77 4.45-7.16 5.79-3.65 2.05-6.68 2.56-8.67 2.81l-.1-.22z"/><path d="m236.58 13.8c-.5 1.53-2.28 7.17-2.28 8.11 0 .19 0 .5.37 1.37.16.28.34.78.34 1.06 0 .69-.84.69-.87.69-1.47 0-3.49-2.81-3.49-6.71 0-3.06.75-6.42 1.47-9.76.16-.65.56-2.53.56-2.99 0-1.15-1-1.59-1.43-1.78.19-.22.41-.44.81-.44.97 0 2.84 1.28 2.84 2.21 0 .56-1.09 2.84-1.28 3.34-1.37 3.74-1.87 6.67-1.87 9.08 0 1.87.47 3.03.97 3.03.31 0 .75-1.03.81-1.19.9-2.09 1.84-4.15 2.87-6.14l.19.12zm10.14-7.82c3.09.03 4.3.97 4.3 1.78 0 .66-.75.69-1.84.72-3.15.09-7.49 4.68-7.49 7.92 0 2.31 2 4.68 6.08 4.68.41 0 2.15-.09 2.49-.09.56 0 2.09.09 2.09 1.15 0 .66-.31.97-2.15.97-7.64 0-9.54-3.77-9.54-5.99 0-2.56 1.59-4.46 4.46-7.89.22-.28.72-.9.72-1.31 0-.34-.16-.37-1.68-.62-1.4-.22-2.96-.69-3.52-2.12 1.34.78 1.68.78 6.08.81"/><path d="m273.86 24.41c1.25-.03 5.02-.31 7.36-1.78 1.78-1.12 3.09-2.87 3.09-4.93 0-4.02-4.27-6.49-7.61-6.46-.78 2.68-2.4 5.52-4.49 8.39.06.19.53 1.25.81 1.87.12.28.19.5.19.81 0 .75-.56.78-.69.78-.65 0-.9-.59-1.5-2.06-1.03 1.06-2.99 3.06-5.15 3.06-1.37 0-2.46-1.4-2.46-3.37 0-3.18 2.74-5.65 3.46-6.27 1.09-.94 1.93-1.43 3.46-2.31.09-1.37.19-2.31.44-3.99-1.96.44-3.56.72-4.62.72-1.87 0-3.18-1.59-3.18-2.49 0-.37.12-.56.25-.72.69.72 1.84 1.96 4.02 1.96 1.12 0 2.31-.25 3.65-.59.12-.62.65-4.02.65-4.46 0-.37-.16-.72-.9-.87h-1.59c.53-.81 1.84-1.22 2.71-1.22 1.25 0 1.87.94 1.87 1.43 0 .16-.03.34-.31 1.22-.34 1.15-.75 2.4-1 3.46.53-.19 1.12-.41 2.12-.9 1.81-.9 2.03-1 2.28-1 .44 0 1.09.41 1.12.78 0 .44-1.53 1-2.21 1.25-1.78.62-2.93.94-3.56 1.09-.25 1.43-.31 2.06-.47 3.74 1.28-.53 2.18-.81 3.52-1-.03-.59-.09-.9-.34-1.37 1.25.16 1.75.84 1.9 1.25 5.05-.06 9.51 2.93 9.51 7.36 0 2.78-1.81 7.08-9.76 7.08-1.22 0-2.03-.09-2.56-.19l-.03-.28zm-3.58-11.36c-1.34.94-2.15 1.5-3.21 2.81-1.47 1.87-2.25 3.84-2.25 5.65 0 .44.12 1.72.84 1.72.22 0 2-.34 4.93-3.68-.31-2.06-.34-4.96-.31-6.49m1.27-.66c-.03.65-.06 1.28-.06 2.12 0 1.84.16 2.81.28 3.46.81-1.19 2.43-3.65 3.27-6.61-1.53.25-2.4.53-3.49 1.03"/><path d="m311.44 21.01c1.22-1 2.12-2.56 2.12-4.09 0-2.84-2.68-5.02-5.3-5.02-2.18 0-5.11 1.19-6.14 2.53-.47.62-2.37 3.46-2.81 3.99-.59.78-1.03 1.31-1.5 1.31-.25 0-.81-.19-.81-1.12 0-1.53 1-2.28 2.62-3.52 2.18-1.65 6.52-7.14 8.08-9.11.56-.75 1.47-1.9 1.47-2.31 0-.16-.16-.19-.28-.19-.59 0-3.34.9-4.96 1.75-1.06.56-1.34.69-1.78.69-.9 0-2.12-1.06-2.12-1.93 0-.28.09-.5.28-.84.34.28.84.69 2.12.69 1.5 0 3.93-.75 4.55-.94 1.31-.44 2.4-.78 2.93-.78.69 0 2.28.72 2.28 1.31 0 .19-.09.41-.78.87-1.5 1.03-5.27 5.05-8.14 8.45.97-.53 1.22-.65 1.72-.84 1.06-.37 2.62-.78 4.05-.78 3.24 0 6.49 2.37 6.49 6.05 0 4.74-5.24 6.64-9.11 6.64-.47 0-2.37-.03-3.77-.69-.75-.37-1.25-.97-1.25-1.93 0-1.75 1.78-2.5 3.46-2.5.62 0 2.31.13 3.12 1.34.53.81.47 1.78.44 2.4 1.37-.44 2.18-.75 3.03-1.43m-7.27-1.16c-.87 0-1.56.62-1.56 1.19 0 .37.37 1.31 2.15 1.62.69.12 1.19.09 1.96.06-.06-.5-.41-2.87-2.56-2.87"/><path d="m325.27 21.25c0-2.31 1.85-4.16 4.13-4.16s4.16 1.85 4.16 4.16-1.91 4.13-4.16 4.13-4.13-1.88-4.13-4.13m7.49 0c0-1.85-1.51-3.36-3.36-3.36s-3.36 1.54-3.36 3.36 1.45 3.36 3.36 3.36 3.36-1.48 3.36-3.36"/></g></svg>