<svg width="30" height="20" viewBox="0 0 30 20" fill="none" xmlns="http://www.w3.org/2000/svg">
<path d="M9.49603 9.62765L8.80389 10.9956C9.46794 11.7344 9.87199 12.7082 9.87199 13.7742C9.87199 16.0776 7.98583 17.9513 5.66709 17.9513C3.34834 17.9513 1.46218 16.0776 1.46218 13.7742C1.46218 11.4707 3.34834 9.59705 5.66709 9.59705C5.79301 9.59705 5.91758 9.6029 6.04124 9.6137L6.73383 8.24488C6.38821 8.17918 6.03173 8.14453 5.66754 8.14453C2.54206 8.14453 0 10.6702 0 13.7742C0 16.8781 2.54206 19.4038 5.66709 19.4038C8.79211 19.4038 11.3342 16.8785 11.3342 13.7742C11.3342 12.1349 10.6248 10.6572 9.49557 9.6272L9.49603 9.62765Z" fill="white"/>
<path d="M18.8794 12.2384H20.4217C20.6251 11.7299 20.9254 11.27 21.3009 10.8822L20.6604 9.4895C19.8188 10.2018 19.1892 11.154 18.8789 12.2384H18.8794Z" fill="white"/>
<path d="M24.3317 8.14453C24.0396 8.14453 23.7528 8.16658 23.4725 8.20933L24.1134 9.6029C24.1859 9.5993 24.2584 9.5975 24.3317 9.5975C26.6505 9.5975 28.5366 11.4712 28.5366 13.7746C28.5366 16.078 26.6505 17.9517 24.3317 17.9517C22.5588 17.9517 21.0387 16.856 20.4213 15.3108H18.8789C19.5538 17.6709 21.7426 19.4042 24.3317 19.4042C27.4568 19.4042 29.9988 16.879 29.9988 13.7746C29.9988 10.6702 27.4568 8.14498 24.3317 8.14498V8.14453Z" fill="white"/>
<path d="M5.33926 14.4234C5.4448 14.476 5.55668 14.5008 5.66675 14.5008C5.93446 14.5008 6.1922 14.3541 6.32039 14.1003L10.0592 6.7099L13.5371 14.0823C13.6576 14.3374 13.9153 14.5003 14.1989 14.5003H24.3318C24.7354 14.5003 25.0629 14.175 25.0629 13.774C25.0629 13.6485 24.9981 13.4753 24.9967 13.4721L21.1469 5.1008C21.0283 4.84206 20.7683 4.67647 20.482 4.67647H11.0879L12.5338 1.81824H14.7397C15.1433 1.81824 15.4708 1.49291 15.4708 1.09198C15.4708 0.691054 15.1433 0.365723 14.7397 0.365723H12.083C11.8067 0.365723 11.554 0.520514 11.4299 0.765749L5.01448 13.4483C4.83329 13.8064 4.97869 14.2434 5.33926 14.4234ZM11.4004 6.12989H18.5831L15.1578 13.0487H14.6641L11.4004 6.12989ZM23.2025 13.0482H16.7898L20.1096 6.33912L23.2025 13.0482Z" fill="white"/>
<path d="M17.5839 4.11103H20.4647C20.6092 4.11103 20.7451 4.04173 20.8298 3.92519L21.4948 3.00769C21.6021 2.85965 21.4957 2.65356 21.3122 2.65356H18.4314C18.2869 2.65356 18.151 2.72286 18.0663 2.8394L17.4013 3.7569C17.294 3.90449 17.4004 4.11103 17.5839 4.11103Z" fill="white"/>
<path d="M16.6143 15.0657H13.3013C13.177 15.0657 13.0762 15.1658 13.0762 15.2893V16.3503C13.0762 16.4739 13.177 16.574 13.3013 16.574H16.6143C16.7386 16.574 16.8394 16.4739 16.8394 16.3503V15.2893C16.8394 15.1658 16.7386 15.0657 16.6143 15.0657Z" fill="white"/>
</svg>
