<svg width="15" height="15" viewBox="0 0 15 15" fill="none" xmlns="http://www.w3.org/2000/svg">
<mask id="mask0_288_88" style="mask-type:alpha" maskUnits="userSpaceOnUse" x="0" y="0" width="15" height="15">
<rect width="15" height="15" fill="#D9D9D9"/>
</mask>
<g mask="url(#mask0_288_88)">
<path d="M6.875 3.125V0.625H8.125V3.125H6.875ZM11.0312 4.84375L10.1719 3.98438L11.9219 2.1875L12.7969 3.07812L11.0312 4.84375ZM11.875 8.125V6.875H14.375V8.125H11.875ZM6.875 14.375V11.875H8.125V14.375H6.875ZM3.96875 4.8125L2.1875 3.07812L3.07812 2.20312L4.84375 3.96875L3.96875 4.8125ZM11.9063 12.8125L10.1719 11.0156L11.0156 10.1719L12.7969 11.8906L11.9063 12.8125ZM0.625 8.125V6.875H3.125V8.125H0.625ZM3.07812 12.8125L2.20312 11.9219L3.95313 10.1719L4.40625 10.5938L4.85938 11.0312L3.07812 12.8125ZM7.5 11.25C6.45833 11.25 5.57292 10.8854 4.84375 10.1562C4.11458 9.42708 3.75 8.54167 3.75 7.5C3.75 6.45833 4.11458 5.57292 4.84375 4.84375C5.57292 4.11458 6.45833 3.75 7.5 3.75C8.54167 3.75 9.42708 4.11458 10.1562 4.84375C10.8854 5.57292 11.25 6.45833 11.25 7.5C11.25 8.54167 10.8854 9.42708 10.1562 10.1562C9.42708 10.8854 8.54167 11.25 7.5 11.25ZM7.5 10C8.1875 10 8.77604 9.75521 9.26562 9.26562C9.75521 8.77604 10 8.1875 10 7.5C10 6.8125 9.75521 6.22396 9.26562 5.73438C8.77604 5.24479 8.1875 5 7.5 5C6.8125 5 6.22396 5.24479 5.73438 5.73438C5.24479 6.22396 5 6.8125 5 7.5C5 8.1875 5.24479 8.77604 5.73438 9.26562C6.22396 9.75521 6.8125 10 7.5 10Z" fill="#3D2604"/>
</g>
</svg>
