<svg width="24" height="25" viewBox="0 0 24 25" fill="none" xmlns="http://www.w3.org/2000/svg">
<mask id="mask0_290_95" style="mask-type:alpha" maskUnits="userSpaceOnUse" x="0" y="0" width="24" height="25">
<rect y="0.5" width="24" height="24" fill="#D9D9D9"/>
</mask>
<g mask="url(#mask0_290_95)">
<path d="M11.25 14C11.8833 14 12.4167 13.7833 12.85 13.35C13.2833 12.9167 13.5 12.3833 13.5 11.75C13.5 11.1167 13.2833 10.5833 12.85 10.15C12.4167 9.71667 11.8833 9.5 11.25 9.5C10.6167 9.5 10.0833 9.71667 9.65 10.15C9.21667 10.5833 9 11.1167 9 11.75C9 12.3833 9.21667 12.9167 9.65 13.35C10.0833 13.7833 10.6167 14 11.25 14ZM16.075 18L13.45 15.375C13.1167 15.5917 12.7625 15.75 12.3875 15.85C12.0125 15.95 11.6333 16 11.25 16C10.0667 16 9.0625 15.5875 8.2375 14.7625C7.4125 13.9375 7 12.9333 7 11.75C7 10.5667 7.4125 9.5625 8.2375 8.7375C9.0625 7.9125 10.0667 7.5 11.25 7.5C12.4333 7.5 13.4375 7.9125 14.2625 8.7375C15.0875 9.5625 15.5 10.5667 15.5 11.75C15.5 12.1333 15.4458 12.5125 15.3375 12.8875C15.2292 13.2625 15.0667 13.6167 14.85 13.95L17.5 16.6L16.075 18ZM5 21.5C4.45 21.5 3.97917 21.3042 3.5875 20.9125C3.19583 20.5208 3 20.05 3 19.5V15.5H5V19.5H9V21.5H5ZM15 21.5V19.5H19V15.5H21V19.5C21 20.05 20.8042 20.5208 20.4125 20.9125C20.0208 21.3042 19.55 21.5 19 21.5H15ZM3 9.5V5.5C3 4.95 3.19583 4.47917 3.5875 4.0875C3.97917 3.69583 4.45 3.5 5 3.5H9V5.5H5V9.5H3ZM19 9.5V5.5H15V3.5H19C19.55 3.5 20.0208 3.69583 20.4125 4.0875C20.8042 4.47917 21 4.95 21 5.5V9.5H19Z" fill="white"/>
</g>
</svg>
