<svg width="15" height="15" viewBox="0 0 15 15" fill="none" xmlns="http://www.w3.org/2000/svg">
<mask id="mask0_290_82" style="mask-type:alpha" maskUnits="userSpaceOnUse" x="0" y="0" width="15" height="15">
<rect width="15" height="15" fill="#D9D9D9"/>
</mask>
<g mask="url(#mask0_290_82)">
<path d="M7.5 7.5C7.84375 7.5 8.13802 7.3776 8.38281 7.13281C8.6276 6.88802 8.75 6.59375 8.75 6.25C8.75 5.90625 8.6276 5.61198 8.38281 5.36719C8.13802 5.1224 7.84375 5 7.5 5C7.15625 5 6.86198 5.1224 6.61719 5.36719C6.3724 5.61198 6.25 5.90625 6.25 6.25C6.25 6.59375 6.3724 6.88802 6.61719 7.13281C6.86198 7.3776 7.15625 7.5 7.5 7.5ZM7.5 12.0938C8.77083 10.9271 9.71354 9.86719 10.3281 8.91406C10.9427 7.96094 11.25 7.11458 11.25 6.375C11.25 5.23958 10.888 4.3099 10.1641 3.58594C9.4401 2.86198 8.55208 2.5 7.5 2.5C6.44792 2.5 5.5599 2.86198 4.83594 3.58594C4.11198 4.3099 3.75 5.23958 3.75 6.375C3.75 7.11458 4.05729 7.96094 4.67188 8.91406C5.28646 9.86719 6.22917 10.9271 7.5 12.0938ZM7.5 13.75C5.82292 12.3229 4.57031 10.9974 3.74219 9.77344C2.91406 8.54948 2.5 7.41667 2.5 6.375C2.5 4.8125 3.0026 3.56771 4.00781 2.64063C5.01302 1.71354 6.17708 1.25 7.5 1.25C8.82292 1.25 9.98698 1.71354 10.9922 2.64063C11.9974 3.56771 12.5 4.8125 12.5 6.375C12.5 7.41667 12.0859 8.54948 11.2578 9.77344C10.4297 10.9974 9.17708 12.3229 7.5 13.75Z" fill="#3D2604"/>
</g>
</svg>
