<svg width="1199" height="265" viewBox="0 0 1199 265" fill="none" xmlns="http://www.w3.org/2000/svg">
<g filter="url(#filter0_d_1229_309)">
<path d="M334.465 256.395C333.094 256.395 332.448 255.792 332.448 254.544C332.448 254.222 332.448 253.416 332.529 252.128C332.569 250.84 332.65 249.31 332.69 247.539C332.731 245.768 332.811 243.876 332.852 241.943C332.892 240.011 332.932 238.32 332.932 236.791H323.775C320.911 236.831 318.611 236.992 316.917 237.193L316.07 233.57C318.167 233.892 320.749 234.134 323.775 234.255H332.932V208.813C330.068 213.482 326.679 217.911 322.807 222.137C318.934 226.364 314.9 230.148 310.704 233.57C306.509 236.992 302.394 239.89 298.359 242.185C297.512 242.024 297.19 241.541 297.351 240.736C300.175 238.522 303.039 235.905 305.984 232.886C308.929 229.826 311.793 226.525 314.577 222.902C317.36 219.279 319.942 215.535 322.282 211.59C324.622 207.645 326.599 203.7 328.172 199.755H307.073C304.128 199.795 301.869 199.956 300.215 200.158L299.287 196.535C301.425 196.857 304.007 197.098 306.993 197.219H332.932V187.316C332.932 185.665 332.852 184.337 332.731 183.25C332.569 182.163 332.368 181.398 332.085 180.875C331.964 180.553 332.005 180.271 332.166 180.11C332.327 179.828 332.61 179.748 332.932 179.869C333.659 179.909 334.667 180.07 335.877 180.231C337.128 180.432 338.379 180.633 339.71 180.875C341.001 181.116 342.009 181.318 342.695 181.559C342.978 181.6 343.179 181.761 343.3 182.042C343.421 182.284 343.462 182.566 343.462 182.848C343.421 183.451 343.058 183.854 342.453 183.934C341.767 183.975 341.243 184.176 340.799 184.498C340.355 184.82 340.154 185.343 340.154 186.149V197.219H358.388C359.074 197.219 359.598 196.977 360.002 196.535C360.244 196.253 360.607 195.77 361.172 195.126C361.736 194.482 362.301 193.837 362.866 193.193C363.431 192.549 363.794 192.106 363.955 191.865C364.48 191.301 365.085 191.221 365.811 191.623C366.416 191.905 367.263 192.428 368.312 193.193C369.361 193.958 370.37 194.763 371.418 195.568C372.427 196.374 373.153 197.018 373.637 197.46C374.081 197.863 374.242 198.346 374.121 198.91C373.96 199.473 373.637 199.755 373.153 199.755H341.646C343.179 203.096 345.237 206.397 347.778 209.658C350.32 212.919 353.265 216.019 356.492 218.957C359.719 221.896 363.108 224.513 366.618 226.807C370.128 229.102 373.557 230.994 376.945 232.403C374.928 233.127 372.992 234.255 371.217 235.744C369.442 237.233 368.11 238.683 367.263 240.092C363.633 237.394 360.082 234.013 356.532 229.907C352.982 225.841 349.795 221.373 346.971 216.502C344.147 211.631 341.848 206.8 340.154 201.969V234.255H345.075C345.64 234.255 346.084 234.053 346.447 233.651C346.729 233.248 347.254 232.564 347.98 231.638C348.706 230.672 349.23 229.987 349.513 229.625C349.957 229.021 350.521 228.941 351.207 229.464C351.611 229.746 352.216 230.229 353.023 230.954C353.829 231.678 354.636 232.362 355.443 233.127C356.25 233.852 356.815 234.416 357.137 234.818C357.541 235.261 357.662 235.704 357.501 236.187C357.339 236.63 357.057 236.871 356.613 236.871H340.194C340.234 239.125 340.315 241.46 340.355 243.835C340.396 246.211 340.476 248.344 340.557 250.115C340.638 251.927 340.678 253.054 340.678 253.497C340.678 254.222 340.073 254.906 338.863 255.51C337.652 256.114 336.2 256.436 334.506 256.436L334.465 256.395Z" fill="white"/>
<path d="M421.166 250.517C420.52 249.953 420.48 249.35 420.964 248.786C424.272 248.263 427.378 247.297 430.323 245.888C433.268 244.479 435.89 242.707 438.15 240.493C440.409 238.279 442.224 235.743 443.515 232.804C444.806 229.866 445.492 226.645 445.492 223.143C445.492 218.473 444.604 214.407 442.829 211.026C441.054 207.644 438.593 205.028 435.447 203.216C432.3 201.364 428.589 200.479 424.353 200.479C424.837 201.525 425.159 202.693 425.281 203.941C425.442 205.189 425.482 206.477 425.442 207.765C425.24 212.113 424.595 216.259 423.505 220.244C422.416 224.23 421.045 227.813 419.431 230.993C417.817 234.173 416.123 236.83 414.388 238.883C412.654 240.976 411.04 242.305 409.507 242.868C408.256 243.512 406.925 243.754 405.513 243.593C404.101 243.432 402.81 242.667 401.6 241.218C400.632 240.05 399.704 238.843 398.776 237.555C397.848 236.266 397.082 234.777 396.476 233.046C395.871 231.315 395.549 229.222 395.508 226.685C395.468 223.062 396.154 219.52 397.525 216.098C398.937 212.676 400.914 209.577 403.496 206.839C406.078 204.102 409.103 201.888 412.573 200.197C416.042 198.546 419.875 197.661 423.99 197.54C428.024 197.46 431.735 198.023 435.205 199.231C438.674 200.479 441.7 202.25 444.282 204.585C446.863 206.92 448.88 209.697 450.292 212.878C451.704 216.058 452.431 219.6 452.431 223.465C452.431 227.531 451.624 231.154 450.05 234.415C448.437 237.635 446.218 240.413 443.354 242.707C440.489 245.002 437.181 246.813 433.389 248.102C429.597 249.39 425.523 250.195 421.125 250.436L421.166 250.517ZM407.934 235.944C409.184 235.542 410.556 234.415 412.089 232.563C413.622 230.711 415.034 228.376 416.446 225.518C417.858 222.7 419.028 219.6 419.996 216.259C420.964 212.918 421.529 209.536 421.65 206.155C421.65 205.913 421.65 205.672 421.65 205.47C421.65 205.269 421.65 205.068 421.65 204.867C421.65 204.062 421.65 203.297 421.65 202.572C421.65 201.847 421.65 201.203 421.529 200.559C417.616 201.002 414.106 202.411 411 204.867C407.893 207.322 405.473 210.422 403.778 214.206C402.044 217.99 401.237 222.177 401.358 226.766C401.439 230.469 402.165 233.046 403.415 234.495C404.706 235.904 406.159 236.387 407.813 235.904L407.934 235.944Z" fill="white"/>
<path d="M470.542 254.946C469.654 254.946 469.251 254.544 469.372 253.779C471.389 251.484 473.123 248.707 474.535 245.527C475.947 242.346 477.037 238.965 477.843 235.422C478.65 231.88 479.094 228.458 479.215 225.197C479.255 224.875 479.296 224.553 479.255 224.312C479.255 224.07 479.215 223.829 479.215 223.587V223.064C478.691 223.305 478.126 223.466 477.44 223.627C476.754 223.788 476.068 223.829 475.423 223.829C474.334 223.829 473.809 223.305 473.809 222.299C473.809 221.977 473.809 220.729 473.89 218.555C473.93 216.381 474.011 213.523 474.051 209.98C474.092 206.438 474.132 202.412 474.132 197.984C474.132 195.609 474.051 193.757 473.93 192.429C473.809 191.1 473.648 190.215 473.446 189.772C473.285 189.369 473.325 189.088 473.607 188.927C473.85 188.806 474.092 188.806 474.374 188.846C474.898 189.088 475.584 189.41 476.552 189.812C477.48 190.255 478.408 190.658 479.376 191.141C480.345 191.583 481.071 191.986 481.595 192.308H484.823C484.984 191.624 485.186 190.698 485.428 189.53C485.67 188.363 485.871 187.115 486.073 185.827C486.275 184.539 486.396 183.371 486.517 182.325C486.598 181.278 486.638 180.553 486.638 180.151C486.638 179.748 486.678 179.507 486.799 179.386C487.041 179.225 487.324 179.185 487.646 179.305C488.252 179.466 489.179 179.748 490.39 180.151C491.6 180.553 492.851 180.956 494.061 181.318C495.311 181.721 496.28 182.043 496.925 182.325C497.328 182.486 497.449 182.888 497.328 183.492C497.167 184.056 496.804 184.297 496.32 184.257C495.755 184.217 495.311 184.257 494.989 184.418C494.666 184.579 494.303 184.941 493.859 185.505C493.133 186.511 492.165 187.679 491.035 188.927C489.865 190.215 488.816 191.302 487.848 192.268H498.014C498.539 192.268 498.902 192.107 499.104 191.744C499.346 191.463 499.628 191.1 499.991 190.617C500.354 190.134 500.637 189.732 500.879 189.41C501.282 188.886 501.766 188.806 502.412 189.168C503.138 189.571 504.146 190.174 505.478 190.939C506.768 191.744 507.737 192.348 508.342 192.791C508.786 193.073 508.987 193.435 508.987 193.878C508.987 194.321 508.665 194.683 508.1 194.965C507.858 195.086 507.656 195.206 507.414 195.287C507.172 195.368 506.93 195.529 506.647 195.609C506.083 195.931 505.8 196.656 505.8 197.702C505.8 199.836 505.8 202.131 505.881 204.586C505.921 207.042 506.002 209.377 506.083 211.55C506.163 213.765 506.244 215.616 506.284 217.146C506.325 218.676 506.365 219.602 506.365 219.924C506.365 220.326 506.083 220.689 505.558 220.97C505.034 221.292 504.348 221.534 503.581 221.775C504.267 221.937 505.034 222.178 505.962 222.54C506.849 222.862 507.696 223.225 508.503 223.547C509.31 223.869 509.875 224.151 510.198 224.312C510.601 224.473 510.722 224.835 510.52 225.399C510.48 225.801 510.157 226.002 509.592 226.002C509.189 225.962 508.907 225.962 508.665 226.043C508.422 226.123 508.18 226.445 507.898 227.009C507.091 228.579 506.123 230.27 504.953 232.001C503.783 233.732 502.654 235.302 501.564 236.67C502.976 236.63 504.429 236.549 505.921 236.469C507.414 236.388 508.705 236.308 509.794 236.268C509.471 235.422 509.068 234.617 508.624 233.812C508.18 233.007 507.616 232.363 507.01 231.799C506.97 231.397 507.01 231.075 507.293 230.833C507.575 230.592 507.817 230.471 508.1 230.471C508.382 230.592 508.665 230.712 508.947 230.833L509.713 231.195C511.569 228.498 513.385 225.399 515.16 221.937C516.935 218.474 518.468 214.892 519.678 211.228H513.909C511.488 211.269 509.552 211.43 508.059 211.631L507.293 208.169C509.108 208.41 511.287 208.571 513.909 208.692H522.905V197.3H516.652C514.232 197.34 512.295 197.461 510.803 197.622L509.955 194.16C511.771 194.401 513.949 194.562 516.572 194.683H522.905V186.068C522.905 183.774 522.663 182.244 522.219 181.519C522.058 181.197 522.058 180.835 522.219 180.513C522.381 180.352 522.663 180.271 523.067 180.271C523.752 180.312 524.64 180.473 525.729 180.634C526.818 180.835 527.948 181.036 529.077 181.238C530.207 181.439 531.095 181.6 531.78 181.801C532.386 181.962 532.668 182.365 532.547 182.969C532.506 183.572 532.103 183.975 531.458 184.056C530.893 184.096 530.409 184.217 530.005 184.418C529.602 184.619 529.4 185.062 529.4 185.746V194.723H533.959C534.564 194.723 535.048 194.522 535.33 194.12C535.653 193.717 536.137 193.194 536.783 192.469C537.388 191.785 537.832 191.261 538.074 190.98C538.477 190.416 539.042 190.335 539.768 190.738C540.575 191.181 541.503 191.905 542.632 192.872C543.762 193.838 544.609 194.603 545.174 195.247C545.618 195.69 545.779 196.173 545.658 196.656C545.537 197.139 545.214 197.38 544.77 197.38H529.441V208.773H536.218C536.783 208.773 537.226 208.571 537.59 208.169C537.912 207.766 538.437 207.163 539.123 206.357C539.808 205.552 540.252 204.989 540.494 204.707C540.938 204.143 541.503 204.103 542.189 204.546C542.713 204.828 543.318 205.27 544.085 205.915C544.851 206.518 545.577 207.163 546.344 207.766C547.07 208.37 547.635 208.894 547.957 209.296C548.401 209.699 548.563 210.141 548.441 210.625C548.32 211.108 547.998 211.349 547.554 211.349H530.61C532.264 214.127 534.161 216.542 536.379 218.636C538.598 220.729 540.898 222.5 543.278 223.909C545.658 225.358 547.957 226.485 550.096 227.331C548.361 227.854 546.707 228.7 545.174 229.947C543.641 231.195 542.471 232.443 541.704 233.651C539.284 231.517 536.944 228.619 534.766 224.996C532.547 221.373 530.812 217.468 529.521 213.362V221.574C529.521 224.915 529.521 228.136 529.602 231.316C529.642 234.456 529.723 237.113 529.763 239.206C529.804 241.34 529.844 242.548 529.844 242.87C529.844 243.433 529.279 243.997 528.15 244.52C527.02 245.043 525.769 245.325 524.438 245.325C523.188 245.325 522.582 244.802 522.582 243.715C522.582 243.433 522.582 242.588 522.663 241.219C522.703 239.85 522.744 238.079 522.784 235.946C522.784 233.812 522.865 231.477 522.905 228.981C522.945 226.485 522.986 223.99 522.986 221.494V219.28C521.17 221.977 519.315 224.432 517.378 226.606C515.442 228.78 513.546 230.672 511.609 232.323C513.062 233.208 514.312 234.255 515.24 235.382C516.208 236.509 516.773 237.797 517.015 239.206C517.257 240.615 517.096 241.743 516.612 242.588C516.128 243.433 515.361 243.997 514.393 244.279C512.699 244.721 511.771 244.238 511.609 242.749C511.488 242.065 511.367 241.38 511.246 240.696C511.125 240.011 510.883 239.287 510.601 238.522C509.31 239.126 507.777 239.891 506.002 240.736C504.227 241.581 502.855 242.226 501.887 242.668C501.484 242.91 501.242 243.111 501.161 243.353C501.08 243.594 501.08 243.876 501.121 244.279C501.242 244.802 501 245.124 500.435 245.285C499.991 245.527 499.628 245.366 499.346 244.842C498.942 244.118 498.458 243.111 497.853 241.783C497.248 240.495 496.764 239.408 496.36 238.562V245.084C496.36 245.929 496.522 246.573 496.925 246.976C497.288 247.378 497.974 247.66 498.982 247.781C499.83 247.821 501.201 247.902 503.138 247.942C505.074 247.982 507.293 248.022 509.875 248.022C512.457 248.022 515.079 248.022 517.822 247.942C520.565 247.902 523.228 247.821 525.769 247.7C528.351 247.58 530.61 247.459 532.547 247.258C534.483 247.056 535.936 246.895 536.823 246.654C537.791 246.372 538.437 246.09 538.759 245.768C539.082 245.446 539.445 244.923 539.768 244.198C540.01 243.594 540.333 242.548 540.777 241.098C541.22 239.649 541.664 238.24 542.148 236.831C542.592 235.422 542.915 234.456 543.076 233.973C543.641 233.45 544.165 233.53 544.609 234.215C544.609 234.537 544.609 235.181 544.528 236.066C544.488 236.952 544.407 237.958 544.367 239.005C544.327 240.092 544.246 241.058 544.206 241.904C544.165 242.789 544.125 243.353 544.125 243.635C544.125 244.52 544.528 245.084 545.295 245.325C546.142 245.567 546.868 245.969 547.514 246.613C548.119 247.217 548.441 247.942 548.441 248.707C548.441 249.794 548.119 250.639 547.433 251.323C546.747 252.008 545.497 252.531 543.6 252.934C542.189 253.215 540.212 253.457 537.63 253.699C535.048 253.94 532.143 254.101 528.916 254.262C525.689 254.383 522.34 254.504 518.911 254.544C515.482 254.584 512.215 254.624 509.028 254.584C505.881 254.584 503.057 254.504 500.636 254.423C498.216 254.343 496.36 254.222 495.11 254.141C493.133 253.9 491.721 253.417 490.914 252.652C490.107 251.887 489.704 250.639 489.704 248.908V220.004H480.627V221.695C480.627 221.695 480.627 221.896 480.546 221.937C481.272 222.057 482.16 222.259 483.169 222.54C484.177 222.822 485.186 223.104 486.194 223.345C487.203 223.587 487.929 223.829 488.453 224.07C488.897 224.231 489.058 224.593 488.978 225.076C488.857 225.64 488.574 225.922 488.131 225.922C487.606 225.922 487.243 226.002 487.001 226.204C486.759 226.405 486.557 226.807 486.436 227.411C485.266 233.611 483.29 238.965 480.506 243.514C477.722 248.063 474.455 251.847 470.582 254.866L470.542 254.946ZM480.627 205.069H486.719V194.844H480.627V205.069ZM480.627 217.508H486.719V207.605H480.627V217.508ZM493.052 205.069H499.305V194.844H493.052V205.069ZM493.052 217.508H499.305V207.605H493.052V217.508ZM498.66 236.952H499.104C499.426 235.825 499.789 234.496 500.152 232.967C500.515 231.437 500.838 229.907 501.161 228.297C501.484 226.727 501.685 225.358 501.806 224.231C501.927 223.788 501.968 223.426 501.968 223.184V222.138C501.726 222.178 501.443 222.218 501.04 222.218C499.91 222.218 499.346 221.695 499.346 220.689V220.004H496.28V236.831H496.885C497.127 236.831 497.369 236.831 497.651 236.872C497.934 236.912 498.256 236.912 498.66 236.912V236.952Z" fill="white"/>
<path d="M557.438 255.873C556.631 255.47 556.429 254.907 556.833 254.182C562.521 251.686 567.281 248.748 571.033 245.326C574.785 241.904 577.77 237.999 579.989 233.652C582.208 229.304 583.821 224.554 584.91 219.401C586 214.248 586.645 208.693 586.928 202.775H567.886C565.022 202.815 562.722 202.976 561.028 203.218L560.181 199.595C562.279 199.917 564.861 200.158 567.886 200.279H587.049V198.911C587.21 194.402 587.25 190.739 587.129 187.88C587.008 185.022 586.726 183.09 586.282 182.003C586.121 181.6 586.121 181.278 586.282 180.997C586.524 180.755 586.807 180.675 587.21 180.675C587.936 180.715 589.066 180.916 590.558 181.198C592.051 181.48 593.584 181.761 595.077 182.043C596.569 182.325 597.739 182.567 598.465 182.808C598.788 182.848 599.03 183.05 599.151 183.331C599.272 183.613 599.312 183.895 599.312 184.177C599.272 184.861 598.869 185.264 598.223 185.344C597.416 185.385 596.852 185.586 596.448 185.868C596.045 186.149 595.843 186.673 595.843 187.478C595.803 191.987 595.601 196.254 595.319 200.32H615.651C616.337 200.32 616.821 200.078 617.184 199.555C617.466 199.152 617.87 198.669 618.354 198.065C618.878 197.461 619.322 196.898 619.725 196.334C620.25 195.73 620.895 195.61 621.662 196.012C622.227 196.294 622.993 196.777 623.921 197.461C624.849 198.146 625.777 198.83 626.745 199.474C627.713 200.118 628.48 200.682 629.044 201.084C629.569 201.487 629.771 201.97 629.73 202.534C629.69 203.097 629.286 203.54 628.641 203.822C627.794 204.144 627.068 204.506 626.422 204.909C626.019 205.15 625.777 205.432 625.615 205.754C625.454 206.076 625.414 206.68 625.414 207.525C625.414 215.295 625.131 221.937 624.607 227.372C624.082 232.846 623.235 237.355 622.146 240.938C621.057 244.521 619.604 247.339 617.87 249.432C616.135 251.525 613.997 253.055 611.536 253.981C609.035 254.947 606.211 255.551 602.984 255.833C602.863 253.739 602.459 252.089 601.693 250.881C600.926 249.673 599.837 248.667 598.385 247.902C596.932 247.137 594.956 246.413 592.454 245.728C592.051 244.923 592.212 244.4 592.979 244.118C593.221 244.158 593.544 244.239 593.987 244.279C595.238 244.521 596.69 244.762 598.304 245.044C599.918 245.326 601.531 245.527 603.105 245.688C604.638 245.849 606.009 245.809 607.139 245.688C609.721 245.286 611.778 243.635 613.23 240.737C614.683 237.838 615.732 233.289 616.377 227.13C616.982 220.971 617.345 212.879 617.386 202.815H595.198C594.633 210.545 593.544 217.267 591.93 222.984C590.316 228.7 588.057 233.652 585.112 237.838C582.167 242.025 578.456 245.527 573.937 248.426C569.419 251.324 563.933 253.82 557.518 255.913L557.438 255.873Z" fill="white"/>
<path d="M682.137 252.33C677.579 252.33 673.867 251.646 671.003 250.277C668.139 248.908 666.646 246.735 666.525 243.796C666.444 241.542 667.171 239.609 668.704 238.08C670.237 236.55 672.173 235.02 674.432 233.571C675.199 233.088 676.086 232.564 677.135 231.961C678.144 231.357 679.233 230.672 680.403 229.948C680.322 228.217 680.08 226.526 679.717 224.956C679.354 223.346 678.789 222.058 678.063 221.051C677.296 220.045 676.288 219.521 674.997 219.521C673.262 219.521 671.608 220.005 670.035 221.011C668.461 222.017 667.05 223.265 665.759 224.835C664.468 226.365 663.378 228.016 662.451 229.706C661.563 231.236 660.676 232.081 659.707 232.162C658.739 232.242 657.892 231.759 657.166 230.713C656.238 229.304 655.996 228.096 656.399 227.049C656.803 226.003 657.529 225.037 658.537 224.191C660.434 222.661 662.531 220.488 664.911 217.67C667.251 214.852 669.389 211.953 671.326 208.894C670.559 208.934 669.793 208.974 669.026 209.015C668.26 209.015 667.574 209.015 666.888 209.015C664.185 209.055 662.209 208.29 661.039 206.72C659.869 205.15 659.223 203.298 659.102 201.165C659.506 200.641 659.99 200.561 660.555 200.963C660.958 202.332 661.644 203.218 662.693 203.62C663.742 204.023 665.073 204.224 666.727 204.224C667.856 204.224 669.067 204.184 670.398 204.063C671.729 203.942 673.06 203.781 674.432 203.58C674.755 203.016 675.078 202.413 675.32 201.849C675.602 201.285 675.844 200.722 676.086 200.199C677.377 196.817 676.772 194.683 674.19 193.838C674.029 193.597 674.029 193.315 674.069 193.033C674.15 192.751 674.311 192.55 674.553 192.469C675.723 192.429 677.054 192.63 678.507 193.073C679.959 193.516 681.088 194.039 681.895 194.643C682.702 195.207 683.146 195.931 683.186 196.696C683.186 197.501 682.944 198.145 682.42 198.709C682.097 199.031 681.694 199.474 681.29 199.997C680.887 200.521 680.564 201.004 680.322 201.366C680.241 201.567 680.12 201.769 679.959 201.97C679.798 202.171 679.677 202.413 679.596 202.654C680.282 202.493 680.887 202.332 681.492 202.131C682.057 201.93 682.621 201.728 683.106 201.567C683.59 201.326 684.074 201.205 684.598 201.205C685.123 201.205 685.768 201.406 686.615 201.849C688.108 202.654 688.834 203.58 688.794 204.586C688.753 205.593 687.947 206.358 686.414 206.841C685.405 207.123 683.953 207.404 682.057 207.726C680.161 208.008 678.144 208.29 675.965 208.532C674.714 210.504 673.424 212.477 672.092 214.489C670.761 216.462 669.591 218.153 668.583 219.562C669.551 218.837 670.6 218.233 671.77 217.75C672.939 217.267 674.15 217.026 675.481 217.026C677.901 217.026 679.838 217.67 681.29 218.998C682.743 220.286 683.872 221.937 684.719 223.869C685.486 221.615 686.535 219.481 687.866 217.509C689.197 215.536 690.811 213.926 692.667 212.678C694.522 211.43 696.62 210.826 698.96 210.826C701.461 210.826 703.478 211.269 704.93 212.114C706.383 212.96 707.391 214.047 707.916 215.254C708.44 216.462 708.481 217.629 708.077 218.676C707.674 219.723 706.907 220.488 705.697 220.93C704.164 221.454 702.308 222.219 700.13 223.185C697.992 224.151 695.692 225.238 693.352 226.405C690.972 227.573 688.632 228.821 686.293 230.069C686.535 231.84 686.696 233.571 686.777 235.262C686.857 236.912 686.898 238.361 686.898 239.569C686.898 240.777 686.575 241.743 685.889 242.427C685.203 243.112 684.397 243.474 683.509 243.474C682.621 243.474 681.855 243.192 681.331 242.588C680.806 242.025 680.524 241.219 680.524 240.253C680.524 239.69 680.524 238.724 680.645 237.476C680.725 236.187 680.766 234.779 680.766 233.249C679.838 233.772 678.991 234.295 678.224 234.779C677.458 235.262 676.732 235.745 676.046 236.228C674.674 237.154 673.706 238.08 673.06 239.046C672.415 240.012 672.173 241.099 672.254 242.306C672.334 243.997 673.343 245.124 675.199 245.688C677.054 246.251 679.555 246.533 682.702 246.533C684.961 246.533 687.261 246.372 689.601 246.05C691.94 245.728 693.756 245.366 695.127 244.923C695.854 244.682 696.418 244.561 696.781 244.601C697.185 244.601 697.669 244.762 698.314 245.004C699.767 245.567 700.735 246.292 701.219 247.137C701.703 247.983 701.784 248.788 701.421 249.472C701.058 250.156 700.372 250.72 699.242 251.002C697.306 251.485 694.805 251.847 691.739 252.048C688.673 252.25 685.526 252.37 682.339 252.37L682.137 252.33ZM685.768 226.808C688.108 225.399 690.407 223.99 692.707 222.621C695.006 221.212 696.983 219.924 698.678 218.716C700.372 217.549 701.098 216.462 700.896 215.415C700.695 214.369 699.686 213.845 697.951 213.845C695.934 213.845 694.079 214.489 692.465 215.778C690.851 217.066 689.48 218.676 688.31 220.649C687.18 222.621 686.293 224.674 685.728 226.808H685.768Z" fill="white"/>
<path d="M755.596 256.396C754.789 256.114 754.547 255.591 754.829 254.786C759.872 251.927 763.785 248.023 766.609 243.071C769.433 238.12 771.45 232.121 772.701 224.996C773.951 217.871 774.718 209.498 775 199.917H769.756C767.335 199.957 765.399 200.118 763.906 200.319L763.503 198.548H736.918C735.385 198.548 734.094 198.548 733.045 198.628C731.996 198.669 731.028 198.789 730.14 198.95L729.293 195.408C731.27 195.69 733.771 195.891 736.837 196.012H751.763C752.328 196.012 752.812 195.81 753.216 195.408C753.498 195.086 754.022 194.482 754.749 193.596C755.475 192.711 755.999 192.107 756.282 191.785C756.806 191.221 757.371 191.181 758.057 191.624C758.621 191.906 759.307 192.348 760.154 192.993C761.002 193.596 761.808 194.241 762.615 194.844C763.422 195.448 763.987 195.972 764.31 196.374C764.552 196.616 764.632 196.817 764.632 197.058C765.318 197.099 766.125 197.179 767.053 197.26C767.981 197.34 768.909 197.38 769.796 197.38H777.501V189.007C777.501 186.713 777.421 184.941 777.3 183.693C777.138 182.445 776.937 181.6 776.654 181.157C776.493 180.755 776.453 180.433 776.574 180.151C776.816 179.909 777.098 179.829 777.501 179.909C778.187 179.95 779.196 180.111 780.567 180.272C781.939 180.473 783.27 180.714 784.642 180.956C786.014 181.198 787.022 181.439 787.708 181.6C788.394 181.761 788.676 182.204 788.555 182.848C788.515 183.532 788.152 183.854 787.466 183.854C786.901 183.895 786.377 184.056 785.892 184.297C785.408 184.539 785.166 184.982 785.166 185.746V197.421H793.235C793.921 197.421 794.364 197.219 794.606 196.817C794.848 196.495 795.171 196.012 795.615 195.408C796.059 194.804 796.502 194.241 796.946 193.637C797.39 193.033 797.672 192.63 797.834 192.429C798.277 191.704 798.923 191.624 799.689 192.268C800.254 192.59 800.98 193.154 801.868 193.918C802.755 194.683 803.603 195.448 804.45 196.173C805.297 196.897 805.902 197.461 806.225 197.783C806.669 198.226 806.79 198.709 806.588 199.232C806.386 199.756 806.063 199.997 805.62 199.997H782.907C782.867 202.372 782.746 204.667 782.625 206.881C782.463 209.095 782.262 211.309 781.979 213.443H791.46C791.863 213.443 792.186 213.282 792.468 212.919C792.751 212.638 793.154 212.154 793.678 211.51C794.203 210.866 794.606 210.383 794.889 210.021C795.211 209.578 795.696 209.498 796.341 209.86C796.785 210.101 797.511 210.504 798.56 211.068C799.568 211.671 800.617 212.275 801.666 212.879C802.715 213.483 803.441 214.006 803.925 214.409C804.329 214.731 804.49 215.214 804.409 215.778C804.329 216.341 804.046 216.663 803.603 216.784C803.199 216.905 802.796 217.025 802.392 217.227C801.949 217.388 801.626 217.549 801.343 217.629C800.94 217.871 800.658 218.112 800.496 218.394C800.335 218.676 800.214 219.159 800.174 219.843C799.77 227.009 799.165 232.886 798.398 237.476C797.592 242.065 796.543 245.648 795.171 248.264C793.799 250.841 792.065 252.733 789.967 253.94C787.829 255.108 785.247 255.873 782.221 256.235C781.979 254.222 781.616 252.652 781.092 251.525C780.567 250.438 779.72 249.552 778.591 248.908C777.461 248.264 775.928 247.701 774.032 247.177C773.629 246.372 773.79 245.849 774.556 245.567C774.677 245.567 774.839 245.567 775.081 245.648C776.17 245.889 777.663 246.131 779.64 246.412C781.616 246.694 783.472 246.775 785.166 246.654C786.135 246.614 786.982 246.09 787.748 245.084C788.515 244.118 789.201 242.467 789.886 240.132C790.532 237.838 791.097 234.698 791.54 230.793C791.984 226.888 792.347 221.937 792.63 215.939H781.858C780.487 225.962 777.864 234.376 773.911 241.219C769.957 248.023 763.947 253.095 755.878 256.436L755.596 256.396ZM733.045 188.444L732.198 184.901C734.013 185.183 736.191 185.384 738.814 185.505H750.432C751.037 185.505 751.521 185.344 751.804 184.982C752.126 184.579 752.611 184.056 753.216 183.371C753.821 182.687 754.224 182.164 754.547 181.761C754.991 181.238 755.596 181.198 756.322 181.6C757.008 182.043 757.895 182.727 758.985 183.653C760.074 184.579 760.961 185.384 761.566 186.069C762.01 186.471 762.172 186.874 761.97 187.357C761.768 187.84 761.486 188.041 761.042 188.041H738.854C736.474 188.081 734.578 188.242 733.085 188.444H733.045ZM734.497 256.315C733.327 256.315 732.722 255.752 732.722 254.625C732.722 254.222 732.762 253.014 732.883 250.961C733.004 248.908 733.085 246.412 733.166 243.433C733.246 240.454 733.287 237.516 733.287 234.497C733.287 232.081 733.246 230.068 733.166 228.498C733.085 226.928 732.883 225.801 732.601 225.197C732.44 224.875 732.48 224.553 732.762 224.272C733.004 224.03 733.287 224.03 733.69 224.191C734.537 224.473 735.748 224.956 737.281 225.64C738.814 226.325 740.145 226.928 741.234 227.492H750.029C750.472 227.492 750.876 227.331 751.199 226.969L752.974 224.433C753.417 223.909 753.982 223.829 754.668 224.191C755.192 224.433 755.838 224.755 756.685 225.238C757.532 225.721 758.379 226.204 759.267 226.727C760.154 227.25 760.8 227.653 761.244 227.975C761.687 228.297 761.929 228.7 761.929 229.143C761.929 229.585 761.647 229.948 761.082 230.229C760.8 230.39 760.558 230.551 760.316 230.713C760.074 230.874 759.872 230.994 759.63 231.075C759.065 231.397 758.783 232.081 758.783 233.088C758.783 234.094 758.783 235.382 758.864 236.992C758.904 238.562 758.985 240.173 759.065 241.823C759.146 243.474 759.227 244.923 759.267 246.171C759.307 247.459 759.348 248.224 759.348 248.586C759.348 249.271 758.662 249.874 757.33 250.357C755.999 250.841 754.547 251.122 753.095 251.122C751.844 251.122 751.239 250.599 751.239 249.512V248.224H740.548V253.819C740.548 254.423 739.903 254.987 738.612 255.51C737.321 256.034 735.909 256.275 734.376 256.275L734.497 256.315ZM733.65 209.578L732.803 206.036C734.618 206.317 736.797 206.519 739.419 206.639H749.827C750.432 206.639 750.916 206.478 751.199 206.116C751.481 205.713 751.925 205.19 752.53 204.506C753.135 203.821 753.579 203.298 753.942 202.896C754.386 202.372 754.95 202.332 755.636 202.735C756.322 203.177 757.209 203.902 758.339 204.828C759.469 205.794 760.356 206.559 760.961 207.203C761.365 207.606 761.486 208.008 761.284 208.491C761.082 208.974 760.8 209.175 760.356 209.175H739.419C737.039 209.216 735.143 209.377 733.65 209.578ZM733.65 219.964L732.803 216.422C734.618 216.703 736.797 216.905 739.419 217.025H749.504C750.109 217.025 750.593 216.864 750.876 216.502C751.158 216.1 751.602 215.576 752.247 214.892C752.853 214.208 753.337 213.684 753.619 213.282C754.063 212.758 754.628 212.718 755.313 213.121C756.04 213.563 756.967 214.288 758.097 215.254C759.227 216.22 760.074 216.985 760.639 217.629C761.042 218.032 761.163 218.434 760.961 218.917C760.76 219.401 760.477 219.602 760.033 219.602H739.459C737.079 219.642 735.183 219.803 733.69 220.004L733.65 219.964ZM740.669 245.728H751.36V229.988H740.669V245.728Z" fill="white"/>
<path d="M833.94 251.687C833.012 251.687 832.245 251.405 831.6 250.842C830.954 250.278 830.672 249.473 830.672 248.426C830.672 247.863 830.672 247.058 830.793 246.011C830.874 244.964 830.914 243.797 830.914 242.428C830.914 241.261 830.591 239.812 829.986 238.04C829.381 236.269 828.614 234.417 827.646 232.485C826.436 234.256 825.347 236.027 824.338 237.718C823.33 239.409 822.482 240.939 821.756 242.348C821.192 243.515 820.425 244.159 819.538 244.36C818.65 244.562 817.843 244.24 817.198 243.435C816.431 242.468 816.028 241.422 816.068 240.295C816.068 239.167 816.552 238.081 817.48 237.074C818.368 236.068 819.457 234.78 820.788 233.21C822.119 231.64 823.612 229.868 825.266 227.976C824.379 226.487 823.572 225.118 822.765 223.87C821.958 222.622 821.272 221.696 820.707 221.012C819.78 219.885 819.376 218.758 819.417 217.59C819.497 216.423 820.143 215.296 821.353 214.168C822.644 212.921 824.298 211.793 826.234 210.747C828.171 209.74 830.147 208.975 832.205 208.492C832.366 206.359 832.528 204.507 832.689 202.856C832.85 201.246 832.971 199.998 833.092 199.113C833.415 197.019 833.092 195.731 832.084 195.208C831.842 195.127 831.519 195.047 831.116 195.007C830.712 194.966 830.349 194.926 830.067 194.926C829.583 194.403 829.583 193.879 830.067 193.396C831.035 193.074 832.245 192.953 833.698 193.074C835.15 193.195 836.32 193.517 837.248 194C838.175 194.483 838.902 195.168 839.386 196.013C839.91 196.899 839.87 197.784 839.386 198.75C838.418 200.522 837.611 203.541 836.925 207.808C838.418 207.848 839.587 208.291 840.435 209.096C841.282 209.901 841.524 210.827 841.201 211.954C843.581 209.982 846.042 208.331 848.584 207.043C851.125 205.755 853.505 205.071 855.724 205.071C861.251 205.071 865.124 206.721 867.423 210.022C869.682 213.323 870.852 218.677 870.852 226.004C870.852 228.5 870.772 230.834 870.57 232.968C870.368 235.102 870.086 236.994 869.682 238.684C870.933 239.167 872.103 239.691 873.152 240.214C874.201 240.737 875.169 241.261 876.016 241.824C877.146 242.468 877.872 243.274 878.316 244.32C878.719 245.367 878.719 246.414 878.316 247.541C877.993 248.426 877.388 248.99 876.54 249.272C875.693 249.554 874.846 249.352 874.039 248.708C873.232 248.064 872.264 247.299 871.215 246.534C870.167 245.769 868.997 245.045 867.786 244.36C866.616 246.494 865.083 248.064 863.107 249.07C861.13 250.077 858.871 250.64 856.249 250.721C852.86 250.801 850.197 250.117 848.221 248.628C846.244 247.138 845.316 245.125 845.437 242.629C845.518 240.536 846.486 238.845 848.261 237.477C850.036 236.108 852.456 235.504 855.522 235.585C856.934 235.625 858.306 235.746 859.678 235.947C861.049 236.148 862.381 236.39 863.671 236.752C863.914 235.464 864.115 233.934 864.277 232.243C864.438 230.553 864.519 228.701 864.519 226.728C864.519 221.737 864.115 217.953 863.268 215.296C862.461 212.639 861.291 210.827 859.839 209.861C858.387 208.895 856.692 208.452 854.756 208.492C852.779 208.533 850.722 209.177 848.543 210.425C846.405 211.673 844.227 213.283 842.048 215.255C839.87 217.228 837.772 219.442 835.715 221.857C835.715 222.381 835.715 222.944 835.715 223.548C835.715 224.152 835.715 224.756 835.715 225.319C835.715 228.741 835.836 232.002 836.118 235.061C836.4 238.121 836.642 240.737 836.965 242.871C837.248 245.005 837.409 246.454 837.409 247.178C837.49 248.628 837.248 249.755 836.562 250.52C835.916 251.285 835.109 251.687 834.141 251.687H833.94ZM826.96 225.883C827.687 225.078 828.453 224.192 829.22 223.266C829.986 222.34 830.793 221.415 831.6 220.529C831.6 218.194 831.68 216.02 831.801 213.927C831.64 213.887 831.479 213.846 831.317 213.806C831.156 213.766 830.954 213.806 830.712 213.806C829.704 213.887 828.655 214.168 827.606 214.611C826.557 215.054 825.548 215.698 824.621 216.584C823.854 217.308 823.451 217.993 823.451 218.677C823.451 219.361 823.652 220.046 824.096 220.69C824.5 221.334 824.903 222.059 825.387 222.985C825.871 223.87 826.396 224.836 826.92 225.843L826.96 225.883ZM830.753 233.934C830.954 234.256 831.116 234.417 831.237 234.417C831.358 234.417 831.438 234.216 831.479 233.894C831.519 232.404 831.559 231.116 831.559 230.07V226.97C831.116 227.533 830.712 228.137 830.268 228.701C829.865 229.264 829.462 229.828 829.058 230.351C829.462 231.076 829.784 231.76 830.026 232.364C830.309 233.008 830.511 233.532 830.712 233.974L830.753 233.934ZM855.805 245.89C858.629 245.81 860.686 244.36 861.977 241.623C860.767 241.18 859.557 240.858 858.387 240.576C857.217 240.295 856.047 240.174 854.958 240.093C853.062 240.093 851.69 240.335 850.843 240.778C849.996 241.221 849.511 241.865 849.431 242.71C849.35 243.676 849.794 244.441 850.762 245.045C851.73 245.649 853.425 245.93 855.805 245.89Z" fill="white"/>
<path d="M934.955 250.318C930.074 250.76 925.758 250.358 922.006 249.15C918.254 247.942 915.269 245.809 913.09 242.749C910.912 239.69 909.782 235.584 909.661 230.471C909.621 226.768 910.145 223.306 911.235 220.126C912.324 216.945 913.816 214.087 915.672 211.591C917.528 209.095 919.585 206.962 921.804 205.271C918.214 205.915 914.986 206.68 912.082 207.606C909.177 208.532 906.313 209.578 903.529 210.706C902.561 211.148 901.633 211.591 900.705 212.034C899.777 212.477 898.93 212.759 898.083 212.799C896.429 212.879 895.057 212.557 893.968 211.752C892.879 210.947 892.032 209.901 891.427 208.612C890.822 207.324 890.418 205.915 890.136 204.466C890.297 204.224 890.499 204.063 890.781 203.943C891.064 203.862 891.306 203.862 891.507 204.023C891.992 204.828 892.718 205.432 893.686 205.754C894.654 206.076 895.905 206.237 897.397 206.197C898.648 206.157 900.342 205.955 902.48 205.633C904.618 205.311 906.999 204.828 909.702 204.265C912.404 203.701 915.188 203.057 918.173 202.413C921.118 201.769 924.063 201.125 926.928 200.44C929.792 199.756 932.495 199.192 935.036 198.669C936.327 198.226 937.658 197.985 938.909 197.864C940.2 197.783 941.33 198.065 942.378 198.75C943.75 199.555 944.597 200.481 945.041 201.487C945.444 202.493 945.444 203.339 945.041 204.023C944.597 204.707 943.75 204.949 942.419 204.828C942.257 204.828 942.015 204.828 941.693 204.748C939.837 204.506 937.9 204.305 935.843 204.144C933.786 203.983 931.768 204.063 929.792 204.345C927.815 204.667 926 205.392 924.426 206.559C920.634 209.216 918.133 212.598 916.882 216.704C915.632 220.81 915.067 225.319 915.228 230.27C915.39 235.101 917.003 238.643 920.11 240.898C923.216 243.152 927.452 244.038 932.898 243.555C933.463 243.514 934.028 243.514 934.552 243.555C935.077 243.595 935.601 243.796 936.085 244.118C938.102 245.527 938.949 246.856 938.627 248.144C938.304 249.432 937.094 250.157 935.077 250.358L934.955 250.318Z" fill="white"/>
<path d="M181.291 231.92C179.395 231.92 177.337 231.517 175.199 230.672C173.061 229.827 170.883 228.861 168.704 227.733C166.526 226.606 164.428 225.64 162.371 224.795C160.313 223.949 158.417 223.547 156.682 223.547C153.859 223.547 151.438 224.231 149.421 225.64C147.404 227.009 145.709 228.74 144.257 230.753C143.733 230.914 143.249 230.873 142.805 230.672C142.361 230.471 142.079 230.149 141.998 229.706C142.805 227.532 143.894 225.318 145.306 223.144C146.678 220.97 148.412 219.119 150.429 217.629C152.447 216.14 154.786 215.375 157.368 215.375C159.264 215.375 161.322 215.777 163.46 216.623C165.598 217.468 167.776 218.434 169.995 219.561C172.214 220.689 174.312 221.655 176.369 222.5C178.427 223.345 180.323 223.748 182.057 223.748C184.881 223.748 187.302 223.023 189.279 221.614C191.255 220.205 192.95 218.474 194.402 216.462C195.612 216.18 196.379 216.582 196.661 217.589C195.854 219.722 194.765 221.896 193.353 224.11C191.941 226.324 190.247 228.176 188.27 229.666C186.253 231.155 183.954 231.92 181.251 231.92H181.291Z" fill="white"/>
<path d="M1001.6 231.92C999.704 231.92 997.647 231.517 995.509 230.672C993.371 229.827 991.192 228.861 989.014 227.733C986.835 226.606 984.737 225.64 982.68 224.795C980.622 223.949 978.726 223.547 976.992 223.547C974.168 223.547 971.747 224.231 969.73 225.64C967.713 227.009 966.019 228.74 964.567 230.753C964.042 230.914 963.558 230.873 963.114 230.672C962.67 230.471 962.388 230.149 962.307 229.706C963.114 227.532 964.203 225.318 965.615 223.144C966.987 220.97 968.722 219.119 970.739 217.629C972.756 216.14 975.096 215.375 977.678 215.375C979.574 215.375 981.631 215.777 983.769 216.623C985.907 217.468 988.086 218.434 990.305 219.561C992.523 220.689 994.621 221.655 996.679 222.5C998.736 223.345 1000.63 223.748 1002.37 223.748C1005.19 223.748 1007.61 223.023 1009.59 221.614C1011.56 220.205 1013.26 218.474 1014.71 216.462C1015.92 216.18 1016.69 216.582 1016.97 217.589C1016.16 219.722 1015.07 221.896 1013.66 224.11C1012.25 226.324 1010.56 228.176 1008.58 229.666C1006.56 231.155 1004.26 231.92 1001.56 231.92H1001.6Z" fill="white"/>
<path d="M229.503 254.947C228.898 254.947 228.374 254.786 227.93 254.424C227.486 254.062 227.285 253.579 227.285 252.894C227.285 252.613 227.285 251.526 227.365 249.593C227.406 247.661 227.486 245.165 227.567 242.065C227.648 238.966 227.769 235.504 227.849 231.639C227.97 227.775 228.051 223.749 228.092 219.603C228.132 215.416 228.172 211.31 228.172 207.244C228.172 201.085 228.092 196.375 227.93 193.074C227.769 189.773 227.486 187.599 227.083 186.512C226.962 186.19 227.043 185.908 227.244 185.667C227.486 185.425 227.769 185.385 228.172 185.506C228.737 185.667 229.584 186.029 230.673 186.512C231.763 187.035 232.933 187.559 234.143 188.122C235.353 188.686 236.402 189.209 237.249 189.652H265.892C266.497 189.652 266.941 189.451 267.142 189.048C267.425 188.726 267.828 188.203 268.312 187.518C268.837 186.834 269.2 186.311 269.482 185.908C269.886 185.304 270.45 185.184 271.257 185.586C271.862 185.828 272.71 186.23 273.718 186.834C274.727 187.438 275.735 188.082 276.784 188.686C277.793 189.29 278.559 189.773 279.084 190.135C279.648 190.538 279.89 191.021 279.85 191.625C279.81 192.228 279.447 192.671 278.761 192.953C278.519 193.074 278.236 193.195 277.914 193.356C277.591 193.517 277.309 193.678 277.066 193.879C276.663 194.12 276.421 194.402 276.26 194.765C276.098 195.127 276.058 195.69 276.058 196.496V204.104C276.058 208.21 276.058 212.397 276.139 216.624C276.179 220.85 276.3 224.876 276.381 228.7C276.461 232.525 276.582 235.987 276.663 239.046C276.744 242.106 276.824 244.602 276.865 246.494C276.905 248.386 276.945 249.473 276.945 249.754C276.945 250.559 276.26 251.244 274.888 251.888C273.516 252.492 271.862 252.814 270.007 252.814C268.554 252.814 267.788 252.21 267.788 250.962V246.896H236.2V251.888C236.2 252.693 235.514 253.377 234.183 253.981C232.812 254.585 231.238 254.907 229.423 254.907L229.503 254.947ZM236.281 244.4H267.869V192.228H236.281V244.4Z" fill="white"/>
<path d="M262.058 215.254C261.614 214.046 260.968 212.959 260.121 211.953C259.516 211.269 258.83 210.584 258.023 210.061C253.505 207.042 247.535 207.968 244.065 211.953C243.783 212.275 243.5 212.557 243.258 212.919C242.774 213.644 242.411 214.449 242.129 215.214C241.201 217.75 241.282 220.487 242.29 222.903C242.774 224.11 243.5 225.238 244.428 226.204C244.953 226.727 245.517 227.25 246.163 227.653C250.52 230.592 256.248 229.827 259.758 226.204C260.162 225.761 260.605 225.318 260.928 224.795C261.331 224.191 261.654 223.547 261.937 222.943C262.985 220.447 262.985 217.71 262.058 215.254Z" fill="white"/>
<path d="M6.32847 121.298L4.9165 115.26C8.3859 115.824 12.6621 116.186 17.7855 116.387H34.7291L44.6128 60.3105H30.4932C25.6118 60.391 21.7794 60.6325 19.0765 60.9948L17.6645 54.9564C21.1339 55.52 25.4101 55.8823 30.5335 56.0836H45.339L51.5516 21.8659H21.2146C16.4139 21.9464 12.5814 22.188 9.79786 22.5503L8.3859 16.5119C11.8553 17.0755 16.1315 17.4378 21.2549 17.639H99.4777C100.688 17.639 101.575 17.2767 102.14 16.5119C102.503 16.0288 103.149 15.3042 104.036 14.2575C104.924 13.2109 105.852 12.1642 106.78 11.0773C107.707 9.99039 108.313 9.30604 108.635 9.02424C109.482 8.09835 110.531 7.93733 111.742 8.62168C112.669 9.18527 114.041 10.1112 115.816 11.3591C117.591 12.607 119.326 13.8952 120.98 15.1432C122.634 16.4314 123.763 17.3573 124.449 18.0416C125.216 18.6857 125.458 19.4908 125.135 20.4167C124.853 21.3426 124.328 21.8257 123.602 21.8257H65.0258L59.0955 56.0433H81.4045C82.4534 56.0433 83.1392 55.7213 83.5023 55.0369C83.9864 54.3928 84.6319 53.5072 85.4791 52.4203C86.3262 51.3334 86.9314 50.488 87.3348 49.8036C88.1013 48.8778 89.1905 48.6765 90.6025 49.2401C91.6514 49.7231 92.9826 50.4075 94.6367 51.3334C96.2907 52.2593 97.9447 53.2254 99.639 54.2318C101.333 55.2382 102.665 56.0031 103.593 56.5667C104.44 57.2108 104.843 58.0159 104.803 58.982C104.762 59.9079 104.157 60.6325 103.028 61.0754C102.463 61.3571 101.939 61.5987 101.414 61.8402C100.89 62.0818 100.406 62.3233 99.9214 62.6051C98.7919 63.3699 98.2271 64.7386 98.2271 66.7112C98.2271 71.7835 98.2271 76.9765 98.3078 82.3306C98.3884 87.6846 98.4288 92.7166 98.5095 97.4668C98.5902 102.217 98.6708 106.283 98.7112 109.664C98.7515 113.046 98.7919 115.26 98.7919 116.266H106.578C107.627 116.266 108.514 115.904 109.24 115.139C109.603 114.656 110.289 113.891 111.217 112.804C112.145 111.717 113.113 110.631 114.041 109.503C114.969 108.376 115.574 107.652 115.856 107.41C116.704 106.484 117.753 106.323 118.963 106.967C120.012 107.45 121.424 108.336 123.199 109.664C124.974 110.993 126.749 112.321 128.483 113.69C130.218 115.059 131.388 116.065 131.953 116.709C132.719 117.353 132.961 118.158 132.719 119.084C132.477 120.01 131.953 120.493 131.106 120.493H120.375C115.856 120.493 110.289 120.493 103.714 120.413C97.1379 120.373 90.1184 120.332 82.6955 120.332H25.0471C21.0532 120.332 18.6731 120.373 17.9066 120.493C13.0252 120.574 9.15239 120.815 6.32847 121.178V121.298ZM48.405 116.347H84.1074V60.2702H58.1273L48.3646 116.347H48.405Z" fill="white"/>
<path d="M145.827 99.1566C145.263 99.2371 144.738 99.1566 144.294 98.7943C143.81 98.4722 143.528 98.0294 143.447 97.4658C146.271 92.9571 148.571 87.9654 150.346 82.5308C152.121 77.0962 153.452 70.4943 154.299 62.8053C155.146 55.1164 155.55 45.6563 155.55 34.4651C155.55 29.1915 155.388 24.9646 155.066 21.7844C154.743 18.6042 154.34 16.3901 153.855 15.1421C153.573 14.6591 153.654 14.2163 154.138 13.7332C154.501 13.3709 154.985 13.2904 155.55 13.5722C156.397 13.854 157.648 14.337 159.302 15.0616C160.956 15.7862 162.69 16.5511 164.506 17.3965C166.321 18.2419 167.854 18.9262 169.105 19.4898L215.014 19.6508C214.933 18.1614 214.852 16.6316 214.812 15.1421C214.772 13.6527 214.691 12.1229 214.61 10.6335C214.61 8.37913 214.489 6.64812 214.207 5.44043C213.924 4.23275 213.602 3.18609 213.239 2.34071C212.956 1.85764 212.956 1.41483 213.239 0.931752C213.521 0.448679 213.924 0.327911 214.489 0.529191C215.699 0.609704 217.394 0.85124 219.492 1.21354C221.63 1.57585 223.727 1.97841 225.866 2.34071C227.963 2.70302 229.617 3.02507 230.747 3.34712C231.594 3.62891 231.998 4.23275 231.998 5.1989C231.917 6.12479 231.352 6.68837 230.303 6.88965C229.174 6.97016 228.246 7.25196 227.56 7.65452C226.874 8.05708 226.511 8.98297 226.511 10.3919C226.43 13.5722 226.43 16.6719 226.511 19.6911H250.635C251.684 19.6911 252.491 19.3288 253.016 18.5639C253.298 18.2016 253.822 17.5575 254.589 16.6719C255.355 15.7862 256.082 14.8604 256.848 13.9345C257.615 13.0086 258.099 12.284 258.381 11.8009C259.309 10.7542 260.317 10.6335 261.366 11.3983C262.133 11.9619 263.182 12.8476 264.594 14.015C266.006 15.1824 267.377 16.3498 268.709 17.5575C270.04 18.7249 270.927 19.6106 271.411 20.1742C272.178 21.0195 272.46 21.8649 272.259 22.7103C272.057 23.5557 271.492 23.9582 270.564 23.9582H226.632C227.116 32.0497 228.205 38.9335 229.9 44.6901C231.594 50.4065 233.692 55.2372 236.233 59.1823C238.775 55.519 240.913 51.8154 242.648 48.0716C244.382 44.3278 245.754 40.8658 246.763 37.7258C247.731 34.5858 248.296 32.1302 248.376 30.3187C248.376 29.5538 248.538 29.111 248.78 28.9097C249.062 28.6279 249.546 28.6279 250.192 28.9097C251.039 29.1915 252.41 29.6746 254.347 30.3992C256.283 31.0836 258.22 31.7679 260.156 32.4523C262.092 33.0964 263.383 33.6197 264.029 33.982C264.795 34.3443 265.078 35.0689 264.876 36.1156C264.594 37.0415 263.989 37.5245 263.02 37.5245C261.891 37.444 261.044 37.605 260.479 38.0076C259.914 38.4504 259.349 39.2958 258.784 40.6242C254.266 51.2518 248.82 59.9069 242.406 66.6699C244.382 68.4412 246.44 70.0112 248.618 71.3799C250.797 72.7486 252.935 73.9563 255.113 74.9627C257.009 75.8081 258.421 76.1301 259.43 75.9691C260.438 75.7678 261.447 74.8017 262.456 73.0304C263.303 71.6214 264.271 69.7696 265.36 67.475C266.449 65.1804 267.458 62.9261 268.386 60.712C269.314 58.4979 269.999 56.8877 270.363 55.841C270.927 55.5592 271.492 55.519 272.057 55.68C272.622 55.8813 272.985 56.2033 273.186 56.6864C273.106 57.4513 272.864 58.6992 272.46 60.5107C272.057 62.3223 271.653 64.2143 271.21 66.2674C270.726 68.3204 270.322 70.293 269.999 72.185C269.677 74.077 269.394 75.4055 269.233 76.2509C268.87 78.2234 269.233 79.7934 270.363 80.9206C271.694 82.249 272.662 83.7788 273.267 85.5098C273.872 87.2408 273.509 88.851 272.218 90.3808C270.726 92.152 268.063 92.7156 264.231 92.0715C260.438 91.4274 256.243 89.7769 251.725 87.1603C248.699 85.389 245.714 83.4567 242.769 81.4439C239.783 79.4311 236.96 77.0157 234.216 74.1978C225.099 81.2426 214.086 86.1136 201.176 88.851C200.692 88.5692 200.37 88.1667 200.168 87.5628C199.966 86.9992 200.006 86.5162 200.329 86.1539C211.827 82.2893 221.347 76.2911 228.972 68.1191C225.785 63.4092 222.961 57.5318 220.581 50.4467C218.16 43.3617 216.466 34.5456 215.417 24.0387H167.693V34.5858H197.788C198.837 34.5858 199.522 34.304 199.885 33.7405C200.37 33.0964 201.055 32.1302 201.983 30.9225C202.911 29.7148 203.597 28.8695 203.96 28.3864C204.726 27.4605 205.614 27.3397 206.663 28.1046C207.429 28.4669 208.398 29.1915 209.648 30.1979C210.858 31.2446 212.028 32.251 213.198 33.2976C214.328 34.3443 215.135 35.1494 215.578 35.6727C216.224 36.3168 216.466 37.0415 216.305 37.8063C216.103 38.5712 215.659 38.9335 214.893 38.9335H167.733C167.652 49.4403 166.563 58.4979 164.546 66.0661C162.529 73.6342 159.866 80.0752 156.639 85.3487C153.371 90.6625 149.781 95.292 145.827 99.2371V99.1566ZM152.443 124.679C149.62 124.679 147.683 123.874 146.594 122.223C145.505 120.573 145.222 118.761 145.747 116.708C146.271 114.695 147.562 113.206 149.62 112.28C153.775 110.509 157.365 108.013 160.431 104.873C163.497 101.733 165.555 97.5866 166.563 92.3936C167.693 91.4677 168.661 91.5079 169.548 92.5143C170.194 98.6333 169.952 104.108 168.822 108.939C167.693 113.77 165.756 117.594 163.013 120.331C160.27 123.109 156.76 124.518 152.443 124.639V124.679ZM174.752 83.658C172.776 83.658 171.767 82.7321 171.767 80.8401C171.767 79.6324 171.888 76.9352 172.13 72.7888C172.372 68.6425 172.493 63.852 172.493 58.4174C172.493 54.8346 172.413 52.057 172.292 50.0442C172.171 48.0314 171.969 46.5821 171.808 45.7368C171.525 45.1732 171.565 44.6901 171.969 44.3278C172.332 44.046 172.816 44.0058 173.381 44.1668C174.591 44.5291 176.487 45.2537 179.029 46.3004C181.57 47.347 183.587 48.1924 185.08 48.8365H198.07C198.837 48.8365 199.401 48.5949 199.764 48.1521C200.127 47.6691 200.571 47.1055 201.096 46.4614C201.62 45.8173 202.104 45.1329 202.588 44.4888C203.153 43.724 203.96 43.6032 204.968 44.0863C206.3 44.6499 207.994 45.5757 210.052 46.8237C212.109 48.1119 213.723 49.1183 214.852 49.8429C215.498 50.326 215.861 50.8895 215.861 51.5336C215.861 52.1777 215.498 52.7413 214.731 53.2244C213.965 53.5062 213.4 53.8282 213.037 54.2308C212.553 54.5126 212.23 54.8749 211.988 55.2775C211.746 55.68 211.625 56.4449 211.625 57.4513C211.625 59.142 211.706 61.3561 211.827 64.0935C211.948 66.831 212.069 69.2866 212.19 71.5007C212.27 73.7147 212.351 75.0432 212.351 75.5263C212.351 76.4522 211.343 77.378 209.366 78.2234C207.389 79.0688 205.332 79.4714 203.153 79.4714C201.176 79.4714 200.208 78.626 200.208 76.9352V74.3991H183.991V79.9142C183.991 80.9608 183.063 81.8465 181.167 82.6113C179.271 83.3762 177.173 83.7385 174.833 83.7385L174.752 83.658ZM188.469 126.651C185.564 126.289 183.426 125.444 182.054 124.115C180.683 122.787 179.997 120.774 179.997 118.077V96.7815C179.997 93.1987 179.674 90.8236 178.988 89.5756C178.706 89.0926 178.706 88.6497 178.988 88.1667C179.271 87.8044 179.755 87.6031 180.4 87.6031C181.732 87.6836 183.426 87.9251 185.483 88.2874C187.541 88.6497 189.639 89.0523 191.696 89.4146C193.753 89.7769 195.367 90.1795 196.497 90.5418C197.546 90.7431 197.949 91.3469 197.788 92.3936C197.707 93.4402 197.142 93.9233 196.093 93.9233C194.964 94.0038 194.036 94.2856 193.35 94.7687C192.624 95.2517 192.301 96.1776 192.301 97.5866V111.958C192.301 113.931 193.471 115.058 195.851 115.34C196.981 115.42 198.837 115.541 201.418 115.621C204 115.702 206.865 115.742 209.971 115.702C213.077 115.662 216.103 115.541 219.007 115.34C221.912 115.138 224.292 114.856 226.067 114.494C228.326 113.931 229.859 112.602 230.707 110.549C231.07 109.784 231.513 108.617 232.038 106.966C232.562 105.316 233.087 103.585 233.652 101.773C234.216 99.9214 234.7 98.2709 235.144 96.7815C235.588 95.292 235.83 94.2453 235.911 93.6818C236.395 93.1987 236.919 93.0377 237.484 93.1182C238.049 93.1987 238.452 93.4805 238.735 93.9635C238.735 94.4466 238.735 95.4128 238.654 96.862C238.614 98.3112 238.573 99.9214 238.493 101.652C238.452 103.383 238.371 104.994 238.291 106.443C238.21 107.892 238.129 108.899 238.129 109.462C238.049 110.388 238.21 111.072 238.614 111.515C239.017 111.918 239.783 112.401 240.792 112.844C243.818 113.89 245.31 115.702 245.31 118.359C245.31 120.049 244.665 121.499 243.414 122.706C242.164 123.914 240.106 124.84 237.282 125.404C234.257 126.048 230.424 126.571 225.785 126.893C221.146 127.215 216.305 127.416 211.383 127.457C206.421 127.497 201.903 127.457 197.747 127.296C193.592 127.135 190.486 126.933 188.428 126.651H188.469ZM183.95 70.1319H200.168V53.0634H183.95V70.1319ZM219.935 110.267C217.111 111.032 214.893 109.744 213.279 106.483C211.948 103.464 210.374 100.847 208.559 98.593C206.703 96.3387 204 94.2856 200.45 92.3936C199.805 91.0651 200.127 90.1795 201.459 89.6964C204.847 89.8977 208.115 90.3405 211.221 91.1054C214.328 91.8702 217.031 92.9571 219.29 94.3258C221.549 95.7348 223.042 97.6268 223.808 99.9617C224.736 102.498 224.736 104.712 223.808 106.644C222.88 108.576 221.589 109.784 219.976 110.227L219.935 110.267ZM249.587 18.0003C248.659 18.4834 247.65 18.5237 246.561 18.2016C245.472 17.8796 244.624 17.1147 243.939 15.8668C242.809 13.5319 241.236 11.4386 239.259 9.58681C237.282 7.73503 235.306 6.28581 233.329 5.15864C232.683 4.03147 232.966 3.18609 234.176 2.62251C236.435 2.62251 238.775 2.82379 241.236 3.18609C243.697 3.5484 245.915 4.23275 247.933 5.23915C249.95 6.2053 251.362 7.65452 252.088 9.54655C252.854 11.3178 252.935 13.0086 252.37 14.5383C251.805 16.068 250.877 17.2355 249.546 18.0003H249.587ZM267.256 122.666C266.046 123.028 264.755 122.948 263.464 122.384C262.133 121.821 261.124 120.492 260.358 118.439C258.663 113.931 256.606 109.744 254.226 105.839C251.805 101.934 248.376 98.3112 243.858 94.9297C243.777 94.3661 243.858 93.8428 244.14 93.4C244.423 92.9169 244.826 92.6351 245.391 92.5546C249.708 93.6817 253.782 95.0505 257.615 96.6607C261.447 98.2709 264.634 100.243 267.297 102.659C269.919 105.034 271.653 107.932 272.501 111.314C273.267 114.212 273.065 116.708 271.936 118.802C270.806 120.855 269.233 122.183 267.256 122.747V122.666Z" fill="white"/>
<path d="M359.479 119.284C352.419 119.929 346.166 119.365 340.76 117.594C335.355 115.863 331.038 112.763 327.891 108.335C324.745 103.907 323.091 97.989 322.97 90.5818C322.889 85.2278 323.655 80.236 325.229 75.6066C326.802 71.0174 328.94 66.871 331.643 63.248C334.346 59.6249 337.291 56.5655 340.518 54.1501C335.355 55.076 330.675 56.1629 326.479 57.4914C322.284 58.8198 318.169 60.3093 314.094 62C312.683 62.6441 311.311 63.2882 310.02 63.9323C308.689 64.6167 307.438 64.979 306.228 65.0192C303.848 65.14 301.871 64.6569 300.298 63.4895C298.724 62.3221 297.514 60.8326 296.626 58.9406C295.739 57.0485 295.134 55.076 294.771 52.9827C295.336 52.0568 296.021 51.8555 296.869 52.3386C297.514 53.506 298.523 54.3514 299.894 54.8345C301.266 55.3175 303.081 55.5188 305.26 55.4785C307.075 55.398 309.536 55.1162 312.602 54.6332C315.668 54.1501 319.137 53.4657 323.05 52.6606C326.964 51.8555 330.998 50.9296 335.274 50.0037C339.55 49.0778 343.746 48.1117 347.901 47.1858C352.056 46.2599 355.969 45.3743 359.6 44.6094C361.496 43.9653 363.352 43.603 365.208 43.442C367.063 43.3212 368.758 43.7238 370.291 44.6899C372.187 45.8573 373.437 47.1858 374.002 48.6753C374.607 50.1245 374.567 51.3724 373.962 52.3386C373.316 53.3047 372.106 53.7073 370.291 53.506C370.008 53.506 369.605 53.506 369.121 53.3852C366.458 53.0229 363.634 52.7411 360.689 52.4996C357.704 52.2581 354.799 52.3788 351.935 52.8216C349.071 53.2645 346.489 54.3514 344.189 56.0019C338.743 59.8262 335.113 64.7374 333.297 70.6551C331.482 76.5727 330.675 83.0942 330.877 90.2195C331.078 97.1838 333.418 102.296 337.896 105.557C342.374 108.818 348.506 110.066 356.373 109.381C357.22 109.301 358.027 109.301 358.793 109.381C359.56 109.462 360.286 109.744 361.012 110.227C363.957 112.24 365.167 114.172 364.683 116.024C364.199 117.875 362.464 118.922 359.56 119.204L359.479 119.284ZM367.225 83.1747C366.539 83.2955 365.813 83.1747 365.127 82.8527C364.441 82.4904 363.917 81.7658 363.554 80.6386C362.787 77.9817 361.698 75.4053 360.286 72.9497C358.874 70.4941 357.099 68.3202 354.92 66.5087C354.84 66.1062 354.92 65.7438 355.203 65.4218C355.445 65.0997 355.768 64.8985 356.211 64.8582C358.228 65.4218 360.245 66.3074 362.182 67.5956C364.159 68.8436 365.853 70.2928 367.265 71.903C368.717 73.5133 369.605 75.1638 369.928 76.8143C370.331 78.5453 370.25 80.0348 369.605 81.2022C368.959 82.3696 368.152 83.054 367.184 83.1747H367.225ZM379.206 74.6807C378.52 74.9625 377.754 75.0027 376.987 74.8417C376.221 74.6807 375.535 74.0366 375.011 72.9899C373.679 70.6148 372.106 68.4813 370.291 66.549C368.475 64.6167 366.256 62.9259 363.594 61.4767C363.231 60.5106 363.513 59.8665 364.441 59.5847C366.418 59.8665 368.475 60.3898 370.613 61.1547C372.792 61.9195 374.769 62.8857 376.544 64.0128C378.319 65.1803 379.569 66.4685 380.255 67.9177C381.022 69.3669 381.264 70.7759 380.941 72.1043C380.618 73.4328 380.053 74.2781 379.206 74.6002V74.6807Z" fill="white"/>
<path d="M402.204 102.577C401.72 102.658 401.317 102.577 400.913 102.296C400.51 102.014 400.268 101.652 400.227 101.168C402.567 97.4246 404.463 93.3185 405.956 88.8098C407.448 84.3012 408.538 78.8666 409.224 72.4659C409.909 66.0651 410.272 58.2555 410.272 48.9966C410.272 44.6489 410.151 41.1466 409.869 38.4897C409.587 35.8328 409.264 34.0213 408.86 33.0149C408.618 32.6124 408.699 32.2501 409.103 31.8475C409.425 31.5254 409.788 31.4852 410.272 31.7267C410.958 31.9683 412.007 32.3708 413.379 32.9344C414.75 33.498 416.203 34.1421 417.695 34.8667C419.188 35.5913 420.479 36.1549 421.487 36.5977L459.489 36.7185C459.409 35.4705 459.368 34.2226 459.328 32.9747C459.288 31.7267 459.247 30.4788 459.167 29.2308C459.167 27.3791 459.046 25.9298 458.804 24.9234C458.562 23.917 458.279 23.0717 457.997 22.3471C457.755 21.9445 457.755 21.5822 457.997 21.1796C458.239 20.7771 458.602 20.6966 459.046 20.8173C460.054 20.8978 461.426 21.0991 463.201 21.4212C464.936 21.7432 466.711 22.025 468.445 22.3471C470.18 22.6691 471.552 22.9509 472.479 23.1522C473.165 23.3937 473.528 23.8768 473.528 24.6819C473.448 25.4468 472.964 25.9298 472.116 26.0909C471.188 26.1714 470.422 26.3727 469.817 26.735C469.252 27.0973 468.929 27.8621 468.929 29.0296C468.849 31.6865 468.849 34.2629 468.929 36.7185H488.939C489.786 36.7185 490.472 36.3964 490.916 35.7926C491.158 35.4705 491.561 34.9472 492.207 34.2226C492.812 33.498 493.457 32.7331 494.062 31.928C494.708 31.1631 495.111 30.5593 495.353 30.197C496.12 29.3516 496.967 29.2308 497.814 29.8347C498.419 30.3178 499.347 31.0021 500.517 32.0085C501.687 32.9747 502.816 33.9408 503.906 34.9472C504.995 35.9134 505.721 36.638 506.124 37.121C506.73 37.8054 506.972 38.53 506.81 39.2144C506.649 39.8987 506.165 40.261 505.398 40.261H469.01C469.413 46.9435 470.301 52.6599 471.713 57.4101C473.125 62.1603 474.86 66.1457 476.998 69.4467C479.095 66.4275 480.871 63.3277 482.323 60.228C483.775 57.1283 484.905 54.2701 485.712 51.6535C486.518 49.0368 486.962 46.9838 487.043 45.5346C487.043 44.9307 487.164 44.5282 487.406 44.3671C487.648 44.1256 488.011 44.1256 488.576 44.3671C489.262 44.6087 490.432 45.0112 492.045 45.5748C493.659 46.1384 495.232 46.7422 496.846 47.2656C498.46 47.7889 499.508 48.2317 500.073 48.5538C500.678 48.8758 500.92 49.4394 500.759 50.325C500.517 51.0899 500.033 51.4925 499.226 51.4925C498.298 51.4119 497.572 51.5327 497.128 51.895C496.644 52.2573 496.2 52.9819 495.716 54.0688C491.965 62.8447 487.446 70.0505 482.161 75.6864C483.815 77.1758 485.51 78.464 487.325 79.5912C489.1 80.7184 490.916 81.7248 492.691 82.5701C494.264 83.2545 495.434 83.5363 496.241 83.3753C497.048 83.2142 497.895 82.4091 498.742 80.9196C499.428 79.7522 500.235 78.2225 501.122 76.2902C502.01 74.3982 502.857 72.5061 503.623 70.6946C504.39 68.8831 504.955 67.5144 505.277 66.669C505.761 66.4275 506.205 66.3872 506.689 66.5482C507.173 66.7092 507.456 66.991 507.617 67.3533C507.536 67.9974 507.335 69.0441 507.052 70.4933C506.73 71.9828 506.367 73.5528 506.003 75.2838C505.6 76.9745 505.277 78.625 504.995 80.195C504.713 81.765 504.511 82.8922 504.349 83.5765C504.027 85.227 504.349 86.475 505.277 87.4411C506.367 88.528 507.173 89.776 507.657 91.2252C508.142 92.6744 507.859 94.0029 506.77 95.2508C505.519 96.7403 503.301 97.1831 500.154 96.6598C497.007 96.1364 493.538 94.7677 489.786 92.5939C487.285 91.1044 484.824 89.5344 482.363 87.8839C479.902 86.1932 477.563 84.2206 475.303 81.8858C467.719 87.7229 458.602 91.7888 447.911 94.0431C447.508 93.8016 447.266 93.4393 447.104 92.9965C446.943 92.5134 446.983 92.1511 447.225 91.829C456.746 88.6488 464.653 83.6571 470.987 76.894C468.324 72.9892 466.025 68.1182 464.008 62.2408C461.991 56.3634 460.579 49.0771 459.731 40.3415H420.196V49.0771H445.128C445.975 49.0771 446.58 48.8356 446.903 48.3927C447.306 47.8694 447.871 47.0643 448.637 46.0579C449.404 45.0515 449.969 44.3671 450.291 43.9646C450.897 43.1997 451.663 43.1192 452.51 43.723C453.115 44.0451 453.963 44.6087 454.971 45.454C455.98 46.2994 456.948 47.1851 457.876 48.0304C458.804 48.8758 459.489 49.5602 459.852 50.003C460.377 50.5263 460.579 51.1301 460.458 51.734C460.296 52.3781 459.893 52.6599 459.288 52.6599H420.196C420.116 61.3954 419.228 68.8831 417.574 75.1228C415.88 81.4027 413.701 86.7165 411.039 91.1044C408.336 95.4923 405.351 99.3167 402.083 102.618L402.204 102.577ZM407.691 123.712C405.351 123.712 403.737 123.027 402.85 121.659C401.962 120.29 401.72 118.801 402.164 117.11C402.607 115.419 403.656 114.211 405.391 113.447C408.82 111.957 411.805 109.944 414.347 107.328C416.888 104.711 418.583 101.289 419.43 96.9818C420.358 96.217 421.165 96.2572 421.891 97.1026C422.415 102.175 422.254 106.684 421.326 110.709C420.398 114.735 418.785 117.875 416.525 120.169C414.266 122.464 411.321 123.631 407.771 123.712H407.691ZM426.167 89.7357C424.513 89.7357 423.706 88.9709 423.706 87.4009C423.706 86.3945 423.787 84.1804 423.989 80.7586C424.19 77.3369 424.271 73.3515 424.271 68.8428C424.271 65.9041 424.231 63.5693 424.11 61.8785C423.989 60.1878 423.868 59.0203 423.706 58.336C423.464 57.8529 423.505 57.4906 423.827 57.1686C424.15 56.927 424.513 56.8868 424.997 57.0478C426.006 57.3698 427.579 57.9334 429.677 58.7788C431.775 59.6242 433.469 60.3488 434.72 60.8721H445.491C446.096 60.8721 446.58 60.6708 446.903 60.2683C447.225 59.8657 447.589 59.4229 448.032 58.8593C448.476 58.336 448.879 57.7724 449.243 57.2088C449.727 56.605 450.372 56.4842 451.219 56.8465C452.309 57.3296 453.721 58.0542 455.415 59.1411C457.109 60.1878 458.441 61.0331 459.409 61.637C459.933 62.0395 460.216 62.4824 460.216 63.0459C460.216 63.6095 459.893 64.0523 459.288 64.4549C458.642 64.6964 458.198 64.9782 457.876 65.26C457.472 65.5016 457.19 65.7834 456.988 66.1457C456.786 66.508 456.706 67.1118 456.706 67.9572C456.706 69.3662 456.746 71.1777 456.867 73.432C456.988 75.6863 457.069 77.7394 457.15 79.5509C457.23 81.4027 457.271 82.4896 457.271 82.8922C457.271 83.6571 456.464 84.4219 454.81 85.1063C453.156 85.7906 451.461 86.1529 449.646 86.1529C447.992 86.1529 447.185 85.4686 447.185 84.0596V81.9663H433.751V86.5152C433.751 87.3606 432.985 88.1255 431.412 88.7293C429.838 89.3734 428.103 89.6552 426.167 89.6552V89.7357ZM437.543 125.362C435.123 125.04 433.348 124.356 432.218 123.269C431.089 122.182 430.524 120.491 430.524 118.237V100.605C430.524 97.6259 430.242 95.6534 429.717 94.647C429.475 94.2444 429.475 93.8821 429.717 93.4795C429.959 93.1575 430.322 92.9965 430.887 92.9965C431.976 93.077 433.388 93.2783 435.083 93.6003C436.777 93.9224 438.512 94.2444 440.246 94.5262C441.981 94.8482 443.272 95.1703 444.24 95.4521C445.087 95.6131 445.45 96.0962 445.289 96.9818C445.208 97.8272 444.765 98.27 443.877 98.27C442.949 98.3505 442.183 98.5921 441.578 98.9544C440.973 99.3569 440.69 100.122 440.69 101.289V113.205C440.69 114.856 441.658 115.781 443.635 116.023C444.563 116.103 446.096 116.184 448.274 116.264C450.412 116.345 452.793 116.345 455.334 116.305C457.916 116.305 460.417 116.184 462.838 116.023C465.258 115.862 467.195 115.62 468.687 115.339C470.543 114.856 471.834 113.769 472.56 112.078C472.883 111.474 473.246 110.468 473.69 109.099C474.133 107.73 474.577 106.281 475.021 104.791C475.465 103.302 475.909 101.893 476.231 100.645C476.594 99.3972 476.796 98.5518 476.877 98.0687C477.28 97.6662 477.684 97.5454 478.168 97.5857C478.652 97.6662 478.974 97.9077 479.217 98.27C479.217 98.6726 479.217 99.4374 479.176 100.645C479.176 101.853 479.095 103.181 479.055 104.63C479.015 106.08 478.974 107.408 478.894 108.616C478.813 109.824 478.773 110.669 478.773 111.112C478.692 111.877 478.813 112.44 479.176 112.802C479.539 113.165 480.144 113.527 480.992 113.93C483.493 114.775 484.743 116.305 484.743 118.479C484.743 119.888 484.219 121.095 483.17 122.102C482.121 123.108 480.427 123.833 478.087 124.316C475.586 124.839 472.399 125.282 468.566 125.523C464.693 125.805 460.74 125.966 456.625 126.006C452.51 126.047 448.758 126.006 445.329 125.886C441.9 125.765 439.319 125.604 437.624 125.362H437.543ZM433.792 78.5445H447.225V64.4147H433.792V78.5445ZM463.604 111.796C461.264 112.44 459.409 111.353 458.118 108.656C457.029 106.16 455.738 103.986 454.205 102.135C452.672 100.283 450.453 98.5518 447.468 96.9818C446.903 95.8949 447.185 95.1703 448.274 94.7677C451.098 94.9288 453.761 95.3313 456.343 95.9352C458.925 96.539 461.143 97.4649 462.999 98.6323C464.855 99.7997 466.105 101.37 466.751 103.302C467.517 105.395 467.517 107.247 466.751 108.857C465.984 110.468 464.936 111.434 463.604 111.836V111.796ZM488.172 35.3498C487.406 35.7523 486.559 35.7926 485.671 35.5108C484.784 35.229 484.058 34.5849 483.493 33.5785C482.565 31.6462 481.274 29.9152 479.62 28.3855C477.966 26.8557 476.352 25.6481 474.698 24.7222C474.133 23.7963 474.376 23.0717 475.384 22.6289C477.24 22.6289 479.217 22.7899 481.234 23.1119C483.251 23.434 485.106 23.9976 486.801 24.8027C488.495 25.6078 489.625 26.8155 490.27 28.3452C490.916 29.8347 490.956 31.2034 490.512 32.4916C490.068 33.7798 489.262 34.7459 488.172 35.3498ZM502.816 122.102C501.808 122.424 500.759 122.343 499.67 121.86C498.581 121.377 497.733 120.29 497.088 118.599C495.676 114.856 493.982 111.393 492.005 108.133C490.028 104.912 487.164 101.893 483.412 99.0751C483.331 98.5921 483.412 98.1895 483.654 97.7869C483.896 97.3844 484.219 97.1831 484.703 97.1026C488.293 98.0285 491.682 99.1556 494.829 100.484C497.975 101.813 500.638 103.463 502.857 105.436C505.035 107.408 506.488 109.824 507.173 112.601C507.779 115.017 507.657 117.07 506.689 118.801C505.761 120.491 504.47 121.619 502.816 122.061V122.102Z" fill="white"/>
<path d="M569.014 121.541C563.851 121.541 559.453 120.776 555.822 119.247C552.192 117.717 549.448 115.14 547.552 111.517C545.656 107.894 544.728 102.943 544.728 96.6226C544.728 93.6437 544.809 90.1414 545.011 86.0755C545.172 82.0097 545.414 77.7023 545.737 73.0728C546.019 68.4836 546.261 63.8944 546.423 59.3052C546.584 54.716 546.705 50.4891 546.705 46.5843C546.705 44.0482 546.423 42.1159 545.818 40.7874C545.253 39.459 544.002 38.5331 542.106 38.0098C541.582 37.0839 541.743 36.3593 542.55 35.8359C545.253 35.8359 547.794 36.1982 550.296 36.9229C552.757 37.6475 554.814 38.8149 556.387 40.3849C557.638 41.5523 558.324 42.76 558.445 44.0079C558.606 45.2961 558.364 46.5038 557.799 47.6712C557.275 48.5971 556.791 50.5294 556.307 53.4681C555.822 56.4068 555.379 60.0701 554.935 64.458C554.491 68.8459 554.168 73.7169 553.886 79.1515C553.644 84.5458 553.523 90.1816 553.523 96.059C553.523 101.936 554.774 105.841 557.234 108.377C559.695 110.914 563.689 112.242 569.216 112.242C577.002 112.242 583.82 110.994 589.75 108.458C595.68 105.922 601.005 102.862 605.806 99.3198C606.451 99.4003 606.976 99.6418 607.339 100.044C607.702 100.447 607.863 100.93 607.783 101.494C606.048 103.869 603.789 106.244 601.046 108.619C598.302 110.954 595.196 113.128 591.727 115.1C588.257 117.073 584.627 118.602 580.794 119.77C576.962 120.937 573.008 121.501 569.014 121.501V121.541ZM589.831 61.7608C589.104 62.1232 588.378 62.1634 587.652 61.8816C586.926 61.5998 586.361 61.0362 585.998 60.2311C584.627 57.4937 582.973 54.7563 581.117 52.0591C579.221 49.362 577.083 47.1882 574.702 45.4169C574.501 44.4105 574.864 43.7664 575.792 43.4443C578.979 44.1689 582.125 45.3766 585.232 47.0674C588.298 48.7581 590.476 50.8515 591.727 53.3071C592.655 55.1186 592.937 56.7691 592.493 58.2988C592.049 59.8286 591.202 60.9557 589.871 61.6803L589.831 61.7608ZM601.489 50.1671C600.925 50.6904 600.239 50.932 599.472 50.932C598.706 50.932 597.939 50.4892 597.133 49.6438C595.236 47.3089 593.098 45.1753 590.637 43.1625C588.217 41.19 585.554 39.6603 582.65 38.6539C582.125 37.728 582.327 37.0034 583.215 36.48C585.232 36.3995 587.41 36.6008 589.71 37.0034C592.009 37.4462 594.147 38.0903 596.124 38.8954C598.141 39.7408 599.755 40.7472 600.965 41.8743C602.417 43.1625 603.143 44.6923 603.103 46.383C603.063 48.0738 602.538 49.3217 601.53 50.1268L601.489 50.1671Z" fill="white"/>
<path d="M685.443 120.05C679.271 120.131 674.551 119.003 671.243 116.628C667.935 114.253 666.523 111.073 666.927 107.007C667.209 104.39 668.5 102.257 670.759 100.526C673.018 98.8351 675.963 98.0702 679.594 98.3118C683.507 98.5936 686.734 99.8415 689.236 102.056C691.737 104.27 693.31 107.329 693.956 111.234C697.385 109.946 700.208 107.812 702.508 104.914C704.807 102.015 705.897 98.3118 705.816 93.8433C705.816 88.9321 704.323 84.9065 701.298 81.847C698.272 78.7876 694.157 77.2578 688.953 77.3383C685.161 77.3383 681.651 78.2642 678.343 80.116C675.035 81.9678 672.01 84.3429 669.266 87.2816C666.523 90.2203 663.982 93.4408 661.763 96.9028C659.504 100.365 657.567 103.787 655.873 107.128C655.066 108.738 653.856 109.624 652.161 109.865C650.507 110.067 649.136 109.382 648.127 107.812C647.038 105.92 646.675 103.988 647.038 101.935C647.401 99.922 648.289 98.2312 649.66 96.9431C651.758 94.9302 654.259 92.1928 657.123 88.7308C659.988 85.3091 663.013 81.525 666.16 77.4994C669.307 73.4335 672.332 69.4482 675.237 65.5433C678.142 61.6385 680.683 58.1362 682.862 54.9962C685.04 51.8965 686.573 49.6019 687.42 48.1527C688.227 46.8645 688.509 45.8983 688.227 45.3348C687.985 44.7712 687.259 44.6504 686.089 45.0127C682.458 46.1801 678.626 48.354 674.551 51.5342C673.381 52.4601 672.332 53.3055 671.404 54.0301C670.477 54.7547 669.226 55.117 667.693 55.117C665.999 55.117 664.587 54.4729 663.336 53.1444C662.086 51.8563 661.077 50.3668 660.27 48.676C659.463 47.0255 658.899 45.5763 658.535 44.4491C658.697 44.0063 658.939 43.6843 659.302 43.483C659.665 43.2817 660.068 43.2414 660.512 43.3622C661.4 44.3686 662.408 45.053 663.578 45.375C664.748 45.6971 666.079 45.8178 667.612 45.7373C668.863 45.6568 670.598 45.1737 672.897 44.2076C675.197 43.2817 677.738 42.1545 680.522 40.9066C683.305 39.6587 686.049 38.5717 688.751 37.6861C690.849 36.9615 692.544 36.6797 693.794 36.8005C695.085 36.9615 696.295 37.3641 697.465 38.0887C700.451 39.8197 702.024 41.6715 702.185 43.5635C702.347 45.4958 701.257 47.106 698.877 48.3942C697.788 48.9578 696.336 50.246 694.48 52.138C692.624 54.0703 690.607 56.3247 688.429 58.8608C686.25 61.4372 684.072 64.0538 681.934 66.751C679.796 69.4482 677.859 71.9038 676.165 74.1581C674.47 76.4125 673.139 78.1032 672.171 79.2706C674.43 77.5396 677.052 76.0099 679.997 74.6412C682.983 73.3127 686.008 72.5881 689.155 72.5076C694.601 72.3466 699.321 73.192 703.315 75.0035C707.309 76.815 710.415 79.3511 712.674 82.6119C714.933 85.8726 716.143 89.6567 716.265 93.9238C716.426 99.4389 715.175 104.109 712.593 108.013C710.012 111.878 706.421 114.857 701.741 116.87C697.102 118.883 691.656 119.929 685.403 120.01L685.443 120.05ZM685.443 112.764C685.605 110.872 685.242 109.141 684.354 107.53C683.467 105.92 681.893 104.994 679.553 104.712C677.94 104.511 676.649 104.632 675.64 105.075C674.632 105.518 674.027 106.323 673.906 107.41C673.704 108.577 674.349 109.744 675.923 110.992C677.496 112.24 680.643 112.804 685.443 112.723V112.764Z" fill="white"/>
<path d="M744.382 122.665C742.97 122.947 742.164 122.424 741.962 121.136C743.293 118.237 744.584 114.614 745.835 110.347C747.126 106.08 748.215 101.652 749.143 97.1026C750.071 92.5537 750.716 88.4878 750.998 84.905C751.079 83.9792 751.12 83.1338 751.079 82.4494C751.039 81.7651 750.958 81.2015 750.877 80.8392C750.877 80.0743 750.918 79.6315 751.039 79.4302C751.321 79.1484 751.805 79.1082 752.451 79.3095C752.814 79.39 753.661 79.6718 754.912 80.0743C756.162 80.4769 757.615 80.96 759.228 81.4028C760.842 81.8858 762.294 82.3287 763.585 82.7312C764.916 83.1338 765.723 83.4558 765.965 83.6571C766.732 83.9389 767.014 84.5427 766.812 85.4686C766.53 86.3945 765.925 86.7971 764.957 86.5958C764.029 86.5153 763.182 87.4009 762.415 89.293C761.003 93.2381 759.309 97.3039 757.332 101.491C755.355 105.677 753.258 109.582 750.958 113.245C748.699 116.909 746.48 120.049 744.342 122.665H744.382ZM769.233 129.589C767.176 129.589 766.127 128.704 766.127 126.892C766.127 126.409 766.167 124.879 766.288 122.263C766.369 119.646 766.53 116.385 766.691 112.521C766.853 108.656 767.014 104.671 767.135 100.524C767.216 96.378 767.297 92.6342 767.297 89.2527V68.6819C764.836 69.2454 762.617 69.7688 760.6 70.2921C758.583 70.8154 756.888 71.218 755.597 71.4998C754.468 71.7816 753.701 72.1036 753.338 72.5062C752.975 72.9087 752.814 73.6333 752.895 74.7605C752.975 75.6059 752.612 76.2097 751.765 76.6123C750.837 76.8136 750.232 76.572 749.95 75.8877C749.465 74.841 748.86 73.4321 748.094 71.5803C747.327 69.7285 746.601 67.8767 745.835 66.025C745.068 64.1732 744.503 62.6837 744.14 61.6773C743.858 61.0332 743.939 60.5501 744.423 60.2683C744.624 60.1878 745.109 60.1073 745.956 60.1073C746.884 60.1878 748.255 60.3488 750.03 60.5501C751.644 60.6306 753.5 60.7111 755.678 60.7111H762.738C764.997 57.2491 767.176 53.5456 769.314 49.6407C771.411 45.7359 773.308 41.9116 774.962 38.1677C776.616 34.4239 777.906 31.0424 778.834 28.0232C779.762 25.004 780.287 22.7497 780.367 21.2602C780.367 20.6161 780.569 20.133 780.932 19.8512C781.295 19.7707 781.779 19.7707 782.344 19.8512C783.675 20.3343 785.249 21.0187 787.145 21.9848C789.041 22.9509 790.897 23.8768 792.793 24.8027C794.689 25.7286 796.181 26.574 797.311 27.3389C798.077 27.7012 798.239 28.466 797.876 29.5932C797.392 30.3581 796.746 30.6801 795.899 30.5996C794.971 30.3983 794.124 30.3983 793.438 30.5191C792.752 30.6399 791.986 31.284 791.26 32.4111C789.202 35.4303 786.782 38.6508 784.038 42.0726C781.295 45.4943 778.471 48.8356 775.567 52.0561C772.662 55.3168 769.919 58.175 767.377 60.7111C770.847 60.7111 774.235 60.7111 777.543 60.6306C780.851 60.5501 783.716 60.5099 786.136 60.4294C785.491 58.7386 784.684 57.1284 783.796 55.6389C782.909 54.1494 781.941 52.7807 780.892 51.573C780.69 50.2446 781.336 49.52 782.747 49.3187C786.217 50.8082 789.525 52.7807 792.631 55.2363C795.657 51.2912 798.481 46.7825 801.103 41.7103C803.725 36.638 806.065 31.606 808.082 26.574C810.099 21.542 811.673 16.9528 812.721 12.7662C813.811 8.57952 814.335 5.35904 814.335 3.1047C814.335 2.62162 814.496 2.25932 814.779 1.97753C815.061 1.69573 815.465 1.65548 816.029 1.85676C817.24 2.13855 818.813 2.54111 820.749 3.1047C822.686 3.66828 824.622 4.27212 826.559 4.87596C828.495 5.4798 830.028 6.04339 831.158 6.48621C831.803 6.768 832.045 7.4121 831.884 8.45875C831.601 9.30413 831.037 9.74695 830.189 9.74695C829.262 9.66644 828.535 9.74695 828.092 10.0287C827.608 10.3105 827.164 11.0351 826.68 12.1623C826.317 13.0882 825.873 14.0946 825.348 15.1815C824.824 16.2684 824.3 17.3151 823.735 18.3617H837.854C838.5 18.3617 839.105 18.08 839.71 17.5164C840.194 16.8723 840.84 16.0672 841.687 15.1815C842.534 14.2959 843.179 13.5713 843.664 13.0077C844.511 12.0818 845.519 11.9208 846.649 12.5649C847.415 13.0479 848.545 13.8531 850.118 14.9802C851.651 16.1074 853.225 17.2748 854.798 18.4423C856.331 19.6097 857.501 20.5356 858.267 21.1797C859.034 21.9445 859.155 22.8704 858.671 23.9976C858.388 25.1248 857.541 25.6884 856.129 25.6884C853.951 25.6078 852.055 26.413 850.36 28.1037C849.029 29.2309 847.456 30.8411 845.56 32.9747C843.664 35.1083 841.808 37.2821 839.992 39.617C838.137 41.9116 836.483 43.9646 834.99 45.7359H851.086C851.732 45.7359 852.377 45.4138 852.942 44.7295C853.305 44.2464 853.83 43.6426 854.435 42.8374C855.04 42.0323 855.524 41.3882 855.927 40.9454C856.492 40.1805 857.339 40.0598 858.469 40.5428C859.679 41.1869 861.414 42.1531 863.633 43.4413C865.852 44.7295 867.506 45.7359 868.635 46.4605C869.402 47.0241 869.724 47.6682 869.684 48.3525C869.644 49.0369 869.2 49.6407 868.353 50.1238C867.99 50.2043 867.546 50.4056 867.102 50.6874C866.618 50.9692 866.255 51.2107 865.973 51.3717C865.488 51.734 865.166 52.1366 864.924 52.5794C864.682 53.0222 864.561 53.6663 864.561 54.6325C864.561 57.1686 864.601 59.9865 864.722 63.0863C864.803 66.186 864.924 69.1649 865.004 72.0231C865.085 74.8813 865.206 77.2967 865.287 79.2692C865.367 81.2417 865.448 82.3689 865.448 82.6507C865.448 83.6974 864.399 84.583 862.342 85.3479C860.284 86.1127 858.187 86.475 856.129 86.475C854.233 86.475 853.305 85.6297 853.305 83.9389V80.8392H815.747V110.991C815.747 112.199 816.11 113.125 816.877 113.728C817.643 114.332 818.934 114.735 820.83 114.936C822.524 115.017 824.864 115.097 827.89 115.137C830.916 115.178 834.103 115.178 837.491 115.137C840.88 115.097 844.067 114.936 847.093 114.695C850.118 114.453 852.418 114.211 853.991 113.93C855.766 113.567 857.057 113.004 857.783 112.319C858.509 111.635 859.155 110.669 859.639 109.421C860.002 108.374 860.486 106.965 861.051 105.194C861.616 103.423 862.18 101.491 862.745 99.4778C863.31 97.4649 863.834 95.6534 864.278 94.0432C864.762 92.4329 865.045 91.346 865.125 90.8227C866.336 89.9773 867.304 90.0981 867.949 91.2253C867.949 91.7888 867.909 92.916 867.788 94.5263C867.707 96.1768 867.586 97.9883 867.506 99.9608C867.425 101.933 867.304 103.785 867.223 105.476C867.142 107.167 867.062 108.294 867.062 108.857C867.062 110.548 867.748 111.635 869.16 112.078C871.903 113.004 873.274 114.775 873.274 117.271C873.274 118.881 872.79 120.25 871.782 121.377C870.773 122.504 869.039 123.39 866.497 124.074C864.319 124.557 861.454 124.96 857.864 125.322C854.273 125.684 850.441 125.966 846.286 126.087C842.131 126.248 838.016 126.329 833.941 126.369C829.867 126.409 826.115 126.409 822.726 126.369C819.337 126.329 816.675 126.208 814.658 126.007C810.906 125.725 808.244 124.96 806.67 123.672C805.137 122.424 804.33 120.491 804.33 117.955V54.552C804.33 53.4248 804.33 52.2171 804.25 50.9692C804.209 49.681 804.169 48.5136 804.169 47.3864C802.676 49.1576 801.143 50.8887 799.57 52.5392C798.037 54.1897 796.423 55.7596 794.85 57.2491C797.674 60.2683 799.368 63.2875 799.933 66.3872C800.296 69.0039 799.973 71.1375 798.925 72.7477C797.876 74.358 796.544 75.3241 794.85 75.7267C793.519 76.089 792.389 76.0487 791.381 75.5656C790.372 75.0826 789.767 74.0359 789.485 72.3452C789.283 71.0167 789.041 69.648 788.718 68.239C788.395 66.8301 787.992 65.3809 787.508 63.8914C786.298 64.2537 784.886 64.616 783.272 64.938C781.658 65.2601 780.004 65.6626 778.31 66.1457V89.2527C778.31 92.916 778.31 96.7806 778.391 100.806C778.431 104.832 778.512 108.696 778.592 112.279C778.673 115.902 778.754 118.921 778.794 121.377C778.834 123.833 778.875 125.322 778.875 125.886C778.875 126.932 777.826 127.818 775.688 128.583C773.59 129.348 771.411 129.71 769.273 129.71L769.233 129.589ZM763.706 48.433C762.496 48.7953 761.326 48.7551 760.237 48.272C759.148 47.7889 758.381 46.7825 757.897 45.1723C756.687 41.2272 754.992 37.4431 752.895 33.8201C750.756 30.197 748.215 27.2181 745.189 24.8832C744.826 23.3938 745.351 22.5484 746.722 22.3471C748.901 22.9912 751.079 23.7963 753.298 24.682C755.517 25.5676 757.534 26.6142 759.43 27.8622C760.64 24.9637 761.931 21.4615 763.222 17.4359C764.513 13.4103 765.522 9.90797 766.207 7.00954C766.49 5.39929 766.611 4.15135 766.611 3.18521C766.812 2.42034 767.055 2.01778 767.337 1.89701C767.539 1.69573 767.902 1.69573 768.466 1.89701H768.628C769.757 2.25932 771.25 2.90342 773.146 3.74879C775.042 4.59417 776.938 5.4798 778.875 6.36544C780.811 7.25107 782.263 8.05619 783.312 8.70029C783.958 9.26388 784.2 9.94823 783.998 10.7936C783.716 11.7195 783.111 12.1221 782.142 11.9208C781.215 11.7195 780.408 11.7195 779.803 11.9208C779.197 12.1221 778.552 12.6051 777.906 13.4505C775.93 16.0672 773.469 18.9656 770.564 22.1056C767.66 25.2455 764.997 27.9024 762.657 30.0763C763.989 31.2034 765.118 32.4111 766.046 33.7396C766.974 35.068 767.66 36.5172 768.023 38.0872C768.668 40.7039 768.507 42.9582 767.539 44.8502C766.57 46.7423 765.239 47.9097 763.666 48.3928L763.706 48.433ZM793.801 112.4C790.614 112.964 788.839 111.514 788.597 108.052C788.234 103.745 787.387 99.0752 786.136 94.1237C784.886 89.1319 782.949 84.7843 780.408 81.0405C780.609 79.551 781.335 78.8666 782.667 79.0679C785.41 80.6782 787.992 82.6507 790.493 85.0661C792.994 87.4412 795.092 90.0981 796.827 93.0368C798.561 95.9352 799.61 98.9544 800.014 102.054C800.377 104.953 799.933 107.328 798.682 109.179C797.432 111.031 795.778 112.118 793.801 112.48V112.4ZM816.514 45.6151H830.633C831.117 44.2867 831.722 42.5959 832.529 40.5428C833.336 38.4898 834.143 36.2355 834.909 33.8603C835.676 31.4852 836.442 29.2711 837.169 27.2583C837.854 25.2455 838.419 23.6756 838.782 22.5484H821.395C819.62 25.8494 817.643 29.1101 815.465 32.3306C813.286 35.5511 811.027 38.6911 808.687 41.7103C810.019 42.3544 811.39 43.0387 812.762 43.6828C814.174 44.3269 815.384 45.0113 816.433 45.6554L816.514 45.6151ZM815.545 76.4915H828.535V49.842H815.545V76.4915ZM839.831 76.4915H853.104V49.842H839.831V76.4915Z" fill="white"/>
<path d="M1059.53 129.469C1059.25 126.369 1058.76 123.994 1058.04 122.343C1057.35 120.693 1056.18 119.445 1054.57 118.519C1052.95 117.593 1050.65 116.788 1047.67 116.064C1047.39 115.5 1047.35 114.936 1047.51 114.373C1047.71 113.809 1048.03 113.447 1048.52 113.246C1048.72 113.246 1049.04 113.286 1049.52 113.407C1050.86 113.608 1052.71 113.849 1055.09 114.171C1057.47 114.494 1059.77 114.614 1061.95 114.534C1063.85 114.534 1065.26 114.212 1066.27 113.527C1067.27 112.843 1068.2 111.635 1069.17 109.864C1070.5 107.127 1071.63 103.061 1072.64 97.6665C1073.65 92.2722 1074.42 86.1935 1075.02 79.4707C1075.63 72.748 1075.95 66.0655 1075.95 59.383H1063.36C1061.75 75.4451 1058.48 89.1725 1053.48 100.525C1048.48 111.877 1041.7 121.458 1033.15 129.268C1032.58 129.268 1032.1 129.066 1031.65 128.704C1031.25 128.342 1031.05 127.859 1031.17 127.295C1035.97 120.814 1039.96 113.407 1043.15 105.114C1046.34 96.8211 1048.76 86.8779 1050.37 75.4049C1051.99 63.8916 1052.83 50.1241 1052.91 34.0619H1043.76C1039.72 34.1424 1036.45 34.3839 1033.99 34.7462L1032.58 28.9896C1035.61 29.3519 1039.28 29.6337 1043.59 29.835H1054.33V20.6566C1054.33 15.5038 1054.16 11.8405 1053.84 9.74721C1053.52 7.65389 1053.11 6.12416 1052.63 5.15801C1052.35 4.59443 1052.35 4.0711 1052.63 3.58803C1052.91 3.22572 1053.4 3.02444 1054.04 3.02444C1055.17 3.10495 1056.79 3.34649 1058.92 3.66854C1061.06 3.99059 1063.2 4.35289 1065.34 4.7152C1067.52 5.0775 1069.09 5.39955 1070.14 5.7216C1071.19 6.00339 1071.59 6.64749 1071.39 7.69415C1071.31 8.7408 1070.74 9.34465 1069.7 9.54593C1068.57 9.62644 1067.68 9.86798 1066.99 10.19C1066.35 10.5121 1065.98 11.2367 1065.98 12.3639V29.835H1073.33C1074.46 29.835 1075.22 29.5129 1075.59 28.8286C1076.15 27.9832 1076.96 26.856 1078.05 25.4471C1079.14 24.0381 1079.94 22.9915 1080.51 22.3474C1081.15 21.2202 1082.12 21.0994 1083.33 21.9448C1084.26 22.5084 1085.39 23.3135 1086.72 24.4004C1088.05 25.4873 1089.3 26.5742 1090.51 27.6209C1091.72 28.7078 1092.69 29.6337 1093.34 30.3583C1094.1 31.2037 1094.34 32.0491 1094.1 32.8139C1093.86 33.6191 1093.34 34.0216 1092.49 34.0216H1064.53C1064.53 41.4287 1064.25 48.4736 1063.68 55.1561H1074.13C1074.98 55.1561 1075.63 54.8743 1076.11 54.3107C1076.39 53.9484 1076.8 53.4251 1077.32 52.781C1077.84 52.1369 1078.29 51.5733 1078.65 51.0902C1079.42 50.3253 1080.26 50.2046 1081.19 50.6474C1082.52 51.2915 1084.26 52.2979 1086.48 53.6263C1088.7 54.9548 1090.35 55.9612 1091.48 56.7261C1092.13 57.0884 1092.49 57.6922 1092.49 58.4973C1092.49 59.3024 1092 59.9465 1091.08 60.3894C1090.71 60.5906 1090.31 60.7517 1089.95 60.8724C1089.58 61.0335 1089.26 61.1945 1088.94 61.3555C1088.45 61.6373 1088.13 61.9593 1087.89 62.3619C1087.65 62.7645 1087.53 63.4086 1087.53 64.3345C1087.45 65.4616 1087.37 66.5888 1087.32 67.716C1087.28 68.8431 1087.2 69.93 1087.12 70.9364C1091.64 68.8834 1096.24 66.4278 1100.96 63.6098C1105.68 60.7919 1110.12 57.813 1114.35 54.673C1118.59 51.533 1122.3 48.393 1125.45 45.2933C1128.59 42.1936 1130.89 39.3757 1132.31 36.8395C1132.59 36.3565 1132.87 36.0747 1133.15 35.9942C1133.52 35.9137 1134 35.9942 1134.56 36.276C1135.49 36.8395 1136.9 37.7252 1138.72 38.9731C1140.58 40.1808 1142.35 41.3885 1144.17 42.5559C1145.94 43.7233 1147.23 44.6492 1147.96 45.2933C1148.44 45.5751 1148.68 45.9374 1148.68 46.4205C1148.68 46.9036 1148.6 47.3061 1148.4 47.6684C1147.92 48.7151 1147.23 48.9969 1146.26 48.5138C1145.05 48.0307 1144.13 47.8697 1143.52 48.0307C1142.92 48.1918 1142.07 48.6346 1141.06 49.3592C1138.72 50.9694 1136.06 52.5797 1133.15 54.2302C1130.25 55.8807 1127.26 57.4909 1124.24 59.1012C1124.88 66.2265 1126.54 72.8285 1129.2 78.8266C1131.18 76.9346 1133.11 74.801 1135.05 72.3454C1136.99 69.8898 1138.72 67.4744 1140.25 65.0188C1141.79 62.5632 1142.92 60.5101 1143.56 58.8194C1143.64 58.3363 1143.92 58.0142 1144.41 57.813C1144.77 57.7325 1145.26 57.813 1145.82 58.0948C1146.75 58.6583 1148.12 59.544 1149.89 60.7517C1151.67 61.9593 1153.49 63.2073 1155.26 64.4955C1157.04 65.7837 1158.37 66.7901 1159.21 67.5147C1159.98 68.1588 1160.1 68.9639 1159.62 69.8898C1159.05 70.9364 1158.29 71.2585 1157.36 70.8962C1156.51 70.5339 1155.74 70.3729 1155.1 70.4131C1154.45 70.4534 1153.61 70.8157 1152.56 71.4598C1149.37 73.3518 1145.74 75.2841 1141.67 77.2969C1137.59 79.3097 1133.96 81.0005 1130.65 82.2887C1134.85 88.8907 1141.3 97.3847 1150.9 105.396C1167.73 119.365 1185.23 124.437 1194.92 126.45C1191.89 128.945 1186.44 132.649 1178.82 134.259C1161.35 137.923 1147.88 127.255 1146.3 125.967C1141.34 121.901 1138.84 117.714 1134.89 111.112C1129.48 102.054 1127.06 94.285 1125.49 89.2127C1122.91 80.7589 1121.29 71.2585 1120.61 60.7517C1119.4 61.3152 1118.19 61.8788 1117.02 62.4424C1115.85 63.006 1114.64 63.5293 1113.43 63.9721V81.1615C1113.43 86.0325 1113.47 90.984 1113.59 95.9355C1113.67 100.927 1113.79 105.516 1113.87 109.743C1113.95 113.97 1114.07 117.472 1114.15 120.25C1114.23 123.028 1114.27 124.638 1114.27 125.121C1114.27 126.248 1113.22 127.214 1111.09 128.02C1108.95 128.825 1106.69 129.227 1104.23 129.227C1101.97 129.227 1100.84 128.301 1100.84 126.409C1100.84 126.047 1100.92 124.316 1101.04 121.257C1101.2 118.197 1101.32 114.413 1101.48 109.864C1101.65 105.315 1101.77 100.484 1101.89 95.4121C1102.05 90.3399 1102.09 85.5494 1102.09 81.0407V68.8029C1099.27 69.93 1096.56 70.9364 1093.98 71.8221C1091.4 72.7077 1089.02 73.5531 1086.84 74.2777C1086.2 85.0663 1085.19 93.9629 1083.9 100.967C1082.56 107.972 1080.83 113.447 1078.69 117.432C1076.51 121.418 1073.85 124.316 1070.7 126.087C1067.56 127.859 1063.77 128.945 1059.33 129.348L1059.53 129.469ZM1089.02 53.9081C1087.53 54.1094 1086.76 53.5056 1086.76 52.0563C1089.02 49.2384 1091.28 45.6154 1093.62 41.2275C1095.92 36.7993 1098.1 32.1698 1100.11 27.2989C1102.13 22.4279 1103.78 17.7582 1105.03 13.33C1106.33 8.90183 1106.97 5.35929 1107.09 2.62188C1107.09 1.97778 1107.25 1.57522 1107.5 1.49471C1107.78 1.4142 1108.14 1.4142 1108.63 1.49471C1109.84 1.85702 1111.49 2.38034 1113.51 3.02444C1115.52 3.66854 1117.58 4.35289 1119.64 5.0775C1121.7 5.76185 1123.35 6.40595 1124.6 6.96954C1125.45 7.33184 1125.77 8.05645 1125.61 9.06285C1125.41 10.1095 1124.8 10.5926 1123.75 10.5926C1122.62 10.3913 1121.82 10.5121 1121.29 10.9549C1120.77 11.3977 1120.24 12.1223 1119.68 13.1287C1116.94 18.5633 1113.63 24.0784 1109.67 29.5935H1138.76C1139.89 29.5935 1140.7 29.2714 1141.14 28.5871C1141.5 28.104 1142.07 27.4196 1142.75 26.534C1143.48 25.6484 1144.17 24.7225 1144.89 23.7966C1145.58 22.8707 1146.1 22.1863 1146.39 21.824C1147.23 20.9787 1148.28 20.8981 1149.49 21.5422C1150.42 22.1058 1151.59 22.9512 1153.04 24.0784C1154.45 25.2055 1155.83 26.373 1157.12 27.5404C1158.45 28.7078 1159.38 29.6337 1159.94 30.2778C1160.71 31.0427 1160.95 31.8075 1160.63 32.6529C1160.3 33.4983 1159.78 33.9411 1158.93 33.9411H1106.53C1100.4 42.1131 1094.59 48.7151 1089.02 53.7874V53.9081Z" fill="white"/>
<path d="M937.13 37.163H922.123V27.4211H980.296V37.163H967.064C967.548 38.0084 967.952 38.8538 968.274 39.7394C968.476 40.2628 968.557 40.8263 968.718 41.3899H980.296V43.9261C980.296 45.6973 981.345 46.6232 983.402 46.6232C985.863 46.6232 988.243 46.1804 990.624 45.335C992.963 44.4896 994.174 43.4832 994.174 42.3561C994.174 41.5107 994.093 39.7797 993.891 37.163C993.69 34.5464 993.528 31.5272 993.326 28.1457C993.125 24.7642 993.044 21.5034 993.044 18.4037C993.044 16.9142 993.69 15.7065 995.021 14.8612C995.505 14.6599 995.868 14.4586 996.231 14.2171C996.554 13.9755 996.957 13.7743 997.441 13.573C998.208 13.0899 998.611 12.5263 998.652 11.8822C998.692 11.2381 998.41 10.6745 997.724 10.1915C996.877 9.62788 995.666 8.90327 994.053 8.01763C992.439 7.132 990.866 6.24637 989.252 5.32048C987.638 4.43484 986.388 3.79075 985.46 3.42844C984.411 2.94537 983.564 3.14665 982.918 3.99203C982.434 4.63612 981.869 5.44124 981.224 6.32688C980.578 7.21251 980.054 7.89687 979.691 8.37994C979.328 8.94352 978.763 9.22532 977.997 9.22532H923.374C922.446 8.74224 921.074 8.1384 919.299 7.37354C917.524 6.60867 915.749 5.88406 914.095 5.1192C912.441 4.35433 911.07 3.831 910.142 3.54921C909.577 3.26742 909.093 3.30767 908.73 3.71023C908.246 3.99203 908.165 4.4751 908.447 5.1192C909.093 7.09174 909.456 11.842 909.456 19.3698C909.456 23.0331 909.375 26.7367 909.254 30.4805C909.093 34.2243 908.931 37.4851 908.77 40.2225C908.568 42.9599 908.488 44.5702 908.488 45.1337C908.488 47.1063 909.577 48.1127 911.715 48.1127C914.176 48.1127 916.556 47.7101 918.856 46.905C921.155 46.0999 922.325 45.1337 922.325 44.0066V41.3094H935.718C935.88 40.7458 935.96 40.2225 936.162 39.6589C936.485 38.7733 936.888 37.9279 937.332 37.0825L937.13 37.163ZM922.123 13.4925H980.296V23.2344H922.123V13.4925Z" fill="white"/>
<path d="M959.239 98.6741C959.159 95.1315 959.078 91.7098 959.078 88.3283H978.563V91.428C978.563 93.1993 979.612 94.1251 981.669 94.1251C984.13 94.1251 986.551 93.6823 988.931 92.8369C991.311 91.9916 992.521 90.9449 992.521 89.7372C992.521 89.1736 992.441 87.8854 992.32 85.9129C992.199 83.9404 991.997 81.8068 991.835 79.5122C991.634 77.2176 991.553 75.2048 991.553 73.514C991.553 72.1051 992.118 71.0584 993.247 70.4143C993.732 70.213 994.175 70.0117 994.659 69.7702C995.143 69.5287 995.587 69.2871 996.071 69.0054C996.838 68.643 997.241 68.1197 997.282 67.4756C997.322 66.8315 997.04 66.2679 996.354 65.7849C995.507 65.1408 994.296 64.3356 992.683 63.4098C991.069 62.4839 989.455 61.558 987.801 60.6723C986.147 59.7867 984.897 59.1426 984.05 58.7803C982.92 58.1362 982.032 58.257 981.347 59.1829C980.862 59.827 980.298 60.6321 979.572 61.5177C978.845 62.4034 978.281 63.1682 977.797 63.8526C977.312 64.3356 976.748 64.5369 976.102 64.5369H925.836C924.787 64.0539 923.375 63.4903 921.52 62.7657C919.664 62.0813 917.929 61.3567 916.235 60.6723C914.541 59.988 913.25 59.4647 912.402 59.1829C911.757 58.9816 911.233 59.1024 910.87 59.4647C910.506 59.7465 910.385 60.2295 910.587 60.8736C910.95 61.9203 911.233 63.2085 911.434 64.7382C911.636 66.2679 911.717 68.7236 911.717 71.9843C911.717 74.6009 911.636 77.3384 911.515 80.1563C911.354 82.9742 911.233 85.4701 911.112 87.6037C910.95 89.7775 910.91 91.1865 910.91 91.8305C910.91 93.8031 911.999 94.8095 914.137 94.8095C916.598 94.8095 918.938 94.4472 921.197 93.6823C921.116 94.0446 920.915 94.6082 920.632 95.2926C920.35 96.0172 919.866 96.8626 919.22 97.9092C917.244 101.089 914.541 104.471 911.152 107.973C907.763 111.516 904.092 114.817 900.219 117.997C896.306 121.137 892.514 123.794 888.843 125.968C888.56 126.451 888.52 126.934 888.682 127.497C888.883 128.061 889.246 128.423 889.811 128.625C896.589 126.169 903.608 122.828 910.91 118.561C918.212 114.293 924.707 109.704 930.476 104.833C931.524 103.988 932.331 103.545 932.856 103.505C933.38 103.465 934.187 103.585 935.115 103.867C935.599 103.948 936.002 103.948 936.406 103.867C936.769 103.787 937.092 103.505 937.414 103.022C937.898 102.096 937.737 101.331 936.971 100.767C936.043 100.003 934.711 99.1169 933.017 98.03C931.323 96.9431 929.628 95.8964 927.934 94.8498C926.24 93.8031 924.828 92.998 923.698 92.4746C924.344 91.8305 924.707 91.267 924.707 90.7839V88.3685H946.169V110.067C946.169 112.321 944.999 113.448 942.618 113.448C941.408 113.448 939.795 113.448 937.818 113.368C935.841 113.327 933.985 113.247 932.251 113.166C930.516 113.086 929.265 113.005 928.499 113.005C927.45 113.77 927.329 114.736 928.055 115.984C931.242 116.346 933.743 116.991 935.559 117.876C937.374 118.762 938.746 120.131 939.714 121.942C940.682 123.754 941.489 126.29 942.054 129.47C948.468 128.343 952.986 126.411 955.609 123.673C958.231 120.936 959.562 117.433 959.562 113.126C959.562 112.361 959.522 110.67 959.401 107.973C959.32 105.276 959.199 102.217 959.118 98.6741H959.239ZM924.787 83.9404V68.8443H978.563V83.9404H924.787Z" fill="white"/>
<path d="M1015.72 51.9771C1015.08 51.2122 1014.03 50.246 1012.62 48.9981C1011.2 47.7904 1009.75 46.5425 1008.26 45.3348C1006.77 44.1271 1005.52 43.2012 1004.59 42.6376C1003.26 41.8728 1002.25 42.0338 1001.48 43.0805C1001 43.7246 1000.15 44.9322 998.94 46.623C997.729 48.3138 996.842 49.5214 996.237 50.2863C995.672 51.0512 994.784 51.4135 993.534 51.4135H968.24C968.159 51.6953 968.119 51.9368 967.998 52.2186C967.554 53.2653 967.029 54.2717 966.384 55.2378C966.303 55.3586 966.223 55.3988 966.142 55.5196C969.41 55.5196 972.677 55.5196 975.864 55.5598C982.279 55.6001 988.168 55.6404 993.574 55.6404H1014.83C1015.6 55.6404 1016.13 55.2378 1016.37 54.3924C1016.65 53.547 1016.41 52.7419 1015.68 52.0173L1015.72 51.9771Z" fill="white"/>
<path d="M998.291 104.229C994.095 102.055 989.375 100.284 984.171 98.875C978.967 97.4661 973.682 96.3792 968.438 95.6545C967.308 96.1376 966.985 97.0635 967.429 98.4725C973.843 101.089 979.612 104.591 984.776 108.979C989.94 113.367 994.458 118.198 998.331 123.552C999.541 125.162 1000.83 126.008 1002.2 126.169C1003.58 126.33 1004.87 126.008 1006.08 125.243C1007.97 124.116 1009.1 122.264 1009.55 119.687C1009.99 117.111 1009.3 114.494 1007.49 111.878C1005.51 108.979 1002.45 106.443 998.25 104.269L998.291 104.229Z" fill="white"/>
<path d="M935.966 51.375H901.675C896.592 51.1737 892.316 50.8114 888.806 50.2478L890.218 56.3265C893.042 55.9642 896.874 55.7226 901.675 55.6019C902.159 55.6019 903.975 55.6019 907.162 55.5213C910.349 55.4811 914.504 55.4408 919.587 55.4408H938.063C937.337 54.3942 936.692 53.3073 936.208 52.1398C936.087 51.8983 936.046 51.6165 935.966 51.3347V51.375Z" fill="white"/>
<path d="M964.041 41.2702C963.517 39.821 962.75 38.5328 961.702 37.3251C960.975 36.4797 960.169 35.7149 959.2 35.0708C953.795 31.4477 946.654 32.5346 942.499 37.3251C942.176 37.7277 941.813 38.0497 941.531 38.4925C940.926 39.3782 940.522 40.3041 940.159 41.2702C939.07 44.2894 939.151 47.5501 940.32 50.4486C940.926 51.8978 941.773 53.2263 942.902 54.3937C943.507 55.0378 944.193 55.6416 944.96 56.1247C950.164 59.627 957.022 58.7413 961.217 54.3937C961.742 53.8703 962.226 53.3068 962.629 52.7029C963.114 51.9783 963.517 51.2134 963.84 50.4486C965.09 47.4696 965.09 44.1686 964.001 41.2702H964.041Z" fill="white"/>
</g>
<defs>
<filter id="filter0_d_1229_309" x="0.916504" y="0.436035" width="1198" height="264" filterUnits="userSpaceOnUse" color-interpolation-filters="sRGB">
<feFlood flood-opacity="0" result="BackgroundImageFix"/>
<feColorMatrix in="SourceAlpha" type="matrix" values="0 0 0 0 0 0 0 0 0 0 0 0 0 0 0 0 0 0 127 0" result="hardAlpha"/>
<feOffset dy="4"/>
<feGaussianBlur stdDeviation="2"/>
<feComposite in2="hardAlpha" operator="out"/>
<feColorMatrix type="matrix" values="0 0 0 0 0 0 0 0 0 0 0 0 0 0 0 0 0 0 0.25 0"/>
<feBlend mode="normal" in2="BackgroundImageFix" result="effect1_dropShadow_1229_309"/>
<feBlend mode="normal" in="SourceGraphic" in2="effect1_dropShadow_1229_309" result="shape"/>
</filter>
</defs>
</svg>
