<svg width="138" height="38" viewBox="0 0 138 38" fill="none" xmlns="http://www.w3.org/2000/svg">
<path d="M17.6698 33.2486C8.4093 33.2486 0.83255 25.9485 0.83255 17.0259C0.83255 8.10377 8.4093 0.803223 17.6698 0.803223H120.329C129.589 0.803223 137.166 8.10377 137.166 17.0259C137.166 25.9485 129.589 33.2486 120.329 33.2486H17.6698Z" fill="white"/>
<path d="M138 17.0259C137.997 26.3954 130.054 34.0485 120.329 34.0513H35.4579C34.9978 34.0513 34.6248 33.6916 34.6248 33.2485C34.6248 32.8048 34.9978 32.4456 35.4579 32.4456V32.4453H120.329C124.73 32.4449 128.727 30.7122 131.631 27.9151C134.535 25.1165 136.333 21.2653 136.333 17.0259C136.333 12.786 134.534 8.93494 131.631 6.13659C128.727 3.33912 124.73 1.60658 120.329 1.60658H17.6706C13.2702 1.60658 9.27324 3.33912 6.36888 6.13677C3.46562 8.93529 1.66743 12.7863 1.66708 17.0259C1.66743 21.2657 3.46562 25.1167 6.36888 27.9151C9.27324 30.7124 13.2704 32.4449 17.6706 32.4453H26.6829C27.1434 32.4453 27.5163 32.8044 27.5163 33.2483C27.5163 33.6918 27.1432 34.0513 26.6829 34.0513L17.6706 34.051C7.94627 34.0482 0.00308228 26.3951 0 17.0256C0.00289917 7.65587 7.94608 0.00314912 17.6704 0H120.329C130.054 0.00332408 137.997 7.65605 138 17.0259Z" fill="black"/>
<path d="M33.2695 31.4645C33.5951 31.7784 33.5951 32.287 33.2695 32.6005L28.2379 37.4484C27.9124 37.7617 27.3847 37.7617 27.0593 37.4484C26.7336 37.1345 26.7336 36.6259 27.0593 36.3122L32.0907 31.4643C32.4161 31.1512 32.9439 31.1512 33.2695 31.4645Z" fill="black"/>
<path d="M14.6059 21.4726C14.0699 21.4726 13.5899 21.4166 13.1659 21.3046C12.7499 21.1846 12.3899 20.9726 12.0859 20.6686C11.7899 20.3646 11.5459 19.9406 11.3539 19.3966L12.6259 18.7006C12.7299 19.1166 12.9419 19.4326 13.2619 19.6486C13.5819 19.8646 14.0299 19.9726 14.6059 19.9726C15.1179 19.9726 15.6459 19.9486 16.1899 19.9006C16.7339 19.8526 17.2459 19.7846 17.7259 19.6966C18.2059 19.6086 18.6019 19.5086 18.9139 19.3966C18.9139 19.5246 18.9219 19.6926 18.9379 19.9006C18.9619 20.1086 18.9899 20.3126 19.0219 20.5126C19.0619 20.7126 19.0979 20.8686 19.1299 20.9806C18.8099 21.0846 18.4019 21.1726 17.9059 21.2446C17.4099 21.3166 16.8739 21.3726 16.2979 21.4126C15.7299 21.4526 15.1659 21.4726 14.6059 21.4726ZM12.7219 14.4166L12.7099 12.9646C12.9419 13.0366 13.2299 13.0926 13.5739 13.1326C13.9259 13.1726 14.3019 13.1966 14.7019 13.2046C15.1099 13.2126 15.5179 13.2086 15.9259 13.1926C16.3339 13.1686 16.7099 13.1366 17.0539 13.0966C17.3979 13.0486 17.6819 12.9886 17.9059 12.9166V14.3806C17.7059 14.4446 17.4339 14.4966 17.0899 14.5366C16.7459 14.5766 16.3699 14.6086 15.9619 14.6326C15.5539 14.6486 15.1419 14.6526 14.7259 14.6446C14.3099 14.6366 13.9259 14.6126 13.5739 14.5726C13.2219 14.5326 12.9379 14.4806 12.7219 14.4166ZM23.5099 22.0246L22.1419 21.4246C22.2219 21.2726 22.3539 21.0126 22.5379 20.6446C22.7299 20.2686 22.9539 19.8246 23.2099 19.3126C23.4659 18.8006 23.7339 18.2526 24.0139 17.6686C24.3019 17.0766 24.5899 16.4886 24.8779 15.9046C25.1739 15.3126 25.4499 14.7566 25.7059 14.2366C25.9619 13.7166 26.1859 13.2646 26.3779 12.8806C26.5699 12.4886 26.7099 12.2046 26.7979 12.0286L28.2499 12.6766C28.0899 12.9006 27.8819 13.2326 27.6259 13.6726C27.3699 14.1126 27.0899 14.6166 26.7859 15.1846C26.4899 15.7446 26.1859 16.3286 25.8739 16.9366C26.0579 16.8166 26.2499 16.7246 26.4499 16.6606C26.6499 16.5886 26.8499 16.5526 27.0499 16.5526C27.6259 16.5526 28.0299 16.7166 28.2619 17.0446C28.4939 17.3726 28.6099 17.8806 28.6099 18.5686C28.6099 18.6726 28.6059 18.8206 28.5979 19.0126C28.5899 19.1966 28.5859 19.3446 28.5859 19.4566C28.5859 19.8966 28.6339 20.1846 28.7299 20.3206C28.8259 20.4566 29.0179 20.5246 29.3059 20.5246C29.6979 20.5246 30.0859 20.3126 30.4699 19.8886C30.8619 19.4646 31.1819 18.9086 31.4299 18.2206C31.5659 18.3966 31.7419 18.5886 31.9579 18.7966C32.1819 19.0046 32.3699 19.1646 32.5219 19.2766C32.1059 20.1886 31.5899 20.8686 30.9739 21.3166C30.3659 21.7646 29.7339 21.9886 29.0779 21.9886C28.4939 21.9886 28.0379 21.8406 27.7099 21.5446C27.3899 21.2486 27.2299 20.7046 27.2299 19.9126C27.2299 19.8086 27.2339 19.6566 27.2419 19.4566C27.2499 19.2566 27.2539 19.0926 27.2539 18.9646C27.2539 18.5406 27.1979 18.2486 27.0859 18.0886C26.9739 17.9286 26.7819 17.8486 26.5099 17.8486C26.1499 17.8486 25.8099 17.9766 25.4899 18.2326C25.1779 18.4806 24.9259 18.8086 24.7339 19.2166C24.4379 19.8406 24.1819 20.4006 23.9659 20.8966C23.7499 21.3846 23.5979 21.7606 23.5099 22.0246ZM38.9539 22.4686C38.3379 22.4366 37.8539 22.2446 37.5019 21.8926C37.1499 21.5406 36.9779 21.1126 36.9859 20.6086C36.9939 20.1366 37.1979 19.7406 37.5979 19.4206C38.0059 19.1006 38.5739 18.9526 39.3019 18.9766C39.4139 18.9846 39.5259 18.9926 39.6379 19.0006C39.7499 19.0006 39.8579 19.0086 39.9619 19.0246V16.3006H41.3299V19.3486C41.7859 19.5006 42.2179 19.6966 42.6259 19.9366C43.0419 20.1766 43.4419 20.4486 43.8259 20.7526C43.6819 20.8806 43.5259 21.0646 43.3579 21.3046C43.1979 21.5446 43.0779 21.7566 42.9979 21.9406C42.7419 21.7086 42.4739 21.4926 42.1939 21.2926C41.9139 21.0846 41.6219 20.9046 41.3179 20.7526C41.2379 21.9686 40.4499 22.5406 38.9539 22.4686ZM35.6419 20.3686C35.5139 20.2566 35.3299 20.1286 35.0899 19.9846C34.8499 19.8406 34.6299 19.7326 34.4299 19.6606C34.9259 19.0926 35.3699 18.4286 35.7619 17.6686C36.1539 16.9006 36.4779 16.1046 36.7339 15.2806C36.3339 15.3366 35.9619 15.3846 35.6179 15.4246C35.2739 15.4646 34.9979 15.4926 34.7899 15.5086L34.6099 14.1766C34.8899 14.1766 35.2499 14.1566 35.6899 14.1166C36.1379 14.0766 36.6059 14.0206 37.0939 13.9486C37.1819 13.5726 37.2499 13.2046 37.2979 12.8446C37.3459 12.4766 37.3779 12.1206 37.3939 11.7766L38.7259 11.9686C38.6619 12.5686 38.5779 13.1526 38.4739 13.7206C38.7539 13.6646 39.0219 13.6086 39.2779 13.5526C39.5419 13.4886 39.7779 13.4286 39.9859 13.3726L40.1659 14.6326C39.9179 14.7046 39.6179 14.7766 39.2659 14.8486C38.9219 14.9206 38.5539 14.9886 38.1619 15.0526C37.8899 16.0606 37.5379 17.0126 37.1059 17.9086C36.6739 18.8046 36.1859 19.6246 35.6419 20.3686ZM43.2619 16.5406C43.1339 16.4046 42.9619 16.2526 42.7459 16.0846C42.5299 15.9166 42.2979 15.7486 42.0499 15.5806C41.8019 15.4126 41.5539 15.2606 41.3059 15.1246C41.0659 14.9886 40.8539 14.8886 40.6699 14.8246L41.3779 13.7686C41.5699 13.8486 41.7939 13.9566 42.0499 14.0926C42.3059 14.2206 42.5659 14.3686 42.8299 14.5366C43.0939 14.6966 43.3379 14.8566 43.5619 15.0166C43.7859 15.1766 43.9699 15.3246 44.1139 15.4606L43.2619 16.5406ZM39.0619 21.2686C39.3659 21.2686 39.5899 21.2006 39.7339 21.0646C39.8859 20.9206 39.9619 20.6726 39.9619 20.3206V20.2366C39.7139 20.1806 39.4579 20.1446 39.1939 20.1286C38.9219 20.1206 38.7019 20.1646 38.5339 20.2606C38.3739 20.3566 38.2899 20.4926 38.2819 20.6686C38.2739 20.8446 38.3379 20.9886 38.4739 21.1006C38.6099 21.2126 38.8059 21.2686 39.0619 21.2686ZM46.5379 22.6726C46.4819 22.5606 46.4059 22.4286 46.3099 22.2766C46.2139 22.1246 46.1099 21.9726 45.9979 21.8206C45.8859 21.6686 45.7739 21.5486 45.6619 21.4606C47.0699 20.9326 48.1419 20.1286 48.8779 19.0486C49.6219 17.9686 50.0219 16.5686 50.0779 14.8486H45.8179V13.5166H50.3779V11.6926H51.9499V13.5166H56.5459V14.8486H51.6019C51.5939 15.0646 51.5819 15.2766 51.5659 15.4846C51.5499 15.6926 51.5299 15.9006 51.5059 16.1086H55.3579C55.3499 16.5006 55.3259 16.9286 55.2859 17.3926C55.2539 17.8566 55.2059 18.3206 55.1419 18.7846C55.0859 19.2406 55.0219 19.6646 54.9499 20.0566C54.8779 20.4406 54.8019 20.7526 54.7219 20.9926C54.5859 21.4086 54.4219 21.7286 54.2299 21.9526C54.0379 22.1766 53.7979 22.3286 53.5099 22.4086C53.2299 22.4966 52.8819 22.5406 52.4659 22.5406H51.2779C51.2699 22.4046 51.2459 22.2366 51.2059 22.0366C51.1739 21.8446 51.1339 21.6566 51.0859 21.4726C51.0459 21.2806 51.0019 21.1326 50.9539 21.0286H52.1659C52.4939 21.0286 52.7379 20.9806 52.8979 20.8846C53.0579 20.7806 53.1779 20.6006 53.2579 20.3446C53.3299 20.1366 53.3979 19.8606 53.4619 19.5166C53.5259 19.1646 53.5819 18.8046 53.6299 18.4366C53.6779 18.0606 53.7019 17.7366 53.7019 17.4646H51.2299C50.9099 18.6566 50.3659 19.6846 49.5979 20.5486C48.8379 21.4126 47.8179 22.1206 46.5379 22.6726ZM59.1379 21.8206C59.0819 21.4926 59.0379 21.0926 59.0059 20.6206C58.9739 20.1406 58.9499 19.6206 58.9339 19.0606C58.9259 18.4926 58.9259 17.9086 58.9339 17.3086C58.9499 16.7086 58.9739 16.1246 59.0059 15.5566C59.0459 14.9806 59.0939 14.4486 59.1499 13.9606C59.2139 13.4726 59.2859 13.0566 59.3659 12.7126L60.7699 13.0006C60.6819 13.2886 60.6059 13.6646 60.5419 14.1286C60.4779 14.5846 60.4259 15.0886 60.3859 15.6406C60.3459 16.1846 60.3179 16.7446 60.3019 17.3206C60.2939 17.8966 60.2979 18.4566 60.3139 19.0006C60.3299 19.5446 60.3579 20.0366 60.3979 20.4766C60.4379 20.9166 60.4899 21.2726 60.5539 21.5446L59.1379 21.8206ZM64.2379 21.1726C62.8539 21.1326 62.0699 20.6806 61.8859 19.8166C61.8379 19.6006 61.8219 19.3606 61.8379 19.0966C61.8539 18.8326 61.9139 18.5406 62.0179 18.2206L63.2779 18.5326C63.2219 18.6846 63.1899 18.8206 63.1819 18.9406C63.1819 19.0606 63.1979 19.1686 63.2299 19.2646C63.3339 19.5526 63.7579 19.7086 64.5019 19.7326C64.8619 19.7406 65.2459 19.7286 65.6539 19.6966C66.0699 19.6566 66.4739 19.6006 66.8659 19.5286C67.2659 19.4566 67.6139 19.3766 67.9099 19.2886C67.8939 19.4006 67.8739 19.5526 67.8499 19.7446C67.8339 19.9366 67.8219 20.1326 67.8139 20.3326C67.8059 20.5246 67.8059 20.6846 67.8139 20.8126C67.4379 20.9086 67.0339 20.9846 66.6019 21.0406C66.1779 21.0966 65.7579 21.1366 65.3419 21.1606C64.9339 21.1766 64.5659 21.1806 64.2379 21.1726ZM62.4379 15.3166L62.3539 13.8406C62.6579 13.8806 63.0299 13.9046 63.4699 13.9126C63.9099 13.9206 64.3659 13.9166 64.8379 13.9006C65.3179 13.8766 65.7739 13.8406 66.2059 13.7926C66.6459 13.7366 67.0099 13.6686 67.2979 13.5886L67.2379 15.0406C66.9179 15.0966 66.5459 15.1486 66.1219 15.1966C65.6979 15.2366 65.2579 15.2686 64.8019 15.2926C64.3539 15.3166 63.9219 15.3326 63.5059 15.3406C63.0979 15.3406 62.7419 15.3326 62.4379 15.3166ZM73.5979 22.1086C73.0059 22.1806 72.4819 22.1526 72.0259 22.0246C71.5699 21.9046 71.2139 21.7006 70.9579 21.4126C70.7019 21.1246 70.5739 20.7646 70.5739 20.3326C70.5739 19.7646 70.8019 19.2086 71.2579 18.6646C71.7219 18.1126 72.3579 17.6646 73.1659 17.3206V15.5086C72.7259 15.5406 72.2979 15.5646 71.8819 15.5806C71.4739 15.5966 71.0939 15.5966 70.7419 15.5806L70.6699 14.2006C70.9739 14.2326 71.3459 14.2446 71.7859 14.2366C72.2259 14.2206 72.6859 14.1886 73.1659 14.1406V12.2086L74.4979 12.2206V13.9846C74.8979 13.9206 75.2699 13.8526 75.6139 13.7806C75.9659 13.7006 76.2539 13.6166 76.4779 13.5286L76.6219 14.8486C76.3419 14.9526 76.0179 15.0446 75.6499 15.1246C75.2819 15.2046 74.8979 15.2766 74.4979 15.3406V16.9126C74.7779 16.8486 75.0699 16.8006 75.3739 16.7686C75.6779 16.7366 75.9939 16.7206 76.3219 16.7206C77.0899 16.7206 77.7419 16.8406 78.2779 17.0806C78.8219 17.3126 79.2339 17.6286 79.5139 18.0286C79.7939 18.4206 79.9339 18.8646 79.9339 19.3606C79.9339 20.1286 79.7019 20.7326 79.2379 21.1726C78.7739 21.6126 78.1459 21.8286 77.3539 21.8206C76.7379 21.8206 76.2179 21.6686 75.7939 21.3646C75.3779 21.0526 75.0779 20.5926 74.8939 19.9846C75.0779 19.9286 75.3019 19.8446 75.5659 19.7326C75.8299 19.6126 76.0379 19.5006 76.1899 19.3966C76.3899 20.0606 76.7739 20.3926 77.3419 20.3926C77.6939 20.3926 77.9619 20.2926 78.1459 20.0926C78.3299 19.8846 78.4219 19.6286 78.4219 19.3246C78.4219 18.9326 78.2459 18.6086 77.8939 18.3526C77.5419 18.0886 77.0139 17.9566 76.3099 17.9566C75.6699 17.9566 75.0659 18.0366 74.4979 18.1966V21.1846C74.4979 21.4806 74.4299 21.6966 74.2939 21.8326C74.1579 21.9766 73.9259 22.0686 73.5979 22.1086ZM79.7059 16.5526C79.5139 16.3606 79.2539 16.1526 78.9259 15.9286C78.5979 15.6966 78.2619 15.4806 77.9179 15.2806C77.5739 15.0726 77.2659 14.9166 76.9939 14.8126L77.7499 13.7326C78.0379 13.8446 78.3539 13.9966 78.6979 14.1886C79.0419 14.3806 79.3779 14.5846 79.7059 14.8006C80.0339 15.0166 80.3099 15.2246 80.5339 15.4246C80.4539 15.5126 80.3539 15.6326 80.2339 15.7846C80.1219 15.9366 80.0139 16.0846 79.9099 16.2286C79.8139 16.3726 79.7459 16.4806 79.7059 16.5526ZM72.7339 20.8366C72.8859 20.8446 72.9939 20.8286 73.0579 20.7886C73.1299 20.7486 73.1659 20.6766 73.1659 20.5726V18.7366C72.7979 18.9606 72.5059 19.2046 72.2899 19.4686C72.0739 19.7326 71.9659 19.9966 71.9659 20.2606C71.9659 20.4446 72.0339 20.5846 72.1699 20.6806C72.3059 20.7766 72.4939 20.8286 72.7339 20.8366ZM85.4899 22.5646C85.3939 22.4046 85.2659 22.2126 85.1059 21.9886C84.9459 21.7646 84.7619 21.5726 84.5539 21.4126C85.4019 21.1726 86.0539 20.8966 86.5099 20.5846C86.9659 20.2646 87.2819 19.8886 87.4579 19.4566C87.2019 19.5846 86.9459 19.6486 86.6899 19.6486C86.0819 19.6486 85.5899 19.4766 85.2139 19.1326C84.8459 18.7886 84.6499 18.3246 84.6259 17.7406C84.6099 17.3406 84.6899 16.9846 84.8659 16.6726C85.0419 16.3526 85.2899 16.1006 85.6099 15.9166C85.9299 15.7326 86.2939 15.6406 86.7019 15.6406C86.7659 15.6406 86.8219 15.6446 86.8699 15.6526C86.9179 15.6526 86.9699 15.6566 87.0259 15.6646C87.0099 15.5206 86.9939 15.3726 86.9779 15.2206C86.9619 15.0686 86.9539 14.9086 86.9539 14.7406C86.3059 14.7646 85.6739 14.8006 85.0579 14.8486C84.4419 14.8966 83.8779 14.9526 83.3659 15.0166C82.8539 15.0726 82.4299 15.1406 82.0939 15.2206L81.8899 13.8286C82.1779 13.8046 82.5819 13.7806 83.1019 13.7566C83.6219 13.7246 84.2139 13.6926 84.8779 13.6606C85.5499 13.6286 86.2419 13.5966 86.9539 13.5646V11.8726H88.3459V13.5046C88.9699 13.4806 89.5659 13.4606 90.1339 13.4446C90.7019 13.4206 91.2099 13.4046 91.6579 13.3966C92.1059 13.3806 92.4579 13.3766 92.7139 13.3846L92.6179 14.7886C92.1539 14.7326 91.5379 14.7006 90.7699 14.6926C90.0099 14.6766 89.2019 14.6766 88.3459 14.6926C88.3459 14.9806 88.3539 15.2726 88.3699 15.5686C88.3939 15.8646 88.4139 16.1486 88.4299 16.4206C88.8219 16.8846 89.0179 17.5006 89.0179 18.2686C89.0179 19.3326 88.7099 20.2286 88.0939 20.9566C87.4779 21.6766 86.6099 22.2126 85.4899 22.5646ZM86.7019 18.4486C86.9259 18.4326 87.1019 18.3566 87.2299 18.2206C87.3579 18.0846 87.4219 17.9086 87.4219 17.6926C87.4219 17.6206 87.4139 17.5446 87.3979 17.4646C87.3899 17.3766 87.3779 17.2846 87.3619 17.1886C87.1939 16.9966 86.9819 16.9006 86.7259 16.9006C86.5019 16.9006 86.3139 16.9726 86.1619 17.1166C86.0099 17.2606 85.9379 17.4446 85.9459 17.6686C85.9459 17.9006 86.0139 18.0926 86.1499 18.2446C86.2939 18.3886 86.4779 18.4566 86.7019 18.4486ZM97.4899 22.5646C97.3939 22.4046 97.2659 22.2126 97.1059 21.9886C96.9459 21.7646 96.7619 21.5726 96.5539 21.4126C97.4019 21.1726 98.0539 20.8966 98.5099 20.5846C98.9659 20.2646 99.2819 19.8886 99.4579 19.4566C99.2019 19.5846 98.9459 19.6486 98.6899 19.6486C98.0819 19.6486 97.5899 19.4766 97.2139 19.1326C96.8459 18.7886 96.6499 18.3246 96.6259 17.7406C96.6099 17.3406 96.6899 16.9846 96.8659 16.6726C97.0419 16.3526 97.2899 16.1006 97.6099 15.9166C97.9299 15.7326 98.2939 15.6406 98.7019 15.6406C98.7659 15.6406 98.8219 15.6446 98.8699 15.6526C98.9179 15.6526 98.9699 15.6566 99.0259 15.6646C99.0099 15.5206 98.9939 15.3726 98.9779 15.2206C98.9619 15.0686 98.9539 14.9086 98.9539 14.7406C98.3059 14.7646 97.6739 14.8006 97.0579 14.8486C96.4419 14.8966 95.8779 14.9526 95.3659 15.0166C94.8539 15.0726 94.4299 15.1406 94.0939 15.2206L93.8899 13.8286C94.1779 13.8046 94.5819 13.7806 95.1019 13.7566C95.6219 13.7246 96.2139 13.6926 96.8779 13.6606C97.5499 13.6286 98.2419 13.5966 98.9539 13.5646V11.8726H100.346V13.5046C100.97 13.4806 101.566 13.4606 102.134 13.4446C102.702 13.4206 103.21 13.4046 103.658 13.3966C104.106 13.3806 104.458 13.3766 104.714 13.3846L104.618 14.7886C104.154 14.7326 103.538 14.7006 102.77 14.6926C102.01 14.6766 101.202 14.6766 100.346 14.6926C100.346 14.9806 100.354 15.2726 100.37 15.5686C100.394 15.8646 100.414 16.1486 100.43 16.4206C100.822 16.8846 101.018 17.5006 101.018 18.2686C101.018 19.3326 100.71 20.2286 100.094 20.9566C99.4779 21.6766 98.6099 22.2126 97.4899 22.5646ZM98.7019 18.4486C98.9259 18.4326 99.1019 18.3566 99.2299 18.2206C99.3579 18.0846 99.4219 17.9086 99.4219 17.6926C99.4219 17.6206 99.4139 17.5446 99.3979 17.4646C99.3899 17.3766 99.3779 17.2846 99.3619 17.1886C99.1939 16.9966 98.9819 16.9006 98.7259 16.9006C98.5019 16.9006 98.3139 16.9726 98.1619 17.1166C98.0099 17.2606 97.9379 17.4446 97.9459 17.6686C97.9459 17.9006 98.0139 18.0926 98.1499 18.2446C98.2939 18.3886 98.4779 18.4566 98.7019 18.4486ZM111.866 21.9526C111.818 21.7686 111.718 21.5446 111.566 21.2806C111.422 21.0166 111.27 20.8006 111.11 20.6326C112.246 20.5686 113.114 20.2926 113.714 19.8046C114.322 19.3166 114.626 18.6566 114.626 17.8246C114.626 17.3126 114.474 16.8726 114.17 16.5046C113.866 16.1366 113.45 15.8726 112.922 15.7126C112.49 16.6486 111.998 17.5006 111.446 18.2686C111.686 18.4446 111.918 18.5886 112.142 18.7006C111.982 18.8206 111.822 18.9926 111.662 19.2166C111.502 19.4326 111.378 19.6286 111.29 19.8046C111.17 19.7406 111.05 19.6726 110.93 19.6006C110.81 19.5206 110.69 19.4366 110.57 19.3486C110.074 19.9006 109.578 20.3206 109.082 20.6086C108.634 20.8726 108.214 21.0006 107.822 20.9926C107.438 20.9766 107.126 20.8286 106.886 20.5486C106.654 20.2606 106.538 19.8366 106.538 19.2766C106.538 18.6926 106.666 18.1246 106.922 17.5726C107.178 17.0126 107.518 16.5126 107.942 16.0726C107.702 15.6246 107.486 15.1806 107.294 14.7406C107.11 14.2926 106.958 13.8766 106.838 13.4926L108.098 12.9886C108.154 13.3246 108.254 13.6846 108.398 14.0686C108.542 14.4526 108.722 14.8446 108.938 15.2446C109.362 14.9646 109.81 14.7486 110.282 14.5966C110.762 14.4366 111.25 14.3566 111.746 14.3566H112.01C112.146 13.9806 112.262 13.6046 112.358 13.2286C112.462 12.8446 112.534 12.4806 112.574 12.1366L114.014 12.4966C113.942 12.8406 113.854 13.1886 113.75 13.5406C113.654 13.8846 113.538 14.2326 113.402 14.5846C113.97 14.7526 114.45 15.0006 114.842 15.3286C115.242 15.6486 115.546 16.0246 115.754 16.4566C115.97 16.8806 116.078 17.3366 116.078 17.8246C116.078 18.5446 115.918 19.1966 115.598 19.7806C115.278 20.3566 114.806 20.8326 114.182 21.2086C113.558 21.5846 112.786 21.8326 111.866 21.9526ZM108.458 19.4926C108.842 19.2846 109.234 18.9486 109.634 18.4846C109.45 18.2846 109.274 18.0766 109.106 17.8606C108.938 17.6366 108.774 17.4126 108.614 17.1886C108.366 17.4926 108.17 17.8206 108.026 18.1726C107.89 18.5246 107.822 18.8846 107.822 19.2526C107.822 19.6366 108.034 19.7166 108.458 19.4926ZM110.462 17.3926C110.838 16.8166 111.182 16.2086 111.494 15.5686C111.158 15.5926 110.826 15.6686 110.498 15.7966C110.17 15.9166 109.862 16.0806 109.574 16.2886C109.846 16.6726 110.142 17.0406 110.462 17.3926ZM122.75 19.5046C122.734 19.2566 122.714 18.9326 122.69 18.5326C122.666 18.1246 122.638 17.6886 122.606 17.2246C122.582 16.7526 122.558 16.2926 122.534 15.8446C122.518 15.3886 122.502 14.9886 122.486 14.6446C122.478 14.2926 122.474 14.0406 122.474 13.8886V12.0286H124.202V13.8886C124.202 14.0406 124.194 14.2926 124.178 14.6446C124.17 14.9886 124.154 15.3886 124.13 15.8446C124.114 16.2926 124.09 16.7526 124.058 17.2246C124.034 17.6886 124.01 18.1246 123.986 18.5326C123.962 18.9326 123.942 19.2566 123.926 19.5046H122.75ZM123.338 22.4686C123.058 22.4686 122.818 22.3686 122.618 22.1686C122.418 21.9686 122.318 21.7286 122.318 21.4486C122.318 21.1686 122.418 20.9286 122.618 20.7286C122.818 20.5286 123.058 20.4286 123.338 20.4286C123.618 20.4286 123.858 20.5286 124.058 20.7286C124.258 20.9286 124.358 21.1686 124.358 21.4486C124.358 21.7286 124.258 21.9686 124.058 22.1686C123.858 22.3686 123.618 22.4686 123.338 22.4686Z" fill="#EF7014"/>
</svg>
