<svg width="23" height="26" viewBox="0 0 23 26" fill="none" xmlns="http://www.w3.org/2000/svg">
<path d="M10.7293 9.2274C10.2749 8.42987 10.4152 7.61916 10.3907 6.82602C10.3573 5.74068 9.9385 5.43529 8.9272 5.82636C6.3789 6.81723 3.84173 7.83667 1.30011 8.84292C0.830099 9.02967 0.395729 9.31089 0.0927839 8.53533C-0.190113 7.80811 0.217526 7.67189 0.727632 7.47415C3.17124 6.52063 5.60149 5.53855 8.05178 4.6026C8.61089 4.38949 8.92943 4.17198 9.0564 3.50408C9.2346 2.56813 9.96078 1.99031 10.9632 1.95296C11.8831 1.92 12.6271 2.28691 13.0125 3.17232C13.4068 4.0819 13.2976 4.99807 12.5024 5.55393C11.4822 6.26577 11.725 7.26104 11.9923 7.99266C12.2306 8.65177 13.0392 9.14831 13.9793 9.11316C16.1355 9.03187 18.2739 9.28453 20.4102 9.54598C21.0561 9.62507 21.4504 9.84478 21.6888 10.5127C23.2636 14.92 23.2725 19.3075 21.6999 23.717C21.4749 24.3453 21.1675 24.62 20.4658 24.7232C16.2112 25.3406 11.9656 25.3164 7.71542 24.7013C7.18081 24.6244 6.87564 24.4442 6.67739 23.9059C5.01787 19.3954 5.00005 14.9024 6.67739 10.3896C6.88009 9.84478 7.18749 9.63386 7.70205 9.57454C8.65767 9.46688 9.61551 9.35923 10.7293 9.23399V9.2274ZM14.0706 17.6531C15.0351 17.6531 16.0019 17.6202 16.9642 17.6641C17.6636 17.697 17.9554 17.5279 17.9064 16.7567C17.7861 14.8914 17.5611 13.0459 17.2092 11.2113C17.0911 10.5984 16.7993 10.3721 16.1556 10.394C14.7834 10.4402 13.409 10.4358 12.0391 10.394C11.4421 10.3765 11.1592 10.6028 11.0567 11.1542C10.6959 13.0613 10.4508 14.9793 10.3172 16.9149C10.2771 17.5037 10.4865 17.6817 11.0679 17.6597C12.068 17.6201 13.0704 17.6487 14.0728 17.6487L14.0706 17.6531ZM21.6531 16.3788C21.5262 14.9178 21.2032 13.4985 20.8913 12.0704C20.6396 10.9213 19.9223 10.6819 18.9288 10.6247C18.4165 10.5962 18.2695 10.7324 18.3898 11.2377C18.8197 13.0569 19.0024 14.9068 19.058 16.7699C19.067 17.0489 18.9578 17.4883 19.2585 17.5652C19.9357 17.7366 20.6708 17.7849 21.3346 17.5476C21.8826 17.3499 21.5818 16.7853 21.6531 16.381V16.3788ZM6.70857 16.4074C6.70857 16.3173 6.73085 16.504 6.70412 16.6842C6.58828 17.5037 7.03156 17.7388 7.75329 17.6509C8.35695 17.5784 9.20787 18.031 9.20341 16.7809C9.19673 14.9529 9.45958 13.1382 9.81821 11.341C9.86277 11.1191 10.1412 10.7807 9.64669 10.6291C8.92943 10.4094 7.83348 10.9191 7.59959 11.6288C7.11621 13.0942 6.77317 14.586 6.70857 16.4074ZM11.079 4.69268C11.4087 4.63995 11.6671 4.47957 11.7005 4.09728C11.7339 3.72159 11.5423 3.46014 11.1703 3.4118C10.7337 3.35687 10.482 3.60294 10.462 4.02698C10.4442 4.40707 10.6914 4.6026 11.079 4.69268Z" fill="white"/>
<path d="M20.9021 0.900909C20.9823 1.31396 20.666 1.36668 20.4477 1.45237C17.915 2.46301 15.3756 3.45828 12.8384 4.46233C12.5867 4.5612 12.2637 4.69522 12.2971 4.27558C12.3283 3.87572 11.5665 3.39896 12.3684 3.07819C14.9011 2.06754 17.436 1.06349 19.9777 0.0748168C20.8575 -0.265727 20.5992 0.652642 20.9021 0.898712V0.900909Z" fill="white"/>
</svg>
