<svg xmlns="http://www.w3.org/2000/svg" viewBox="0 0 414.11 38.47"><defs><style>.cls-1{fill:#c3af3f;}</style></defs><title>st_title</title><g id="レイヤー_2" data-name="レイヤー 2"><g id="text_object" data-name="text/object"><path class="cls-1" d="M0,37.55V.92H7.59q8.22,0,11.93,1.32a15.9,15.9,0,0,1,8.33,6.48,19.67,19.67,0,0,1,3,11,19.26,19.26,0,0,1-2.37,9.68,15.31,15.31,0,0,1-6.18,6.18q-3.8,2-10.65,2Zm3.51-3.46H7.74q7.61,0,10.54-.94a12.21,12.21,0,0,0,6.5-4.84,15,15,0,0,0,2.36-8.55,15.7,15.7,0,0,0-2.56-9.06,12.93,12.93,0,0,0-7.15-5.15q-3.43-1-11.33-1H3.51Z"/><path class="cls-1" d="M59.91,0A19,19,0,0,1,73.84,5.55a18.5,18.5,0,0,1,5.61,13.67,18.61,18.61,0,0,1-5.59,13.65,18.54,18.54,0,0,1-13.65,5.6A18.73,18.73,0,0,1,46.46,32.9a18.34,18.34,0,0,1-5.61-13.5,19.47,19.47,0,0,1,2.56-9.79A18.84,18.84,0,0,1,59.91,0Zm.17,3.56a15.65,15.65,0,0,0-13.4,7.83,15.9,15.9,0,0,0-2,8,14.91,14.91,0,0,0,4.52,11,14.93,14.93,0,0,0,10.92,4.5A15.66,15.66,0,0,0,68,32.84a14.7,14.7,0,0,0,5.66-5.65,15.87,15.87,0,0,0,2-8,15.48,15.48,0,0,0-2-7.89,15.12,15.12,0,0,0-5.72-5.64A15.51,15.51,0,0,0,60.08,3.56Z"/><path class="cls-1" d="M91.35.92H95V23a45.61,45.61,0,0,0,.15,4.91,8.15,8.15,0,0,0,1.27,3.62A7.42,7.42,0,0,0,99.5,34a9.5,9.5,0,0,0,4.15,1,8.26,8.26,0,0,0,3.49-.77,7.81,7.81,0,0,0,2.79-2.15,8.65,8.65,0,0,0,1.64-3.31A27.21,27.21,0,0,0,112,23V.92h3.66V23a26.93,26.93,0,0,1-1,7.94,10.78,10.78,0,0,1-3.84,5.26,10.92,10.92,0,0,1-7,2.24,13.34,13.34,0,0,1-7.59-2.11A10.22,10.22,0,0,1,92,30.75,30,30,0,0,1,91.35,23Z"/><path class="cls-1" d="M129.52.92h7.22a17.13,17.13,0,0,1,6.7,1,8.08,8.08,0,0,1,3.69,3.17,8.66,8.66,0,0,1,1.36,4.76,8.56,8.56,0,0,1-1.19,4.44,8.8,8.8,0,0,1-3.49,3.25,13.55,13.55,0,0,1,4.39,2.28A9.1,9.1,0,0,1,150.6,23a9.5,9.5,0,0,1,.85,4,9.86,9.86,0,0,1-3.22,7.46,12,12,0,0,1-8.65,3H129.52Zm3.58,3.59V16.24h2.1a16.45,16.45,0,0,0,5.61-.71,6.11,6.11,0,0,0,2.85-2.24,5.91,5.91,0,0,0,1.05-3.4A4.82,4.82,0,0,0,143,5.94c-1.18-1-3-1.43-5.61-1.43Zm0,15.41V34h4.54a16.12,16.12,0,0,0,5.89-.79,6.61,6.61,0,0,0,3-2.45,6.39,6.39,0,0,0-.46-7.87,8.19,8.19,0,0,0-4.38-2.49,32,32,0,0,0-6.52-.45Z"/><path class="cls-1" d="M163.35.92H167V34h14.1v3.53H163.35Z"/><path class="cls-1" d="M191.27.92h21V4.51H194.93V16h17.18v3.58H194.93V34h17.18v3.58H191.27Z"/><path class="cls-1" d="M243.11.92h7.29a44.37,44.37,0,0,1,8.27.5,9.48,9.48,0,0,1,5.3,3.2,9.18,9.18,0,0,1,2,6.05,9.74,9.74,0,0,1-1.41,5.26,8.8,8.8,0,0,1-4,3.43,18.44,18.44,0,0,1-7.22,1.18l13.17,17H262l-13.17-17h-2.07v17h-3.66Zm3.66,3.59V17l6.31.05a15.53,15.53,0,0,0,5.42-.7,5.67,5.67,0,0,0,2.75-2.23,6.23,6.23,0,0,0,1-3.42,5.89,5.89,0,0,0-1-3.35,5.52,5.52,0,0,0-2.62-2.16,16,16,0,0,0-5.38-.64Z"/><path class="cls-1" d="M294.94,0a19,19,0,0,1,13.93,5.55,18.53,18.53,0,0,1,5.6,13.67,18.57,18.57,0,0,1-5.59,13.65,18.54,18.54,0,0,1-13.65,5.6,18.73,18.73,0,0,1-13.75-5.57,18.34,18.34,0,0,1-5.61-13.5,19.47,19.47,0,0,1,2.56-9.79A18.84,18.84,0,0,1,294.94,0Zm.16,3.56a15.13,15.13,0,0,0-7.71,2.12,15.21,15.21,0,0,0-5.69,5.71,15.9,15.9,0,0,0-2,8,14.92,14.92,0,0,0,4.53,11,14.89,14.89,0,0,0,10.91,4.5A15.66,15.66,0,0,0,303,32.84a14.7,14.7,0,0,0,5.66-5.65,15.88,15.88,0,0,0,2-8,15.49,15.49,0,0,0-2-7.89,15.12,15.12,0,0,0-5.72-5.64A15.51,15.51,0,0,0,295.1,3.56Z"/><path class="cls-1" d="M343.65,0a19,19,0,0,1,13.93,5.55,18.53,18.53,0,0,1,5.6,13.67,18.57,18.57,0,0,1-5.59,13.65A18.53,18.53,0,0,1,344,38.47a18.74,18.74,0,0,1-13.76-5.57,18.34,18.34,0,0,1-5.61-13.5,19.58,19.58,0,0,1,2.56-9.79,18.58,18.58,0,0,1,7-7.06A18.77,18.77,0,0,1,343.65,0Zm.16,3.56a15.62,15.62,0,0,0-13.39,7.83,15.8,15.8,0,0,0-2.05,8,14.92,14.92,0,0,0,4.53,11,14.91,14.91,0,0,0,10.91,4.5,15.66,15.66,0,0,0,7.89-2.07,14.8,14.8,0,0,0,5.67-5.65,16,16,0,0,0,2-8,15.58,15.58,0,0,0-2-7.89,15.22,15.22,0,0,0-5.73-5.64A15.51,15.51,0,0,0,343.81,3.56Z"/><path class="cls-1" d="M372.77,37.55,378,.92h.59L393.5,31,408.25.92h.59l5.27,36.63h-3.59L406.9,11.36,394,37.55H393l-13.1-26.39-3.6,26.39Z"/></g></g></svg>