<svg xmlns="http://www.w3.org/2000/svg" viewBox="0 0 69.59 29.52"><defs><style>.cls-1{fill:#4d4d4d;}</style></defs><title>gnav_topics</title><g id="レイヤー_2" data-name="レイヤー 2"><g id="header_footer" data-name="header/footer"><path class="cls-1" d="M0,19.92H1.28v3.35a37.71,37.71,0,0,1,5.44,1.94l-.44,1.08a33.63,33.63,0,0,0-5-1.82v5.05H0Z"/><path class="cls-1" d="M14,20.23h1.3v3.56a30.57,30.57,0,0,0,5.4-1.47,1.72,1.72,0,0,1-.6-.6,1.68,1.68,0,0,1,.27-2,1.69,1.69,0,0,1,2.38,0,1.59,1.59,0,0,1,.49,1.18A1.61,1.61,0,0,1,22.76,22a1.54,1.54,0,0,1-1.11.52l.18.54a35.74,35.74,0,0,1-6.55,1.83v1.78a1.6,1.6,0,0,0,.27,1.12,1.86,1.86,0,0,0,1.19.25c1.66,0,3.29-.06,4.91-.2L21.7,29q-2.55.21-5.1.21a3,3,0,0,1-2.06-.54,2.76,2.76,0,0,1-.56-2Zm8.11,1.21a.78.78,0,0,0,0-1.11.77.77,0,0,0-1.1,0,.78.78,0,0,0,0,1.11.8.8,0,0,0,1.1,0Z"/><path class="cls-1" d="M29.88,22.83l1-.28c.28.9.54,1.87.81,2.93l-1.05.27C30.44,24.77,30.17,23.8,29.88,22.83Zm6.53-.53,1.13.06A11,11,0,0,1,36.65,26a5.18,5.18,0,0,1-1.89,2.19,9,9,0,0,1-3.24,1.18l-.25-1A6.45,6.45,0,0,0,35,26.5,7.53,7.53,0,0,0,36.41,22.3Zm-4.09,0,1.06-.27c.28.93.55,1.95.82,3l-1.07.27Q32.86,24.23,32.32,22.32Z"/><path class="cls-1" d="M45.61,29.34l-.23-1.1a8,8,0,0,0,4.71-1.8A6.46,6.46,0,0,0,52,22.21H47.88a9.69,9.69,0,0,1-2.33,3.28l-.83-.75a8.61,8.61,0,0,0,2.56-5l1.2.09a8.29,8.29,0,0,1-.23,1.31h5v1.08a7.69,7.69,0,0,1-2.17,5A9.3,9.3,0,0,1,45.61,29.34Z"/><path class="cls-1" d="M61.26,21.63V20.52H68.4v1.11a11.75,11.75,0,0,1-2.17,3.53q1.88,1.75,3.36,3.27l-.88.83Q67,27.51,65.41,26a14.36,14.36,0,0,1-4.81,3.15l-.5-1a13.45,13.45,0,0,0,4.26-2.76A10.28,10.28,0,0,0,67,21.63Z"/><path class="cls-1" d="M4.58.27h6v2h-2V11H6.49V2.29H4.58Z"/><path class="cls-1" d="M18.31,0a5.34,5.34,0,0,1,3.93,1.66,5.51,5.51,0,0,1,1.64,4,5.45,5.45,0,0,1-1.62,4,5.35,5.35,0,0,1-3.94,1.64,5.34,5.34,0,0,1-4-1.68,5.58,5.58,0,0,1-1.61-4A5.58,5.58,0,0,1,15.49.76,5.48,5.48,0,0,1,18.31,0Zm0,2a3.36,3.36,0,0,0-2.51,1,3.6,3.6,0,0,0-1,2.64A3.47,3.47,0,0,0,16,8.52a3.54,3.54,0,0,0,2.29.81,3.37,3.37,0,0,0,2.49-1.05,3.61,3.61,0,0,0,1-2.6,3.6,3.6,0,0,0-1-2.61A3.38,3.38,0,0,0,18.28,2Z"/><path class="cls-1" d="M27.36.27h2.18A7.07,7.07,0,0,1,32.08.6a2.57,2.57,0,0,1,1.23,1,3.28,3.28,0,0,1,.45,1.75,2.87,2.87,0,0,1-.59,1.87,3,3,0,0,1-1.6,1,8.7,8.7,0,0,1-2.16.17V11H27.36Zm2.05,4.21h.65a3.3,3.3,0,0,0,1.07-.11A1,1,0,0,0,31.61,4a1.13,1.13,0,0,0,.17-.62,1,1,0,0,0-.49-.91A2.75,2.75,0,0,0,30,2.27h-.58Z"/><path class="cls-1" d="M36.92.27h2V11h-2Z"/><path class="cls-1" d="M52.82,2.16,51.38,3.53A4.43,4.43,0,0,0,48.09,2,3.55,3.55,0,0,0,45.49,3a3.51,3.51,0,0,0-1.06,2.6,3.9,3.9,0,0,0,.47,1.92,3.39,3.39,0,0,0,1.32,1.31,3.87,3.87,0,0,0,1.91.48A4,4,0,0,0,49.76,9,5.73,5.73,0,0,0,51.38,7.8l1.39,1.45a7.66,7.66,0,0,1-2.25,1.62,6.19,6.19,0,0,1-2.43.45A5.56,5.56,0,0,1,44,9.72a5.49,5.49,0,0,1-1.6-4.08,5.53,5.53,0,0,1,.73-2.86,5.42,5.42,0,0,1,2.09-2A5.84,5.84,0,0,1,48.12,0a6.2,6.2,0,0,1,2.57.56A6.3,6.3,0,0,1,52.82,2.16Z"/><path class="cls-1" d="M62,1.74,60.47,3.08A2.13,2.13,0,0,0,58.84,2a1,1,0,0,0-.66.22.62.62,0,0,0-.25.49.84.84,0,0,0,.18.51,16,16,0,0,0,1.5,1.38c.79.66,1.26,1.07,1.43,1.24A4.23,4.23,0,0,1,61.92,7a2.89,2.89,0,0,1,.26,1.25,2.86,2.86,0,0,1-.91,2.19,3.33,3.33,0,0,1-2.39.87,3.54,3.54,0,0,1-2-.57A4.32,4.32,0,0,1,55.41,9l1.72-1c.52,1,1.12,1.43,1.79,1.43a1.31,1.31,0,0,0,.89-.31.92.92,0,0,0,.36-.71,1.22,1.22,0,0,0-.27-.73A7.28,7.28,0,0,0,58.7,6.5a12.13,12.13,0,0,1-2.27-2.22,2.77,2.77,0,0,1-.52-1.56A2.56,2.56,0,0,1,56.77.8a3,3,0,0,1,2.1-.8,3.33,3.33,0,0,1,1.54.37A5.64,5.64,0,0,1,62,1.74Z"/></g></g></svg>