<svg xmlns="http://www.w3.org/2000/svg" viewBox="0 0 68.81 30.08"><defs><style>.cls-1{fill:#4d4d4d;}</style></defs><title>gnav_facility</title><g id="レイヤー_2" data-name="レイヤー 2"><g id="header_footer" data-name="header/footer"><path class="cls-1" d="M8.44,26.82l1.07-.45q.81,1.53,1.38,2.76l-1.07.48c-.2-.44-.33-.73-.39-.85A24.5,24.5,0,0,1,5.36,30l-.21-1,.75-.17V22.37l-.59.41L5,21.59a15,15,0,0,0,2.53-2.18h1.4a12.36,12.36,0,0,0,1.62,1.4v-.67h1.91v-.95h1.27v.95H16V23h-.67v2.11H12.16v.85h3.49v4h-1.2v-.59H12.16V30H11V23h-.47v-.65l-.13-.1-.1-.09v4.07H7.1v2.29c.78-.22,1.41-.43,1.88-.61Q8.62,27.15,8.44,26.82ZM10,21.87a19.7,19.7,0,0,1-1.77-1.68,15.12,15.12,0,0,1-1.71,1.68H7.66v-1h1.2v1Zm-.84.89H7.1v.79H9.16ZM7.1,25.25H9.16v-.81H7.1Zm4.56-3.38H14.8v-.7H11.66Zm.5,2.29h2V22.88h-2Zm0,4.3h2.29V26.93H12.16Z"/><path class="cls-1" d="M25.53,19.25h1.26v1.27h4.32V28a2.45,2.45,0,0,1-.26,1.44,2.28,2.28,0,0,1-1.41.27l-1.89,0-.05-1.09,1.7.06a1,1,0,0,0,.57-.09,1,1,0,0,0,.08-.54V26.08l-.9.59a13.28,13.28,0,0,0-2.86-2.82,7,7,0,0,1-3,2.75l-.56-.7v3.85H21.29V20.52h4.24Zm-3,6.24a5.8,5.8,0,0,0,2.1-1.62,4.33,4.33,0,0,0,.84-2.27H22.55Zm4-2.7a14.53,14.53,0,0,1,3.32,3.09V21.6h-3.1A5.77,5.77,0,0,1,26.53,22.79Z"/><path class="cls-1" d="M40.57,23.08c0,1.6,0,2.84,0,3.73a12,12,0,0,1-.2,2,1.68,1.68,0,0,1-.34.84.86.86,0,0,1-.55.15,11.46,11.46,0,0,1-1.37-.12V28.55a4,4,0,0,0,.84.11.3.3,0,0,0,.24-.11,1.93,1.93,0,0,0,.15-.57q.06-.45.09-1.35c0-.6,0-1.42,0-2.47h-1A19.41,19.41,0,0,1,38,27.65,9.21,9.21,0,0,1,37.09,30l-.93-.86A8,8,0,0,0,37,26.48a32.64,32.64,0,0,0,.27-4.67h-1V20.73h1.58V19.25h1.24v1.48h1.76v.79a12.14,12.14,0,0,0,1.3-2.4l1.12.26c-.17.47-.28.76-.33.88h4.17v1.06H42.44c-.18.3-.39.63-.65,1h.78v1.36l.91-.24V21.66h1.14v1.47L47,22.52c0,1,0,1.86,0,2.45a6.54,6.54,0,0,1-.15,1.34,1.17,1.17,0,0,1-.25.57.61.61,0,0,1-.41.11L45,27l-.15-1,.64,0a.17.17,0,0,0,.13-.05.59.59,0,0,0,.07-.26,5.67,5.67,0,0,0,0-.61c0-.27,0-.66,0-1.14l-1.12.31v3.52H43.48V24.51l-.91.25v3.55c0,.22.08.35.23.39a10.94,10.94,0,0,0,1.59.06h.53a2,2,0,0,0,.39,0l.3,0a.42.42,0,0,0,.19-.13.47.47,0,0,0,.14-.19c0-.05,0-.15.08-.31a1.62,1.62,0,0,0,.06-.4c0-.11,0-.3,0-.56l1.21.24c0,.33,0,.6-.06.79a4.34,4.34,0,0,1-.11.59,1.92,1.92,0,0,1-.15.45,1,1,0,0,1-.26.3,1,1,0,0,1-.38.21,4.93,4.93,0,0,1-.54.09c-.25,0-.48.05-.72.06h-1l-1.27,0a7.42,7.42,0,0,1-.8-.08.73.73,0,0,1-.45-.2.77.77,0,0,1-.16-.31,1.59,1.59,0,0,1,0-.49V25.07l-.55.15-.18-1.06.73-.19V22.8l-.35.4-1-.64c.18-.2.39-.46.62-.75H38.48c0,.58,0,1,0,1.27Z"/><path class="cls-1" d="M52.11,22.52V21.46h4.46v1.06Zm.32-1.71v-1h3.82v1Zm1.18,8.8v.47H52.43V26.55h3.86v3.06ZM52.52,24.2v-1h3.71v1Zm0,1.68v-1h3.71v1Zm1.09,2.72h1.56V27.54H53.61Zm7.56-8.87v2.82c0,.11,0,.17,0,.18s.09,0,.22,0l.23,0a.28.28,0,0,0,.13-.07c.05,0,.08-.1.1-.22s0-.25,0-.4,0-.38.06-.67v0l1,.14c0,.44,0,.77-.06,1a3,3,0,0,1-.13.62,1.54,1.54,0,0,1-.19.42,1.1,1.1,0,0,1-.36.19,1.82,1.82,0,0,1-.54.1h-.83a1.55,1.55,0,0,1-.77-.12c-.11-.07-.17-.25-.17-.53V20.75H58.72v.06a3.48,3.48,0,0,1-1.62,3.27l-.72-.88a2.56,2.56,0,0,0,.95-1.07,4.87,4.87,0,0,0,.25-1.82v-.58Zm-4,6.35.94-.65A8,8,0,0,0,59.65,27,6.29,6.29,0,0,0,61,25.29h-4.2V24.22h5.54v1.07a7.82,7.82,0,0,1-1.66,2.42A12.29,12.29,0,0,0,63,28.86l-.43,1a11.63,11.63,0,0,1-2.82-1.41,11.69,11.69,0,0,1-2.79,1.41l-.51-1a9.17,9.17,0,0,0,2.31-1.11A9.74,9.74,0,0,1,57.16,26.08Z"/><path class="cls-1" d="M0,.27H5.35v2H2v2H5.35v2H2V11H0Z"/><path class="cls-1" d="M11.34.27h2.08L17.56,11H15.43l-.84-2.21h-4.4L9.32,11H7.18Zm1.05,2.86L11,6.83h2.88Z"/><path class="cls-1" d="M30,2.16,28.59,3.53A4.47,4.47,0,0,0,25.29,2a3.62,3.62,0,0,0-3.66,3.66,3.9,3.9,0,0,0,.47,1.92,3.42,3.42,0,0,0,1.33,1.31,3.8,3.8,0,0,0,1.9.48A4,4,0,0,0,27,9,5.76,5.76,0,0,0,28.59,7.8L30,9.25a7.81,7.81,0,0,1-2.26,1.62,6.14,6.14,0,0,1-2.42.45,5.57,5.57,0,0,1-4.12-1.6,5.53,5.53,0,0,1-1.6-4.08,5.63,5.63,0,0,1,.73-2.86,5.42,5.42,0,0,1,2.09-2A5.85,5.85,0,0,1,25.33,0a6.19,6.19,0,0,1,2.56.56A6.3,6.3,0,0,1,30,2.16Z"/><path class="cls-1" d="M33.15.27h2V11h-2Z"/><path class="cls-1" d="M39.15.27h2.06V9.09h3V11h-5Z"/><path class="cls-1" d="M47.08.27h2V11h-2Z"/><path class="cls-1" d="M52,.27h6v2H56V11H53.88V2.29H52Z"/><path class="cls-1" d="M60.43.27h2.2l2,3.88,2-3.88h2.17L65.66,6.38V11H63.59V6.38Z"/></g></g></svg>