<svg xmlns="http://www.w3.org/2000/svg" viewBox="0 0 108.3 30.02"><defs><style>.cls-1{fill:#4d4d4d;}</style></defs><title>gnav_guestroom</title><g id="レイヤー_2" data-name="レイヤー 2"><g id="header_footer" data-name="header/footer"><path class="cls-1" d="M43.62,29.51V30H42.36V26.54l-1.32.3-.26-1.12a32.5,32.5,0,0,0,4.1-1.07,10.29,10.29,0,0,1-1.63-1.09,14,14,0,0,1-1.81,1l-.53-1a10.69,10.69,0,0,0,3.54-2.45H42.24v1.5H41V20.15h4.52V19h1.3v1.11h4.52v2.48H50.11v-1.5H45.94a7,7,0,0,1-.58.69h4.39v.94a9.72,9.72,0,0,1-2.32,1.88,38.62,38.62,0,0,0,4.26,1.08l-.3,1.09c-.41-.08-.88-.19-1.4-.32V30H48.73v-.51Zm5.11-1V27.1H43.62v1.44Zm-.06-2.4a22.29,22.29,0,0,1-2.48-.86,18.57,18.57,0,0,1-2.34.86Zm-2.53-2a8,8,0,0,0,2-1.38H44.35l-.18.14A7.8,7.8,0,0,0,46.14,24.14Z"/><path class="cls-1" d="M62.43,27.4v1.24H67v1H56.55v-1h4.58V27.4H57.36v-1h3.77V25.21c-1.29.08-2.62.15-4,.19l-.06-1,1.76-.06c.26-.45.52-.94.79-1.46h-2.2v-.45h-.81V20.14h4.52v-1h1.3v1H67v2.29h-.82v.45H64.78q1.16,1.31,1.92,2.34l-1.06.55L65,24.88l-2.54.23V26.4h3.64v1Zm3.28-6.26H57.84v.76h7.87ZM64.23,24l-.93-1.09H60.93c-.24.5-.48,1-.72,1.39Q61.85,24.18,64.23,24Z"/><path class="cls-1" d="M10.43,2,9,3.46A4.27,4.27,0,0,0,5.79,2,3.68,3.68,0,0,0,3.12,3.06,3.48,3.48,0,0,0,2.05,5.63,3.56,3.56,0,0,0,3.16,8.27,3.81,3.81,0,0,0,5.91,9.35a3.48,3.48,0,0,0,1.8-.44,3.16,3.16,0,0,0,1.17-1.4H5.76V5.58h5.42l0,.46a5.27,5.27,0,0,1-.73,2.68,5.11,5.11,0,0,1-1.9,1.93,5.47,5.47,0,0,1-2.73.67,6.1,6.1,0,0,1-3-.73A5.33,5.33,0,0,1,.77,8.51,5.71,5.71,0,0,1,0,5.6,5.43,5.43,0,0,1,1.41,1.88,5.6,5.6,0,0,1,5.78,0,6.6,6.6,0,0,1,8.41.52,6,6,0,0,1,10.43,2Z"/><path class="cls-1" d="M14.49.27h2v7a3.7,3.7,0,0,0,.16,1.27,1.31,1.31,0,0,0,.52.6,1.86,1.86,0,0,0,1.81,0,1.26,1.26,0,0,0,.54-.63A4.75,4.75,0,0,0,19.72,7V.27h2.06V6.69A9.48,9.48,0,0,1,21.6,9a3.24,3.24,0,0,1-.7,1.22,3.18,3.18,0,0,1-1.19.86,4,4,0,0,1-1.57.29,3.79,3.79,0,0,1-2-.54,3.13,3.13,0,0,1-1.24-1.35,7.12,7.12,0,0,1-.37-2.74Z"/><path class="cls-1" d="M25.78.27h5.88v2H27.81v2h3.85v2H27.81V9h3.85v2H25.78Z"/><path class="cls-1" d="M41,1.74,39.48,3.08A2.15,2.15,0,0,0,37.85,2a1,1,0,0,0-.66.22.64.64,0,0,0-.26.49.85.85,0,0,0,.19.51,14.67,14.67,0,0,0,1.5,1.38c.78.66,1.26,1.07,1.42,1.24A4.1,4.1,0,0,1,40.93,7a3,3,0,0,1,.26,1.25,2.87,2.87,0,0,1-.92,2.19,3.31,3.31,0,0,1-2.39.87,3.53,3.53,0,0,1-2-.57A4.42,4.42,0,0,1,34.41,9l1.73-1c.52,1,1.11,1.43,1.79,1.43a1.31,1.31,0,0,0,.89-.31.92.92,0,0,0,.36-.71,1.24,1.24,0,0,0-.28-.73A7.53,7.53,0,0,0,37.71,6.5a12.27,12.27,0,0,1-2.28-2.22,2.83,2.83,0,0,1-.51-1.56A2.59,2.59,0,0,1,35.77.8,3,3,0,0,1,37.88,0a3.33,3.33,0,0,1,1.54.37A5.64,5.64,0,0,1,41,1.74Z"/><path class="cls-1" d="M43.72.27h6v2h-2V11H45.64V2.29H43.72Z"/><path class="cls-1" d="M58.42.27h2.17a7.3,7.3,0,0,1,2.55.32,2.53,2.53,0,0,1,1.21,1.06,3.19,3.19,0,0,1,.46,1.75,3,3,0,0,1-.5,1.77,3,3,0,0,1-1.54,1.08L65.32,11H63.08L60.66,6.48h-.19V11h-2Zm2,4.21h.64a2.54,2.54,0,0,0,1.35-.25,1,1,0,0,0,.37-.86,1,1,0,0,0-.18-.61,1.09,1.09,0,0,0-.49-.38A4,4,0,0,0,61,2.27h-.56Z"/><path class="cls-1" d="M73.4,0a5.34,5.34,0,0,1,3.94,1.66,5.51,5.51,0,0,1,1.64,4,5.45,5.45,0,0,1-1.62,4,5.61,5.61,0,0,1-8,0,5.58,5.58,0,0,1-1.61-4,5.58,5.58,0,0,1,.75-2.84,5.48,5.48,0,0,1,2.06-2A5.47,5.47,0,0,1,73.4,0Zm0,2a3.34,3.34,0,0,0-2.51,1,3.6,3.6,0,0,0-1,2.64,3.47,3.47,0,0,0,1.28,2.83,3.54,3.54,0,0,0,2.29.81A3.33,3.33,0,0,0,75.9,8.28a3.58,3.58,0,0,0,1-2.6,3.6,3.6,0,0,0-1-2.61A3.38,3.38,0,0,0,73.38,2Z"/><path class="cls-1" d="M87.49,0a5.34,5.34,0,0,1,3.93,1.66,5.51,5.51,0,0,1,1.64,4,5.45,5.45,0,0,1-1.62,4,5.61,5.61,0,0,1-8,0,5.58,5.58,0,0,1-1.61-4,5.58,5.58,0,0,1,.75-2.84A5.67,5.67,0,0,1,87.49,0Zm0,2a3.36,3.36,0,0,0-2.51,1,3.6,3.6,0,0,0-1,2.64,3.47,3.47,0,0,0,1.28,2.83,3.54,3.54,0,0,0,2.29.81A3.37,3.37,0,0,0,90,8.28a3.61,3.61,0,0,0,1-2.6,3.6,3.6,0,0,0-1-2.61A3.38,3.38,0,0,0,87.46,2Z"/><path class="cls-1" d="M97.48.27h2L102,7.79,104.5.27h2L108.3,11h-2l-1.16-6.8L102.87,11h-1.8L98.8,4.24,97.61,11h-2Z"/></g></g></svg>