<svg xmlns="http://www.w3.org/2000/svg" viewBox="0 0 100.05 29.52"><defs><style>.cls-1{fill:#4d4d4d;}</style></defs><title>gnav_restaurant</title><g id="レイヤー_2" data-name="レイヤー 2"><g id="header_footer" data-name="header/footer"><path class="cls-1" d="M21.77,23.94l1.08.54a7.74,7.74,0,0,1-2.58,3.21,9.6,9.6,0,0,1-4.11,1.71H14.84V20.1h1.32v8a7.2,7.2,0,0,0,3.29-1.36A7.28,7.28,0,0,0,21.77,23.94Z"/><path class="cls-1" d="M30.23,21.63V20.52h7.14v1.11a12,12,0,0,1-2.17,3.53q1.86,1.75,3.36,3.27l-.88.83Q36,27.51,34.38,26a14.46,14.46,0,0,1-4.81,3.15l-.51-1a13.49,13.49,0,0,0,4.27-2.76A10.28,10.28,0,0,0,36,21.63Z"/><path class="cls-1" d="M47,19.92h1.28v3.35a37.71,37.71,0,0,1,5.44,1.94l-.45,1.08a33.11,33.11,0,0,0-5-1.82v5.05H47Z"/><path class="cls-1" d="M60.44,24.34V23.26h9v1.08a5.76,5.76,0,0,1-2.08,3.5,9.7,9.7,0,0,1-4.63,1.62l-.22-1.06a9,9,0,0,0,3.94-1.35,4.4,4.4,0,0,0,1.76-2.71Zm1-2.92V20.34h7.2v1.08Z"/><path class="cls-1" d="M76.39,21.33l.67-1a35.83,35.83,0,0,1,3.3,2.17l-.7,1C78.6,22.71,77.51,22,76.39,21.33ZM76.57,28A9.15,9.15,0,0,0,81.77,26a8,8,0,0,0,2.58-4.57l1.16.33A8.78,8.78,0,0,1,82.63,27a10.41,10.41,0,0,1-5.9,2.17Z"/><path class="cls-1" d="M0,.27H2.17A7.2,7.2,0,0,1,4.71.59,2.51,2.51,0,0,1,5.93,1.65,3.19,3.19,0,0,1,6.39,3.4a3,3,0,0,1-.5,1.77A3.08,3.08,0,0,1,4.35,6.25L6.9,11H4.66L2.24,6.48H2.05V11H0ZM2.05,4.48h.64A2.54,2.54,0,0,0,4,4.23a1,1,0,0,0,.37-.86,1,1,0,0,0-.18-.61,1.15,1.15,0,0,0-.49-.38,4,4,0,0,0-1.13-.11H2.05Z"/><path class="cls-1" d="M10.09.27H16v2H12.12v2H16v2H12.12V9H16v2H10.09Z"/><path class="cls-1" d="M25.31,1.74,23.79,3.08A2.15,2.15,0,0,0,22.16,2a1,1,0,0,0-.66.22.64.64,0,0,0-.26.49.85.85,0,0,0,.19.51,13.57,13.57,0,0,0,1.5,1.38c.78.66,1.26,1.07,1.42,1.24A4.1,4.1,0,0,1,25.24,7a3,3,0,0,1,.26,1.25,2.87,2.87,0,0,1-.92,2.19,3.33,3.33,0,0,1-2.39.87,3.51,3.51,0,0,1-2-.57A4.42,4.42,0,0,1,18.72,9l1.73-1c.52,1,1.11,1.43,1.79,1.43a1.31,1.31,0,0,0,.89-.31.92.92,0,0,0,.36-.71,1.18,1.18,0,0,0-.28-.73A7.53,7.53,0,0,0,22,6.5a12.27,12.27,0,0,1-2.28-2.22,2.83,2.83,0,0,1-.51-1.56A2.55,2.55,0,0,1,20.08.8,3,3,0,0,1,22.19,0a3.33,3.33,0,0,1,1.54.37A5.64,5.64,0,0,1,25.31,1.74Z"/><path class="cls-1" d="M28,.27h6v2H32V11H30V2.29H28Z"/><path class="cls-1" d="M39.61.27h2.08L45.84,11H43.71l-.85-2.21H38.47L37.59,11H35.46Zm1.06,2.86-1.45,3.7H42.1Z"/><path class="cls-1" d="M48.38.27h2.06v7a3.47,3.47,0,0,0,.16,1.27,1.26,1.26,0,0,0,.52.6,1.61,1.61,0,0,0,.87.22,1.69,1.69,0,0,0,.94-.25,1.26,1.26,0,0,0,.54-.63A4.75,4.75,0,0,0,53.62,7V.27h2.06V6.69A9.48,9.48,0,0,1,55.5,9a3.27,3.27,0,0,1-.71,1.22A3.11,3.11,0,0,1,53.6,11a4,4,0,0,1-1.56.29,3.79,3.79,0,0,1-2-.54,3.07,3.07,0,0,1-1.24-1.35,7.08,7.08,0,0,1-.38-2.74Z"/><path class="cls-1" d="M59.74.27h2.17a7.24,7.24,0,0,1,2.54.32,2.6,2.6,0,0,1,1.22,1.06,3.19,3.19,0,0,1,.46,1.75,2.94,2.94,0,0,1-.51,1.77,3,3,0,0,1-1.54,1.08L66.64,11H64.4L62,6.48h-.18V11h-2Zm2,4.21h.64a2.56,2.56,0,0,0,1.35-.25,1,1,0,0,0,.36-.86,1,1,0,0,0-.67-1,3.92,3.92,0,0,0-1.12-.11h-.56Z"/><path class="cls-1" d="M73.37.27h2.08L79.6,11H77.47l-.85-2.21H72.23L71.35,11H69.22Zm1.06,2.86L73,6.83h2.88Z"/><path class="cls-1" d="M82.58.27h2l4.61,7.09V.27h2V11h-2L84.64,4V11H82.58Z"/><path class="cls-1" d="M94.09.27h6v2h-2V11H96V2.29H94.09Z"/></g></g></svg>