<svg xmlns="http://www.w3.org/2000/svg" viewBox="0 0 77.82 29.99"><defs><style>.cls-1{fill:#fff;}</style></defs><title>gnav_contact_o</title><g id="レイヤー_2" data-name="レイヤー 2"><g id="header_footer" data-name="header/footer"><path class="cls-1" d="M21,21l.08,1.08c-1,.12-1.94.2-2.85.26v.6c0,.26,0,.46,0,.6s0,.21,0,.37v.37A10.28,10.28,0,0,1,20,24.13a3.63,3.63,0,0,1,2.42.74,2.43,2.43,0,0,1,.88,1.95,2.58,2.58,0,0,1-2.76,2.76,4,4,0,0,1-1.34-.21l.19-1.05a3.56,3.56,0,0,0,1.13.18,1.51,1.51,0,0,0,1.14-.43,1.61,1.61,0,0,0,.42-1.19q0-1.65-2.28-1.65a7.63,7.63,0,0,0-1.5.15c0,.9,0,1.58,0,2A2.46,2.46,0,0,1,17.92,29a1.66,1.66,0,0,1-1.29.45,3,3,0,0,1-1.87-.58A1.66,1.66,0,0,1,14,27.54a2.35,2.35,0,0,1,.83-1.65A5.83,5.83,0,0,1,17,24.6c0-.12,0-.29,0-.52s0-.41,0-.53,0-.32,0-.58,0-.45,0-.57c-.71,0-1.52,0-2.44,0V21.36c.9,0,1.71,0,2.41,0,0-.41,0-1,0-1.88h1.26c0,.82,0,1.43,0,1.82C19.07,21.2,20,21.12,21,21Zm-4,4.78a4.27,4.27,0,0,0-1.3.82,1.28,1.28,0,0,0-.49.88.77.77,0,0,0,.36.63,1.36,1.36,0,0,0,.84.27c.24,0,.4-.05.48-.17a1.62,1.62,0,0,0,.12-.79C17.05,26.69,17.05,26.14,17,25.78Zm4.43-4.18.86-.74c.69.73,1.3,1.45,1.85,2.15l-.9.7C22.78,23.06,22.18,22.36,21.47,21.6Z"/><path class="cls-1" d="M27,29.93V19.67h4.71v4.41H28.2v5.85Zm1.24-8.41h2.27v-.85H28.2Zm0,.83v.85h2.27v-.85Zm2.53,6.19v.6H29.52V24.87h5.06v3.67Zm2.64-2.7H30.73v1.74h2.64Zm2.09,4-1.53-.06,0-1,1.37.06c.32,0,.5,0,.56-.09a.94.94,0,0,0,.09-.54V24.08H32.32V19.67h4.82v8.5a2.35,2.35,0,0,1-.27,1.43A2.28,2.28,0,0,1,35.46,29.87Zm.44-8.35v-.85H33.51v.85Zm0,.83H33.51v.85H35.9Z"/><path class="cls-1" d="M39.88,22.76a21.24,21.24,0,0,0,4.59-3.35H46a21.31,21.31,0,0,0,4.6,3.35l-.54,1c-.54-.29-1.05-.59-1.55-.9v.83H42V22.9c-.49.31-1,.61-1.54.9ZM42.4,29.4V30H41.13V25h8.24v5H48.11V29.4Zm-.14-6.7h6a20.5,20.5,0,0,1-3-2.47A20.5,20.5,0,0,1,42.26,22.7Zm5.85,5.7V26H42.4V28.4Z"/><path class="cls-1" d="M60.31,19.65h1.2c0,.53,0,1.29,0,2.28l2-.21.11,1c-.48.06-1.19.14-2.12.23v1.9c0,1-.44,1.5-1.32,1.5a5.84,5.84,0,0,1-1.07-.14,12.64,12.64,0,0,1-1.35-.34l.31-1.1a6.9,6.9,0,0,0,1.84.41.39.39,0,0,0,.31-.11,1.06,1.06,0,0,0,.08-.52V23.1c-1,.08-2.21.17-3.74.24q0,1.64,0,3.24a4.57,4.57,0,0,0,0,.74,1.47,1.47,0,0,0,.17.47.64.64,0,0,0,.41.28,3,3,0,0,0,.66.12,9.6,9.6,0,0,0,1,0A23.5,23.5,0,0,0,62.25,28l.11,1.1a26,26,0,0,1-3.49.24,11.63,11.63,0,0,1-1.76-.11A2.43,2.43,0,0,1,56,28.77a1.56,1.56,0,0,1-.55-.84,4.88,4.88,0,0,1-.15-1.35c0-1,0-2.06,0-3.19-.72,0-1.37,0-1.95,0V22.38l1.92,0c0-.47,0-1.21-.06-2.21h1.26c.05,1.39.07,2.11.07,2.16,1.53-.07,2.78-.15,3.76-.24C60.3,20.72,60.3,19.92,60.31,19.65Z"/><path class="cls-1" d="M10.44,2.16,9,3.53A4.43,4.43,0,0,0,5.71,2,3.55,3.55,0,0,0,3.11,3a3.51,3.51,0,0,0-1.06,2.6,3.9,3.9,0,0,0,.47,1.92A3.39,3.39,0,0,0,3.84,8.87a3.87,3.87,0,0,0,1.91.48A4,4,0,0,0,7.38,9,5.73,5.73,0,0,0,9,7.8l1.39,1.45a7.79,7.79,0,0,1-2.25,1.62,6.19,6.19,0,0,1-2.43.45A5.56,5.56,0,0,1,1.6,9.72,5.49,5.49,0,0,1,0,5.64,5.53,5.53,0,0,1,.73,2.78a5.35,5.35,0,0,1,2.09-2A5.84,5.84,0,0,1,5.74,0,6.2,6.2,0,0,1,8.31.56,6.3,6.3,0,0,1,10.44,2.16Z"/><path class="cls-1" d="M18.48,0a5.34,5.34,0,0,1,3.93,1.66,5.48,5.48,0,0,1,1.65,4,5.46,5.46,0,0,1-1.63,4,5.34,5.34,0,0,1-3.94,1.64,5.35,5.35,0,0,1-4-1.68,5.57,5.57,0,0,1-1.6-4,5.68,5.68,0,0,1,.74-2.84,5.55,5.55,0,0,1,2.06-2A5.48,5.48,0,0,1,18.48,0Zm0,2a3.36,3.36,0,0,0-2.52,1,3.6,3.6,0,0,0-1,2.64,3.45,3.45,0,0,0,1.29,2.83,3.5,3.5,0,0,0,2.28.81A3.37,3.37,0,0,0,21,8.28a3.61,3.61,0,0,0,1-2.6,3.6,3.6,0,0,0-1-2.61A3.37,3.37,0,0,0,18.46,2Z"/><path class="cls-1" d="M27.54.27h2l4.61,7.09V.27h2.05V11h-2L29.59,4V11H27.54Z"/><path class="cls-1" d="M39.05.27h6v2H43V11H41V2.29H39.05Z"/><path class="cls-1" d="M50.63.27h2.08L56.86,11H54.72l-.84-2.21H49.49L48.61,11H46.48Zm1,2.86-1.44,3.7h2.88Z"/><path class="cls-1" d="M69.31,2.16,67.88,3.53A4.47,4.47,0,0,0,64.59,2,3.58,3.58,0,0,0,62,3a3.54,3.54,0,0,0-1,2.6,3.9,3.9,0,0,0,.46,1.92,3.49,3.49,0,0,0,1.33,1.31,3.8,3.8,0,0,0,1.9.48A3.93,3.93,0,0,0,66.25,9,5.62,5.62,0,0,0,67.88,7.8l1.39,1.45A7.81,7.81,0,0,1,67,10.87a6.14,6.14,0,0,1-2.42.45,5.48,5.48,0,0,1-5.71-5.68,5.63,5.63,0,0,1,.72-2.86,5.49,5.49,0,0,1,2.09-2A5.87,5.87,0,0,1,64.62,0a6.21,6.21,0,0,1,4.69,2.16Z"/><path class="cls-1" d="M71.87.27h5.95v2h-2V11H73.78V2.29H71.87Z"/></g></g></svg>