<?xml version="1.0" encoding="utf-8"?>
<!-- Generator: Adobe Illustrator 22.1.0, SVG Export Plug-In . SVG Version: 6.00 Build 0)  -->
<svg version="1.1" id="レイヤー_1" xmlns="http://www.w3.org/2000/svg" xmlns:xlink="http://www.w3.org/1999/xlink" x="0px"
	 y="0px" width="102.2px" height="29.8px" viewBox="0 0 102.2 29.8" style="enable-background:new 0 0 102.2 29.8;"
	 xml:space="preserve">
<style type="text/css">
	.st0{fill:#FC531F;}
</style>
<title>gnav_restaurant_o</title>
<g>
	<g>
		<path class="st0" d="M7,21l0.1,1.1c-1,0.1-1.9,0.2-2.9,0.3c0,0.1,0,0.3,0,0.6c0,0.3,0,0.5,0,0.6c0,0.1,0,0.2,0,0.4
			c0,0.2,0,0.3,0,0.4c0.6-0.1,1.2-0.2,1.7-0.2c1,0,1.8,0.2,2.4,0.7s0.9,1.1,0.9,2c0,0.8-0.3,1.5-0.8,2c-0.5,0.5-1.2,0.8-2,0.8
			c-0.5,0-1-0.1-1.3-0.2l0.2-1c0.4,0.1,0.7,0.2,1.1,0.2c0.5,0,0.9-0.1,1.1-0.4c0.3-0.3,0.4-0.7,0.4-1.2c0-1.1-0.8-1.7-2.3-1.7
			c-0.5,0-1,0.1-1.5,0.2c0,0.9,0,1.6,0,2c0,0.8-0.1,1.3-0.4,1.6c-0.3,0.3-0.7,0.5-1.3,0.5c-0.7,0-1.3-0.2-1.9-0.6
			C0.3,28.5,0,28,0,27.5c0-0.6,0.3-1.1,0.8-1.6c0.6-0.5,1.3-1,2.2-1.3c0-0.1,0-0.3,0-0.5s0-0.4,0-0.5c0-0.1,0-0.3,0-0.6
			c0-0.3,0-0.4,0-0.6c-0.7,0-1.5,0-2.4,0v-1.1c0.9,0,1.7,0,2.4,0c0-0.4,0-1,0-1.9h1.3c0,0.8,0,1.4,0,1.8C5.1,21.2,6,21.1,7,21z
			 M3,25.8c-0.5,0.2-1,0.5-1.3,0.8c-0.3,0.3-0.5,0.6-0.5,0.9c0,0.2,0.1,0.5,0.4,0.6c0.2,0.2,0.5,0.3,0.8,0.3c0.2,0,0.4-0.1,0.5-0.2
			c0.1-0.1,0.1-0.4,0.1-0.8C3.1,26.7,3.1,26.1,3,25.8z M7.5,21.6l0.9-0.7c0.7,0.7,1.3,1.4,1.8,2.1l-0.9,0.7
			C8.8,23.1,8.2,22.4,7.5,21.6z"/>
		<path class="st0" d="M19.1,26.6L19.1,26.6c-0.4,0.4-0.9,0.6-1.6,0.6c-0.7,0-1.2-0.2-1.7-0.7c-0.4-0.4-0.7-1-0.7-1.7
			c0-0.7,0.2-1.2,0.7-1.6c0.4-0.4,1-0.6,1.7-0.6c0.5,0,0.9,0.1,1.3,0.3l0,0c0-0.1,0-0.5,0-1c-2,0.1-4,0.1-5.8,0.1V21
			c1.8,0,3.7,0,5.7-0.1c0-1,0-1.6,0-1.6h1.2c0,0.3,0,0.8,0,1.5c1.5-0.1,2.6-0.1,3.3-0.2l0.1,1c-0.9,0.1-2,0.2-3.3,0.2
			c0,1.3,0.1,2,0.1,2.2c0.2,0.5,0.3,1.1,0.3,1.8c0,2.3-1.5,3.6-4.4,3.8l-0.2-1.2c1.8-0.1,2.9-0.7,3.3-1.6C19,27,19,26.8,19.1,26.6z
			 M16.8,24c-0.2,0.2-0.4,0.5-0.4,0.9c0,0.3,0.1,0.6,0.4,0.9s0.5,0.4,0.9,0.4c0.3,0,0.6-0.1,0.9-0.4s0.4-0.5,0.4-0.9
			c0-0.3-0.1-0.6-0.4-0.9s-0.5-0.4-0.9-0.4C17.3,23.6,17,23.8,16.8,24z"/>
		<path class="st0" d="M32.3,26.6L32.3,26.6c-0.4,0.4-0.9,0.6-1.6,0.6c-0.7,0-1.2-0.2-1.7-0.7c-0.4-0.4-0.7-1-0.7-1.7
			c0-0.7,0.2-1.2,0.7-1.6c0.4-0.4,1-0.6,1.7-0.6c0.5,0,0.9,0.1,1.3,0.3l0,0c0-0.1,0-0.5,0-1c-2,0.1-4,0.1-5.8,0.1V21
			c1.8,0,3.7,0,5.7-0.1c0-1,0-1.6,0-1.6h1.2c0,0.3,0,0.8,0,1.5c1.5-0.1,2.6-0.1,3.3-0.2l0.1,1c-0.9,0.1-2,0.2-3.3,0.2
			c0,1.3,0.1,2,0.1,2.2c0.2,0.5,0.3,1.1,0.3,1.8c0,2.3-1.5,3.6-4.4,3.8l-0.2-1.2c1.8-0.1,2.9-0.7,3.3-1.6
			C32.2,27,32.2,26.8,32.3,26.6z M30,24c-0.2,0.2-0.4,0.5-0.4,0.9c0,0.3,0.1,0.6,0.4,0.9s0.5,0.4,0.9,0.4s0.6-0.1,0.9-0.4
			s0.4-0.5,0.4-0.9c0-0.3-0.1-0.6-0.4-0.9s-0.5-0.4-0.9-0.4S30.2,23.8,30,24z"/>
		<path class="st0" d="M40.7,20.2l1.1-0.3c0.2,0.9,0.4,1.5,0.5,2c0.8-0.4,1.7-0.6,2.7-0.6c0.2,0,0.4,0,0.6,0
			c0.2-0.6,0.3-1.2,0.5-1.9l1.2,0.2c-0.2,0.7-0.3,1.4-0.5,2c0.8,0.3,1.5,0.8,2,1.4c0.5,0.7,0.7,1.5,0.7,2.4c0,1.1-0.4,2-1.1,2.7
			c-0.7,0.7-1.8,1.2-3.1,1.4L45,28.4c1-0.2,1.8-0.5,2.4-1c0.6-0.5,0.9-1.2,0.9-2c0-0.7-0.2-1.2-0.5-1.7s-0.8-0.8-1.3-1
			c-0.7,2-1.4,3.5-2.4,4.5c-0.9,1.1-1.8,1.6-2.7,1.6c-0.6,0-1-0.2-1.4-0.7c-0.4-0.5-0.6-1.1-0.6-2c0-0.7,0.2-1.4,0.5-2
			s0.8-1.1,1.4-1.6C41.1,21.7,40.9,20.9,40.7,20.2z M42.7,27c-0.4-1.2-0.8-2.2-1.1-3.3c-0.7,0.7-1,1.5-1,2.4c0,0.5,0.1,0.9,0.3,1.1
			c0.2,0.3,0.4,0.4,0.6,0.4C41.9,27.7,42.3,27.4,42.7,27z M43.6,26c0.6-0.9,1.2-2.1,1.7-3.5c0,0-0.1,0-0.1,0c-0.1,0-0.1,0-0.1,0
			c-0.9,0-1.7,0.2-2.4,0.6C42.9,24.1,43.2,25.1,43.6,26z"/>
		<path class="st0" d="M55.4,24.2c-0.6,1.5-1.3,2.8-1.9,4l-1.1-0.5c0.6-1.2,1.3-2.5,1.9-3.9L55.4,24.2z M52.7,21.5H57v-1.9h1.3v1.9
			h2.2c-0.2-0.3-0.3-0.7-0.3-1c0-0.5,0.2-0.9,0.5-1.2s0.7-0.5,1.2-0.5c0.5,0,0.9,0.2,1.2,0.5c0.3,0.3,0.5,0.7,0.5,1.2
			c0,0.4-0.1,0.7-0.3,1c-0.2,0.3-0.5,0.5-0.9,0.6v0.5h-4v5c0,0.8-0.1,1.3-0.3,1.4c-0.2,0.2-0.7,0.3-1.4,0.3c-0.5,0-1.1-0.1-1.7-0.2
			l0.1-1.1c0.6,0.1,1.1,0.1,1.5,0.1c0.3,0,0.4,0,0.5-0.1C57,28.1,57,28,57,27.7v-5h-4.3V21.5z M59.7,24.2l1.1-0.5
			c0.7,1.3,1.3,2.7,1.9,4.1l-1.1,0.5C61.1,27,60.5,25.7,59.7,24.2z M62.4,21.1c0.2-0.2,0.2-0.3,0.2-0.6s-0.1-0.4-0.2-0.6
			c-0.2-0.2-0.3-0.2-0.6-0.2c-0.2,0-0.4,0.1-0.6,0.2s-0.2,0.3-0.2,0.6s0.1,0.4,0.2,0.6c0.2,0.2,0.3,0.2,0.6,0.2
			C62.1,21.3,62.3,21.2,62.4,21.1z"/>
		<path class="st0" d="M66.1,24.8c1.6-0.4,3.2-0.9,4.6-1.8s2.7-1.8,3.8-3l0.9,0.8c-1,1.1-2.1,2-3.4,2.8v5.7h-1.3v-5
			c-1.4,0.7-2.9,1.2-4.4,1.6L66.1,24.8z"/>
		<path class="st0" d="M79.8,21.3l0.7-1c1.1,0.6,2.2,1.3,3.3,2.2l-0.7,1C82,22.7,80.9,22,79.8,21.3z M80,28c2.2-0.2,3.9-0.8,5.2-1.9
			c1.3-1.1,2.1-2.6,2.6-4.6l1.2,0.3c-0.4,2.2-1.4,3.9-2.9,5.2c-1.5,1.2-3.4,2-5.9,2.2L80,28z"/>
		<path class="st0" d="M94.8,19.9h1.3v3.3c1.9,0.5,3.7,1.2,5.4,1.9l-0.4,1.1c-1.6-0.7-3.3-1.3-5-1.8v5.1h-1.3V19.9z"/>
	</g>
	<g>
		<path class="st0" d="M0.5,0.3h2.2c1.2,0,2,0.1,2.5,0.3c0.5,0.2,0.9,0.6,1.2,1.1c0.3,0.5,0.5,1.1,0.5,1.8c0,0.7-0.2,1.3-0.5,1.8
			C6.1,5.7,5.6,6,4.9,6.3L7.4,11H5.2L2.8,6.5H2.6V11H0.5V0.3z M2.6,4.5h0.6c0.7,0,1.1-0.1,1.3-0.3s0.4-0.5,0.4-0.9
			c0-0.2-0.1-0.4-0.2-0.6S4.5,2.5,4.3,2.4C4.1,2.3,3.7,2.3,3.1,2.3H2.6V4.5z"/>
		<path class="st0" d="M9.9,0.3h5.9v2h-3.8v1.9h3.8v2h-3.8V9h3.8v2H9.9V0.3z"/>
		<path class="st0" d="M28.5,2.2l-1.4,1.4c-1-1-2.1-1.5-3.3-1.5c-1,0-1.9,0.4-2.6,1.1c-0.7,0.7-1.1,1.6-1.1,2.6
			c0,0.7,0.2,1.4,0.5,1.9c0.3,0.6,0.8,1,1.3,1.3c0.6,0.3,1.2,0.5,1.9,0.5c0.6,0,1.1-0.1,1.6-0.3c0.5-0.2,1-0.6,1.6-1.2l1.4,1.5
			c-0.8,0.8-1.5,1.3-2.3,1.6s-1.5,0.5-2.4,0.5c-1.7,0-3-0.5-4.1-1.6c-1.1-1.1-1.6-2.4-1.6-4.1c0-1.1,0.2-2,0.7-2.9
			c0.5-0.8,1.2-1.5,2.1-2S22.8,0,23.8,0c0.9,0,1.7,0.2,2.6,0.6S27.9,1.5,28.5,2.2z"/>
		<path class="st0" d="M35.8,0c1.5,0,2.8,0.6,3.9,1.7c1.1,1.1,1.6,2.4,1.6,4c0,1.6-0.5,2.9-1.6,4c-1.1,1.1-2.4,1.6-3.9,1.6
			c-1.6,0-3-0.6-4-1.7c-1.1-1.1-1.6-2.4-1.6-4c0-1,0.2-2,0.7-2.8s1.2-1.5,2.1-2.1C33.8,0.3,34.8,0,35.8,0z M35.8,2
			c-1,0-1.8,0.3-2.5,1s-1,1.6-1,2.6c0,1.2,0.4,2.1,1.3,2.8c0.7,0.5,1.4,0.8,2.3,0.8c1,0,1.8-0.4,2.5-1.1c0.7-0.7,1-1.6,1-2.6
			c0-1-0.3-1.9-1-2.6C37.6,2.4,36.8,2,35.8,2z"/>
		<path class="st0" d="M45,0.3h2l2.5,7.5L52,0.3h2L55.9,11h-2l-1.2-6.8L50.4,11h-1.8l-2.3-6.8L45.2,11h-2L45,0.3z"/>
		<path class="st0" d="M59.6,0.3h2l2.5,7.5l2.5-7.5h2L70.4,11h-2l-1.2-6.8L65,11h-1.8l-2.3-6.8L59.7,11h-2L59.6,0.3z"/>
		<path class="st0" d="M72.9,0.3h5.9v2H75v1.9h3.8v2H75V9h3.8v2h-5.9V0.3z"/>
		<path class="st0" d="M81.8,0.3h2l4.6,7.1V0.3h2.1V11h-2L83.8,4V11h-2.1V0.3z"/>
		<path class="st0" d="M93.7,0.3h2.4c1.6,0,2.7,0.2,3.5,0.6c0.8,0.4,1.4,1,1.9,1.9c0.5,0.9,0.7,1.9,0.7,3.1c0,0.8-0.1,1.6-0.4,2.3
			c-0.3,0.7-0.7,1.3-1.1,1.7s-1,0.8-1.6,1S97.6,11,96.2,11h-2.5V0.3z M95.7,2.2V9h1c0.9,0,1.6-0.1,2-0.3c0.4-0.2,0.8-0.6,1-1.1
			c0.3-0.5,0.4-1.1,0.4-1.9c0-1.1-0.3-2-1-2.7c-0.6-0.6-1.5-0.9-2.8-0.9H95.7z"/>
	</g>
</g>
</svg>
