<svg xmlns="http://www.w3.org/2000/svg" viewBox="0 0 131.49 29.86"><defs><style>.cls-1{fill:#4d4d4d;}</style></defs><title>gnav_gallery</title><g id="レイヤー_2" data-name="レイヤー 2"><g id="header_footer" data-name="header/footer"><path class="cls-1" d="M6.5,21.63V20.52h8.58v1.11a8,8,0,0,1-2.12,5A9.31,9.31,0,0,1,7.71,29.1L7.41,28A8.47,8.47,0,0,0,12,25.86a6.58,6.58,0,0,0,1.82-4.23Z"/><path class="cls-1" d="M22.59,23h4.57V21.57h1.17V23h2v1h-2V27.8a1.93,1.93,0,0,1-.26,1.26c-.16.17-.58.25-1.26.25a13.14,13.14,0,0,1-1.61-.12l.08-1a11.26,11.26,0,0,0,1.41.11.36.36,0,0,0,.47-.47V25.25a22.24,22.24,0,0,1-4,3l-.56-.88A19.26,19.26,0,0,0,26.93,24H22.59Z"/><path class="cls-1" d="M39.5,19.92h1.28v3.35a37.71,37.71,0,0,1,5.44,1.94l-.45,1.08a33.11,33.11,0,0,0-5-1.82v5.05H39.5Z"/><path class="cls-1" d="M56.41,19.9l1.26-.07.16,2.06,3.88-.26.08,1.1L57.93,23l.2,2.6,4.12-.3.08,1.12-4.11.29.25,3.08-1.26.07L57,26.8l-4.33.31L52.54,26l4.33-.31-.21-2.62-3.49.24-.09-1.1L56.57,22Zm3.28-.36.89-.46c.34.58.66,1.17,1,1.78l-.89.44C60.37,20.75,60,20.16,59.69,19.54Zm1.67-.24.91-.46c.38.65.71,1.26,1,1.82l-.91.44Q62,20.41,61.36,19.3Z"/><path class="cls-1" d="M70.9,22l1.15-.22.38,1.79,4.64-.89.19,1a6.12,6.12,0,0,1-.79,1.76A7,7,0,0,1,75.2,27l-.87-.76A7.19,7.19,0,0,0,76,23.92l-3.34.64,1,4.83-1.16.22-1-4.82-2.33.44L69,24.18l2.3-.44Z"/><path class="cls-1" d="M84.17,24.34V23.26h9v1.08a5.76,5.76,0,0,1-2.08,3.5,9.7,9.7,0,0,1-4.63,1.62l-.22-1.06a9,9,0,0,0,3.94-1.35A4.4,4.4,0,0,0,92,24.34Zm1-2.92V20.34h7.2v1.08Z"/><path class="cls-1" d="M101,25.14v-5h1.26v5Zm5.49-5h1.29v3.75a5.49,5.49,0,0,1-1.28,4,7,7,0,0,1-4.29,1.64L102,28.43a6.3,6.3,0,0,0,3.56-1.32,4.44,4.44,0,0,0,.95-3.2Z"/><path class="cls-1" d="M115.22,25.35V24.1h9.48v1.25Z"/><path class="cls-1" d="M0,.27H2.18A7.07,7.07,0,0,1,4.72.6,2.57,2.57,0,0,1,6,1.65,3.28,3.28,0,0,1,6.4,3.4a2.92,2.92,0,0,1-.59,1.87,3,3,0,0,1-1.6,1,8.7,8.7,0,0,1-2.16.17V11H0ZM2.05,4.48H2.7a3.3,3.3,0,0,0,1.07-.11A1,1,0,0,0,4.25,4a1.13,1.13,0,0,0,.17-.62,1,1,0,0,0-.49-.91,2.77,2.77,0,0,0-1.3-.21H2.05Z"/><path class="cls-1" d="M9.59.27h2.08V4.34h3.6V.27h2.07V11H15.27V6.32h-3.6V11H9.59Z"/><path class="cls-1" d="M26.44,0a5.34,5.34,0,0,1,3.94,1.66,5.51,5.51,0,0,1,1.64,4,5.45,5.45,0,0,1-1.62,4,5.61,5.61,0,0,1-8,0,5.58,5.58,0,0,1-1.61-4,5.58,5.58,0,0,1,.75-2.84,5.48,5.48,0,0,1,2.06-2A5.47,5.47,0,0,1,26.44,0Zm0,2a3.34,3.34,0,0,0-2.51,1,3.6,3.6,0,0,0-1,2.64,3.45,3.45,0,0,0,1.28,2.83,3.52,3.52,0,0,0,2.29.81,3.33,3.33,0,0,0,2.48-1.05,3.58,3.58,0,0,0,1-2.6,3.6,3.6,0,0,0-1-2.61A3.38,3.38,0,0,0,26.42,2Z"/><path class="cls-1" d="M34.16.27h6v2h-2V11H36.08V2.29H34.16Z"/><path class="cls-1" d="M47.89,0a5.34,5.34,0,0,1,3.93,1.66,5.48,5.48,0,0,1,1.65,4,5.42,5.42,0,0,1-1.63,4,5.61,5.61,0,0,1-8,0,5.57,5.57,0,0,1-1.6-4A5.58,5.58,0,0,1,43,2.81,5.64,5.64,0,0,1,47.89,0Zm0,2a3.36,3.36,0,0,0-2.52,1,3.6,3.6,0,0,0-1,2.64,3.45,3.45,0,0,0,1.29,2.83,3.5,3.5,0,0,0,2.28.81,3.35,3.35,0,0,0,2.49-1.05,3.62,3.62,0,0,0,1-2.6,3.61,3.61,0,0,0-1-2.61A3.37,3.37,0,0,0,47.87,2Z"/><path class="cls-1" d="M72.54,2,71.1,3.46A4.25,4.25,0,0,0,67.9,2a3.64,3.64,0,0,0-2.66,1.05,3.45,3.45,0,0,0-1.08,2.57,3.57,3.57,0,0,0,1.12,2.64A3.79,3.79,0,0,0,68,9.35a3.44,3.44,0,0,0,1.79-.44A3.18,3.18,0,0,0,71,7.51H67.88V5.58H73.3V6a5.27,5.27,0,0,1-.73,2.68,5.11,5.11,0,0,1-1.9,1.93,5.41,5.41,0,0,1-2.73.67,6.13,6.13,0,0,1-3-.73,5.33,5.33,0,0,1-2.08-2.08,5.81,5.81,0,0,1-.77-2.91,5.39,5.39,0,0,1,1.42-3.72A5.58,5.58,0,0,1,67.89,0a6.57,6.57,0,0,1,2.63.52A6,6,0,0,1,72.54,2Z"/><path class="cls-1" d="M79.44.27h2.08L85.66,11H83.53l-.84-2.21h-4.4L77.41,11H75.28Zm1,2.86L79,6.83h2.89Z"/><path class="cls-1" d="M88.64.27h2V9.09h3V11h-5Z"/><path class="cls-1" d="M96.64.27h2V9.09h3V11h-5Z"/><path class="cls-1" d="M104.64.27h5.89v2h-3.85v2h3.85v2h-3.85V9h3.85v2h-5.89Z"/><path class="cls-1" d="M114.32.27h2.17A7.3,7.3,0,0,1,119,.59a2.53,2.53,0,0,1,1.21,1.06,3.19,3.19,0,0,1,.46,1.75,2.94,2.94,0,0,1-.51,1.77,3,3,0,0,1-1.53,1.08L121.22,11H119l-2.42-4.56h-.19V11h-2.05Zm2.05,4.21H117a2.54,2.54,0,0,0,1.35-.25,1,1,0,0,0,.37-.86,1,1,0,0,0-.18-.61,1.15,1.15,0,0,0-.49-.38,4,4,0,0,0-1.13-.11h-.56Z"/><path class="cls-1" d="M123.1.27h2.2l2,3.88,2-3.88h2.18l-3.16,6.11V11h-2.06V6.38Z"/></g></g></svg>