<svg xmlns="http://www.w3.org/2000/svg" viewBox="0 0 63.73 29.34"><defs><style>.cls-1{fill:#4d4d4d;}</style></defs><title>gnav_access</title><g id="レイヤー_2" data-name="レイヤー 2"><g id="header_footer" data-name="header/footer"><path class="cls-1" d="M7.71,21.6V20.5H17v1.1a6.49,6.49,0,0,1-1.17,2.09A8,8,0,0,1,14,25.35l-.74-1a6.25,6.25,0,0,0,2.45-2.76Zm.67,6.7A5.49,5.49,0,0,0,10,27.1a3.77,3.77,0,0,0,.76-1.61A13,13,0,0,0,11,22.75h1.26a13.2,13.2,0,0,1-.3,3.14,4.52,4.52,0,0,1-1,1.94,7,7,0,0,1-2,1.44Z"/><path class="cls-1" d="M21.8,29.34l-.23-1.1a8,8,0,0,0,4.71-1.8,6.46,6.46,0,0,0,1.86-4.23H24.07a9.69,9.69,0,0,1-2.33,3.28l-.83-.75a8.67,8.67,0,0,0,2.56-5l1.2.09a9.61,9.61,0,0,1-.23,1.31h5v1.08a7.74,7.74,0,0,1-2.17,5A9.3,9.3,0,0,1,21.8,29.34Z"/><path class="cls-1" d="M43.42,28.75a24,24,0,0,1-4.41.41,3.33,3.33,0,0,1-2.23-.52,3.32,3.32,0,0,1-.53-2.24v-3l-2.69.42-.17-1.11,2.86-.45V19.75h1.26V22l6-1,.16,1.11a7,7,0,0,1-1.15,2.13A7.67,7.67,0,0,1,40.71,26l-.78-.9a7.83,7.83,0,0,0,2.43-2.73l-4.85.78v3.3a2,2,0,0,0,.28,1.31,1.8,1.8,0,0,0,1.24.29,21.53,21.53,0,0,0,4.29-.42Z"/><path class="cls-1" d="M48.25,21.63V20.52h7.14v1.11a12,12,0,0,1-2.17,3.53q1.86,1.75,3.36,3.27l-.88.83Q54,27.51,52.4,26a14.46,14.46,0,0,1-4.81,3.15l-.51-1a13.49,13.49,0,0,0,4.27-2.76A10.28,10.28,0,0,0,54,21.63Z"/><path class="cls-1" d="M4.15.27H6.23L10.38,11H8.25L7.4,8.83H3L2.13,11H0ZM5.21,3.13,3.76,6.83H6.64Z"/><path class="cls-1" d="M22.84,2.16,21.4,3.53A4.43,4.43,0,0,0,18.11,2,3.55,3.55,0,0,0,15.51,3a3.51,3.51,0,0,0-1.06,2.6,3.9,3.9,0,0,0,.47,1.92,3.39,3.39,0,0,0,1.32,1.31,3.83,3.83,0,0,0,1.9.48A4,4,0,0,0,19.78,9,5.73,5.73,0,0,0,21.4,7.8l1.39,1.45a7.79,7.79,0,0,1-2.25,1.62,6.19,6.19,0,0,1-2.43.45A5.56,5.56,0,0,1,14,9.72a5.49,5.49,0,0,1-1.6-4.08,5.53,5.53,0,0,1,.73-2.86,5.39,5.39,0,0,1,2.08-2A5.9,5.9,0,0,1,18.14,0a6.23,6.23,0,0,1,2.57.56A6.3,6.3,0,0,1,22.84,2.16Z"/><path class="cls-1" d="M35.69,2.16,34.26,3.53A4.47,4.47,0,0,0,31,2,3.62,3.62,0,0,0,27.3,5.64a3.9,3.9,0,0,0,.47,1.92A3.49,3.49,0,0,0,29.1,8.87a3.8,3.8,0,0,0,1.9.48A3.93,3.93,0,0,0,32.63,9,5.62,5.62,0,0,0,34.26,7.8l1.39,1.45a7.81,7.81,0,0,1-2.26,1.62,6.14,6.14,0,0,1-2.42.45,5.57,5.57,0,0,1-4.12-1.6,5.53,5.53,0,0,1-1.6-4.08A5.63,5.63,0,0,1,26,2.78a5.42,5.42,0,0,1,2.09-2A5.87,5.87,0,0,1,31,0a6.19,6.19,0,0,1,2.56.56A6.11,6.11,0,0,1,35.69,2.16Z"/><path class="cls-1" d="M38.87.27h5.88v2H40.9v2h3.85v2H40.9V9h3.85v2H38.87Z"/><path class="cls-1" d="M54.09,1.74,52.57,3.08A2.15,2.15,0,0,0,50.94,2a1,1,0,0,0-.66.22.64.64,0,0,0-.26.49.79.79,0,0,0,.19.51,14.67,14.67,0,0,0,1.5,1.38c.78.66,1.26,1.07,1.42,1.24A4.1,4.1,0,0,1,54,7a3,3,0,0,1,.26,1.25,2.87,2.87,0,0,1-.92,2.19,3.33,3.33,0,0,1-2.39.87,3.51,3.51,0,0,1-2-.57A4.42,4.42,0,0,1,47.5,9l1.73-1c.52,1,1.11,1.43,1.79,1.43a1.31,1.31,0,0,0,.89-.31.92.92,0,0,0,.36-.71A1.24,1.24,0,0,0,52,7.62,7.53,7.53,0,0,0,50.8,6.5a12.27,12.27,0,0,1-2.28-2.22A2.83,2.83,0,0,1,48,2.72,2.55,2.55,0,0,1,48.86.8,3,3,0,0,1,51,0a3.33,3.33,0,0,1,1.54.37A5.64,5.64,0,0,1,54.09,1.74Z"/><path class="cls-1" d="M63.54,1.74,62,3.08A2.16,2.16,0,0,0,60.4,2a1,1,0,0,0-.66.22.61.61,0,0,0-.26.49.84.84,0,0,0,.18.51,15.28,15.28,0,0,0,1.51,1.38c.78.66,1.25,1.07,1.42,1.24A4,4,0,0,1,63.47,7a2.89,2.89,0,0,1,.26,1.25,2.86,2.86,0,0,1-.91,2.19,3.33,3.33,0,0,1-2.39.87,3.54,3.54,0,0,1-2-.57A4.4,4.4,0,0,1,57,9l1.72-1c.52,1,1.12,1.43,1.79,1.43a1.29,1.29,0,0,0,.89-.31.92.92,0,0,0,.36-.71,1.22,1.22,0,0,0-.27-.73,7.28,7.28,0,0,0-1.2-1.12A12.13,12.13,0,0,1,58,4.28a2.85,2.85,0,0,1-.52-1.56A2.56,2.56,0,0,1,58.32.8,3,3,0,0,1,60.43,0,3.29,3.29,0,0,1,62,.37,5.5,5.5,0,0,1,63.54,1.74Z"/></g></g></svg>