<svg width="26" height="27" viewBox="0 0 26 27" fill="none" xmlns="http://www.w3.org/2000/svg">
<rect y="0.5" width="26" height="26" fill="#D4EDB2"/>
<mask id="mask0_6322_112" style="mask-type:alpha" maskUnits="userSpaceOnUse" x="0" y="0" width="26" height="27">
<rect y="0.5" width="26" height="26" fill="#D9D9D9"/>
</mask>
<g mask="url(#mask0_6322_112)">
<path d="M13.4134 21.7308L0.743742 10.9766L0 11.8534L12.6714 22.6084L12.6733 22.61C14.1134 23.8219 15.9417 24.4889 17.8247 24.4893H25.9454V23.3397H17.8247C16.2143 23.3396 14.6454 22.7682 13.4134 21.7308Z" fill="#333333"/>
<path d="M17.8248 22.191C17.8248 22.191 21.0607 22.191 23.9343 22.191C26.8078 22.191 26.3769 19.3172 24.509 18.8864C23.2487 18.5956 21.6306 17.9269 21.6306 17.9269C20.992 17.714 20.469 17.247 20.1863 16.6371C20.1863 16.6371 20.1164 16.4888 19.999 16.2393L17.6532 16.9485C17.3969 17.0261 17.1261 16.8813 17.0485 16.6251C16.9714 16.3687 17.1159 16.0978 17.3722 16.0207L19.5826 15.3521C19.3926 14.9471 19.1722 14.4765 18.9399 13.9799L16.7477 14.6433C16.4913 14.7209 16.2205 14.575 16.1429 14.3195C16.0652 14.0631 16.2109 13.7923 16.4665 13.7148L18.5247 13.0924C18.3057 12.6222 18.0879 12.1541 17.8861 11.7189L15.8419 12.3377C15.5855 12.4149 15.3147 12.2702 15.237 12.0139C15.1601 11.7575 15.3045 11.4866 15.5609 11.4095L17.4758 10.8301C17.2013 10.2326 17.0022 9.78979 16.9492 9.65238C16.7187 9.05326 16.2126 7.39134 15.0578 8.3151C13.1591 9.83519 9.69521 9.38953 8.80096 7.72807C8.13054 6.48281 8.51384 5.14199 8.80096 4.08838C9.03079 3.24622 7.84281 1.93307 6.98111 3.08265C6.37133 3.8951 1.23389 9.9786 1.23389 9.9786L14.1539 20.8517C15.1817 21.7168 16.4816 22.191 17.8248 22.191Z" fill="#333333"/>
</g>
</svg>
