<svg width="80" height="80" viewBox="0 0 80 80" fill="none" xmlns="http://www.w3.org/2000/svg">
<path d="M23.4339 0.279753C19.1779 0.480555 16.2714 1.15976 13.7306 2.15817C11.101 3.18298 8.87215 4.5582 6.65453 6.78382C4.43691 9.00944 3.0713 11.2399 2.05369 13.8735C1.06888 16.4199 0.401669 19.3287 0.213667 23.5872C0.0256651 27.8456 -0.0159353 29.2144 0.00486491 40.077C0.0256651 50.9395 0.0736656 52.3011 0.280068 56.5683C0.48327 60.8236 1.16008 63.7292 2.15849 66.2708C3.1849 68.9004 4.55851 71.1285 6.78493 73.3469C9.01136 75.5653 11.2402 76.9277 13.8802 77.9469C16.4242 78.9301 19.3339 79.6005 23.5915 79.787C27.8491 79.9734 29.2196 80.0166 40.0789 79.9958C50.9382 79.975 52.3054 79.9269 56.5718 79.7245C60.8383 79.5221 63.7287 78.8405 66.2711 77.8469C68.9008 76.8181 71.1304 75.4469 73.3472 73.2197C75.564 70.9925 76.9288 68.7604 77.9457 66.1252C78.9313 63.5812 79.6009 60.6716 79.7857 56.4171C79.9721 52.1475 80.0161 50.7843 79.9953 39.9234C79.9745 29.0624 79.9257 27.7008 79.7233 23.4352C79.5209 19.1695 78.8433 16.2727 77.8456 13.7295C76.8176 11.0999 75.4456 8.87344 73.22 6.65342C70.9944 4.43339 68.7608 3.06938 66.1263 2.05497C63.5807 1.07016 60.6727 0.398954 56.415 0.214953C52.1574 0.0309508 50.787 -0.0162497 39.9237 0.00455049C29.0604 0.0253507 27.7003 0.0717512 23.4339 0.279753ZM23.9011 72.5909C20.0011 72.4213 17.8834 71.7733 16.4722 71.2309C14.6034 70.5109 13.2722 69.6404 11.8658 68.2476C10.4594 66.8548 9.59536 65.5188 8.86575 63.654C8.31775 62.2428 7.65774 60.1276 7.47534 56.2275C7.27694 52.0123 7.23534 50.7467 7.21214 40.0674C7.18894 29.388 7.22974 28.124 7.41454 23.9072C7.58094 20.0104 8.23295 17.8903 8.77455 16.4799C9.49456 14.6087 10.3618 13.2799 11.7578 11.8743C13.1538 10.4687 14.4858 9.60305 16.3522 8.87344C17.7618 8.32303 19.8771 7.66863 23.7755 7.48303C27.9939 7.28302 29.258 7.24302 39.9357 7.21982C50.6134 7.19662 51.8806 7.23662 56.1006 7.42222C59.9975 7.59183 62.1183 8.23743 63.5271 8.78224C65.3967 9.50225 66.7271 10.3671 68.1328 11.7655C69.5384 13.1639 70.4048 14.4911 71.1344 16.3615C71.6856 17.7671 72.34 19.8815 72.524 23.7824C72.7248 28.0008 72.7704 29.2656 72.7896 39.9426C72.8088 50.6195 72.7712 51.8875 72.5864 56.1027C72.416 60.0028 71.7696 62.1212 71.2264 63.534C70.5064 65.402 69.6384 66.734 68.2416 68.1388C66.8447 69.5436 65.5143 70.4093 63.6471 71.1389C62.2391 71.6885 60.1215 72.3445 56.2262 72.5301C52.0078 72.7285 50.7438 72.7701 40.0621 72.7933C29.3804 72.8165 28.1203 72.7733 23.9019 72.5909M56.5102 18.6215C56.5118 19.571 56.7949 20.4986 57.3237 21.2871C57.8526 22.0756 58.6034 22.6896 59.4811 23.0514C60.3589 23.4132 61.3243 23.5065 62.2552 23.3197C63.186 23.1328 64.0405 22.674 64.7106 22.0014C65.3808 21.3289 65.8364 20.4727 66.0198 19.5411C66.2033 18.6096 66.1064 17.6446 65.7414 16.7681C65.3764 15.8917 64.7597 15.1431 63.9692 14.6172C63.1788 14.0913 62.2501 13.8116 61.3007 13.8135C60.0279 13.816 58.8083 14.324 57.9099 15.2256C57.0116 16.1272 56.5081 17.3488 56.5102 18.6215ZM19.4619 40.0402C19.4843 51.3843 28.6972 60.5596 40.0389 60.538C51.3806 60.5164 60.5623 51.3043 60.5407 39.9602C60.5191 28.616 51.3038 19.4383 39.9605 19.4607C28.6172 19.4831 19.4403 28.6976 19.4619 40.0402ZM26.6667 40.0258C26.6615 37.3886 27.4384 34.8091 28.8992 32.6135C30.36 30.4179 32.4391 28.7048 34.8735 27.6907C37.3079 26.6767 39.9883 26.4074 42.5758 26.9167C45.1633 27.4261 47.5417 28.6913 49.4101 30.5524C51.2786 32.4134 52.5532 34.7867 53.0728 37.3722C53.5924 39.9577 53.3337 42.6392 52.3293 45.0776C51.3249 47.516 49.62 49.6018 47.4302 51.0713C45.2404 52.5407 42.664 53.3279 40.0269 53.3331C38.2758 53.3368 36.5412 52.9955 34.922 52.3287C33.3029 51.6618 31.8309 50.6826 30.5903 49.4469C29.3496 48.2111 28.3646 46.7431 27.6914 45.1266C27.0182 43.5101 26.67 41.7768 26.6667 40.0258Z" fill="#333333"/>
</svg>
