<svg width="57" height="56" viewBox="0 0 57 56" fill="none" xmlns="http://www.w3.org/2000/svg">
<circle cx="28.5" cy="28" r="28" fill="#009DEF"/>
<path d="M25.7247 28.105C25.6792 28.1031 25.6373 28.0742 25.6206 28.0289C25.4364 27.5257 25.2472 26.6687 25.1411 26.088C25.0509 25.5934 24.9891 25.0272 24.9574 24.4052C24.0032 24.2613 22.1696 23.8506 20.6085 22.7171C18.6382 21.2865 17.7771 19.2113 18.049 16.549C18.3108 13.9848 19.4304 12.1056 21.3763 10.9637C23.2908 9.84026 25.4857 9.75021 26.6238 9.79662C26.7299 9.80094 26.8343 9.80671 26.9363 9.81369C27.0279 9.42935 27.242 8.88344 27.4569 8.486C27.7676 7.91184 28.3035 7.17851 28.492 7.0292C28.4997 7.02306 28.5082 7.01801 28.5172 7.01405C28.5408 7.00347 28.5697 6.9989 28.6032 7.00022C28.7159 7.00479 28.871 7.08137 28.922 7.188C28.9475 7.2415 28.9422 7.29548 28.9066 7.34405C28.7728 7.5269 28.4275 8.01991 28.114 8.64408C27.8693 9.13145 27.6736 9.55678 27.5479 9.87416C29.2004 10.1002 31.6667 11.1432 33.1786 13.3394C34.3566 15.0506 34.6891 17.0756 34.1667 19.3579C33.7074 21.3647 32.6716 22.8111 31.0882 23.6568C29.8514 24.3173 28.2818 24.6139 26.4231 24.5382C26.1553 24.5273 25.8787 24.5084 25.6008 24.4821C25.6279 25.0155 25.6726 25.5122 25.7333 25.9585C25.8485 26.8052 25.9529 27.4187 26.1169 27.8605C26.1281 27.8904 26.1264 27.9235 26.1124 27.9522C26.0985 27.9808 26.0734 28.0024 26.0431 28.0121L25.764 28.0999C25.7509 28.104 25.7376 28.1057 25.7246 28.1051L25.7247 28.105ZM25.3497 21.0056C25.4112 21.0082 25.4714 21.0392 25.5192 21.093C25.5969 21.1809 25.6332 21.3146 25.6212 21.4696C25.596 21.797 25.5536 22.6872 25.5738 23.7128C26.133 23.7924 26.6637 23.8428 27.1515 23.8626C30.0846 23.9821 30.6377 23.0444 30.7373 22.7542C30.7681 22.6645 30.7474 22.5608 30.6758 22.4457C30.1673 21.63 27.2358 20.4348 25.6327 20.2402C25.2633 20.1954 24.859 20.1637 24.4306 20.1463C23.1452 20.094 20.633 20.1777 20.3245 20.8695C20.2599 21.0144 20.2791 21.1931 20.3803 21.3862C20.7662 22.1232 22.3555 23.1331 24.9337 23.6087C24.9237 22.5259 25.0004 21.6605 25.0512 21.3694C25.0991 21.0941 25.2369 21.0008 25.3498 21.0055L25.3497 21.0056Z" fill="white"/>
<path d="M31.8253 48.9999C31.7987 48.9988 31.7731 48.9886 31.753 48.9705C29.877 47.2951 27.6452 43.8579 25.7825 39.7763C23.8978 35.6456 22.7612 31.6333 22.7422 29.0434C22.742 29.0122 22.7543 28.9822 22.7763 28.9602C22.7982 28.9382 22.8282 28.926 22.8593 28.9263C25.2249 28.9535 28.059 27.9939 29.3113 26.7419C29.3344 26.7187 29.3658 26.7068 29.3976 26.7081C29.407 26.7084 29.4163 26.71 29.4255 26.7126C29.466 26.7245 29.4969 26.7577 29.506 26.7992C30.2325 30.1022 31.3494 33.3905 32.651 36.0586C34.3638 39.5701 36.3949 42.1097 38.6876 43.6069C38.7232 43.6302 38.7433 43.6712 38.7399 43.7138C38.7366 43.7563 38.7101 43.7936 38.6713 43.8108C36.6739 44.6948 33.3294 47.2442 31.9191 48.9577C31.8992 48.9821 31.8702 48.9971 31.8388 48.9996C31.8343 49 31.8297 49.0001 31.8253 48.9999Z" fill="white"/>
</svg>
