<svg width="21" height="42" viewBox="0 0 21 42" fill="none" xmlns="http://www.w3.org/2000/svg">
<g clip-path="url(#clip0_640_19)">
<path d="M7.72469 21.105C7.67919 21.1031 7.63728 21.0742 7.62064 21.0289C7.43636 20.5257 7.24718 19.6687 7.14109 19.088C7.05093 18.5934 6.98915 18.0272 6.95742 17.4052C6.00324 17.2613 4.16959 16.8506 2.60847 15.7171C0.638208 14.2865 -0.222937 12.2113 0.0489847 9.54903C0.310848 6.98477 1.43038 5.10565 3.37634 3.96369C5.29081 2.84026 7.48569 2.75021 8.62379 2.79662C8.72987 2.80094 8.83429 2.80671 8.9363 2.81369C9.0279 2.42935 9.24199 1.88344 9.45691 1.486C9.76763 0.911836 10.3035 0.178506 10.492 0.029195C10.4997 0.0230639 10.5082 0.0180148 10.5172 0.0140476C10.5408 0.00346837 10.5697 -0.00109992 10.6032 0.000222479C10.7159 0.00479077 10.871 0.0813697 10.922 0.188003C10.9475 0.2415 10.9422 0.295478 10.9066 0.344046C10.7728 0.526898 10.4275 1.01991 10.114 1.64408C9.86929 2.13145 9.67364 2.55678 9.54791 2.87416C11.2004 3.10017 13.6667 4.14318 15.1786 6.33944C16.3566 8.05063 16.6891 10.0756 16.1667 12.3579C15.7074 14.3647 14.6716 15.8111 13.0882 16.6568C11.8514 17.3173 10.2818 17.6139 8.42311 17.5382C8.15526 17.5273 7.87867 17.5084 7.60076 17.4821C7.62794 18.0155 7.6726 18.5122 7.73331 18.9585C7.8485 19.8052 7.95291 20.4187 8.11694 20.8605C8.12808 20.8904 8.1264 20.9235 8.11239 20.9522C8.0985 20.9808 8.07336 21.0024 8.04307 21.0121L7.76396 21.0999C7.75091 21.104 7.73762 21.1057 7.72457 21.1051L7.72469 21.105ZM7.34967 14.0056C7.41122 14.0082 7.47144 14.0392 7.51922 14.093C7.59693 14.1809 7.63321 14.3146 7.62123 14.4696C7.59597 14.797 7.55358 15.6872 7.57382 16.7128C8.13299 16.7924 8.66366 16.8428 9.15147 16.8626C12.0846 16.9821 12.6377 16.0444 12.7373 15.7542C12.7681 15.6645 12.7474 15.5608 12.6758 15.4457C12.1673 14.63 9.23576 13.4348 7.63273 13.2402C7.26334 13.1954 6.85899 13.1637 6.43058 13.1463C5.14521 13.094 2.63302 13.1777 2.32446 13.8695C2.25992 14.0144 2.27908 14.1931 2.38025 14.3862C2.76616 15.1232 4.35554 16.1331 6.93371 16.6087C6.92365 15.5259 7.0004 14.6605 7.05117 14.3694C7.09906 14.0941 7.23688 14.0008 7.34979 14.0055L7.34967 14.0056Z" fill="white"/>
<path d="M13.8253 41.9999C13.7987 41.9988 13.7731 41.9886 13.753 41.9706C11.877 40.2951 9.64516 36.8579 7.78254 32.7763C5.89777 28.6456 4.76123 24.6333 4.74219 22.0435C4.74195 22.0122 4.75428 21.9823 4.77632 21.9603C4.79823 21.9383 4.82816 21.926 4.85929 21.9264C7.22493 21.9535 10.059 20.994 11.3113 19.7419C11.3344 19.7187 11.3658 19.7068 11.3976 19.7081C11.407 19.7085 11.4163 19.71 11.4255 19.7127C11.466 19.7246 11.4969 19.7578 11.506 19.7992C12.2325 23.1022 13.3494 26.3906 14.651 29.0587C16.3638 32.5701 18.3949 35.1097 20.6876 36.6069C20.7232 36.6302 20.7433 36.6712 20.7399 36.7138C20.7366 36.7564 20.7101 36.7936 20.6713 36.8108C18.6739 37.6948 15.3294 40.2442 13.9191 41.9577C13.8992 41.9821 13.8702 41.9971 13.8388 41.9997C13.8343 42 13.8297 42.0002 13.8253 41.9999Z" fill="white"/>
</g>
<defs>
<clipPath id="clip0_640_19">
<rect width="21" height="42" fill="white"/>
</clipPath>
</defs>
</svg>
