<svg width="22" height="42" viewBox="0 0 22 42" fill="none" xmlns="http://www.w3.org/2000/svg">
<path d="M8.22469 21.105C8.17919 21.1031 8.13728 21.0742 8.12064 21.0289C7.93636 20.5257 7.74718 19.6687 7.64109 19.088C7.55093 18.5934 7.48915 18.0272 7.45742 17.4052C6.50324 17.2613 4.66959 16.8506 3.10847 15.7171C1.13821 14.2865 0.277063 12.2113 0.548985 9.54903C0.810848 6.98477 1.93038 5.10565 3.87634 3.96369C5.79081 2.84026 7.98569 2.75021 9.12379 2.79662C9.22988 2.80094 9.33429 2.80671 9.4363 2.81369C9.5279 2.42935 9.74199 1.88344 9.95691 1.486C10.2676 0.911836 10.8035 0.178506 10.992 0.029195C10.9997 0.0230639 11.0082 0.0180148 11.0172 0.0140476C11.0408 0.00346837 11.0697 -0.00109992 11.1032 0.000222479C11.2159 0.00479077 11.371 0.0813697 11.422 0.188003C11.4475 0.2415 11.4422 0.295478 11.4066 0.344046C11.2728 0.526898 10.9275 1.01991 10.614 1.64408C10.3693 2.13145 10.1736 2.55678 10.0479 2.87416C11.7004 3.10017 14.1667 4.14318 15.6786 6.33944C16.8566 8.05063 17.1891 10.0756 16.6667 12.3579C16.2074 14.3647 15.1716 15.8111 13.5882 16.6568C12.3514 17.3173 10.7818 17.6139 8.92311 17.5382C8.65526 17.5273 8.37867 17.5084 8.10076 17.4821C8.12794 18.0155 8.1726 18.5122 8.23331 18.9585C8.34849 19.8052 8.45291 20.4187 8.61694 20.8605C8.62808 20.8904 8.6264 20.9235 8.61239 20.9522C8.5985 20.9808 8.57336 21.0024 8.54307 21.0121L8.26396 21.0999C8.25091 21.104 8.23762 21.1057 8.22457 21.1051L8.22469 21.105ZM7.84967 14.0056C7.91122 14.0082 7.97144 14.0392 8.01922 14.093C8.09693 14.1809 8.13321 14.3146 8.12124 14.4696C8.09597 14.797 8.05358 15.6872 8.07382 16.7128C8.63299 16.7924 9.16366 16.8428 9.65147 16.8626C12.5846 16.9821 13.1377 16.0444 13.2373 15.7542C13.2681 15.6645 13.2474 15.5608 13.1758 15.4457C12.6673 14.63 9.73576 13.4348 8.13273 13.2402C7.76334 13.1954 7.35899 13.1637 6.93058 13.1463C5.64521 13.094 3.13302 13.1777 2.82446 13.8695C2.75992 14.0144 2.77908 14.1931 2.88025 14.3862C3.26616 15.1232 4.85554 16.1331 7.43371 16.6087C7.42365 15.5259 7.5004 14.6605 7.55117 14.3694C7.59906 14.0941 7.73688 14.0008 7.84979 14.0055L7.84967 14.0056Z" fill="#009DEF"/>
<path d="M14.3253 41.9999C14.2987 41.9988 14.2731 41.9886 14.253 41.9705C12.377 40.2951 10.1452 36.8579 8.28254 32.7763C6.39777 28.6456 5.26123 24.6333 5.24219 22.0434C5.24195 22.0122 5.25428 21.9822 5.27632 21.9602C5.29823 21.9382 5.32816 21.926 5.35929 21.9263C7.72493 21.9535 10.559 20.9939 11.8113 19.7419C11.8344 19.7187 11.8658 19.7068 11.8976 19.7081C11.907 19.7084 11.9163 19.71 11.9255 19.7126C11.966 19.7245 11.9969 19.7577 12.006 19.7992C12.7325 23.1022 13.8494 26.3905 15.151 29.0586C16.8638 32.5701 18.8949 35.1097 21.1876 36.6069C21.2232 36.6302 21.2433 36.6712 21.2399 36.7138C21.2366 36.7563 21.2101 36.7936 21.1713 36.8108C19.1739 37.6948 15.8294 40.2442 14.4191 41.9577C14.3992 41.9821 14.3702 41.9971 14.3388 41.9996C14.3343 42 14.3297 42.0001 14.3253 41.9999Z" fill="#009DEF"/>
</svg>
