<svg width="51" height="59" viewBox="0 0 51 59" fill="none" xmlns="http://www.w3.org/2000/svg">
<path d="M36.8867 40.6729C43.5898 40.0839 50.5829 35.886 50.5829 35.886C50.5829 35.886 42.9527 32.9728 36.2497 33.5618C35.8134 33.6002 35.3919 33.6443 34.9833 33.6936C35.8883 32.6952 36.826 31.5581 37.789 30.2729C43.3173 22.8948 45.3577 11.9144 45.3577 11.9144C45.3577 11.9144 35.8141 16.787 30.2161 23.8801C30.224 23.4434 30.2281 22.9984 30.2281 22.5437C30.2283 11.7611 25.2915 0 25.2915 0C25.2915 0 20.3546 11.7611 20.3546 22.5435C20.3546 22.9982 20.3589 23.4431 20.3667 23.8798C14.7685 16.7869 5.22522 11.9143 5.22522 11.9143C5.22522 11.9143 7.26557 22.8947 12.7938 30.2728C13.7568 31.558 14.6945 32.6951 15.5995 33.6935C15.1912 33.6442 14.7695 33.6002 14.3332 33.5617C7.63007 32.9728 0 35.886 0 35.886C0 35.886 6.99305 40.0839 13.6961 40.6729C15.4279 40.8252 16.9575 40.8517 18.2795 40.775C15.3496 43.7065 13.5883 48.0559 13.5883 48.0559C13.5883 48.0559 18.7108 46.6156 21.9675 43.7114C22.9377 42.8462 23.7089 42.0337 24.2915 41.2937C24.5295 43.1936 24.7976 46.0884 24.7589 49.2871C24.7091 53.4095 23.7931 57.7009 23.7839 57.7438C23.6763 58.2424 23.9971 58.7328 24.5005 58.8394C24.566 58.8535 24.6316 58.86 24.6963 58.86C25.1265 58.86 25.513 58.5633 25.6068 58.13C25.646 57.948 26.5708 53.6208 26.6228 49.3094C26.6628 46.0081 26.3943 43.0651 26.1503 41.1111C26.7475 41.8994 27.5648 42.7743 28.6155 43.7114C31.8721 46.6156 36.9946 48.0559 36.9946 48.0559C36.9946 48.0559 35.2335 43.7065 32.3035 40.775C33.6255 40.8516 35.1551 40.8251 36.8868 40.6729H36.8867Z" fill="white"/>
</svg>
