<svg width="29" height="32" viewBox="0 0 29 32" fill="none" xmlns="http://www.w3.org/2000/svg">
<g clip-path="url(#clip0_230_3236)">
<path d="M20.7439 22.1123C24.3531 21.7921 28.1184 19.5099 28.1184 19.5099C28.1184 19.5099 24.0101 17.9261 20.4009 18.2463C20.166 18.2672 19.9391 18.2912 19.719 18.318C20.2063 17.7752 20.7112 17.157 21.2297 16.4582C24.2064 12.447 25.305 6.47743 25.305 6.47743C25.305 6.47743 20.1664 9.12649 17.1522 12.9827C17.1565 12.7453 17.1587 12.5034 17.1587 12.2562C17.1588 6.39405 14.5006 0 14.5006 0C14.5006 0 11.8425 6.39405 11.8425 12.2561C11.8425 12.5033 11.8448 12.7451 11.8489 12.9826C8.83472 9.12643 3.69626 6.47738 3.69626 6.47738C3.69626 6.47738 4.79485 12.447 7.77144 16.4582C8.28994 17.1569 8.79484 17.7751 9.28213 18.3179C9.06229 18.2911 8.83523 18.2672 8.60032 18.2463C4.99111 17.9261 0.882812 19.5099 0.882812 19.5099C0.882812 19.5099 4.64812 21.7921 8.25727 22.1123C9.18973 22.1951 10.0133 22.2096 10.7251 22.1678C9.14759 23.7616 8.19922 26.1262 8.19922 26.1262C8.19922 26.1262 10.9574 25.3432 12.7109 23.7643C13.2333 23.2939 13.6485 22.8522 13.9622 22.4498C14.0904 23.4828 14.2347 25.0565 14.2139 26.7956C14.187 29.0368 13.6939 31.3699 13.6889 31.3932C13.631 31.6642 13.8037 31.9308 14.0747 31.9888C14.11 31.9964 14.1454 32 14.1802 32C14.4118 32 14.6199 31.8387 14.6704 31.6031C14.6916 31.5042 15.1895 29.1516 15.2175 26.8077C15.239 25.0129 15.0945 23.4129 14.9631 22.3506C15.2846 22.7791 15.7247 23.2548 16.2904 23.7643C18.0439 25.3432 20.802 26.1262 20.802 26.1262C20.802 26.1262 19.8538 23.7616 18.2762 22.1678C18.988 22.2095 19.8116 22.1951 20.744 22.1123H20.7439Z" fill="white"/>
</g>
<defs>
<clipPath id="clip0_230_3236">
<rect width="27.2356" height="32" fill="white" transform="translate(0.882812)"/>
</clipPath>
</defs>
</svg>
