<svg width="26" height="27" viewBox="0 0 26 27" fill="none" xmlns="http://www.w3.org/2000/svg">
<rect y="0.5" width="26" height="26" fill="#D4EDB2"/>
<mask id="mask0_6322_102" style="mask-type:alpha" maskUnits="userSpaceOnUse" x="0" y="0" width="26" height="27">
<rect y="0.5" width="26" height="26" fill="#D9D9D9"/>
</mask>
<g mask="url(#mask0_6322_102)">
<path d="M13.9952 5.52921C12.6061 5.52921 11.4803 4.40339 11.4803 3.01488C11.4803 1.62582 12.6061 0.5 13.9952 0.5C15.3842 0.5 16.51 1.62582 16.51 3.01488C16.51 4.40339 15.3842 5.52921 13.9952 5.52921Z" fill="#333333"/>
<path d="M4.43553 12.7461L6.10308 10.2387C6.50801 9.64626 7.04532 9.15571 7.6712 8.80486L10.9413 6.97344C11.5406 6.69344 11.9938 6.51535 12.5631 6.59213L14.1278 6.80465C14.7113 6.88392 15.2432 7.18109 15.6162 7.63624L18.5946 10.806L21.3224 11.8113C21.8391 12.0017 22.1166 12.5631 21.9532 13.0891L21.9404 13.1295C21.78 13.6466 21.2471 13.9522 20.7197 13.8307L18.4966 13.3174C17.9421 13.1895 17.4156 12.9612 16.9442 12.6433L15.3982 11.6037L14.852 15.7545C14.8121 16.0591 14.8737 16.3681 15.0267 16.6348L19.6558 24.6748C19.986 25.2476 19.7907 25.9797 19.2194 26.3133L19.1796 26.3365C18.6388 26.6514 17.947 26.4993 17.5888 25.9866L12.4145 18.5853L10.8467 21.7147C10.7307 21.9459 10.5771 22.1561 10.3921 22.3367L6.91431 25.7372C6.47541 26.1657 5.78113 26.1849 5.32009 25.7809L5.26448 25.7327C5.0283 25.5256 4.88464 25.2328 4.86595 24.9194C4.84726 24.606 4.95451 24.2979 5.16465 24.0647L8.10116 20.7936L9.6964 15.0199L9.70229 15.0248L10.1599 10.5079L8.54306 11.2357L5.95739 13.9571C5.63214 14.2995 5.10569 14.3546 4.71696 14.0865L4.6904 14.0683C4.25886 13.771 4.14522 13.1825 4.43553 12.7461Z" fill="#333333"/>
</g>
</svg>
