<svg width="59" height="59" viewBox="0 0 59 59" fill="none" xmlns="http://www.w3.org/2000/svg">
<g clip-path="url(#clip0_171_874)">
<path d="M29.5 58.9284C29.0122 58.9284 28.5443 58.7347 28.1994 58.3897C27.8545 58.0448 27.6607 57.577 27.6607 57.0891V52.3328L25.2843 54.7128C24.939 55.0577 24.4707 55.2512 23.9827 55.2509C23.4946 55.2505 23.0266 55.0563 22.6818 54.711C22.3369 54.3656 22.1433 53.8974 22.1437 53.4093C22.144 52.9212 22.3382 52.4532 22.6836 52.1084L27.6607 47.1313V43.1363L25.2843 45.5164C25.1133 45.6871 24.9104 45.8225 24.687 45.9149C24.4637 46.0072 24.2243 46.0546 23.9827 46.0545C23.4946 46.0541 23.0266 45.8599 22.6818 45.5145C22.3369 45.1692 22.1433 44.7009 22.1437 44.2128C22.144 43.7248 22.3382 43.2568 22.6836 42.9119L27.6607 37.9348V32.6855L23.114 35.3083L21.2931 42.1137C21.2303 42.347 21.1222 42.5657 20.9748 42.7572C20.8275 42.9487 20.6439 43.1094 20.4345 43.23C20.2252 43.3505 19.9941 43.4287 19.7545 43.46C19.5149 43.4912 19.2715 43.475 19.0381 43.4122C18.8048 43.3494 18.5861 43.2413 18.3946 43.094C18.2031 42.9467 18.0424 42.7631 17.9218 42.5537C17.8013 42.3443 17.7231 42.1132 17.6918 41.8736C17.6606 41.634 17.6768 41.3906 17.7396 41.1573L18.6114 37.9128L15.1536 39.9065L13.329 46.7119C13.2022 47.1831 12.8933 47.5847 12.4704 47.8282C12.0476 48.0717 11.5452 48.1373 11.074 48.0104C10.6028 47.8836 10.2013 47.5748 9.95774 47.1519C9.71421 46.729 9.64866 46.2267 9.77549 45.7555L10.6473 42.511L6.52731 44.8873C6.10508 45.1274 5.60505 45.1907 5.13632 45.0634C4.66759 44.9362 4.26823 44.6287 4.02537 44.2081C3.78252 43.7874 3.7159 43.2878 3.84004 42.8183C3.96419 42.3487 4.26902 41.9473 4.68802 41.7017L8.80802 39.3253L5.55616 38.4535C5.32284 38.3907 5.10417 38.2826 4.91263 38.1353C4.7211 37.9879 4.56046 37.8043 4.43988 37.595C4.3193 37.3856 4.24114 37.1545 4.20987 36.9149C4.1786 36.6753 4.19483 36.4319 4.25763 36.1985C4.32043 35.9652 4.42857 35.7465 4.57588 35.555C4.72319 35.3635 4.90678 35.2028 5.11618 35.0823C5.32557 34.9617 5.55666 34.8835 5.79626 34.8522C6.03586 34.821 6.27927 34.8372 6.51259 34.9L13.3106 36.7209L16.7685 34.7271L13.524 33.8553C13.2871 33.7962 13.0643 33.6906 12.8687 33.5446C12.673 33.3986 12.5084 33.2151 12.3844 33.0048C12.2604 32.7945 12.1795 32.5617 12.1464 32.3198C12.1133 32.0779 12.1288 31.8319 12.1918 31.596C12.2547 31.3601 12.3641 31.1392 12.5133 30.946C12.6626 30.7528 12.8488 30.5913 13.0612 30.4708C13.2735 30.3504 13.5077 30.2734 13.7501 30.2444C13.9925 30.2153 14.2382 30.2349 14.473 30.3018L21.2784 32.1227L25.8214 29.4999L21.2747 26.877L14.473 28.6979C14.2382 28.7649 13.9925 28.7844 13.7501 28.7554C13.5077 28.7263 13.2735 28.6494 13.0612 28.5289C12.8488 28.4084 12.6626 28.2469 12.5133 28.0537C12.3641 27.8605 12.2547 27.6396 12.1918 27.4037C12.1288 27.1679 12.1133 26.9218 12.1464 26.6799C12.1795 26.4381 12.2604 26.2052 12.3844 25.9949C12.5084 25.7846 12.673 25.6011 12.8687 25.4551C13.0643 25.3091 13.2871 25.2035 13.524 25.1444L16.7721 24.2726L13.3143 22.2788L6.50891 24.0997C6.04076 24.2164 5.5455 24.1445 5.12989 23.8994C4.71428 23.6543 4.41161 23.2558 4.28711 22.7896C4.16262 22.3235 4.22627 21.8271 4.46434 21.4074C4.70242 20.9878 5.09585 20.6785 5.55984 20.5462L8.80802 19.6744L4.68802 17.298C4.47716 17.1782 4.29209 17.0177 4.14347 16.826C3.99485 16.6343 3.88562 16.4151 3.82207 16.181C3.75851 15.9469 3.74189 15.7026 3.77316 15.462C3.80442 15.2215 3.88296 14.9895 4.00424 14.7795C4.12553 14.5694 4.28717 14.3854 4.47985 14.238C4.67254 14.0907 4.89247 13.9829 5.12697 13.9209C5.36148 13.8589 5.60594 13.8439 5.84627 13.8768C6.08659 13.9096 6.31805 13.9897 6.52731 14.1124L10.6473 16.4888L9.77549 13.2406C9.65881 12.7724 9.73075 12.2772 9.97582 11.8616C10.2209 11.4459 10.6194 11.1433 11.0856 11.0188C11.5517 10.8943 12.0481 10.9579 12.4678 11.196C12.8874 11.4341 13.1967 11.8275 13.329 12.2915L15.1499 19.0932L18.6077 21.087L17.7396 17.8388C17.6229 17.3706 17.6949 16.8754 17.9399 16.4598C18.185 16.0442 18.5835 15.7415 19.0497 15.617C19.5158 15.4925 20.0122 15.5561 20.4319 15.7942C20.8515 16.0323 21.1608 16.4257 21.2931 16.8897L23.114 23.6914L27.6607 26.3142V21.0649L22.6836 16.0878C22.3382 15.7429 22.144 15.275 22.1437 14.7869C22.1433 14.2988 22.3369 13.8306 22.6818 13.4852C23.0266 13.1398 23.4946 12.9456 23.9827 12.9453C24.4707 12.9449 24.939 13.1385 25.2843 13.4834L27.6607 15.8634V11.8685L22.6836 6.89136C22.5126 6.72059 22.3769 6.51781 22.2842 6.2946C22.1916 6.07139 22.1438 5.83212 22.1437 5.59045C22.1435 5.34877 22.1909 5.10943 22.2832 4.88609C22.3756 4.66275 22.511 4.45978 22.6818 4.28877C22.8525 4.11776 23.0553 3.98206 23.2785 3.88942C23.5017 3.79678 23.741 3.74901 23.9827 3.74884C24.2243 3.74867 24.4637 3.7961 24.687 3.88842C24.9104 3.98075 25.1133 4.11616 25.2843 4.28693L27.6607 6.66697V1.91057C27.6607 1.42277 27.8545 0.954936 28.1994 0.610003C28.5443 0.26507 29.0122 0.0712891 29.5 0.0712891C29.9878 0.0712891 30.4556 0.26507 30.8006 0.610003C31.1455 0.954936 31.3393 1.42277 31.3393 1.91057V6.66697L33.7193 4.28693C34.0647 3.94205 34.5329 3.74849 35.021 3.74884C35.5091 3.74918 35.977 3.9434 36.3219 4.28877C36.6668 4.63414 36.8603 5.10237 36.86 5.59045C36.8596 6.07853 36.6654 6.54648 36.3201 6.89136L31.3393 11.8685V15.8634L33.7193 13.4834C34.0647 13.1385 34.5329 12.9449 35.021 12.9453C35.5091 12.9456 35.977 13.1398 36.3219 13.4852C36.6668 13.8306 36.8603 14.2988 36.86 14.7869C36.8596 15.275 36.6654 15.7429 36.3201 16.0878L31.3393 21.0649V26.3142L35.886 23.6914L37.7069 16.886C37.7697 16.6527 37.8778 16.434 38.0251 16.2425C38.1724 16.051 38.356 15.8903 38.5654 15.7698C38.7748 15.6492 39.0059 15.571 39.2455 15.5397C39.4851 15.5085 39.7285 15.5247 39.9618 15.5875C40.1952 15.6503 40.4138 15.7584 40.6054 15.9058C40.7969 16.0531 40.9576 16.2367 41.0781 16.4461C41.1987 16.6554 41.2769 16.8865 41.3081 17.1261C41.3394 17.3657 41.3232 17.6091 41.2604 17.8425L40.3922 21.087L43.8501 19.0932L45.671 12.2878C45.7978 11.8166 46.1066 11.4151 46.5295 11.1715C46.9524 10.928 47.4547 10.8625 47.9259 10.9893C48.3972 11.1161 48.7987 11.4249 49.0422 11.8478C49.2858 12.2707 49.3513 12.773 49.2245 13.2443L48.3563 16.4888L52.4763 14.1124C52.8986 13.8723 53.3986 13.809 53.8673 13.9363C54.3361 14.0635 54.7354 14.371 54.9783 14.7917C55.2211 15.2123 55.2878 15.7119 55.1636 16.1814C55.0395 16.651 54.7346 17.0524 54.3156 17.298L50.1956 19.6744L53.4438 20.5462C53.915 20.673 54.3166 20.9819 54.5601 21.4048C54.8036 21.8277 54.8692 22.33 54.7423 22.8012C54.6155 23.2724 54.3067 23.6739 53.8838 23.9175C53.4609 24.161 52.9586 24.2265 52.4874 24.0997L45.6894 22.2788L42.2315 24.2726L45.4797 25.1444C45.9509 25.2713 46.3525 25.5801 46.596 26.003C46.8395 26.4259 46.9051 26.9282 46.7782 27.3994C46.6514 27.8706 46.3426 28.2722 45.9197 28.5157C45.4968 28.7592 44.9945 28.8248 44.5233 28.6979L37.7253 26.877L33.1786 29.4999L37.7253 32.1227L44.527 30.3018C44.9982 30.1754 45.5003 30.2415 45.9228 30.4853C46.3454 30.7292 46.6537 31.1309 46.7801 31.6022C46.9064 32.0734 46.8404 32.5755 46.5965 32.998C46.3527 33.4206 45.9509 33.7289 45.4797 33.8553L42.2315 34.7271L45.6894 36.7209L52.4911 34.9C52.9623 34.7737 53.4644 34.8397 53.8869 35.0836C54.3095 35.3274 54.6178 35.7292 54.7442 36.2004C54.8705 36.6716 54.8045 37.1737 54.5606 37.5963C54.3168 38.0188 53.915 38.3272 53.4438 38.4535L50.1956 39.3253L54.3156 41.7017C54.7346 41.9473 55.0395 42.3487 55.1636 42.8183C55.2878 43.2878 55.2211 43.7874 54.9783 44.2081C54.7354 44.6287 54.3361 44.9362 53.8673 45.0634C53.3986 45.1907 52.8986 45.1274 52.4763 44.8873L48.3563 42.511L49.2245 45.7591C49.2914 45.9939 49.3109 46.2397 49.2819 46.4821C49.2529 46.7245 49.1759 46.9587 49.0555 47.171C48.935 47.3833 48.7735 47.5696 48.5803 47.7188C48.3871 47.8681 48.1661 47.9774 47.9303 48.0404C47.6944 48.1034 47.4484 48.1188 47.2065 48.0857C46.9646 48.0527 46.7317 47.9718 46.5215 47.8478C46.3112 47.7238 46.1277 47.5592 45.9816 47.3635C45.8356 47.1679 45.73 46.9451 45.671 46.7082L43.8501 39.9065L40.3922 37.9128L41.2604 41.1609C41.3771 41.6291 41.3051 42.1243 41.06 42.54C40.815 42.9556 40.4164 43.2582 39.9503 43.3827C39.4841 43.5072 38.9878 43.4436 38.5681 43.2055C38.1485 42.9674 37.8392 42.574 37.7069 42.11L35.886 35.312L31.3393 32.6855V37.9348L36.3201 42.9119C36.6654 43.2568 36.8596 43.7248 36.86 44.2128C36.8603 44.7009 36.6668 45.1692 36.3219 45.5145C35.977 45.8599 35.5091 46.0541 35.021 46.0545C34.5329 46.0548 34.0647 45.8612 33.7193 45.5164L31.3393 43.1363V47.1313L36.3201 52.1084C36.6654 52.4532 36.8596 52.9212 36.86 53.4093C36.8603 53.8974 36.6668 54.3656 36.3219 54.711C35.977 55.0563 35.5091 55.2505 35.021 55.2509C34.5329 55.2512 34.0647 55.0577 33.7193 54.7128L31.3393 52.3328V57.0891C31.3393 57.577 31.1455 58.0448 30.8006 58.3897C30.4556 58.7347 29.9878 58.9284 29.5 58.9284Z" fill="white"/>
</g>
<defs>
<clipPath id="clip0_171_874">
<rect width="58.8571" height="58.8571" fill="white" transform="translate(0.0712891 0.0712891)"/>
</clipPath>
</defs>
</svg>
