<svg width="40" height="40" viewBox="0 0 40 40" fill="none" xmlns="http://www.w3.org/2000/svg">
<path d="M38.5669 9.71015C37.3658 5.46531 33.8482 3.6596 29.8159 4.34593C26.1027 4.97796 24.163 9.60687 23.2595 12.4139C23.5282 8.69593 22.8412 3.52554 18.4054 1.11124C11.6277 -2.5779 7.33797 4.02827 6.90898 4.88616C6.48 5.74413 6.4793 5.90835 7.68109 5.82991C8.03906 5.80648 11.1584 4.92851 14.2195 5.4821L15.6599 4.15366L16.3275 6.0257C18.8638 6.91445 20.8987 9.19202 21.2653 12.607C19.2077 10.0774 16.0339 8.44874 12.4601 8.44874C6.24609 8.44874 1.20898 13.349 1.20898 19.3935C1.20898 19.8801 1.21906 19.5309 1.21906 19.5309C1.23648 19.7601 1.38656 19.9578 1.60242 20.0362C1.8182 20.1141 2.06023 20.0584 2.22039 19.8935C2.22039 19.8935 2.3457 19.6984 2.90875 19.1837C3.9007 18.2761 4.99188 17.4765 6.16086 16.7948L7.22992 14.7994L8.67234 15.5655C10.8366 14.703 13.1973 14.227 15.6699 14.227C17.3006 14.227 18.8838 14.4341 20.3939 14.8222C16.9119 14.5916 11.6637 16.4067 9.58656 20.8378C7.01273 26.3286 9.54563 30.6867 9.91164 31.0278C10.212 31.3073 10.5752 31.0895 10.6737 30.6022C10.8888 29.5372 11.4801 27.5465 12.5659 25.3137L12.1275 23.543L13.3347 23.8519C14.8475 21.1842 17.0627 18.3832 20.1962 16.4965C17.7745 21.8317 15.7812 29.6289 18.8188 39.9999H26.2788C26.2788 39.9999 18.7055 32.6645 22.6413 17.6225C23.4966 18.7277 24.5851 20.3317 25.4934 22.2855L26.6415 22.4303L26.1287 23.8043C26.7574 25.4866 27.2098 27.3661 27.2728 29.3775C27.2889 29.8909 27.5986 30.271 27.7567 29.9345C30.1805 24.7694 29.4183 19.483 26.0208 16.3985C28.163 17.1049 29.9137 18.8275 31.2777 20.798L32.9044 21.1473L32.6014 22.9811C33.7429 25.1514 34.4433 27.3003 34.6934 28.5323C34.7918 29.0175 35.0492 29.3339 35.3596 28.7816C37.2088 25.4907 37.4475 19.1754 34.1055 15.7182C31.5143 13.0385 26.9424 12.8621 24.1267 13.6048C25.9752 10.4968 30.9212 10.2655 30.9212 10.2655C30.9212 10.2655 31.7034 8.46406 31.875 8.20663C32.0466 7.94929 32.9903 9.96148 32.9903 9.96148L37.9704 11.9957C37.9704 11.9957 38.6098 12.4328 38.7345 11.6901C38.8095 11.2416 38.8551 10.5506 38.5669 9.71015Z" fill="#009DEF"/>
</svg>
