<svg width="35" height="40" viewBox="0 0 35 40" fill="none" xmlns="http://www.w3.org/2000/svg">
<path d="M24.8264 27.6404C29.3379 27.2402 34.0445 24.3873 34.0445 24.3873C34.0445 24.3873 28.9091 22.4076 24.3976 22.8079C24.104 22.834 23.8203 22.864 23.5453 22.8975C24.1544 22.2189 24.7855 21.4462 25.4337 20.5728C29.1545 15.5588 30.5277 8.09679 30.5277 8.09679C30.5277 8.09679 24.1045 11.4081 20.3368 16.2284C20.3421 15.9316 20.3448 15.6292 20.3448 15.3202C20.345 7.99257 17.0223 0 17.0223 0C17.0223 0 13.6996 7.99257 13.6996 15.3201C13.6996 15.6291 13.7024 15.9314 13.7077 16.2282C9.93989 11.408 3.51681 8.09672 3.51681 8.09672C3.51681 8.09672 4.89005 15.5587 8.61079 20.5727C9.25891 21.4462 9.89003 22.2189 10.4992 22.8974C10.2243 22.8639 9.94052 22.834 9.64689 22.8078C5.13537 22.4076 0 24.3873 0 24.3873C0 24.3873 4.70663 27.2402 9.21808 27.6404C10.3836 27.7439 11.4131 27.762 12.3029 27.7098C10.331 29.702 9.14551 32.6577 9.14551 32.6577C9.14551 32.6577 12.5932 31.679 14.7851 29.7053C15.4381 29.1174 15.9571 28.5652 16.3493 28.0623C16.5094 29.3535 16.6899 31.3207 16.6639 33.4945C16.6303 36.296 16.0138 39.2123 16.0076 39.2415C15.9352 39.5803 16.1511 39.9135 16.4899 39.986C16.534 39.9956 16.5782 40 16.6217 40C16.9112 40 17.1714 39.7984 17.2345 39.5039C17.2609 39.3802 17.8833 36.4395 17.9184 33.5096C17.9452 31.2661 17.7646 29.2661 17.6003 27.9382C18.0023 28.4739 18.5524 29.0685 19.2595 29.7053C21.4513 31.679 24.899 32.6577 24.899 32.6577C24.899 32.6577 23.7137 29.702 21.7417 27.7098C22.6315 27.7619 23.6609 27.7439 24.8264 27.6404H24.8264Z" fill="#D4832A"/>
</svg>
