<svg xmlns="http://www.w3.org/2000/svg" viewBox="0 0 426.65 38.47"><defs><style>.cls-1{fill:#c3af3f;}</style></defs><title>st_title</title><g id="レイヤー_2" data-name="レイヤー 2"><g id="text_object" data-name="text/object"><path class="cls-1" d="M0,37.55V.92H7.6q8.21,0,11.92,1.32a15.9,15.9,0,0,1,8.33,6.48,19.67,19.67,0,0,1,3,11,19.26,19.26,0,0,1-2.37,9.68,15.31,15.31,0,0,1-6.18,6.18q-3.8,2-10.65,2Zm3.51-3.46H7.75q7.59,0,10.53-.94a12.21,12.21,0,0,0,6.5-4.84,14.87,14.87,0,0,0,2.36-8.55,15.7,15.7,0,0,0-2.56-9.06,12.93,12.93,0,0,0-7.15-5.15q-3.43-1-11.33-1H3.51Z"/><path class="cls-1" d="M38.86.92h4.28l8.77,14.26L60.73.92H65L54,18.62,65.68,37.55H61.4L51.88,22.09,42.34,37.55H38.06l11.7-18.91Z"/><path class="cls-1" d="M92.52,4.51V.92H112.6V4.51h-8.17v33h-3.74v-33Z"/><path class="cls-1" d="M121.54.92h3.75l7.49,26.4L143.28.92H144l10.38,26.4L162,.92h3.73L155.24,37.55h-.68L143.69,9.84,132.6,37.55h-.68Z"/><path class="cls-1" d="M176.13.92h3.66V37.55h-3.66Z"/><path class="cls-1" d="M193.42,37.55V.92h.8L218.6,29V.92h3.61V37.55h-.82L197.21,9.81V37.55Z"/><path class="cls-1" d="M255.64.92h7.3a44.45,44.45,0,0,1,8.27.5,9.48,9.48,0,0,1,5.3,3.2,9.17,9.17,0,0,1,2,6.05,9.82,9.82,0,0,1-1.4,5.26,8.8,8.8,0,0,1-4,3.43,18.5,18.5,0,0,1-7.23,1.18l13.18,17h-4.53l-13.18-17H259.3v17h-3.66Zm3.66,3.59V17l6.31.05a15.55,15.55,0,0,0,5.43-.7,5.6,5.6,0,0,0,2.74-2.23,6.16,6.16,0,0,0,1-3.42,5.89,5.89,0,0,0-1-3.35,5.57,5.57,0,0,0-2.62-2.16,16,16,0,0,0-5.39-.64Z"/><path class="cls-1" d="M307.47,0A19,19,0,0,1,321.4,5.55,18.5,18.5,0,0,1,327,19.22a18.58,18.58,0,0,1-5.6,13.65,18.52,18.52,0,0,1-13.64,5.6A18.72,18.72,0,0,1,294,32.9a18.34,18.34,0,0,1-5.61-13.5A19.57,19.57,0,0,1,291,9.61,18.87,18.87,0,0,1,307.47,0Zm.16,3.56a15.07,15.07,0,0,0-7.7,2.12,15.14,15.14,0,0,0-5.69,5.71,15.9,15.9,0,0,0-2,8,14.91,14.91,0,0,0,4.52,11,14.93,14.93,0,0,0,10.91,4.5,15.67,15.67,0,0,0,7.9-2.07,14.77,14.77,0,0,0,5.66-5.65,15.87,15.87,0,0,0,2-8,15.48,15.48,0,0,0-2-7.89,15.19,15.19,0,0,0-5.72-5.64A15.57,15.57,0,0,0,307.63,3.56Z"/><path class="cls-1" d="M356.18,0a19,19,0,0,1,13.93,5.55,18.5,18.5,0,0,1,5.61,13.67,18.57,18.57,0,0,1-5.59,13.65,18.54,18.54,0,0,1-13.65,5.6,18.73,18.73,0,0,1-13.75-5.57,18.34,18.34,0,0,1-5.61-13.5,19.47,19.47,0,0,1,2.56-9.79A18.84,18.84,0,0,1,356.18,0Zm.17,3.56a15.13,15.13,0,0,0-7.71,2.12A15.21,15.21,0,0,0,343,11.39a15.9,15.9,0,0,0-2,8,14.94,14.94,0,0,0,4.52,11,14.93,14.93,0,0,0,10.92,4.5,15.66,15.66,0,0,0,7.89-2.07,14.7,14.7,0,0,0,5.66-5.65,15.88,15.88,0,0,0,2-8,15.49,15.49,0,0,0-2-7.89,15.12,15.12,0,0,0-5.72-5.64A15.51,15.51,0,0,0,356.35,3.56Z"/><path class="cls-1" d="M385.31,37.55,390.55.92h.6L406,31,420.79.92h.59l5.27,36.63h-3.59l-3.62-26.19L406.49,37.55h-.94l-13.1-26.39-3.6,26.39Z"/></g></g></svg>