<svg width="15" height="15" viewBox="0 0 15 15" fill="none" xmlns="http://www.w3.org/2000/svg">
<mask id="mask0_290_48" style="mask-type:alpha" maskUnits="userSpaceOnUse" x="0" y="0" width="15" height="15">
<rect width="15" height="15" fill="#D9D9D9"/>
</mask>
<g mask="url(#mask0_290_48)">
<path d="M5.9375 12.5C7.32292 12.5 8.5026 12.013 9.47656 11.0391C10.4505 10.0651 10.9375 8.88542 10.9375 7.5C10.9375 6.11458 10.4505 4.9349 9.47656 3.96094C8.5026 2.98698 7.32292 2.5 5.9375 2.5H5.60938C5.50521 2.5 5.40625 2.51042 5.3125 2.53125C5.90625 3.21875 6.36719 3.98698 6.69531 4.83594C7.02344 5.6849 7.1875 6.57292 7.1875 7.5C7.1875 8.42708 7.02344 9.3151 6.69531 10.1641C6.36719 11.013 5.90625 11.7812 5.3125 12.4688C5.40625 12.4896 5.50521 12.5 5.60938 12.5H5.9375ZM5.9375 13.75C5.38542 13.75 4.84635 13.6797 4.32031 13.5391C3.79427 13.3984 3.29167 13.1875 2.8125 12.9062C3.78125 12.3438 4.54427 11.5833 5.10156 10.625C5.65885 9.66667 5.9375 8.625 5.9375 7.5C5.9375 6.375 5.65885 5.33333 5.10156 4.375C4.54427 3.41667 3.78125 2.65625 2.8125 2.09375C3.29167 1.8125 3.79427 1.60156 4.32031 1.46094C4.84635 1.32031 5.38542 1.25 5.9375 1.25C6.80208 1.25 7.61458 1.41406 8.375 1.74219C9.13542 2.07031 9.79688 2.51562 10.3594 3.07812C10.9219 3.64062 11.3672 4.30208 11.6953 5.0625C12.0234 5.82292 12.1875 6.63542 12.1875 7.5C12.1875 8.36458 12.0234 9.17708 11.6953 9.9375C11.3672 10.6979 10.9219 11.3594 10.3594 11.9219C9.79688 12.4844 9.13542 12.9297 8.375 13.2578C7.61458 13.5859 6.80208 13.75 5.9375 13.75Z" fill="#3D2604"/>
</g>
</svg>
