<svg width="30" height="30" viewBox="0 0 30 30" fill="none" xmlns="http://www.w3.org/2000/svg">
<mask id="mask0_371_970" style="mask-type:alpha" maskUnits="userSpaceOnUse" x="0" y="0" width="30" height="30">
<rect width="30" height="30" fill="#D9D9D9"/>
</mask>
<g mask="url(#mask0_371_970)">
<path d="M15 14.9999C15.6875 14.9999 16.276 14.7551 16.7656 14.2655C17.2552 13.7759 17.5 13.1874 17.5 12.4999C17.5 11.8124 17.2552 11.2238 16.7656 10.7343C16.276 10.2447 15.6875 9.99988 15 9.99988C14.3125 9.99988 13.724 10.2447 13.2344 10.7343C12.7448 11.2238 12.5 11.8124 12.5 12.4999C12.5 13.1874 12.7448 13.7759 13.2344 14.2655C13.724 14.7551 14.3125 14.9999 15 14.9999ZM15 24.1874C17.5417 21.854 19.4271 19.7343 20.6563 17.828C21.8854 15.9218 22.5 14.229 22.5 12.7499C22.5 10.479 21.776 8.61967 20.3281 7.17175C18.8802 5.72384 17.1042 4.99988 15 4.99988C12.8958 4.99988 11.1198 5.72384 9.67188 7.17175C8.22396 8.61967 7.5 10.479 7.5 12.7499C7.5 14.229 8.11458 15.9218 9.34375 17.828C10.5729 19.7343 12.4583 21.854 15 24.1874ZM15 27.4999C11.6458 24.6457 9.14062 21.9947 7.48438 19.5468C5.82812 17.0988 5 14.8332 5 12.7499C5 9.62488 6.00521 7.1353 8.01563 5.28113C10.026 3.42696 12.3542 2.49988 15 2.49988C17.6458 2.49988 19.974 3.42696 21.9844 5.28113C23.9948 7.1353 25 9.62488 25 12.7499C25 14.8332 24.1719 17.0988 22.5156 19.5468C20.8594 21.9947 18.3542 24.6457 15 27.4999Z" fill="#3D2604"/>
</g>
</svg>
