<svg id="レイヤー_1" data-name="レイヤー 1" xmlns="http://www.w3.org/2000/svg" viewBox="0 0 19 40.7"><defs><style>.cls-1{fill:#fff;fill-rule:evenodd;}</style></defs><path class="cls-1" d="M4.2,30.5V20.9c0-.5-.2-.7-.7-.7H.5c-.4,0-.5-.1-.5-.5v-6c0-.4.1-.5.5-.5h3c.6,0,.7-.2.7-.7V7.9A8.8,8.8,0,0,1,5.9,3,7,7,0,0,1,11.5.1h7c.4,0,.5.1.5.4v6c0,.4-.1.5-.5.5H15.1a2.1,2.1,0,0,0-2.4,1.9v.3c-.1,1.2,0,2.4-.1,3.6s.2.4.5.4h5.2c.5,0,.6.1.6.7l-.6,6c0,.4-.2.5-.6.5H13.6c-1,0-.9-.1-.9.9V39.9c0,.6-.1.8-.8.8-2.3-.1-4.6-.1-7,0-.6,0-.7-.2-.7-.8Z" transform="translate(0 0)"/></svg>