<svg width="192" height="194" viewBox="0 0 192 194" fill="none" xmlns="http://www.w3.org/2000/svg">
<g id="_&#227;&#131;&#172;&#227;&#130;&#164;&#227;&#131;&#164;&#227;&#131;&#188;_1" clip-path="url(#clip0_1_990)">
<path id="Vector" d="M91.5859 3.40843C92.7343 2.0238 94.7901 1.84057 96.1747 2.98896C97.5594 4.13734 97.7426 6.19319 96.5942 7.57783C95.4458 8.96246 93.39 9.14569 92.0053 7.99731C90.6207 6.84892 90.4375 4.79307 91.5859 3.40843Z" fill="#7EC7E6"/>
<path id="Vector_2" d="M77.4091 20.4211C78.5575 19.0365 80.6133 18.8533 81.998 20.0017C83.3826 21.15 83.5658 23.2059 82.4175 24.5905C81.2691 25.9752 79.2132 26.1584 77.8286 25.01C76.4439 23.8616 76.2607 21.8058 77.4091 20.4211Z" fill="#7EC7E6"/>
<path id="Vector_3" d="M63.225 37.4407C64.3734 36.056 66.4293 35.8728 67.8139 37.0212C69.1985 38.1696 69.3818 40.2254 68.2334 41.6101C67.085 42.9947 65.0291 43.1779 63.6445 42.0295C62.2599 40.8811 62.0766 38.8253 63.225 37.4407Z" fill="#7EC7E6"/>
<path id="Vector_4" d="M49.0488 54.4534C50.1971 53.0687 52.253 52.8855 53.6376 54.0339C55.0223 55.1823 55.2055 57.2381 54.0571 58.6227C52.9087 60.0074 50.8529 60.1906 49.4682 59.0422C48.0836 57.8938 47.9004 55.838 49.0488 54.4534Z" fill="#7EC7E6"/>
<path id="Vector_5" d="M115.457 28.5135C116.953 27.5151 118.979 27.911 119.977 29.4074C120.976 30.9039 120.58 32.9296 119.083 33.9279C117.587 34.9262 115.561 34.5304 114.563 33.0339C113.565 31.5375 113.961 29.5118 115.457 28.5135Z" fill="#7EC7E6"/>
<path id="Vector_6" d="M97.0561 40.8526C98.5525 39.8543 100.578 40.2501 101.577 41.7465C102.575 43.243 102.179 45.2687 100.683 46.267C99.1861 47.2653 97.1604 46.8695 96.1621 45.373C95.1638 43.8766 95.5596 41.8509 97.0561 40.8526Z" fill="#7EC7E6"/>
<path id="Vector_7" d="M78.6625 53.1848C80.159 52.1865 82.1847 52.5824 83.183 54.0788C84.1813 55.5753 83.7855 57.601 82.289 58.5993C80.7926 59.5976 78.7669 59.2018 77.7686 57.7053C76.7703 56.2088 77.1661 54.1832 78.6625 53.1848Z" fill="#7EC7E6"/>
<path id="Vector_8" d="M60.2548 65.5164C61.7513 64.5181 63.777 64.9139 64.7753 66.4104C65.7736 67.9068 65.3778 69.9325 63.8813 70.9308C62.3849 71.9291 60.3592 71.5333 59.3608 70.0368C58.3625 68.5404 58.7584 66.5147 60.2548 65.5164Z" fill="#7EC7E6"/>
<path id="Vector_9" d="M131.291 59.339C133.011 58.7985 134.838 59.7504 135.372 61.4634C135.906 63.1764 134.96 65.0106 133.247 65.5445C131.527 66.085 129.7 65.1331 129.166 63.4201C128.626 61.6997 129.578 59.8729 131.291 59.339Z" fill="#7EC7E6"/>
<path id="Vector_10" d="M110.156 65.9843C111.876 65.4438 113.703 66.3957 114.237 68.1087C114.778 69.8291 113.826 71.6559 112.113 72.1898C110.392 72.7304 108.565 71.7784 108.032 70.0654C107.491 68.345 108.443 66.5182 110.156 65.9843Z" fill="#7EC7E6"/>
<path id="Vector_11" d="M89.0275 72.6372C90.7479 72.0966 92.5747 73.0485 93.1086 74.7615C93.6491 76.482 92.6972 78.3088 90.9842 78.8426C89.2638 79.3832 87.437 78.4313 86.9031 76.7183C86.3625 74.9978 87.3145 73.171 89.0275 72.6372Z" fill="#7EC7E6"/>
<path id="Vector_12" d="M67.8995 79.29C69.62 78.7494 71.4468 79.7014 71.9806 81.4144C72.5212 83.1348 71.5693 84.9616 69.8563 85.4955C68.1358 86.036 66.309 85.0841 65.7752 83.3711C65.2346 81.6507 66.1865 79.8239 67.8995 79.29Z" fill="#7EC7E6"/>
<path id="Vector_13" d="M137.789 93.3672C139.589 93.3335 141.072 94.7561 141.106 96.5564C141.14 98.3566 139.717 99.8403 137.917 99.8739C136.117 99.9076 134.633 98.485 134.599 96.6848C134.566 94.8845 135.988 93.4009 137.789 93.3672Z" fill="#7EC7E6"/>
<path id="Vector_14" d="M115.646 93.8C117.446 93.7663 118.93 95.1889 118.964 96.9891C118.997 98.7894 117.575 100.273 115.774 100.307C113.974 100.34 112.49 98.9178 112.457 97.1175C112.423 95.3173 113.846 93.8336 115.646 93.8Z" fill="#7EC7E6"/>
<path id="Vector_15" d="M93.497 94.2252C95.2973 94.1916 96.7809 95.6142 96.8146 97.4144C96.8483 99.2147 95.4257 100.698 93.6254 100.732C91.8252 100.766 90.3415 99.3431 90.3079 97.5428C90.2742 95.7426 91.6968 94.2589 93.497 94.2252Z" fill="#7EC7E6"/>
<path id="Vector_16" d="M71.3545 94.6579C73.1547 94.6242 74.6383 96.0468 74.672 97.847C74.7057 99.6473 73.2831 101.131 71.4829 101.165C69.6826 101.198 68.199 99.7757 68.1653 97.9754C68.1316 96.1752 69.5542 94.6915 71.3545 94.6579Z" fill="#7EC7E6"/>
<path id="Vector_17" d="M134.448 127.86C136.18 128.333 137.205 130.128 136.732 131.859C136.26 133.591 134.464 134.616 132.733 134.143C131.002 133.671 129.976 131.876 130.449 130.144C130.922 128.413 132.717 127.388 134.448 127.86Z" fill="#7EC7E6"/>
<path id="Vector_18" d="M113.079 122.024C114.81 122.497 115.835 124.292 115.363 126.023C114.89 127.755 113.095 128.78 111.363 128.307C109.632 127.835 108.607 126.04 109.079 124.308C109.552 122.577 111.347 121.552 113.079 122.024Z" fill="#7EC7E6"/>
<path id="Vector_19" d="M91.7079 116.202C93.4393 116.675 94.4645 118.47 93.992 120.202C93.5194 121.933 91.7242 122.958 89.9928 122.486C88.2614 122.013 87.2362 120.218 87.7087 118.486C88.1813 116.755 89.9765 115.73 91.7079 116.202Z" fill="#7EC7E6"/>
<path id="Vector_20" d="M70.3378 110.366C72.0692 110.839 73.0944 112.634 72.6219 114.366C72.1493 116.097 70.3541 117.122 68.6227 116.65C66.8913 116.177 65.8661 114.382 66.3386 112.651C66.8112 110.919 68.6064 109.894 70.3378 110.366Z" fill="#7EC7E6"/>
<path id="Vector_21" d="M121.523 160.006C123.06 160.95 123.529 162.95 122.585 164.486C121.641 166.023 119.641 166.493 118.105 165.549C116.568 164.605 116.098 162.605 117.042 161.068C117.986 159.531 119.986 159.062 121.523 160.006Z" fill="#7EC7E6"/>
<path id="Vector_22" d="M102.656 148.388C104.193 149.332 104.663 151.332 103.719 152.869C102.775 154.406 100.775 154.875 99.2379 153.931C97.701 152.987 97.2316 150.987 98.1755 149.45C99.1194 147.913 101.119 147.444 102.656 148.388Z" fill="#7EC7E6"/>
<path id="Vector_23" d="M83.7964 136.777C85.3333 137.721 85.8026 139.721 84.8587 141.258C83.9149 142.795 81.9149 143.264 80.378 142.321C78.8411 141.377 78.3717 139.377 79.3156 137.84C80.2595 136.303 82.2595 135.833 83.7964 136.777Z" fill="#7EC7E6"/>
<path id="Vector_24" d="M64.936 125.167C66.4729 126.111 66.9423 128.111 65.9984 129.648C65.0545 131.185 63.0546 131.654 61.5176 130.71C59.9807 129.766 59.5114 127.766 60.4553 126.229C61.3992 124.692 63.3991 124.223 64.936 125.167Z" fill="#7EC7E6"/>
<path id="Vector_25" d="M100.061 187.203C101.265 188.541 101.158 190.603 99.8207 191.807C98.4834 193.012 96.4215 192.905 95.2166 191.568C94.0118 190.23 94.1192 188.168 95.4564 186.963C96.7937 185.759 98.8557 185.866 100.061 187.203Z" fill="#7EC7E6"/>
<path id="Vector_26" d="M85.2344 170.747C86.4392 172.085 86.3318 174.147 84.9945 175.351C83.6573 176.556 81.5953 176.449 80.3904 175.112C79.1856 173.774 79.293 171.712 80.6303 170.508C81.9675 169.303 84.0295 169.41 85.2344 170.747Z" fill="#7EC7E6"/>
<path id="Vector_27" d="M70.4077 154.291C71.6126 155.629 71.5052 157.691 70.1679 158.896C68.8306 160.1 66.7686 159.993 65.5638 158.656C64.3589 157.318 64.4663 155.256 65.8036 154.052C67.1409 152.847 69.2028 152.954 70.4077 154.291Z" fill="#7EC7E6"/>
<path id="Vector_28" d="M55.581 137.835C56.7859 139.173 56.6785 141.235 55.3412 142.44C54.0039 143.644 51.942 143.537 50.7371 142.2C49.5323 140.862 49.6397 138.801 50.9769 137.596C52.3142 136.391 54.3762 136.498 55.581 137.835Z" fill="#7EC7E6"/>
</g>
<defs>
<clipPath id="clip0_1_990">
<rect width="126.96" height="145.52" fill="white" transform="translate(191.729 109) rotate(137.982)"/>
</clipPath>
</defs>
</svg>
