<svg width="50" height="110" viewBox="0 0 50 110" fill="none" xmlns="http://www.w3.org/2000/svg">
<g id="Group 57">
<path id="Vector" d="M23.3701 1.43462C23.9713 0.645941 25.0475 0.541556 25.7724 1.19565C26.4972 1.84974 26.5931 3.02073 25.9919 3.80941C25.3907 4.59809 24.3145 4.70248 23.5897 4.04839C22.8648 3.3943 22.7689 2.22331 23.3701 1.43462Z" fill="#7EC7E6"/>
<path id="Vector_2" d="M15.9478 11.1258C16.5489 10.3371 17.6252 10.2327 18.35 10.8868C19.0748 11.5409 19.1707 12.7119 18.5695 13.5006C17.9684 14.2893 16.8921 14.3936 16.1673 13.7395C15.4425 13.0855 15.3466 11.9145 15.9478 11.1258Z" fill="#7EC7E6"/>
<path id="Vector_3" d="M8.52149 20.8211C9.12267 20.0324 10.1989 19.928 10.9237 20.5821C11.6486 21.2362 11.7445 22.4072 11.1433 23.1959C10.5421 23.9846 9.46586 24.0889 8.74103 23.4349C8.01619 22.7808 7.9203 21.6098 8.52149 20.8211Z" fill="#7EC7E6"/>
<path id="Vector_4" d="M1.09961 30.5132C1.7008 29.7246 2.77702 29.6202 3.50186 30.2743C4.22669 30.9284 4.32259 32.0993 3.72141 32.888C3.12022 33.6767 2.044 33.7811 1.31916 33.127C0.594324 32.4729 0.498429 31.3019 1.09961 30.5132Z" fill="#7EC7E6"/>
<path id="Vector_5" d="M35.8681 15.7351C36.6514 15.1664 37.7119 15.3919 38.2345 16.2442C38.7571 17.0966 38.5498 18.2504 37.7664 18.819C36.983 19.3877 35.9226 19.1622 35.4 18.3099C34.8774 17.4575 35.0847 16.3037 35.8681 15.7351Z" fill="#7EC7E6"/>
<path id="Vector_6" d="M26.2338 22.7644C27.0172 22.1957 28.0776 22.4212 28.6002 23.2735C29.1228 24.1259 28.9156 25.2797 28.1322 25.8483C27.3488 26.417 26.2883 26.1915 25.7657 25.3392C25.2432 24.4868 25.4504 23.333 26.2338 22.7644Z" fill="#7EC7E6"/>
<path id="Vector_7" d="M16.6039 29.7898C17.3873 29.2211 18.4477 29.4465 18.9703 30.2989C19.4929 31.1513 19.2857 32.3051 18.5023 32.8737C17.7189 33.4424 16.6585 33.2169 16.1359 32.3646C15.6133 31.5122 15.8205 30.3584 16.6039 29.7898Z" fill="#7EC7E6"/>
<path id="Vector_8" d="M6.96619 36.8144C7.74959 36.2458 8.81002 36.4712 9.33261 37.3236C9.85521 38.1759 9.64798 39.3297 8.86458 39.8984C8.08119 40.467 7.02076 40.2416 6.49816 39.3892C5.97557 38.5369 6.1828 37.3831 6.96619 36.8144Z" fill="#7EC7E6"/>
<path id="Vector_9" d="M44.1577 33.2955C45.0583 32.9876 46.0146 33.5297 46.2941 34.5054C46.5735 35.4811 46.0787 36.5259 45.182 36.83C44.2813 37.1379 43.325 36.5957 43.0456 35.62C42.7626 34.6401 43.2609 33.5996 44.1577 33.2955Z" fill="#7EC7E6"/>
<path id="Vector_10" d="M33.0927 37.0814C33.9933 36.7735 34.9496 37.3157 35.2291 38.2914C35.512 39.2713 35.0137 40.3118 34.117 40.616C33.2163 40.9239 32.26 40.3817 31.9806 39.406C31.6976 38.4261 32.1959 37.3855 33.0927 37.0814Z" fill="#7EC7E6"/>
<path id="Vector_11" d="M22.0307 40.8717C22.9313 40.5638 23.8876 41.106 24.1671 42.0817C24.45 43.0616 23.9517 44.1021 23.0549 44.4062C22.1543 44.7142 21.198 44.172 20.9185 43.1963C20.6356 42.2163 21.1339 41.1758 22.0307 40.8717Z" fill="#7EC7E6"/>
<path id="Vector_12" d="M10.9687 44.661C11.8693 44.3531 12.8256 44.8953 13.1051 45.871C13.388 46.8509 12.8897 47.8914 11.9929 48.1955C11.0923 48.5035 10.136 47.9613 9.85653 46.9856C9.57357 46.0056 10.0719 44.9651 10.9687 44.661Z" fill="#7EC7E6"/>
<path id="Vector_13" d="M47.5597 52.6802C48.5021 52.661 49.2787 53.4713 49.2964 54.4967C49.314 55.5221 48.5692 56.3672 47.6268 56.3864C46.6844 56.4056 45.9077 55.5953 45.8901 54.5699C45.8725 53.5445 46.6173 52.6994 47.5597 52.6802Z" fill="#7EC7E6"/>
<path id="Vector_14" d="M35.9669 52.9273C36.9093 52.9081 37.686 53.7184 37.7036 54.7438C37.7212 55.7692 36.9765 56.6142 36.034 56.6334C35.0916 56.6526 34.315 55.8424 34.2974 54.817C34.2797 53.7916 35.0245 52.9465 35.9669 52.9273Z" fill="#7EC7E6"/>
<path id="Vector_15" d="M24.3707 53.1695C25.3131 53.1503 26.0898 53.9606 26.1074 54.986C26.125 56.0113 25.3803 56.8564 24.4379 56.8756C23.4954 56.8948 22.7188 56.0845 22.7012 55.0592C22.6835 54.0338 23.4283 53.1887 24.3707 53.1695Z" fill="#7EC7E6"/>
<path id="Vector_16" d="M12.7774 53.4161C13.7199 53.3969 14.4965 54.2071 14.5141 55.2325C14.5317 56.2579 13.787 57.103 12.8446 57.1222C11.9022 57.1414 11.1255 56.3311 11.1079 55.3057C11.0903 54.2803 11.835 53.4353 12.7774 53.4161Z" fill="#7EC7E6"/>
<path id="Vector_17" d="M45.8108 72.3301C46.7172 72.5992 47.2539 73.6217 47.0065 74.6079C46.7591 75.5941 45.8193 76.1781 44.9129 75.9089C44.0065 75.6398 43.4699 74.6173 43.7172 73.6311C43.9646 72.6449 44.9044 72.0609 45.8108 72.3301Z" fill="#7EC7E6"/>
<path id="Vector_18" d="M34.6223 69.0049C35.5287 69.274 36.0654 70.2965 35.818 71.2827C35.5706 72.2689 34.6308 72.8529 33.7244 72.5838C32.8181 72.3146 32.2814 71.2921 32.5288 70.3059C32.7762 69.3197 33.716 68.7357 34.6223 69.0049Z" fill="#7EC7E6"/>
<path id="Vector_19" d="M23.4339 65.6882C24.3402 65.9574 24.8769 66.9799 24.6295 67.9661C24.3821 68.9523 23.4423 69.5362 22.5359 69.2671C21.6296 68.998 21.0929 67.9754 21.3403 66.9892C21.5877 66.0031 22.5275 65.4191 23.4339 65.6882Z" fill="#7EC7E6"/>
<path id="Vector_20" d="M12.2454 62.364C13.1517 62.6331 13.6884 63.6557 13.441 64.6419C13.1936 65.628 12.2538 66.212 11.3475 65.9429C10.4411 65.6737 9.90442 64.6512 10.1518 63.665C10.3992 62.6788 11.339 62.0949 12.2454 62.364Z" fill="#7EC7E6"/>
<path id="Vector_21" d="M39.0434 90.6413C39.8479 91.1789 40.0936 92.318 39.5995 93.1934C39.1053 94.0689 38.0584 94.3362 37.2538 93.7986C36.4493 93.261 36.2036 92.1218 36.6977 91.2464C37.1919 90.371 38.2388 90.1037 39.0434 90.6413Z" fill="#7EC7E6"/>
<path id="Vector_22" d="M29.1659 84.0231C29.9705 84.5607 30.2162 85.6999 29.722 86.5753C29.2279 87.4507 28.1809 87.718 27.3764 87.1804C26.5718 86.6428 26.3261 85.5037 26.8203 84.6283C27.3144 83.7529 28.3614 83.4855 29.1659 84.0231Z" fill="#7EC7E6"/>
<path id="Vector_23" d="M19.2914 77.4091C20.096 77.9467 20.3417 79.0859 19.8475 79.9613C19.3534 80.8367 18.3064 81.104 17.5019 80.5664C16.6973 80.0288 16.4516 78.8897 16.9458 78.0143C17.4399 77.1388 18.4869 76.8715 19.2914 77.4091Z" fill="#7EC7E6"/>
<path id="Vector_24" d="M9.41691 70.7951C10.2215 71.3327 10.4671 72.4718 9.97301 73.3473C9.47887 74.2227 8.43191 74.49 7.62736 73.9524C6.82281 73.4148 6.57712 72.2756 7.07126 71.4002C7.5654 70.5248 8.61236 70.2575 9.41691 70.7951Z" fill="#7EC7E6"/>
<path id="Vector_25" d="M27.8069 106.135C28.4376 106.896 28.3814 108.071 27.6813 108.757C26.9813 109.443 25.9018 109.382 25.2711 108.621C24.6404 107.859 24.6966 106.684 25.3967 105.998C26.0968 105.312 27.1762 105.373 27.8069 106.135Z" fill="#7EC7E6"/>
<path id="Vector_26" d="M20.0442 96.7611C20.6749 97.5228 20.6187 98.6973 19.9186 99.3836C19.2186 100.07 18.1391 100.009 17.5084 99.247C16.8777 98.4853 16.9339 97.3109 17.634 96.6246C18.3341 95.9383 19.4135 95.9994 20.0442 96.7611Z" fill="#7EC7E6"/>
<path id="Vector_27" d="M12.2815 87.3869C12.9122 88.1485 12.856 89.323 12.1559 90.0093C11.4559 90.6956 10.3764 90.6344 9.74572 89.8728C9.11499 89.1111 9.17124 87.9366 9.87131 87.2503C10.5714 86.564 11.6508 86.6252 12.2815 87.3869Z" fill="#7EC7E6"/>
<path id="Vector_28" d="M4.51931 78.0116C5.15003 78.7733 5.09379 79.9478 4.39372 80.6341C3.69365 81.3203 2.61423 81.2592 1.98351 80.4975C1.35279 79.7358 1.40903 78.5614 2.1091 77.8751C2.80917 77.1888 3.88859 77.2499 4.51931 78.0116Z" fill="#7EC7E6"/>
</g>
</svg>
