<svg width="192" height="194" viewBox="0 0 192 194" fill="none" xmlns="http://www.w3.org/2000/svg">
<g id="_&#227;&#131;&#172;&#227;&#130;&#164;&#227;&#131;&#164;&#227;&#131;&#188;_1" clip-path="url(#clip0_1_961)">
<path id="Vector" d="M100.144 190.592C98.9952 191.976 96.9394 192.16 95.5548 191.011C94.1701 189.863 93.9869 187.807 95.1353 186.422C96.2837 185.038 98.3395 184.854 99.7241 186.003C101.109 187.151 101.292 189.207 100.144 190.592Z" fill="#7EC7E6"/>
<path id="Vector_2" d="M114.319 173.579C113.171 174.964 111.115 175.147 109.731 173.998C108.346 172.85 108.163 170.794 109.311 169.409C110.459 168.025 112.515 167.842 113.9 168.99C115.285 170.138 115.468 172.194 114.319 173.579Z" fill="#7EC7E6"/>
<path id="Vector_3" d="M128.504 156.559C127.356 157.944 125.3 158.127 123.915 156.979C122.53 155.831 122.347 153.775 123.496 152.39C124.644 151.005 126.7 150.822 128.085 151.971C129.469 153.119 129.652 155.175 128.504 156.559Z" fill="#7EC7E6"/>
<path id="Vector_4" d="M142.681 139.547C141.532 140.931 139.477 141.115 138.092 139.966C136.707 138.818 136.524 136.762 137.672 135.377C138.821 133.993 140.877 133.809 142.261 134.958C143.646 136.106 143.829 138.162 142.681 139.547Z" fill="#7EC7E6"/>
<path id="Vector_5" d="M76.272 165.486C74.7756 166.485 72.7499 166.089 71.7516 164.592C70.7533 163.096 71.1491 161.07 72.6455 160.072C74.142 159.074 76.1677 159.47 77.166 160.966C78.1643 162.462 77.7685 164.488 76.272 165.486Z" fill="#7EC7E6"/>
<path id="Vector_6" d="M94.6734 153.147C93.1769 154.146 91.1513 153.75 90.1529 152.253C89.1546 150.757 89.5505 148.731 91.0469 147.733C92.5434 146.735 94.5691 147.131 95.5674 148.627C96.5657 150.123 96.1699 152.149 94.6734 153.147Z" fill="#7EC7E6"/>
<path id="Vector_7" d="M113.067 140.815C111.571 141.813 109.545 141.418 108.547 139.921C107.548 138.425 107.944 136.399 109.44 135.401C110.937 134.402 112.963 134.798 113.961 136.295C114.959 137.791 114.563 139.817 113.067 140.815Z" fill="#7EC7E6"/>
<path id="Vector_8" d="M131.474 128.484C129.978 129.482 127.952 129.086 126.954 127.59C125.955 126.093 126.351 124.068 127.848 123.069C129.344 122.071 131.37 122.467 132.368 123.963C133.366 125.46 132.971 127.485 131.474 128.484Z" fill="#7EC7E6"/>
<path id="Vector_9" d="M60.4383 134.661C58.7178 135.202 56.8911 134.25 56.3572 132.537C55.8233 130.824 56.7685 128.989 58.4815 128.456C60.202 127.915 62.0288 128.867 62.5626 130.58C63.1032 132.3 62.1513 134.127 60.4383 134.661Z" fill="#7EC7E6"/>
<path id="Vector_10" d="M81.5731 128.016C79.8527 128.556 78.0259 127.604 77.492 125.891C76.9515 124.171 77.9034 122.344 79.6164 121.81C81.3368 121.27 83.1636 122.222 83.6975 123.935C84.238 125.655 83.2861 127.482 81.5731 128.016Z" fill="#7EC7E6"/>
<path id="Vector_11" d="M102.701 121.363C100.981 121.903 99.1538 120.951 98.62 119.238C98.0794 117.518 99.0313 115.691 100.744 115.157C102.465 114.617 104.292 115.569 104.825 117.282C105.366 119.002 104.414 120.829 102.701 121.363Z" fill="#7EC7E6"/>
<path id="Vector_12" d="M123.83 114.71C122.11 115.251 120.283 114.299 119.749 112.586C119.208 110.865 120.16 109.039 121.873 108.505C123.594 107.964 125.42 108.916 125.954 110.629C126.495 112.349 125.543 114.176 123.83 114.71Z" fill="#7EC7E6"/>
<path id="Vector_13" d="M53.94 100.633C52.1397 100.666 50.6561 99.2439 50.6224 97.4436C50.5887 95.6434 52.0113 94.1597 53.8116 94.1261C55.6118 94.0924 57.0955 95.515 57.1291 97.3152C57.1628 99.1155 55.7402 100.599 53.94 100.633Z" fill="#7EC7E6"/>
<path id="Vector_14" d="M76.0826 100.2C74.2823 100.234 72.7987 98.8111 72.765 97.0109C72.7313 95.2106 74.1539 93.727 75.9542 93.6933C77.7544 93.6596 79.238 95.0822 79.2717 96.8825C79.3054 98.6827 77.8828 100.166 76.0826 100.2Z" fill="#7EC7E6"/>
<path id="Vector_15" d="M98.232 99.7748C96.4317 99.8084 94.9481 98.3858 94.9144 96.5856C94.8807 94.7853 96.3033 93.3017 98.1036 93.268C99.9038 93.2343 101.387 94.6569 101.421 96.4572C101.455 98.2574 100.032 99.7411 98.232 99.7748Z" fill="#7EC7E6"/>
<path id="Vector_16" d="M120.375 99.3421C118.574 99.3758 117.091 97.9532 117.057 96.153C117.023 94.3527 118.446 92.8691 120.246 92.8354C122.046 92.8017 123.53 94.2243 123.564 96.0246C123.597 97.8248 122.175 99.3085 120.375 99.3421Z" fill="#7EC7E6"/>
<path id="Vector_17" d="M57.2809 66.1399C55.5495 65.6673 54.5242 63.8721 54.9968 62.1407C55.4693 60.4093 57.2646 59.3841 58.996 59.8566C60.7273 60.3292 61.7526 62.1244 61.28 63.8558C60.8075 65.5872 59.0123 66.6124 57.2809 66.1399Z" fill="#7EC7E6"/>
<path id="Vector_18" d="M78.651 71.9758C76.9196 71.5033 75.8944 69.708 76.3669 67.9767C76.8394 66.2453 78.6347 65.22 80.3661 65.6926C82.0975 66.1651 83.1227 67.9604 82.6502 69.6917C82.1776 71.4231 80.3824 72.4484 78.651 71.9758Z" fill="#7EC7E6"/>
<path id="Vector_19" d="M100.021 77.7976C98.2897 77.3251 97.2645 75.5298 97.737 73.7984C98.2096 72.067 100.005 71.0418 101.736 71.5144C103.468 71.9869 104.493 73.7821 104.02 75.5135C103.548 77.2449 101.752 78.2701 100.021 77.7976Z" fill="#7EC7E6"/>
<path id="Vector_20" d="M121.391 83.6335C119.66 83.161 118.635 81.3658 119.107 79.6344C119.58 77.903 121.375 76.8777 123.106 77.3503C124.838 77.8228 125.863 79.6181 125.39 81.3495C124.918 83.0809 123.123 84.1061 121.391 83.6335Z" fill="#7EC7E6"/>
<path id="Vector_21" d="M70.2061 33.9942C68.6692 33.0503 68.1998 31.0504 69.1437 29.5135C70.0876 27.9766 72.0875 27.5072 73.6244 28.4511C75.1613 29.395 75.6307 31.395 74.6868 32.9319C73.7429 34.4688 71.743 34.9381 70.2061 33.9942Z" fill="#7EC7E6"/>
<path id="Vector_22" d="M89.0732 45.6121C87.5363 44.6682 87.067 42.6683 88.0109 41.1314C88.9548 39.5945 90.9547 39.1251 92.4916 40.069C94.0285 41.0129 94.4979 43.0129 93.554 44.5498C92.6101 46.0867 90.6101 46.556 89.0732 45.6121Z" fill="#7EC7E6"/>
<path id="Vector_23" d="M107.933 57.2227C106.396 56.2788 105.926 54.2789 106.87 52.742C107.814 51.2051 109.814 50.7357 111.351 51.6796C112.888 52.6235 113.357 54.6235 112.413 56.1604C111.469 57.6973 109.47 58.1666 107.933 57.2227Z" fill="#7EC7E6"/>
<path id="Vector_24" d="M126.793 68.8331C125.256 67.8892 124.787 65.8892 125.731 64.3523C126.675 62.8154 128.674 62.3461 130.211 63.29C131.748 64.2339 132.218 66.2338 131.274 67.7707C130.33 69.3076 128.33 69.777 126.793 68.8331Z" fill="#7EC7E6"/>
<path id="Vector_25" d="M91.6685 6.79671C90.4636 5.45944 90.571 3.39748 91.9083 2.19262C93.2456 0.987757 95.3075 1.09516 96.5124 2.43244C97.7172 3.76971 97.6098 5.83167 96.2726 7.03653C94.9353 8.24139 92.8733 8.13399 91.6685 6.79671Z" fill="#7EC7E6"/>
<path id="Vector_26" d="M106.495 23.2525C105.29 21.9152 105.397 19.8533 106.734 18.6484C108.072 17.4436 110.134 17.551 111.339 18.8882C112.543 20.2255 112.436 22.2875 111.099 23.4923C109.761 24.6972 107.699 24.5898 106.495 23.2525Z" fill="#7EC7E6"/>
<path id="Vector_27" d="M121.321 39.7086C120.116 38.3713 120.223 36.3093 121.561 35.1045C122.898 33.8996 124.96 34.007 126.165 35.3443C127.37 36.6816 127.262 38.7435 125.925 39.9484C124.588 41.1533 122.526 41.0459 121.321 39.7086Z" fill="#7EC7E6"/>
<path id="Vector_28" d="M136.148 56.1646C134.943 54.8274 135.051 52.7654 136.388 51.5605C137.725 50.3557 139.787 50.4631 140.992 51.8004C142.197 53.1376 142.089 55.1996 140.752 56.4045C139.415 57.6093 137.353 57.5019 136.148 56.1646Z" fill="#7EC7E6"/>
</g>
<defs>
<clipPath id="clip0_1_961">
<rect width="126.96" height="145.52" fill="white" transform="translate(0 85) rotate(-42.0182)"/>
</clipPath>
</defs>
</svg>
