<svg width="50" height="110" viewBox="0 0 50 110" fill="none" xmlns="http://www.w3.org/2000/svg">
<g id="Group 58">
<g id="Group 56">
<path id="Vector" d="M26.6304 108.565C26.0292 109.354 24.953 109.458 24.2281 108.804C23.5033 108.15 23.4074 106.979 24.0086 106.191C24.6098 105.402 25.686 105.298 26.4108 105.952C27.1357 106.606 27.2316 107.777 26.6304 108.565Z" fill="#7EC7E6"/>
<path id="Vector_2" d="M34.0527 98.8737C33.4516 99.6624 32.3753 99.7668 31.6505 99.1127C30.9257 98.4586 30.8298 97.2876 31.4309 96.4989C32.0321 95.7103 33.1084 95.6059 33.8332 96.26C34.558 96.9141 34.6539 98.085 34.0527 98.8737Z" fill="#7EC7E6"/>
<path id="Vector_3" d="M41.4785 89.1784C40.8773 89.9671 39.8011 90.0715 39.0763 89.4174C38.3514 88.7633 38.2555 87.5923 38.8567 86.8036C39.4579 86.0149 40.5341 85.9106 41.259 86.5647C41.9838 87.2187 42.0797 88.3897 41.4785 89.1784Z" fill="#7EC7E6"/>
<path id="Vector_4" d="M48.9014 79.4863C48.3002 80.275 47.224 80.3793 46.4991 79.7252C45.7743 79.0712 45.6784 77.9002 46.2796 77.1115C46.8808 76.3228 47.957 76.2184 48.6818 76.8725C49.4067 77.5266 49.5026 78.6976 48.9014 79.4863Z" fill="#7EC7E6"/>
<path id="Vector_5" d="M14.1324 94.2637C13.3491 94.8323 12.2886 94.6069 11.766 93.7546C11.2434 92.9022 11.4507 91.7484 12.2341 91.1798C13.0174 90.6111 14.0779 90.8365 14.6005 91.6889C15.1231 92.5413 14.9158 93.6951 14.1324 94.2637Z" fill="#7EC7E6"/>
<path id="Vector_6" d="M23.7662 87.2351C22.9828 87.8038 21.9224 87.5783 21.3998 86.726C20.8772 85.8736 21.0844 84.7198 21.8678 84.1512C22.6512 83.5826 23.7117 83.808 24.2343 84.6603C24.7569 85.5127 24.5496 86.6665 23.7662 87.2351Z" fill="#7EC7E6"/>
<path id="Vector_7" d="M33.3966 80.2098C32.6132 80.7784 31.5528 80.553 31.0302 79.7006C30.5076 78.8483 30.7148 77.6944 31.4982 77.1258C32.2816 76.5572 33.342 76.7826 33.8646 77.6349C34.3872 78.4873 34.18 79.6411 33.3966 80.2098Z" fill="#7EC7E6"/>
<path id="Vector_8" d="M43.0338 73.1844C42.2504 73.753 41.19 73.5276 40.6674 72.6752C40.1448 71.8229 40.352 70.6691 41.1354 70.1004C41.9188 69.5318 42.9792 69.7572 43.5018 70.6096C44.0244 71.4619 43.8172 72.6157 43.0338 73.1844Z" fill="#7EC7E6"/>
<path id="Vector_9" d="M5.84281 76.7035C4.94217 77.0115 3.98586 76.4693 3.7064 75.4936C3.42694 74.5179 3.92178 73.4731 4.81853 73.169C5.71917 72.8611 6.67548 73.4033 6.95494 74.379C7.2379 75.3589 6.73956 76.3994 5.84281 76.7035Z" fill="#7EC7E6"/>
<path id="Vector_10" d="M16.9083 72.9186C16.0077 73.2265 15.0514 72.6843 14.7719 71.7086C14.4889 70.7287 14.9873 69.6882 15.884 69.384C16.7847 69.0761 17.741 69.6183 18.0204 70.594C18.3034 71.5739 17.8051 72.6145 16.9083 72.9186Z" fill="#7EC7E6"/>
<path id="Vector_11" d="M27.9698 69.1283C27.0692 69.4362 26.1129 68.894 25.8334 67.9183C25.5505 66.9384 26.0488 65.8979 26.9455 65.5938C27.8462 65.2858 28.8025 65.828 29.082 66.8037C29.3649 67.7837 28.8666 68.8242 27.9698 69.1283Z" fill="#7EC7E6"/>
<path id="Vector_12" d="M39.0314 65.3385C38.1307 65.6464 37.1744 65.1042 36.8949 64.1285C36.612 63.1486 37.1103 62.1081 38.0071 61.804C38.9077 61.4961 39.864 62.0382 40.1435 63.0139C40.4264 63.9939 39.9281 65.0344 39.0314 65.3385Z" fill="#7EC7E6"/>
<path id="Vector_13" d="M2.44083 57.3193C1.49841 57.3385 0.721747 56.5282 0.704134 55.5028C0.68652 54.4774 1.43126 53.6323 2.37368 53.6131C3.31609 53.5939 4.09276 54.4042 4.11037 55.4296C4.12798 56.455 3.38324 57.3001 2.44083 57.3193Z" fill="#7EC7E6"/>
<path id="Vector_14" d="M14.0336 57.0722C13.0912 57.0914 12.3145 56.2811 12.2969 55.2557C12.2793 54.2304 13.024 53.3853 13.9664 53.3661C14.9089 53.3469 15.6855 54.1572 15.7031 55.1825C15.7208 56.2079 14.976 57.053 14.0336 57.0722Z" fill="#7EC7E6"/>
<path id="Vector_15" d="M25.6303 56.8305C24.6879 56.8497 23.9112 56.0394 23.8936 55.014C23.876 53.9887 24.6207 53.1436 25.5631 53.1244C26.5055 53.1052 27.2822 53.9155 27.2998 54.9408C27.3174 55.9662 26.5727 56.8113 25.6303 56.8305Z" fill="#7EC7E6"/>
<path id="Vector_16" d="M37.2231 56.5835C36.2806 56.6027 35.504 55.7924 35.4864 54.767C35.4687 53.7416 36.2135 52.8965 37.1559 52.8773C38.0983 52.8581 38.875 53.6684 38.8926 54.6938C38.9102 55.7192 38.1655 56.5642 37.2231 56.5835Z" fill="#7EC7E6"/>
<path id="Vector_17" d="M4.18969 37.6704C3.28332 37.4013 2.74664 36.3787 2.99403 35.3926C3.24142 34.4064 4.18123 33.8224 5.08759 34.0915C5.99396 34.3607 6.53065 35.3832 6.28326 36.3694C6.03587 37.3556 5.09606 37.9396 4.18969 37.6704Z" fill="#7EC7E6"/>
<path id="Vector_18" d="M15.3777 40.9951C14.4713 40.726 13.9346 39.7035 14.182 38.7173C14.4294 37.7311 15.3692 37.1471 16.2756 37.4162C17.1819 37.6854 17.7186 38.7079 17.4712 39.6941C17.2239 40.6803 16.284 41.2643 15.3777 40.9951Z" fill="#7EC7E6"/>
<path id="Vector_19" d="M26.5666 44.3113C25.6603 44.0422 25.1236 43.0196 25.371 42.0334C25.6184 41.0473 26.5582 40.4633 27.4645 40.7324C28.3709 41.0015 28.9076 42.0241 28.6602 43.0103C28.4128 43.9964 27.473 44.5804 26.5666 44.3113Z" fill="#7EC7E6"/>
<path id="Vector_20" d="M37.7551 47.6355C36.8488 47.3664 36.3121 46.3438 36.5595 45.3577C36.8068 44.3715 37.7467 43.7875 38.653 44.0566C39.5594 44.3258 40.0961 45.3483 39.8487 46.3345C39.6013 47.3207 38.6615 47.9046 37.7551 47.6355Z" fill="#7EC7E6"/>
<path id="Vector_21" d="M10.9571 19.3582C10.1526 18.8206 9.90688 17.6815 10.401 16.8061C10.8952 15.9307 11.9421 15.6633 12.7467 16.2009C13.5512 16.7385 13.7969 17.8777 13.3028 18.7531C12.8086 19.6285 11.7617 19.8959 10.9571 19.3582Z" fill="#7EC7E6"/>
<path id="Vector_22" d="M20.835 25.9759C20.0305 25.4383 19.7848 24.2992 20.2789 23.4237C20.7731 22.5483 21.8201 22.281 22.6246 22.8186C23.4292 23.3562 23.6748 24.4953 23.1807 25.3708C22.6866 26.2462 21.6396 26.5135 20.835 25.9759Z" fill="#7EC7E6"/>
<path id="Vector_23" d="M30.7091 32.5904C29.9045 32.0528 29.6588 30.9137 30.153 30.0383C30.6471 29.1628 31.6941 28.8955 32.4986 29.4331C33.3032 29.9707 33.5489 31.1098 33.0547 31.9853C32.5606 32.8607 31.5136 33.128 30.7091 32.5904Z" fill="#7EC7E6"/>
<path id="Vector_24" d="M40.5831 39.2044C39.7785 38.6668 39.5329 37.5277 40.027 36.6523C40.5211 35.7769 41.5681 35.5095 42.3726 36.0471C43.1772 36.5847 43.4229 37.7239 42.9287 38.5993C42.4346 39.4747 41.3876 39.742 40.5831 39.2044Z" fill="#7EC7E6"/>
<path id="Vector_25" d="M22.1936 3.86533C21.5629 3.10365 21.6191 1.92918 22.3192 1.2429C23.0192 0.556608 24.0987 0.617762 24.7294 1.37945C25.3601 2.14113 25.3039 3.3156 24.6038 4.00188C23.9037 4.68817 22.8243 4.62702 22.1936 3.86533Z" fill="#7EC7E6"/>
<path id="Vector_26" d="M29.9563 13.2384C29.3256 12.4767 29.3818 11.3022 30.0819 10.6159C30.7819 9.92966 31.8614 9.99081 32.4921 10.7525C33.1228 11.5142 33.0666 12.6886 32.3665 13.3749C31.6664 14.0612 30.587 14.0001 29.9563 13.2384Z" fill="#7EC7E6"/>
<path id="Vector_27" d="M37.7185 22.6136C37.0878 21.8519 37.144 20.6775 37.8441 19.9912C38.5441 19.3049 39.6236 19.3661 40.2543 20.1277C40.885 20.8894 40.8288 22.0639 40.1287 22.7502C39.4286 23.4365 38.3492 23.3753 37.7185 22.6136Z" fill="#7EC7E6"/>
<path id="Vector_28" d="M45.4812 31.9872C44.8505 31.2255 44.9067 30.051 45.6068 29.3647C46.3068 28.6784 47.3863 28.7396 48.017 29.5013C48.6477 30.263 48.5915 31.4374 47.8914 32.1237C47.1913 32.81 46.1119 32.7488 45.4812 31.9872Z" fill="#7EC7E6"/>
</g>
</g>
</svg>
