<svg width="201" height="112" viewBox="0 0 201 112" fill="none" xmlns="http://www.w3.org/2000/svg">
<g id="_&#227;&#131;&#172;&#227;&#130;&#164;&#227;&#131;&#164;&#227;&#131;&#188;_1" clip-path="url(#clip0_1_1440)">
<g id="Group">
<path id="Vector" d="M61.3959 97.3599C59.1123 97.3599 57.9121 98.7392 57.9121 100.114C57.9121 103.017 64.7134 103.206 64.7134 107.357C64.7134 109.602 62.5602 111.995 59.1573 111.995C56.3478 111.995 54.9543 110.535 54.3384 110.535C54.0192 110.535 53.8304 110.788 53.7271 111.044L54.5722 107.082C55.1431 109.539 56.4736 110.495 59.0314 110.495C61.5892 110.495 62.6006 108.926 62.6006 107.569C62.6006 104.581 55.7994 104.689 55.7994 100.429C55.7994 97.698 58.3976 95.8725 61.2296 95.8725C63.5941 95.8725 64.6505 96.8912 65.2438 96.8912C65.581 96.8912 65.7698 96.6388 65.9002 96.4675L65.1809 99.8796C64.7359 98.2704 63.1086 97.3599 61.4004 97.3599H61.3959Z" fill="white"/>
<path id="Vector_2" d="M72.4048 102.656C73.5465 101.281 74.8771 100.073 76.5673 100.073C77.8979 100.073 78.8284 100.795 78.8284 102.066C78.8284 103.062 77.0303 110.328 77.0303 111.089C77.0303 111.41 77.2012 111.576 77.3675 111.703H74.5804C74.9625 111.531 75.1918 111.13 75.3401 110.535C75.8886 107.93 77.0079 103.522 77.0079 102.444C77.0079 101.849 76.6483 101.34 76.0144 101.34C74.3872 101.34 72.4857 103.567 71.7889 105.302C71.663 105.618 70.6067 110.598 70.6067 111.085C70.6067 111.405 70.7775 111.572 70.9663 111.698H68.1343C68.5344 111.527 68.7906 111.126 68.9164 110.531C69.1682 109.746 71.8339 97.4185 71.8339 96.6973C71.8339 96.4449 71.7305 96.3142 71.4742 96.17H73.6724L72.3643 102.611L72.4048 102.652V102.656Z" fill="white"/>
<path id="Vector_3" d="M84.0027 111.09C84.0027 111.41 84.1735 111.576 84.3623 111.703H81.5303C81.9303 111.531 82.1866 111.13 82.3124 110.535C83.9622 103.017 84.3218 101.317 84.3218 100.898C84.3218 100.646 84.2139 100.515 83.9622 100.371H86.2638C85.1849 105.433 84.0027 110.58 84.0027 111.09ZM85.9446 98.1848C85.3737 98.1848 84.8657 97.8693 84.8657 97.1887C84.8657 96.4675 85.4142 95.877 86.1334 95.877C86.7043 95.877 87.2123 96.197 87.2123 96.8506C87.2123 97.5718 86.6638 98.1848 85.9446 98.1848Z" fill="white"/>
<path id="Vector_4" d="M93.276 102.742L93.3165 102.782C94.1616 101.385 95.7664 100.069 97.4341 100.069C98.8501 100.069 99.6727 100.745 99.6727 102.061C99.6727 102.314 99.6323 102.548 99.6098 102.737L99.6503 102.778C100.495 101.381 102.1 100.064 103.705 100.064C105.161 100.064 105.989 100.741 105.989 102.057C105.989 103.179 104.172 110.422 104.172 111.08C104.172 111.401 104.343 111.567 104.532 111.693H101.7C102.1 111.522 102.356 111.121 102.482 110.526C103.242 107.096 104.172 103.684 104.172 102.435C104.172 101.822 103.79 101.331 103.219 101.331C101.192 101.331 99.3536 104.148 99.0794 105.401C98.9085 106.122 97.8746 110.422 97.8746 111.08C97.8746 111.401 98.0455 111.567 98.2343 111.693H95.4023C95.8023 111.522 96.0586 111.121 96.1844 110.526C96.9441 107.073 97.8522 103.174 97.8522 102.435C97.8522 101.822 97.515 101.331 96.8812 101.331C94.8538 101.331 93.0153 104.148 92.7411 105.401C92.2961 107.348 91.5139 110.422 91.5139 111.08C91.5139 111.401 91.6847 111.567 91.8735 111.693H89.0415C89.4416 111.522 89.6978 111.121 89.8237 110.526C91.2801 103.873 91.8735 101.606 91.8735 100.889C91.8735 100.637 91.7701 100.506 91.5139 100.362H93.7345L93.2715 102.733L93.276 102.742Z" fill="white"/>
<path id="Vector_5" d="M112.799 112C111.212 112 108.762 111.153 108.762 107.677C108.762 104.202 111.383 100.073 115.204 100.073C116.791 100.073 119.241 100.921 119.241 104.396C119.241 107.871 116.62 112 112.799 112ZM112.862 110.729C115.797 110.729 117.425 106.172 117.425 104.076C117.425 102.656 116.472 101.344 115.141 101.344C112.206 101.344 110.578 105.879 110.578 107.975C110.578 109.417 111.531 110.729 112.862 110.729Z" fill="white"/>
<path id="Vector_6" d="M131.369 109.562C131.369 110.323 131.432 111.171 131.962 111.703H130.146C129.872 111.193 129.764 110.598 129.764 110.048C129.764 109.688 129.787 109.435 129.827 109.223L129.787 109.183C129.004 110.625 127.611 112 125.732 112C123.853 112 122.14 110.815 122.14 107.889C122.14 104.5 124.653 100.073 128.393 100.073C129.809 100.073 130.546 100.664 131.225 101.367C131.67 99.3748 132.178 97.2157 132.178 96.7064C132.178 96.454 132.075 96.3233 131.818 96.179H134.142C133.109 100.88 131.373 107.853 131.373 109.566L131.369 109.562ZM128.771 101.344C125.898 101.344 123.952 105.221 123.952 107.745C123.952 109.079 124.5 110.733 126.064 110.733C127.818 110.733 129.719 108.295 130.33 105.415L130.901 102.746C130.69 102.133 129.719 101.349 128.766 101.349L128.771 101.344Z" fill="white"/>
<path id="Vector_7" d="M143.645 109.985C143.645 109.647 143.668 109.413 143.685 109.138H143.645C142.863 110.769 141.424 112 139.397 112C138.444 112 136.017 111.342 136.017 107.889C136.017 104.437 138.426 100.073 142.166 100.073C143.793 100.073 144.701 100.858 145.083 101.408H145.146L145.398 100.371H147.088C146.369 103.783 145.25 108.444 145.25 109.818C145.25 110.603 145.358 111.216 145.821 111.702H143.919C143.685 111.067 143.645 110.517 143.645 109.985ZM142.377 101.344C139.694 101.344 137.833 105.415 137.833 107.722C137.833 109.097 138.426 110.729 140.031 110.729C141.361 110.729 143.452 108.971 144.234 105.392L144.805 102.746C144.297 101.858 143.389 101.349 142.377 101.349V101.344Z" fill="white"/>
</g>
<g id="Group_2">
<path id="Vector_8" d="M100.5 87.4933C63.1671 87.4933 28.5717 87.8268 0 88.3993V88.7869C28.5717 89.3593 63.1671 89.6974 100.5 89.6974C137.833 89.6974 172.428 89.3639 201 88.7869V88.3993C172.428 87.8268 137.833 87.4933 100.5 87.4933Z" fill="white"/>
<g id="Group_3">
<g id="Group_4">
<path id="Vector_9" d="M85.7197 80.3671C82.4427 80.2634 80.739 77.4733 80.739 75.134C80.739 71.9562 83.0316 70.613 84.9375 70.4508C85.8096 70.3786 88.0483 70.5049 88.2101 71.6903L88.3539 71.7264L88.8439 69.8513C87.9628 69.4772 86.6502 69.2924 85.9445 69.2924C80.8604 69.2924 78.5273 72.7405 78.5273 75.9768C78.5273 77.924 79.2331 79.3889 80.3075 80.4121C81.3728 81.4353 82.8787 81.9401 84.506 81.9401C86.2816 81.9401 88.6956 81.0928 89.734 78.8751L89.5542 78.803C88.736 80.0606 87.4054 80.4257 85.7152 80.3671H85.7197Z" fill="white"/>
<path id="Vector_10" d="M38.0793 61.9408H31.7725L31.7814 62.1571C32.9547 62.2518 34.2403 63.7528 34.2403 65.9208C34.2403 67.4534 34.2583 77.4598 34.2628 78.7354C34.2628 80.5383 32.5906 81.4263 31.8624 81.4624V81.6291H39.1716V81.4624C38.4434 81.4263 36.7712 80.5654 36.7712 78.7579L36.7622 62.9234C36.924 62.9144 37.0094 62.9234 37.2297 62.9234C41.0326 62.9234 43.5859 64.803 43.5859 67.7103C43.5859 70.1308 41.3698 72.9299 37.823 73.1192V73.3355C39.9493 73.3355 42.116 73.3716 43.7253 72.4476C44.966 71.7354 46.5258 70.4373 46.5258 67.6787C46.5258 65.6143 45.2402 61.9453 38.0793 61.9453V61.9408Z" fill="white"/>
<path id="Vector_11" d="M50.7782 70.8159V69.0805C50.7782 69.0805 49.6094 70.3426 47.4427 70.3426L47.4337 70.5274C48.1979 70.7618 48.5216 71.3522 48.5216 72.9163V78.7669C48.5216 80.5744 47.0157 81.4263 46.3594 81.4623V81.6291H52.9539V81.4623C52.2976 81.4263 50.7917 80.5564 50.7917 78.7489C50.7917 78.7489 50.7872 74.6787 50.7872 74.0882C50.7872 73.4978 50.7602 72.4385 51.003 72.1636C52.1987 70.595 54.3114 70.8429 55.3229 71.4965L55.3588 71.3658C54.6666 70.4598 52.6437 68.8867 50.7827 70.8159H50.7782Z" fill="white"/>
<path id="Vector_12" d="M59.9218 78.7714L59.9352 72.7676C59.9352 71.537 59.9892 70.0992 60.0521 69.049C60.0521 69.049 58.6856 70.3426 56.5908 70.3426L56.5728 70.5454C57.2651 70.6401 57.6607 71.3297 57.6607 72.9163L57.6517 78.7534C57.6517 80.5609 56.1323 81.4308 55.4805 81.4669V81.6336H62.075V81.4669C61.4187 81.4308 59.9218 80.5834 59.9218 78.7759V78.7714Z" fill="white"/>
<path id="Vector_13" d="M75.7672 78.7444V73.0065C75.7672 70.9962 74.7243 69.2878 72.18 69.2878C70.6201 69.2878 68.8625 70.3651 67.5544 71.2215C67.5544 70.9556 67.5544 69.7701 67.6173 69.0805C67.6173 69.0805 66.3227 70.3426 64.2189 70.3426L64.2009 70.5454C64.9067 70.6716 65.2843 71.3387 65.2843 72.9163V78.7444C65.2843 80.5519 63.7784 81.4263 63.1221 81.4623V81.6291H69.7166V81.4623C69.0603 81.4263 67.5544 80.5519 67.5544 78.7444V72.3799C67.9904 71.812 69.357 70.7618 70.6201 70.7302C72.7059 70.6716 73.5061 71.9923 73.5061 73.7006V78.7534C73.5061 80.5609 72.0002 81.4308 71.3439 81.4669V81.6336H77.9384V81.4669C77.2776 81.4308 75.7717 80.5564 75.7717 78.7489L75.7672 78.7444Z" fill="white"/>
<path id="Vector_14" d="M96.9534 69.2924C93.2763 69.2924 90.7949 72.3799 90.7949 76.067C90.7949 77.3877 91.159 78.7985 92.0806 79.9659C92.9661 81.1018 94.5305 81.9401 96.5219 81.9401C100.734 81.9401 101.35 78.9112 101.35 78.9112L101.17 78.839C100.55 80.331 98.8459 80.4437 97.9513 80.4437C94.6743 80.4437 92.4986 77.3336 92.9167 73.8539H101.35C101.35 73.8539 101.372 73.2949 101.336 72.8803C101.134 70.8835 99.5876 69.2924 96.9534 69.2924ZM99.0662 72.9253L93.101 72.9163C93.3392 71.6407 94.8092 70.3426 96.6163 70.3426C99.4258 70.3426 99.0707 72.9253 99.0707 72.9253H99.0662Z" fill="white"/>
<path id="Vector_15" d="M58.7754 67.2415C59.6385 67.2415 60.3397 66.5384 60.3397 65.6729C60.3397 64.8075 59.6385 64.0999 58.7754 64.0999C57.9123 64.0999 57.2065 64.8075 57.2065 65.6729C57.2065 66.5384 57.9078 67.2415 58.7754 67.2415Z" fill="white"/>
</g>
<g id="Group_5">
<path id="Vector_16" d="M148.042 80.2544C146.653 80.2544 146.455 78.6047 146.428 76.7431L146.414 70.8474H149.476V69.7972L146.437 69.7566V67.3271C146.437 67.3271 144.742 70.1578 142.845 70.284V70.559C142.845 70.559 144.081 70.7077 144.153 72.2718L144.171 78.2621C144.18 80.3265 144.562 81.9537 146.621 81.9402C148.451 81.9311 149.678 80.7953 149.772 79.0194L149.593 78.9833C149.35 79.7676 148.788 80.2499 148.046 80.2544H148.042Z" fill="white"/>
<path id="Vector_17" d="M121.407 62.1121C122.136 62.1527 123.803 63.0586 123.803 64.8706V70.7212H114.79V64.8706C114.79 63.0586 116.458 62.1482 117.186 62.1121V61.9498H109.976V62.1121C110.704 62.1527 112.372 63.0586 112.372 64.8706V78.7084C112.372 80.5203 110.704 81.4308 109.976 81.4669V81.6292H117.182V81.4669C116.454 81.4308 114.79 80.5158 114.79 78.7084V72.078H123.803V78.7084C123.803 80.5203 122.14 81.4308 121.407 81.4669V81.6292H128.613V81.4669C127.885 81.4308 126.217 80.5158 126.217 78.7084V64.8706C126.217 63.0586 127.885 62.1482 128.613 62.1121V61.9498H121.403V62.1121H121.407Z" fill="white"/>
<path id="Vector_18" d="M157.289 69.2654C153.603 69.2654 151.117 72.362 151.117 76.0535C151.117 77.3742 151.49 78.7895 152.411 79.9614C153.301 81.1018 154.866 81.9402 156.857 81.9402C161.078 81.9402 161.694 78.9022 161.694 78.9022L161.514 78.8301C160.93 80.2364 159.19 80.4392 158.291 80.4392C155.005 80.4392 152.825 77.3246 153.243 73.8359L161.689 73.8269C161.689 73.8269 161.712 73.277 161.672 72.8578C161.474 70.852 159.923 69.2609 157.284 69.2609L157.289 69.2654ZM159.406 72.9074L153.427 72.8983C153.661 71.6182 155.14 70.3201 156.947 70.3201C159.757 70.3201 159.401 72.9074 159.401 72.9074H159.406Z" fill="white"/>
<path id="Vector_19" d="M135.248 69.2653C131.787 69.2653 128.982 72.0644 128.982 75.5126C128.982 78.9607 131.787 81.7598 135.248 81.7598C138.71 81.7598 141.519 78.9607 141.519 75.5126C141.519 72.0644 138.714 69.2653 135.248 69.2653ZM135.248 80.7141C133.275 80.7141 131.675 78.3883 131.675 75.5126C131.675 72.6369 133.275 70.3065 135.248 70.3065C137.222 70.3065 138.822 72.6324 138.822 75.5126C138.822 78.3928 137.222 80.7141 135.248 80.7141Z" fill="white"/>
<path id="Vector_20" d="M167.214 78.7309L167.201 64.2802C167.205 63.0902 167.232 61.143 167.277 60.1514C167.277 60.1514 165.259 61.9228 163.577 61.9228V62.1121C164.49 62.2969 164.917 62.7702 164.917 65.3529L164.953 78.7624C164.953 80.5744 163.461 81.4263 162.804 81.4624V81.6246H169.376V81.4624C168.715 81.4263 167.219 80.5384 167.219 78.7264L167.214 78.7309Z" fill="white"/>
</g>
</g>
<path id="Vector_21" d="M122.823 37.3799C120.432 36.2982 116.004 36.1449 111.972 37.6549C106.259 39.7914 104.861 41.1526 102.887 42.3291C100.761 41.8242 99.1696 41.3915 98.0952 41.067C98.0952 41.067 102.725 37.2041 106.11 31.1462C107.023 31.331 108.299 31.4392 109.432 31.4211C113.68 31.2589 120.405 29.4739 122.522 23.3484C125.26 15.4469 120.742 9.98392 116.472 6.64844C116.031 6.30588 115.577 5.98135 115.105 5.67484C117.366 1.95173 119.978 0.76628 122.464 0.572461L122.351 0.0180504C120.909 -0.0630829 116.827 0.509357 112.943 4.46235C109.783 2.93434 106.011 2.11399 101.664 2.19062C88.2821 2.425 77.071 11.5435 77.3272 24.029C77.4531 30.1095 81.8809 33.0618 86.956 33.0889C95.1193 33.1745 101.601 24.9981 100.347 16.6323C99.8348 12.8551 97.6636 10.944 95.5239 10.8719C92.7908 10.7096 90.9568 12.6568 90.3319 13.8783C89.8644 14.7167 89.5632 15.5235 89.2306 16.425L89.788 16.6323C89.788 16.6323 91.3838 11.6922 95.4025 11.8951C97.1692 11.9852 98.6841 13.8918 98.9313 16.443L98.9448 16.5467C99.5067 22.3658 94.3057 32.3632 86.8526 32.0657C83.0092 31.8133 81.319 28.0541 81.2965 24.0651C81.3235 12.2016 89.7161 3.28141 101.826 3.10112C105.315 3.05153 109.028 3.5789 112.26 5.27819C108.942 9.19963 105.917 14 102.492 24.2408C99.9787 31.7727 99.7494 36.4559 96.5803 40.6027C91.6221 39.0341 86.4525 37.8848 82.8204 37.736C78.1588 37.6008 75.2639 39.8951 75.8258 42.5544C76.3877 45.2048 80.5907 46.0973 83.4947 46.1513C87.392 46.2235 91.8153 45.1823 95.0115 43.6002C95.9555 43.9021 97.7266 44.4701 99.4033 44.9839C99.4033 44.9839 97.6007 46.2505 96.0633 47.134C95.6408 47.3774 93.9371 48.3059 92.4447 49.0226L92.7863 49.6581C93.8157 49.1893 95.1283 48.5448 96.4634 47.7875C97.9693 46.841 99.0482 46.2235 100.41 45.3085C104.051 46.3947 108.304 47.7064 112.251 47.774C115.254 47.8281 118.845 46.7598 121.592 45.038C122.594 44.398 123.484 43.6407 124.19 42.7437C124.95 41.7747 126.289 38.953 122.832 37.3889L122.823 37.3799ZM108.286 25.6607C110.462 18.4173 110.695 13.8603 114.53 6.72056C119.083 10.2318 119.947 15.217 118.018 21.4192C116.171 27.378 111.549 29.7489 108.789 30.096C108.16 30.1816 107.292 30.2627 106.605 30.1906L106.919 29.4424C107.382 28.5094 107.899 26.9363 108.281 25.6607H108.286ZM83.2115 45.2228C80.8515 45.2318 76.9226 44.4566 76.6304 42.5049C76.3517 40.6208 78.887 40.0303 82.6361 40.3819C85.2433 40.5486 90.6331 42.3246 93.3707 43.1043C91.2445 44.1591 87.0953 45.2003 83.216 45.2228H83.2115ZM122.01 42.5499C119.839 43.9472 116.571 44.3664 112.318 44.0734C109.814 43.9021 106.717 43.1945 103.957 42.5725C106.69 40.8957 110.237 38.926 113.945 38.2048C117.649 37.4791 120.032 37.736 121.781 38.4121C123.997 39.273 123.624 41.5177 122.014 42.5499H122.01Z" fill="url(#paint0_radial_1_1440)"/>
</g>
</g>
<defs>
<radialGradient id="paint0_radial_1_1440" cx="0" cy="0" r="1" gradientUnits="userSpaceOnUse" gradientTransform="translate(100.424 24.8268) scale(24.7103 24.7772)">
<stop stop-color="white"/>
<stop offset="0.5" stop-color="white"/>
<stop offset="1" stop-color="white"/>
</radialGradient>
<clipPath id="clip0_1_1440">
<rect width="201" height="112" fill="white"/>
</clipPath>
</defs>
</svg>
