<svg width="608" height="606" viewBox="0 0 608 606" fill="none" xmlns="http://www.w3.org/2000/svg">
<ellipse cx="324" cy="323" rx="284" ry="283" fill="#FDF9D6" fill-opacity="0.8"/>
<ellipse cx="284" cy="283" rx="284" ry="283" fill="#FDF9D6" fill-opacity="0.8"/>
<path d="M585 311.365C585 466.437 487.13 582 302.759 582C154.471 582 39.7946 518.786 22 302.476C22 148.099 116.41 9.1235 302.759 22.9517C488.613 55.0525 576.597 119.254 585 311.365Z" fill="white" fill-opacity="0.8"/>
<g style="mix-blend-mode:multiply" opacity="0.15">
<path d="M510.378 88.7375C510.378 97.2158 509.857 105.584 506.836 112.964C503.707 120.608 498.427 127.198 492.734 132.974C487.041 138.751 480.652 144.396 473.091 147.581C465.79 150.634 457.381 152.061 448.971 152.061C440.562 152.061 432.24 150.436 424.939 147.361C417.377 144.198 411.64 137.96 405.947 132.205C400.254 126.451 395.995 119.861 392.866 112.218C389.846 104.838 386 97.2158 386 88.7375C386 80.2591 388.803 72.1761 391.823 64.818C394.952 57.1743 399.146 49.904 404.839 44.1493C410.532 38.3945 418.138 35.1657 425.699 31.9809C433 28.9278 440.562 26.3799 448.95 26.3799C457.337 26.3799 465.051 28.5983 472.33 31.6734C479.892 34.8363 487.541 38.2188 493.234 43.9736C498.927 49.7283 503.642 56.8888 506.793 64.5324C509.813 71.9126 510.378 80.2811 510.378 88.7594V88.7375Z" fill="#69C5D2"/>
</g>
<g style="mix-blend-mode:multiply" opacity="0.15">
<path d="M549.218 138.969C549.218 143.724 548.402 148.358 546.698 152.507C544.946 156.801 541.754 160.173 538.538 163.4C535.346 166.626 532.154 170.217 527.906 172.012C523.802 173.735 519.074 174.584 514.37 174.584C509.666 174.584 505.034 173.468 500.954 171.745C496.706 169.974 492.578 167.5 489.361 164.249C486.169 161.022 483.769 156.801 482.017 152.531C480.313 148.382 479.257 143.749 479.257 138.994C479.257 134.239 480.193 129.532 481.897 125.408C483.649 121.114 486.601 117.402 489.793 114.175C492.986 110.949 496.922 108.595 501.17 106.824C505.274 105.102 509.642 104.398 514.37 104.398C519.098 104.398 523.634 104.665 527.738 106.388C531.986 108.159 535.394 111.288 538.586 114.515C541.778 117.742 544.826 121.211 546.578 125.505C548.282 129.653 549.194 134.239 549.194 138.994L549.218 138.969Z" fill="#69C5D2"/>
</g>
<path d="M119.616 326.392H104.384C103.68 326.968 102.976 327.544 102.208 328.056C104.64 330.296 107.584 332.152 111.04 333.624C114.432 331.512 117.312 329.144 119.616 326.392ZM98.752 312.184V317.176H123.904V312.184H98.752ZM123.904 298.616H98.752V303.544H123.904V298.616ZM123.904 310.328V305.4H98.752V310.328H123.904ZM123.968 321.4L129.536 326.584C129.024 327.224 128.32 327.352 126.656 327.416C123.84 330.616 120.448 333.24 116.544 335.48C123.136 337.336 131.2 338.168 141.12 338.296L141.056 339.064C138.752 339.832 137.472 341.56 137.152 344.248C125.888 343.224 117.888 341.304 111.68 337.976C103.424 341.56 93.44 343.608 82.304 344.44L81.984 343.416C91.584 341.816 100.48 339.192 107.712 335.48C105.216 333.624 102.976 331.512 100.928 328.952C96 332.408 89.984 335.544 83.328 337.4L82.752 336.568C91.904 332.216 99.904 325.176 103.872 319.032H98.752V320.312C98.752 320.952 96.192 322.296 93.632 322.296H92.8V294.2L99.2 296.888H107.136C107.392 295.288 107.648 293.304 107.84 291.64H83.392L82.88 289.784H129.344L133.12 285.112C133.12 285.112 137.408 288.312 140.032 290.616C139.904 291.32 139.2 291.64 138.368 291.64H114.432C113.28 293.368 111.936 295.352 110.72 296.888H123.264L126.272 293.688L132.48 298.424C132.096 298.936 131.2 299.448 129.984 299.704V319.48C129.92 319.992 126.976 321.336 124.928 321.336H123.904V319.032H106.56L112.384 320.632C112.128 321.336 111.296 321.72 109.44 321.72C108.544 322.68 107.52 323.64 106.496 324.6H120.192L123.968 321.4ZM171.656 307.08C171.656 305.176 170.928 303.552 170.032 302.096C166.28 302.992 162.584 305.008 159.84 307.864C156.48 311.392 154.52 315.536 154.52 320.24C154.52 325.112 156.648 329.2 158.944 329.2C162.36 329.2 167.4 321.024 169.36 316.544C170.704 313.52 171.656 309.824 171.656 307.08ZM170.984 339.672L170.76 338.496C184.704 335.584 190.584 328.08 190.584 318.168C190.584 308.032 183.64 301.536 174.456 301.536C173.784 301.536 173.056 301.592 172.328 301.648C173.896 303.44 175.52 305.848 175.52 308.312C175.52 311.056 174.904 314.528 173.672 317.832C171.264 324.776 164.88 335.248 158.552 335.248C154.352 335.248 150.32 328.808 150.32 321.64C150.32 316.264 152.896 309.936 158.216 305.4C162.752 301.424 168.464 299.464 174.96 299.464C187.224 299.464 196.296 307.808 196.296 319.456C196.296 329.48 189.52 338.72 170.984 339.672ZM254.672 294.904H215.184C215.248 299.256 213.392 302.136 211.28 303.48C209.296 304.76 206.416 304.44 205.584 302.328C204.88 300.344 206.096 298.68 207.824 297.848C210.448 296.504 213.264 293.048 213.2 289.016H214.16C214.608 290.488 214.928 291.832 215.056 293.048H231.632V284.6L240.208 285.368C240.144 286.264 239.568 286.904 237.904 287.16V293.048H254.8L258.128 289.656L263.952 295.288C263.504 295.8 262.736 295.928 261.52 295.992C259.152 297.848 254.864 300.088 251.856 301.304L251.152 300.856C252.304 299.256 253.648 296.888 254.672 294.904ZM219.6 297.784L227.6 300.792C227.28 301.496 226.448 302.008 225.104 301.88C223.312 305.144 221.328 308.088 219.216 310.84L221.648 311.736C221.456 312.312 220.816 312.696 219.664 312.888V342.776C219.6 343.224 217.104 344.44 214.928 344.44H213.84V316.856C211.216 319.416 208.528 321.528 205.712 323.32L204.944 322.616C210.256 316.984 216.144 307.576 219.6 297.784ZM252.624 314.68H234.768V324.792H252.624V314.68ZM234.768 337.528H252.624V326.584H234.768V337.528ZM254.608 303.416L257.936 299.448C257.936 299.448 261.712 302.136 264.08 304.184C263.952 304.888 263.248 305.208 262.352 305.208H246.608C245.264 307.64 243.472 310.52 241.808 312.824H251.984L254.928 309.496L261.264 314.424C260.88 314.936 259.92 315.448 258.576 315.768V342.264C258.512 342.776 255.568 343.992 253.52 343.992H252.624V339.384H234.768V342.456C234.768 343.032 232.272 344.44 229.776 344.44H228.816V310.2L235.024 312.824H238.544C238.992 310.392 239.376 307.512 239.632 305.208H225.808L225.296 303.416H254.608ZM276.368 286.52L276.88 286.008C293.136 287.352 289.488 299 283.408 295.736C282.384 292.408 279.056 288.696 276.368 286.52ZM270.992 301.048L271.568 300.536C287.312 301.624 283.472 313.08 277.648 309.624C276.688 306.552 273.616 303.032 270.992 301.048ZM290.832 297.656L291.792 297.976C289.104 305.528 283.792 319.608 282.832 322.744C282.32 324.792 281.808 326.904 281.808 328.504C281.936 331.704 284.176 334.2 283.92 339.512C283.792 342.584 282.064 344.376 279.312 344.376C277.904 344.376 276.752 343.416 276.432 341.176C277.456 334.52 277.136 329.208 275.6 328.248C274.768 327.608 273.744 327.352 272.4 327.224V325.944H275.28C276.24 325.944 276.432 325.88 277.2 324.664C278.608 322.36 278.608 322.36 290.832 297.656ZM299.728 336.312H321.104V317.944H299.728V336.312ZM321.104 299.256H299.728V316.152H321.104V299.256ZM323.984 293.752L330.064 298.552C329.552 299.128 328.784 299.64 327.376 299.896V342.072C327.376 342.456 325.2 343.864 322.128 343.864H321.104V338.168H299.728V342.648C299.728 343.096 297.872 344.312 294.736 344.312H293.712V294.776L300.496 297.464H304.656C305.296 294.072 306.192 288.696 306.64 284.984L316.432 286.648C316.176 287.736 315.344 288.248 313.936 288.312C312.144 290.936 309.392 294.776 307.28 297.464H320.784L323.984 293.752ZM391.376 299.256C387.536 299.256 384.4 296.184 384.4 292.28C384.4 288.44 387.536 285.368 391.376 285.368C395.216 285.368 398.288 288.44 398.288 292.28C398.288 296.184 395.216 299.256 391.376 299.256ZM391.376 287.8C388.88 287.8 386.832 289.784 386.832 292.28C386.832 294.84 388.88 296.824 391.376 296.824C393.872 296.824 395.92 294.84 395.92 292.28C395.92 289.784 393.872 287.8 391.376 287.8ZM344.912 296.44C346.32 298.168 347.856 299.896 350.16 299.896C354.64 299.896 372.624 297.976 375.888 297.272C378.064 296.824 378.32 295.8 379.792 295.8C382.288 295.8 388.176 300.792 388.176 302.84C388.176 304.696 386 305.336 385.04 307.448C377.808 323.192 366.16 335.224 346.192 342.136L345.36 340.792C363.216 331.64 375.504 316.792 379.024 302.328C379.216 301.624 378.896 301.432 378.32 301.432C374.672 301.432 358.864 304.248 355.216 305.144C353.616 305.528 352.08 306.744 350.736 306.744C348.24 306.744 344.976 303.032 344.336 300.984C343.952 299.704 343.888 298.616 343.824 296.888L344.912 296.44ZM412.368 309.176C411.92 307.896 411.728 306.744 411.664 305.272L412.752 304.76C414.352 306.744 415.504 308.088 417.744 308.088C421.584 308.088 438.8 305.848 443.472 305.08C445.648 304.76 446.352 303.544 447.632 303.544C450 303.544 454.8 307.448 454.8 309.624C454.8 311.096 452.048 311.992 450.896 314.168C444.752 325.944 434.64 336.504 416.656 342.392L415.888 341.048C430.992 333.24 440.976 321.336 445.2 310.008C445.456 309.24 445.2 308.92 444.432 308.984C440.272 309.304 426.832 311.608 422.672 312.696C420.752 313.208 419.664 314.36 418.256 314.36C416.016 314.36 413.008 311.032 412.368 309.176ZM447.568 293.432C447.568 294.584 446.864 295.352 444.816 295.8C439.888 296.888 431.12 298.424 425.488 298.424C421.84 298.424 419.856 296.312 417.616 292.216L418.384 291.512C420.944 293.24 422.992 293.688 425.104 293.688C429.52 293.688 433.04 292.728 435.92 291.96C439.44 291.128 440.272 290.168 441.424 290.168C445.072 290.168 447.568 291.32 447.568 293.432ZM478.352 295.736L479.056 294.52C487.184 295.992 496.976 299.96 496.976 305.912C496.976 307.832 495.632 309.368 493.648 309.368C491.984 309.368 490.896 308.408 489.232 306.232C486.16 302.264 484.24 299.96 478.352 295.736ZM485.072 330.808C491.088 330.808 515.472 313.592 524.624 300.728L525.904 301.56C518.48 315.448 506.704 326.264 492.24 335.288C490.512 336.376 489.744 338.232 488.08 338.232C484.88 338.232 480.72 334.776 479.376 332.472C478.672 331.192 478.096 328.888 478.032 327.352L478.992 326.776C480.656 328.568 482.832 330.808 485.072 330.808Z" fill="#2E7184"/>
<g style="mix-blend-mode:multiply" opacity="0.15">
<path d="M175.309 520.221C175.309 527.47 173.955 534.016 171.358 540.34C168.687 546.886 165.358 552.84 160.455 557.796C155.589 562.715 150.211 567.375 143.735 570.112C137.478 572.737 130.49 573.366 123.283 573.366C116.075 573.366 109.05 572.774 102.831 570.149C96.3547 567.449 90.8301 562.9 85.9275 557.981C81.0248 553.062 77.3661 547.108 74.6587 540.562C72.061 534.238 71 527.47 71 520.221C71 512.972 72.6098 506.426 75.2075 500.102C77.8783 493.556 81.2809 487.676 86.1836 482.72C91.0496 477.801 96.5742 473.622 103.05 470.885C109.306 468.26 116.075 466.3 123.246 466.3C130.417 466.3 137.295 468.038 143.552 470.627C150.028 473.326 156.54 476.655 161.406 481.611C166.272 486.529 168.687 493.519 171.358 500.065C173.955 506.389 175.236 512.972 175.236 520.221H175.309Z" fill="#69C5D2"/>
</g>
<path d="M188.478 231.064L190.526 228.44C190.526 228.44 192.894 230.232 194.334 231.48C194.238 231.832 193.886 231.992 193.406 231.992H180.414V237.144C192.062 239 191.07 245.88 187.486 244.376C186.11 242.168 183.006 239.576 180.414 237.88V256.76C180.414 257.016 179.39 257.72 177.79 257.72H177.214V231.992H164.83L164.574 231.064H188.478ZM212.798 253.368H220.798V243.128H212.798V253.368ZM202.142 243.128V253.368H209.79V243.128H202.142ZM209.79 232.408H202.142V242.2H209.79V232.408ZM220.798 232.408H212.798V242.2H220.798V232.408ZM222.046 229.752L225.214 232.28C225.022 232.536 224.542 232.792 223.902 232.952V255.896C223.838 256.152 222.398 256.888 221.278 256.888H220.798V254.296H202.142V255.992C202.142 256.376 200.958 257.144 199.614 257.144H199.102V230.072L202.366 231.48H220.478L222.046 229.752ZM255.71 235.128C253.79 235.128 252.222 233.592 252.222 231.64C252.222 229.72 253.79 228.184 255.71 228.184C257.63 228.184 259.166 229.72 259.166 231.64C259.166 233.592 257.63 235.128 255.71 235.128ZM255.71 229.4C254.462 229.4 253.438 230.392 253.438 231.64C253.438 232.92 254.462 233.912 255.71 233.912C256.958 233.912 257.982 232.92 257.982 231.64C257.982 230.392 256.958 229.4 255.71 229.4ZM232.478 233.72C233.182 234.584 233.95 235.448 235.102 235.448C237.342 235.448 246.334 234.488 247.966 234.136C249.054 233.912 249.182 233.4 249.918 233.4C251.166 233.4 254.11 235.896 254.11 236.92C254.11 237.848 253.022 238.168 252.542 239.224C248.926 247.096 243.102 253.112 233.118 256.568L232.702 255.896C241.63 251.32 247.774 243.896 249.534 236.664C249.63 236.312 249.47 236.216 249.182 236.216C247.358 236.216 239.454 237.624 237.63 238.072C236.83 238.264 236.062 238.872 235.39 238.872C234.142 238.872 232.51 237.016 232.19 235.992C231.998 235.352 231.966 234.808 231.934 233.944L232.478 233.72ZM281.405 242.424C280.989 250.008 276.797 254.552 269.181 257.016L268.829 256.376C274.941 253.08 278.077 248.824 278.525 242.392C278.717 239.8 278.717 236.152 278.589 234.168C278.557 233.496 278.493 233.112 277.885 232.76C277.469 232.504 276.733 232.344 275.965 232.184L275.933 231.608C276.733 231.096 277.853 230.552 278.589 230.552C279.901 230.552 282.429 232.024 282.429 232.856C282.429 233.624 281.821 233.88 281.757 234.872C281.661 236.76 281.533 240.472 281.405 242.424ZM267.165 233.816C266.685 233.56 266.077 233.336 265.373 233.144V232.568C266.077 232.28 266.941 231.992 267.613 231.992C268.925 231.992 271.453 233.4 271.453 234.424C271.453 235.16 270.909 235.576 270.813 236.824C270.717 238.2 270.781 244.44 270.781 246.232C270.781 247.736 270.205 248.28 269.341 248.28C268.413 248.28 267.581 246.936 267.581 245.368C267.581 244.536 267.965 243.48 267.997 241.08C268.029 239.544 267.965 236.28 267.837 235.032C267.741 234.328 267.645 234.072 267.165 233.816ZM295.997 233.368L296.349 232.76C300.413 233.496 305.309 235.48 305.309 238.456C305.309 239.416 304.637 240.184 303.645 240.184C302.813 240.184 302.269 239.704 301.437 238.616C299.901 236.632 298.941 235.48 295.997 233.368ZM299.357 250.904C302.365 250.904 314.557 242.296 319.133 235.864L319.773 236.28C316.061 243.224 310.173 248.632 302.941 253.144C302.077 253.688 301.693 254.616 300.861 254.616C299.261 254.616 297.181 252.888 296.509 251.736C296.157 251.096 295.869 249.944 295.837 249.176L296.317 248.888C297.149 249.784 298.237 250.904 299.357 250.904ZM327.924 233.464L328.532 233.208C329.172 234.072 329.908 235.096 330.996 235.096C333.012 235.096 338.932 234.008 340.564 233.592C341.3 233.4 341.78 232.6 342.356 232.6C343.54 232.6 346.1 234.744 346.1 235.64C346.1 236.408 344.82 236.824 344.436 237.4C343.348 239.032 341.556 241.912 339.38 244.312C344.596 246.2 349.556 249.464 349.556 252.664C349.556 253.496 348.98 254.328 347.956 254.328C346.868 254.328 346.196 253.336 344.852 251.576C343.124 249.176 341.524 247.032 338.58 245.176C335.636 248.248 330.836 252.472 323.764 254.84L323.348 254.168C330.9 250.264 338.644 242.36 341.396 235.96C341.556 235.512 341.364 235.416 341.012 235.448C339.316 235.672 335.06 236.824 333.396 237.304C332.372 237.624 332.116 238.328 331.252 238.328C330.036 238.328 328.628 236.664 328.244 235.64C328.052 235.096 327.924 234.328 327.924 233.464ZM362.516 243.704L363.252 243.832C363.156 247.512 361.14 252.472 358.452 252.472C357.524 252.472 356.948 251.832 356.948 250.968C356.948 249.816 357.684 249.592 359.028 248.504C361.044 246.936 361.908 245.4 362.516 243.704ZM365.588 232.088L365.556 231.48C366.292 231.192 367.38 230.872 368.276 230.872C369.78 230.904 371.764 232.056 371.764 232.952C371.764 233.624 371.156 233.784 371.06 234.68C370.964 235.416 370.9 236.504 370.868 237.688C377.108 236.856 377.364 236.376 378.132 236.376C379.476 236.376 381.492 237.208 381.492 238.392C381.492 239.16 381.044 239.48 380.18 239.48C379.092 239.48 378.068 239.32 376.404 239.32C375.156 239.32 372.916 239.512 370.804 239.736C370.804 240.728 370.804 241.688 370.804 242.488C370.804 245.4 371.028 251.512 371.028 252.6C371.028 254.168 370.004 255.928 368.564 255.928C367.412 255.928 367.412 255.32 366.676 254.168C366.196 253.464 365.236 252.6 364.148 251.928L364.436 251.352C365.62 251.672 366.836 251.992 367.668 252.12C368.02 252.152 368.244 252.088 368.276 251.672C368.404 250.072 368.404 245.176 368.372 242.456C368.372 241.848 368.372 240.952 368.34 239.992C366.324 240.248 363.892 240.632 362.324 240.984C361.076 241.272 360.596 241.912 359.764 241.912C358.9 241.912 357.588 240.792 357.044 239.576C356.82 239.096 356.756 238.168 356.756 237.56L357.268 237.336C357.972 238.264 358.548 238.872 359.38 238.872C360.852 238.872 365.748 238.296 368.308 238.008C368.276 235.992 368.18 234.04 368.052 233.464C367.828 232.6 367.06 232.376 365.588 232.088ZM374.324 243.896L374.676 243.384C378.324 244.44 381.908 246.84 382.26 249.816C382.388 250.936 381.844 251.736 380.82 251.736C379.7 251.736 379.252 250.584 378.708 249.528C377.78 247.608 376.5 245.624 374.324 243.896ZM393.652 231.864L394.036 231.512C395.284 232.344 396.308 232.568 397.364 232.568C399.508 232.568 401.876 232.056 403.316 231.704C405.044 231.256 405.492 230.808 406.036 230.808C407.828 230.808 409.076 231.416 409.076 232.44C409.076 233.016 408.724 233.4 407.7 233.592C405.204 234.136 400.308 234.936 397.556 234.936C395.732 234.936 394.74 233.88 393.652 231.864ZM388.948 238.552L389.396 238.36C390.132 239.192 390.74 239.896 391.636 239.896C393.812 239.896 402.676 238.552 407.668 238.072C409.876 237.848 410.452 237.464 410.868 237.464C412.564 237.464 414.58 238.36 414.58 239.48C414.58 240.312 414.228 240.6 413.428 240.6C412.788 240.6 411.348 240.312 409.62 240.312C408.18 240.312 405.908 240.408 403.412 240.632C404.436 241.24 405.204 241.88 405.204 242.488C405.204 243.224 404.372 243.48 403.828 244.792C402.42 248.312 399.732 253.368 392.308 256.92L391.764 256.312C399.06 251.416 401.236 244.28 401.236 242.104C401.236 241.72 401.14 241.336 400.852 240.92C398.484 241.24 395.892 241.752 394.868 242.04C393.844 242.36 392.82 242.84 391.988 242.84C391.028 242.872 389.492 241.464 389.14 240.44C388.948 239.96 388.916 239.288 388.948 238.552ZM429.114 233.72L429.082 233.144C430.01 232.696 430.65 232.536 431.45 232.536C432.986 232.536 435.386 233.976 435.386 234.904C435.386 235.672 434.65 235.768 434.522 236.888C434.298 238.584 434.074 246.168 434.106 248.504C434.106 248.952 434.33 249.08 434.714 248.92C438.746 247.256 443.13 244.056 446.49 240.792L447.066 241.24C444.346 245.464 439.77 249.4 435.642 251.992C434.906 252.472 434.394 253.464 433.594 253.464C432.602 253.464 430.97 251.448 430.97 250.648C430.97 250.008 431.354 249.656 431.482 248.408C431.61 246.744 431.77 238.36 431.578 235.288C431.546 234.424 430.682 233.976 429.114 233.72ZM424.794 239.128C424.794 238.104 423.418 237.592 422.458 237.272V236.664C423.098 236.44 423.834 236.216 424.666 236.248C426.01 236.312 428.634 237.72 428.634 238.872C428.634 239.64 427.962 240.088 427.802 240.888C426.746 246.072 423.482 251.448 417.146 254.968L416.666 254.392C421.626 250.168 424.794 243.416 424.794 239.128Z" fill="#2E7184"/>
<path d="M217.234 200V194.492C221.246 189.936 225.258 185.448 228.59 181.572C235.934 173.14 239.198 168.584 239.198 161.512C239.198 154.576 235.934 150.7 230.494 150.7C228.454 150.7 226.346 151.176 224.102 152.264L227.366 150.7L225.87 157.84C225.122 162.056 223.15 163.076 221.178 163.076C219.342 163.076 217.778 162.056 217.098 160.356C217.642 152.536 225.258 148.388 233.826 148.388C244.23 148.388 249.126 153.964 249.126 162.056C249.126 169.196 243.346 174.364 231.174 184.496C228.794 186.536 224.85 190.072 220.974 193.676L221.722 191.16V192.452H250.554V200H217.234ZM281.125 201.156C272.013 201.156 263.717 193.2 263.717 174.704C263.717 156.276 272.013 148.388 281.125 148.388C290.237 148.388 298.601 156.276 298.601 174.704C298.601 193.2 290.237 201.156 281.125 201.156ZM281.125 198.844C285.409 198.844 289.285 193.472 289.285 174.704C289.285 156.004 285.409 150.768 281.125 150.768C276.841 150.768 273.101 155.936 273.101 174.704C273.101 193.54 276.841 198.844 281.125 198.844ZM312.447 200V194.492C316.459 189.936 320.471 185.448 323.803 181.572C331.147 173.14 334.411 168.584 334.411 161.512C334.411 154.576 331.147 150.7 325.707 150.7C323.667 150.7 321.559 151.176 319.315 152.264L322.579 150.7L321.083 157.84C320.335 162.056 318.363 163.076 316.391 163.076C314.555 163.076 312.991 162.056 312.311 160.356C312.855 152.536 320.471 148.388 329.039 148.388C339.443 148.388 344.339 153.964 344.339 162.056C344.339 169.196 338.559 174.364 326.387 184.496C324.007 186.536 320.063 190.072 316.187 193.676L316.935 191.16V192.452H345.767V200H312.447ZM373.891 201.156C364.847 201.156 359.271 196.736 358.591 189.596C359.271 187.692 360.903 186.74 362.671 186.74C365.187 186.74 366.683 188.1 367.091 191.772L368.383 198.98L366.071 197.212C368.247 198.368 369.607 198.844 372.191 198.844C378.787 198.844 383.003 194.22 383.003 185.584C383.003 177.628 378.855 173.276 372.395 173.276C369.743 173.276 367.431 173.752 365.051 174.568L363.079 173.344L364.711 149.544H391.707V157.16H366.071L367.703 151.584L366.207 173.004L363.555 172.188C367.431 170.42 371.171 169.808 375.387 169.808C386.539 169.808 393.407 175.112 393.407 185.108C393.407 195.444 385.315 201.156 373.891 201.156Z" fill="#4ACAED"/>
<path d="M176.92 409L177.04 418.48C178.78 419.14 179.14 419.8 179.14 421C179.14 423.52 176.86 424.66 167.26 424.66H161.2C155.62 424.66 154.42 423.46 154.42 419.26V397.72H146.62C145.42 412.3 140.14 421.54 123.22 426.28L122.92 425.5C135.94 419.14 139.36 410.32 140.02 397.72H123.82L123.28 395.98H147.94V383.98H136.84C134.26 388.3 131.2 391.84 127.66 394.36L126.88 393.76C130.48 388.48 133.78 380.38 135.16 371.92L143.14 374.08C142.9 374.86 142.24 375.4 140.92 375.34C140.02 377.8 139 380.14 137.8 382.3H147.94V370.6L156.04 371.32C155.92 372.16 155.38 372.76 153.82 373.06V382.3H164.02L167.5 377.98C167.5 377.98 171.4 380.86 173.92 383.02C173.8 383.68 173.14 383.98 172.3 383.98H153.82V395.98H168.34L172 391.3C172 391.3 176.14 394.54 178.6 396.76C178.42 397.42 177.82 397.72 176.92 397.72H160.18V398.44V417.82C160.18 418.78 160.42 419.08 162.4 419.08H167.74C169.84 419.08 171.58 419.08 172.36 419.02C173.14 418.96 173.38 418.72 173.74 418.06C174.34 416.92 175.18 413.26 176.2 409H176.92ZM237.16 377.92H209.44L208.96 376.24H229.54L232.78 372.04C232.78 372.04 236.56 374.92 238.72 376.96C238.6 377.62 238 377.92 237.16 377.92ZM199.18 370.54L206.08 374.68C205.72 375.28 205.12 375.52 203.8 375.28C199.78 379.42 193 384.76 186.04 388.18L185.44 387.46C190.78 382.72 196.48 375.4 199.18 370.54ZM199.78 382.78L207.04 386.92C206.74 387.52 206.14 387.82 204.64 387.58C203.2 389.44 201.4 391.48 199.36 393.64L201.64 394.48C201.4 395.02 200.86 395.44 199.78 395.62V424.54C199.72 425.02 197.32 426.16 195.16 426.16H194.08V398.68C191.2 401.2 188.02 403.6 184.78 405.58L184.12 404.92C190.42 398.68 196.72 389.14 199.78 382.78ZM231.64 390.04L235 385.72C235 385.72 238.78 388.72 241.12 390.82C240.94 391.42 240.28 391.72 239.44 391.72H230.2V418.18C230.2 422.32 229.06 425.2 221.2 425.74C221.08 424 220.54 422.5 219.4 421.66C218.14 420.76 216.28 420.04 212.44 419.5V418.66C212.44 418.66 221.14 419.26 222.76 419.26C224.02 419.26 224.38 418.84 224.38 418V391.72H206.14L205.66 390.04H231.64ZM296.86 390.28L302.86 395.98C302.32 396.46 301.66 396.64 300.28 396.7C296.92 400.48 290.56 405.52 285.58 408.4L285.04 407.98C287.74 404.68 291.22 399.4 293.2 395.44H277.48V418.54C277.48 422.68 276.28 425.56 268.42 426.16C268.3 424.36 267.76 422.92 266.62 421.96C265.48 421.06 263.62 420.34 259.78 419.86V419.02C259.78 419.02 268.36 419.56 270.04 419.56C271.18 419.56 271.6 419.14 271.6 418.3V395.44H247.24L246.7 393.7H276.4C274.6 390.7 269.56 385.66 262.54 382L262.84 381.22C268.78 381.88 273.04 383.2 275.92 384.76C279.16 382.48 283.12 379.36 285.82 376.84H254.32L253.78 375.1H286.84L290.44 371.86L296.2 377.32C295.72 377.8 295 377.92 293.56 377.98C289.66 380.5 282.76 383.5 277.24 385.54C281.86 388.6 281.86 392.32 280.06 393.7H293.32L296.86 390.28ZM318.34 370.36L325.9 373C325.66 373.66 324.94 374.14 323.62 374.08C321.46 377.14 318.94 380.26 316.36 382.6C321.76 386.44 318.7 391.72 314.92 389.26C314.2 386.2 311.44 382.6 309.22 380.44L309.76 379.96C311.8 380.38 313.42 380.98 314.74 381.58C316 378.46 317.32 374.26 318.34 370.36ZM325.12 403.6L325.84 403.24C338.44 409.72 333.34 419.26 328.78 415.06C328.54 411.34 326.8 406.72 325.12 403.6ZM358.6 379.84L364.3 384.82C363.82 385.36 363.04 385.72 361.72 385.9C361.12 406.48 359.86 419.38 356.5 422.98C354.4 425.14 351.88 425.98 348.1 425.98C348.1 424.18 347.74 422.68 346.72 421.84C345.58 420.82 342.7 419.98 339.7 419.38V418.48C342.94 418.78 347.98 419.2 349.54 419.2C350.8 419.2 351.34 418.96 352.06 418.36C354.34 416.26 355.48 403 356.02 384.94H339.58C337.42 388.78 334.96 392.08 332.2 394.72H332.14C336.1 399.46 332.68 403.96 329.2 401.14C329.02 399.7 328.54 398.08 327.88 396.52L323.98 397.6V424.48C323.98 424.84 322.24 426.04 319.6 426.04H318.76V405.94C318.46 406.36 317.8 406.66 316.84 406.72C315.04 412.24 312.34 417.46 309.1 421L308.14 420.46C310 416.14 311.5 409.72 312.16 403.72L318.76 405.34V398.98C316.6 399.52 314.26 400.12 311.74 400.72C311.38 401.5 310.84 401.92 310.18 402.04L308.5 396.22C310.06 396.22 312.58 396.1 315.58 395.92C319.12 390.34 322.78 383.08 325 377.68L332.32 380.5C332.02 381.16 331.24 381.64 329.92 381.46C327.04 385.66 322.36 391.24 317.62 395.8C320.56 395.62 323.86 395.38 327.28 395.14C326.38 393.34 325.42 391.66 324.46 390.28L325.12 389.92C328.06 391.12 330.1 392.56 331.48 393.94C334.54 388.06 337.24 379.18 338.56 370.6L346.48 373C346.18 373.72 345.52 374.2 344.26 374.2C343.18 377.38 341.92 380.38 340.48 383.2H355.36L358.6 379.84ZM338.32 393.04L338.98 392.62C353.98 399.28 348.82 410.44 343.66 405.94C343.36 401.56 340.72 396.46 338.32 393.04ZM389.32 376.42H379V381.94H389.32V376.42ZM379 389.32H389.32V383.62H379V389.32ZM389.32 391.06H379V424C379 424.72 377.02 426.1 374.44 426.1H373.48V372.1L379.3 374.68H388.78L391.3 371.92L396.82 376.06C396.46 376.48 395.68 376.96 394.6 377.14V392.08C394.54 392.56 391.96 393.76 390.16 393.76H389.32V391.06ZM394.66 407.44H401.08V398.86H394.72V405.4C394.72 406.06 394.72 406.72 394.66 407.44ZM413.2 409.12H406.06V422.08C406.06 422.38 404.44 423.34 401.98 423.34H401.08V409.12H394.48C393.88 414.34 391.48 420.1 383.02 423.88L382.42 423.16C387.7 419.02 389.32 413.98 389.74 409.12H382.3L381.82 407.44H389.8C389.86 406.78 389.86 406.06 389.86 405.4V398.86H383.62L383.14 397.12H405.58L408.46 393.4C408.46 393.4 411.7 395.98 413.68 397.9C413.56 398.56 412.96 398.86 412.12 398.86H406.06V407.44H407.02L409.78 403.72C409.78 403.72 412.9 406.3 414.82 408.16C414.64 408.82 414.04 409.12 413.2 409.12ZM406.42 389.32H417.16V383.62H406.42V389.32ZM417.16 376.42H406.42V381.94H417.16V376.42ZM419.2 371.5L425.26 376.12C424.84 376.6 423.88 377.14 422.74 377.38V419.08C422.74 423.16 421.96 425.44 415.54 426.1C415.42 424.36 415.18 422.92 414.52 422.14C413.74 421.24 412.66 420.58 410.32 420.16V419.32C410.32 419.32 415 419.62 415.96 419.62C416.92 419.62 417.16 419.26 417.16 418.48V391.06H406.42V391.72C406.42 392.2 404.08 393.4 401.86 393.4H401.08V372.34L406.66 374.68H416.56L419.2 371.5ZM449.68 386.86H443.92C442.54 392.68 440.92 399.04 439.42 404.32C441.88 405.04 443.98 405.82 445.84 406.72C448.12 400.72 449.14 393.94 449.68 386.86ZM452.08 382.12L457.48 386.8C457.06 387.4 456.52 387.64 455.2 387.76C454.36 395.38 453.04 402.64 449.86 409C459.4 415.66 456.64 423.88 451.6 420.94C450.88 418.42 449.32 415.84 447.28 413.32C443.92 418.18 439.12 422.32 432.1 425.38L431.56 424.66C437.62 420.82 441.64 415.9 444.4 410.14C442.72 408.46 440.86 406.9 439.06 405.58C438.7 406.9 438.34 408.1 437.98 409.24C436.96 409.96 434.8 410.08 432.58 409.42C434.38 404.14 436.78 395.2 438.76 386.86H432.34L431.8 385.12H439.12C440.44 379.36 441.52 374.02 442 370.54L449.26 372.16C449.02 372.94 448.42 373.48 446.86 373.48C446.32 376.24 445.42 380.44 444.34 385.12H449.2L452.08 382.12ZM464.98 419.02H479.08V403.42H464.98V419.02ZM478.84 401.68L481.6 398.56L487 402.7C486.58 403.24 485.98 403.6 484.72 403.78V424.24C484.72 424.54 482.8 425.62 480.04 425.62H479.08V420.76H464.98V424.6C464.98 425.02 463.3 425.98 460.54 425.98H459.64V399.28L465.7 401.68H478.84ZM475.18 380.92L475.84 380.56C493.3 388.3 488.74 400.84 483.04 396.34C482.74 394.6 482.14 392.8 481.3 390.94C475.9 392.32 468.76 394 459.28 395.98C458.92 396.7 458.26 397.18 457.6 397.24L455.56 390.64C457.24 390.64 459.64 390.52 462.64 390.4C464.56 384.1 466.3 376.18 467.32 370.36L475.84 372.7C475.6 373.48 474.88 374.02 473.5 374.02C471.58 378.64 468.34 384.94 464.68 390.34C469.3 390.16 474.88 389.86 480.7 389.56C479.14 386.38 477.04 383.32 475.18 380.92Z" fill="#2E7184"/>
<g clip-path="url(#clip0_38_42)">
<path d="M541.69 267.456C538.042 267.304 535.208 264.224 535.36 260.577C535.512 256.93 538.592 254.096 542.239 254.247C545.886 254.399 548.72 257.479 548.569 261.126C548.417 264.774 545.337 267.608 541.69 267.456Z" fill="#DDF3FC"/>
<path d="M527.543 196.086C523.895 195.935 521.061 192.855 521.213 189.207C521.365 185.56 524.445 182.726 528.092 182.878C531.739 183.029 534.573 186.109 534.422 189.757C534.27 193.404 531.19 196.238 527.543 196.086Z" fill="#DDF3FC"/>
<path d="M562.317 221.253C562.12 225.989 558.124 229.676 553.378 229.479C548.632 229.281 544.955 225.275 545.152 220.539C545.349 215.803 549.346 212.116 554.092 212.313C558.838 212.511 562.515 216.507 562.317 221.253Z" fill="#AAE1F8"/>
<path d="M547.545 152.179C547.288 158.344 542.085 163.132 535.93 162.876C529.775 162.62 524.987 157.417 525.244 151.252C525.5 145.087 530.693 140.309 536.848 140.565C543.003 140.821 547.791 146.024 547.535 152.179L547.545 152.179Z" fill="#AAE1F8"/>
</g>
<path d="M111.698 508.308C107.801 510.394 102.97 508.892 100.906 504.951C98.8424 501.01 100.328 496.124 104.225 494.037C108.121 491.95 112.953 493.453 115.017 497.394C117.08 501.334 115.594 506.221 111.698 508.308Z" fill="#C2DCF2"/>
<path d="M65.8548 475.034C68.5371 480.156 74.8126 482.108 79.8774 479.396C84.9422 476.683 86.8722 470.336 84.19 465.214C81.5077 460.092 75.2322 458.14 70.1674 460.853C65.1026 463.566 63.1726 469.912 65.8548 475.034Z" fill="#E6F1FA"/>
<path d="M70.4377 424.379C73.9223 431.033 82.0923 433.574 88.6722 430.05C95.252 426.526 97.7647 418.263 94.2801 411.609C90.7955 404.955 82.6255 402.414 76.0456 405.938C69.4658 409.462 66.9531 417.724 70.4377 424.379Z" fill="#C2DCF2"/>
<g clip-path="url(#clip1_38_42)">
<path d="M513.652 485.392C504.202 477.214 492.092 474.001 488.404 473.167C487.419 476.901 491.379 484.536 494.229 488.646C494.606 489.188 494.606 489.919 494.229 490.44C491.903 493.653 486.141 502.978 487.105 507.714C487.189 508.089 487.335 508.381 487.482 508.673C490.897 504.459 501.709 491.775 513.652 485.392Z" fill="#69C5D2"/>
<path d="M532.049 478.132C531.232 478.027 530.645 477.297 530.708 476.463C531.001 472.311 530.624 461.839 525.931 458.814L518.597 483.827C529.262 482.429 542.023 483.764 547.743 484.515C544.432 480.677 535.695 478.632 532.049 478.132Z" fill="#69C5D2"/>
<path d="M518.681 486.977C520.902 491.942 526.769 505.795 528.801 517.686C530.897 514.452 531.944 506.254 532.007 500.517C532.007 499.849 532.426 499.265 533.055 499.056C537.225 497.617 548.372 492.652 549 487.853C544.726 487.248 530.122 485.413 518.681 486.977Z" fill="#69C5D2"/>
<path d="M522.893 458C517.047 458.209 510.153 467.117 507.827 470.872C507.471 471.435 506.822 471.706 506.172 471.581C501.856 470.705 495.884 470.183 492.071 470.872C497.581 472.395 507.387 475.879 515.58 482.93L522.893 458Z" fill="#69C5D2"/>
<path d="M490.143 510.384C495.863 512.115 505.564 508.944 509.147 507.422C509.357 507.338 509.567 507.296 509.776 507.296C510.195 507.296 510.635 507.463 510.928 507.797C515.119 512.324 521.95 518.165 525.826 518.979C523.961 507.109 517.696 492.464 515.643 487.874C504.391 493.694 493.705 506.024 490.143 510.363V510.384Z" fill="#69C5D2"/>
</g>
<g style="mix-blend-mode:multiply">
<path d="M548 315.148C548 348.51 541.071 379.741 529.086 408.732C516.677 438.826 503.349 469.914 480.794 492.582C458.239 515.249 427.164 528.289 397.22 540.759C368.337 552.804 337.438 558.488 304.242 558.488C271.046 558.488 238.097 557.707 209.214 545.698C179.27 533.227 155.796 509.707 133.241 487.039C110.686 464.371 94.7414 437.653 82.2972 407.56C70.3126 378.533 60.8027 348.546 60.8027 315.184C60.8027 281.822 69.2874 251.373 81.2367 222.381C93.6455 192.288 106.16 161.52 128.715 138.816C151.271 116.149 181.426 102.363 211.335 89.8924C240.218 77.848 270.975 69.6763 304.171 69.6763C337.368 69.6763 370.175 72.9805 399.023 84.9894C428.967 97.4602 453.749 119.453 476.304 142.156C498.859 164.824 518.48 190.689 530.889 220.782C542.874 249.81 547.894 281.786 547.894 315.184L548 315.148Z" stroke="#69C5D2" stroke-width="0.5" stroke-miterlimit="10"/>
</g>
<g style="mix-blend-mode:multiply">
<path d="M547.788 296.175C547.788 329.537 542.273 361.229 530.288 390.257C517.879 420.35 501.193 448.738 478.638 471.406C456.083 494.074 428.578 512.691 398.67 525.162C369.787 537.206 337.509 537.988 304.278 537.988C271.046 537.988 238.769 537.242 209.886 525.197C179.942 512.727 156.786 489.739 134.231 467.071C111.676 444.404 91.9488 419.817 79.5046 389.724C67.52 360.697 59 329.537 59 296.175C59 262.813 68.722 232.116 80.7066 203.124C93.1155 173.031 111.287 147.556 133.842 124.889C156.397 102.221 179.164 77.7056 209.108 65.2348C237.991 53.1904 271.081 51.6626 304.278 51.6626C337.474 51.6626 370.989 52.1955 399.872 64.24C429.816 76.7108 457.108 97.2467 479.663 119.914C502.218 142.582 514.203 173.528 526.647 203.621C538.632 232.649 547.823 262.813 547.823 296.175H547.788Z" stroke="#69C5D2" stroke-width="0.5" stroke-miterlimit="10"/>
</g>
<g clip-path="url(#clip2_38_42)">
<path d="M547.696 448.552C541.489 448.342 532.528 445.51 527.452 442.708C523.268 440.401 518.741 435.291 518.7 431.056C518.687 429.079 519.658 427.404 521.599 426.031C524.483 429.486 535.579 442.229 547.68 448.554L547.696 448.552Z" fill="#54C3F1"/>
<path d="M523.068 423.899C522.953 422.482 522.927 416.517 530.089 414.621C531.622 418.632 537.647 433.344 548.128 445.959C536.043 439.332 524.774 425.961 523.068 423.899Z" fill="#54C3F1"/>
<path d="M551.897 446.552C539.523 432.71 532.914 415.124 532.132 412.987C532.213 411.963 532.833 407.253 537.644 405.63C542.346 404.07 545.785 407.278 546.604 408.164C547.177 411.09 551.443 433.038 551.897 446.552Z" fill="#54C3F1"/>
<path d="M549.128 408.086C550.16 407.352 552.599 405.971 555.287 406.872C558.599 407.984 559.467 411.291 559.577 411.81C559.509 413.664 558.769 433.401 554.281 444.263C553.532 430.933 549.912 412.102 549.128 408.086Z" fill="#54C3F1"/>
<path d="M567.09 414.512C568.84 416.088 569.635 418.772 569.415 422.472C568.882 431.943 562.134 440.707 556.545 445.247C560.868 434.836 561.832 417.45 562.031 412.855C563.28 412.843 565.455 413.056 567.092 414.529L567.09 414.512Z" fill="#54C3F1"/>
<path d="M552.427 450.546C552.427 450.546 552.495 450.555 552.528 450.551C552.758 450.525 552.981 450.432 553.163 450.278C553.338 450.208 553.55 450.167 553.723 450.08C553.723 450.08 553.74 450.078 553.756 450.076C553.756 450.076 553.756 450.076 553.772 450.074C553.772 450.074 553.789 450.072 553.805 450.071C556.14 448.935 559.382 446.43 562.484 443.011C562.932 443.424 563.353 443.891 563.683 444.434C561.755 446.77 553.834 454.905 539.221 452.064C539.21 451.533 539.27 450.761 539.549 449.865C543.46 450.823 547.404 451.346 550.512 450.985C551.202 450.905 551.82 450.767 552.417 450.598L552.427 450.546Z" fill="#54C3F1"/>
</g>
<g clip-path="url(#clip3_38_42)">
<path d="M157.821 95.3285C150.383 98.6825 141.45 98.9712 136.495 98.8022L130.022 110.537L128.644 100.394L121.955 92.6467L135.018 95.558C138.177 91.7448 144.302 85.2288 151.741 81.8748C162.68 76.9417 172.293 80.6981 172.293 80.6981C172.293 80.6981 168.732 90.3942 157.804 95.322L157.821 95.3285Z" fill="#69C5D2"/>
<path d="M196.618 56.9911C188.53 58.0685 179.89 55.7803 175.193 54.1961L165.634 63.5639L167.226 53.4527L163.043 44.1108L174.72 50.6498C178.841 47.904 186.579 43.4209 194.667 42.3435C206.563 40.7589 214.692 47.1167 214.692 47.1167C214.692 47.1167 208.498 55.3825 196.615 56.9654L196.618 56.9911Z" fill="#69C5D2"/>
<path d="M223.938 86.5221C216.126 88.8757 207.231 87.9949 202.341 87.1802L194.399 97.9526L194.358 87.7169L188.738 79.1619L201.309 83.7546C204.939 80.3868 211.863 74.7268 219.676 72.3732C231.166 68.9115 240.205 73.8914 240.205 73.8914C240.205 73.8914 235.409 83.0393 223.931 86.4972L223.938 86.5221Z" fill="#69C5D2"/>
</g>
<g clip-path="url(#clip4_38_42)">
<g style="mix-blend-mode:multiply" opacity="0.2">
<path d="M99.1917 131.759C86.5037 169.289 131.96 194.967 160.68 170.188C183.672 150.371 172.44 113.387 143.768 106.947C124.76 102.676 105.448 113.259 99.1917 131.759Z" fill="#84BAE5"/>
</g>
</g>
<g clip-path="url(#clip5_38_42)">
<path d="M101.599 110.861C101.257 109.871 100.691 108.832 99.8921 107.721C97.5573 104.522 96.2666 103.557 95.6384 103.268C95.3315 103.128 95.1957 103.154 95.1743 103.162C95.1384 103.163 94.4333 103.388 93.9176 106.783C93.7161 108.108 93.2839 110.975 93.3591 113.508C95.9048 112.126 98.752 111.166 101.591 110.84L101.599 110.861Z" fill="#84BAE5"/>
<path d="M110.928 120.249C111.693 120.317 112.454 120.471 113.194 120.67C113.168 120.303 113.12 119.945 113.037 119.588C112.698 118.245 112.071 117.106 111.199 116.192C110.342 115.285 109.363 114.605 108.296 114.115C103.811 112.054 97.9067 113.506 93.3636 116.309C87.6005 119.881 82.7868 126.316 85.0358 132.629C85.0358 132.629 85.2859 133.24 86.1032 133.81C86.3028 133.529 86.5035 133.285 86.6762 133.063C91.8078 126.668 101.231 119.48 110.928 120.249Z" fill="#84BAE5"/>
<path d="M114.564 134.481C116.227 134.519 117.898 134.772 119.488 135.201C120.532 132.35 120.223 129.479 118.468 127.061C117.383 125.57 115.868 124.361 114.188 123.589C113.078 123.079 111.901 122.751 110.718 122.669C101.981 121.968 93.3039 128.649 88.5458 134.577C86.6719 136.924 82.6855 142.906 86.119 148.027C87.2838 149.766 88.7376 150.877 90.4668 151.388C94.8673 142.424 104.524 134.228 114.549 134.474L114.564 134.481Z" fill="#84BAE5"/>
<path d="M127.523 144.402C126.821 142.503 125.494 140.884 123.574 139.594C122.964 139.19 122.289 138.809 121.588 138.487C119.469 137.514 116.99 136.942 114.505 136.881C106.072 136.675 94.7001 144.367 91.1681 156.14C89.8708 160.504 88.9614 168.609 97.5103 173.918C99.9924 175.448 99.7636 178.372 99.5735 180.712C99.3503 183.586 99.4728 184.475 100.735 184.771C104.318 185.638 118.143 173.952 125.73 158.32C127.186 155.303 129.379 149.489 127.494 144.389L127.523 144.402ZM104.441 178.82C104.129 178.96 103.783 178.943 103.476 178.802C103.403 178.768 103.316 178.728 103.256 178.665C102.917 178.403 102.737 177.984 102.789 177.565C102.8 177.464 104.03 167.044 103.392 161.152C102.947 156.997 105.074 151.79 108.353 149.08C110.644 147.173 113.245 146.596 115.905 147.393L116.058 147.445C119.09 148.431 121.211 150.362 122.199 153.065C123.368 156.26 122.777 160.241 120.638 163.705C113.704 174.872 104.825 178.677 104.456 178.827L104.441 178.82Z" fill="#84BAE5"/>
</g>
<g clip-path="url(#clip6_38_42)">
<g style="mix-blend-mode:multiply" opacity="0.15">
<path d="M492 491.77C492 496.578 491.091 500.921 489.348 505.116C487.604 509.311 485.319 513.433 482.028 516.696C478.737 519.959 475.151 523.05 470.804 524.866C466.456 526.681 461.912 527.025 457.074 527.025C452.235 527.025 447.519 526.632 443.344 524.89C439.169 523.148 435.288 520.082 431.997 516.819C428.705 513.556 426.249 509.606 424.432 505.263C422.614 500.921 421.976 496.578 421.976 491.77C421.976 486.961 423.056 482.619 424.8 478.424C426.544 474.228 428.877 470.18 432.169 466.893C435.46 463.605 439.144 460.858 443.491 459.042C447.839 457.227 452.235 456 457.049 456C461.863 456 466.481 457.153 470.681 458.87C474.881 460.588 479.4 462.869 482.667 466.157C485.933 469.444 487.555 474.057 489.348 478.399C491.14 482.742 491.951 486.961 491.951 491.77H492Z" fill="#69C5D2"/>
</g>
</g>
<g clip-path="url(#clip7_38_42)">
<path d="M182.94 541.025V555.017H193.735V538.537C193.735 538.537 205.157 535.009 208.546 534.703C211.935 534.396 215.697 538.367 224.95 537.6C234.202 536.816 234.609 533.629 233.846 531.959C233.219 530.613 231.372 530.34 227.678 531.141C223.967 531.942 220.425 532.658 216.409 530.493C216.409 530.493 232.22 524.767 239.557 520.132C245.878 516.144 243.641 512.326 243.641 512.326C243.641 512.326 242.489 508.747 235.541 513.639C229.237 518.087 224.458 521.205 221.832 521.887C219.205 522.569 223.509 518.376 225.814 511.849C227.949 505.816 224.119 505.816 224.119 505.816C224.119 505.816 221.188 504.521 218.409 511.849C215.629 519.177 215.223 523.267 212.952 523.71L206.529 525.858L209.308 514.371C209.308 514.371 210.393 510.196 207.156 510.196C203.733 510.196 201.903 520.609 201.903 520.609L200.208 528.039L193.261 529.471V510.196L202.988 502.186C202.988 502.186 212.24 504.419 223.967 499.766C223.967 499.766 230.915 497.125 230.135 494.313C229.559 492.199 227.509 492.285 222.577 494.313C217.646 496.341 211.308 496.801 208.851 496.034C215.951 490.154 223.492 484.411 230.864 478.838C234.355 476.197 237.981 472.362 235.287 470.096C232.83 468.016 227.695 472.788 225.526 474.697C225.526 474.697 215.324 482.349 215.223 482.792C215.223 482.792 216.053 478.583 220.018 473.112C221.018 471.749 225.814 468.016 222.73 465.511C222.73 465.511 220.103 463.654 216.256 467.369C212.393 471.101 209.308 476.776 209.308 485.774L199.581 494.313C199.581 494.313 195.87 489.967 197.26 485.468C198.649 480.969 201.581 477.696 199.412 475.873C197.802 474.51 195.396 474.867 192.786 478.327C189.549 482.571 190.464 492.932 194.498 497.67C194.498 497.67 191.108 504.742 188.16 504.742C185.838 504.742 180.602 496.869 180.602 496.869C180.602 496.869 183.212 488.484 182.923 483.917C182.618 479.094 179.382 481.088 179.382 481.088C179.382 481.088 177.992 481.088 177.535 486.405C177.043 492.012 176.145 493.239 176.145 493.239L171.824 486.098C171.824 486.098 171.824 478.958 170.434 474.527C169.045 470.096 166.723 470.249 165.96 470.249C165.198 470.249 163.334 471.152 163.961 474.527C164.842 479.367 165.96 485.093 165.96 485.161C165.96 485.161 155.691 479.315 152.658 477.901C148.37 475.89 144.371 478.123 146.049 481.105C147.489 483.644 150.794 484.973 153.319 486.183C159.623 489.217 167.028 491.023 167.655 491.859L171.824 498.403C171.824 498.403 168.892 500.243 165.198 499.937C161.487 499.63 160.114 504.027 166.74 504.76C173.366 505.492 175.976 503.464 175.976 503.464L183.55 508.781L182.94 532.93L174.298 526.318C174.298 526.318 176.857 519.126 174.993 514.388C173.247 509.923 171.146 507.895 169.35 508.781C166.418 510.213 167.808 512.531 168.74 514.388C169.672 516.246 170.434 520.285 169.977 523.097C169.519 525.892 159.792 514.491 159.487 513.349C159.182 512.224 157.013 498.403 157.013 498.403C157.013 498.403 155.928 491.075 152.234 492.319C148.709 493.495 151.455 502.203 151.455 502.203L154.234 511.338L144.202 501.999C144.202 501.999 140.49 498.658 137.406 500.38C134.322 502.101 136.796 505.731 139.728 508.185C142.66 510.656 156.386 520.149 159.792 523.097C163.181 526.045 166.265 527.818 164.418 529.505C162.571 531.175 158.555 530.681 156.555 530.544C154.556 530.408 150.997 529.42 150.539 532.01C150.082 534.6 152.539 536.151 159.182 535.998C165.825 535.845 169.062 534.754 170.129 534.754C171.214 534.754 182.94 541.094 182.94 541.094V541.025Z" fill="#80D2F4"/>
</g>
<path d="M281.619 586.611H273.386V577.914C272.348 576.106 265.521 576.191 259.53 575.526C253.539 574.861 244.452 574.383 244.553 572.473C244.653 570.563 245.205 569.506 249.138 569.796C253.071 570.086 255.698 570.751 255.497 569.744C255.313 568.738 249.874 566.828 248.201 565.583C246.511 564.338 245.858 560.808 247.08 559.853C248.301 558.898 250.493 558.744 253.071 561.575C256.635 565.498 258.593 568.073 265.052 569.506C267.579 570.068 270.307 570.734 272.917 570.478C273.152 566.658 274.022 561.473 270.842 558.608C269.336 557.244 267.345 556.34 265.487 555.589C265.002 555.385 261.772 553.952 261.304 554.327C261.304 554.327 255.129 559.205 253.071 557.192C253.071 557.192 251.765 555.282 254.56 553.372L257.371 551.462L245.758 546.499C245.758 546.499 242.294 544.777 243.13 542.014C243.967 539.251 249.021 542.014 251.832 543.822C254.644 545.629 253.706 544.777 253.706 544.777L253.522 539.609C253.522 539.609 252.485 535.022 256.15 534.732C259.814 534.442 257.84 546.005 257.84 546.005L263.362 548.972L264.299 544.095C264.299 544.095 264.584 539.319 267.395 540.172C270.206 541.025 268.232 548.205 268.232 548.205L267.864 550.967C267.864 550.967 273.018 554.412 274.691 554.123C276.381 553.833 280.866 549.245 281.151 547.045C281.435 544.845 276.197 541.792 276.197 541.792C276.197 541.792 272.549 539.78 274.239 536.829C275.93 533.862 283.594 540.752 283.594 540.752L289.685 532.822C289.685 532.822 294.371 524.414 297.45 526.221C300.546 528.029 292.496 537.307 292.496 537.307C292.496 537.307 290.538 539.984 293.534 538.842L299.056 535.499C299.056 535.499 303.173 531.491 305.616 533.879C307.791 536.011 300.027 540.343 298.839 541.059C294.655 543.583 290.287 545.834 286.422 548.887C283.527 551.172 279.862 556.715 279.678 557.482C279.494 558.25 279.31 565.02 280.147 565.498C280.983 565.975 287.894 564.799 288.832 561.933C289.802 558.983 288.062 555.777 289.367 552.775C290.421 550.371 292.547 548.529 295.207 548.665C297.5 548.767 294.923 552.656 294.521 553.526C293.718 555.316 293.735 561.661 297.165 560.194C299.374 559.239 300.428 557.141 300.73 554.805C301.098 551.923 301.215 548.58 302.219 545.834C302.788 544.299 304.411 540.206 307.557 541.826C309.465 542.798 307.105 546.823 306.553 548.205C305.951 549.654 303.056 558.267 304.93 558.898C308.076 559.972 314.786 556.323 315.79 558.642C317.313 562.189 310.134 564.014 307.223 564.577C305.516 564.901 296.764 565.259 296.245 567.527C295.726 569.796 298.554 570.989 300.261 571.45C302.119 571.944 304.428 571.655 306.185 572.354C307.674 572.951 306.737 574.349 305.884 575.065C304.026 576.6 301.232 575.85 299.123 575.338C297.835 575.031 296.529 574.69 295.324 574.093C292.982 572.934 291.71 568.858 288.748 569.727C285.853 570.58 280.531 572.848 280.531 572.848C280.531 572.848 281.167 584.548 281.619 586.645V586.611Z" fill="#69C5D2"/>
<defs>
<clipPath id="clip0_38_42">
<rect width="42.4" height="126.58" fill="white" transform="matrix(-0.999136 -0.0415518 -0.0415518 0.999136 565.623 141.762)"/>
</clipPath>
<clipPath id="clip1_38_42">
<rect width="62" height="61" fill="white" transform="translate(487 458)"/>
</clipPath>
<clipPath id="clip2_38_42">
<rect width="51.6649" height="47.9074" fill="white" transform="matrix(-0.99332 0.115388 0.115388 0.99332 567.32 402)"/>
</clipPath>
<clipPath id="clip3_38_42">
<rect width="117.57" height="64.0337" fill="white" transform="translate(112 55.9136) rotate(-16.7655)"/>
</clipPath>
<clipPath id="clip4_38_42">
<rect width="76" height="74" fill="white" transform="translate(97 106)"/>
</clipPath>
<clipPath id="clip5_38_42">
<rect width="51" height="72" fill="white" transform="translate(95.0537 103) rotate(24.6713)"/>
</clipPath>
<clipPath id="clip6_38_42">
<rect width="70" height="71" fill="white" transform="translate(422 456)"/>
</clipPath>
<clipPath id="clip7_38_42">
<rect width="187" height="90" fill="white" transform="translate(136 465)"/>
</clipPath>
</defs>
</svg>
