<svg width="53" height="51" viewBox="0 0 53 51" fill="none" xmlns="http://www.w3.org/2000/svg">
<path d="M45.3158 31.4268C49.8589 29.9553 52.5994 25.5594 52.2315 20.9796C52.2112 20.7693 52.1231 20.5712 51.9805 20.4153C51.8378 20.2594 51.6484 20.154 51.4406 20.1151C51.4406 20.1151 49.8037 19.7657 49.4358 19.6921C49.2519 19.6553 49.1783 19.4162 49.2887 19.2875C49.5278 19.03 50.6681 17.7425 50.6681 17.7425C50.9624 17.4298 51.0176 16.9332 50.7969 16.5653C48.4242 12.6476 43.6237 10.698 39.0622 12.1878C37.7564 12.6109 36.616 13.3834 35.6228 14.3582C36.2481 13.1075 36.616 11.8016 36.616 10.4221C36.616 5.63997 33.2869 1.66711 28.8174 0.618716C28.6093 0.576888 28.3934 0.600381 28.1991 0.685983C28.0049 0.771584 27.8418 0.915112 27.7322 1.09693C27.7322 1.09693 26.8862 2.54997 26.7022 2.88104C26.6103 3.04657 26.3528 3.02818 26.2792 2.89943C26.0953 2.58675 25.2492 1.09693 25.2492 1.09693C25.0285 0.729073 24.5871 0.508359 24.1824 0.618716C19.7314 1.64872 16.3839 5.62157 16.3839 10.4037C16.3839 11.7832 16.7701 13.0891 17.3771 14.3398C16.3839 13.365 15.2619 12.6109 13.956 12.1878C9.39457 10.698 4.59403 12.6476 2.22135 16.5653C2.00064 16.9332 2.05582 17.4114 2.3501 17.7425C2.3501 17.7425 3.47207 18.9932 3.72957 19.2691C3.85832 19.3978 3.76635 19.6553 3.60082 19.6921L1.5776 20.1151C1.15457 20.2071 0.823494 20.5566 0.786708 20.9796C0.591502 23.2459 1.1686 25.5115 2.42417 27.4082C3.67974 29.3049 5.53997 30.7212 7.70242 31.4268C9.02671 31.8498 10.3878 31.905 11.7856 31.6842C10.5349 32.328 9.43135 33.1741 8.62207 34.296C5.80796 38.1585 6.17582 43.3269 9.17385 46.8032C9.44975 47.1342 9.92796 47.2262 10.3326 47.0423C10.3326 47.0423 11.8592 46.3617 12.2087 46.1962C12.3742 46.1226 12.5765 46.2698 12.5581 46.4353L12.3374 48.4953C12.3006 48.9184 12.5214 49.3598 12.926 49.5253C17.1564 51.291 22.1776 50.0403 24.9917 46.1778C25.801 45.0559 26.2608 43.7868 26.4999 42.4073C26.739 43.7868 27.1989 45.0742 28.0081 46.1778C30.8222 50.0403 35.8435 51.291 40.0739 49.5253C40.4785 49.3598 40.6992 48.9367 40.6624 48.4953C40.6624 48.4953 40.4785 46.8216 40.4417 46.4537C40.4233 46.2698 40.6256 46.1226 40.7912 46.1962L42.6856 47.0423C43.0719 47.2262 43.5685 47.1342 43.8444 46.8032C46.8424 43.3269 47.2103 38.1585 44.3962 34.296C43.5869 33.1741 42.4833 32.3464 41.2326 31.6842C42.6305 31.905 43.9915 31.8498 45.3158 31.4268ZM29.8732 29.3208L31.2582 31.2336C31.3195 31.2263 31.3826 31.2226 31.4476 31.2226C31.8443 31.223 32.2302 31.3516 32.5478 31.5893C32.8654 31.827 33.0976 32.161 33.2099 32.5414C33.3221 32.9219 33.3083 33.3285 33.1706 33.7005C33.0329 34.0725 32.7786 34.39 32.4456 34.6056C32.1127 34.8213 31.7189 34.9235 31.3231 34.8971C30.9274 34.8706 30.5507 34.7169 30.2494 34.4589C29.9481 34.2009 29.7383 33.8524 29.6513 33.4654C29.5642 33.0784 29.6046 32.6736 29.7665 32.3114L28.3834 30.4004C27.7958 30.6663 27.1582 30.8036 26.5133 30.8029C25.8684 30.8023 25.2311 30.6638 24.6441 30.3967L23.2499 32.3151C23.4145 32.685 23.4524 33.0989 23.3578 33.4926C23.2632 33.8863 23.0413 34.2377 22.7266 34.4925C22.4119 34.7472 22.022 34.891 21.6172 34.9015C21.2125 34.912 20.8156 34.7887 20.4881 34.5506C20.1606 34.3126 19.9207 33.9731 19.8058 33.5849C19.6909 33.1967 19.7073 32.7814 19.8524 32.4034C19.9976 32.0254 20.2634 31.7059 20.6086 31.4944C20.9539 31.2829 21.3593 31.1913 21.7619 31.2336L23.1579 29.3153C22.7229 28.8393 22.3946 28.2758 22.1951 27.6627C21.9956 27.0495 21.9294 26.4007 22.001 25.7599L19.7479 25.0297C19.447 25.3007 19.0651 25.4647 18.6615 25.4965C18.2578 25.5283 17.855 25.426 17.5154 25.2055C17.1758 24.985 16.9185 24.6585 16.7834 24.2769C16.6482 23.8952 16.6428 23.4796 16.7679 23.0945C16.893 22.7094 17.1417 22.3764 17.4754 22.1471C17.8091 21.9178 18.2091 21.8049 18.6134 21.8261C19.0178 21.8473 19.4038 22.0014 19.7117 22.2643C20.0196 22.5273 20.2321 22.8845 20.3162 23.2806L22.5675 24.0107C22.887 23.449 23.3226 22.9619 23.8453 22.5819C24.368 22.2019 24.9658 21.9379 25.5987 21.8073V19.4456C25.248 19.2432 24.974 18.9307 24.819 18.5566C24.6641 18.1826 24.6369 17.7678 24.7417 17.3767C24.8465 16.9856 25.0774 16.6401 25.3986 16.3936C25.7199 16.1471 26.1134 16.0135 26.5183 16.0135C26.9232 16.0135 27.3168 16.1471 27.638 16.3936C27.9592 16.6401 28.1901 16.9856 28.2949 17.3767C28.3997 17.7678 28.3725 18.1826 28.2176 18.5566C28.0627 18.9307 27.7886 19.2432 27.438 19.4456V21.8073C28.7347 22.074 29.829 22.8925 30.4654 24.0071L32.7002 23.2824C32.7837 22.8862 32.9957 22.5285 33.3032 22.2651C33.6107 22.0016 33.9966 21.847 34.4009 21.8252C34.8053 21.8034 35.2056 21.9157 35.5396 22.1446C35.8736 22.3735 36.1228 22.7062 36.2484 23.0912C36.3741 23.4762 36.3691 23.8919 36.2344 24.2738C36.0996 24.6556 35.8427 24.9824 35.5033 25.2033C35.1639 25.4242 34.7611 25.5269 34.3573 25.4956C33.9536 25.4642 33.5715 25.3004 33.2703 25.0297L31.0338 25.7581C31.0522 25.9224 31.0614 26.0885 31.0614 26.2565C31.0614 27.4373 30.6107 28.5133 29.8732 29.3208Z" fill="white"/>
</svg>
